M48
;Layer_Color=9474304
;FILE_FORMAT=4:4
METRIC,LZ
;TYPE=PLATED
T1F00S00C0.3000
T2F00S00C0.3500
T3F00S00C0.4000
T4F00S00C1.1000
T5F00S00C3.5000
;TYPE=NON_PLATED
T6F00S00C3.5000
%
T01
X-000125Y-0039
X-0000625Y-0039075
X0Y-003915
X0000625Y-0039075
X000125Y-0039025
X0015Y-00325
X0016
X00165Y-0032
X0016Y-00315
X00155Y-0032
X000445Y-0021375
X-0007125Y-002
Y-0019
Y-0018
Y-0017
Y-0016
X-001025Y-002175
X-00125Y-0024875
X-000875Y-00274499
X-0021Y-0024875
X-002425Y-0024875
X-0022Y-002175
X-0018875Y-002
Y-0019
Y-0018
Y-0017
Y-0016
X-002125Y-0011
Y-001
X-002175Y-00105
X-002225Y-0011
Y-001
X-002375Y-000758
Y-000504
X-002025
X-002025Y-00025
X-002025Y-000123
Y000004
Y000258
X-002375Y00026
Y000131
X-0024Y0003875
Y0004625
X-002325
Y0003875
X-0023125Y0008365
X-00225Y001
Y0011
X-0028125Y0010905
X-001675Y00129
X-001595Y0017
X-001625Y00041
Y000258
Y000131
Y000004
Y-000123
Y-00025
Y-000377
Y-000504
Y-000758
X-0026625Y-0007625
Y-0007
Y-0006375
X-00345083Y001848
X-00341958Y00190212
X-00339049Y0019575
X-00335707Y00201038
X-00332366Y00206325
X-0015Y0017
X-001515Y00105
X-001405Y0011
X-000925Y00105
X-000825
X-00038Y00105
X-000525Y00126
Y001385
X00015Y0013225
Y0014525
Y0015825
Y0017125
Y0018425
Y0019725
X000425Y0019075
Y0016475
Y0013875
Y0012125
Y0011
X000625Y001075
X0007845Y001025
X001375Y001075
X0014845Y001025
X002075Y001075
X0021845Y001025
Y002025
X002075Y002075
Y0022875
X001975
X0014845Y002025
X001375Y002075
X0007845Y002025
X000675Y002075
X-00033Y0020375
X-000385
X-000525Y002325
X-001325Y000131
Y-000123
X-0014Y-000631
X-0012875Y-0008375
X-00104Y-001
X-00099Y-00105
X-00104Y-0011
X-00094
Y-001
X00344866Y00184675
X00341957Y00190212
X00339049Y0019575
X00335707Y00201038
X00332582Y0020645
X00290926Y00249571
X00277036Y00249011
X0015Y003475
X00125
X-000525Y003225
Y002925
Y0028
Y0024625
X-001175Y0024325
Y0028825
Y0033325
X-001475Y00337465
T02
X00280002Y-00219999
Y-00199999
X00300002
X00180002Y-00239999
Y-00259999
X0020125Y-0030375
X0019625Y-0030875
X00100001Y-00299999
X000875Y-002165
X0011875
X001025Y-002
X00020001Y-00239999
Y-00259999
X-00099999Y-00299999
X-00119999
X-00139999
Y-00319999
Y-00339999
X-00119999
Y-00319999
X-00099999
Y-00339999
Y-00359999
X-00079999
Y-00339999
Y-00319999
X-00159999
X-00179999
Y-00299999
X-00199999
X-00219999
X-00159999
X-00319999Y-00179999
Y-00159999
X-00299999
X-00319999Y-00139999
X-00339999
Y-00119999
X-00319999
X-002875Y-000425
Y-000325
Y-0002
X-002775Y-000425
X-0026625Y0003
Y000375
Y00045
X-0026Y000575
X-00299999Y00080001
Y00100001
X-00319999
X-00339999
X-00359999
X-00339999Y00120001
X-00319999
X-00299999
X-00165Y00185
Y001925
Y002
X-00151251Y0022
X-00133
X-00099999Y00220002
X-00094Y001325
X-00059999Y00100001
Y00080001
X-0002375Y0011925
X-001075Y0004
X-00039999Y-00119999
X-00019999
X00000001
X00020001
X00040001
Y-00139999
X00020001
X-00019999
X-00039999
X00060001
Y-00119999
X00080001Y-00059999
X00100001
X00120001Y-00039999
Y-00019999
X00080001Y-00039999
X00100001Y00020001
X00320001Y-00119999
X00340002
X00320001Y-00139999
X00120001Y00360002
X00100001
X00020001Y00340002
X-00099999
Y00320001
Y00300002
Y00280002
Y00260002
Y00240002
X-00133Y002575
Y002675
Y003025
Y003125
X-00179999Y00300002
Y00280002
Y00260002
Y00240002
X-00259999Y00260002
T03
X-001525Y-00215
X-001425
X-0012Y-001975
X-0011
X-001
Y-001875
Y-001775
X-0011
X-0012
Y-001875
X-0011
X-00025Y-00185
X-0001
X00005
Y-002
X-0001
X-00025
X-0002625Y-002275
Y-0023625
Y-00245
Y-0025375
X-000175Y-00245
Y-0023625
Y-002275
X0002Y-002
Y-00185
X-00025Y-0017
X001025Y-00315
X001125
Y-00325
X-001625Y-00215
X-001725
X-002175Y-001975
Y-001875
Y-001775
X-002275
X-002375
Y-001875
X-002275
Y-001975
X-002375
X-0026Y-00215
X-0027
X-0028
X-002475Y0016
X-0023875
X-0023
X-0023175Y0023125
X-0024
X-0024825
X-0021575
X-002075
X-0019925
X-001675Y000825
X-001575
X000825Y001525
X000925
Y001625
X001025
X001125
Y001525
X001025
Y001425
X001125
Y001725
Y001825
Y001925
Y002025
Y002125
X001025
Y002025
Y001925
Y001825
Y001725
X000825Y001625
X001525
Y001525
X001625
X001725
Y001425
X001825
Y001525
Y001625
Y001725
X001725
Y001825
X001825
Y001925
X001725
Y002025
X001825
Y002125
X001725
Y001625
X001625
X002225
Y001525
X002325
Y001625
X0011Y-0002
Y-00035
Y-0005
X00095
Y-00035
Y-0002
X00142301Y-00119519
X00149372Y-0012659
Y-00140732
X00142301Y-00147803
Y-00133661
X00156443
X0013523Y-0012659
Y-00140732
X00128159Y-00133661
X002425Y001425
X002525
Y001525
X002425
Y001625
Y001725
X002525
Y001825
X002425
Y001925
X002525
Y002025
X002525Y002125
X002425
X002425Y002025
X002525Y001625
X0025125Y002525
Y002625
Y002725
X0024125
Y002625
Y002525
X0023125
Y002625
Y002725
X0022125
Y002625
Y002525
X001825
Y002625
Y002725
X001725
X001625
Y002625
X001725
Y002525
X001625
X001525
Y002625
Y002725
X0012
Y002625
Y002525
X0011
X001
Y002625
Y002725
X0011
Y002625
X0009
Y002725
Y002525
X001Y0035
X0010875
X001175
X001325
X001425
X0Y003425
X-0001
X-0002
X-00005Y00315
X-0019925Y0024
X-002075
X-0021575
X-0023175
X-0024
X-0024825
T04
X00281396Y-00249221
X00302944Y-0022164
X00259604Y-00187779
X00332545Y-00173784
X00238056Y-00215359
X00283112Y-00149674
X00298455Y-00118216
X00347888Y-00142326
X0028Y-0006
Y-00035
X002525Y00015
Y0005
Y00085
X003075
Y0005
Y00015
T05
X0Y-0036
X00311769Y0018
T06
X0039Y-0042
X-0039
X-00311769Y0018
X0039Y0042
X-0039
M30
