M48
;Layer_Color=9474304
;FILE_FORMAT=4:4
METRIC,LZ
;TYPE=PLATED
T1F00S00C0.3000
T2F00S00C0.3500
T3F00S00C0.4000
T4F00S00C0.4500
T5F00S00C1.1000
T6F00S00C1.3000
T7F00S00C3.5000
T8F00S00C4.1000
;TYPE=NON_PLATED
T9F00S00C3.5000
T10F00S00C4.1000
%
T01
X002925Y-00215
Y-00205
Y-00195
Y-00185
Y-00175
X003475Y-00185
Y-00195
Y-00205
Y-00215
X0038
Y-00205
Y-00195
Y-00185
X00225Y-002325
X0022467Y-002475
X0023Y-00335
Y-003525
X00215Y-00355
X002075
Y-003625
X00215
Y-003475
X002075
X00203164Y-00333
X00195Y-00379
X00174
X0016Y-003775
X001425Y-0038
X001275Y-00345
Y-003375
Y-0033
X0012
Y-003375
Y-00345
X001025Y-00342709
Y-00328753
X00105Y-0036008
X000925Y-003725
Y-0038113
X00085Y-00395
X000925Y-00415
X001
X001075
X00115
X001225
X001475Y-00307
X00166
X0006Y-003
X0003
Y-0028
X0
Y-003
X-0003
X-00057733Y-00295813
X-00070385Y-0031
X-00068479Y-00340497
X-001175Y-0032
X-00135Y-0028875
X-00145
X-00155
X-00057733Y-00265813
X-0003Y-0022
Y-002
X-00060313Y-001925
X-00084592Y-00165
X-001175Y-00175
X-0003Y-0016
X0
Y-0019
X0003
Y-0016
X0006
X0008
Y-0019
X0006
Y-0022
X0006Y-00239193
X000375Y-0023
X0003Y-0022
X000125Y-002325
X-001475Y-00415
X-0016
X-0019375Y-00405606
X-002225Y-004175
X-0017325Y-00360956
X-001595
X-00165Y-0028875
X-00175
X-0024875Y-002675
Y-0026125
X-00255
Y-002675
X-0026125
Y-0026125
X-0035613Y-00195
X-00368891
X-00339082Y-0015
X-00343Y-00075
X-003525
X-0032Y-0007175
Y-0006525
X-0034078Y-000225
X-00350479
X-00362
X-0027625Y-000245
X-0027
X-0026375
X-0023625Y-000377
Y-000631
X-0026Y-000758
X-0019797Y-000504
X-00200016Y-0003648
X-0020375Y-00025
Y-000123
Y000004
Y000131
X-002375Y000258
X-0024875Y0004
Y000475
Y00055
X-00255
X-0027Y00029
X-002325Y00088251
X-00215Y00077
X-00209Y00067
X-002Y00071
X-00186
X-00175Y00074
X-0017325Y00083
X-00193Y00062
X-00187Y00054
X-002325Y00119282
X-002475
X-0020575Y00177
X-00197Y00176985
X-0017975Y00177
X-00171Y00176985
X-001613Y-000758
X-00165Y-0014375
X-00175
X-00155
X-00145
X-00135
X-000935Y-001525
X-0015Y-000631
X-00133Y000555
X-00138Y00078
X-001455Y0008198
X-0015375Y00083
X-0013425Y0010967
X-00134Y00175
X-00121
X-00114Y00185956
X-00135Y00193448
X-0015375Y00177
X-00008Y001525
X001245
X001Y-0002
Y-0005
Y-0008
X0007
X0013Y-0005
X0028Y-000575
X002925
Y-0007
Y-000825
Y-00095
Y-001075
X003475Y-001
Y-0009
Y-0008
Y-0007
X0038
Y-0008
Y-0009
Y-001
X004275Y0017
X0043Y0023
X00257Y001525
X00257Y00303
X003425Y002425
X00355
X003675
X0038
X001245Y003025
X-00008
X-002425Y0028325
X-00245Y0033325
T02
X-00146737Y-00457
X-00110906
X-00075
X-00000875Y-0046
X00015956
Y-00413174
X-00000875
X-00014269
X-0006Y-00230159
X-00132659Y-00270181
X-00175
X-00228618
X-002275Y-003115
X-0029Y-003
Y-0027
Y-0024
Y-0021
Y-0019
X-0032
Y-0021
Y-0024
Y-0027
X-0035
Y-0024
X-0038
Y-0027
X-0041
Y-0024
Y-0021
X-0044
X-00308046Y-003875
X-0027625Y-00385952
Y-00411848
X-00255Y-00412097
X-0017875Y-00457
X-001625Y-000377
Y-00025
Y-000123
Y000004
Y000131
Y000258
Y000385
X-00294Y-00008479
X-0031Y-00025297
X-0038Y0
Y0003
Y0006
X-0039Y0009
Y0012
X-0042
X-0045
Y0009
X-0042
X-0036
X-003
Y0012
X-0033
X-0036Y0015
X-0039
Y0018
X-0042
X-0045
Y0015
X-0042
Y0021
X-0039
X-0036
X-00273Y002125
X-001925Y0022375
Y0023625
X-0045Y0021
X-001175Y00235
X-0003395Y00195
X0009855
X0023105
X00271932Y00146383
X0023105Y003455
X0009855Y00345
X000675Y003475
X000575
X-0003395Y00345
X-001175Y0027
Y002525
X-001925Y0027375
Y0028625
Y0032375
Y0033625
X-00245Y00304911
X-00273Y002975
Y002625
Y002475
Y003475
X-002575Y00357
X-0036Y0027
X-0039
Y0024
X-0042
Y0027
X-0039Y003
T03
X00319436Y-00353553
X00336752Y-0036
X00353553Y-00352315
X0036Y-00335
X00352315Y-00318198
X00335Y-00311751
X00318198Y-00319436
X00311751Y-00336752
X0001769Y-00341153
X-00000875Y-00334706
X-00018927Y-00342391
X-00025373Y-00360956
X-00017688Y-00379008
X00000877Y-00385455
X00018929Y-0037777
X00025375Y-00359205
X-000875Y-003675
X-000975
X-001075
Y-003775
Y-003875
X-000975
X-000875
Y-003775
X-000975
X-00055Y-00405
Y-00415
X-00045
X-00055Y-00425
Y-00435
X-00155Y-00335
Y-00325
X-0012Y-00245
Y-00235
Y-00225
Y-00215
X-00157Y-00194
Y-00181
X00125Y-001825
X00135
Y-001725
X00125
Y-001625
X00135
X00135Y-001925
X00125
Y-002025
X00135
Y-002125
X00125
X-00163Y-00187
Y-00175
X-0023
Y-00185
Y-00195
X-003925Y-00185
Y-00175
Y-00165
X-0016375Y-00325
Y-00335
X-0031Y-001275
Y-001175
X-0032
Y-001275
X-00315Y-0001
X-00305
X-00325
Y0
Y0003
Y0004
X-00315
X-00305
X-00095Y002125
X-00085
Y002225
Y002325
X-00095
Y002225
X-00055
X-00045
Y002125
X-00055
X-00035
X-00025
X-00015
X-00005
Y002225
X-00015
X-00025
X-00035
Y002325
X-00025
X-00015
X-00005
X-00045
X-00055
X000375
X000475
Y002225
Y002125
X000375
Y002225
X000775
X000875
Y002125
X000775
X000975
X001075
X001175
X001275
Y002225
X001175
X001075
X000975
Y002325
X001075
X001175
X001275
X000875
X000775
X0017
Y002225
X0018
Y002325
Y002125
X0017
X0021
Y002225
Y002325
X0022
X0023
Y002225
Y002125
X0022
Y002225
X00135Y-001525
X00125
X0024Y002125
X0025
Y002225
X0024
Y002325
X0025
X0026
Y002225
Y002425
X0025
X0024
Y002525
X0025
X0026
Y002625
X0025
X0024
Y002725
X0025
X0026
Y002825
X0025
X0024
X0024Y00385
Y00395
Y00405
Y00415
X0028Y0041
Y004
Y0039
Y0038
X00278464Y0037025
X0029Y0039
Y004
X003
Y0039
X0023Y00395
X0022
Y00385
X0021
X002
X0019
Y00395
X002
X0021
X0018
X0017
Y00385
X0018
X0023
Y00405
Y00415
X001775Y00465
X0016495Y004575
X00155Y0047375
X0011Y0047375
X001
X00095Y0048875
X00075
X00059Y004875
Y0047375
X0003Y0048875
X00015
X000225Y004975
X00005
X-00005Y0048875
X-00015Y004975
X-00025Y0048875
X-000375Y004975
X-00055Y0048875
X-0007
X-000875
X-00105
X-00105Y004725
X-000925
X-00145Y00465
X-00095Y00415
Y00405
Y00395
Y00385
X-00085
X-00075
Y00395
X-00065
X-00055
Y00385
X-00065
Y00405
X-00075
X-00085
Y00395
Y00415
X-00075
X-00065
X-00055
Y00405
X-00025
Y00395
X-00015
Y00385
X-00005
Y00395
X-00005Y00405
X-00005Y00415
X-00015
Y00405
X-00025Y00415
X-0003395
X-00035Y00385
X-00025
X000575
Y00395
X000675
X000775
Y00385
X000675
X000875
X000975
Y00395
X000875
Y00405
X000775
X000675
X000575
X000975
X001075
Y00395
X001175
Y00385
X001075
X001075Y002825
X001175
X001275
Y002725
X001175
X001075
X000975
Y002825
X000875
X000775
Y002925
Y003025
X000675
X000575
X000475
X000375
Y002925
X000475
X000575
X000675
Y002825
Y002725
Y002625
Y002525
Y002425
X000575
X000475
X000375
Y002525
X000475
Y002625
Y002725
X000375
Y002625
Y002825
X000475
X000575
Y002725
Y002625
Y002525
X000775
Y002625
Y002725
X000875
Y002625
X000975
X001075
X001175
X001275
Y002525
X001175
X001075
X000975
X000875
Y002425
X000975
X001075
X001175
X001275
X0017
Y002525
Y002625
Y002725
Y002825
X0018
X0019
X002
X0021
Y002725
X0022
Y002625
Y002525
Y002425
X0021
Y002525
Y002625
X002
X0019
Y002725
X002
Y002525
X0019
Y002425
X002
X0018
Y002525
Y002625
Y002725
Y002925
X0017
Y003025
X0018
X0019
Y002925
X002
X0021
Y003025
X002
X0022Y002825
X0023
Y002725
Y002625
Y002525
Y002425
X000775
X-00005
Y002525
Y002625
Y002725
Y002825
X-00015
X-00025
X-00035
X-00045
X-00055
Y002925
Y003025
X-00065
X-00075
X-00085
X-00095
Y002925
X-00085
X-00075
X-00065
Y002825
Y002725
Y002625
Y002525
Y002425
X-00075
X-00085
X-00095
Y002525
X-00085
Y002625
Y002725
X-00095
Y002625
Y002825
X-00085
X-00075
Y002725
Y002625
Y002525
X-00055
Y002625
Y002725
X-00045
X-00035
X-00025
X-00015
Y002625
X-00025
X-00035
X-00045
Y002525
X-00035
X-00025
X-00015
Y002425
X-00025
X-00035
X-00045
X-00055
X0Y0047375
X0001Y0047375
X-00165Y00465
X-00185
Y0045
Y00435
Y00415
X-0017125
Y004
X-00185
T04
X-000325Y-001175
X-00023
X-00012627
T05
X-00435Y-0012
X-0041
T06
X00324Y-00255
X00324Y-00205
X00406Y-00205
Y-00255
Y-0014
Y-0009
X00406Y-0001
X00406Y0004
X00406Y0009
X00324Y0009
X00324Y0004
Y-0001
Y-0009
X00324Y-0014
T07
X00335876Y-00335876
X0033588Y0033588
T08
X00000001Y-0036008
X-00311768Y00179919
X0031177
T09
X00495Y-00425
X-00515
X00495Y00465
X-00515
T10
X-00335881Y-00335961
Y00335799
M30
