M48
;Layer_Color=9474304
;FILE_FORMAT=2:4
INCH
;TYPE=PLATED
T1F00S00C0.0118
T2F00S00C0.0138
T3F00S00C0.0157
T4F00S00C0.0433
T5F00S00C0.1378
%
T01
X099508Y084646
X099754Y084616
X100000Y084587
X100246Y084616
X100492Y084636
X105906Y087205
X106102Y087402
X106299Y087598
X106496Y087402
X106299Y087205
X101752Y091585
X097195Y092126
Y092520
Y092913
Y093307
Y093701
X095965Y091437
X095079Y090207
X096555Y089193
X091732Y090207
X090453Y090207
X091339Y091437
X092569Y092126
Y092520
Y092913
Y093307
Y093701
X091634Y095669
Y096063
X091240
X091437Y095866
X091240Y095669
X090650Y097016
Y098016
X092028
X092028Y099016
X092028Y099516
Y100016
Y101016
X090650Y101024
Y100516
X090551Y101526
X090846
Y101821
X090551
X090896Y103293
X091142Y103937
Y104331
X088927Y104293
X093406Y105079
X093720Y106693
X093602Y101614
Y101016
Y100516
Y100016
Y099516
Y099016
Y098516
Y098016
Y097016
X089518Y096998
Y097244
Y097490
X086414Y107276
X086537Y107489
X086652Y107707
X086783Y107915
X086915Y108123
X094094Y106693
X094035Y104134
X094468Y104331
X096358Y104134
X096752
X098504Y104134
X097933Y104961
Y105453
X100591Y105207
Y105718
Y106230
Y106742
Y107254
Y107766
X101673Y107510
Y106486
Y105463
Y104774
Y104331
X102461Y104232
X103089Y104035
X105413Y104232
X105844Y104035
X108169Y104232
X108600Y104035
Y107972
X108169Y108169
Y109006
X107776
X105844Y107972
X105413Y108169
X103089Y107972
X102657Y108169
X098701Y108022
X098484
X097933Y109154
X094783Y100516
Y099516
X094488Y097516
X094931Y096703
X095906Y096063
Y095669
X096102Y095866
X096299Y095669
Y096063
X113577Y107271
X113463Y107489
X113348Y107707
X113217Y107915
X113094Y108128
X111454Y109826
X110907Y109804
X105906Y113681
X104921
X097933Y112697
Y111516
Y111024
Y109695
X095374Y109577
Y111348
Y113120
X094193Y113286
T02
X111024Y091339
Y092126
X111811
X107087Y090551
Y089764
X107923Y088041
X107726Y087844
X103937Y088189
X103445Y091476
X104675
X104035Y092126
X100787Y090551
Y089764
X096850Y087402
Y086614
Y085827
X096063
Y086614
Y087402
Y088189
X095276
Y087402
Y086614
X094488
Y087402
Y088189
X093701
Y087402
X092913
Y088189
X092126
X091339
X088189Y093701
X087402
Y092913
Y094488
Y095276
X086614
Y094488
X088681Y098327
Y098720
Y099213
X089075Y098327
X089518Y101181
Y101476
Y101772
X089764Y102264
X088189Y103150
Y103937
Y104724
X087402
Y103937
X086614
Y104724
X085827Y103937
X093504Y107283
Y107579
Y107874
X094045Y108661
X094764
X096063Y108661
X096299Y105217
X097638Y103937
Y103150
X099065Y104695
X095768Y101575
X103937Y100787
X104724Y099213
Y098425
X103150
Y097638
X103937
X102362Y095276
Y094488
X101575
X100787
Y095276
X100000
X099213
X098425
Y094488
X099213
X101575Y095276
X112598
Y094488
X113386Y095276
X104724Y114173
X103937
X100787Y113386
X096063
Y112598
Y111811
Y111024
Y110236
Y109449
X094764Y110138
Y110531
Y111909
Y112303
X092913Y111811
Y111024
Y110236
Y109449
X089764Y110236
T03
X093996Y091535
X094390
X095276Y092224
X095669
Y092618
X095276
Y093012
X095669
X096063
Y092618
Y092224
X099016Y092126
Y092717
X099606
Y092126
X100197
Y092717
X100787
Y092126
X099311Y091043
Y090699
Y090354
X098967
Y090010
Y090699
Y091043
X099016Y093307
X104035Y087598
X104429
Y087205
X093602Y091535
X093209
X091437Y092224
X091043
X090650
Y092618
X091043
Y093012
X090650
X091437
Y092618
X089764Y091535
X089370
X088976
X090256Y106299
X090600
X090945
X090876Y109104
X090551
X090226
X091506
X091831
X092156
X093406Y103248
X093799
X103248Y106004
Y106398
X103642
Y106004
X104035
Y105610
X104429
Y106004
Y106398
Y106791
X104035
Y107185
X104429
Y107579
X104035
Y107972
X104429
Y108366
X104035
Y106398
X106004
X106398
X106791
X107185
Y106004
X106791
X106398
X106004
X106791Y105610
X107185
Y106791
Y107185
Y107579
Y107972
Y108366
X106791
Y107972
Y107579
Y107185
Y106791
X108760Y106398
X109154
Y106004
X108760
X104331Y099213
Y098622
Y098032
X103740
Y098622
Y099213
X105046Y094738
X105324Y094459
X105602Y094738
X105324Y095016
X105881
X105602Y095295
X106159Y094738
X105881Y094459
X105602Y094181
X109547Y105610
Y106004
Y106398
X109941
Y106004
Y105610
Y106791
Y107185
Y107579
Y107972
X109941Y108366
X109547
X109547Y107972
Y107579
Y107185
Y106791
X109498Y109941
Y110335
Y110728
X109892
Y110335
Y109941
X109104
X108711
Y110335
Y110728
X109104
Y110335
X107185
Y110728
X106791
Y110335
X106398
Y110728
X106004
Y110335
Y109941
X106398
X106791
X107185
X104724
X104331
X103937
X103543
Y110335
Y110728
X103937
X104331
Y110335
X103937
X104724
Y110728
X104626Y113780
X104282
X103937
X105217
X105610
X100000Y113484
X099606
X099213
X099803Y112402
X092156Y109449
X091831
X091506
X090876
X090551
X090226
T04
X111079Y090188
X111927Y091274
X110221Y092607
X113092Y093158
X109372Y091521
X111146Y094107
X111750Y095346
X113696Y094397
X111024Y097638
Y098622
X112106Y100591
Y101969
Y103346
X109941
Y101969
Y100591
T05
X100000Y085827
X112274Y107087
M30
