G04 Layer_Color=32896*
%FSAX24Y24*%
%MOIN*%
G70*
G01*
G75*
%ADD75C,0.0050*%
%ADD76C,0.0100*%
%ADD77C,0.0059*%
D75*
X101257Y119291D02*
X117323D01*
X082677D02*
X098443D01*
X116723Y119491D02*
X117323Y119291D01*
X116723Y119091D02*
X117323Y119291D01*
X082677D02*
X083277Y119091D01*
X082677Y119291D02*
X083277Y119491D01*
X118110Y081496D02*
Y098443D01*
Y101257D02*
Y118504D01*
Y081496D02*
X118310Y082096D01*
X117910D02*
X118110Y081496D01*
X117910Y117904D02*
X118110Y118504D01*
X118310Y117904D01*
X098688Y119441D02*
X098631Y119422D01*
X098612Y119384D01*
Y119346D01*
X098631Y119308D01*
X098669Y119289D01*
X098745Y119270D01*
X098803Y119251D01*
X098841Y119213D01*
X098860Y119175D01*
Y119118D01*
X098841Y119079D01*
X098822Y119060D01*
X098765Y119041D01*
X098688D01*
X098631Y119060D01*
X098612Y119079D01*
X098593Y119118D01*
Y119175D01*
X098612Y119213D01*
X098650Y119251D01*
X098707Y119270D01*
X098784Y119289D01*
X098822Y119308D01*
X098841Y119346D01*
Y119384D01*
X098822Y119422D01*
X098765Y119441D01*
X098688D01*
X099044D02*
X098987Y119422D01*
X098968Y119384D01*
Y119346D01*
X098987Y119308D01*
X099025Y119289D01*
X099102Y119270D01*
X099159Y119251D01*
X099197Y119213D01*
X099216Y119175D01*
Y119118D01*
X099197Y119079D01*
X099178Y119060D01*
X099121Y119041D01*
X099044D01*
X098987Y119060D01*
X098968Y119079D01*
X098949Y119118D01*
Y119175D01*
X098968Y119213D01*
X099006Y119251D01*
X099064Y119270D01*
X099140Y119289D01*
X099178Y119308D01*
X099197Y119346D01*
Y119384D01*
X099178Y119422D01*
X099121Y119441D01*
X099044D01*
X099324Y119079D02*
X099305Y119060D01*
X099324Y119041D01*
X099343Y119060D01*
X099324Y119079D01*
X099545Y119441D02*
X099488Y119422D01*
X099450Y119365D01*
X099431Y119270D01*
Y119213D01*
X099450Y119118D01*
X099488Y119060D01*
X099545Y119041D01*
X099583D01*
X099641Y119060D01*
X099679Y119118D01*
X099698Y119213D01*
Y119270D01*
X099679Y119365D01*
X099641Y119422D01*
X099583Y119441D01*
X099545D01*
X099901D02*
X099844Y119422D01*
X099806Y119365D01*
X099787Y119270D01*
Y119213D01*
X099806Y119118D01*
X099844Y119060D01*
X099901Y119041D01*
X099939D01*
X099997Y119060D01*
X100035Y119118D01*
X100054Y119213D01*
Y119270D01*
X100035Y119365D01*
X099997Y119422D01*
X099939Y119441D01*
X099901D01*
X100143Y119308D02*
Y119041D01*
Y119232D02*
X100200Y119289D01*
X100238Y119308D01*
X100296D01*
X100334Y119289D01*
X100353Y119232D01*
Y119041D01*
Y119232D02*
X100410Y119289D01*
X100448Y119308D01*
X100505D01*
X100543Y119289D01*
X100562Y119232D01*
Y119041D01*
X100688Y119308D02*
Y119041D01*
Y119232D02*
X100745Y119289D01*
X100783Y119308D01*
X100840D01*
X100878Y119289D01*
X100897Y119232D01*
Y119041D01*
Y119232D02*
X100955Y119289D01*
X100993Y119308D01*
X101050D01*
X101088Y119289D01*
X101107Y119232D01*
Y119041D01*
X118094Y098841D02*
X118151Y098822D01*
X118189Y098784D01*
X118208Y098726D01*
Y098707D01*
X118189Y098650D01*
X118151Y098612D01*
X118094Y098593D01*
X118075D01*
X118017Y098612D01*
X117979Y098650D01*
X117960Y098707D01*
Y098726D01*
X117979Y098784D01*
X118017Y098822D01*
X118094Y098841D01*
X118189D01*
X118284Y098822D01*
X118341Y098784D01*
X118360Y098726D01*
Y098688D01*
X118341Y098631D01*
X118303Y098612D01*
X117960Y099140D02*
X118227Y098949D01*
Y099235D01*
X117960Y099140D02*
X118360D01*
X118322Y099324D02*
X118341Y099305D01*
X118360Y099324D01*
X118341Y099343D01*
X118322Y099324D01*
X117960Y099545D02*
X117979Y099488D01*
X118036Y099450D01*
X118132Y099431D01*
X118189D01*
X118284Y099450D01*
X118341Y099488D01*
X118360Y099545D01*
Y099583D01*
X118341Y099641D01*
X118284Y099679D01*
X118189Y099698D01*
X118132D01*
X118036Y099679D01*
X117979Y099641D01*
X117960Y099583D01*
Y099545D01*
Y099901D02*
X117979Y099844D01*
X118036Y099806D01*
X118132Y099787D01*
X118189D01*
X118284Y099806D01*
X118341Y099844D01*
X118360Y099901D01*
Y099939D01*
X118341Y099997D01*
X118284Y100035D01*
X118189Y100054D01*
X118132D01*
X118036Y100035D01*
X117979Y099997D01*
X117960Y099939D01*
Y099901D01*
X118094Y100143D02*
X118360D01*
X118170D02*
X118113Y100200D01*
X118094Y100238D01*
Y100296D01*
X118113Y100334D01*
X118170Y100353D01*
X118360D01*
X118170D02*
X118113Y100410D01*
X118094Y100448D01*
Y100505D01*
X118113Y100543D01*
X118170Y100562D01*
X118360D01*
X118094Y100688D02*
X118360D01*
X118170D02*
X118113Y100745D01*
X118094Y100783D01*
Y100840D01*
X118113Y100878D01*
X118170Y100897D01*
X118360D01*
X118170D02*
X118113Y100955D01*
X118094Y100993D01*
Y101050D01*
X118113Y101088D01*
X118170Y101107D01*
X118360D01*
D76*
X117323Y118624D02*
Y119391D01*
X082677Y118624D02*
Y119391D01*
X117443Y081496D02*
X118210D01*
X117443Y118504D02*
X118210D01*
D77*
X135236Y060630D02*
Y065354D01*
X148622D01*
Y060630D02*
Y065354D01*
X141142Y060630D02*
Y065354D01*
X135236Y060630D02*
X148622D01*
X135236Y061417D02*
X148622D01*
X135236Y062205D02*
X148622D01*
X135236Y062992D02*
X148622D01*
X135236Y063780D02*
X148622D01*
X135236Y064567D02*
X148622D01*
X069488Y059055D02*
Y060236D01*
X079724Y059055D02*
Y060236D01*
X069488Y059055D02*
Y060236D01*
X059252Y059055D02*
Y060236D01*
X059252Y059055D02*
Y060236D01*
X089961Y059055D02*
Y060236D01*
Y059055D02*
Y060236D01*
X079724Y059055D02*
Y060236D01*
X046850Y110630D02*
X048032D01*
X046850D02*
X048032D01*
X046850Y100394D02*
X048032D01*
X046850D02*
X048032D01*
X046850Y090157D02*
X048032D01*
X046850D02*
X048032D01*
X046850Y079921D02*
X048032D01*
X046850Y079921D02*
X048032D01*
X046850Y069685D02*
X048032D01*
X046850D02*
X048032D01*
X148819Y060630D02*
Y065354D01*
X162205D01*
Y060630D02*
Y065354D01*
X154724Y061417D02*
Y065354D01*
X148819Y060630D02*
X162205D01*
X148819Y061417D02*
X162205D01*
X148819Y062205D02*
X162205D01*
X148819Y062992D02*
X162205D01*
X148819Y063780D02*
X162205D01*
X148819Y064567D02*
X162205D01*
X110433Y140551D02*
Y141732D01*
Y140551D02*
Y141732D01*
X120669Y140551D02*
Y141732D01*
Y140551D02*
Y141732D01*
X130906Y140551D02*
Y141732D01*
Y140551D02*
Y141732D01*
X141142Y140551D02*
Y141732D01*
X141142Y140551D02*
Y141732D01*
X151378Y140551D02*
Y141732D01*
Y140551D02*
Y141732D01*
Y059055D02*
Y060236D01*
Y059055D02*
Y060236D01*
X141142Y059055D02*
Y060236D01*
X141142Y059055D02*
Y060236D01*
X130906Y059055D02*
Y060236D01*
Y059055D02*
Y060236D01*
X120669Y059055D02*
Y060236D01*
Y059055D02*
Y060236D01*
X110433Y059055D02*
Y060236D01*
Y059055D02*
Y060236D01*
X162598Y069685D02*
X163780D01*
X162598D02*
X163780D01*
X162598Y079921D02*
X163780D01*
X162598Y079921D02*
X163780D01*
X162598Y090157D02*
X163780D01*
X162598D02*
X163780D01*
X162598Y100394D02*
X163780D01*
X162598D02*
X163780D01*
X162598Y110630D02*
X163780D01*
X162598D02*
X163780D01*
X162598Y120866D02*
X163780D01*
X162598Y120866D02*
X163780D01*
X162598Y131102D02*
X163780D01*
X162598D02*
X163780D01*
Y059055D02*
Y141732D01*
X079724Y140551D02*
Y141732D01*
X089961Y140551D02*
Y141732D01*
Y140551D02*
Y141732D01*
X100197Y140551D02*
Y141732D01*
X100197Y140551D02*
Y141732D01*
X059252Y140551D02*
Y141732D01*
X059252Y140551D02*
Y141732D01*
X069488Y140551D02*
Y141732D01*
X079724Y140551D02*
Y141732D01*
X069488Y140551D02*
Y141732D01*
X100197Y059055D02*
Y060236D01*
X100197Y059055D02*
Y060236D01*
X046850Y131102D02*
X048032D01*
X046850D02*
X048032D01*
X046850Y120866D02*
X048032D01*
X046850Y120866D02*
X048032D01*
X046850Y059055D02*
Y141732D01*
X163780D01*
X046850Y059055D02*
X163780D01*
X048032Y060236D02*
X162598D01*
Y140551D01*
X048032D02*
X162598D01*
X048032Y060236D02*
Y140551D01*
X135892Y065101D02*
X135855Y065139D01*
X135799Y065157D01*
X135724D01*
X135667Y065139D01*
X135630Y065101D01*
Y065064D01*
X135649Y065026D01*
X135667Y065007D01*
X135705Y064989D01*
X135817Y064951D01*
X135855Y064932D01*
X135874Y064914D01*
X135892Y064876D01*
Y064820D01*
X135855Y064783D01*
X135799Y064764D01*
X135724D01*
X135667Y064783D01*
X135630Y064820D01*
X136018Y065157D02*
X136037Y065139D01*
X136055Y065157D01*
X136037Y065176D01*
X136018Y065157D01*
X136037Y065026D02*
Y064764D01*
X136331Y065026D02*
X136125Y064764D01*
Y065026D02*
X136331D01*
X136125Y064764D02*
X136331D01*
X136413Y064914D02*
X136638D01*
Y064951D01*
X136620Y064989D01*
X136601Y065007D01*
X136563Y065026D01*
X136507D01*
X136470Y065007D01*
X136432Y064970D01*
X136413Y064914D01*
Y064876D01*
X136432Y064820D01*
X136470Y064783D01*
X136507Y064764D01*
X136563D01*
X136601Y064783D01*
X136638Y064820D01*
X135761Y064370D02*
Y063976D01*
X135630Y064370D02*
X135892D01*
X135939D02*
Y063976D01*
Y064164D02*
X135995Y064220D01*
X136033Y064239D01*
X136089D01*
X136127Y064220D01*
X136145Y064164D01*
Y063976D01*
X136286Y064370D02*
X136305Y064351D01*
X136323Y064370D01*
X136305Y064389D01*
X136286Y064370D01*
X136305Y064239D02*
Y063976D01*
X136618Y064183D02*
X136580Y064220D01*
X136543Y064239D01*
X136487D01*
X136449Y064220D01*
X136412Y064183D01*
X136393Y064126D01*
Y064089D01*
X136412Y064033D01*
X136449Y063995D01*
X136487Y063976D01*
X136543D01*
X136580Y063995D01*
X136618Y064033D01*
X136702Y064370D02*
Y063976D01*
X136889Y064239D02*
X136702Y064051D01*
X136777Y064126D02*
X136908Y063976D01*
X136970Y064239D02*
Y063976D01*
Y064164D02*
X137026Y064220D01*
X137064Y064239D01*
X137120D01*
X137158Y064220D01*
X137176Y064164D01*
Y063976D01*
X137279Y064126D02*
X137504D01*
Y064164D01*
X137486Y064201D01*
X137467Y064220D01*
X137429Y064239D01*
X137373D01*
X137336Y064220D01*
X137298Y064183D01*
X137279Y064126D01*
Y064089D01*
X137298Y064033D01*
X137336Y063995D01*
X137373Y063976D01*
X137429D01*
X137467Y063995D01*
X137504Y064033D01*
X137795Y064183D02*
X137776Y064220D01*
X137720Y064239D01*
X137664D01*
X137607Y064220D01*
X137589Y064183D01*
X137607Y064145D01*
X137645Y064126D01*
X137739Y064108D01*
X137776Y064089D01*
X137795Y064051D01*
Y064033D01*
X137776Y063995D01*
X137720Y063976D01*
X137664D01*
X137607Y063995D01*
X137589Y064033D01*
X138083Y064183D02*
X138065Y064220D01*
X138008Y064239D01*
X137952D01*
X137896Y064220D01*
X137877Y064183D01*
X137896Y064145D01*
X137934Y064126D01*
X138027Y064108D01*
X138065Y064089D01*
X138083Y064051D01*
Y064033D01*
X138065Y063995D01*
X138008Y063976D01*
X137952D01*
X137896Y063995D01*
X137877Y064033D01*
X135630Y063583D02*
Y063189D01*
Y063583D02*
X135780Y063189D01*
X135930Y063583D02*
X135780Y063189D01*
X135930Y063583D02*
Y063189D01*
X136042Y063339D02*
X136267D01*
Y063376D01*
X136248Y063414D01*
X136230Y063433D01*
X136192Y063451D01*
X136136D01*
X136099Y063433D01*
X136061Y063395D01*
X136042Y063339D01*
Y063301D01*
X136061Y063245D01*
X136099Y063208D01*
X136136Y063189D01*
X136192D01*
X136230Y063208D01*
X136267Y063245D01*
X136408Y063583D02*
Y063264D01*
X136427Y063208D01*
X136464Y063189D01*
X136502D01*
X136352Y063451D02*
X136483D01*
X136558Y063339D02*
X136783D01*
Y063376D01*
X136764Y063414D01*
X136745Y063433D01*
X136708Y063451D01*
X136651D01*
X136614Y063433D01*
X136576Y063395D01*
X136558Y063339D01*
Y063301D01*
X136576Y063245D01*
X136614Y063208D01*
X136651Y063189D01*
X136708D01*
X136745Y063208D01*
X136783Y063245D01*
X136867Y063451D02*
Y063189D01*
Y063339D02*
X136886Y063395D01*
X136923Y063433D01*
X136961Y063451D01*
X137017D01*
X137090Y063583D02*
X137109Y063564D01*
X137128Y063583D01*
X137109Y063601D01*
X137090Y063583D01*
X137109Y063451D02*
Y063189D01*
X137422Y063451D02*
Y063189D01*
Y063395D02*
X137384Y063433D01*
X137347Y063451D01*
X137291D01*
X137253Y063433D01*
X137216Y063395D01*
X137197Y063339D01*
Y063301D01*
X137216Y063245D01*
X137253Y063208D01*
X137291Y063189D01*
X137347D01*
X137384Y063208D01*
X137422Y063245D01*
X137527Y063583D02*
Y063189D01*
X135892Y062739D02*
X135855Y062776D01*
X135799Y062795D01*
X135724D01*
X135667Y062776D01*
X135630Y062739D01*
Y062701D01*
X135649Y062664D01*
X135667Y062645D01*
X135705Y062627D01*
X135817Y062589D01*
X135855Y062570D01*
X135874Y062552D01*
X135892Y062514D01*
Y062458D01*
X135855Y062420D01*
X135799Y062402D01*
X135724D01*
X135667Y062420D01*
X135630Y062458D01*
X135980Y062664D02*
Y062477D01*
X135999Y062420D01*
X136037Y062402D01*
X136093D01*
X136130Y062420D01*
X136187Y062477D01*
Y062664D02*
Y062402D01*
X136290Y062664D02*
Y062402D01*
Y062552D02*
X136308Y062608D01*
X136346Y062645D01*
X136383Y062664D01*
X136440D01*
X136625Y062795D02*
X136588D01*
X136550Y062776D01*
X136531Y062720D01*
Y062402D01*
X136475Y062664D02*
X136606D01*
X136906D02*
Y062402D01*
Y062608D02*
X136869Y062645D01*
X136831Y062664D01*
X136775D01*
X136738Y062645D01*
X136700Y062608D01*
X136681Y062552D01*
Y062514D01*
X136700Y062458D01*
X136738Y062420D01*
X136775Y062402D01*
X136831D01*
X136869Y062420D01*
X136906Y062458D01*
X137236Y062608D02*
X137199Y062645D01*
X137161Y062664D01*
X137105D01*
X137068Y062645D01*
X137030Y062608D01*
X137011Y062552D01*
Y062514D01*
X137030Y062458D01*
X137068Y062420D01*
X137105Y062402D01*
X137161D01*
X137199Y062420D01*
X137236Y062458D01*
X137321Y062552D02*
X137546D01*
Y062589D01*
X137527Y062627D01*
X137508Y062645D01*
X137471Y062664D01*
X137414D01*
X137377Y062645D01*
X137339Y062608D01*
X137321Y062552D01*
Y062514D01*
X137339Y062458D01*
X137377Y062420D01*
X137414Y062402D01*
X137471D01*
X137508Y062420D01*
X137546Y062458D01*
X137939Y062589D02*
X138108D01*
X138164Y062608D01*
X138183Y062627D01*
X138202Y062664D01*
Y062720D01*
X138183Y062758D01*
X138164Y062776D01*
X138108Y062795D01*
X137939D01*
Y062402D01*
X138290Y062664D02*
Y062402D01*
Y062552D02*
X138308Y062608D01*
X138346Y062645D01*
X138383Y062664D01*
X138440D01*
X138475Y062552D02*
X138700D01*
Y062589D01*
X138681Y062627D01*
X138663Y062645D01*
X138625Y062664D01*
X138569D01*
X138531Y062645D01*
X138494Y062608D01*
X138475Y062552D01*
Y062514D01*
X138494Y062458D01*
X138531Y062420D01*
X138569Y062402D01*
X138625D01*
X138663Y062420D01*
X138700Y062458D01*
X138784Y062664D02*
Y062270D01*
Y062608D02*
X138822Y062645D01*
X138859Y062664D01*
X138916D01*
X138953Y062645D01*
X138991Y062608D01*
X139009Y062552D01*
Y062514D01*
X138991Y062458D01*
X138953Y062420D01*
X138916Y062402D01*
X138859D01*
X138822Y062420D01*
X138784Y062458D01*
X139319Y062664D02*
Y062402D01*
Y062608D02*
X139281Y062645D01*
X139244Y062664D01*
X139187D01*
X139150Y062645D01*
X139112Y062608D01*
X139094Y062552D01*
Y062514D01*
X139112Y062458D01*
X139150Y062420D01*
X139187Y062402D01*
X139244D01*
X139281Y062420D01*
X139319Y062458D01*
X139424Y062664D02*
Y062402D01*
Y062552D02*
X139442Y062608D01*
X139480Y062645D01*
X139517Y062664D01*
X139574D01*
X139834D02*
Y062402D01*
Y062608D02*
X139797Y062645D01*
X139759Y062664D01*
X139703D01*
X139665Y062645D01*
X139628Y062608D01*
X139609Y062552D01*
Y062514D01*
X139628Y062458D01*
X139665Y062420D01*
X139703Y062402D01*
X139759D01*
X139797Y062420D01*
X139834Y062458D01*
X139995Y062795D02*
Y062477D01*
X140014Y062420D01*
X140052Y062402D01*
X140089D01*
X139939Y062664D02*
X140070D01*
X140183Y062795D02*
X140201Y062776D01*
X140220Y062795D01*
X140201Y062814D01*
X140183Y062795D01*
X140201Y062664D02*
Y062402D01*
X140383Y062664D02*
X140346Y062645D01*
X140308Y062608D01*
X140290Y062552D01*
Y062514D01*
X140308Y062458D01*
X140346Y062420D01*
X140383Y062402D01*
X140440D01*
X140477Y062420D01*
X140515Y062458D01*
X140533Y062514D01*
Y062552D01*
X140515Y062608D01*
X140477Y062645D01*
X140440Y062664D01*
X140383D01*
X140619D02*
Y062402D01*
Y062589D02*
X140676Y062645D01*
X140713Y062664D01*
X140769D01*
X140807Y062645D01*
X140826Y062589D01*
Y062402D01*
X135892Y061952D02*
X135855Y061989D01*
X135799Y062008D01*
X135724D01*
X135667Y061989D01*
X135630Y061952D01*
Y061914D01*
X135649Y061877D01*
X135667Y061858D01*
X135705Y061839D01*
X135817Y061802D01*
X135855Y061783D01*
X135874Y061764D01*
X135892Y061727D01*
Y061670D01*
X135855Y061633D01*
X135799Y061614D01*
X135724D01*
X135667Y061633D01*
X135630Y061670D01*
X136074Y061877D02*
X136037Y061858D01*
X135999Y061820D01*
X135980Y061764D01*
Y061727D01*
X135999Y061670D01*
X136037Y061633D01*
X136074Y061614D01*
X136130D01*
X136168Y061633D01*
X136205Y061670D01*
X136224Y061727D01*
Y061764D01*
X136205Y061820D01*
X136168Y061858D01*
X136130Y061877D01*
X136074D01*
X136310Y062008D02*
Y061614D01*
X136618Y062008D02*
Y061614D01*
Y061820D02*
X136580Y061858D01*
X136543Y061877D01*
X136487D01*
X136449Y061858D01*
X136412Y061820D01*
X136393Y061764D01*
Y061727D01*
X136412Y061670D01*
X136449Y061633D01*
X136487Y061614D01*
X136543D01*
X136580Y061633D01*
X136618Y061670D01*
X136723Y061764D02*
X136948D01*
Y061802D01*
X136929Y061839D01*
X136910Y061858D01*
X136873Y061877D01*
X136816D01*
X136779Y061858D01*
X136741Y061820D01*
X136723Y061764D01*
Y061727D01*
X136741Y061670D01*
X136779Y061633D01*
X136816Y061614D01*
X136873D01*
X136910Y061633D01*
X136948Y061670D01*
X137032Y061877D02*
Y061614D01*
Y061764D02*
X137051Y061820D01*
X137088Y061858D01*
X137126Y061877D01*
X137182D01*
X137527Y062008D02*
Y061614D01*
Y062008D02*
X137677Y061614D01*
X137827Y062008D02*
X137677Y061614D01*
X137827Y062008D02*
Y061614D01*
X138164Y061877D02*
Y061614D01*
Y061820D02*
X138127Y061858D01*
X138089Y061877D01*
X138033D01*
X137995Y061858D01*
X137958Y061820D01*
X137939Y061764D01*
Y061727D01*
X137958Y061670D01*
X137995Y061633D01*
X138033Y061614D01*
X138089D01*
X138127Y061633D01*
X138164Y061670D01*
X138475Y061820D02*
X138456Y061858D01*
X138400Y061877D01*
X138344D01*
X138288Y061858D01*
X138269Y061820D01*
X138288Y061783D01*
X138325Y061764D01*
X138419Y061745D01*
X138456Y061727D01*
X138475Y061689D01*
Y061670D01*
X138456Y061633D01*
X138400Y061614D01*
X138344D01*
X138288Y061633D01*
X138269Y061670D01*
X138558Y062008D02*
Y061614D01*
X138745Y061877D02*
X138558Y061689D01*
X138633Y061764D02*
X138764Y061614D01*
X135892Y061164D02*
X135855Y061202D01*
X135799Y061220D01*
X135724D01*
X135667Y061202D01*
X135630Y061164D01*
Y061127D01*
X135649Y061089D01*
X135667Y061070D01*
X135705Y061052D01*
X135817Y061014D01*
X135855Y060995D01*
X135874Y060977D01*
X135892Y060939D01*
Y060883D01*
X135855Y060846D01*
X135799Y060827D01*
X135724D01*
X135667Y060846D01*
X135630Y060883D01*
X136018Y061220D02*
X136037Y061202D01*
X136055Y061220D01*
X136037Y061239D01*
X136018Y061220D01*
X136037Y061089D02*
Y060827D01*
X136125Y061220D02*
Y060827D01*
X136207Y061220D02*
Y060827D01*
X136395Y061089D02*
X136207Y060902D01*
X136282Y060977D02*
X136413Y060827D01*
X137047Y061164D02*
X137009Y061202D01*
X136953Y061220D01*
X136878D01*
X136822Y061202D01*
X136785Y061164D01*
Y061127D01*
X136803Y061089D01*
X136822Y061070D01*
X136860Y061052D01*
X136972Y061014D01*
X137009Y060995D01*
X137028Y060977D01*
X137047Y060939D01*
Y060883D01*
X137009Y060846D01*
X136953Y060827D01*
X136878D01*
X136822Y060846D01*
X136785Y060883D01*
X137360Y061033D02*
X137322Y061070D01*
X137285Y061089D01*
X137229D01*
X137191Y061070D01*
X137154Y061033D01*
X137135Y060977D01*
Y060939D01*
X137154Y060883D01*
X137191Y060846D01*
X137229Y060827D01*
X137285D01*
X137322Y060846D01*
X137360Y060883D01*
X137444Y061089D02*
Y060827D01*
Y060977D02*
X137463Y061033D01*
X137501Y061070D01*
X137538Y061089D01*
X137594D01*
X137630Y060977D02*
X137855D01*
Y061014D01*
X137836Y061052D01*
X137817Y061070D01*
X137780Y061089D01*
X137724D01*
X137686Y061070D01*
X137649Y061033D01*
X137630Y060977D01*
Y060939D01*
X137649Y060883D01*
X137686Y060846D01*
X137724Y060827D01*
X137780D01*
X137817Y060846D01*
X137855Y060883D01*
X137939Y060977D02*
X138164D01*
Y061014D01*
X138145Y061052D01*
X138127Y061070D01*
X138089Y061089D01*
X138033D01*
X137995Y061070D01*
X137958Y061033D01*
X137939Y060977D01*
Y060939D01*
X137958Y060883D01*
X137995Y060846D01*
X138033Y060827D01*
X138089D01*
X138127Y060846D01*
X138164Y060883D01*
X138248Y061089D02*
Y060827D01*
Y061014D02*
X138305Y061070D01*
X138342Y061089D01*
X138398D01*
X138436Y061070D01*
X138455Y061014D01*
Y060827D01*
X141629Y065157D02*
X141573Y065139D01*
X141554Y065101D01*
Y065064D01*
X141573Y065026D01*
X141610Y065007D01*
X141685Y064989D01*
X141742Y064970D01*
X141779Y064932D01*
X141798Y064895D01*
Y064839D01*
X141779Y064801D01*
X141760Y064783D01*
X141704Y064764D01*
X141629D01*
X141573Y064783D01*
X141554Y064801D01*
X141535Y064839D01*
Y064895D01*
X141554Y064932D01*
X141592Y064970D01*
X141648Y064989D01*
X141723Y065007D01*
X141760Y065026D01*
X141779Y065064D01*
Y065101D01*
X141760Y065139D01*
X141704Y065157D01*
X141629D01*
X141980D02*
X141923Y065139D01*
X141905Y065101D01*
Y065064D01*
X141923Y065026D01*
X141961Y065007D01*
X142036Y064989D01*
X142092Y064970D01*
X142130Y064932D01*
X142148Y064895D01*
Y064839D01*
X142130Y064801D01*
X142111Y064783D01*
X142055Y064764D01*
X141980D01*
X141923Y064783D01*
X141905Y064801D01*
X141886Y064839D01*
Y064895D01*
X141905Y064932D01*
X141942Y064970D01*
X141998Y064989D01*
X142073Y065007D01*
X142111Y065026D01*
X142130Y065064D01*
Y065101D01*
X142111Y065139D01*
X142055Y065157D01*
X141980D01*
X142236Y065026D02*
Y064764D01*
Y064951D02*
X142293Y065007D01*
X142330Y065026D01*
X142386D01*
X142424Y065007D01*
X142443Y064951D01*
Y064764D01*
Y064951D02*
X142499Y065007D01*
X142536Y065026D01*
X142593D01*
X142630Y065007D01*
X142649Y064951D01*
Y064764D01*
X142773Y065026D02*
Y064764D01*
Y064951D02*
X142829Y065007D01*
X142866Y065026D01*
X142922D01*
X142960Y065007D01*
X142979Y064951D01*
Y064764D01*
Y064951D02*
X143035Y065007D01*
X143072Y065026D01*
X143129D01*
X143166Y065007D01*
X143185Y064951D01*
Y064764D01*
X143618Y065157D02*
X143880Y064764D01*
Y065157D02*
X143618Y064764D01*
X144521Y065026D02*
X144503Y064970D01*
X144465Y064932D01*
X144409Y064914D01*
X144390D01*
X144334Y064932D01*
X144296Y064970D01*
X144278Y065026D01*
Y065045D01*
X144296Y065101D01*
X144334Y065139D01*
X144390Y065157D01*
X144409D01*
X144465Y065139D01*
X144503Y065101D01*
X144521Y065026D01*
Y064932D01*
X144503Y064839D01*
X144465Y064783D01*
X144409Y064764D01*
X144371D01*
X144315Y064783D01*
X144296Y064820D01*
X144816Y065157D02*
X144628Y064895D01*
X144909D01*
X144816Y065157D02*
Y064764D01*
X144979Y065026D02*
Y064764D01*
Y064951D02*
X145035Y065007D01*
X145072Y065026D01*
X145129D01*
X145166Y065007D01*
X145185Y064951D01*
Y064764D01*
Y064951D02*
X145241Y065007D01*
X145279Y065026D01*
X145335D01*
X145372Y065007D01*
X145391Y064951D01*
Y064764D01*
X145515Y065026D02*
Y064764D01*
Y064951D02*
X145571Y065007D01*
X145608Y065026D01*
X145665D01*
X145702Y065007D01*
X145721Y064951D01*
Y064764D01*
Y064951D02*
X145777Y065007D01*
X145815Y065026D01*
X145871D01*
X145908Y065007D01*
X145927Y064951D01*
Y064764D01*
X141535Y064295D02*
X141573Y064314D01*
X141629Y064370D01*
Y063976D01*
X141843Y064014D02*
X141824Y063995D01*
X141843Y063976D01*
X141862Y063995D01*
X141843Y064014D01*
X142173Y064314D02*
X142154Y064351D01*
X142098Y064370D01*
X142060D01*
X142004Y064351D01*
X141967Y064295D01*
X141948Y064201D01*
Y064108D01*
X141967Y064033D01*
X142004Y063995D01*
X142060Y063976D01*
X142079D01*
X142135Y063995D01*
X142173Y064033D01*
X142191Y064089D01*
Y064108D01*
X142173Y064164D01*
X142135Y064201D01*
X142079Y064220D01*
X142060D01*
X142004Y064201D01*
X141967Y064164D01*
X141948Y064108D01*
X142409Y064370D02*
Y063976D01*
X142278Y064370D02*
X142540D01*
X141535Y063583D02*
Y063189D01*
Y063583D02*
X141779D01*
X141535Y063395D02*
X141685D01*
X141824Y063583D02*
Y063189D01*
Y063583D02*
X141993D01*
X142049Y063564D01*
X142068Y063545D01*
X142086Y063508D01*
Y063470D01*
X142068Y063433D01*
X142049Y063414D01*
X141993Y063395D01*
X141824D01*
X141955D02*
X142086Y063189D01*
X142175Y063358D02*
X142512D01*
X142816Y063583D02*
X142628Y063320D01*
X142909D01*
X142816Y063583D02*
Y063189D01*
X141648Y062795D02*
X141610Y062776D01*
X141573Y062739D01*
X141554Y062701D01*
X141535Y062645D01*
Y062552D01*
X141554Y062495D01*
X141573Y062458D01*
X141610Y062420D01*
X141648Y062402D01*
X141723D01*
X141760Y062420D01*
X141798Y062458D01*
X141817Y062495D01*
X141835Y062552D01*
Y062645D01*
X141817Y062701D01*
X141798Y062739D01*
X141760Y062776D01*
X141723Y062795D01*
X141648D01*
X142190Y062739D02*
X142152Y062776D01*
X142096Y062795D01*
X142021D01*
X141965Y062776D01*
X141927Y062739D01*
Y062701D01*
X141946Y062664D01*
X141965Y062645D01*
X142002Y062627D01*
X142115Y062589D01*
X142152Y062570D01*
X142171Y062552D01*
X142190Y062514D01*
Y062458D01*
X142152Y062420D01*
X142096Y062402D01*
X142021D01*
X141965Y062420D01*
X141927Y062458D01*
X142278Y062589D02*
X142446D01*
X142503Y062608D01*
X142521Y062627D01*
X142540Y062664D01*
Y062720D01*
X142521Y062758D01*
X142503Y062776D01*
X142446Y062795D01*
X142278D01*
Y062402D01*
X141535Y062008D02*
Y061614D01*
Y062008D02*
X141704D01*
X141760Y061989D01*
X141779Y061970D01*
X141798Y061933D01*
Y061895D01*
X141779Y061858D01*
X141760Y061839D01*
X141704Y061820D01*
X141535D02*
X141704D01*
X141760Y061802D01*
X141779Y061783D01*
X141798Y061745D01*
Y061689D01*
X141779Y061652D01*
X141760Y061633D01*
X141704Y061614D01*
X141535D01*
X141886Y062008D02*
Y061614D01*
X142111D01*
X142154Y062008D02*
Y061727D01*
X142173Y061670D01*
X142210Y061633D01*
X142266Y061614D01*
X142304D01*
X142360Y061633D01*
X142398Y061670D01*
X142416Y061727D01*
Y062008D01*
X142769D02*
X142525D01*
Y061614D01*
X142769D01*
X142525Y061820D02*
X142675D01*
X141535Y061220D02*
X141629Y060827D01*
X141723Y061220D02*
X141629Y060827D01*
X141723Y061220D02*
X141817Y060827D01*
X141910Y061220D02*
X141817Y060827D01*
X141989Y061220D02*
Y060827D01*
Y061014D02*
X142045Y061070D01*
X142083Y061089D01*
X142139D01*
X142176Y061070D01*
X142195Y061014D01*
Y060827D01*
X142336Y061220D02*
X142355Y061202D01*
X142373Y061220D01*
X142355Y061239D01*
X142336Y061220D01*
X142355Y061089D02*
Y060827D01*
X142499Y061220D02*
Y060902D01*
X142518Y060846D01*
X142555Y060827D01*
X142593D01*
X142443Y061089D02*
X142574D01*
X142649Y060977D02*
X142874D01*
Y061014D01*
X142855Y061052D01*
X142836Y061070D01*
X142799Y061089D01*
X142743D01*
X142705Y061070D01*
X142668Y061033D01*
X142649Y060977D01*
Y060939D01*
X142668Y060883D01*
X142705Y060846D01*
X142743Y060827D01*
X142799D01*
X142836Y060846D01*
X142874Y060883D01*
X149494Y065064D02*
X149475Y065101D01*
X149438Y065139D01*
X149400Y065157D01*
X149325D01*
X149288Y065139D01*
X149250Y065101D01*
X149231Y065064D01*
X149213Y065007D01*
Y064914D01*
X149231Y064858D01*
X149250Y064820D01*
X149288Y064783D01*
X149325Y064764D01*
X149400D01*
X149438Y064783D01*
X149475Y064820D01*
X149494Y064858D01*
X149604Y065026D02*
Y064839D01*
X149623Y064783D01*
X149661Y064764D01*
X149717D01*
X149754Y064783D01*
X149811Y064839D01*
Y065026D02*
Y064764D01*
X150120Y064970D02*
X150101Y065007D01*
X150045Y065026D01*
X149989D01*
X149932Y065007D01*
X149914Y064970D01*
X149932Y064932D01*
X149970Y064914D01*
X150064Y064895D01*
X150101Y064876D01*
X150120Y064839D01*
Y064820D01*
X150101Y064783D01*
X150045Y064764D01*
X149989D01*
X149932Y064783D01*
X149914Y064820D01*
X150258Y065157D02*
Y064839D01*
X150277Y064783D01*
X150315Y064764D01*
X150352D01*
X150202Y065026D02*
X150333D01*
X150502D02*
X150465Y065007D01*
X150427Y064970D01*
X150408Y064914D01*
Y064876D01*
X150427Y064820D01*
X150465Y064783D01*
X150502Y064764D01*
X150558D01*
X150596Y064783D01*
X150633Y064820D01*
X150652Y064876D01*
Y064914D01*
X150633Y064970D01*
X150596Y065007D01*
X150558Y065026D01*
X150502D01*
X150738D02*
Y064764D01*
Y064951D02*
X150795Y065007D01*
X150832Y065026D01*
X150888D01*
X150926Y065007D01*
X150945Y064951D01*
Y064764D01*
Y064951D02*
X151001Y065007D01*
X151038Y065026D01*
X151094D01*
X151132Y065007D01*
X151151Y064951D01*
Y064764D01*
X151274Y064914D02*
X151499D01*
Y064951D01*
X151481Y064989D01*
X151462Y065007D01*
X151424Y065026D01*
X151368D01*
X151331Y065007D01*
X151293Y064970D01*
X151274Y064914D01*
Y064876D01*
X151293Y064820D01*
X151331Y064783D01*
X151368Y064764D01*
X151424D01*
X151462Y064783D01*
X151499Y064820D01*
X151584Y065026D02*
Y064764D01*
Y064914D02*
X151602Y064970D01*
X151640Y065007D01*
X151677Y065026D01*
X151734D01*
X149213Y064370D02*
Y063976D01*
Y064370D02*
X149344D01*
X149400Y064351D01*
X149438Y064314D01*
X149456Y064276D01*
X149475Y064220D01*
Y064126D01*
X149456Y064070D01*
X149438Y064033D01*
X149400Y063995D01*
X149344Y063976D01*
X149213D01*
X149563Y064126D02*
X149788D01*
Y064164D01*
X149769Y064201D01*
X149751Y064220D01*
X149713Y064239D01*
X149657D01*
X149619Y064220D01*
X149582Y064183D01*
X149563Y064126D01*
Y064089D01*
X149582Y064033D01*
X149619Y063995D01*
X149657Y063976D01*
X149713D01*
X149751Y063995D01*
X149788Y064033D01*
X150079Y064183D02*
X150060Y064220D01*
X150004Y064239D01*
X149947D01*
X149891Y064220D01*
X149872Y064183D01*
X149891Y064145D01*
X149929Y064126D01*
X150022Y064108D01*
X150060Y064089D01*
X150079Y064051D01*
Y064033D01*
X150060Y063995D01*
X150004Y063976D01*
X149947D01*
X149891Y063995D01*
X149872Y064033D01*
X150199Y064370D02*
X150217Y064351D01*
X150236Y064370D01*
X150217Y064389D01*
X150199Y064370D01*
X150217Y064239D02*
Y063976D01*
X150530Y064239D02*
Y063939D01*
X150512Y063883D01*
X150493Y063864D01*
X150455Y063845D01*
X150399D01*
X150362Y063864D01*
X150530Y064183D02*
X150493Y064220D01*
X150455Y064239D01*
X150399D01*
X150362Y064220D01*
X150324Y064183D01*
X150305Y064126D01*
Y064089D01*
X150324Y064033D01*
X150362Y063995D01*
X150399Y063976D01*
X150455D01*
X150493Y063995D01*
X150530Y064033D01*
X150635Y064239D02*
Y063976D01*
Y064164D02*
X150691Y064220D01*
X150729Y064239D01*
X150785D01*
X150823Y064220D01*
X150841Y064164D01*
Y063976D01*
X151254Y064370D02*
Y063976D01*
Y064370D02*
X151516Y063976D01*
Y064370D02*
Y063976D01*
X151850Y064239D02*
Y063976D01*
Y064183D02*
X151812Y064220D01*
X151775Y064239D01*
X151719D01*
X151681Y064220D01*
X151644Y064183D01*
X151625Y064126D01*
Y064089D01*
X151644Y064033D01*
X151681Y063995D01*
X151719Y063976D01*
X151775D01*
X151812Y063995D01*
X151850Y064033D01*
X151955Y064239D02*
Y063976D01*
Y064164D02*
X152011Y064220D01*
X152049Y064239D01*
X152105D01*
X152142Y064220D01*
X152161Y064164D01*
Y063976D01*
Y064164D02*
X152217Y064220D01*
X152255Y064239D01*
X152311D01*
X152348Y064220D01*
X152367Y064164D01*
Y063976D01*
X152491Y064126D02*
X152716D01*
Y064164D01*
X152697Y064201D01*
X152678Y064220D01*
X152641Y064239D01*
X152585D01*
X152547Y064220D01*
X152510Y064183D01*
X152491Y064126D01*
Y064089D01*
X152510Y064033D01*
X152547Y063995D01*
X152585Y063976D01*
X152641D01*
X152678Y063995D01*
X152716Y064033D01*
X149213Y063583D02*
Y063189D01*
Y063583D02*
X149381D01*
X149438Y063564D01*
X149456Y063545D01*
X149475Y063508D01*
Y063470D01*
X149456Y063433D01*
X149438Y063414D01*
X149381Y063395D01*
X149213D01*
X149344D02*
X149475Y063189D01*
X149563Y063339D02*
X149788D01*
Y063376D01*
X149769Y063414D01*
X149751Y063433D01*
X149713Y063451D01*
X149657D01*
X149619Y063433D01*
X149582Y063395D01*
X149563Y063339D01*
Y063301D01*
X149582Y063245D01*
X149619Y063208D01*
X149657Y063189D01*
X149713D01*
X149751Y063208D01*
X149788Y063245D01*
X149872Y063451D02*
X149985Y063189D01*
X150097Y063451D02*
X149985Y063189D01*
X149213Y062795D02*
Y062402D01*
Y062795D02*
X149344D01*
X149400Y062776D01*
X149438Y062739D01*
X149456Y062701D01*
X149475Y062645D01*
Y062552D01*
X149456Y062495D01*
X149438Y062458D01*
X149400Y062420D01*
X149344Y062402D01*
X149213D01*
X149563Y062552D02*
X149788D01*
Y062589D01*
X149769Y062627D01*
X149751Y062645D01*
X149713Y062664D01*
X149657D01*
X149619Y062645D01*
X149582Y062608D01*
X149563Y062552D01*
Y062514D01*
X149582Y062458D01*
X149619Y062420D01*
X149657Y062402D01*
X149713D01*
X149751Y062420D01*
X149788Y062458D01*
X150079Y062608D02*
X150060Y062645D01*
X150004Y062664D01*
X149947D01*
X149891Y062645D01*
X149872Y062608D01*
X149891Y062570D01*
X149929Y062552D01*
X150022Y062533D01*
X150060Y062514D01*
X150079Y062477D01*
Y062458D01*
X150060Y062420D01*
X150004Y062402D01*
X149947D01*
X149891Y062420D01*
X149872Y062458D01*
X150199Y062795D02*
X150217Y062776D01*
X150236Y062795D01*
X150217Y062814D01*
X150199Y062795D01*
X150217Y062664D02*
Y062402D01*
X150530Y062664D02*
Y062364D01*
X150512Y062308D01*
X150493Y062289D01*
X150455Y062270D01*
X150399D01*
X150362Y062289D01*
X150530Y062608D02*
X150493Y062645D01*
X150455Y062664D01*
X150399D01*
X150362Y062645D01*
X150324Y062608D01*
X150305Y062552D01*
Y062514D01*
X150324Y062458D01*
X150362Y062420D01*
X150399Y062402D01*
X150455D01*
X150493Y062420D01*
X150530Y062458D01*
X150635Y062664D02*
Y062402D01*
Y062589D02*
X150691Y062645D01*
X150729Y062664D01*
X150785D01*
X150823Y062645D01*
X150841Y062589D01*
Y062402D01*
X150945Y062552D02*
X151169D01*
Y062589D01*
X151151Y062627D01*
X151132Y062645D01*
X151094Y062664D01*
X151038D01*
X151001Y062645D01*
X150963Y062608D01*
X150945Y062552D01*
Y062514D01*
X150963Y062458D01*
X151001Y062420D01*
X151038Y062402D01*
X151094D01*
X151132Y062420D01*
X151169Y062458D01*
X151254Y062664D02*
Y062402D01*
Y062552D02*
X151273Y062608D01*
X151310Y062645D01*
X151348Y062664D01*
X151404D01*
X149213Y062008D02*
Y061614D01*
X149438D01*
X149706Y061877D02*
Y061614D01*
Y061820D02*
X149668Y061858D01*
X149631Y061877D01*
X149574D01*
X149537Y061858D01*
X149499Y061820D01*
X149481Y061764D01*
Y061727D01*
X149499Y061670D01*
X149537Y061633D01*
X149574Y061614D01*
X149631D01*
X149668Y061633D01*
X149706Y061670D01*
X150017Y061820D02*
X149998Y061858D01*
X149942Y061877D01*
X149885D01*
X149829Y061858D01*
X149811Y061820D01*
X149829Y061783D01*
X149867Y061764D01*
X149960Y061745D01*
X149998Y061727D01*
X150017Y061689D01*
Y061670D01*
X149998Y061633D01*
X149942Y061614D01*
X149885D01*
X149829Y061633D01*
X149811Y061670D01*
X150155Y062008D02*
Y061689D01*
X150174Y061633D01*
X150212Y061614D01*
X150249D01*
X150099Y061877D02*
X150230D01*
X150615Y062008D02*
Y061614D01*
Y062008D02*
X150746D01*
X150802Y061989D01*
X150840Y061952D01*
X150858Y061914D01*
X150877Y061858D01*
Y061764D01*
X150858Y061708D01*
X150840Y061670D01*
X150802Y061633D01*
X150746Y061614D01*
X150615D01*
X151190Y061877D02*
Y061614D01*
Y061820D02*
X151153Y061858D01*
X151115Y061877D01*
X151059D01*
X151021Y061858D01*
X150984Y061820D01*
X150965Y061764D01*
Y061727D01*
X150984Y061670D01*
X151021Y061633D01*
X151059Y061614D01*
X151115D01*
X151153Y061633D01*
X151190Y061670D01*
X151351Y062008D02*
Y061689D01*
X151370Y061633D01*
X151407Y061614D01*
X151445D01*
X151295Y061877D02*
X151426D01*
X151726D02*
Y061614D01*
Y061820D02*
X151689Y061858D01*
X151651Y061877D01*
X151595D01*
X151557Y061858D01*
X151520Y061820D01*
X151501Y061764D01*
Y061727D01*
X151520Y061670D01*
X151557Y061633D01*
X151595Y061614D01*
X151651D01*
X151689Y061633D01*
X151726Y061670D01*
X155118Y065157D02*
Y064764D01*
X155381Y065157D02*
Y064764D01*
X155118Y064970D02*
X155381D01*
X155527Y065157D02*
X155545Y065139D01*
X155564Y065157D01*
X155545Y065176D01*
X155527Y065157D01*
X155545Y065026D02*
Y064764D01*
X155858Y065026D02*
Y064726D01*
X155840Y064670D01*
X155821Y064651D01*
X155784Y064633D01*
X155727D01*
X155690Y064651D01*
X155858Y064970D02*
X155821Y065007D01*
X155784Y065026D01*
X155727D01*
X155690Y065007D01*
X155652Y064970D01*
X155634Y064914D01*
Y064876D01*
X155652Y064820D01*
X155690Y064783D01*
X155727Y064764D01*
X155784D01*
X155821Y064783D01*
X155858Y064820D01*
X155963Y064914D02*
X156188D01*
Y064951D01*
X156170Y064989D01*
X156151Y065007D01*
X156113Y065026D01*
X156057D01*
X156020Y065007D01*
X155982Y064970D01*
X155963Y064914D01*
Y064876D01*
X155982Y064820D01*
X156020Y064783D01*
X156057Y064764D01*
X156113D01*
X156151Y064783D01*
X156188Y064820D01*
X156273Y065026D02*
Y064764D01*
Y064951D02*
X156329Y065007D01*
X156366Y065026D01*
X156423D01*
X156460Y065007D01*
X156479Y064951D01*
Y064764D01*
X155418Y063976D02*
X155268Y064370D01*
X155118Y063976D01*
X155174Y064108D02*
X155362D01*
X155510Y064370D02*
Y063976D01*
Y064370D02*
X155679D01*
X155735Y064351D01*
X155754Y064333D01*
X155772Y064295D01*
Y064258D01*
X155754Y064220D01*
X155735Y064201D01*
X155679Y064183D01*
X155510D01*
X155641D02*
X155772Y063976D01*
X156104Y064370D02*
X155860D01*
Y063976D01*
X156104D01*
X155860Y064183D02*
X156010D01*
X156432Y064314D02*
X156395Y064351D01*
X156338Y064370D01*
X156263D01*
X156207Y064351D01*
X156170Y064314D01*
Y064276D01*
X156188Y064239D01*
X156207Y064220D01*
X156245Y064201D01*
X156357Y064164D01*
X156395Y064145D01*
X156413Y064126D01*
X156432Y064089D01*
Y064033D01*
X156395Y063995D01*
X156338Y063976D01*
X156263D01*
X156207Y063995D01*
X156170Y064033D01*
X156520Y063845D02*
X156820D01*
X156871Y064370D02*
Y063976D01*
Y064370D02*
X157039D01*
X157096Y064351D01*
X157114Y064333D01*
X157133Y064295D01*
Y064258D01*
X157114Y064220D01*
X157096Y064201D01*
X157039Y064183D01*
X156871D01*
X157002D02*
X157133Y063976D01*
X157334Y064370D02*
X157277Y064351D01*
X157240Y064295D01*
X157221Y064201D01*
Y064145D01*
X157240Y064051D01*
X157277Y063995D01*
X157334Y063976D01*
X157371D01*
X157427Y063995D01*
X157465Y064051D01*
X157484Y064145D01*
Y064201D01*
X157465Y064295D01*
X157427Y064351D01*
X157371Y064370D01*
X157334D01*
X157797Y064314D02*
X157778Y064351D01*
X157722Y064370D01*
X157684D01*
X157628Y064351D01*
X157590Y064295D01*
X157572Y064201D01*
Y064108D01*
X157590Y064033D01*
X157628Y063995D01*
X157684Y063976D01*
X157703D01*
X157759Y063995D01*
X157797Y064033D01*
X157815Y064089D01*
Y064108D01*
X157797Y064164D01*
X157759Y064201D01*
X157703Y064220D01*
X157684D01*
X157628Y064201D01*
X157590Y064164D01*
X157572Y064108D01*
X157902Y063845D02*
X158201D01*
X158252Y064164D02*
X158421D01*
X158477Y064183D01*
X158496Y064201D01*
X158514Y064239D01*
Y064295D01*
X158496Y064333D01*
X158477Y064351D01*
X158421Y064370D01*
X158252D01*
Y063976D01*
X158696Y064239D02*
X158659Y064220D01*
X158621Y064183D01*
X158603Y064126D01*
Y064089D01*
X158621Y064033D01*
X158659Y063995D01*
X158696Y063976D01*
X158752D01*
X158790Y063995D01*
X158827Y064033D01*
X158846Y064089D01*
Y064126D01*
X158827Y064183D01*
X158790Y064220D01*
X158752Y064239D01*
X158696D01*
X158932D02*
X159007Y063976D01*
X159082Y064239D02*
X159007Y063976D01*
X159082Y064239D02*
X159157Y063976D01*
X159232Y064239D02*
X159157Y063976D01*
X159324Y064126D02*
X159549D01*
Y064164D01*
X159530Y064201D01*
X159512Y064220D01*
X159474Y064239D01*
X159418D01*
X159380Y064220D01*
X159343Y064183D01*
X159324Y064126D01*
Y064089D01*
X159343Y064033D01*
X159380Y063995D01*
X159418Y063976D01*
X159474D01*
X159512Y063995D01*
X159549Y064033D01*
X159633Y064239D02*
Y063976D01*
Y064126D02*
X159652Y064183D01*
X159690Y064220D01*
X159727Y064239D01*
X159783D01*
X155231Y063583D02*
X155174Y063564D01*
X155137Y063508D01*
X155118Y063414D01*
Y063358D01*
X155137Y063264D01*
X155174Y063208D01*
X155231Y063189D01*
X155268D01*
X155324Y063208D01*
X155362Y063264D01*
X155381Y063358D01*
Y063414D01*
X155362Y063508D01*
X155324Y063564D01*
X155268Y063583D01*
X155231D01*
X155487Y063226D02*
X155469Y063208D01*
X155487Y063189D01*
X155506Y063208D01*
X155487Y063226D01*
X155611Y063489D02*
Y063508D01*
X155630Y063545D01*
X155649Y063564D01*
X155686Y063583D01*
X155761D01*
X155799Y063564D01*
X155817Y063545D01*
X155836Y063508D01*
Y063470D01*
X155817Y063433D01*
X155780Y063376D01*
X155592Y063189D01*
X155855D01*
X156130Y063583D02*
X155943Y063320D01*
X156224D01*
X156130Y063583D02*
Y063189D01*
X155118Y062795D02*
Y062402D01*
X155381Y062795D02*
X155118Y062533D01*
X155212Y062627D02*
X155381Y062402D01*
X155469Y062795D02*
Y062402D01*
X155731Y062795D02*
Y062402D01*
X155469Y062608D02*
X155731D01*
X155840Y062795D02*
Y062402D01*
X156102Y062795D02*
Y062402D01*
X155840Y062608D02*
X156102D01*
X155137Y061914D02*
Y061933D01*
X155156Y061970D01*
X155174Y061989D01*
X155212Y062008D01*
X155287D01*
X155324Y061989D01*
X155343Y061970D01*
X155362Y061933D01*
Y061895D01*
X155343Y061858D01*
X155306Y061802D01*
X155118Y061614D01*
X155381D01*
X155581Y062008D02*
X155525Y061989D01*
X155487Y061933D01*
X155469Y061839D01*
Y061783D01*
X155487Y061689D01*
X155525Y061633D01*
X155581Y061614D01*
X155619D01*
X155675Y061633D01*
X155712Y061689D01*
X155731Y061783D01*
Y061839D01*
X155712Y061933D01*
X155675Y061989D01*
X155619Y062008D01*
X155581D01*
X155838Y061914D02*
Y061933D01*
X155857Y061970D01*
X155875Y061989D01*
X155913Y062008D01*
X155988D01*
X156025Y061989D01*
X156044Y061970D01*
X156063Y061933D01*
Y061895D01*
X156044Y061858D01*
X156007Y061802D01*
X155819Y061614D01*
X156082D01*
X156170Y061933D02*
X156207Y061952D01*
X156263Y062008D01*
Y061614D01*
X156477Y061652D02*
X156458Y061633D01*
X156477Y061614D01*
X156496Y061633D01*
X156477Y061652D01*
X156694Y062008D02*
X156638Y061989D01*
X156601Y061933D01*
X156582Y061839D01*
Y061783D01*
X156601Y061689D01*
X156638Y061633D01*
X156694Y061614D01*
X156732D01*
X156788Y061633D01*
X156826Y061689D01*
X156844Y061783D01*
Y061839D01*
X156826Y061933D01*
X156788Y061989D01*
X156732Y062008D01*
X156694D01*
X157120D02*
X156932Y061745D01*
X157214D01*
X157120Y062008D02*
Y061614D01*
X157302Y061652D02*
X157283Y061633D01*
X157302Y061614D01*
X157320Y061633D01*
X157302Y061652D01*
X157519Y062008D02*
X157463Y061989D01*
X157425Y061933D01*
X157407Y061839D01*
Y061783D01*
X157425Y061689D01*
X157463Y061633D01*
X157519Y061614D01*
X157557D01*
X157613Y061633D01*
X157650Y061689D01*
X157669Y061783D01*
Y061839D01*
X157650Y061933D01*
X157613Y061989D01*
X157557Y062008D01*
X157519D01*
X157776Y061914D02*
Y061933D01*
X157795Y061970D01*
X157813Y061989D01*
X157851Y062008D01*
X157926D01*
X157963Y061989D01*
X157982Y061970D01*
X158001Y061933D01*
Y061895D01*
X157982Y061858D01*
X157945Y061802D01*
X157757Y061614D01*
X158020D01*
X158126Y061652D02*
X158108Y061633D01*
X158126Y061614D01*
X158145Y061633D01*
X158126Y061652D01*
X149494Y061127D02*
X149475Y061164D01*
X149438Y061202D01*
X149400Y061220D01*
X149325D01*
X149288Y061202D01*
X149250Y061164D01*
X149231Y061127D01*
X149213Y061070D01*
Y060977D01*
X149231Y060920D01*
X149250Y060883D01*
X149288Y060846D01*
X149325Y060827D01*
X149400D01*
X149438Y060846D01*
X149475Y060883D01*
X149494Y060920D01*
X149942Y061070D02*
X149923Y061052D01*
X149942Y061033D01*
X149960Y061052D01*
Y061070D01*
X149942Y061089D01*
X149923D01*
X149904Y061070D01*
X149885Y061033D01*
X149848Y060939D01*
X149811Y060883D01*
X149773Y060846D01*
X149736Y060827D01*
X149679D01*
X149623Y060846D01*
X149604Y060883D01*
Y060939D01*
X149623Y060977D01*
X149736Y061052D01*
X149773Y061089D01*
X149792Y061127D01*
Y061164D01*
X149773Y061202D01*
X149736Y061220D01*
X149698Y061202D01*
X149679Y061164D01*
Y061127D01*
X149698Y061070D01*
X149736Y061014D01*
X149829Y060883D01*
X149867Y060846D01*
X149923Y060827D01*
X149942D01*
X149960Y060846D01*
Y060864D01*
X149679Y060827D02*
X149642Y060846D01*
X149623Y060883D01*
Y060939D01*
X149642Y060977D01*
X149679Y061014D01*
Y061127D02*
X149698Y061089D01*
X149848Y060883D01*
X149885Y060846D01*
X149923Y060827D01*
X150058Y061220D02*
Y060827D01*
X150320Y061220D02*
X150058Y060958D01*
X150152Y061052D02*
X150320Y060827D01*
M02*
