G04 Layer_Physical_Order=6*
G04 Layer_Color=16711680*
%FSLAX44Y44*%
%MOMM*%
G71*
G01*
G75*
%ADD10C,0.2500*%
%ADD11C,0.3500*%
%ADD12C,0.5000*%
%ADD13C,1.0000*%
%ADD14C,0.4000*%
%ADD17C,0.8000*%
G04:AMPARAMS|DCode=18|XSize=0.8mm|YSize=0.7mm|CornerRadius=0.0875mm|HoleSize=0mm|Usage=FLASHONLY|Rotation=0.000|XOffset=0mm|YOffset=0mm|HoleType=Round|Shape=RoundedRectangle|*
%AMROUNDEDRECTD18*
21,1,0.8000,0.5250,0,0,0.0*
21,1,0.6250,0.7000,0,0,0.0*
1,1,0.1750,0.3125,-0.2625*
1,1,0.1750,-0.3125,-0.2625*
1,1,0.1750,-0.3125,0.2625*
1,1,0.1750,0.3125,0.2625*
%
%ADD18ROUNDEDRECTD18*%
G04:AMPARAMS|DCode=26|XSize=1.8mm|YSize=1.15mm|CornerRadius=0.1437mm|HoleSize=0mm|Usage=FLASHONLY|Rotation=180.000|XOffset=0mm|YOffset=0mm|HoleType=Round|Shape=RoundedRectangle|*
%AMROUNDEDRECTD26*
21,1,1.8000,0.8625,0,0,180.0*
21,1,1.5125,1.1500,0,0,180.0*
1,1,0.2875,-0.7562,0.4313*
1,1,0.2875,0.7562,0.4313*
1,1,0.2875,0.7562,-0.4313*
1,1,0.2875,-0.7562,-0.4313*
%
%ADD26ROUNDEDRECTD26*%
G04:AMPARAMS|DCode=27|XSize=1.8mm|YSize=2.8mm|CornerRadius=0.225mm|HoleSize=0mm|Usage=FLASHONLY|Rotation=90.000|XOffset=0mm|YOffset=0mm|HoleType=Round|Shape=RoundedRectangle|*
%AMROUNDEDRECTD27*
21,1,1.8000,2.3500,0,0,90.0*
21,1,1.3500,2.8000,0,0,90.0*
1,1,0.4500,1.1750,0.6750*
1,1,0.4500,1.1750,-0.6750*
1,1,0.4500,-1.1750,-0.6750*
1,1,0.4500,-1.1750,0.6750*
%
%ADD27ROUNDEDRECTD27*%
%ADD35C,1.0000*%
G04:AMPARAMS|DCode=36|XSize=1mm|YSize=1mm|CornerRadius=0.05mm|HoleSize=0mm|Usage=FLASHONLY|Rotation=180.000|XOffset=0mm|YOffset=0mm|HoleType=Round|Shape=RoundedRectangle|*
%AMROUNDEDRECTD36*
21,1,1.0000,0.9000,0,0,180.0*
21,1,0.9000,1.0000,0,0,180.0*
1,1,0.1000,-0.4500,0.4500*
1,1,0.1000,0.4500,0.4500*
1,1,0.1000,0.4500,-0.4500*
1,1,0.1000,-0.4500,-0.4500*
%
%ADD36ROUNDEDRECTD36*%
G04:AMPARAMS|DCode=37|XSize=1.6mm|YSize=1mm|CornerRadius=0.125mm|HoleSize=0mm|Usage=FLASHONLY|Rotation=220.000|XOffset=0mm|YOffset=0mm|HoleType=Round|Shape=RoundedRectangle|*
%AMROUNDEDRECTD37*
21,1,1.6000,0.7500,0,0,220.0*
21,1,1.3500,1.0000,0,0,220.0*
1,1,0.2500,-0.7581,-0.1466*
1,1,0.2500,0.2760,0.7211*
1,1,0.2500,0.7581,0.1466*
1,1,0.2500,-0.2760,-0.7211*
%
%ADD37ROUNDEDRECTD37*%
G04:AMPARAMS|DCode=40|XSize=0.8mm|YSize=0.7mm|CornerRadius=0.0875mm|HoleSize=0mm|Usage=FLASHONLY|Rotation=270.000|XOffset=0mm|YOffset=0mm|HoleType=Round|Shape=RoundedRectangle|*
%AMROUNDEDRECTD40*
21,1,0.8000,0.5250,0,0,270.0*
21,1,0.6250,0.7000,0,0,270.0*
1,1,0.1750,-0.2625,-0.3125*
1,1,0.1750,-0.2625,0.3125*
1,1,0.1750,0.2625,0.3125*
1,1,0.1750,0.2625,-0.3125*
%
%ADD40ROUNDEDRECTD40*%
%ADD51C,0.6000*%
%ADD52C,0.8000*%
%ADD53C,0.2540*%
%ADD54C,0.1270*%
%ADD55C,0.1500*%
%ADD56C,6.0000*%
G04:AMPARAMS|DCode=57|XSize=2mm|YSize=2mm|CornerRadius=0.3mm|HoleSize=0mm|Usage=FLASHONLY|Rotation=90.000|XOffset=0mm|YOffset=0mm|HoleType=Round|Shape=RoundedRectangle|*
%AMROUNDEDRECTD57*
21,1,2.0000,1.4000,0,0,90.0*
21,1,1.4000,2.0000,0,0,90.0*
1,1,0.6000,0.7000,0.7000*
1,1,0.6000,0.7000,-0.7000*
1,1,0.6000,-0.7000,-0.7000*
1,1,0.6000,-0.7000,0.7000*
%
%ADD57ROUNDEDRECTD57*%
%ADD58C,2.0000*%
%ADD59C,3.5000*%
%ADD60C,4.5000*%
%ADD61C,0.7000*%
%ADD62C,0.6000*%
%ADD63C,0.7000*%
G04:AMPARAMS|DCode=64|XSize=1.6mm|YSize=1mm|CornerRadius=0.125mm|HoleSize=0mm|Usage=FLASHONLY|Rotation=180.000|XOffset=0mm|YOffset=0mm|HoleType=Round|Shape=RoundedRectangle|*
%AMROUNDEDRECTD64*
21,1,1.6000,0.7500,0,0,180.0*
21,1,1.3500,1.0000,0,0,180.0*
1,1,0.2500,-0.6750,0.3750*
1,1,0.2500,0.6750,0.3750*
1,1,0.2500,0.6750,-0.3750*
1,1,0.2500,-0.6750,-0.3750*
%
%ADD64ROUNDEDRECTD64*%
G04:AMPARAMS|DCode=65|XSize=3.5mm|YSize=1.2mm|CornerRadius=0.15mm|HoleSize=0mm|Usage=FLASHONLY|Rotation=180.000|XOffset=0mm|YOffset=0mm|HoleType=Round|Shape=RoundedRectangle|*
%AMROUNDEDRECTD65*
21,1,3.5000,0.9000,0,0,180.0*
21,1,3.2000,1.2000,0,0,180.0*
1,1,0.3000,-1.6000,0.4500*
1,1,0.3000,1.6000,0.4500*
1,1,0.3000,1.6000,-0.4500*
1,1,0.3000,-1.6000,-0.4500*
%
%ADD65ROUNDEDRECTD65*%
G04:AMPARAMS|DCode=66|XSize=2mm|YSize=3.2mm|CornerRadius=0.25mm|HoleSize=0mm|Usage=FLASHONLY|Rotation=90.000|XOffset=0mm|YOffset=0mm|HoleType=Round|Shape=RoundedRectangle|*
%AMROUNDEDRECTD66*
21,1,2.0000,2.7000,0,0,90.0*
21,1,1.5000,3.2000,0,0,90.0*
1,1,0.5000,1.3500,0.7500*
1,1,0.5000,1.3500,-0.7500*
1,1,0.5000,-1.3500,-0.7500*
1,1,0.5000,-1.3500,0.7500*
%
%ADD66ROUNDEDRECTD66*%
G04:AMPARAMS|DCode=67|XSize=2mm|YSize=5.2mm|CornerRadius=0.3mm|HoleSize=0mm|Usage=FLASHONLY|Rotation=244.000|XOffset=0mm|YOffset=0mm|HoleType=Round|Shape=RoundedRectangle|*
%AMROUNDEDRECTD67*
21,1,2.0000,4.6000,0,0,244.0*
21,1,1.4000,5.2000,0,0,244.0*
1,1,0.6000,-2.3741,0.3791*
1,1,0.6000,-1.7604,1.6374*
1,1,0.6000,2.3741,-0.3791*
1,1,0.6000,1.7604,-1.6374*
%
%ADD67ROUNDEDRECTD67*%
G04:AMPARAMS|DCode=68|XSize=2.159mm|YSize=2.54mm|CornerRadius=0.2699mm|HoleSize=0mm|Usage=FLASHONLY|Rotation=0.000|XOffset=0mm|YOffset=0mm|HoleType=Round|Shape=RoundedRectangle|*
%AMROUNDEDRECTD68*
21,1,2.1590,2.0002,0,0,0.0*
21,1,1.6193,2.5400,0,0,0.0*
1,1,0.5397,0.8096,-1.0001*
1,1,0.5397,-0.8096,-1.0001*
1,1,0.5397,-0.8096,1.0001*
1,1,0.5397,0.8096,1.0001*
%
%ADD68ROUNDEDRECTD68*%
G04:AMPARAMS|DCode=69|XSize=1.8mm|YSize=1.8mm|CornerRadius=0.225mm|HoleSize=0mm|Usage=FLASHONLY|Rotation=270.000|XOffset=0mm|YOffset=0mm|HoleType=Round|Shape=RoundedRectangle|*
%AMROUNDEDRECTD69*
21,1,1.8000,1.3500,0,0,270.0*
21,1,1.3500,1.8000,0,0,270.0*
1,1,0.4500,-0.6750,-0.6750*
1,1,0.4500,-0.6750,0.6750*
1,1,0.4500,0.6750,0.6750*
1,1,0.4500,0.6750,-0.6750*
%
%ADD69ROUNDEDRECTD69*%
G04:AMPARAMS|DCode=70|XSize=3.175mm|YSize=1mm|CornerRadius=0.1mm|HoleSize=0mm|Usage=FLASHONLY|Rotation=180.000|XOffset=0mm|YOffset=0mm|HoleType=Round|Shape=RoundedRectangle|*
%AMROUNDEDRECTD70*
21,1,3.1750,0.8000,0,0,180.0*
21,1,2.9750,1.0000,0,0,180.0*
1,1,0.2000,-1.4875,0.4000*
1,1,0.2000,1.4875,0.4000*
1,1,0.2000,1.4875,-0.4000*
1,1,0.2000,-1.4875,-0.4000*
%
%ADD70ROUNDEDRECTD70*%
G04:AMPARAMS|DCode=71|XSize=4.445mm|YSize=4mm|CornerRadius=0.4mm|HoleSize=0mm|Usage=FLASHONLY|Rotation=180.000|XOffset=0mm|YOffset=0mm|HoleType=Round|Shape=RoundedRectangle|*
%AMROUNDEDRECTD71*
21,1,4.4450,3.2000,0,0,180.0*
21,1,3.6450,4.0000,0,0,180.0*
1,1,0.8000,-1.8225,1.6000*
1,1,0.8000,1.8225,1.6000*
1,1,0.8000,1.8225,-1.6000*
1,1,0.8000,-1.8225,-1.6000*
%
%ADD71ROUNDEDRECTD71*%
G04:AMPARAMS|DCode=72|XSize=0.635mm|YSize=1.778mm|CornerRadius=0.1588mm|HoleSize=0mm|Usage=FLASHONLY|Rotation=180.000|XOffset=0mm|YOffset=0mm|HoleType=Round|Shape=RoundedRectangle|*
%AMROUNDEDRECTD72*
21,1,0.6350,1.4605,0,0,180.0*
21,1,0.3175,1.7780,0,0,180.0*
1,1,0.3175,-0.1588,0.7302*
1,1,0.3175,0.1588,0.7302*
1,1,0.3175,0.1588,-0.7302*
1,1,0.3175,-0.1588,-0.7302*
%
%ADD72ROUNDEDRECTD72*%
G04:AMPARAMS|DCode=73|XSize=1.6mm|YSize=1mm|CornerRadius=0.125mm|HoleSize=0mm|Usage=FLASHONLY|Rotation=45.000|XOffset=0mm|YOffset=0mm|HoleType=Round|Shape=RoundedRectangle|*
%AMROUNDEDRECTD73*
21,1,1.6000,0.7500,0,0,45.0*
21,1,1.3500,1.0000,0,0,45.0*
1,1,0.2500,0.7425,0.2121*
1,1,0.2500,-0.2121,-0.7425*
1,1,0.2500,-0.7425,-0.2121*
1,1,0.2500,0.2121,0.7425*
%
%ADD73ROUNDEDRECTD73*%
G04:AMPARAMS|DCode=74|XSize=2mm|YSize=3.15mm|CornerRadius=0.2mm|HoleSize=0mm|Usage=FLASHONLY|Rotation=90.000|XOffset=0mm|YOffset=0mm|HoleType=Round|Shape=RoundedRectangle|*
%AMROUNDEDRECTD74*
21,1,2.0000,2.7500,0,0,90.0*
21,1,1.6000,3.1500,0,0,90.0*
1,1,0.4000,1.3750,0.8000*
1,1,0.4000,1.3750,-0.8000*
1,1,0.4000,-1.3750,-0.8000*
1,1,0.4000,-1.3750,0.8000*
%
%ADD74ROUNDEDRECTD74*%
%ADD75C,1.2000*%
G36*
X-1Y385000D02*
X15000Y385000D01*
X15000Y385000D01*
Y385000D01*
X22713Y385000D01*
X22719Y385000D01*
X30000Y385000D01*
X33844Y384451D01*
X38118Y384240D01*
X53468Y382720D01*
X68724Y380445D01*
X83849Y377420D01*
X98806Y373652D01*
X113560Y369151D01*
X128073Y363928D01*
X135192Y360961D01*
X167500Y347500D01*
X168995Y346603D01*
D01*
X176818Y341909D01*
D01*
X187320Y335608D01*
X191313Y331615D01*
X191313Y331614D01*
X191313Y331614D01*
X191315Y331612D01*
X191904Y330836D01*
X192022Y330660D01*
X192325Y329926D01*
X192481Y329147D01*
X192500Y328750D01*
X192500Y328750D01*
X192404Y327774D01*
X191657Y325972D01*
X190278Y324593D01*
X188475Y323846D01*
X187500Y323750D01*
X176250D01*
X80000Y323750D01*
X80000D01*
X79981D01*
X79703Y323750D01*
X79702Y323750D01*
X79503D01*
X78584Y324131D01*
X77881Y324834D01*
X77500Y325753D01*
Y325952D01*
X77500Y325953D01*
X77500Y326500D01*
X77500Y347499D01*
X77499Y347499D01*
X77464Y348234D01*
X77177Y349676D01*
X76615Y351035D01*
X75798Y352258D01*
X74758Y353297D01*
X73536Y354114D01*
X72177Y354677D01*
X70735Y354964D01*
X70000Y355000D01*
X10000Y355000D01*
X9999Y354999D01*
X8780Y354879D01*
X6527Y353946D01*
X4803Y352222D01*
X3870Y349969D01*
X3798Y349240D01*
Y348798D01*
X3798Y348798D01*
X3798Y348798D01*
X3798Y348798D01*
Y337838D01*
X3750D01*
X3750Y319662D01*
X3798D01*
X3798Y267838D01*
X3750D01*
Y256250D01*
X3749Y256249D01*
Y255503D01*
X3178Y254125D01*
X2124Y253071D01*
X746Y252500D01*
X-0D01*
X-27500Y252500D01*
X-27500Y252500D01*
X-27997Y252500D01*
X-28916Y252881D01*
X-29619Y253584D01*
X-30000Y254503D01*
Y255000D01*
X-30000Y362500D01*
X-30000Y362500D01*
Y364716D01*
X-29135Y369063D01*
X-27439Y373158D01*
X-24977Y376843D01*
X-21843Y379977D01*
X-18158Y382439D01*
X-14063Y384135D01*
X-9716Y385000D01*
X-7500D01*
X-2466Y385000D01*
X-2463Y385000D01*
X-1Y385000D01*
D02*
G37*
G36*
X57500Y335000D02*
X57997Y335000D01*
X58916Y334619D01*
X59619Y333916D01*
X60000Y332997D01*
X60000Y332500D01*
X60000Y320000D01*
Y320000D01*
X60042Y319142D01*
X60377Y317460D01*
X61033Y315875D01*
X61986Y314449D01*
X63199Y313236D01*
X64625Y312283D01*
X66210Y311627D01*
X67892Y311292D01*
X68750Y311250D01*
X216565Y311250D01*
X216564Y311248D01*
X218344Y311249D01*
X221856Y310657D01*
X225219Y309487D01*
X228340Y307773D01*
X229736Y306667D01*
X258857Y283613D01*
X258855Y283611D01*
X259123Y283400D01*
X259550Y282869D01*
X259848Y282256D01*
X260000Y281591D01*
X260000Y281250D01*
X260000Y238750D01*
X259998Y238748D01*
X259998Y238003D01*
X259427Y236625D01*
X258373Y235571D01*
X256996Y235000D01*
X256250Y235000D01*
X38750Y235000D01*
X37346D01*
X34593Y235547D01*
X32000Y236622D01*
X29666Y238181D01*
X27681Y240166D01*
X26122Y242500D01*
X25048Y245093D01*
X24500Y247846D01*
Y249250D01*
Y333250D01*
X24500Y333598D01*
X24766Y334241D01*
X25259Y334733D01*
X25902Y335000D01*
X26250Y335000D01*
X57500Y335000D01*
X57500Y335000D01*
D02*
G37*
G36*
X-45000Y367183D02*
X-45000Y340000D01*
X-45000Y243493D01*
Y235493D01*
X-45067Y234812D01*
X-45589Y233552D01*
X-46553Y232589D01*
X-47812Y232067D01*
X-48493Y232000D01*
X-48875Y232076D01*
X-50250D01*
Y232000D01*
X-51000D01*
Y225000D01*
X-51500D01*
Y223750D01*
X-58076D01*
Y221875D01*
X-57775Y220363D01*
X-57318Y219680D01*
X-57024Y218749D01*
X-57319Y217821D01*
X-57776Y217137D01*
X-58077Y215625D01*
Y213750D01*
X-51501D01*
Y211250D01*
X-58077D01*
Y209375D01*
X-57776Y207863D01*
X-57118Y206878D01*
X-57484Y205859D01*
X-57680Y205608D01*
X-95000D01*
X-97146Y205181D01*
X-98965Y203965D01*
X-108965Y193965D01*
X-110181Y192146D01*
X-110608Y190000D01*
Y117500D01*
X-110181Y115354D01*
X-108965Y113535D01*
X-98167Y102737D01*
X-98152Y102659D01*
X-96826Y100674D01*
X-94841Y99348D01*
X-92500Y98883D01*
X-90159Y99348D01*
X-88174Y100674D01*
X-86848Y102659D01*
X-86382Y105000D01*
X-86848Y107341D01*
X-88174Y109326D01*
X-90159Y110652D01*
X-90237Y110667D01*
X-99392Y119823D01*
Y187677D01*
X-92677Y194392D01*
X-39686D01*
X-38500Y194392D01*
X-38500Y194392D01*
X-38481Y194390D01*
X-37297Y194273D01*
X-35197Y193770D01*
X-33157Y192830D01*
X-31340Y191511D01*
X-29815Y189863D01*
X-28641Y187948D01*
X-27863Y185842D01*
X-27511Y183624D01*
X-27500Y182504D01*
X-27500Y165000D01*
X-27500Y165000D01*
X-27609Y163894D01*
X-28455Y161852D01*
X-30019Y160288D01*
X-32061Y159442D01*
X-33167Y159333D01*
X-35667Y159333D01*
X-35667Y159333D01*
X-36031Y159333D01*
X-36705Y159054D01*
X-37221Y158538D01*
X-37500Y157865D01*
X-37500Y157500D01*
X-37500Y157251D01*
X-38237Y156119D01*
X-38286Y156083D01*
X-83250D01*
X-84908Y155753D01*
X-86314Y154814D01*
X-89314Y151814D01*
X-90253Y150408D01*
X-90583Y148750D01*
Y121250D01*
X-90253Y119592D01*
X-89314Y118186D01*
X-76833Y105705D01*
Y89295D01*
X-120795Y45333D01*
X-157382D01*
X-158678Y46199D01*
X-160146Y46807D01*
X-161705Y47118D01*
X-163295D01*
X-164854Y46807D01*
X-165336Y46608D01*
X-168374D01*
X-168581Y46919D01*
X-169863Y47775D01*
X-171375Y48076D01*
X-174500D01*
Y48500D01*
X-186500D01*
Y48076D01*
X-186500D01*
Y41000D01*
X-187000D01*
Y39750D01*
X-193576D01*
Y37875D01*
X-193774Y37633D01*
X-195000D01*
X-196658Y37304D01*
X-198064Y36364D01*
X-202513Y31915D01*
X-204841Y31452D01*
X-206826Y30126D01*
X-208152Y28141D01*
X-208617Y25800D01*
X-208152Y23459D01*
X-206826Y21474D01*
X-204841Y20148D01*
X-202500Y19683D01*
X-200159Y20148D01*
X-198174Y21474D01*
X-196848Y23459D01*
X-196385Y25787D01*
X-194749Y27423D01*
X-193849Y27050D01*
X-187000D01*
Y24550D01*
X-193576D01*
Y22675D01*
X-193275Y21163D01*
X-192418Y19881D01*
Y19019D01*
X-193275Y17737D01*
X-193576Y16225D01*
Y14350D01*
X-187000D01*
Y11850D01*
X-193576D01*
Y9975D01*
X-193275Y8463D01*
X-192418Y7181D01*
Y6319D01*
X-193275Y5037D01*
X-193576Y3525D01*
Y1650D01*
X-187000D01*
Y-850D01*
X-193576D01*
Y-2725D01*
X-193275Y-4237D01*
X-192418Y-5519D01*
Y-6381D01*
X-193275Y-7663D01*
X-193576Y-9175D01*
Y-11050D01*
X-187000D01*
Y-13550D01*
X-193576D01*
Y-15425D01*
X-193275Y-16937D01*
X-192418Y-18219D01*
Y-19081D01*
X-193275Y-20363D01*
X-193576Y-21875D01*
Y-23750D01*
X-187000D01*
Y-26250D01*
X-193576D01*
Y-28125D01*
X-193275Y-29637D01*
X-192726Y-30459D01*
X-192519Y-31350D01*
X-192726Y-32241D01*
X-193275Y-33063D01*
X-193576Y-34575D01*
Y-36450D01*
X-187000D01*
Y-37700D01*
X-186500D01*
Y-44776D01*
X-186500D01*
Y-45200D01*
X-185750D01*
D01*
X-180652D01*
X-178917Y-46359D01*
X-176625Y-46815D01*
X-171375D01*
X-170569Y-47477D01*
Y-49243D01*
X-170259Y-50802D01*
X-169651Y-52271D01*
X-168768Y-53592D01*
X-167644Y-54716D01*
X-166322Y-55599D01*
X-164854Y-56207D01*
X-163295Y-56518D01*
X-161705D01*
X-160146Y-56207D01*
X-158678Y-55599D01*
X-157356Y-54716D01*
X-156232Y-53592D01*
X-155349Y-52271D01*
X-154741Y-50802D01*
X-154431Y-49243D01*
Y-19865D01*
X-135142D01*
X-134588Y-20094D01*
X-132500Y-20369D01*
X-130412Y-20094D01*
X-128465Y-19288D01*
X-126794Y-18006D01*
X-125512Y-16334D01*
X-124706Y-14388D01*
X-124431Y-12300D01*
X-124706Y-10211D01*
X-125512Y-8265D01*
X-126794Y-6594D01*
X-128465Y-5312D01*
X-130412Y-4506D01*
X-132500Y-4231D01*
X-134588Y-4506D01*
X-135142Y-4735D01*
X-154431D01*
Y5535D01*
X-135142D01*
X-134588Y5306D01*
X-132500Y5031D01*
X-130412Y5306D01*
X-128465Y6112D01*
X-126794Y7394D01*
X-125512Y9066D01*
X-124706Y11012D01*
X-124431Y13100D01*
X-124706Y15188D01*
X-125512Y17135D01*
X-126794Y18806D01*
X-128465Y20088D01*
X-130412Y20894D01*
X-132500Y21169D01*
X-134588Y20894D01*
X-135142Y20665D01*
X-154431D01*
Y28967D01*
X-114200D01*
X-112542Y29297D01*
X-111136Y30236D01*
X-107878Y33494D01*
X-107500Y33444D01*
X-105803Y33667D01*
X-104222Y34322D01*
X-102864Y35364D01*
X-101822Y36722D01*
X-101167Y38303D01*
X-100944Y40000D01*
X-101167Y41697D01*
X-101822Y43278D01*
X-102864Y44636D01*
X-104222Y45678D01*
X-105803Y46333D01*
X-105914Y46347D01*
X-106322Y47550D01*
X-69436Y84436D01*
X-68497Y85842D01*
X-68167Y87500D01*
Y107500D01*
X-68497Y109158D01*
X-69436Y110564D01*
X-81917Y123045D01*
Y146955D01*
X-81455Y147417D01*
X-29333D01*
Y144295D01*
X-30795Y142833D01*
X-48186D01*
X-50159Y144152D01*
X-52500Y144618D01*
X-54841Y144152D01*
X-56826Y142826D01*
X-58152Y140841D01*
X-58618Y138500D01*
X-58152Y136159D01*
X-56826Y134174D01*
X-54841Y132848D01*
X-52500Y132382D01*
X-50159Y132848D01*
X-48186Y134167D01*
X-29000D01*
X-28482Y134270D01*
X-27500Y133464D01*
Y127500D01*
X-27572Y126768D01*
X-27795Y126230D01*
X-29456Y124956D01*
X-30236Y123939D01*
X-30518Y123822D01*
X-31250Y123750D01*
X-47997D01*
X-48916Y123369D01*
X-49619Y122666D01*
X-50000Y121747D01*
Y76250D01*
X-50048Y75762D01*
X-50421Y74861D01*
X-50710Y74572D01*
X-51024Y74437D01*
X-52158Y73784D01*
X-52500Y73750D01*
X-52462Y73609D01*
X-56318Y71387D01*
X-61222Y67742D01*
X-65669Y63552D01*
X-69599Y58873D01*
X-72959Y53770D01*
X-75703Y48310D01*
X-77793Y42569D01*
X-79203Y36624D01*
X-79912Y30555D01*
X-80000Y27500D01*
X-80000D01*
X-80000Y27500D01*
X-80000D01*
X-80000Y-25858D01*
X-79941Y-27873D01*
X-79466Y-31874D01*
X-78523Y-35792D01*
X-77125Y-39572D01*
X-75292Y-43160D01*
X-73048Y-46508D01*
X-71719Y-48059D01*
X-71719Y-48059D01*
X-71718Y-48059D01*
X-70426Y-49567D01*
X-70131Y-49839D01*
X-69104Y-51090D01*
X-67621Y-53310D01*
X-66362Y-55665D01*
X-65340Y-58131D01*
X-64565Y-60686D01*
X-64044Y-63305D01*
X-63783Y-65962D01*
X-63750Y-67297D01*
Y-363738D01*
X-63808Y-364928D01*
X-64272Y-367261D01*
X-65183Y-369459D01*
X-66505Y-371437D01*
X-68187Y-373119D01*
X-70165Y-374440D01*
X-72362Y-375351D01*
X-74696Y-375815D01*
X-75885Y-375873D01*
X-95000Y-372500D01*
X-162500Y-347500D01*
X-215000Y-317500D01*
X-270000Y-270000D01*
X-305000Y-230000D01*
X-340000Y-177500D01*
X-367500Y-102500D01*
X-370000Y-96250D01*
X-369880Y-95031D01*
X-368947Y-92778D01*
X-367222Y-91053D01*
X-364969Y-90120D01*
X-363750Y-90000D01*
X-320000D01*
X-317550Y-89880D01*
X-312743Y-88924D01*
X-308215Y-87048D01*
X-304140Y-84325D01*
X-300675Y-80860D01*
X-297952Y-76785D01*
X-296077Y-72257D01*
X-295121Y-67451D01*
X-295000Y-65000D01*
X-295000Y-65000D01*
X-295000Y47500D01*
X-295108Y49706D01*
X-295968Y54032D01*
X-297655Y58107D01*
X-300106Y61775D01*
X-303225Y64894D01*
X-306893Y67345D01*
X-310968Y69032D01*
X-315295Y69892D01*
X-317500Y70000D01*
X-317500Y70000D01*
X-317500Y70000D01*
X-371250D01*
X-371982Y70072D01*
X-373333Y70632D01*
X-374368Y71667D01*
X-374928Y73018D01*
X-375000Y73750D01*
Y82500D01*
X-370000Y107500D01*
X-357500Y140000D01*
X-355702Y142997D01*
X-355319Y143344D01*
X-353232Y144738D01*
X-350913Y145699D01*
X-348452Y146188D01*
X-347197Y146250D01*
X-343680D01*
X-343612Y146186D01*
X-340336Y143498D01*
X-336813Y141144D01*
X-333076Y139146D01*
X-329161Y137524D01*
X-325106Y136294D01*
X-320950Y135468D01*
X-316733Y135052D01*
X-314614Y135000D01*
X-310000D01*
X-307220Y135091D01*
X-301709Y135817D01*
X-296339Y137255D01*
X-291203Y139383D01*
X-286388Y142163D01*
X-281978Y145547D01*
X-278047Y149478D01*
X-274662Y153888D01*
X-271883Y158703D01*
X-269755Y163839D01*
X-268317Y169209D01*
X-267591Y174720D01*
X-267500Y177500D01*
X-267500Y187322D01*
X-267551Y189417D01*
X-267960Y193585D01*
X-268777Y197693D01*
X-269992Y201701D01*
X-271595Y205570D01*
X-273570Y209264D01*
X-275897Y212746D01*
X-278555Y215983D01*
X-280000Y217500D01*
X-280000Y217500D01*
X-281189Y218689D01*
X-283057Y221485D01*
X-284344Y224592D01*
X-285000Y227890D01*
X-285000Y229571D01*
Y247500D01*
Y249878D01*
X-284072Y254542D01*
X-282252Y258936D01*
X-279610Y262890D01*
X-277929Y264571D01*
X-277929Y264571D01*
X-267500Y275000D01*
X-248060Y292010D01*
X-247029Y291269D01*
X-247495Y290144D01*
X-248697Y285135D01*
X-249101Y280000D01*
X-249078D01*
Y250098D01*
X-250294D01*
X-251859Y249787D01*
X-253334Y249176D01*
X-254661Y248289D01*
X-255789Y247161D01*
X-256676Y245834D01*
X-257287Y244359D01*
X-257598Y242794D01*
Y228456D01*
X-257287Y226891D01*
X-256676Y225416D01*
X-255789Y224089D01*
X-254661Y222961D01*
X-253334Y222074D01*
X-251859Y221463D01*
X-250294Y221152D01*
X-225098D01*
Y215000D01*
X-225098Y198750D01*
X-225098Y198750D01*
X-225098Y198749D01*
X-225098Y198252D01*
X-224887Y197193D01*
X-224710Y196301D01*
X-224329Y195383D01*
X-223224Y193729D01*
X-222521Y193026D01*
X-222000Y192678D01*
Y176299D01*
X-248239D01*
X-248485Y176250D01*
X-248736D01*
X-250185Y175962D01*
X-250417Y175866D01*
X-250663Y175817D01*
X-252028Y175251D01*
X-252237Y175112D01*
X-252469Y175016D01*
X-253697Y174195D01*
X-253875Y174017D01*
X-254083Y173878D01*
X-255128Y172833D01*
X-255268Y172625D01*
X-255445Y172447D01*
X-256266Y171219D01*
X-256362Y170987D01*
X-256501Y170778D01*
X-257067Y169413D01*
X-257116Y169167D01*
X-257212Y168935D01*
X-257500Y167486D01*
Y167235D01*
X-257549Y166989D01*
Y130753D01*
X-257355Y129777D01*
X-256974Y128858D01*
X-256422Y128031D01*
X-255719Y127328D01*
X-255718Y127328D01*
X-254892Y126776D01*
X-254500Y126613D01*
X-254500Y116568D01*
X-254718Y116422D01*
X-255422Y115718D01*
X-255422Y115718D01*
X-255974Y114892D01*
X-256355Y113973D01*
X-256549Y112997D01*
Y98204D01*
X-256355Y97229D01*
X-255746Y95759D01*
X-255193Y94932D01*
X-255193Y94932D01*
X-254068Y93807D01*
X-254068Y93806D01*
X-253241Y93254D01*
X-251771Y92645D01*
X-250796Y92451D01*
X-224005D01*
X-223030Y92645D01*
X-221192Y93406D01*
X-220365Y93959D01*
X-218959Y95365D01*
X-218406Y96192D01*
X-217645Y98030D01*
X-217451Y99005D01*
Y112997D01*
X-217645Y113973D01*
X-218026Y114892D01*
X-218578Y115718D01*
X-219282Y116422D01*
X-220108Y116974D01*
X-220109Y116974D01*
X-221027Y117355D01*
X-222003Y117549D01*
X-230500D01*
X-230500Y126201D01*
X-227003D01*
X-226027Y126395D01*
X-225109Y126776D01*
X-224282Y127328D01*
X-223578Y128031D01*
X-223578Y128031D01*
X-223026Y128858D01*
X-222645Y129777D01*
X-222451Y130753D01*
Y149875D01*
X-222428Y150105D01*
X-222207Y150640D01*
X-221890Y150957D01*
X-221355Y151178D01*
X-221125Y151201D01*
X-200007D01*
X-199031Y151395D01*
X-196734Y152347D01*
X-195907Y152899D01*
X-194149Y154657D01*
X-193597Y155484D01*
X-192645Y157781D01*
X-192451Y158757D01*
Y169744D01*
X-192645Y170720D01*
X-193406Y172558D01*
X-193959Y173385D01*
X-195365Y174791D01*
X-196192Y175344D01*
X-198000Y176092D01*
Y190088D01*
X-198000Y190088D01*
X-197008Y191149D01*
X-197004Y191152D01*
X-195969Y191357D01*
X-195054Y191539D01*
X-195053Y191539D01*
X-195053Y191539D01*
X-194134Y191920D01*
X-194133Y191920D01*
X-194133Y191920D01*
X-193282Y192489D01*
X-192480Y193025D01*
X-192479Y193025D01*
X-192479Y193025D01*
X-191776Y193729D01*
X-191775Y193729D01*
X-191775Y193729D01*
X-191216Y194566D01*
X-190671Y195382D01*
X-190670Y195383D01*
X-190670Y195384D01*
X-190290Y196303D01*
X-190289Y196303D01*
X-190289Y196303D01*
X-190108Y197215D01*
X-189902Y198254D01*
X-189902Y198254D01*
X-189902Y198255D01*
X-189902Y198752D01*
Y227553D01*
X-189902Y227553D01*
Y242417D01*
X-190229Y244063D01*
X-190872Y245613D01*
X-191804Y247009D01*
X-192991Y248196D01*
X-194387Y249128D01*
X-195937Y249771D01*
X-197583Y250098D01*
X-198004D01*
X-198004Y250098D01*
X-198004Y250098D01*
X-198005Y250098D01*
X-198750Y250098D01*
X-216250Y250098D01*
X-216250Y250098D01*
X-230922D01*
Y280000D01*
X-230961Y280291D01*
X-230497Y283811D01*
X-229026Y287363D01*
X-226865Y290180D01*
X-226632Y290359D01*
X-214256Y302734D01*
X-206113Y308469D01*
X-190728Y318211D01*
X-174885Y327187D01*
X-158620Y335374D01*
X-154831Y337053D01*
X-153387Y336304D01*
X-153152Y335124D01*
X-151826Y333139D01*
X-149841Y331813D01*
X-147500Y331347D01*
X-145626Y331720D01*
X-140000Y331346D01*
Y326507D01*
X-140076Y326125D01*
Y324750D01*
X-140000D01*
Y324000D01*
X-133000D01*
X-126000D01*
Y324750D01*
X-125924D01*
Y326125D01*
X-126000Y326507D01*
Y333493D01*
X-125924Y333875D01*
Y339125D01*
X-126000Y339506D01*
Y341550D01*
X-125942Y342722D01*
X-125485Y345019D01*
X-124589Y347183D01*
X-123287Y349131D01*
X-122500Y350000D01*
X-122500D01*
X-122311Y350189D01*
X-107694Y355018D01*
X-90144Y359875D01*
X-72377Y363864D01*
X-54436Y366978D01*
X-45951Y368024D01*
X-45000Y367183D01*
D02*
G37*
G36*
X-196626Y244429D02*
X-195571Y243374D01*
X-195000Y241996D01*
X-195000Y241250D01*
X-195000Y241250D01*
Y198750D01*
X-195000Y198253D01*
X-195380Y197334D01*
X-196084Y196630D01*
X-197003Y196250D01*
X-197500Y196250D01*
X-197500D01*
X-217500Y196250D01*
X-217997D01*
X-218916Y196631D01*
X-219619Y197334D01*
X-220000Y198253D01*
X-220000Y198750D01*
Y198750D01*
X-220000Y215000D01*
X-220000Y241250D01*
Y241996D01*
X-219429Y243374D01*
X-218374Y244429D01*
X-216996Y245000D01*
X-216250D01*
X-216250Y245000D01*
X-198750Y245000D01*
X-198004Y245000D01*
X-196626Y244429D01*
D02*
G37*
G36*
X309537Y228209D02*
X311155Y227454D01*
X311768Y226805D01*
X324325Y213509D01*
X333750Y185000D01*
Y180000D01*
X290000D01*
Y200000D01*
X293750Y217500D01*
X305374Y227187D01*
X305374Y227187D01*
X306059Y227758D01*
X307755Y228316D01*
X309537Y228209D01*
D02*
G37*
G36*
X-229451Y244315D02*
X-228185Y243049D01*
X-227500Y241395D01*
Y240500D01*
Y231500D01*
Y230605D01*
X-228185Y228951D01*
X-229451Y227685D01*
X-231105Y227000D01*
X-249296D01*
X-250766Y227609D01*
X-251891Y228734D01*
X-252500Y230204D01*
Y231000D01*
Y240000D01*
Y240994D01*
X-251739Y242832D01*
X-250332Y244239D01*
X-248495Y245000D01*
X-231105D01*
X-229451Y244315D01*
D02*
G37*
G36*
X-31084Y229619D02*
X-30381Y228916D01*
X-30000Y227997D01*
Y227500D01*
Y200000D01*
Y199503D01*
X-30381Y198584D01*
X-31084Y197881D01*
X-32003Y197500D01*
X-41499D01*
X-41958Y197690D01*
X-42310Y198042D01*
X-42500Y198501D01*
Y198750D01*
Y228750D01*
Y228999D01*
X-42310Y229458D01*
X-41958Y229810D01*
X-41499Y230000D01*
X-32003D01*
X-31084Y229619D01*
D02*
G37*
G36*
X118916Y224620D02*
X119619Y223916D01*
X120000Y222997D01*
Y222500D01*
Y140000D01*
Y139006D01*
X119239Y137168D01*
X117832Y135761D01*
X115995Y135000D01*
X77003D01*
X76084Y135381D01*
X75381Y136084D01*
X75000Y137003D01*
Y137500D01*
Y192500D01*
Y192997D01*
X75381Y193916D01*
X76084Y194620D01*
X77003Y195000D01*
X85000D01*
X85488Y195048D01*
X86389Y195421D01*
X87079Y196111D01*
X87452Y197012D01*
X87500Y197500D01*
Y222500D01*
Y222997D01*
X87881Y223916D01*
X88584Y224620D01*
X89503Y225000D01*
X117997D01*
X118916Y224620D01*
D02*
G37*
G36*
X188916Y224620D02*
X189619Y223916D01*
X190000Y222997D01*
Y222500D01*
Y140000D01*
Y139005D01*
X189239Y137168D01*
X187832Y135761D01*
X185994Y135000D01*
X147003D01*
X146084Y135381D01*
X145381Y136084D01*
X145000Y137003D01*
Y137500D01*
Y192500D01*
Y192997D01*
X145381Y193916D01*
X146084Y194620D01*
X147003Y195000D01*
X155000D01*
X155488Y195048D01*
X156389Y195421D01*
X157079Y196111D01*
X157452Y197012D01*
X157500Y197500D01*
Y222500D01*
Y222997D01*
X157881Y223916D01*
X158584Y224620D01*
X159503Y225000D01*
X187997D01*
X188916Y224620D01*
D02*
G37*
G36*
X258916Y224619D02*
X259619Y223916D01*
X260000Y222997D01*
Y222500D01*
Y140000D01*
Y139005D01*
X259239Y137168D01*
X257832Y135761D01*
X255994Y135000D01*
X217003D01*
X216084Y135381D01*
X215381Y136084D01*
X215000Y137003D01*
Y137500D01*
Y192500D01*
Y192997D01*
X215381Y193916D01*
X216084Y194619D01*
X217003Y195000D01*
X225000D01*
X225488Y195048D01*
X226389Y195421D01*
X227079Y196111D01*
X227452Y197012D01*
X227500Y197500D01*
Y222500D01*
Y222997D01*
X227881Y223916D01*
X228584Y224619D01*
X229503Y225000D01*
X257997D01*
X258916Y224619D01*
D02*
G37*
G36*
X-197168Y172989D02*
X-195761Y171582D01*
X-195000Y169744D01*
Y168750D01*
Y160000D01*
Y158757D01*
X-195951Y156460D01*
X-197710Y154701D01*
X-200007Y153750D01*
X-221250D01*
X-221982Y153678D01*
X-223333Y153118D01*
X-224368Y152083D01*
X-224928Y150732D01*
X-225000Y150000D01*
Y131250D01*
Y130753D01*
X-225381Y129834D01*
X-226084Y129131D01*
X-227003Y128750D01*
X-252997D01*
X-253916Y129131D01*
X-254619Y129834D01*
X-255000Y130753D01*
Y131250D01*
Y166250D01*
Y166989D01*
X-254712Y168438D01*
X-254146Y169803D01*
X-253326Y171031D01*
X-252281Y172076D01*
X-251053Y172896D01*
X-249688Y173462D01*
X-248239Y173750D01*
X-199005D01*
X-197168Y172989D01*
D02*
G37*
G36*
X257500Y125000D02*
X257997Y125000D01*
X258916Y124619D01*
X259619Y123916D01*
X259999Y122997D01*
X259999Y122499D01*
X260000Y122500D01*
X260000Y105000D01*
X252500Y105000D01*
X250539Y104903D01*
X246694Y104139D01*
X243072Y102638D01*
X239812Y100460D01*
X237040Y97688D01*
X234862Y94428D01*
X233361Y90805D01*
X232596Y86960D01*
X232500Y85000D01*
Y85000D01*
X232500Y61250D01*
X232500Y60388D01*
X232164Y58697D01*
X231504Y57105D01*
X230546Y55672D01*
X229328Y54453D01*
X227894Y53496D01*
X226302Y52836D01*
X224611Y52500D01*
X223750Y52500D01*
X223750Y52500D01*
X90000Y52500D01*
X89503Y52500D01*
X88584Y52880D01*
X87880Y53584D01*
X87500Y54503D01*
X87500Y55000D01*
Y55000D01*
Y122500D01*
Y122997D01*
X87881Y123916D01*
X88584Y124619D01*
X89503Y125000D01*
X90000Y125000D01*
X90000Y125000D01*
X125000Y125000D01*
X125497Y125000D01*
X126416Y124619D01*
X127119Y123916D01*
X127499Y122997D01*
X127499Y122499D01*
X127500Y122500D01*
Y97500D01*
X127548Y97012D01*
X127921Y96111D01*
X128610Y95421D01*
X129511Y95048D01*
X129999Y95000D01*
X130000Y95000D01*
X155000D01*
X155488Y95048D01*
X156389Y95421D01*
X157079Y96111D01*
X157452Y97012D01*
X157500Y97500D01*
Y122500D01*
Y122997D01*
X157881Y123916D01*
X158584Y124619D01*
X159503Y125000D01*
X160000Y125000D01*
X160000Y125000D01*
X195000Y125000D01*
X195497Y125000D01*
X196416Y124619D01*
X197119Y123916D01*
X197499Y122997D01*
X197499Y122499D01*
X197500Y122500D01*
Y97500D01*
X197548Y97012D01*
X197921Y96111D01*
X198610Y95421D01*
X199511Y95048D01*
X199999Y95000D01*
X200000Y95000D01*
X217500Y95000D01*
X218480Y95048D01*
X220403Y95430D01*
X222213Y96181D01*
X223843Y97270D01*
X225229Y98656D01*
X226318Y100285D01*
X227068Y102096D01*
X227451Y104019D01*
X227499Y104999D01*
X227500Y105000D01*
X227500Y122500D01*
Y122997D01*
X227881Y123916D01*
X228584Y124619D01*
X229503Y125000D01*
X230000Y125000D01*
X230000Y125000D01*
X257500Y125000D01*
D02*
G37*
G36*
X-221084Y114619D02*
X-220381Y113916D01*
X-220000Y112997D01*
Y112500D01*
Y100000D01*
Y99005D01*
X-220761Y97168D01*
X-222168Y95761D01*
X-224005Y95000D01*
X-250796D01*
X-252266Y95609D01*
X-253391Y96734D01*
X-254000Y98204D01*
Y99000D01*
Y112500D01*
Y112997D01*
X-253619Y113916D01*
X-252916Y114619D01*
X-251997Y115000D01*
X-222003D01*
X-221084Y114619D01*
D02*
G37*
G36*
X311302Y94664D02*
X312895Y94004D01*
X314328Y93047D01*
X315546Y91828D01*
X316504Y90395D01*
X317164Y88802D01*
X317500Y87112D01*
Y86250D01*
Y85000D01*
Y84015D01*
X317116Y82083D01*
X316362Y80263D01*
X315268Y78625D01*
X313875Y77232D01*
X312237Y76138D01*
X310417Y75384D01*
X308485Y75000D01*
X251515D01*
X249583Y75384D01*
X247763Y76138D01*
X246125Y77232D01*
X244732Y78625D01*
X243638Y80263D01*
X242884Y82083D01*
X242500Y84015D01*
Y85000D01*
Y86250D01*
Y87112D01*
X242836Y88802D01*
X243496Y90395D01*
X244453Y91828D01*
X245672Y93047D01*
X247105Y94004D01*
X248698Y94664D01*
X250388Y95000D01*
X309612D01*
X311302Y94664D01*
D02*
G37*
G36*
Y59664D02*
X312895Y59004D01*
X314328Y58046D01*
X315546Y56828D01*
X316504Y55395D01*
X317164Y53802D01*
X317500Y52112D01*
Y51250D01*
Y50000D01*
Y49015D01*
X317116Y47083D01*
X316362Y45263D01*
X315268Y43625D01*
X313875Y42232D01*
X312237Y41138D01*
X310417Y40384D01*
X308485Y40000D01*
X251515D01*
X249583Y40384D01*
X247763Y41138D01*
X246125Y42232D01*
X244732Y43625D01*
X243638Y45263D01*
X242884Y47083D01*
X242500Y49015D01*
Y50000D01*
Y51250D01*
Y52112D01*
X242836Y53802D01*
X243496Y55395D01*
X244453Y56828D01*
X245672Y58046D01*
X247105Y59004D01*
X248698Y59664D01*
X250388Y60000D01*
X309612D01*
X311302Y59664D01*
D02*
G37*
G36*
X225944Y22806D02*
Y5303D01*
X226649Y1756D01*
X228034Y-1586D01*
X230043Y-4593D01*
X232601Y-7151D01*
X235608Y-9160D01*
X238950Y-10544D01*
X242497Y-11250D01*
X300000D01*
X300975Y-11346D01*
X302778Y-12093D01*
X304157Y-13472D01*
X304904Y-15275D01*
X305000Y-16250D01*
X305000Y-80000D01*
X305059Y-81799D01*
X305528Y-85365D01*
X306459Y-88840D01*
X307836Y-92163D01*
X309635Y-95278D01*
X311824Y-98132D01*
X314368Y-100676D01*
X317222Y-102865D01*
X320337Y-104664D01*
X323660Y-106041D01*
X327135Y-106972D01*
X330701Y-107441D01*
X332500Y-107500D01*
X353485D01*
X355417Y-107884D01*
X357237Y-108638D01*
X358875Y-109733D01*
X360267Y-111125D01*
X361362Y-112763D01*
X362116Y-114583D01*
X362500Y-116515D01*
Y-127500D01*
X360400Y-132541D01*
X359406Y-132656D01*
X359331Y-132552D01*
X353281Y-144957D01*
X347231Y-157361D01*
X349002Y-157295D01*
X349679Y-158271D01*
X346466Y-165982D01*
X345394Y-165954D01*
X343834Y-163797D01*
X341669Y-161786D01*
X339153Y-160237D01*
X336383Y-159208D01*
X333466Y-158740D01*
X330513Y-158849D01*
X327638Y-159533D01*
X324952Y-160764D01*
X322558Y-162495D01*
X320548Y-164661D01*
X318998Y-167177D01*
X317969Y-169946D01*
X317501Y-172864D01*
X317610Y-175817D01*
X318294Y-178691D01*
X319525Y-181377D01*
X321257Y-183771D01*
X323422Y-185782D01*
X325938Y-187331D01*
X328708Y-188360D01*
X331625Y-188829D01*
X334578Y-188719D01*
X335726Y-188446D01*
X336293Y-189270D01*
X317994Y-216110D01*
X316854Y-216006D01*
X316169Y-214459D01*
X307673Y-225334D01*
X299176Y-236210D01*
X301827Y-236672D01*
X302915Y-236646D01*
X303393Y-237524D01*
X300000Y-242500D01*
X296863Y-245637D01*
X295903Y-245358D01*
X295711Y-244501D01*
X294515Y-241799D01*
X292815Y-239382D01*
X290676Y-237344D01*
X288180Y-235761D01*
X285424Y-234697D01*
X282513Y-234190D01*
X279559Y-234261D01*
X276676Y-234907D01*
X273974Y-236102D01*
X271558Y-237802D01*
X260490Y-248870D01*
X250841D01*
X250839Y-248869D01*
X247500Y-245529D01*
X247166Y-245863D01*
X243708Y-243034D01*
X242079Y-241405D01*
X240674Y-240466D01*
X240536Y-240439D01*
X224718Y-227497D01*
X217500Y-220278D01*
X217500Y-193086D01*
X223086Y-187500D01*
X223588D01*
X224048Y-187409D01*
X228495Y-186524D01*
X228959Y-186332D01*
X229452Y-186234D01*
X234074Y-184319D01*
X234492Y-184040D01*
X234956Y-183848D01*
X239116Y-181068D01*
X239471Y-180713D01*
X239888Y-180434D01*
X241038Y-179284D01*
X243898Y-177008D01*
X244250Y-176591D01*
X244670Y-176245D01*
X247476Y-172810D01*
X247732Y-172329D01*
X248070Y-171901D01*
X249077Y-169926D01*
X265192Y-138341D01*
X265192Y-138341D01*
X265620Y-137502D01*
X265757Y-137020D01*
X265985Y-136574D01*
X266500Y-134758D01*
X266539Y-134258D01*
X266676Y-133776D01*
X266827Y-131894D01*
X266769Y-131396D01*
X266810Y-130897D01*
X266591Y-129022D01*
X266437Y-128545D01*
X266380Y-128047D01*
X265800Y-126250D01*
X265557Y-125812D01*
X265403Y-125335D01*
X264485Y-123686D01*
X264161Y-123304D01*
X263917Y-122866D01*
X262695Y-121427D01*
X262303Y-121115D01*
X261978Y-120733D01*
X260500Y-119559D01*
X260054Y-119330D01*
X259662Y-119019D01*
X258822Y-118587D01*
X258822Y-118587D01*
X224135Y-100733D01*
X224135Y-100733D01*
X223316Y-100312D01*
X223314Y-100311D01*
X223312Y-100309D01*
X222842Y-100175D01*
X222409Y-99950D01*
X171425Y-85105D01*
X170707Y-85043D01*
X170000Y-84902D01*
X168752Y-84902D01*
X168259Y-85000D01*
X167757D01*
X165307Y-85487D01*
X164843Y-85679D01*
X164351Y-85777D01*
X162044Y-86733D01*
X161626Y-87012D01*
X161162Y-87204D01*
X159086Y-88592D01*
X158730Y-88947D01*
X158313Y-89226D01*
X157431Y-90108D01*
X157431Y-90108D01*
X134934Y-112605D01*
X134934Y-112605D01*
X121019Y-126520D01*
X120315Y-127224D01*
X120315Y-127224D01*
X120315Y-127224D01*
X119697Y-128149D01*
X119210Y-128877D01*
X119210Y-128877D01*
X119210Y-128878D01*
X118449Y-130715D01*
X118449Y-130716D01*
X118061Y-132666D01*
X118061Y-132666D01*
X118061Y-132667D01*
X118061Y-134656D01*
X118061Y-134656D01*
X118061Y-134656D01*
X118244Y-135580D01*
X118448Y-136607D01*
X118449Y-136607D01*
X118449Y-136607D01*
X119210Y-138444D01*
X119210Y-138445D01*
X119210Y-138445D01*
X119643Y-139092D01*
X120315Y-140098D01*
X120315Y-140098D01*
X120315Y-140099D01*
X121018Y-140801D01*
X121018Y-140801D01*
X142231Y-162015D01*
X142232Y-162015D01*
X142934Y-162718D01*
X142934Y-162718D01*
X142934Y-162718D01*
X143157Y-162866D01*
X143987Y-163697D01*
X143987Y-163697D01*
X145641Y-164802D01*
X147203Y-165449D01*
X149154Y-165837D01*
X150846Y-165837D01*
X152796Y-165449D01*
X154359Y-164802D01*
X156013Y-163697D01*
X156611Y-163099D01*
X156611Y-163099D01*
X162266Y-157443D01*
X162538Y-157197D01*
X163248Y-156723D01*
X163921Y-156444D01*
X164636Y-156302D01*
X165364D01*
X166079Y-156444D01*
X166752Y-156723D01*
X167462Y-157198D01*
X167735Y-157444D01*
X193750Y-183459D01*
X193750Y-197502D01*
X193714Y-198235D01*
X193427Y-199677D01*
X192864Y-201035D01*
X192048Y-202258D01*
X191008Y-203298D01*
X189785Y-204114D01*
X188427Y-204677D01*
X186985Y-204964D01*
X186250Y-205000D01*
X176250D01*
Y-205000D01*
X142609Y-205000D01*
X141012Y-204683D01*
X139509Y-204060D01*
X138155Y-203155D01*
X124775Y-189775D01*
X124775Y-189775D01*
X123589Y-188700D01*
X120932Y-186925D01*
X117980Y-185702D01*
X114845Y-185079D01*
X113248Y-185000D01*
X38750Y-185000D01*
X38118D01*
X36951Y-184517D01*
X36057Y-183623D01*
X35574Y-182456D01*
X35574Y-156823D01*
X35574D01*
X35574Y-156823D01*
X35574Y-156822D01*
X35541Y-156155D01*
X35489Y-155891D01*
X35280Y-154843D01*
X34768Y-153607D01*
X34025Y-152495D01*
X33079Y-151549D01*
X31967Y-150806D01*
X30731Y-150294D01*
X29419Y-150033D01*
X28750Y-150000D01*
X-35001D01*
X-35975Y-150096D01*
X-37778Y-150843D01*
X-39158Y-152222D01*
X-39904Y-154025D01*
X-40000Y-155000D01*
Y-261250D01*
X-39958Y-262108D01*
X-39623Y-263790D01*
X-38967Y-265375D01*
X-38014Y-266801D01*
X-36801Y-268014D01*
X-35375Y-268967D01*
X-33790Y-269623D01*
X-32108Y-269958D01*
X-31250Y-270000D01*
X-31250D01*
X13750Y-270000D01*
X14247Y-270000D01*
X15166Y-270381D01*
X15869Y-271084D01*
X16250Y-272003D01*
X16250Y-272500D01*
X16250Y-272500D01*
X16250Y-295000D01*
X16250Y-295497D01*
X15869Y-296416D01*
X15166Y-297120D01*
X14247Y-297500D01*
X13750Y-297500D01*
X13750Y-297500D01*
X-41438Y-297500D01*
X-42774D01*
X-45394Y-296979D01*
X-47862Y-295956D01*
X-50083Y-294472D01*
X-51972Y-292583D01*
X-53457Y-290362D01*
X-54479Y-287894D01*
X-55000Y-285274D01*
X-55000Y-283938D01*
X-55000D01*
X-55000Y-90125D01*
X-55000Y-89128D01*
X-54611Y-87172D01*
X-53847Y-85329D01*
X-52739Y-83671D01*
X-51329Y-82260D01*
X-49671Y-81152D01*
X-47828Y-80389D01*
X-45871Y-80000D01*
X-44874Y-80000D01*
X-44874Y-79999D01*
X16Y-80000D01*
X3925Y-79904D01*
X11739Y-79135D01*
X19439Y-77604D01*
X26952Y-75325D01*
X34206Y-72321D01*
X41130Y-68621D01*
X47658Y-64259D01*
X53727Y-59278D01*
X59278Y-53727D01*
X64259Y-47658D01*
X68621Y-41130D01*
X72321Y-34206D01*
X75325Y-26952D01*
X77604Y-19439D01*
X79135Y-11739D01*
X79904Y-3926D01*
X80000Y-0D01*
X79999Y9999D01*
X79999D01*
X79999Y10000D01*
X79915Y13434D01*
X79842Y14181D01*
Y14842D01*
X79915Y16328D01*
X80495Y19242D01*
X81632Y21987D01*
X83283Y24458D01*
X85384Y26559D01*
X87854Y28210D01*
X90600Y29347D01*
X93514Y29927D01*
X95000Y30000D01*
X121250Y30000D01*
X121250Y30000D01*
X218750D01*
X225944Y22806D01*
D02*
G37*
G36*
X311302Y24664D02*
X312895Y24004D01*
X314328Y23047D01*
X315546Y21828D01*
X316504Y20395D01*
X317164Y18802D01*
X317500Y17112D01*
Y16250D01*
Y15000D01*
Y14015D01*
X317116Y12083D01*
X316362Y10263D01*
X315268Y8625D01*
X313875Y7232D01*
X312237Y6138D01*
X310417Y5384D01*
X308485Y5000D01*
X251515D01*
X249583Y5384D01*
X247763Y6138D01*
X246125Y7232D01*
X244732Y8625D01*
X243638Y10263D01*
X242884Y12083D01*
X242500Y14015D01*
Y15000D01*
Y16250D01*
Y17112D01*
X242836Y18802D01*
X243496Y20395D01*
X244453Y21828D01*
X245672Y23047D01*
X247105Y24004D01*
X248698Y24664D01*
X250388Y25000D01*
X309612D01*
X311302Y24664D01*
D02*
G37*
G36*
X170000Y-90000D02*
X220983Y-104845D01*
X221802Y-105266D01*
X221802Y-105266D01*
X256491Y-123121D01*
X257330Y-123552D01*
X258809Y-124726D01*
X260030Y-126165D01*
X260948Y-127814D01*
X261528Y-129611D01*
X261746Y-131486D01*
X261595Y-133368D01*
X261080Y-135184D01*
X260651Y-136024D01*
X260651Y-136024D01*
X244536Y-167610D01*
X243528Y-169585D01*
X240723Y-173019D01*
X237638Y-175475D01*
X236283Y-176829D01*
X232123Y-179609D01*
X227501Y-181524D01*
X222593Y-182500D01*
X219571D01*
X219571Y-182500D01*
X217898Y-182582D01*
X214616Y-183235D01*
X211524Y-184516D01*
X208741Y-186375D01*
X207500Y-187500D01*
X202500Y-187500D01*
X201956Y-186956D01*
X201250Y-190000D01*
Y-185924D01*
X200971Y-185508D01*
X200328Y-183954D01*
X200048Y-182548D01*
X171250Y-153750D01*
X171250Y-153750D01*
X170607Y-153168D01*
X169167Y-152205D01*
X167566Y-151542D01*
X165866Y-151204D01*
X164134D01*
X162434Y-151542D01*
X160833Y-152205D01*
X159393Y-153167D01*
X158750Y-153750D01*
X153006Y-159494D01*
X153006Y-159494D01*
X152408Y-160092D01*
X150846Y-160739D01*
X149154Y-160739D01*
X147592Y-160092D01*
X146994Y-159494D01*
X146665Y-159165D01*
X146539Y-159113D01*
X145836Y-158410D01*
X145836Y-158410D01*
X124623Y-137197D01*
X123920Y-136494D01*
X123159Y-134656D01*
X123159Y-132667D01*
X123920Y-130829D01*
X124623Y-130126D01*
X124623Y-130126D01*
X138536Y-116213D01*
X138539Y-116209D01*
X161035Y-93713D01*
X161035Y-93714D01*
X161918Y-92830D01*
X163995Y-91443D01*
X166302Y-90487D01*
X168751Y-90000D01*
X170000Y-90000D01*
D02*
G37*
G36*
X22290Y-160951D02*
X24049Y-162710D01*
X25000Y-165007D01*
X25000Y-166250D01*
X25000Y-166250D01*
X25000Y-166250D01*
Y-186250D01*
X25042Y-187108D01*
X25377Y-188790D01*
X26033Y-190375D01*
X26986Y-191801D01*
X28199Y-193014D01*
X29625Y-193967D01*
X31210Y-194623D01*
X32892Y-194958D01*
X33750Y-195000D01*
X103247Y-195000D01*
X105400Y-195000D01*
X109622Y-195840D01*
X113599Y-197487D01*
X117178Y-199879D01*
X118700Y-201401D01*
X118700Y-201401D01*
X118700Y-201401D01*
X131122Y-213823D01*
X132365Y-214949D01*
X135152Y-216811D01*
X138248Y-218094D01*
X141535Y-218748D01*
X143210Y-218830D01*
X187205D01*
X188427Y-219073D01*
X189785Y-219636D01*
X191008Y-220452D01*
X192048Y-221492D01*
X192864Y-222715D01*
X193427Y-224073D01*
X193714Y-225515D01*
X193750Y-226250D01*
X193750Y-232500D01*
X193905D01*
Y-261750D01*
Y-263525D01*
X194597Y-267006D01*
X195956Y-270284D01*
X197927Y-273235D01*
X199182Y-274490D01*
X203962Y-279270D01*
X212200Y-287508D01*
X212549Y-287893D01*
X213125Y-288755D01*
X213522Y-289714D01*
X213724Y-290731D01*
X213750Y-291250D01*
Y-294357D01*
X213709Y-295193D01*
X213382Y-296834D01*
X212742Y-298380D01*
X212386Y-298914D01*
X211893Y-299610D01*
X211497Y-300091D01*
X210759Y-300779D01*
X197542Y-309863D01*
X183040Y-318750D01*
X178750D01*
X178281Y-318704D01*
X177416Y-318345D01*
X176753Y-317682D01*
X176394Y-316817D01*
X176348Y-316348D01*
Y-301250D01*
X175960Y-299299D01*
X174855Y-297645D01*
X171105Y-293895D01*
X169451Y-292790D01*
X167500Y-292402D01*
X125000D01*
X123049Y-292790D01*
X121395Y-293895D01*
X120145Y-295145D01*
X119040Y-296799D01*
X118652Y-298750D01*
Y-315727D01*
Y-323848D01*
X118534Y-325048D01*
X117615Y-327266D01*
X115918Y-328963D01*
X115389Y-329182D01*
X115332Y-329239D01*
X113495Y-330000D01*
X109396D01*
X108496Y-329956D01*
X106730Y-329604D01*
X105066Y-328915D01*
X103569Y-327915D01*
X102296Y-326642D01*
X101295Y-325144D01*
X100606Y-323480D01*
X100474Y-322819D01*
X100210Y-320814D01*
X99480Y-319051D01*
X98261Y-317832D01*
X97500Y-315995D01*
Y-315000D01*
Y-307500D01*
X97404Y-306525D01*
X96657Y-304722D01*
X95278Y-303343D01*
X93476Y-302596D01*
X92500Y-302500D01*
X74503D01*
X73584Y-302119D01*
X72881Y-301416D01*
X72500Y-300497D01*
Y-300000D01*
Y-290000D01*
Y-289503D01*
X72574Y-289323D01*
X72500Y-289284D01*
X72500Y-282500D01*
X77680Y-277320D01*
X156402D01*
X158353Y-276932D01*
X160190Y-276171D01*
X161844Y-275066D01*
X163251Y-273659D01*
X164356Y-272005D01*
X165117Y-270168D01*
X165117Y-270168D01*
X165336Y-269066D01*
X165505Y-268217D01*
X165505Y-268217D01*
X165505Y-268217D01*
X165505Y-267224D01*
X165505Y-267222D01*
X165505Y-247222D01*
X165505Y-246484D01*
X165407Y-245991D01*
Y-245489D01*
X165119Y-244040D01*
X164927Y-243576D01*
X164829Y-243083D01*
X164263Y-241719D01*
X163985Y-241301D01*
X163792Y-240837D01*
X162972Y-239609D01*
X162617Y-239254D01*
X162337Y-238836D01*
X161293Y-237792D01*
X160875Y-237513D01*
X160520Y-237158D01*
X159292Y-236337D01*
X158828Y-236145D01*
X158410Y-235866D01*
X157045Y-235301D01*
X156553Y-235203D01*
X156089Y-235011D01*
X154640Y-234722D01*
X154138Y-234722D01*
X153645Y-234625D01*
X152909Y-234625D01*
X152907Y-234624D01*
X121247Y-234624D01*
X120576Y-234902D01*
X82917D01*
X79766Y-234592D01*
X76661Y-233974D01*
X73631Y-233055D01*
X70705Y-231843D01*
X67913Y-230351D01*
X65280Y-228592D01*
X62833Y-226583D01*
X61714Y-225464D01*
X61250Y-225000D01*
X61250Y-225000D01*
X60605Y-224415D01*
X59159Y-223449D01*
X57553Y-222784D01*
X55847Y-222445D01*
X54978Y-222402D01*
X49736D01*
X49756Y-222222D01*
X49720Y-222222D01*
X49227Y-222124D01*
X48080Y-222124D01*
X48079Y-222124D01*
X32908Y-222124D01*
X32411Y-222124D01*
X32411Y-222124D01*
X32411Y-222124D01*
X31442Y-222317D01*
X31067Y-222391D01*
X30984Y-222402D01*
X10098D01*
X9948Y-222387D01*
X9671Y-222272D01*
X9540Y-222141D01*
X9329Y-221633D01*
X9329Y-221633D01*
X8224Y-219979D01*
X7521Y-219276D01*
X7521Y-219276D01*
X5867Y-218171D01*
X4948Y-217790D01*
X2997Y-217402D01*
X-26243D01*
X-27092Y-217360D01*
X-28757Y-217029D01*
X-29620Y-216672D01*
X-30696Y-216132D01*
Y-216132D01*
X-30696Y-216132D01*
X-31736Y-215437D01*
X-32937Y-214236D01*
X-33880Y-212825D01*
X-34529Y-211257D01*
X-34860Y-209592D01*
X-34902Y-208743D01*
Y-165007D01*
X-34806Y-164030D01*
X-34058Y-162225D01*
X-32677Y-160844D01*
X-30872Y-160096D01*
X-29896Y-160000D01*
X18750Y-160000D01*
X19993Y-160000D01*
X22290Y-160951D01*
D02*
G37*
G36*
X48079Y-227222D02*
X49227Y-227222D01*
X51479Y-227670D01*
X53601Y-228549D01*
X55510Y-229825D01*
X56322Y-230636D01*
X61749Y-236064D01*
Y-236064D01*
X62657Y-236887D01*
X64692Y-238248D01*
X66954Y-239184D01*
X69355Y-239662D01*
X70579Y-239722D01*
X152907Y-239722D01*
X152907Y-239722D01*
X153646Y-239722D01*
X155095Y-240011D01*
X156460Y-240576D01*
X157688Y-241397D01*
X158733Y-242441D01*
X159554Y-243670D01*
X160119Y-245035D01*
X160407Y-246483D01*
X160407Y-247222D01*
X160407Y-267222D01*
X160407Y-267222D01*
X160407Y-268217D01*
X159646Y-270054D01*
X158239Y-271461D01*
X156402Y-272222D01*
X60407D01*
X60407Y-272222D01*
X59920Y-272270D01*
X59018Y-272644D01*
X58329Y-273333D01*
X57955Y-274234D01*
X57907Y-274722D01*
Y-307222D01*
X57907Y-307222D01*
X57907Y-307719D01*
X57527Y-308638D01*
X56823Y-309342D01*
X55905Y-309722D01*
X55407Y-309722D01*
X32410D01*
X31491Y-309342D01*
X30788Y-308638D01*
X30407Y-307719D01*
Y-307222D01*
Y-229722D01*
X30407Y-229225D01*
X30788Y-228306D01*
X31491Y-227603D01*
X32410Y-227222D01*
X32907Y-227222D01*
X48079Y-227222D01*
X48079Y-227222D01*
D02*
G37*
G36*
X3916Y-222881D02*
X4619Y-223584D01*
X5000Y-224503D01*
Y-225000D01*
Y-262500D01*
Y-262749D01*
X4810Y-263208D01*
X4458Y-263560D01*
X3999Y-263750D01*
X-29247D01*
X-30166Y-263369D01*
X-30869Y-262666D01*
X-31250Y-261747D01*
Y-261250D01*
Y-228750D01*
Y-227507D01*
X-30299Y-225210D01*
X-28540Y-223451D01*
X-26243Y-222500D01*
X2997D01*
X3916Y-222881D01*
D02*
G37*
G36*
X25309Y-300000D02*
X21016D01*
X20888Y-299897D01*
X20337Y-298730D01*
X20579Y-298368D01*
X20579Y-298367D01*
X20580Y-298367D01*
X20960Y-297448D01*
X20960Y-297448D01*
X20960Y-297447D01*
X21152Y-296483D01*
X21348Y-295497D01*
X21348Y-295497D01*
X21348Y-295496D01*
X21348Y-294999D01*
X21348Y-272500D01*
X21347Y-272498D01*
X21348Y-272005D01*
X21348Y-272004D01*
X21348Y-272004D01*
X21239Y-271457D01*
X21239Y-271451D01*
X21237Y-271446D01*
X21155Y-271035D01*
X20960Y-270054D01*
X20960Y-270053D01*
X20960Y-270053D01*
X20580Y-269134D01*
X20580Y-269134D01*
X20580Y-269134D01*
X19998Y-268263D01*
X19475Y-267480D01*
X19475Y-267480D01*
X19475Y-267480D01*
X18771Y-266776D01*
X18771Y-266776D01*
X18771Y-266776D01*
X17910Y-266201D01*
X17118Y-265671D01*
X17118Y-265671D01*
X17117Y-265671D01*
X16199Y-265290D01*
X16198Y-265290D01*
X16198Y-265290D01*
X15238Y-265099D01*
X14248Y-264902D01*
X14247Y-264902D01*
X14247Y-264902D01*
X13750Y-264902D01*
X10964D01*
X10368Y-264410D01*
X9922Y-263632D01*
X10098Y-262749D01*
X10098Y-262749D01*
X10098Y-262749D01*
Y-255500D01*
X25309D01*
Y-300000D01*
D02*
G37*
G36*
X16850Y-317728D02*
X17272Y-318150D01*
X17500Y-318702D01*
X17500Y-319000D01*
X17567Y-319683D01*
X18090Y-320945D01*
X19056Y-321910D01*
X20317Y-322433D01*
X21000Y-322500D01*
X52500Y-322500D01*
X55000Y-325000D01*
X55000Y-332500D01*
X55000Y-332500D01*
X52550Y-332620D01*
X47743Y-333577D01*
X43215Y-335452D01*
X39140Y-338175D01*
X35675Y-341640D01*
X32952Y-345715D01*
X31077Y-350243D01*
X30120Y-355050D01*
X30000Y-357500D01*
Y-358021D01*
Y-362100D01*
Y-364602D01*
X29024Y-369509D01*
X27109Y-374131D01*
X24329Y-378292D01*
X20791Y-381829D01*
X16631Y-384609D01*
X12009Y-386524D01*
X7102Y-387500D01*
X-7102D01*
X-12009Y-386524D01*
X-16631Y-384609D01*
X-20792Y-381829D01*
X-24330Y-378292D01*
X-27109Y-374131D01*
X-29024Y-369509D01*
X-30000Y-364602D01*
Y-362100D01*
Y-327500D01*
Y-326515D01*
X-29616Y-324583D01*
X-28862Y-322763D01*
X-27768Y-321125D01*
X-26375Y-319732D01*
X-24737Y-318638D01*
X-22917Y-317884D01*
X-20985Y-317500D01*
X15497D01*
D01*
X16000D01*
X16298D01*
X16850Y-317728D01*
D02*
G37*
G36*
X171250Y-301250D02*
Y-321250D01*
X163750Y-328750D01*
X126250D01*
X123750Y-326250D01*
Y-298750D01*
X125000Y-297500D01*
X167500D01*
X171250Y-301250D01*
D02*
G37*
%LPC*%
G36*
X-125924Y322250D02*
X-133000D01*
X-140076D01*
Y320875D01*
X-139775Y319363D01*
X-138919Y318081D01*
X-138649Y317901D01*
X-138366Y316185D01*
X-138678Y315778D01*
X-139333Y314197D01*
X-139556Y312500D01*
X-139333Y310803D01*
X-138678Y309222D01*
X-138057Y308413D01*
X-137756Y307500D01*
X-138057Y306587D01*
X-138678Y305778D01*
X-139333Y304197D01*
X-139556Y302500D01*
X-139333Y300803D01*
X-138678Y299222D01*
X-138608Y299131D01*
Y297126D01*
X-138919Y296919D01*
X-139775Y295637D01*
X-140076Y294125D01*
Y288875D01*
X-140000Y288493D01*
Y281507D01*
X-140076Y281125D01*
Y279750D01*
X-140000D01*
Y279000D01*
X-133000D01*
X-126000D01*
Y279750D01*
X-125924D01*
Y281125D01*
X-126000Y281507D01*
Y288493D01*
X-125924Y288875D01*
Y294125D01*
X-126225Y295637D01*
X-127081Y296919D01*
X-127392Y297126D01*
Y299131D01*
X-127322Y299222D01*
X-126667Y300803D01*
X-126444Y302500D01*
X-126667Y304197D01*
X-127322Y305778D01*
X-127943Y306587D01*
X-128244Y307500D01*
X-127943Y308413D01*
X-127322Y309222D01*
X-126667Y310803D01*
X-126444Y312500D01*
X-126667Y314197D01*
X-127322Y315778D01*
X-127634Y316185D01*
X-127351Y317901D01*
X-127081Y318081D01*
X-126225Y319363D01*
X-125924Y320875D01*
Y322250D01*
D02*
G37*
G36*
Y277250D02*
X-133000D01*
X-140076D01*
Y275875D01*
X-139775Y274363D01*
X-138919Y273081D01*
X-138649Y272901D01*
X-138366Y271185D01*
X-138678Y270778D01*
X-139333Y269197D01*
X-139556Y267500D01*
X-139333Y265803D01*
X-138678Y264222D01*
X-138057Y263413D01*
X-137756Y262500D01*
X-138057Y261587D01*
X-138678Y260778D01*
X-139333Y259197D01*
X-139556Y257500D01*
X-139333Y255803D01*
X-138678Y254222D01*
X-138608Y254131D01*
Y252126D01*
X-138919Y251919D01*
X-139775Y250637D01*
X-140076Y249125D01*
Y243875D01*
X-140000Y243493D01*
Y236507D01*
X-140076Y236125D01*
Y234750D01*
X-140000D01*
Y234000D01*
X-133000D01*
X-126000D01*
Y234750D01*
X-125924D01*
Y236125D01*
X-126000Y236507D01*
Y243493D01*
X-125924Y243875D01*
Y249125D01*
X-126225Y250637D01*
X-127081Y251919D01*
X-127392Y252126D01*
Y254131D01*
X-127322Y254222D01*
X-126667Y255803D01*
X-126444Y257500D01*
X-126667Y259197D01*
X-127322Y260778D01*
X-127943Y261587D01*
X-128244Y262500D01*
X-127943Y263413D01*
X-127322Y264222D01*
X-126667Y265803D01*
X-126444Y267500D01*
X-126667Y269197D01*
X-127322Y270778D01*
X-127634Y271185D01*
X-127351Y272901D01*
X-127081Y273081D01*
X-126225Y274363D01*
X-125924Y275875D01*
Y277250D01*
D02*
G37*
G36*
X-52750Y232076D02*
X-54125D01*
X-55637Y231775D01*
X-56919Y230919D01*
X-57775Y229637D01*
X-58076Y228125D01*
Y226250D01*
X-52750D01*
Y232076D01*
D02*
G37*
G36*
X-125924Y232250D02*
X-133000D01*
X-140076D01*
Y230875D01*
X-139775Y229363D01*
X-138919Y228081D01*
X-137637Y227225D01*
X-136437Y226986D01*
X-136216Y225864D01*
X-136230Y225698D01*
X-136278Y225678D01*
X-137636Y224636D01*
X-138678Y223278D01*
X-139333Y221697D01*
X-139556Y220000D01*
X-139333Y218303D01*
X-138678Y216722D01*
X-137636Y215364D01*
X-136278Y214322D01*
X-134697Y213667D01*
X-133000Y213444D01*
X-131303Y213667D01*
X-129722Y214322D01*
X-128364Y215364D01*
X-127322Y216722D01*
X-126667Y218303D01*
X-126444Y220000D01*
X-126667Y221697D01*
X-127322Y223278D01*
X-128364Y224636D01*
X-129722Y225678D01*
X-129770Y225698D01*
X-129784Y225864D01*
X-129563Y226986D01*
X-128363Y227225D01*
X-127081Y228081D01*
X-126225Y229363D01*
X-125924Y230875D01*
Y232250D01*
D02*
G37*
G36*
X-151251Y226556D02*
X-152948Y226333D01*
X-154529Y225678D01*
X-155887Y224636D01*
X-156929Y223278D01*
X-157584Y221697D01*
X-157807Y220000D01*
X-157584Y218303D01*
X-156929Y216722D01*
X-155887Y215364D01*
X-154529Y214322D01*
X-152948Y213667D01*
X-151251Y213444D01*
X-149554Y213667D01*
X-147973Y214322D01*
X-146615Y215364D01*
X-145573Y216722D01*
X-144918Y218303D01*
X-144695Y220000D01*
X-144918Y221697D01*
X-145573Y223278D01*
X-146615Y224636D01*
X-147973Y225678D01*
X-149554Y226333D01*
X-151251Y226556D01*
D02*
G37*
G36*
X-165000Y209078D02*
X-167349Y208768D01*
X-169539Y207861D01*
X-171419Y206419D01*
X-172861Y204539D01*
X-173768Y202349D01*
X-174078Y200000D01*
Y192500D01*
Y185000D01*
X-173768Y182651D01*
X-172861Y180461D01*
X-171419Y178581D01*
X-169539Y177139D01*
X-167349Y176232D01*
X-165000Y175922D01*
X-162651Y176232D01*
X-160461Y177139D01*
X-158581Y178581D01*
X-157139Y180461D01*
X-156232Y182651D01*
X-155922Y185000D01*
Y192500D01*
Y200000D01*
X-156232Y202349D01*
X-157139Y204539D01*
X-158581Y206419D01*
X-160461Y207861D01*
X-162651Y208768D01*
X-165000Y209078D01*
D02*
G37*
G36*
X-135875Y125826D02*
X-141125D01*
X-141507Y125750D01*
X-148493D01*
X-148875Y125826D01*
X-150250D01*
Y125750D01*
X-151000D01*
Y118750D01*
Y111750D01*
X-150250D01*
Y111674D01*
X-148875D01*
X-148493Y111750D01*
X-147270D01*
X-146465Y110768D01*
X-146617Y110000D01*
X-146152Y107659D01*
X-144826Y105674D01*
X-142841Y104348D01*
X-140500Y103883D01*
X-138159Y104348D01*
X-136174Y105674D01*
X-134848Y107659D01*
X-134382Y110000D01*
X-134519Y110688D01*
X-134363Y111975D01*
X-133081Y112831D01*
X-132225Y114113D01*
X-131924Y115625D01*
Y121875D01*
X-132225Y123387D01*
X-133081Y124669D01*
X-134363Y125525D01*
X-135875Y125826D01*
D02*
G37*
G36*
X-167500Y135118D02*
X-169841Y134652D01*
X-171826Y133326D01*
X-173152Y131341D01*
X-173617Y129000D01*
X-173152Y126659D01*
X-171826Y124674D01*
X-169841Y123348D01*
X-167500Y122882D01*
X-165159Y123348D01*
X-163174Y124674D01*
X-161848Y126659D01*
X-161383Y129000D01*
X-161848Y131341D01*
X-163174Y133326D01*
X-165159Y134652D01*
X-167500Y135118D01*
D02*
G37*
G36*
X-152750Y125826D02*
X-154125D01*
X-155637Y125525D01*
X-156919Y124669D01*
X-157775Y123387D01*
X-158076Y121875D01*
Y120000D01*
X-152750D01*
Y125826D01*
D02*
G37*
G36*
Y117500D02*
X-158076D01*
Y115625D01*
X-157775Y114113D01*
X-156919Y112831D01*
X-155637Y111975D01*
X-154125Y111674D01*
X-152750D01*
Y117500D01*
D02*
G37*
G36*
X-281250Y115168D02*
X-283591Y114702D01*
X-285576Y113376D01*
X-286902Y111391D01*
X-287368Y109050D01*
X-286902Y106709D01*
X-285576Y104724D01*
X-283591Y103398D01*
X-281250Y102933D01*
X-278909Y103398D01*
X-276924Y104724D01*
X-275598Y106709D01*
X-275133Y109050D01*
X-275598Y111391D01*
X-276924Y113376D01*
X-278909Y114702D01*
X-281250Y115168D01*
D02*
G37*
G36*
X-157500Y89560D02*
X-159327Y89320D01*
X-161030Y88615D01*
X-162492Y87492D01*
X-162508D01*
X-163970Y88615D01*
X-165673Y89320D01*
X-167500Y89560D01*
X-169327Y89320D01*
X-171030Y88615D01*
X-172492Y87492D01*
X-173615Y86030D01*
X-174320Y84327D01*
X-174560Y82500D01*
X-174320Y80673D01*
X-173615Y78970D01*
X-172492Y77508D01*
X-171030Y76385D01*
X-169327Y75680D01*
X-167500Y75440D01*
X-165673Y75680D01*
X-163970Y76385D01*
X-162508Y77508D01*
X-162492D01*
X-161030Y76385D01*
X-159327Y75680D01*
X-157500Y75440D01*
X-155673Y75680D01*
X-153970Y76385D01*
X-152507Y77508D01*
X-151385Y78970D01*
X-150680Y80673D01*
X-150440Y82500D01*
X-150680Y84327D01*
X-151385Y86030D01*
X-152507Y87492D01*
X-153970Y88615D01*
X-155673Y89320D01*
X-157500Y89560D01*
D02*
G37*
G36*
X-231250Y89768D02*
X-233591Y89302D01*
X-235576Y87976D01*
X-236902Y85991D01*
X-237367Y83650D01*
X-236902Y81309D01*
X-235576Y79324D01*
X-233591Y77998D01*
X-231250Y77533D01*
X-228909Y77998D01*
X-226924Y79324D01*
X-225598Y81309D01*
X-225133Y83650D01*
X-225598Y85991D01*
X-226924Y87976D01*
X-228909Y89302D01*
X-231250Y89768D01*
D02*
G37*
G36*
X-188250Y48076D02*
X-189625D01*
X-191137Y47775D01*
X-192419Y46919D01*
X-193275Y45637D01*
X-193576Y44125D01*
Y42250D01*
X-188250D01*
Y48076D01*
D02*
G37*
G36*
X-260000Y64056D02*
X-261697Y63833D01*
X-263278Y63178D01*
X-264636Y62136D01*
X-270886Y55886D01*
X-271928Y54528D01*
X-272583Y52947D01*
X-272806Y51250D01*
Y30000D01*
X-272583Y28303D01*
X-271928Y26722D01*
X-270886Y25364D01*
X-269528Y24322D01*
X-267947Y23667D01*
X-266250Y23444D01*
X-264553Y23667D01*
X-262972Y24322D01*
X-261614Y25364D01*
X-260572Y26722D01*
X-259917Y28303D01*
X-259694Y30000D01*
Y48534D01*
X-255364Y52864D01*
X-254322Y54222D01*
X-253667Y55803D01*
X-253444Y57500D01*
X-253667Y59197D01*
X-254051Y60123D01*
X-254322Y60778D01*
X-255364Y62136D01*
X-256722Y63178D01*
X-258303Y63833D01*
X-260000Y64056D01*
D02*
G37*
G36*
X-219174Y11750D02*
X-225000D01*
Y6424D01*
X-223125D01*
X-221613Y6725D01*
X-220331Y7582D01*
X-219475Y8863D01*
X-219174Y10375D01*
Y11750D01*
D02*
G37*
G36*
X-230753Y52549D02*
X-241747D01*
X-242723Y52355D01*
X-243642Y51974D01*
X-244469Y51422D01*
X-245172Y50718D01*
X-245172Y50718D01*
X-245724Y49892D01*
X-246105Y48973D01*
X-246299Y47997D01*
Y37003D01*
X-246105Y36027D01*
X-245724Y35108D01*
X-245172Y34281D01*
X-244786Y33896D01*
X-245229Y32643D01*
X-245243Y32626D01*
X-248125D01*
X-249637Y32325D01*
X-250919Y31469D01*
X-251775Y30187D01*
X-252076Y28675D01*
Y25550D01*
X-252500D01*
Y13550D01*
X-252076D01*
Y10425D01*
X-251775Y8913D01*
X-250919Y7631D01*
X-249637Y6775D01*
X-248125Y6474D01*
X-241875D01*
X-240363Y6775D01*
X-239467Y7374D01*
X-237500Y6983D01*
X-235159Y7448D01*
X-234083Y8167D01*
X-232364Y7874D01*
X-232169Y7582D01*
X-230887Y6725D01*
X-229375Y6424D01*
X-227500D01*
Y13000D01*
X-226250D01*
Y13500D01*
X-219250D01*
Y14250D01*
X-219174D01*
Y15625D01*
X-219250Y16007D01*
Y22994D01*
X-219174Y23375D01*
Y28625D01*
X-219475Y30137D01*
X-220331Y31419D01*
X-221613Y32275D01*
X-223125Y32576D01*
X-227290D01*
X-227449Y32791D01*
X-227764Y33846D01*
X-227328Y34281D01*
X-227328Y34281D01*
X-226776Y35108D01*
X-226395Y36027D01*
X-226201Y37003D01*
Y47997D01*
X-226395Y48973D01*
X-226776Y49892D01*
X-227328Y50718D01*
X-228031Y51422D01*
X-228032Y51422D01*
X-228858Y51974D01*
X-229777Y52355D01*
X-230753Y52549D01*
D02*
G37*
G36*
X-201283Y6518D02*
X-203717D01*
X-205965Y5586D01*
X-207686Y3865D01*
X-208617Y1617D01*
Y-20126D01*
X-209888Y-20804D01*
X-210706Y-20257D01*
X-212437Y-19913D01*
X-218750D01*
Y-28750D01*
X-220000D01*
Y-30000D01*
X-232087D01*
Y-33063D01*
X-232000Y-33499D01*
Y-45546D01*
X-232786Y-45900D01*
X-233270Y-46010D01*
X-235159Y-44748D01*
X-237500Y-44282D01*
X-239841Y-44748D01*
X-241826Y-46074D01*
X-243152Y-48059D01*
X-243617Y-50400D01*
X-243152Y-52741D01*
X-241826Y-54726D01*
X-239841Y-56052D01*
X-237844Y-56449D01*
X-232087Y-59196D01*
Y-63063D01*
X-231742Y-64794D01*
X-230762Y-66262D01*
X-229294Y-67242D01*
X-227562Y-67587D01*
X-212437D01*
X-210706Y-67242D01*
X-209238Y-66262D01*
X-208257Y-64794D01*
X-207913Y-63063D01*
Y-55384D01*
X-207370Y-55055D01*
X-206643Y-54848D01*
X-204841Y-56052D01*
X-202500Y-56518D01*
X-200159Y-56052D01*
X-198174Y-54726D01*
X-196848Y-52741D01*
X-196383Y-50400D01*
X-196848Y-48059D01*
X-198174Y-46074D01*
X-200159Y-44748D01*
X-202500Y-44282D01*
X-204841Y-44748D01*
X-206730Y-46010D01*
X-207978Y-45725D01*
X-208000Y-45718D01*
Y-33500D01*
X-207913Y-33063D01*
Y-30034D01*
X-206643Y-29508D01*
X-205965Y-30186D01*
X-203717Y-31117D01*
X-201283D01*
X-199035Y-30186D01*
X-197314Y-28465D01*
X-196382Y-26217D01*
Y1617D01*
X-196848Y2741D01*
X-196848Y2741D01*
X-196848Y2741D01*
X-197314Y3865D01*
X-198174Y4726D01*
X-198174Y4726D01*
X-198174Y4726D01*
X-199035Y5586D01*
X-200159Y6052D01*
X-200159Y6052D01*
X-200159Y6052D01*
X-201283Y6518D01*
D02*
G37*
G36*
X-221250Y-19913D02*
X-227562D01*
X-229294Y-20257D01*
X-230762Y-21238D01*
X-231742Y-22706D01*
X-232087Y-24437D01*
Y-27500D01*
X-221250D01*
Y-19913D01*
D02*
G37*
G36*
X-188250Y-38950D02*
X-193576D01*
Y-40825D01*
X-193275Y-42337D01*
X-192418Y-43619D01*
X-191137Y-44475D01*
X-189625Y-44776D01*
X-188250D01*
Y-38950D01*
D02*
G37*
G36*
X-140000Y-56982D02*
X-142341Y-57448D01*
X-144326Y-58774D01*
X-145652Y-60759D01*
X-146117Y-63100D01*
X-145652Y-65441D01*
X-144326Y-67426D01*
X-142341Y-68752D01*
X-140000Y-69218D01*
X-137659Y-68752D01*
X-135674Y-67426D01*
X-134348Y-65441D01*
X-133883Y-63100D01*
X-134348Y-60759D01*
X-135674Y-58774D01*
X-137659Y-57448D01*
X-140000Y-56982D01*
D02*
G37*
G36*
X-162500Y-69682D02*
X-164841Y-70148D01*
X-166826Y-71474D01*
X-168152Y-73459D01*
X-168617Y-75800D01*
X-168152Y-78141D01*
X-166826Y-80126D01*
X-164841Y-81452D01*
X-162500Y-81917D01*
X-160159Y-81452D01*
X-158174Y-80126D01*
X-156848Y-78141D01*
X-156383Y-75800D01*
X-156848Y-73459D01*
X-158174Y-71474D01*
X-160159Y-70148D01*
X-162500Y-69682D01*
D02*
G37*
G36*
X-237500D02*
X-239841Y-70148D01*
X-241826Y-71474D01*
X-243152Y-73459D01*
X-243617Y-75800D01*
X-243152Y-78141D01*
X-241826Y-80126D01*
X-239841Y-81452D01*
X-237500Y-81917D01*
X-235159Y-81452D01*
X-233174Y-80126D01*
X-231848Y-78141D01*
X-231383Y-75800D01*
X-231848Y-73459D01*
X-233174Y-71474D01*
X-235159Y-70148D01*
X-237500Y-69682D01*
D02*
G37*
G36*
X-266250Y-57194D02*
X-267947Y-57417D01*
X-269528Y-58072D01*
X-270886Y-59114D01*
X-271928Y-60472D01*
X-272583Y-62053D01*
X-272806Y-63750D01*
Y-76250D01*
X-272583Y-77947D01*
X-271928Y-79528D01*
X-270886Y-80886D01*
X-269528Y-81928D01*
X-267947Y-82583D01*
X-266250Y-82806D01*
X-264553Y-82583D01*
X-262972Y-81928D01*
X-261614Y-80886D01*
X-260572Y-79528D01*
X-259917Y-77947D01*
X-259694Y-76250D01*
Y-63750D01*
X-259917Y-62053D01*
X-260572Y-60472D01*
X-261614Y-59114D01*
X-262972Y-58072D01*
X-264553Y-57417D01*
X-266250Y-57194D01*
D02*
G37*
G36*
X-128750Y-77632D02*
X-131091Y-78098D01*
X-133076Y-79424D01*
X-134402Y-81409D01*
X-134867Y-83750D01*
X-134402Y-86091D01*
X-133076Y-88076D01*
X-131091Y-89402D01*
X-128750Y-89867D01*
X-126409Y-89402D01*
X-124424Y-88076D01*
X-123098Y-86091D01*
X-122633Y-83750D01*
X-123098Y-81409D01*
X-124424Y-79424D01*
X-126409Y-78098D01*
X-128750Y-77632D01*
D02*
G37*
G36*
X-93004Y-93701D02*
X-104496D01*
X-105471Y-93895D01*
X-106850Y-94466D01*
X-107677Y-95019D01*
X-108731Y-96073D01*
X-108731Y-96073D01*
X-109284Y-96900D01*
X-109511Y-97448D01*
X-109652Y-97659D01*
X-109701Y-97907D01*
X-109855Y-98279D01*
X-110049Y-99254D01*
Y-99656D01*
X-110117Y-100000D01*
X-110049Y-100344D01*
Y-109656D01*
X-110117Y-110000D01*
X-110049Y-110344D01*
Y-110746D01*
X-109855Y-111721D01*
X-109701Y-112093D01*
X-109652Y-112341D01*
X-109511Y-112552D01*
X-109284Y-113100D01*
X-108731Y-113927D01*
X-107677Y-114981D01*
X-107677Y-114981D01*
X-106850Y-115534D01*
X-105471Y-116105D01*
X-104496Y-116299D01*
X-99608D01*
Y-149364D01*
X-100275Y-150363D01*
X-100576Y-151875D01*
Y-158125D01*
X-100275Y-159637D01*
X-99419Y-160919D01*
X-98137Y-161775D01*
X-97748Y-161853D01*
Y-163147D01*
X-98137Y-163225D01*
X-99419Y-164081D01*
X-100275Y-165363D01*
X-90000D01*
Y-177500D01*
X-81500D01*
Y-177076D01*
X-78375D01*
X-76863Y-176775D01*
X-75581Y-175919D01*
X-75538Y-175853D01*
X-73800Y-175513D01*
X-73591Y-175652D01*
X-71250Y-176117D01*
X-68909Y-175652D01*
X-66924Y-174326D01*
X-65598Y-172341D01*
X-65132Y-170000D01*
X-65598Y-167659D01*
X-66924Y-165674D01*
X-68909Y-164348D01*
X-71250Y-163883D01*
X-73591Y-164348D01*
X-73800Y-164487D01*
X-75538Y-164147D01*
X-75581Y-164081D01*
X-76157Y-163697D01*
Y-161303D01*
X-75581Y-160919D01*
X-74725Y-159637D01*
X-74424Y-158125D01*
Y-151875D01*
X-74725Y-150363D01*
X-75581Y-149081D01*
X-76863Y-148225D01*
X-78375Y-147924D01*
X-81500D01*
Y-147500D01*
X-88392D01*
Y-113363D01*
X-88216Y-113100D01*
X-87645Y-111721D01*
X-87451Y-110746D01*
Y-99254D01*
X-87645Y-98279D01*
X-88216Y-96900D01*
X-88769Y-96073D01*
X-89823Y-95019D01*
X-90650Y-94466D01*
X-92029Y-93895D01*
X-93004Y-93701D01*
D02*
G37*
G36*
X-211504Y-93701D02*
X-222996D01*
X-222996Y-93701D01*
X-223246D01*
X-224221Y-93895D01*
X-225600Y-94466D01*
X-226427Y-95019D01*
X-227481Y-96073D01*
X-227481Y-96073D01*
X-228034Y-96900D01*
X-228605Y-98279D01*
X-228799Y-99254D01*
Y-110746D01*
X-228605Y-111721D01*
X-228034Y-113100D01*
X-227481Y-113927D01*
X-226427Y-114981D01*
X-226427Y-114981D01*
X-225600Y-115534D01*
X-224221Y-116105D01*
X-223246Y-116299D01*
X-217108D01*
Y-149364D01*
X-217775Y-150363D01*
X-218076Y-151875D01*
Y-158125D01*
X-217775Y-159637D01*
X-216919Y-160919D01*
X-215637Y-161775D01*
X-215248Y-161853D01*
Y-163147D01*
X-215637Y-163225D01*
X-216919Y-164081D01*
X-217775Y-165363D01*
X-207500D01*
Y-177500D01*
X-199000D01*
Y-177076D01*
X-195875D01*
X-194363Y-176775D01*
X-193081Y-175919D01*
X-193038Y-175853D01*
X-191300Y-175513D01*
X-191091Y-175652D01*
X-188750Y-176117D01*
X-186409Y-175652D01*
X-184424Y-174326D01*
X-183098Y-172341D01*
X-182633Y-170000D01*
X-183098Y-167659D01*
X-184424Y-165674D01*
X-186409Y-164348D01*
X-188750Y-163883D01*
X-191091Y-164348D01*
X-191300Y-164487D01*
X-193038Y-164147D01*
X-193081Y-164081D01*
X-193657Y-163697D01*
Y-161303D01*
X-193081Y-160919D01*
X-192225Y-159637D01*
X-191924Y-158125D01*
Y-151875D01*
X-192225Y-150363D01*
X-193081Y-149081D01*
X-194363Y-148225D01*
X-195875Y-147924D01*
X-199000D01*
Y-147500D01*
X-205892D01*
Y-110000D01*
X-205951Y-109703D01*
Y-99254D01*
X-206145Y-98279D01*
X-206716Y-96900D01*
X-207269Y-96073D01*
X-208323Y-95019D01*
X-209151Y-94466D01*
X-210529Y-93895D01*
X-211504Y-93701D01*
D02*
G37*
G36*
X-81500Y-182500D02*
X-90000D01*
Y-197500D01*
X-81500D01*
Y-197076D01*
X-78375D01*
X-77966Y-196995D01*
X-77717Y-197150D01*
X-76989Y-198095D01*
X-77186Y-199087D01*
X-90756Y-212657D01*
X-98948D01*
X-100159Y-211848D01*
X-102500Y-211383D01*
X-104841Y-211848D01*
X-106826Y-213174D01*
X-108152Y-215159D01*
X-108618Y-217500D01*
X-108152Y-219841D01*
X-106826Y-221826D01*
X-104841Y-223152D01*
X-102500Y-223617D01*
X-100159Y-223152D01*
X-98948Y-222343D01*
X-88750D01*
X-86897Y-221974D01*
X-85325Y-220925D01*
X-70337Y-205936D01*
X-68909Y-205652D01*
X-66924Y-204326D01*
X-65598Y-202341D01*
X-65132Y-200000D01*
X-65598Y-197659D01*
X-66842Y-195798D01*
X-66983Y-195362D01*
Y-194638D01*
X-66842Y-194202D01*
X-65598Y-192341D01*
X-65132Y-190000D01*
X-65598Y-187659D01*
X-66924Y-185674D01*
X-68909Y-184348D01*
X-71250Y-183883D01*
X-73591Y-184348D01*
X-73800Y-184487D01*
X-75538Y-184147D01*
X-75581Y-184081D01*
X-76863Y-183225D01*
X-78375Y-182924D01*
X-81500D01*
Y-182500D01*
D02*
G37*
G36*
X-199000D02*
X-207500D01*
Y-197500D01*
X-199000D01*
Y-197076D01*
X-195875D01*
X-195466Y-196994D01*
X-195217Y-197150D01*
X-194489Y-198095D01*
X-194686Y-199087D01*
X-208256Y-212657D01*
X-216448D01*
X-217659Y-211848D01*
X-220000Y-211383D01*
X-222341Y-211848D01*
X-224326Y-213174D01*
X-225652Y-215159D01*
X-226118Y-217500D01*
X-225652Y-219841D01*
X-224326Y-221826D01*
X-222341Y-223152D01*
X-220000Y-223617D01*
X-217659Y-223152D01*
X-216448Y-222343D01*
X-206250D01*
X-204397Y-221974D01*
X-202826Y-220925D01*
X-187837Y-205936D01*
X-186409Y-205652D01*
X-184424Y-204326D01*
X-183098Y-202341D01*
X-182633Y-200000D01*
X-183098Y-197659D01*
X-184342Y-195798D01*
X-184483Y-195362D01*
Y-194638D01*
X-184342Y-194202D01*
X-183098Y-192341D01*
X-182633Y-190000D01*
X-183098Y-187659D01*
X-184424Y-185674D01*
X-186409Y-184348D01*
X-188750Y-183883D01*
X-191091Y-184348D01*
X-191300Y-184487D01*
X-193038Y-184147D01*
X-193081Y-184081D01*
X-194363Y-183225D01*
X-195875Y-182924D01*
X-199000D01*
Y-182500D01*
D02*
G37*
G36*
X-142500Y-205922D02*
X-172500D01*
X-174849Y-206232D01*
X-177039Y-207139D01*
X-178919Y-208581D01*
X-180361Y-210461D01*
X-181268Y-212651D01*
X-181578Y-215000D01*
X-181268Y-217349D01*
X-180361Y-219539D01*
X-178919Y-221419D01*
X-177039Y-222861D01*
X-174849Y-223768D01*
X-172500Y-224078D01*
X-142500D01*
X-140150Y-223768D01*
X-137961Y-222861D01*
X-136081Y-221419D01*
X-134639Y-219539D01*
X-133732Y-217349D01*
X-133422Y-215000D01*
X-133732Y-212651D01*
X-134639Y-210461D01*
X-136081Y-208581D01*
X-137961Y-207139D01*
X-140150Y-206232D01*
X-142500Y-205922D01*
D02*
G37*
G36*
X-260000D02*
X-280000D01*
X-282349Y-206232D01*
X-284539Y-207139D01*
X-286419Y-208581D01*
X-287861Y-210461D01*
X-288768Y-212651D01*
X-289078Y-215000D01*
X-288768Y-217349D01*
X-287861Y-219539D01*
X-286419Y-221419D01*
X-284539Y-222861D01*
X-282349Y-223768D01*
X-280000Y-224078D01*
X-260000D01*
X-257651Y-223768D01*
X-255461Y-222861D01*
X-253581Y-221419D01*
X-252139Y-219539D01*
X-251232Y-217349D01*
X-250922Y-215000D01*
X-251232Y-212651D01*
X-252139Y-210461D01*
X-253581Y-208581D01*
X-255461Y-207139D01*
X-257651Y-206232D01*
X-260000Y-205922D01*
D02*
G37*
G36*
X-87500Y-268382D02*
X-89841Y-268847D01*
X-91826Y-270173D01*
X-93152Y-272158D01*
X-93617Y-274499D01*
X-93152Y-276840D01*
X-91826Y-278825D01*
X-89841Y-280151D01*
X-87500Y-280617D01*
X-85159Y-280151D01*
X-83174Y-278825D01*
X-81848Y-276840D01*
X-81382Y-274499D01*
X-81848Y-272158D01*
X-83174Y-270173D01*
X-85159Y-268847D01*
X-87500Y-268382D01*
D02*
G37*
%LPD*%
G36*
X-229834Y49619D02*
X-229131Y48916D01*
X-228750Y47997D01*
Y47500D01*
Y37500D01*
Y37003D01*
X-229131Y36084D01*
X-229834Y35381D01*
X-230753Y35000D01*
X-241747D01*
X-242666Y35381D01*
X-243369Y36084D01*
X-243750Y37003D01*
Y37500D01*
Y47500D01*
Y47997D01*
X-243369Y48916D01*
X-242666Y49619D01*
X-241747Y50000D01*
X-230753D01*
X-229834Y49619D01*
D02*
G37*
G36*
X-91626Y-96821D02*
X-90571Y-97876D01*
X-90000Y-99254D01*
Y-100000D01*
Y-110000D01*
Y-110746D01*
X-90571Y-112124D01*
X-91626Y-113179D01*
X-93004Y-113750D01*
X-104496D01*
X-105874Y-113179D01*
X-106929Y-112124D01*
X-107500Y-110746D01*
Y-110000D01*
Y-100000D01*
Y-99254D01*
X-106929Y-97876D01*
X-105874Y-96821D01*
X-104496Y-96250D01*
X-93004D01*
X-91626Y-96821D01*
D02*
G37*
G36*
X-210126Y-96821D02*
X-209071Y-97876D01*
X-208500Y-99254D01*
Y-100000D01*
Y-110000D01*
Y-110746D01*
X-209071Y-112124D01*
X-210126Y-113179D01*
X-211504Y-113750D01*
X-211754D01*
X-211754Y-113750D01*
X-223246D01*
X-224624Y-113179D01*
X-225679Y-112124D01*
X-226250Y-110746D01*
Y-110000D01*
Y-100000D01*
Y-99254D01*
X-225679Y-97876D01*
X-224624Y-96821D01*
X-223246Y-96250D01*
X-222996D01*
X-222996Y-96250D01*
X-211504D01*
X-210126Y-96821D01*
D02*
G37*
%LPC*%
G36*
X281354Y-21250D02*
X278646D01*
X275989Y-21778D01*
X273487Y-22815D01*
X271235Y-24320D01*
X269320Y-26235D01*
X267815Y-28487D01*
X266778Y-30989D01*
X266250Y-33646D01*
Y-35000D01*
Y-66989D01*
X266538Y-68438D01*
X267104Y-69803D01*
X267924Y-71031D01*
X268969Y-72076D01*
X270197Y-72896D01*
X271562Y-73462D01*
X273011Y-73750D01*
X286989D01*
X288438Y-73462D01*
X289803Y-72896D01*
X291031Y-72076D01*
X292076Y-71031D01*
X292896Y-69803D01*
X293462Y-68438D01*
X293750Y-66989D01*
Y-35000D01*
Y-33646D01*
X293222Y-30989D01*
X292185Y-28487D01*
X290680Y-26235D01*
X288765Y-24320D01*
X286513Y-22815D01*
X284011Y-21778D01*
X281354Y-21250D01*
D02*
G37*
G36*
X238729Y-62550D02*
X236364Y-62872D01*
X234302Y-64074D01*
X232857Y-65974D01*
X230337Y-71142D01*
X255384Y-83359D01*
X260586Y-72692D01*
X241038Y-63158D01*
X238729Y-62550D01*
D02*
G37*
G36*
X229241Y-73389D02*
X226720Y-78557D01*
X226112Y-80866D01*
X226434Y-83231D01*
X227637Y-85293D01*
X229537Y-86737D01*
X249086Y-96272D01*
X254288Y-85605D01*
X229241Y-73389D01*
D02*
G37*
G36*
X262833Y-73788D02*
X257631Y-84454D01*
X282678Y-96671D01*
X285199Y-91503D01*
X285807Y-89194D01*
X285485Y-86829D01*
X284282Y-84768D01*
X282382Y-83323D01*
X262833Y-73788D01*
D02*
G37*
G36*
X256535Y-86701D02*
X251332Y-97368D01*
X270881Y-106903D01*
X273190Y-107510D01*
X275555Y-107189D01*
X277617Y-105986D01*
X279062Y-104086D01*
X281582Y-98918D01*
X256535Y-86701D01*
D02*
G37*
G36*
X299112Y-103181D02*
X296422Y-103281D01*
X293547Y-103964D01*
X290861Y-105196D01*
X288680Y-106773D01*
X295692Y-110193D01*
X299112Y-103181D01*
D02*
G37*
G36*
X309897Y-108442D02*
X306478Y-115453D01*
X313489Y-118873D01*
X313389Y-116183D01*
X312706Y-113309D01*
X311475Y-110623D01*
X309897Y-108442D01*
D02*
G37*
G36*
X283420Y-117559D02*
X283520Y-120248D01*
X284203Y-123123D01*
X285434Y-125809D01*
X287012Y-127990D01*
X290432Y-120978D01*
X283420Y-117559D01*
D02*
G37*
G36*
X301217Y-126239D02*
X297797Y-133251D01*
X300487Y-133151D01*
X303362Y-132467D01*
X306048Y-131236D01*
X308229Y-129659D01*
X301217Y-126239D01*
D02*
G37*
G36*
X348546Y-127292D02*
X345856Y-127391D01*
X342981Y-128075D01*
X340295Y-129306D01*
X338114Y-130884D01*
X345126Y-134303D01*
X348546Y-127292D01*
D02*
G37*
G36*
X332854Y-141669D02*
X332953Y-144359D01*
X333637Y-147233D01*
X334868Y-149920D01*
X336446Y-152100D01*
X339865Y-145089D01*
X332854Y-141669D01*
D02*
G37*
G36*
X284032Y-134629D02*
X281079Y-134739D01*
X278204Y-135422D01*
X275518Y-136653D01*
X273124Y-138385D01*
X271114Y-140550D01*
X269565Y-143066D01*
X268536Y-145836D01*
X268067Y-148753D01*
X268177Y-151706D01*
X268860Y-154581D01*
X270091Y-157267D01*
X271823Y-159661D01*
X273988Y-161671D01*
X276504Y-163221D01*
X279274Y-164249D01*
X282192Y-164718D01*
X285144Y-164608D01*
X288019Y-163925D01*
X290705Y-162694D01*
X293099Y-160962D01*
X295110Y-158797D01*
X296659Y-156281D01*
X297688Y-153511D01*
X298156Y-150594D01*
X298047Y-147641D01*
X297363Y-144766D01*
X296132Y-142080D01*
X294400Y-139686D01*
X292235Y-137676D01*
X289719Y-136126D01*
X286949Y-135098D01*
X284032Y-134629D01*
D02*
G37*
G36*
X260721Y-172748D02*
X257767Y-172819D01*
X254884Y-173465D01*
X252422Y-174554D01*
X258570Y-179357D01*
X263373Y-173210D01*
X260721Y-172748D01*
D02*
G37*
G36*
X272829Y-180597D02*
X268026Y-186745D01*
X274173Y-191548D01*
X274635Y-188896D01*
X274564Y-185942D01*
X273918Y-183059D01*
X272829Y-180597D01*
D02*
G37*
G36*
X245034Y-184010D02*
X244573Y-186662D01*
X244643Y-189616D01*
X245289Y-192499D01*
X246379Y-194961D01*
X251182Y-188813D01*
X245034Y-184010D01*
D02*
G37*
G36*
X260638Y-196201D02*
X255835Y-202348D01*
X258487Y-202810D01*
X261441Y-202739D01*
X264324Y-202093D01*
X266785Y-201004D01*
X260638Y-196201D01*
D02*
G37*
G36*
X304061Y-206609D02*
X301108Y-206680D01*
X298224Y-207326D01*
X295763Y-208416D01*
X301910Y-213218D01*
X306713Y-207071D01*
X304061Y-206609D01*
D02*
G37*
G36*
X288375Y-217871D02*
X287913Y-220523D01*
X287984Y-223477D01*
X288630Y-226361D01*
X289720Y-228822D01*
X294522Y-222675D01*
X288375Y-217871D01*
D02*
G37*
G36*
X239173Y-200328D02*
X236219Y-200399D01*
X233335Y-201045D01*
X230634Y-202241D01*
X228217Y-203941D01*
X226178Y-206080D01*
X224596Y-208575D01*
X223531Y-211331D01*
X223025Y-214242D01*
X223095Y-217196D01*
X223741Y-220080D01*
X224937Y-222782D01*
X226637Y-225198D01*
X228776Y-227237D01*
X231271Y-228819D01*
X234028Y-229884D01*
X236939Y-230390D01*
X239893Y-230320D01*
X242776Y-229674D01*
X245478Y-228478D01*
X247894Y-226778D01*
X249933Y-224639D01*
X251515Y-222143D01*
X252580Y-219387D01*
X253087Y-216476D01*
X253016Y-213522D01*
X252370Y-210639D01*
X251174Y-207937D01*
X249474Y-205521D01*
X247335Y-203482D01*
X244840Y-201900D01*
X242084Y-200835D01*
X239173Y-200328D01*
D02*
G37*
G36*
X44500Y-207633D02*
X42159Y-208098D01*
X40174Y-209424D01*
X38848Y-211409D01*
X38382Y-213750D01*
X38848Y-216091D01*
X40174Y-218076D01*
X42159Y-219402D01*
X44500Y-219867D01*
X46841Y-219402D01*
X48826Y-218076D01*
X50152Y-216091D01*
X50618Y-213750D01*
X50152Y-211409D01*
X48826Y-209424D01*
X46841Y-208098D01*
X44500Y-207633D01*
D02*
G37*
%LPD*%
D10*
X350000Y-420000D02*
G03*
X350000Y-420000I-10000J0D01*
G01*
X-330000Y420000D02*
G03*
X-330000Y420000I-10000J0D01*
G01*
X-350000Y-430000D02*
X-330000D01*
X-350000D02*
Y-410000D01*
X-330000Y-430000D02*
Y-410000D01*
X-350000D02*
X-330000D01*
X330000Y430000D02*
X350000D01*
Y410000D02*
Y430000D01*
X330000Y410000D02*
Y430000D01*
Y410000D02*
X350000D01*
X-202500Y25800D02*
X-195000Y33300D01*
X-114200D01*
X-107500Y40000D01*
X-162500Y41000D02*
X-119000D01*
X-52500Y138500D02*
X-29000D01*
X-25000Y142500D01*
Y150000D01*
X-26750Y151750D02*
X-25000Y150000D01*
X-83250Y151750D02*
X-26750D01*
X-119000Y41000D02*
X-72500Y87500D01*
X-86250Y148750D02*
X-83250Y151750D01*
X-72500Y87500D02*
Y107500D01*
X-86250Y121250D02*
Y148750D01*
Y121250D02*
X-72500Y107500D01*
D11*
X-219116Y-216616D02*
G03*
X-216982Y-217500I2134J2134D01*
G01*
D02*
G03*
X-219116Y-218384I0J-3018D01*
G01*
X-188750Y-201250D02*
G03*
X-190884Y-202134I0J-3018D01*
G01*
D02*
G03*
X-190000Y-200000I-2134J2134D01*
G01*
X-189634Y-190884D02*
G03*
X-191768Y-190000I-2134J-2134D01*
G01*
D02*
G03*
X-189634Y-189116I0J3018D01*
G01*
Y-170884D02*
G03*
X-191768Y-170000I-2134J-2134D01*
G01*
D02*
G03*
X-189634Y-169116I0J3018D01*
G01*
X-72134Y-170884D02*
G03*
X-74268Y-170000I-2134J-2134D01*
G01*
D02*
G03*
X-72134Y-169116I0J3018D01*
G01*
Y-190884D02*
G03*
X-74268Y-190000I-2134J-2134D01*
G01*
D02*
G03*
X-72134Y-189116I0J3018D01*
G01*
X-71250Y-201250D02*
G03*
X-73384Y-202134I0J-3018D01*
G01*
D02*
G03*
X-72500Y-200000I-2134J2134D01*
G01*
X-101616Y-216616D02*
G03*
X-99482Y-217500I2134J2134D01*
G01*
D02*
G03*
X-101616Y-218384I0J-3018D01*
G01*
X-198500Y-170000D02*
Y-155000D01*
Y-170000D02*
X-188750D01*
X-198500Y-190000D02*
X-188750D01*
X-220000Y-217500D02*
X-206250D01*
X-188750Y-200000D01*
X-102500Y-217500D02*
X-88750D01*
X-71250Y-200000D01*
X-81000Y-190000D02*
X-71250D01*
X-81000Y-170000D02*
Y-155000D01*
Y-170000D02*
X-71250D01*
D12*
X-119268Y321732D02*
G03*
X-123535Y323500I-4268J-4268D01*
G01*
D02*
G03*
X-119268Y325268I0J6036D01*
G01*
Y276732D02*
G03*
X-123535Y278500I-4268J-4268D01*
G01*
D02*
G03*
X-119268Y280268I0J6036D01*
G01*
X-211500Y-113622D02*
G03*
X-212854Y-110353I-4622J0D01*
G01*
X86793Y-217207D02*
G03*
X81467Y-215001I-5326J-5326D01*
G01*
X-166250Y233750D02*
G03*
X-166000Y233500I250J0D01*
G01*
X-170000Y278750D02*
G03*
X-169750Y278500I250J0D01*
G01*
X-52500Y225000D02*
Y232500D01*
Y225000D02*
X-51500D01*
X72500Y-215001D02*
X86250D01*
X58750D02*
X72500D01*
Y-203750D01*
X87500Y-216500D02*
X102500D01*
X118750D01*
X102500D02*
Y-200000D01*
X-117500Y278500D02*
X-115000D01*
X-133000D02*
X-117500D01*
X-133000Y233500D02*
X-117500D01*
X-237500Y-37700D02*
X-220000Y-28750D01*
X-237500Y-50400D02*
X-220000Y-58750D01*
X-245000Y13050D02*
X-237500Y13100D01*
X-245000Y26050D02*
X-237500Y26000D01*
X-174000Y-25000D02*
X-162500D01*
X-174000Y-12300D02*
X-162500D01*
X-174000Y400D02*
X-162500D01*
X-174000Y13100D02*
X-162500D01*
X-174000Y25800D02*
X-162500D01*
X105000Y-5000D02*
Y1500D01*
X165000Y-5000D02*
Y1500D01*
X218450Y202500D02*
Y215155D01*
X148450Y202500D02*
Y215155D01*
X78450Y202500D02*
Y215155D01*
Y102500D02*
Y115155D01*
X148450Y102500D02*
Y115155D01*
X218450Y102500D02*
Y115155D01*
X-94000Y-155000D02*
Y-110000D01*
X-211500Y-155000D02*
Y-110000D01*
Y-200000D02*
X-210000D01*
X-241000Y-170000D02*
X-211500D01*
X-211000D01*
X-133000Y291500D02*
Y302500D01*
Y246500D02*
Y257500D01*
X-147500Y337465D02*
X-133000Y336500D01*
Y323500D02*
X-117500D01*
X-167500D02*
X-133000D01*
X-237500Y26000D02*
X-226250D01*
X15000Y197250D02*
X15000Y197250D01*
X15000Y171250D02*
X15000Y171250D01*
X15000Y184250D02*
X15000Y184250D01*
X15000Y158250D02*
X15000Y158250D01*
X15000Y132250D02*
X15000Y132250D01*
X15000Y145250D02*
X15000Y145250D01*
Y197250D02*
X26000D01*
X15000Y171250D02*
X26000D01*
X15000Y184250D02*
X26000D01*
X15000Y158250D02*
X26000D01*
X15000Y132250D02*
X26000D01*
X15000Y145250D02*
X26000D01*
X-174000Y41000D02*
X-162500D01*
Y13100D02*
X-132500D01*
X-162500Y-12300D02*
X-132500D01*
X-105000Y190000D02*
X-95000Y200000D01*
X-105000Y117500D02*
Y190000D01*
Y117500D02*
X-92500Y105000D01*
X-95000Y200000D02*
X-38500D01*
Y203750D01*
X-174000Y-37700D02*
X-162500D01*
X-174000Y-37700D02*
Y-37700D01*
X-7000Y275000D02*
Y345000D01*
X105000Y-5000D02*
X165000D01*
X-211500Y-200000D02*
Y-190000D01*
Y-170000D01*
X-166000Y233500D02*
X-133000D01*
X-169750Y278500D02*
X-133000D01*
X-94000Y-200000D02*
Y-170000D01*
D13*
X131793Y350707D02*
G03*
X125000Y334308I16400J-16400D01*
G01*
X132307Y350981D02*
G03*
X125000Y342094I1751J-8887D01*
G01*
X-206588Y-244500D02*
G03*
X-211838Y-247962I0J-5712D01*
G01*
X-204568Y-244500D02*
G03*
X-211414Y-247336I0J-9682D01*
G01*
X280002Y-218499D02*
G03*
X263422Y-225366I0J-23447D01*
G01*
X9028Y-328750D02*
G03*
X-23400Y-351201I0J-34645D01*
G01*
X23472Y-328750D02*
G03*
X-14040Y-354720I0J-40076D01*
G01*
X37915Y-328750D02*
G03*
X-4680Y-358240I0J-45507D01*
G01*
X52359Y-328750D02*
G03*
X4680Y-361760I0J-50939D01*
G01*
X104331Y-351831D02*
G03*
X114972Y-356250I10669J10669D01*
G01*
D02*
G03*
X115000Y-356250I28J15089D01*
G01*
X140679Y-356250D02*
G03*
X248263Y-290356I-141929J352500D01*
G01*
X-18503Y114003D02*
G03*
X6250Y103750I24753J24753D01*
G01*
X37498Y95002D02*
G03*
X16376Y103750I-21122J-21127D01*
G01*
X41161Y91339D02*
G03*
X62500Y82500I21339J21339D01*
G01*
X277036Y249011D02*
X282500Y242501D01*
X289873Y248688D01*
X86000Y82500D02*
X105000Y101500D01*
X86000Y82500D02*
X105000Y63500D01*
X-206588Y-244500D02*
X-197500D01*
X-188412D01*
X-197500D02*
Y-228412D01*
X-67500Y345000D02*
X-52500D01*
Y246250D02*
Y280000D01*
Y292500D01*
Y322500D01*
Y345000D01*
X150000Y333500D02*
X158750D01*
X125000D02*
Y347500D01*
X91250Y333500D02*
Y347500D01*
X-117500Y323500D02*
Y333250D01*
X0Y-360000D02*
Y-328750D01*
X81250D01*
X114972Y-356250D02*
X140679D01*
X81250Y-328750D02*
X104331Y-351831D01*
X248263Y-290356D02*
X255607Y-275607D01*
X37498Y95002D02*
X41161Y91339D01*
X62500Y82500D02*
X86000D01*
X6250Y103750D02*
X16376D01*
X-23750Y119250D02*
X-18503Y114003D01*
X-117500Y278500D02*
Y288250D01*
Y323500D01*
Y243250D02*
Y278500D01*
X236894Y-251894D02*
X275000Y-213788D01*
X150000Y333500D02*
Y347500D01*
D14*
X-141055Y110832D02*
G03*
X-139670Y112900I-1804J2705D01*
G01*
X-140250Y110000D02*
X-138500Y118750D01*
X-151500Y105000D02*
Y118750D01*
D17*
X20000Y-185000D02*
D03*
Y-200000D02*
D03*
X5000D02*
D03*
Y-185000D02*
D03*
X-10000D02*
D03*
Y-200000D02*
D03*
X-25000D02*
D03*
Y-185000D02*
D03*
Y-170000D02*
D03*
X95000Y-50000D02*
D03*
X110000D02*
D03*
X95000Y-35000D02*
D03*
X110000D02*
D03*
Y-20000D02*
D03*
X95000D02*
D03*
X252500Y172500D02*
D03*
X242500D02*
D03*
X252500Y182500D02*
D03*
X242500D02*
D03*
X252500Y192500D02*
D03*
X242500D02*
D03*
X252500Y202500D02*
D03*
X242500D02*
D03*
X222500Y162500D02*
D03*
Y152500D02*
D03*
X242500Y142500D02*
D03*
X252500D02*
D03*
Y152500D02*
D03*
X242500D02*
D03*
X232500D02*
D03*
Y162500D02*
D03*
X242500D02*
D03*
X252500D02*
D03*
X182500Y172500D02*
D03*
X172500D02*
D03*
X182500Y182500D02*
D03*
X172500D02*
D03*
X182500Y192500D02*
D03*
X172500D02*
D03*
X182500Y202500D02*
D03*
X172500D02*
D03*
X182500Y212500D02*
D03*
X172500D02*
D03*
X152500Y162500D02*
D03*
Y152500D02*
D03*
X172500Y142500D02*
D03*
X182500D02*
D03*
Y152500D02*
D03*
X172500D02*
D03*
X162500D02*
D03*
Y162500D02*
D03*
X172500D02*
D03*
X182500D02*
D03*
X-100000Y-177500D02*
D03*
Y-187500D02*
D03*
Y-197500D02*
D03*
X-217500D02*
D03*
Y-187500D02*
D03*
Y-177500D02*
D03*
X100000Y272500D02*
D03*
Y262500D02*
D03*
Y252500D02*
D03*
X90000D02*
D03*
Y262500D02*
D03*
Y272500D02*
D03*
X120000D02*
D03*
Y262500D02*
D03*
Y252500D02*
D03*
X110000D02*
D03*
Y262500D02*
D03*
Y272500D02*
D03*
X162500D02*
D03*
Y262500D02*
D03*
Y252500D02*
D03*
X152500D02*
D03*
Y262500D02*
D03*
Y272500D02*
D03*
X182500D02*
D03*
Y262500D02*
D03*
Y252500D02*
D03*
X172500D02*
D03*
Y262500D02*
D03*
Y272500D02*
D03*
X231250D02*
D03*
Y262500D02*
D03*
Y252500D02*
D03*
X221250D02*
D03*
Y262500D02*
D03*
Y272500D02*
D03*
X251250D02*
D03*
Y262500D02*
D03*
Y252500D02*
D03*
X241250D02*
D03*
Y262500D02*
D03*
Y272500D02*
D03*
X-237500Y-197500D02*
D03*
X-227500D02*
D03*
Y-187500D02*
D03*
X-237500D02*
D03*
Y-177500D02*
D03*
X-227500D02*
D03*
X-110000D02*
D03*
X-120000D02*
D03*
Y-187500D02*
D03*
X-110000Y-197500D02*
D03*
X-120000D02*
D03*
X-172500Y-215000D02*
D03*
X-280000D02*
D03*
X112500Y162500D02*
D03*
X102500D02*
D03*
X92500D02*
D03*
Y152500D02*
D03*
X102500D02*
D03*
X112500D02*
D03*
Y142500D02*
D03*
X102500D02*
D03*
X82500Y152500D02*
D03*
Y162500D02*
D03*
X252500Y212500D02*
D03*
X242500D02*
D03*
X102500Y212500D02*
D03*
X112500D02*
D03*
X102500Y202500D02*
D03*
X112500D02*
D03*
X102500Y192500D02*
D03*
X112500D02*
D03*
X102500Y182500D02*
D03*
X112500D02*
D03*
X102500Y172500D02*
D03*
X112500D02*
D03*
X-260000Y-215000D02*
D03*
X-270000D02*
D03*
X100000Y350000D02*
D03*
X142500D02*
D03*
X132500D02*
D03*
X117500D02*
D03*
X108750D02*
D03*
X102500Y-315000D02*
D03*
X112500D02*
D03*
Y-325000D02*
D03*
X-20000Y342500D02*
D03*
X-10000D02*
D03*
X0D02*
D03*
X-5000Y315000D02*
D03*
X-157500Y82500D02*
D03*
X-167500D02*
D03*
X-215750Y240000D02*
D03*
X-207500D02*
D03*
Y231250D02*
D03*
X-215750D02*
D03*
X-199250D02*
D03*
Y240000D02*
D03*
X-231750D02*
D03*
Y231250D02*
D03*
X-248250D02*
D03*
X-240000D02*
D03*
Y240000D02*
D03*
X-248250D02*
D03*
X-230000Y160000D02*
D03*
X-238750D02*
D03*
X-247500D02*
D03*
X-110000Y-187500D02*
D03*
X-142500Y-215000D02*
D03*
X-152500D02*
D03*
X-162500D02*
D03*
X142301Y-147803D02*
D03*
X149372Y-140732D02*
D03*
X156443Y-133661D02*
D03*
X142301Y-119519D02*
D03*
X149372Y-126590D02*
D03*
X135230D02*
D03*
X142301Y-133661D02*
D03*
X135230Y-140732D02*
D03*
X128159Y-133661D02*
D03*
X-26250Y-227500D02*
D03*
Y-236250D02*
D03*
Y-245000D02*
D03*
X-17500D02*
D03*
Y-236250D02*
D03*
Y-227500D02*
D03*
X-26250Y-253750D02*
D03*
D18*
X-245000Y26050D02*
D03*
Y13050D02*
D03*
X-133000Y246500D02*
D03*
Y233500D02*
D03*
Y336500D02*
D03*
Y323500D02*
D03*
Y291500D02*
D03*
Y278500D02*
D03*
X-226250Y26000D02*
D03*
Y13000D02*
D03*
X26000Y197250D02*
D03*
Y184250D02*
D03*
Y158250D02*
D03*
Y171250D02*
D03*
Y145250D02*
D03*
Y132250D02*
D03*
D26*
X-242500Y105000D02*
D03*
Y135000D02*
D03*
X-220000Y-28750D02*
D03*
Y-58750D02*
D03*
D27*
X125000Y333500D02*
D03*
Y301500D02*
D03*
X91250Y333500D02*
D03*
Y301500D02*
D03*
X158750Y333500D02*
D03*
Y301500D02*
D03*
D35*
X340000Y-420000D02*
D03*
X-340000Y420000D02*
D03*
D36*
Y-420000D02*
D03*
X340000Y420000D02*
D03*
D37*
X282858Y241491D02*
D03*
X302141Y218510D02*
D03*
D40*
X-81000Y-170000D02*
D03*
X-94000D02*
D03*
Y-155000D02*
D03*
X-81000D02*
D03*
Y-190000D02*
D03*
X-94000D02*
D03*
X-198500D02*
D03*
X-211500D02*
D03*
Y-155000D02*
D03*
X-198500D02*
D03*
Y-170000D02*
D03*
X-211500D02*
D03*
X-187000Y41000D02*
D03*
X-174000D02*
D03*
X-187000Y25800D02*
D03*
X-174000D02*
D03*
Y13100D02*
D03*
X-187000D02*
D03*
X-187000Y400D02*
D03*
X-174000D02*
D03*
X-187000Y-12300D02*
D03*
X-174000D02*
D03*
X-187000Y-25000D02*
D03*
X-174000D02*
D03*
X-187000Y-37700D02*
D03*
X-174000D02*
D03*
X-138500Y118750D02*
D03*
X-151500D02*
D03*
X-38501Y212500D02*
D03*
X-51501D02*
D03*
X-51500Y225000D02*
D03*
X-38500D02*
D03*
D51*
X-38000Y203750D02*
Y213750D01*
D52*
X266894Y-195070D02*
G03*
X280002Y-200499I13107J13107D01*
G01*
X279648Y-199645D02*
G03*
X275000Y-210866I11221J-11221D01*
G01*
X265604Y-187779D02*
G03*
X269846Y-198022I14485J0D01*
G01*
X269846Y-198022D02*
G03*
X259604Y-193779I-10243J-10243D01*
G01*
X-233051Y296777D02*
G03*
X-240000Y280000I16777J-16777D01*
G01*
X69253Y373645D02*
G03*
X-219929Y309899I-69253J-373645D01*
G01*
X-165000Y192500D02*
Y200000D01*
Y185000D02*
Y192500D01*
X212500Y-72023D02*
X214514Y-73119D01*
X195000Y-62500D02*
X212500Y-72023D01*
X234394Y-254394D02*
X236894Y-251894D01*
X275000Y-213788D02*
Y-203175D01*
X259604Y-187779D02*
X275000Y-203175D01*
X205000Y-160000D02*
X209749Y-155251D01*
X255959Y-85030D02*
X290000Y-100000D01*
X255959Y-85030D02*
X260586Y-72692D01*
X249086Y-96272D02*
X255959Y-85030D01*
X214514Y-73119D02*
X255959Y-85030D01*
X212500Y-72023D02*
X220486Y-56404D01*
X-240000Y240000D02*
Y280000D01*
X-233051Y296777D02*
X-219929Y309899D01*
X-270000Y-215000D02*
X-260000D01*
X-280000D02*
X-270000D01*
X-172500D02*
X-142500D01*
D53*
X443040Y-470000D02*
X462540D01*
X443040Y470000D02*
X462540D01*
X440000Y473040D02*
Y492540D01*
X-440000Y473040D02*
Y492540D01*
D54*
X460000Y-470000D02*
Y-39545D01*
Y31925D02*
Y470000D01*
Y-470000D02*
X465080Y-454760D01*
X454920D02*
X460000Y-470000D01*
X454920Y454760D02*
X460000Y470000D01*
X465080Y454760D01*
X31925Y490000D02*
X440000D01*
X-440000D02*
X-39545D01*
X424760Y495080D02*
X440000Y490000D01*
X424760Y484920D02*
X440000Y490000D01*
X-440000D02*
X-424760Y484920D01*
X-440000Y490000D02*
X-424760Y495080D01*
X459577Y-29446D02*
X461028Y-29930D01*
X461996Y-30898D01*
X462479Y-32349D01*
Y-32832D01*
X461996Y-34283D01*
X461028Y-35251D01*
X459577Y-35735D01*
X459093D01*
X457642Y-35251D01*
X456675Y-34283D01*
X456191Y-32832D01*
Y-32349D01*
X456675Y-30898D01*
X457642Y-29930D01*
X459577Y-29446D01*
X461996D01*
X464414Y-29930D01*
X465865Y-30898D01*
X466349Y-32349D01*
Y-33316D01*
X465865Y-34767D01*
X464898Y-35251D01*
X456191Y-21852D02*
X462963Y-26689D01*
Y-19434D01*
X456191Y-21852D02*
X466349D01*
X465382Y-17160D02*
X465865Y-17644D01*
X466349Y-17160D01*
X465865Y-16677D01*
X465382Y-17160D01*
X456191Y-11549D02*
X456675Y-13000D01*
X458126Y-13968D01*
X460544Y-14452D01*
X461996D01*
X464414Y-13968D01*
X465865Y-13000D01*
X466349Y-11549D01*
Y-10582D01*
X465865Y-9131D01*
X464414Y-8163D01*
X461996Y-7680D01*
X460544D01*
X458126Y-8163D01*
X456675Y-9131D01*
X456191Y-10582D01*
Y-11549D01*
Y-2504D02*
X456675Y-3955D01*
X458126Y-4922D01*
X460544Y-5406D01*
X461996D01*
X464414Y-4922D01*
X465865Y-3955D01*
X466349Y-2504D01*
Y-1537D01*
X465865Y-86D01*
X464414Y882D01*
X461996Y1366D01*
X460544D01*
X458126Y882D01*
X456675Y-86D01*
X456191Y-1537D01*
Y-2504D01*
X459577Y3639D02*
X466349D01*
X461512D02*
X460061Y5090D01*
X459577Y6058D01*
Y7509D01*
X460061Y8476D01*
X461512Y8960D01*
X466349D01*
X461512D02*
X460061Y10411D01*
X459577Y11378D01*
Y12830D01*
X460061Y13797D01*
X461512Y14281D01*
X466349D01*
X459577Y17473D02*
X466349D01*
X461512D02*
X460061Y18924D01*
X459577Y19892D01*
Y21343D01*
X460061Y22310D01*
X461512Y22794D01*
X466349D01*
X461512D02*
X460061Y24245D01*
X459577Y25212D01*
Y26663D01*
X460061Y27631D01*
X461512Y28115D01*
X466349D01*
X-33316Y493809D02*
X-34767Y493325D01*
X-35251Y492358D01*
Y491390D01*
X-34767Y490423D01*
X-33800Y489939D01*
X-31865Y489456D01*
X-30414Y488972D01*
X-29446Y488004D01*
X-28963Y487037D01*
Y485586D01*
X-29446Y484618D01*
X-29930Y484135D01*
X-31381Y483651D01*
X-33316D01*
X-34767Y484135D01*
X-35251Y484618D01*
X-35735Y485586D01*
Y487037D01*
X-35251Y488004D01*
X-34283Y488972D01*
X-32832Y489456D01*
X-30898Y489939D01*
X-29930Y490423D01*
X-29446Y491390D01*
Y492358D01*
X-29930Y493325D01*
X-31381Y493809D01*
X-33316D01*
X-24271D02*
X-25722Y493325D01*
X-26206Y492358D01*
Y491390D01*
X-25722Y490423D01*
X-24755Y489939D01*
X-22820Y489456D01*
X-21369Y488972D01*
X-20401Y488004D01*
X-19917Y487037D01*
Y485586D01*
X-20401Y484618D01*
X-20885Y484135D01*
X-22336Y483651D01*
X-24271D01*
X-25722Y484135D01*
X-26206Y484618D01*
X-26689Y485586D01*
Y487037D01*
X-26206Y488004D01*
X-25238Y488972D01*
X-23787Y489456D01*
X-21852Y489939D01*
X-20885Y490423D01*
X-20401Y491390D01*
Y492358D01*
X-20885Y493325D01*
X-22336Y493809D01*
X-24271D01*
X-17160Y484618D02*
X-17644Y484135D01*
X-17160Y483651D01*
X-16677Y484135D01*
X-17160Y484618D01*
X-11549Y493809D02*
X-13000Y493325D01*
X-13968Y491874D01*
X-14452Y489456D01*
Y488004D01*
X-13968Y485586D01*
X-13000Y484135D01*
X-11549Y483651D01*
X-10582D01*
X-9131Y484135D01*
X-8163Y485586D01*
X-7680Y488004D01*
Y489456D01*
X-8163Y491874D01*
X-9131Y493325D01*
X-10582Y493809D01*
X-11549D01*
X-2504D02*
X-3955Y493325D01*
X-4922Y491874D01*
X-5406Y489456D01*
Y488004D01*
X-4922Y485586D01*
X-3955Y484135D01*
X-2504Y483651D01*
X-1537D01*
X-86Y484135D01*
X882Y485586D01*
X1366Y488004D01*
Y489456D01*
X882Y491874D01*
X-86Y493325D01*
X-1537Y493809D01*
X-2504D01*
X3639Y490423D02*
Y483651D01*
Y488488D02*
X5090Y489939D01*
X6058Y490423D01*
X7509D01*
X8476Y489939D01*
X8960Y488488D01*
Y483651D01*
Y488488D02*
X10411Y489939D01*
X11378Y490423D01*
X12830D01*
X13797Y489939D01*
X14281Y488488D01*
Y483651D01*
X17473Y490423D02*
Y483651D01*
Y488488D02*
X18924Y489939D01*
X19892Y490423D01*
X21343D01*
X22310Y489939D01*
X22794Y488488D01*
Y483651D01*
Y488488D02*
X24245Y489939D01*
X25212Y490423D01*
X26663D01*
X27631Y489939D01*
X28115Y488488D01*
Y483651D01*
D55*
X-1320000Y-1010000D02*
Y1030000D01*
X1590000D01*
Y-1010000D02*
Y1030000D01*
X-1320000Y-1010000D02*
X1590000D01*
X-1350000Y-1040000D02*
X1620000D01*
X-1350000Y1060000D02*
X1620000D01*
X-1350000Y-1040000D02*
Y1060000D01*
Y530000D02*
X-1320000D01*
X-1350000Y530000D02*
X-1320000D01*
X-1350000Y790000D02*
X-1320000D01*
X-1350000D02*
X-1320000D01*
X5000Y-1040000D02*
Y-1010000D01*
X5000Y-1040000D02*
Y-1010000D01*
X-775000Y1030000D02*
Y1060000D01*
X-515000Y1030000D02*
Y1060000D01*
X-775000Y1030000D02*
Y1060000D01*
X-1035000Y1030000D02*
Y1060000D01*
X-1035000Y1030000D02*
Y1060000D01*
X5000Y1030000D02*
Y1060000D01*
X5000Y1030000D02*
Y1060000D01*
X-255000Y1030000D02*
Y1060000D01*
Y1030000D02*
Y1060000D01*
X-515000Y1030000D02*
Y1060000D01*
X1620000Y-1040000D02*
Y1060000D01*
X1590000Y790000D02*
X1620000D01*
X1590000D02*
X1620000D01*
X1590000Y530000D02*
X1620000D01*
X1590000Y530000D02*
X1620000D01*
X1590000Y270000D02*
X1620000D01*
X1590000D02*
X1620000D01*
X1590000Y10000D02*
X1620000D01*
X1590000D02*
X1620000D01*
X1590000Y-250000D02*
X1620000D01*
X1590000D02*
X1620000D01*
X1590000Y-510000D02*
X1620000D01*
X1590000Y-510000D02*
X1620000D01*
X1590000Y-770000D02*
X1620000D01*
X1590000D02*
X1620000D01*
X265000Y-1040000D02*
Y-1010000D01*
Y-1040000D02*
Y-1010000D01*
X525000Y-1040000D02*
Y-1010000D01*
Y-1040000D02*
Y-1010000D01*
X785000Y-1040000D02*
Y-1010000D01*
Y-1040000D02*
Y-1010000D01*
X1045000Y-1040000D02*
Y-1010000D01*
X1045000Y-1040000D02*
Y-1010000D01*
X1305000Y-1040000D02*
Y-1010000D01*
Y-1040000D02*
Y-1010000D01*
Y1030000D02*
Y1060000D01*
Y1030000D02*
Y1060000D01*
X1045000Y1030000D02*
Y1060000D01*
X1045000Y1030000D02*
Y1060000D01*
X785000Y1030000D02*
Y1060000D01*
Y1030000D02*
Y1060000D01*
X525000Y1030000D02*
Y1060000D01*
Y1030000D02*
Y1060000D01*
X265000Y1030000D02*
Y1060000D01*
Y1030000D02*
Y1060000D01*
X1240000Y-900000D02*
X1580000D01*
X1240000Y-920000D02*
X1580000D01*
X1240000Y-940000D02*
X1580000D01*
X1240000Y-960000D02*
X1580000D01*
X1240000Y-980000D02*
X1580000D01*
X1240000Y-1000000D02*
X1580000D01*
X1390000Y-980000D02*
Y-880000D01*
X1580000Y-1000000D02*
Y-880000D01*
X1240000D02*
X1580000D01*
X1240000Y-1000000D02*
Y-880000D01*
X-1350000Y-770000D02*
X-1320000D01*
X-1350000D02*
X-1320000D01*
X-1350000Y-510000D02*
X-1320000D01*
X-1350000Y-510000D02*
X-1320000D01*
X-1350000Y-250000D02*
X-1320000D01*
X-1350000D02*
X-1320000D01*
X-1350000Y10000D02*
X-1320000D01*
X-1350000D02*
X-1320000D01*
X-1350000Y270000D02*
X-1320000D01*
X-1350000D02*
X-1320000D01*
X-515000Y-1040000D02*
Y-1010000D01*
X-255000Y-1040000D02*
Y-1010000D01*
Y-1040000D02*
Y-1010000D01*
X-1035000Y-1040000D02*
Y-1010000D01*
X-1035000Y-1040000D02*
Y-1010000D01*
X-775000Y-1040000D02*
Y-1010000D01*
X-515000Y-1040000D02*
Y-1010000D01*
X-775000Y-1040000D02*
Y-1010000D01*
X895000Y-900000D02*
X1235000D01*
X895000Y-920000D02*
X1235000D01*
X895000Y-940000D02*
X1235000D01*
X895000Y-960000D02*
X1235000D01*
X895000Y-980000D02*
X1235000D01*
X895000Y-1000000D02*
X1235000D01*
X1045000D02*
Y-880000D01*
X1235000Y-1000000D02*
Y-880000D01*
X895000D02*
X1235000D01*
X895000Y-1000000D02*
Y-880000D01*
X1257141Y-987383D02*
X1256665Y-986430D01*
X1255713Y-985478D01*
X1254761Y-985002D01*
X1252857D01*
X1251904Y-985478D01*
X1250952Y-986430D01*
X1250476Y-987383D01*
X1250000Y-988811D01*
Y-991191D01*
X1250476Y-992619D01*
X1250952Y-993572D01*
X1251904Y-994524D01*
X1252857Y-995000D01*
X1254761D01*
X1255713Y-994524D01*
X1256665Y-993572D01*
X1257141Y-992619D01*
X1268520Y-988811D02*
X1268044Y-989287D01*
X1268520Y-989763D01*
X1268996Y-989287D01*
Y-988811D01*
X1268520Y-988335D01*
X1268044D01*
X1267568Y-988811D01*
X1267092Y-989763D01*
X1266139Y-992143D01*
X1265187Y-993572D01*
X1264235Y-994524D01*
X1263283Y-995000D01*
X1261855D01*
X1260426Y-994524D01*
X1259950Y-993572D01*
Y-992143D01*
X1260426Y-991191D01*
X1263283Y-989287D01*
X1264235Y-988335D01*
X1264711Y-987383D01*
Y-986430D01*
X1264235Y-985478D01*
X1263283Y-985002D01*
X1262331Y-985478D01*
X1261855Y-986430D01*
Y-987383D01*
X1262331Y-988811D01*
X1263283Y-990239D01*
X1265663Y-993572D01*
X1266616Y-994524D01*
X1268044Y-995000D01*
X1268520D01*
X1268996Y-994524D01*
Y-994048D01*
X1261855Y-995000D02*
X1260902Y-994524D01*
X1260426Y-993572D01*
Y-992143D01*
X1260902Y-991191D01*
X1261855Y-990239D01*
Y-987383D02*
X1262331Y-988335D01*
X1266139Y-993572D01*
X1267092Y-994524D01*
X1268044Y-995000D01*
X1271472Y-985002D02*
Y-995000D01*
X1278137Y-985002D02*
X1271472Y-991667D01*
X1273852Y-989287D02*
X1278137Y-995000D01*
X1400476Y-967383D02*
Y-966907D01*
X1400952Y-965954D01*
X1401428Y-965478D01*
X1402380Y-965002D01*
X1404285D01*
X1405237Y-965478D01*
X1405713Y-965954D01*
X1406189Y-966907D01*
Y-967859D01*
X1405713Y-968811D01*
X1404761Y-970239D01*
X1400000Y-975000D01*
X1406665D01*
X1411759Y-965002D02*
X1410331Y-965478D01*
X1409379Y-966907D01*
X1408903Y-969287D01*
Y-970715D01*
X1409379Y-973096D01*
X1410331Y-974524D01*
X1411759Y-975000D01*
X1412712D01*
X1414140Y-974524D01*
X1415092Y-973096D01*
X1415568Y-970715D01*
Y-969287D01*
X1415092Y-966907D01*
X1414140Y-965478D01*
X1412712Y-965002D01*
X1411759D01*
X1418282Y-967383D02*
Y-966907D01*
X1418758Y-965954D01*
X1419234Y-965478D01*
X1420186Y-965002D01*
X1422090D01*
X1423043Y-965478D01*
X1423519Y-965954D01*
X1423995Y-966907D01*
Y-967859D01*
X1423519Y-968811D01*
X1422567Y-970239D01*
X1417806Y-975000D01*
X1424471D01*
X1426709Y-966907D02*
X1427661Y-966430D01*
X1429089Y-965002D01*
Y-975000D01*
X1434516Y-974048D02*
X1434040Y-974524D01*
X1434516Y-975000D01*
X1434993Y-974524D01*
X1434516Y-974048D01*
X1440039Y-965002D02*
X1438611Y-965478D01*
X1437659Y-966907D01*
X1437182Y-969287D01*
Y-970715D01*
X1437659Y-973096D01*
X1438611Y-974524D01*
X1440039Y-975000D01*
X1440991D01*
X1442419Y-974524D01*
X1443372Y-973096D01*
X1443848Y-970715D01*
Y-969287D01*
X1443372Y-966907D01*
X1442419Y-965478D01*
X1440991Y-965002D01*
X1440039D01*
X1450846D02*
X1446085Y-971667D01*
X1453227D01*
X1450846Y-965002D02*
Y-975000D01*
X1455464Y-974048D02*
X1454988Y-974524D01*
X1455464Y-975000D01*
X1455940Y-974524D01*
X1455464Y-974048D01*
X1460987Y-965002D02*
X1459559Y-965478D01*
X1458607Y-966907D01*
X1458130Y-969287D01*
Y-970715D01*
X1458607Y-973096D01*
X1459559Y-974524D01*
X1460987Y-975000D01*
X1461939D01*
X1463367Y-974524D01*
X1464319Y-973096D01*
X1464796Y-970715D01*
Y-969287D01*
X1464319Y-966907D01*
X1463367Y-965478D01*
X1461939Y-965002D01*
X1460987D01*
X1467509Y-967383D02*
Y-966907D01*
X1467985Y-965954D01*
X1468461Y-965478D01*
X1469414Y-965002D01*
X1471318D01*
X1472270Y-965478D01*
X1472746Y-965954D01*
X1473222Y-966907D01*
Y-967859D01*
X1472746Y-968811D01*
X1471794Y-970239D01*
X1467033Y-975000D01*
X1473698D01*
X1476412Y-974048D02*
X1475936Y-974524D01*
X1476412Y-975000D01*
X1476888Y-974524D01*
X1476412Y-974048D01*
X1400000Y-945002D02*
Y-955000D01*
X1406665Y-945002D02*
X1400000Y-951667D01*
X1402380Y-949287D02*
X1406665Y-955000D01*
X1408903Y-945002D02*
Y-955000D01*
X1415568Y-945002D02*
Y-955000D01*
X1408903Y-949763D02*
X1415568D01*
X1418329Y-945002D02*
Y-955000D01*
X1424995Y-945002D02*
Y-955000D01*
X1418329Y-949763D02*
X1424995D01*
X1402856Y-925002D02*
X1401428Y-925478D01*
X1400476Y-926907D01*
X1400000Y-929287D01*
Y-930715D01*
X1400476Y-933096D01*
X1401428Y-934524D01*
X1402856Y-935000D01*
X1403809D01*
X1405237Y-934524D01*
X1406189Y-933096D01*
X1406665Y-930715D01*
Y-929287D01*
X1406189Y-926907D01*
X1405237Y-925478D01*
X1403809Y-925002D01*
X1402856D01*
X1409379Y-934048D02*
X1408903Y-934524D01*
X1409379Y-935000D01*
X1409855Y-934524D01*
X1409379Y-934048D01*
X1412521Y-927383D02*
Y-926907D01*
X1412997Y-925954D01*
X1413473Y-925478D01*
X1414426Y-925002D01*
X1416330D01*
X1417282Y-925478D01*
X1417758Y-925954D01*
X1418234Y-926907D01*
Y-927859D01*
X1417758Y-928811D01*
X1416806Y-930239D01*
X1412045Y-935000D01*
X1418710D01*
X1425709Y-925002D02*
X1420948Y-931667D01*
X1428089D01*
X1425709Y-925002D02*
Y-935000D01*
X1407617Y-915000D02*
X1403809Y-905002D01*
X1400000Y-915000D01*
X1401428Y-911667D02*
X1406189D01*
X1409950Y-905002D02*
Y-915000D01*
Y-905002D02*
X1414235D01*
X1415663Y-905478D01*
X1416139Y-905954D01*
X1416615Y-906907D01*
Y-907859D01*
X1416139Y-908811D01*
X1415663Y-909287D01*
X1414235Y-909763D01*
X1409950D01*
X1413283D02*
X1416615Y-915000D01*
X1425042Y-905002D02*
X1418853D01*
Y-915000D01*
X1425042D01*
X1418853Y-909763D02*
X1422662D01*
X1433374Y-906430D02*
X1432422Y-905478D01*
X1430993Y-905002D01*
X1429089D01*
X1427661Y-905478D01*
X1426709Y-906430D01*
Y-907383D01*
X1427185Y-908335D01*
X1427661Y-908811D01*
X1428613Y-909287D01*
X1431470Y-910239D01*
X1432422Y-910715D01*
X1432898Y-911191D01*
X1433374Y-912143D01*
Y-913572D01*
X1432422Y-914524D01*
X1430993Y-915000D01*
X1429089D01*
X1427661Y-914524D01*
X1426709Y-913572D01*
X1435611Y-918333D02*
X1443229D01*
X1444514Y-905002D02*
Y-915000D01*
Y-905002D02*
X1448799D01*
X1450227Y-905478D01*
X1450703Y-905954D01*
X1451180Y-906907D01*
Y-907859D01*
X1450703Y-908811D01*
X1450227Y-909287D01*
X1448799Y-909763D01*
X1444514D01*
X1447847D02*
X1451180Y-915000D01*
X1456274Y-905002D02*
X1454845Y-905478D01*
X1453893Y-906907D01*
X1453417Y-909287D01*
Y-910715D01*
X1453893Y-913096D01*
X1454845Y-914524D01*
X1456274Y-915000D01*
X1457226D01*
X1458654Y-914524D01*
X1459606Y-913096D01*
X1460082Y-910715D01*
Y-909287D01*
X1459606Y-906907D01*
X1458654Y-905478D01*
X1457226Y-905002D01*
X1456274D01*
X1468033Y-906430D02*
X1467557Y-905478D01*
X1466129Y-905002D01*
X1465177D01*
X1463748Y-905478D01*
X1462796Y-906907D01*
X1462320Y-909287D01*
Y-911667D01*
X1462796Y-913572D01*
X1463748Y-914524D01*
X1465177Y-915000D01*
X1465653D01*
X1467081Y-914524D01*
X1468033Y-913572D01*
X1468509Y-912143D01*
Y-911667D01*
X1468033Y-910239D01*
X1467081Y-909287D01*
X1465653Y-908811D01*
X1465177D01*
X1463748Y-909287D01*
X1462796Y-910239D01*
X1462320Y-911667D01*
X1470699Y-918333D02*
X1478316D01*
X1479602Y-910239D02*
X1483887D01*
X1485315Y-909763D01*
X1485791Y-909287D01*
X1486267Y-908335D01*
Y-906907D01*
X1485791Y-905954D01*
X1485315Y-905478D01*
X1483887Y-905002D01*
X1479602D01*
Y-915000D01*
X1490885Y-908335D02*
X1489933Y-908811D01*
X1488981Y-909763D01*
X1488505Y-911191D01*
Y-912143D01*
X1488981Y-913572D01*
X1489933Y-914524D01*
X1490885Y-915000D01*
X1492314D01*
X1493266Y-914524D01*
X1494218Y-913572D01*
X1494694Y-912143D01*
Y-911191D01*
X1494218Y-909763D01*
X1493266Y-908811D01*
X1492314Y-908335D01*
X1490885D01*
X1496884D02*
X1498788Y-915000D01*
X1500693Y-908335D02*
X1498788Y-915000D01*
X1500693Y-908335D02*
X1502597Y-915000D01*
X1504501Y-908335D02*
X1502597Y-915000D01*
X1506834Y-911191D02*
X1512547D01*
Y-910239D01*
X1512071Y-909287D01*
X1511595Y-908811D01*
X1510643Y-908335D01*
X1509215D01*
X1508262Y-908811D01*
X1507310Y-909763D01*
X1506834Y-911191D01*
Y-912143D01*
X1507310Y-913572D01*
X1508262Y-914524D01*
X1509215Y-915000D01*
X1510643D01*
X1511595Y-914524D01*
X1512547Y-913572D01*
X1514690Y-908335D02*
Y-915000D01*
Y-911191D02*
X1515166Y-909763D01*
X1516118Y-908811D01*
X1517070Y-908335D01*
X1518498D01*
X1400000Y-885002D02*
Y-895000D01*
X1406665Y-885002D02*
Y-895000D01*
X1400000Y-889763D02*
X1406665D01*
X1410379Y-885002D02*
X1410855Y-885478D01*
X1411331Y-885002D01*
X1410855Y-884526D01*
X1410379Y-885002D01*
X1410855Y-888335D02*
Y-895000D01*
X1418806Y-888335D02*
Y-895952D01*
X1418329Y-897380D01*
X1417853Y-897857D01*
X1416901Y-898333D01*
X1415473D01*
X1414521Y-897857D01*
X1418806Y-889763D02*
X1417853Y-888811D01*
X1416901Y-888335D01*
X1415473D01*
X1414521Y-888811D01*
X1413569Y-889763D01*
X1413092Y-891191D01*
Y-892143D01*
X1413569Y-893572D01*
X1414521Y-894524D01*
X1415473Y-895000D01*
X1416901D01*
X1417853Y-894524D01*
X1418806Y-893572D01*
X1421472Y-891191D02*
X1427185D01*
Y-890239D01*
X1426709Y-889287D01*
X1426232Y-888811D01*
X1425280Y-888335D01*
X1423852D01*
X1422900Y-888811D01*
X1421948Y-889763D01*
X1421472Y-891191D01*
Y-892143D01*
X1421948Y-893572D01*
X1422900Y-894524D01*
X1423852Y-895000D01*
X1425280D01*
X1426232Y-894524D01*
X1427185Y-893572D01*
X1429327Y-888335D02*
Y-895000D01*
Y-890239D02*
X1430755Y-888811D01*
X1431707Y-888335D01*
X1433136D01*
X1434088Y-888811D01*
X1434564Y-890239D01*
Y-895000D01*
X1250000Y-965002D02*
Y-975000D01*
X1255713D01*
X1262521Y-968335D02*
Y-975000D01*
Y-969763D02*
X1261569Y-968811D01*
X1260617Y-968335D01*
X1259189D01*
X1258236Y-968811D01*
X1257284Y-969763D01*
X1256808Y-971191D01*
Y-972143D01*
X1257284Y-973572D01*
X1258236Y-974524D01*
X1259189Y-975000D01*
X1260617D01*
X1261569Y-974524D01*
X1262521Y-973572D01*
X1270424Y-969763D02*
X1269948Y-968811D01*
X1268520Y-968335D01*
X1267092D01*
X1265663Y-968811D01*
X1265187Y-969763D01*
X1265663Y-970715D01*
X1266616Y-971191D01*
X1268996Y-971667D01*
X1269948Y-972143D01*
X1270424Y-973096D01*
Y-973572D01*
X1269948Y-974524D01*
X1268520Y-975000D01*
X1267092D01*
X1265663Y-974524D01*
X1265187Y-973572D01*
X1273947Y-965002D02*
Y-973096D01*
X1274423Y-974524D01*
X1275376Y-975000D01*
X1276328D01*
X1272519Y-968335D02*
X1275852D01*
X1285611Y-965002D02*
Y-975000D01*
Y-965002D02*
X1288944D01*
X1290372Y-965478D01*
X1291324Y-966430D01*
X1291801Y-967383D01*
X1292277Y-968811D01*
Y-971191D01*
X1291801Y-972619D01*
X1291324Y-973572D01*
X1290372Y-974524D01*
X1288944Y-975000D01*
X1285611D01*
X1300227Y-968335D02*
Y-975000D01*
Y-969763D02*
X1299275Y-968811D01*
X1298323Y-968335D01*
X1296895D01*
X1295943Y-968811D01*
X1294990Y-969763D01*
X1294514Y-971191D01*
Y-972143D01*
X1294990Y-973572D01*
X1295943Y-974524D01*
X1296895Y-975000D01*
X1298323D01*
X1299275Y-974524D01*
X1300227Y-973572D01*
X1304322Y-965002D02*
Y-973096D01*
X1304798Y-974524D01*
X1305750Y-975000D01*
X1306702D01*
X1302893Y-968335D02*
X1306226D01*
X1313843D02*
Y-975000D01*
Y-969763D02*
X1312891Y-968811D01*
X1311939Y-968335D01*
X1310511D01*
X1309559Y-968811D01*
X1308607Y-969763D01*
X1308130Y-971191D01*
Y-972143D01*
X1308607Y-973572D01*
X1309559Y-974524D01*
X1310511Y-975000D01*
X1311939D01*
X1312891Y-974524D01*
X1313843Y-973572D01*
X1250000Y-945002D02*
Y-955000D01*
Y-945002D02*
X1253333D01*
X1254761Y-945478D01*
X1255713Y-946430D01*
X1256189Y-947383D01*
X1256665Y-948811D01*
Y-951191D01*
X1256189Y-952619D01*
X1255713Y-953572D01*
X1254761Y-954524D01*
X1253333Y-955000D01*
X1250000D01*
X1258903Y-951191D02*
X1264616D01*
Y-950239D01*
X1264140Y-949287D01*
X1263664Y-948811D01*
X1262711Y-948335D01*
X1261283D01*
X1260331Y-948811D01*
X1259379Y-949763D01*
X1258903Y-951191D01*
Y-952143D01*
X1259379Y-953572D01*
X1260331Y-954524D01*
X1261283Y-955000D01*
X1262711D01*
X1263664Y-954524D01*
X1264616Y-953572D01*
X1271995Y-949763D02*
X1271519Y-948811D01*
X1270091Y-948335D01*
X1268663D01*
X1267234Y-948811D01*
X1266758Y-949763D01*
X1267234Y-950715D01*
X1268187Y-951191D01*
X1270567Y-951667D01*
X1271519Y-952143D01*
X1271995Y-953096D01*
Y-953572D01*
X1271519Y-954524D01*
X1270091Y-955000D01*
X1268663D01*
X1267234Y-954524D01*
X1266758Y-953572D01*
X1275042Y-945002D02*
X1275518Y-945478D01*
X1275994Y-945002D01*
X1275518Y-944526D01*
X1275042Y-945002D01*
X1275518Y-948335D02*
Y-955000D01*
X1283469Y-948335D02*
Y-955952D01*
X1282993Y-957380D01*
X1282517Y-957857D01*
X1281565Y-958333D01*
X1280136D01*
X1279184Y-957857D01*
X1283469Y-949763D02*
X1282517Y-948811D01*
X1281565Y-948335D01*
X1280136D01*
X1279184Y-948811D01*
X1278232Y-949763D01*
X1277756Y-951191D01*
Y-952143D01*
X1278232Y-953572D01*
X1279184Y-954524D01*
X1280136Y-955000D01*
X1281565D01*
X1282517Y-954524D01*
X1283469Y-953572D01*
X1286135Y-948335D02*
Y-955000D01*
Y-950239D02*
X1287563Y-948811D01*
X1288515Y-948335D01*
X1289944D01*
X1290896Y-948811D01*
X1291372Y-950239D01*
Y-955000D01*
X1293991Y-951191D02*
X1299704D01*
Y-950239D01*
X1299227Y-949287D01*
X1298752Y-948811D01*
X1297799Y-948335D01*
X1296371D01*
X1295419Y-948811D01*
X1294467Y-949763D01*
X1293991Y-951191D01*
Y-952143D01*
X1294467Y-953572D01*
X1295419Y-954524D01*
X1296371Y-955000D01*
X1297799D01*
X1298752Y-954524D01*
X1299704Y-953572D01*
X1301846Y-948335D02*
Y-955000D01*
Y-951191D02*
X1302322Y-949763D01*
X1303274Y-948811D01*
X1304226Y-948335D01*
X1305655D01*
X1250000Y-925002D02*
Y-935000D01*
Y-925002D02*
X1254285D01*
X1255713Y-925478D01*
X1256189Y-925954D01*
X1256665Y-926907D01*
Y-927859D01*
X1256189Y-928811D01*
X1255713Y-929287D01*
X1254285Y-929763D01*
X1250000D01*
X1253333D02*
X1256665Y-935000D01*
X1258903Y-931191D02*
X1264616D01*
Y-930239D01*
X1264140Y-929287D01*
X1263664Y-928811D01*
X1262711Y-928335D01*
X1261283D01*
X1260331Y-928811D01*
X1259379Y-929763D01*
X1258903Y-931191D01*
Y-932143D01*
X1259379Y-933572D01*
X1260331Y-934524D01*
X1261283Y-935000D01*
X1262711D01*
X1263664Y-934524D01*
X1264616Y-933572D01*
X1266758Y-928335D02*
X1269615Y-935000D01*
X1272471Y-928335D02*
X1269615Y-935000D01*
X1250000Y-905002D02*
Y-915000D01*
Y-905002D02*
X1253333D01*
X1254761Y-905478D01*
X1255713Y-906430D01*
X1256189Y-907383D01*
X1256665Y-908811D01*
Y-911191D01*
X1256189Y-912619D01*
X1255713Y-913572D01*
X1254761Y-914524D01*
X1253333Y-915000D01*
X1250000D01*
X1258903Y-911191D02*
X1264616D01*
Y-910239D01*
X1264140Y-909287D01*
X1263664Y-908811D01*
X1262711Y-908335D01*
X1261283D01*
X1260331Y-908811D01*
X1259379Y-909763D01*
X1258903Y-911191D01*
Y-912143D01*
X1259379Y-913572D01*
X1260331Y-914524D01*
X1261283Y-915000D01*
X1262711D01*
X1263664Y-914524D01*
X1264616Y-913572D01*
X1271995Y-909763D02*
X1271519Y-908811D01*
X1270091Y-908335D01*
X1268663D01*
X1267234Y-908811D01*
X1266758Y-909763D01*
X1267234Y-910715D01*
X1268187Y-911191D01*
X1270567Y-911667D01*
X1271519Y-912143D01*
X1271995Y-913096D01*
Y-913572D01*
X1271519Y-914524D01*
X1270091Y-915000D01*
X1268663D01*
X1267234Y-914524D01*
X1266758Y-913572D01*
X1275042Y-905002D02*
X1275518Y-905478D01*
X1275994Y-905002D01*
X1275518Y-904526D01*
X1275042Y-905002D01*
X1275518Y-908335D02*
Y-915000D01*
X1283469Y-908335D02*
Y-915952D01*
X1282993Y-917380D01*
X1282517Y-917857D01*
X1281565Y-918333D01*
X1280136D01*
X1279184Y-917857D01*
X1283469Y-909763D02*
X1282517Y-908811D01*
X1281565Y-908335D01*
X1280136D01*
X1279184Y-908811D01*
X1278232Y-909763D01*
X1277756Y-911191D01*
Y-912143D01*
X1278232Y-913572D01*
X1279184Y-914524D01*
X1280136Y-915000D01*
X1281565D01*
X1282517Y-914524D01*
X1283469Y-913572D01*
X1286135Y-908335D02*
Y-915000D01*
Y-910239D02*
X1287563Y-908811D01*
X1288515Y-908335D01*
X1289944D01*
X1290896Y-908811D01*
X1291372Y-910239D01*
Y-915000D01*
X1301846Y-905002D02*
Y-915000D01*
Y-905002D02*
X1308511Y-915000D01*
Y-905002D02*
Y-915000D01*
X1316986Y-908335D02*
Y-915000D01*
Y-909763D02*
X1316033Y-908811D01*
X1315081Y-908335D01*
X1313653D01*
X1312701Y-908811D01*
X1311749Y-909763D01*
X1311273Y-911191D01*
Y-912143D01*
X1311749Y-913572D01*
X1312701Y-914524D01*
X1313653Y-915000D01*
X1315081D01*
X1316033Y-914524D01*
X1316986Y-913572D01*
X1319652Y-908335D02*
Y-915000D01*
Y-910239D02*
X1321080Y-908811D01*
X1322032Y-908335D01*
X1323460D01*
X1324413Y-908811D01*
X1324889Y-910239D01*
Y-915000D01*
Y-910239D02*
X1326317Y-908811D01*
X1327269Y-908335D01*
X1328697D01*
X1329650Y-908811D01*
X1330126Y-910239D01*
Y-915000D01*
X1333268Y-911191D02*
X1338981D01*
Y-910239D01*
X1338505Y-909287D01*
X1338029Y-908811D01*
X1337077Y-908335D01*
X1335648D01*
X1334696Y-908811D01*
X1333744Y-909763D01*
X1333268Y-911191D01*
Y-912143D01*
X1333744Y-913572D01*
X1334696Y-914524D01*
X1335648Y-915000D01*
X1337077D01*
X1338029Y-914524D01*
X1338981Y-913572D01*
X1257141Y-887383D02*
X1256665Y-886430D01*
X1255713Y-885478D01*
X1254761Y-885002D01*
X1252857D01*
X1251904Y-885478D01*
X1250952Y-886430D01*
X1250476Y-887383D01*
X1250000Y-888811D01*
Y-891191D01*
X1250476Y-892620D01*
X1250952Y-893572D01*
X1251904Y-894524D01*
X1252857Y-895000D01*
X1254761D01*
X1255713Y-894524D01*
X1256665Y-893572D01*
X1257141Y-892620D01*
X1259950Y-888335D02*
Y-893096D01*
X1260426Y-894524D01*
X1261378Y-895000D01*
X1262807D01*
X1263759Y-894524D01*
X1265187Y-893096D01*
Y-888335D02*
Y-895000D01*
X1273043Y-889763D02*
X1272567Y-888811D01*
X1271138Y-888335D01*
X1269710D01*
X1268282Y-888811D01*
X1267806Y-889763D01*
X1268282Y-890715D01*
X1269234Y-891191D01*
X1271614Y-891667D01*
X1272567Y-892143D01*
X1273043Y-893096D01*
Y-893572D01*
X1272567Y-894524D01*
X1271138Y-895000D01*
X1269710D01*
X1268282Y-894524D01*
X1267806Y-893572D01*
X1276566Y-885002D02*
Y-893096D01*
X1277042Y-894524D01*
X1277994Y-895000D01*
X1278946D01*
X1275137Y-888335D02*
X1278470D01*
X1282755D02*
X1281803Y-888811D01*
X1280851Y-889763D01*
X1280374Y-891191D01*
Y-892143D01*
X1280851Y-893572D01*
X1281803Y-894524D01*
X1282755Y-895000D01*
X1284183D01*
X1285135Y-894524D01*
X1286087Y-893572D01*
X1286564Y-892143D01*
Y-891191D01*
X1286087Y-889763D01*
X1285135Y-888811D01*
X1284183Y-888335D01*
X1282755D01*
X1288754D02*
Y-895000D01*
Y-890239D02*
X1290182Y-888811D01*
X1291134Y-888335D01*
X1292562D01*
X1293515Y-888811D01*
X1293991Y-890239D01*
Y-895000D01*
Y-890239D02*
X1295419Y-888811D01*
X1296371Y-888335D01*
X1297799D01*
X1298752Y-888811D01*
X1299227Y-890239D01*
Y-895000D01*
X1302370Y-891191D02*
X1308083D01*
Y-890239D01*
X1307607Y-889287D01*
X1307131Y-888811D01*
X1306178Y-888335D01*
X1304750D01*
X1303798Y-888811D01*
X1302846Y-889763D01*
X1302370Y-891191D01*
Y-892143D01*
X1302846Y-893572D01*
X1303798Y-894524D01*
X1304750Y-895000D01*
X1306178D01*
X1307131Y-894524D01*
X1308083Y-893572D01*
X1310225Y-888335D02*
Y-895000D01*
Y-891191D02*
X1310701Y-889763D01*
X1311653Y-888811D01*
X1312606Y-888335D01*
X1314034D01*
X1055000Y-985002D02*
X1057380Y-995000D01*
X1059761Y-985002D02*
X1057380Y-995000D01*
X1059761Y-985002D02*
X1062141Y-995000D01*
X1064522Y-985002D02*
X1062141Y-995000D01*
X1066521Y-985002D02*
Y-995000D01*
Y-990239D02*
X1067950Y-988811D01*
X1068902Y-988335D01*
X1070330D01*
X1071282Y-988811D01*
X1071758Y-990239D01*
Y-995000D01*
X1075329Y-985002D02*
X1075805Y-985478D01*
X1076281Y-985002D01*
X1075805Y-984526D01*
X1075329Y-985002D01*
X1075805Y-988335D02*
Y-995000D01*
X1079471Y-985002D02*
Y-993096D01*
X1079947Y-994524D01*
X1080899Y-995000D01*
X1081851D01*
X1078043Y-988335D02*
X1081375D01*
X1083280Y-991191D02*
X1088993D01*
Y-990239D01*
X1088517Y-989287D01*
X1088040Y-988811D01*
X1087088Y-988335D01*
X1085660D01*
X1084708Y-988811D01*
X1083756Y-989763D01*
X1083280Y-991191D01*
Y-992143D01*
X1083756Y-993572D01*
X1084708Y-994524D01*
X1085660Y-995000D01*
X1087088D01*
X1088040Y-994524D01*
X1088993Y-993572D01*
X1055000Y-965002D02*
Y-975000D01*
Y-965002D02*
X1059285D01*
X1060713Y-965478D01*
X1061189Y-965954D01*
X1061665Y-966907D01*
Y-967859D01*
X1061189Y-968811D01*
X1060713Y-969287D01*
X1059285Y-969763D01*
X1055000D02*
X1059285D01*
X1060713Y-970239D01*
X1061189Y-970715D01*
X1061665Y-971667D01*
Y-973096D01*
X1061189Y-974048D01*
X1060713Y-974524D01*
X1059285Y-975000D01*
X1055000D01*
X1063903Y-965002D02*
Y-975000D01*
X1069616D01*
X1070711Y-965002D02*
Y-972143D01*
X1071187Y-973572D01*
X1072139Y-974524D01*
X1073567Y-975000D01*
X1074520D01*
X1075948Y-974524D01*
X1076900Y-973572D01*
X1077376Y-972143D01*
Y-965002D01*
X1086327D02*
X1080137D01*
Y-975000D01*
X1086327D01*
X1080137Y-969763D02*
X1083946D01*
X1057857Y-945002D02*
X1056904Y-945478D01*
X1055952Y-946430D01*
X1055476Y-947383D01*
X1055000Y-948811D01*
Y-951191D01*
X1055476Y-952620D01*
X1055952Y-953572D01*
X1056904Y-954524D01*
X1057857Y-955000D01*
X1059761D01*
X1060713Y-954524D01*
X1061665Y-953572D01*
X1062141Y-952620D01*
X1062617Y-951191D01*
Y-948811D01*
X1062141Y-947383D01*
X1061665Y-946430D01*
X1060713Y-945478D01*
X1059761Y-945002D01*
X1057857D01*
X1071616Y-946430D02*
X1070663Y-945478D01*
X1069235Y-945002D01*
X1067331D01*
X1065902Y-945478D01*
X1064950Y-946430D01*
Y-947383D01*
X1065426Y-948335D01*
X1065902Y-948811D01*
X1066855Y-949287D01*
X1069711Y-950239D01*
X1070663Y-950715D01*
X1071139Y-951191D01*
X1071616Y-952143D01*
Y-953572D01*
X1070663Y-954524D01*
X1069235Y-955000D01*
X1067331D01*
X1065902Y-954524D01*
X1064950Y-953572D01*
X1073853Y-950239D02*
X1078138D01*
X1079566Y-949763D01*
X1080042Y-949287D01*
X1080518Y-948335D01*
Y-946907D01*
X1080042Y-945954D01*
X1079566Y-945478D01*
X1078138Y-945002D01*
X1073853D01*
Y-955000D01*
X1055000Y-925002D02*
Y-935000D01*
Y-925002D02*
X1061189D01*
X1055000Y-929763D02*
X1058809D01*
X1062332Y-925002D02*
Y-935000D01*
Y-925002D02*
X1066617D01*
X1068045Y-925478D01*
X1068521Y-925954D01*
X1068997Y-926907D01*
Y-927859D01*
X1068521Y-928811D01*
X1068045Y-929287D01*
X1066617Y-929763D01*
X1062332D01*
X1065664D02*
X1068997Y-935000D01*
X1071235Y-930715D02*
X1079804D01*
X1087517Y-925002D02*
X1082756Y-931667D01*
X1089897D01*
X1087517Y-925002D02*
Y-935000D01*
X1055000Y-906907D02*
X1055952Y-906430D01*
X1057380Y-905002D01*
Y-915000D01*
X1062808Y-914048D02*
X1062332Y-914524D01*
X1062808Y-915000D01*
X1063284Y-914524D01*
X1062808Y-914048D01*
X1071187Y-906430D02*
X1070711Y-905478D01*
X1069283Y-905002D01*
X1068331D01*
X1066902Y-905478D01*
X1065950Y-906907D01*
X1065474Y-909287D01*
Y-911667D01*
X1065950Y-913572D01*
X1066902Y-914524D01*
X1068331Y-915000D01*
X1068807D01*
X1070235Y-914524D01*
X1071187Y-913572D01*
X1071663Y-912143D01*
Y-911667D01*
X1071187Y-910239D01*
X1070235Y-909287D01*
X1068807Y-908811D01*
X1068331D01*
X1066902Y-909287D01*
X1065950Y-910239D01*
X1065474Y-911667D01*
X1077186Y-905002D02*
Y-915000D01*
X1073853Y-905002D02*
X1080518D01*
X1057380Y-885002D02*
X1055952Y-885478D01*
X1055476Y-886430D01*
Y-887383D01*
X1055952Y-888335D01*
X1056904Y-888811D01*
X1058809Y-889287D01*
X1060237Y-889763D01*
X1061189Y-890715D01*
X1061665Y-891667D01*
Y-893096D01*
X1061189Y-894048D01*
X1060713Y-894524D01*
X1059285Y-895000D01*
X1057380D01*
X1055952Y-894524D01*
X1055476Y-894048D01*
X1055000Y-893096D01*
Y-891667D01*
X1055476Y-890715D01*
X1056428Y-889763D01*
X1057857Y-889287D01*
X1059761Y-888811D01*
X1060713Y-888335D01*
X1061189Y-887383D01*
Y-886430D01*
X1060713Y-885478D01*
X1059285Y-885002D01*
X1057380D01*
X1066283D02*
X1064855Y-885478D01*
X1064379Y-886430D01*
Y-887383D01*
X1064855Y-888335D01*
X1065807Y-888811D01*
X1067712Y-889287D01*
X1069140Y-889763D01*
X1070092Y-890715D01*
X1070568Y-891667D01*
Y-893096D01*
X1070092Y-894048D01*
X1069616Y-894524D01*
X1068188Y-895000D01*
X1066283D01*
X1064855Y-894524D01*
X1064379Y-894048D01*
X1063903Y-893096D01*
Y-891667D01*
X1064379Y-890715D01*
X1065331Y-889763D01*
X1066759Y-889287D01*
X1068664Y-888811D01*
X1069616Y-888335D01*
X1070092Y-887383D01*
Y-886430D01*
X1069616Y-885478D01*
X1068188Y-885002D01*
X1066283D01*
X1072806Y-888335D02*
Y-895000D01*
Y-890239D02*
X1074234Y-888811D01*
X1075186Y-888335D01*
X1076614D01*
X1077567Y-888811D01*
X1078043Y-890239D01*
Y-895000D01*
Y-890239D02*
X1079471Y-888811D01*
X1080423Y-888335D01*
X1081851D01*
X1082804Y-888811D01*
X1083280Y-890239D01*
Y-895000D01*
X1086422Y-888335D02*
Y-895000D01*
Y-890239D02*
X1087850Y-888811D01*
X1088802Y-888335D01*
X1090230D01*
X1091183Y-888811D01*
X1091659Y-890239D01*
Y-895000D01*
Y-890239D02*
X1093087Y-888811D01*
X1094039Y-888335D01*
X1095468D01*
X1096420Y-888811D01*
X1096896Y-890239D01*
Y-895000D01*
X1107893Y-885002D02*
X1114559Y-895000D01*
Y-885002D02*
X1107893Y-895000D01*
X1130841Y-888335D02*
X1130365Y-889763D01*
X1129413Y-890715D01*
X1127984Y-891191D01*
X1127508D01*
X1126080Y-890715D01*
X1125128Y-889763D01*
X1124652Y-888335D01*
Y-887859D01*
X1125128Y-886430D01*
X1126080Y-885478D01*
X1127508Y-885002D01*
X1127984D01*
X1129413Y-885478D01*
X1130365Y-886430D01*
X1130841Y-888335D01*
Y-890715D01*
X1130365Y-893096D01*
X1129413Y-894524D01*
X1127984Y-895000D01*
X1127032D01*
X1125604Y-894524D01*
X1125128Y-893572D01*
X1138316Y-885002D02*
X1133555Y-891667D01*
X1140696D01*
X1138316Y-885002D02*
Y-895000D01*
X1142457Y-888335D02*
Y-895000D01*
Y-890239D02*
X1143886Y-888811D01*
X1144838Y-888335D01*
X1146266D01*
X1147218Y-888811D01*
X1147694Y-890239D01*
Y-895000D01*
Y-890239D02*
X1149123Y-888811D01*
X1150075Y-888335D01*
X1151503D01*
X1152455Y-888811D01*
X1152931Y-890239D01*
Y-895000D01*
X1156074Y-888335D02*
Y-895000D01*
Y-890239D02*
X1157502Y-888811D01*
X1158454Y-888335D01*
X1159882D01*
X1160835Y-888811D01*
X1161311Y-890239D01*
Y-895000D01*
Y-890239D02*
X1162739Y-888811D01*
X1163691Y-888335D01*
X1165119D01*
X1166071Y-888811D01*
X1166547Y-890239D01*
Y-895000D01*
X911665Y-986430D02*
X910713Y-985478D01*
X909285Y-985002D01*
X907380D01*
X905952Y-985478D01*
X905000Y-986430D01*
Y-987383D01*
X905476Y-988335D01*
X905952Y-988811D01*
X906904Y-989287D01*
X909761Y-990239D01*
X910713Y-990715D01*
X911189Y-991191D01*
X911665Y-992143D01*
Y-993572D01*
X910713Y-994524D01*
X909285Y-995000D01*
X907380D01*
X905952Y-994524D01*
X905000Y-993572D01*
X914855Y-985002D02*
X915331Y-985478D01*
X915807Y-985002D01*
X915331Y-984526D01*
X914855Y-985002D01*
X915331Y-988335D02*
Y-995000D01*
X917569Y-985002D02*
Y-995000D01*
X919663Y-985002D02*
Y-995000D01*
X924424Y-988335D02*
X919663Y-993096D01*
X921568Y-991191D02*
X924901Y-995000D01*
X940992Y-986430D02*
X940040Y-985478D01*
X938612Y-985002D01*
X936708D01*
X935279Y-985478D01*
X934327Y-986430D01*
Y-987383D01*
X934803Y-988335D01*
X935279Y-988811D01*
X936231Y-989287D01*
X939088Y-990239D01*
X940040Y-990715D01*
X940516Y-991191D01*
X940992Y-992143D01*
Y-993572D01*
X940040Y-994524D01*
X938612Y-995000D01*
X936708D01*
X935279Y-994524D01*
X934327Y-993572D01*
X948943Y-989763D02*
X947991Y-988811D01*
X947039Y-988335D01*
X945610D01*
X944658Y-988811D01*
X943706Y-989763D01*
X943230Y-991191D01*
Y-992143D01*
X943706Y-993572D01*
X944658Y-994524D01*
X945610Y-995000D01*
X947039D01*
X947991Y-994524D01*
X948943Y-993572D01*
X951085Y-988335D02*
Y-995000D01*
Y-991191D02*
X951561Y-989763D01*
X952514Y-988811D01*
X953466Y-988335D01*
X954894D01*
X955799Y-991191D02*
X961512D01*
Y-990239D01*
X961036Y-989287D01*
X960559Y-988811D01*
X959607Y-988335D01*
X958179D01*
X957227Y-988811D01*
X956275Y-989763D01*
X955799Y-991191D01*
Y-992143D01*
X956275Y-993572D01*
X957227Y-994524D01*
X958179Y-995000D01*
X959607D01*
X960559Y-994524D01*
X961512Y-993572D01*
X963654Y-991191D02*
X969367D01*
Y-990239D01*
X968891Y-989287D01*
X968415Y-988811D01*
X967463Y-988335D01*
X966034D01*
X965082Y-988811D01*
X964130Y-989763D01*
X963654Y-991191D01*
Y-992143D01*
X964130Y-993572D01*
X965082Y-994524D01*
X966034Y-995000D01*
X967463D01*
X968415Y-994524D01*
X969367Y-993572D01*
X971509Y-988335D02*
Y-995000D01*
Y-990239D02*
X972938Y-988811D01*
X973890Y-988335D01*
X975318D01*
X976270Y-988811D01*
X976747Y-990239D01*
Y-995000D01*
X911665Y-966430D02*
X910713Y-965478D01*
X909285Y-965002D01*
X907380D01*
X905952Y-965478D01*
X905000Y-966430D01*
Y-967383D01*
X905476Y-968335D01*
X905952Y-968811D01*
X906904Y-969287D01*
X909761Y-970239D01*
X910713Y-970715D01*
X911189Y-971191D01*
X911665Y-972143D01*
Y-973572D01*
X910713Y-974524D01*
X909285Y-975000D01*
X907380D01*
X905952Y-974524D01*
X905000Y-973572D01*
X916283Y-968335D02*
X915331Y-968811D01*
X914379Y-969763D01*
X913903Y-971191D01*
Y-972143D01*
X914379Y-973572D01*
X915331Y-974524D01*
X916283Y-975000D01*
X917712D01*
X918664Y-974524D01*
X919616Y-973572D01*
X920092Y-972143D01*
Y-971191D01*
X919616Y-969763D01*
X918664Y-968811D01*
X917712Y-968335D01*
X916283D01*
X922282Y-965002D02*
Y-975000D01*
X930090Y-965002D02*
Y-975000D01*
Y-969763D02*
X929138Y-968811D01*
X928186Y-968335D01*
X926757D01*
X925805Y-968811D01*
X924853Y-969763D01*
X924377Y-971191D01*
Y-972143D01*
X924853Y-973572D01*
X925805Y-974524D01*
X926757Y-975000D01*
X928186D01*
X929138Y-974524D01*
X930090Y-973572D01*
X932756Y-971191D02*
X938469D01*
Y-970239D01*
X937993Y-969287D01*
X937517Y-968811D01*
X936565Y-968335D01*
X935136D01*
X934184Y-968811D01*
X933232Y-969763D01*
X932756Y-971191D01*
Y-972143D01*
X933232Y-973572D01*
X934184Y-974524D01*
X935136Y-975000D01*
X936565D01*
X937517Y-974524D01*
X938469Y-973572D01*
X940611Y-968335D02*
Y-975000D01*
Y-971191D02*
X941087Y-969763D01*
X942040Y-968811D01*
X942992Y-968335D01*
X944420D01*
X953180Y-965002D02*
Y-975000D01*
Y-965002D02*
X956989Y-975000D01*
X960798Y-965002D02*
X956989Y-975000D01*
X960798Y-965002D02*
Y-975000D01*
X969367Y-968335D02*
Y-975000D01*
Y-969763D02*
X968415Y-968811D01*
X967463Y-968335D01*
X966034D01*
X965082Y-968811D01*
X964130Y-969763D01*
X963654Y-971191D01*
Y-972143D01*
X964130Y-973572D01*
X965082Y-974524D01*
X966034Y-975000D01*
X967463D01*
X968415Y-974524D01*
X969367Y-973572D01*
X977270Y-969763D02*
X976794Y-968811D01*
X975366Y-968335D01*
X973938D01*
X972509Y-968811D01*
X972033Y-969763D01*
X972509Y-970715D01*
X973462Y-971191D01*
X975842Y-971667D01*
X976794Y-972143D01*
X977270Y-973096D01*
Y-973572D01*
X976794Y-974524D01*
X975366Y-975000D01*
X973938D01*
X972509Y-974524D01*
X972033Y-973572D01*
X979365Y-965002D02*
Y-975000D01*
X984126Y-968335D02*
X979365Y-973096D01*
X981269Y-971191D02*
X984602Y-975000D01*
X911665Y-946430D02*
X910713Y-945478D01*
X909285Y-945002D01*
X907380D01*
X905952Y-945478D01*
X905000Y-946430D01*
Y-947383D01*
X905476Y-948335D01*
X905952Y-948811D01*
X906904Y-949287D01*
X909761Y-950239D01*
X910713Y-950715D01*
X911189Y-951191D01*
X911665Y-952143D01*
Y-953572D01*
X910713Y-954524D01*
X909285Y-955000D01*
X907380D01*
X905952Y-954524D01*
X905000Y-953572D01*
X913903Y-948335D02*
Y-953096D01*
X914379Y-954524D01*
X915331Y-955000D01*
X916759D01*
X917712Y-954524D01*
X919140Y-953096D01*
Y-948335D02*
Y-955000D01*
X921758Y-948335D02*
Y-955000D01*
Y-951191D02*
X922234Y-949763D01*
X923187Y-948811D01*
X924139Y-948335D01*
X925567D01*
X930280Y-945002D02*
X929328D01*
X928376Y-945478D01*
X927900Y-946907D01*
Y-955000D01*
X926472Y-948335D02*
X929804D01*
X937422D02*
Y-955000D01*
Y-949763D02*
X936469Y-948811D01*
X935517Y-948335D01*
X934089D01*
X933137Y-948811D01*
X932185Y-949763D01*
X931709Y-951191D01*
Y-952143D01*
X932185Y-953572D01*
X933137Y-954524D01*
X934089Y-955000D01*
X935517D01*
X936469Y-954524D01*
X937422Y-953572D01*
X945801Y-949763D02*
X944849Y-948811D01*
X943896Y-948335D01*
X942468D01*
X941516Y-948811D01*
X940564Y-949763D01*
X940088Y-951191D01*
Y-952143D01*
X940564Y-953572D01*
X941516Y-954524D01*
X942468Y-955000D01*
X943896D01*
X944849Y-954524D01*
X945801Y-953572D01*
X947943Y-951191D02*
X953656D01*
Y-950239D01*
X953180Y-949287D01*
X952704Y-948811D01*
X951752Y-948335D01*
X950324D01*
X949371Y-948811D01*
X948419Y-949763D01*
X947943Y-951191D01*
Y-952143D01*
X948419Y-953572D01*
X949371Y-954524D01*
X950324Y-955000D01*
X951752D01*
X952704Y-954524D01*
X953656Y-953572D01*
X963654Y-950239D02*
X967939D01*
X969367Y-949763D01*
X969843Y-949287D01*
X970319Y-948335D01*
Y-946907D01*
X969843Y-945954D01*
X969367Y-945478D01*
X967939Y-945002D01*
X963654D01*
Y-955000D01*
X972557Y-948335D02*
Y-955000D01*
Y-951191D02*
X973033Y-949763D01*
X973985Y-948811D01*
X974937Y-948335D01*
X976366D01*
X977270Y-951191D02*
X982983D01*
Y-950239D01*
X982507Y-949287D01*
X982031Y-948811D01*
X981079Y-948335D01*
X979651D01*
X978699Y-948811D01*
X977746Y-949763D01*
X977270Y-951191D01*
Y-952143D01*
X977746Y-953572D01*
X978699Y-954524D01*
X979651Y-955000D01*
X981079D01*
X982031Y-954524D01*
X982983Y-953572D01*
X985126Y-948335D02*
Y-958333D01*
Y-949763D02*
X986078Y-948811D01*
X987030Y-948335D01*
X988458D01*
X989410Y-948811D01*
X990363Y-949763D01*
X990839Y-951191D01*
Y-952143D01*
X990363Y-953572D01*
X989410Y-954524D01*
X988458Y-955000D01*
X987030D01*
X986078Y-954524D01*
X985126Y-953572D01*
X998694Y-948335D02*
Y-955000D01*
Y-949763D02*
X997742Y-948811D01*
X996790Y-948335D01*
X995362D01*
X994409Y-948811D01*
X993457Y-949763D01*
X992981Y-951191D01*
Y-952143D01*
X993457Y-953572D01*
X994409Y-954524D01*
X995362Y-955000D01*
X996790D01*
X997742Y-954524D01*
X998694Y-953572D01*
X1001360Y-948335D02*
Y-955000D01*
Y-951191D02*
X1001836Y-949763D01*
X1002788Y-948811D01*
X1003741Y-948335D01*
X1005169D01*
X1011787D02*
Y-955000D01*
Y-949763D02*
X1010835Y-948811D01*
X1009882Y-948335D01*
X1008454D01*
X1007502Y-948811D01*
X1006550Y-949763D01*
X1006074Y-951191D01*
Y-952143D01*
X1006550Y-953572D01*
X1007502Y-954524D01*
X1008454Y-955000D01*
X1009882D01*
X1010835Y-954524D01*
X1011787Y-953572D01*
X1015881Y-945002D02*
Y-953096D01*
X1016357Y-954524D01*
X1017309Y-955000D01*
X1018261D01*
X1014453Y-948335D02*
X1017785D01*
X1020642Y-945002D02*
X1021118Y-945478D01*
X1021594Y-945002D01*
X1021118Y-944526D01*
X1020642Y-945002D01*
X1021118Y-948335D02*
Y-955000D01*
X1025736Y-948335D02*
X1024784Y-948811D01*
X1023832Y-949763D01*
X1023356Y-951191D01*
Y-952143D01*
X1023832Y-953572D01*
X1024784Y-954524D01*
X1025736Y-955000D01*
X1027164D01*
X1028117Y-954524D01*
X1029069Y-953572D01*
X1029545Y-952143D01*
Y-951191D01*
X1029069Y-949763D01*
X1028117Y-948811D01*
X1027164Y-948335D01*
X1025736D01*
X1031735D02*
Y-955000D01*
Y-950239D02*
X1033163Y-948811D01*
X1034115Y-948335D01*
X1035543D01*
X1036496Y-948811D01*
X1036972Y-950239D01*
Y-955000D01*
X905000Y-925002D02*
Y-935000D01*
Y-925002D02*
X908809Y-935000D01*
X912617Y-925002D02*
X908809Y-935000D01*
X912617Y-925002D02*
Y-935000D01*
X915474Y-931191D02*
X921187D01*
Y-930239D01*
X920711Y-929287D01*
X920235Y-928811D01*
X919283Y-928335D01*
X917854D01*
X916902Y-928811D01*
X915950Y-929763D01*
X915474Y-931191D01*
Y-932143D01*
X915950Y-933572D01*
X916902Y-934524D01*
X917854Y-935000D01*
X919283D01*
X920235Y-934524D01*
X921187Y-933572D01*
X924758Y-925002D02*
Y-933096D01*
X925234Y-934524D01*
X926186Y-935000D01*
X927138D01*
X923329Y-928335D02*
X926662D01*
X928566Y-931191D02*
X934279D01*
Y-930239D01*
X933803Y-929287D01*
X933327Y-928811D01*
X932375Y-928335D01*
X930947D01*
X929995Y-928811D01*
X929043Y-929763D01*
X928566Y-931191D01*
Y-932143D01*
X929043Y-933572D01*
X929995Y-934524D01*
X930947Y-935000D01*
X932375D01*
X933327Y-934524D01*
X934279Y-933572D01*
X936422Y-928335D02*
Y-935000D01*
Y-931191D02*
X936898Y-929763D01*
X937850Y-928811D01*
X938802Y-928335D01*
X940230D01*
X942087Y-925002D02*
X942563Y-925478D01*
X943039Y-925002D01*
X942563Y-924526D01*
X942087Y-925002D01*
X942563Y-928335D02*
Y-935000D01*
X950514Y-928335D02*
Y-935000D01*
Y-929763D02*
X949562Y-928811D01*
X948610Y-928335D01*
X947181D01*
X946229Y-928811D01*
X945277Y-929763D01*
X944801Y-931191D01*
Y-932143D01*
X945277Y-933572D01*
X946229Y-934524D01*
X947181Y-935000D01*
X948610D01*
X949562Y-934524D01*
X950514Y-933572D01*
X953180Y-925002D02*
Y-935000D01*
X908333Y-905002D02*
Y-915000D01*
X905000Y-905002D02*
X911665D01*
X912856D02*
Y-915000D01*
Y-910239D02*
X914284Y-908811D01*
X915236Y-908335D01*
X916664D01*
X917616Y-908811D01*
X918092Y-910239D01*
Y-915000D01*
X921663Y-905002D02*
X922139Y-905478D01*
X922615Y-905002D01*
X922139Y-904526D01*
X921663Y-905002D01*
X922139Y-908335D02*
Y-915000D01*
X930090Y-909763D02*
X929138Y-908811D01*
X928186Y-908335D01*
X926757D01*
X925805Y-908811D01*
X924853Y-909763D01*
X924377Y-911191D01*
Y-912143D01*
X924853Y-913572D01*
X925805Y-914524D01*
X926757Y-915000D01*
X928186D01*
X929138Y-914524D01*
X930090Y-913572D01*
X932232Y-905002D02*
Y-915000D01*
X936993Y-908335D02*
X932232Y-913096D01*
X934137Y-911191D02*
X937469Y-915000D01*
X939040Y-908335D02*
Y-915000D01*
Y-910239D02*
X940469Y-908811D01*
X941421Y-908335D01*
X942849D01*
X943801Y-908811D01*
X944277Y-910239D01*
Y-915000D01*
X946896Y-911191D02*
X952609D01*
Y-910239D01*
X952133Y-909287D01*
X951657Y-908811D01*
X950704Y-908335D01*
X949276D01*
X948324Y-908811D01*
X947372Y-909763D01*
X946896Y-911191D01*
Y-912143D01*
X947372Y-913572D01*
X948324Y-914524D01*
X949276Y-915000D01*
X950704D01*
X951657Y-914524D01*
X952609Y-913572D01*
X959988Y-909763D02*
X959512Y-908811D01*
X958084Y-908335D01*
X956656D01*
X955227Y-908811D01*
X954751Y-909763D01*
X955227Y-910715D01*
X956180Y-911191D01*
X958560Y-911667D01*
X959512Y-912143D01*
X959988Y-913096D01*
Y-913572D01*
X959512Y-914524D01*
X958084Y-915000D01*
X956656D01*
X955227Y-914524D01*
X954751Y-913572D01*
X967320Y-909763D02*
X966844Y-908811D01*
X965416Y-908335D01*
X963987D01*
X962559Y-908811D01*
X962083Y-909763D01*
X962559Y-910715D01*
X963511Y-911191D01*
X965892Y-911667D01*
X966844Y-912143D01*
X967320Y-913096D01*
Y-913572D01*
X966844Y-914524D01*
X965416Y-915000D01*
X963987D01*
X962559Y-914524D01*
X962083Y-913572D01*
X911665Y-886430D02*
X910713Y-885478D01*
X909285Y-885002D01*
X907380D01*
X905952Y-885478D01*
X905000Y-886430D01*
Y-887383D01*
X905476Y-888335D01*
X905952Y-888811D01*
X906904Y-889287D01*
X909761Y-890239D01*
X910713Y-890715D01*
X911189Y-891191D01*
X911665Y-892143D01*
Y-893572D01*
X910713Y-894524D01*
X909285Y-895000D01*
X907380D01*
X905952Y-894524D01*
X905000Y-893572D01*
X914855Y-885002D02*
X915331Y-885478D01*
X915807Y-885002D01*
X915331Y-884526D01*
X914855Y-885002D01*
X915331Y-888335D02*
Y-895000D01*
X922806Y-888335D02*
X917569Y-895000D01*
Y-888335D02*
X922806D01*
X917569Y-895000D02*
X922806D01*
X924901Y-891191D02*
X930614D01*
Y-890239D01*
X930137Y-889287D01*
X929661Y-888811D01*
X928709Y-888335D01*
X927281D01*
X926329Y-888811D01*
X925377Y-889763D01*
X924901Y-891191D01*
Y-892143D01*
X925377Y-893572D01*
X926329Y-894524D01*
X927281Y-895000D01*
X928709D01*
X929661Y-894524D01*
X930614Y-893572D01*
D56*
X0Y-360000D02*
D03*
D57*
X280000Y-60000D02*
D03*
D58*
Y-35000D02*
D03*
X307500Y50000D02*
D03*
X252500D02*
D03*
Y15000D02*
D03*
X307500D02*
D03*
X252500Y85000D02*
D03*
X307500D02*
D03*
X302944Y-221640D02*
D03*
X259604Y-187779D02*
D03*
X238056Y-215359D02*
D03*
X281396Y-249221D02*
D03*
X347888Y-142326D02*
D03*
X298455Y-118216D02*
D03*
X283112Y-149674D02*
D03*
X332545Y-173784D02*
D03*
D59*
X390000Y-420000D02*
D03*
X-390000Y420000D02*
D03*
Y-420000D02*
D03*
X390000Y420000D02*
D03*
X-311769Y180000D02*
D03*
D60*
X311769D02*
D03*
D61*
X-266250Y37500D02*
D03*
X340002Y-119999D02*
D03*
X280002Y-219999D02*
D03*
X120001Y360002D02*
D03*
Y-39999D02*
D03*
X100001Y360002D02*
D03*
Y-59999D02*
D03*
X80001Y-39999D02*
D03*
X40001Y-119999D02*
D03*
Y-139999D02*
D03*
X20001Y340002D02*
D03*
Y-119999D02*
D03*
Y-139999D02*
D03*
X1Y-119999D02*
D03*
X-19999D02*
D03*
Y-139999D02*
D03*
X-39999Y-119999D02*
D03*
Y-139999D02*
D03*
X87500Y-216500D02*
D03*
X118750D02*
D03*
X102500Y-200000D02*
D03*
X-151251Y220000D02*
D03*
X-287500Y-20000D02*
D03*
X196250Y-308750D02*
D03*
X201250Y-303750D02*
D03*
X-133000Y257500D02*
D03*
Y267500D02*
D03*
Y302500D02*
D03*
Y312500D02*
D03*
Y220000D02*
D03*
X-266250Y30000D02*
D03*
Y45000D02*
D03*
X-260000Y57500D02*
D03*
X-287500Y-32500D02*
D03*
X-277500Y-42500D02*
D03*
X-287500D02*
D03*
X-165000Y192500D02*
D03*
Y185000D02*
D03*
Y200000D02*
D03*
X-94000Y132500D02*
D03*
X-107500Y40000D02*
D03*
X-23750Y119250D02*
D03*
X60001Y-139999D02*
D03*
Y-119999D02*
D03*
X80001Y-59999D02*
D03*
X100001Y20001D02*
D03*
X120001Y-19999D02*
D03*
X280002Y-199999D02*
D03*
X300002D02*
D03*
X320001Y-139999D02*
D03*
Y-119999D02*
D03*
X-359999Y100001D02*
D03*
X-339999Y-139999D02*
D03*
Y-119999D02*
D03*
Y100001D02*
D03*
Y120001D02*
D03*
X-319999Y-179999D02*
D03*
Y-159999D02*
D03*
Y-139999D02*
D03*
Y-119999D02*
D03*
Y100001D02*
D03*
Y120001D02*
D03*
X-299999Y-159999D02*
D03*
Y80001D02*
D03*
Y100001D02*
D03*
Y120001D02*
D03*
X-259999Y260002D02*
D03*
X-219999Y-299999D02*
D03*
X-199999D02*
D03*
X-179999Y-319999D02*
D03*
Y-299999D02*
D03*
Y240002D02*
D03*
Y260002D02*
D03*
Y280002D02*
D03*
Y300002D02*
D03*
X-159999Y-319999D02*
D03*
Y-299999D02*
D03*
X-139999Y-339999D02*
D03*
Y-319999D02*
D03*
Y-299999D02*
D03*
X-119999Y-339999D02*
D03*
Y-319999D02*
D03*
Y-299999D02*
D03*
X-99999Y-359999D02*
D03*
Y-339999D02*
D03*
Y-319999D02*
D03*
Y-299999D02*
D03*
Y220002D02*
D03*
Y240002D02*
D03*
Y260002D02*
D03*
Y280002D02*
D03*
Y300002D02*
D03*
Y320001D02*
D03*
Y340002D02*
D03*
X-79999Y-359999D02*
D03*
Y-339999D02*
D03*
Y-319999D02*
D03*
X-59999Y80001D02*
D03*
Y100001D02*
D03*
X20001Y-259999D02*
D03*
Y-239999D02*
D03*
X100001Y-299999D02*
D03*
X180002Y-259999D02*
D03*
Y-239999D02*
D03*
D62*
X277036Y249011D02*
D03*
X290926Y249571D02*
D03*
X160000Y-325000D02*
D03*
X165000Y-320000D02*
D03*
X150000Y-325000D02*
D03*
X155000Y-320000D02*
D03*
X160000Y-315000D02*
D03*
X-202500Y-12300D02*
D03*
Y400D02*
D03*
X-202500Y-25000D02*
D03*
X-266250Y-63750D02*
D03*
Y-70000D02*
D03*
Y-76250D02*
D03*
X-240000Y38750D02*
D03*
Y46250D02*
D03*
X-232500D02*
D03*
Y38750D02*
D03*
X-202500Y25800D02*
D03*
X-237500Y-50400D02*
D03*
X-237500Y26000D02*
D03*
Y13100D02*
D03*
X-162500Y-50400D02*
D03*
Y-37700D02*
D03*
Y-25000D02*
D03*
Y-12300D02*
D03*
Y400D02*
D03*
Y13100D02*
D03*
Y25800D02*
D03*
Y41000D02*
D03*
X197500Y228750D02*
D03*
X207500D02*
D03*
X-212500Y-110000D02*
D03*
X-222500D02*
D03*
X-217500Y-105000D02*
D03*
X-99000Y-105000D02*
D03*
X-104000Y-110000D02*
D03*
Y-100000D02*
D03*
X-94000D02*
D03*
X-125000Y-248750D02*
D03*
X-102500Y-217500D02*
D03*
X-71250Y-200000D02*
D03*
Y-190000D02*
D03*
Y-180000D02*
D03*
Y-170000D02*
D03*
Y-160000D02*
D03*
X-188750D02*
D03*
Y-170000D02*
D03*
Y-180000D02*
D03*
Y-190000D02*
D03*
Y-200000D02*
D03*
X-220000Y-217500D02*
D03*
X218450Y202500D02*
D03*
X148450Y202500D02*
D03*
X78450Y202500D02*
D03*
Y102500D02*
D03*
X148450Y102500D02*
D03*
X218450Y102500D02*
D03*
X207500Y107500D02*
D03*
X137500Y107500D02*
D03*
X62500Y107500D02*
D03*
X67500Y207500D02*
D03*
X137500Y207500D02*
D03*
X207500Y207500D02*
D03*
X-210000Y-248750D02*
D03*
X-242500Y-248750D02*
D03*
X-94000Y-110000D02*
D03*
X-281250Y109050D02*
D03*
X15000Y184250D02*
D03*
Y197250D02*
D03*
X42500Y190750D02*
D03*
X15000Y171250D02*
D03*
Y158250D02*
D03*
X42500Y164750D02*
D03*
X15000Y145250D02*
D03*
Y132250D02*
D03*
X42500Y138750D02*
D03*
Y121250D02*
D03*
Y110000D02*
D03*
X-38000Y105000D02*
D03*
X-38500Y203750D02*
D03*
X-52500Y322500D02*
D03*
Y292500D02*
D03*
Y280000D02*
D03*
Y246250D02*
D03*
Y232500D02*
D03*
X-117500Y288250D02*
D03*
Y243250D02*
D03*
Y333250D02*
D03*
X150000Y347500D02*
D03*
X125000D02*
D03*
X-147500Y337465D02*
D03*
X-12500Y-390000D02*
D03*
X-6250Y-390750D02*
D03*
X0Y-391500D02*
D03*
X6250Y-390750D02*
D03*
X12500Y-390250D02*
D03*
X332582Y206450D02*
D03*
X335707Y201038D02*
D03*
X339049Y195750D02*
D03*
X341957Y190212D02*
D03*
X344866Y184675D02*
D03*
X-345083Y184800D02*
D03*
X-341958Y190212D02*
D03*
X-339049Y195750D02*
D03*
X-335707Y201038D02*
D03*
X-332366Y206325D02*
D03*
X-212500Y-100000D02*
D03*
X-222500D02*
D03*
X-159500Y170000D02*
D03*
X-150000D02*
D03*
X-231250Y83650D02*
D03*
X-225000Y100000D02*
D03*
Y110000D02*
D03*
X-167500Y129000D02*
D03*
X-140500Y110000D02*
D03*
X-151500Y105000D02*
D03*
X-82500Y105000D02*
D03*
X-52500Y138500D02*
D03*
Y126000D02*
D03*
X-87500Y-274499D02*
D03*
X-140000Y-63100D02*
D03*
X-128750Y-83750D02*
D03*
X-202500Y-50400D02*
D03*
X-237500Y-75800D02*
D03*
X-162500D02*
D03*
X44500Y-213750D02*
D03*
X-92500Y105000D02*
D03*
X-132500Y13100D02*
D03*
Y-12300D02*
D03*
X-33000Y203750D02*
D03*
D63*
X-266250Y-76250D02*
Y-63750D01*
Y30000D02*
Y51250D01*
X-260000Y57500D01*
X201250Y-303750D02*
X204375Y-300625D01*
X196250Y-308750D02*
X201250Y-303750D01*
X183750Y-312500D02*
X196250Y-308750D01*
D64*
X82500Y-327501D02*
D03*
X82500Y-297501D02*
D03*
X42500Y-297499D02*
D03*
X42500Y-327499D02*
D03*
X-12500Y-322500D02*
D03*
X-12500Y-292500D02*
D03*
X7500D02*
D03*
X7500Y-322500D02*
D03*
X72500Y-215001D02*
D03*
X72500Y-245001D02*
D03*
D65*
X42000Y258750D02*
D03*
X-12000D02*
D03*
X42000Y328750D02*
D03*
X-12000D02*
D03*
D66*
X165000Y1500D02*
D03*
X165000Y63500D02*
D03*
X105000Y1500D02*
D03*
X105000Y63500D02*
D03*
D67*
X234041Y-129970D02*
D03*
X255959Y-85030D02*
D03*
D68*
X40360Y-240000D02*
D03*
X-5360D02*
D03*
D69*
X102500Y-258500D02*
D03*
Y-216500D02*
D03*
X-210000Y164000D02*
D03*
Y206000D02*
D03*
D70*
X243850Y120005D02*
D03*
X173850Y220005D02*
D03*
X243850Y220005D02*
D03*
X173850Y120005D02*
D03*
X103850Y120005D02*
D03*
Y220005D02*
D03*
D71*
X237500Y155000D02*
D03*
X167500Y255000D02*
D03*
X237500Y255000D02*
D03*
X167500Y155000D02*
D03*
X97500Y155000D02*
D03*
Y255000D02*
D03*
D72*
X243850Y115155D02*
D03*
X231150D02*
D03*
X218450D02*
D03*
X243850Y174845D02*
D03*
X231150D02*
D03*
X218450D02*
D03*
X256550D02*
D03*
Y115155D02*
D03*
X173850Y215155D02*
D03*
X161150D02*
D03*
X148450D02*
D03*
X173850Y274845D02*
D03*
X161150D02*
D03*
X148450D02*
D03*
X186550D02*
D03*
Y215155D02*
D03*
X243850Y215155D02*
D03*
X231150D02*
D03*
X218450D02*
D03*
X243850Y274845D02*
D03*
X231150D02*
D03*
X218450D02*
D03*
X256550D02*
D03*
Y215155D02*
D03*
X173850Y115155D02*
D03*
X161150D02*
D03*
X148450D02*
D03*
X173850Y174845D02*
D03*
X161150D02*
D03*
X148450D02*
D03*
X186550D02*
D03*
Y115155D02*
D03*
X103850Y115155D02*
D03*
X91150D02*
D03*
X78450D02*
D03*
X103850Y174845D02*
D03*
X91150D02*
D03*
X78450D02*
D03*
X116550D02*
D03*
Y115155D02*
D03*
X103850Y215155D02*
D03*
X91150D02*
D03*
X78450D02*
D03*
X103850Y274845D02*
D03*
X91150D02*
D03*
X78450D02*
D03*
X116550D02*
D03*
Y215155D02*
D03*
D73*
X215893Y-272643D02*
D03*
X237106Y-293856D02*
D03*
X258107Y-273107D02*
D03*
X236894Y-251894D02*
D03*
D74*
X140000Y-310000D02*
D03*
Y-260000D02*
D03*
D75*
X205000Y-261750D02*
Y-160000D01*
Y-261750D02*
X214479Y-271229D01*
M02*
