G04 Layer_Color=32896*
%FSAX24Y24*%
%MOIN*%
G70*
G01*
G75*
%ADD73C,0.0039*%
G36*
X115739Y085786D02*
X115752Y085785D01*
X115765Y085784D01*
X115781Y085782D01*
X115799Y085778D01*
X115817Y085774D01*
X115838Y085767D01*
X115859Y085761D01*
X115879Y085752D01*
X115901Y085741D01*
X115922Y085729D01*
X115943Y085715D01*
X115962Y085697D01*
X115981Y085679D01*
X115982Y085678D01*
X115985Y085673D01*
X115990Y085668D01*
X115995Y085659D01*
X116003Y085647D01*
X116011Y085633D01*
X116019Y085616D01*
X116028Y085598D01*
X116037Y085576D01*
X116044Y085551D01*
X116052Y085525D01*
X116059Y085495D01*
X116064Y085462D01*
X116068Y085427D01*
X116072Y085390D01*
Y085350D01*
X115588D01*
Y085349D01*
Y085346D01*
Y085341D01*
X115589Y085336D01*
X115590Y085328D01*
X115591Y085319D01*
X115594Y085301D01*
X115600Y085279D01*
X115607Y085256D01*
X115618Y085234D01*
X115633Y085214D01*
X115635D01*
X115636Y085212D01*
X115641Y085207D01*
X115651Y085199D01*
X115664Y085191D01*
X115680Y085183D01*
X115700Y085175D01*
X115722Y085169D01*
X115734Y085168D01*
X115746Y085167D01*
X115754D01*
X115761Y085168D01*
X115772Y085171D01*
X115784Y085173D01*
X115796Y085177D01*
X115809Y085184D01*
X115821Y085191D01*
X115823Y085192D01*
X115827Y085196D01*
X115832Y085202D01*
X115839Y085211D01*
X115848Y085222D01*
X115855Y085236D01*
X115863Y085253D01*
X115870Y085272D01*
X116062Y085239D01*
Y085238D01*
X116060Y085235D01*
X116058Y085230D01*
X116055Y085222D01*
X116051Y085213D01*
X116046Y085203D01*
X116040Y085191D01*
X116033Y085179D01*
X116017Y085153D01*
X115996Y085127D01*
X115972Y085101D01*
X115958Y085089D01*
X115944Y085078D01*
X115943Y085077D01*
X115941Y085075D01*
X115936Y085072D01*
X115930Y085069D01*
X115922Y085065D01*
X115912Y085060D01*
X115901Y085056D01*
X115889Y085050D01*
X115875Y085045D01*
X115860Y085040D01*
X115843Y085036D01*
X115826Y085032D01*
X115807Y085028D01*
X115786Y085025D01*
X115766Y085024D01*
X115744Y085023D01*
X115735D01*
X115725Y085024D01*
X115712Y085025D01*
X115697Y085026D01*
X115678Y085030D01*
X115659Y085033D01*
X115637Y085038D01*
X115614Y085045D01*
X115591Y085054D01*
X115568Y085063D01*
X115544Y085075D01*
X115522Y085090D01*
X115500Y085106D01*
X115480Y085125D01*
X115462Y085146D01*
X115461Y085148D01*
X115459Y085151D01*
X115455Y085156D01*
X115451Y085165D01*
X115445Y085175D01*
X115439Y085186D01*
X115432Y085200D01*
X115426Y085215D01*
X115419Y085233D01*
X115413Y085253D01*
X115406Y085273D01*
X115401Y085295D01*
X115396Y085319D01*
X115393Y085344D01*
X115391Y085372D01*
X115390Y085399D01*
Y085401D01*
Y085407D01*
X115391Y085416D01*
Y085428D01*
X115393Y085444D01*
X115395Y085462D01*
X115397Y085481D01*
X115402Y085503D01*
X115406Y085525D01*
X115413Y085548D01*
X115420Y085572D01*
X115429Y085596D01*
X115440Y085619D01*
X115453Y085642D01*
X115467Y085663D01*
X115484Y085683D01*
X115485Y085684D01*
X115488Y085688D01*
X115494Y085693D01*
X115501Y085700D01*
X115510Y085707D01*
X115522Y085716D01*
X115535Y085726D01*
X115549Y085736D01*
X115566Y085744D01*
X115584Y085754D01*
X115604Y085763D01*
X115626Y085771D01*
X115648Y085777D01*
X115672Y085783D01*
X115698Y085786D01*
X115724Y085787D01*
X115732D01*
X115739Y085786D01*
D02*
G37*
G36*
X114389Y085039D02*
X114195D01*
Y085771D01*
X114389D01*
Y085039D01*
D02*
G37*
G36*
X113994D02*
X113815D01*
Y085148D01*
X113813Y085146D01*
X113810Y085143D01*
X113807Y085139D01*
X113798Y085128D01*
X113786Y085115D01*
X113771Y085101D01*
X113754Y085084D01*
X113732Y085070D01*
X113709Y085056D01*
X113708D01*
X113705Y085055D01*
X113702Y085052D01*
X113698Y085050D01*
X113691Y085048D01*
X113685Y085046D01*
X113667Y085039D01*
X113647Y085034D01*
X113623Y085028D01*
X113598Y085024D01*
X113572Y085023D01*
X113560D01*
X113553Y085024D01*
X113546Y085025D01*
X113528Y085027D01*
X113508Y085031D01*
X113486Y085036D01*
X113463Y085044D01*
X113440Y085055D01*
X113439D01*
X113438Y085056D01*
X113434Y085058D01*
X113430Y085061D01*
X113420Y085068D01*
X113408Y085079D01*
X113394Y085091D01*
X113380Y085107D01*
X113367Y085125D01*
X113356Y085145D01*
Y085146D01*
X113355Y085149D01*
X113353Y085152D01*
X113351Y085156D01*
X113350Y085162D01*
X113348Y085169D01*
X113346Y085178D01*
X113344Y085188D01*
X113340Y085199D01*
X113338Y085211D01*
X113336Y085224D01*
X113335Y085238D01*
X113333Y085254D01*
X113332Y085271D01*
X113331Y085307D01*
Y085771D01*
X113524D01*
Y085434D01*
Y085432D01*
Y085427D01*
Y085420D01*
Y085410D01*
Y085397D01*
X113525Y085384D01*
Y085368D01*
Y085353D01*
X113526Y085320D01*
X113527Y085304D01*
X113528Y085290D01*
X113529Y085275D01*
X113531Y085263D01*
X113532Y085253D01*
X113534Y085245D01*
X113535Y085244D01*
X113536Y085239D01*
X113539Y085233D01*
X113543Y085225D01*
X113548Y085216D01*
X113555Y085208D01*
X113562Y085199D01*
X113572Y085190D01*
X113573Y085189D01*
X113578Y085187D01*
X113583Y085184D01*
X113592Y085180D01*
X113603Y085177D01*
X113615Y085174D01*
X113629Y085172D01*
X113644Y085171D01*
X113653D01*
X113662Y085172D01*
X113674Y085174D01*
X113687Y085177D01*
X113702Y085181D01*
X113717Y085188D01*
X113732Y085197D01*
X113734Y085198D01*
X113738Y085202D01*
X113745Y085208D01*
X113754Y085215D01*
X113762Y085225D01*
X113771Y085237D01*
X113779Y085250D01*
X113785Y085265D01*
X113786Y085267D01*
Y085269D01*
X113787Y085273D01*
X113788Y085279D01*
X113790Y085285D01*
X113792Y085294D01*
X113793Y085304D01*
X113794Y085316D01*
X113796Y085330D01*
X113797Y085346D01*
X113798Y085365D01*
X113799Y085385D01*
Y085408D01*
X113800Y085433D01*
Y085461D01*
Y085771D01*
X113994D01*
Y085039D01*
D02*
G37*
G36*
X114389Y085869D02*
X114195D01*
Y086048D01*
X114389D01*
Y085869D01*
D02*
G37*
G36*
X112736Y086064D02*
X112752Y086062D01*
X112771Y086060D01*
X112791Y086058D01*
X112812Y086055D01*
X112835Y086050D01*
X112859Y086045D01*
X112883Y086039D01*
X112909Y086032D01*
X112933Y086022D01*
X112956Y086012D01*
X112977Y086000D01*
X112998Y085986D01*
X112999Y085985D01*
X113003Y085983D01*
X113008Y085978D01*
X113016Y085972D01*
X113023Y085963D01*
X113033Y085954D01*
X113044Y085942D01*
X113055Y085929D01*
X113067Y085915D01*
X113078Y085898D01*
X113090Y085880D01*
X113101Y085861D01*
X113111Y085841D01*
X113121Y085818D01*
X113128Y085794D01*
X113135Y085768D01*
X112933Y085730D01*
Y085731D01*
X112932Y085733D01*
X112930Y085738D01*
X112928Y085742D01*
X112926Y085749D01*
X112923Y085756D01*
X112914Y085773D01*
X112903Y085791D01*
X112889Y085811D01*
X112873Y085830D01*
X112852Y085847D01*
X112851D01*
X112850Y085849D01*
X112846Y085851D01*
X112841Y085854D01*
X112835Y085857D01*
X112829Y085861D01*
X112820Y085865D01*
X112811Y085869D01*
X112791Y085877D01*
X112765Y085884D01*
X112737Y085889D01*
X112705Y085891D01*
X112692D01*
X112683Y085890D01*
X112673Y085889D01*
X112659Y085886D01*
X112644Y085883D01*
X112629Y085880D01*
X112612Y085876D01*
X112595Y085870D01*
X112577Y085863D01*
X112560Y085855D01*
X112542Y085845D01*
X112525Y085834D01*
X112509Y085821D01*
X112493Y085806D01*
X112492Y085804D01*
X112490Y085801D01*
X112486Y085797D01*
X112481Y085789D01*
X112475Y085780D01*
X112468Y085769D01*
X112462Y085757D01*
X112454Y085742D01*
X112446Y085726D01*
X112440Y085707D01*
X112433Y085686D01*
X112427Y085663D01*
X112422Y085639D01*
X112418Y085613D01*
X112416Y085585D01*
X112415Y085554D01*
Y085552D01*
Y085547D01*
X112416Y085537D01*
Y085525D01*
X112417Y085509D01*
X112419Y085493D01*
X112421Y085473D01*
X112424Y085453D01*
X112429Y085432D01*
X112434Y085409D01*
X112441Y085387D01*
X112448Y085364D01*
X112457Y085342D01*
X112468Y085321D01*
X112480Y085302D01*
X112494Y085284D01*
X112495Y085283D01*
X112498Y085281D01*
X112503Y085275D01*
X112509Y085270D01*
X112517Y085263D01*
X112526Y085256D01*
X112538Y085248D01*
X112550Y085239D01*
X112564Y085231D01*
X112581Y085223D01*
X112597Y085215D01*
X112616Y085209D01*
X112636Y085203D01*
X112657Y085199D01*
X112679Y085196D01*
X112703Y085195D01*
X112714D01*
X112720Y085196D01*
X112727D01*
X112744Y085198D01*
X112763Y085201D01*
X112784Y085206D01*
X112807Y085211D01*
X112831Y085220D01*
X112832D01*
X112834Y085221D01*
X112838Y085222D01*
X112842Y085224D01*
X112854Y085230D01*
X112869Y085237D01*
X112887Y085246D01*
X112905Y085256D01*
X112924Y085267D01*
X112942Y085280D01*
Y085409D01*
X112710D01*
Y085579D01*
X113148D01*
Y085176D01*
X113147Y085175D01*
X113145Y085174D01*
X113141Y085171D01*
X113136Y085166D01*
X113129Y085161D01*
X113122Y085154D01*
X113112Y085148D01*
X113101Y085140D01*
X113088Y085131D01*
X113075Y085122D01*
X113059Y085114D01*
X113042Y085105D01*
X113024Y085095D01*
X113005Y085086D01*
X112984Y085077D01*
X112962Y085068D01*
X112961D01*
X112957Y085066D01*
X112950Y085063D01*
X112941Y085060D01*
X112930Y085057D01*
X112917Y085052D01*
X112902Y085049D01*
X112886Y085045D01*
X112868Y085040D01*
X112849Y085036D01*
X112829Y085032D01*
X112807Y085028D01*
X112762Y085023D01*
X112739Y085022D01*
X112716Y085021D01*
X112701D01*
X112690Y085022D01*
X112676Y085023D01*
X112659Y085024D01*
X112642Y085026D01*
X112622Y085030D01*
X112601Y085033D01*
X112580Y085037D01*
X112557Y085043D01*
X112533Y085048D01*
X112509Y085056D01*
X112486Y085065D01*
X112463Y085074D01*
X112440Y085086D01*
X112439Y085087D01*
X112434Y085090D01*
X112429Y085093D01*
X112420Y085098D01*
X112411Y085106D01*
X112399Y085114D01*
X112387Y085124D01*
X112374Y085136D01*
X112360Y085148D01*
X112346Y085162D01*
X112330Y085178D01*
X112316Y085195D01*
X112302Y085213D01*
X112288Y085233D01*
X112276Y085254D01*
X112264Y085277D01*
X112263Y085278D01*
X112262Y085282D01*
X112258Y085289D01*
X112255Y085298D01*
X112251Y085309D01*
X112245Y085324D01*
X112240Y085339D01*
X112234Y085356D01*
X112229Y085376D01*
X112223Y085397D01*
X112219Y085419D01*
X112213Y085442D01*
X112210Y085467D01*
X112207Y085492D01*
X112206Y085518D01*
X112205Y085545D01*
Y085548D01*
Y085552D01*
Y085561D01*
X112206Y085572D01*
X112207Y085586D01*
X112208Y085602D01*
X112210Y085620D01*
X112213Y085639D01*
X112217Y085660D01*
X112221Y085683D01*
X112227Y085706D01*
X112232Y085730D01*
X112240Y085754D01*
X112248Y085778D01*
X112258Y085802D01*
X112270Y085825D01*
X112271Y085826D01*
X112274Y085831D01*
X112277Y085837D01*
X112282Y085846D01*
X112290Y085856D01*
X112298Y085868D01*
X112307Y085881D01*
X112319Y085895D01*
X112332Y085910D01*
X112347Y085926D01*
X112362Y085941D01*
X112380Y085957D01*
X112398Y085973D01*
X112419Y085987D01*
X112441Y086001D01*
X112464Y086014D01*
X112465Y086015D01*
X112468Y086017D01*
X112474Y086019D01*
X112481Y086022D01*
X112491Y086026D01*
X112502Y086031D01*
X112515Y086035D01*
X112530Y086039D01*
X112547Y086044D01*
X112565Y086048D01*
X112585Y086053D01*
X112607Y086057D01*
X112630Y086060D01*
X112654Y086062D01*
X112679Y086065D01*
X112724D01*
X112736Y086064D01*
D02*
G37*
G36*
X115255Y085039D02*
X115076D01*
Y085145D01*
X115074Y085143D01*
X115072Y085140D01*
X115068Y085137D01*
X115059Y085125D01*
X115047Y085112D01*
X115030Y085096D01*
X115013Y085080D01*
X114992Y085066D01*
X114970Y085052D01*
X114969D01*
X114968Y085051D01*
X114963Y085050D01*
X114959Y085048D01*
X114947Y085043D01*
X114932Y085038D01*
X114913Y085033D01*
X114892Y085027D01*
X114871Y085024D01*
X114848Y085023D01*
X114842D01*
X114836Y085024D01*
X114827D01*
X114816Y085026D01*
X114803Y085028D01*
X114789Y085032D01*
X114773Y085036D01*
X114757Y085040D01*
X114739Y085047D01*
X114722Y085056D01*
X114703Y085066D01*
X114686Y085077D01*
X114667Y085091D01*
X114650Y085106D01*
X114632Y085124D01*
X114631Y085125D01*
X114629Y085128D01*
X114624Y085134D01*
X114618Y085142D01*
X114612Y085153D01*
X114604Y085165D01*
X114596Y085180D01*
X114587Y085197D01*
X114579Y085216D01*
X114571Y085237D01*
X114563Y085261D01*
X114557Y085286D01*
X114551Y085314D01*
X114547Y085343D01*
X114544Y085375D01*
X114543Y085408D01*
Y085410D01*
Y085416D01*
X114544Y085425D01*
Y085438D01*
X114545Y085454D01*
X114547Y085471D01*
X114550Y085492D01*
X114554Y085513D01*
X114558Y085536D01*
X114563Y085559D01*
X114571Y085582D01*
X114579Y085606D01*
X114589Y085628D01*
X114601Y085650D01*
X114614Y085671D01*
X114629Y085690D01*
X114630Y085691D01*
X114633Y085694D01*
X114638Y085698D01*
X114644Y085705D01*
X114653Y085713D01*
X114664Y085720D01*
X114676Y085729D01*
X114689Y085739D01*
X114704Y085748D01*
X114722Y085756D01*
X114739Y085764D01*
X114759Y085772D01*
X114780Y085778D01*
X114802Y085783D01*
X114826Y085786D01*
X114850Y085787D01*
X114855D01*
X114862Y085786D01*
X114871D01*
X114881Y085784D01*
X114894Y085782D01*
X114907Y085778D01*
X114922Y085774D01*
X114938Y085768D01*
X114956Y085762D01*
X114973Y085753D01*
X114991Y085743D01*
X115009Y085732D01*
X115027Y085718D01*
X115044Y085703D01*
X115062Y085684D01*
Y086048D01*
X115255D01*
Y085039D01*
D02*
G37*
%LPC*%
G36*
X115735Y085639D02*
X115729D01*
X115724Y085638D01*
X115713Y085637D01*
X115698Y085634D01*
X115682Y085628D01*
X115664Y085620D01*
X115648Y085608D01*
X115639Y085601D01*
X115631Y085592D01*
X115629Y085590D01*
X115625Y085584D01*
X115618Y085574D01*
X115611Y085560D01*
X115603Y085542D01*
X115596Y085520D01*
X115592Y085496D01*
X115591Y085468D01*
X115879D01*
Y085469D01*
Y085471D01*
Y085475D01*
X115878Y085482D01*
X115877Y085489D01*
X115876Y085496D01*
X115873Y085515D01*
X115867Y085536D01*
X115860Y085556D01*
X115850Y085577D01*
X115836Y085595D01*
X115833Y085597D01*
X115828Y085601D01*
X115819Y085609D01*
X115807Y085618D01*
X115793Y085625D01*
X115776Y085633D01*
X115756Y085637D01*
X115735Y085639D01*
D02*
G37*
G36*
X114901D02*
X114895D01*
X114890Y085638D01*
X114877Y085636D01*
X114861Y085633D01*
X114843Y085626D01*
X114824Y085616D01*
X114814Y085610D01*
X114805Y085602D01*
X114795Y085594D01*
X114786Y085584D01*
Y085583D01*
X114784Y085582D01*
X114782Y085578D01*
X114779Y085574D01*
X114775Y085567D01*
X114772Y085561D01*
X114768Y085552D01*
X114763Y085543D01*
X114759Y085532D01*
X114755Y085520D01*
X114751Y085506D01*
X114748Y085492D01*
X114745Y085477D01*
X114743Y085459D01*
X114742Y085441D01*
X114740Y085421D01*
Y085420D01*
Y085415D01*
Y085410D01*
Y085402D01*
X114742Y085392D01*
X114743Y085381D01*
Y085368D01*
X114745Y085356D01*
X114748Y085328D01*
X114754Y085301D01*
X114761Y085273D01*
X114767Y085262D01*
X114772Y085251D01*
X114773Y085250D01*
X114774Y085248D01*
X114778Y085245D01*
X114781Y085239D01*
X114792Y085227D01*
X114806Y085214D01*
X114825Y085200D01*
X114846Y085188D01*
X114860Y085183D01*
X114873Y085179D01*
X114887Y085177D01*
X114902Y085176D01*
X114909D01*
X114913Y085177D01*
X114926Y085179D01*
X114942Y085183D01*
X114959Y085189D01*
X114979Y085200D01*
X114987Y085206D01*
X114997Y085213D01*
X115007Y085222D01*
X115016Y085232D01*
X115017Y085233D01*
X115018Y085234D01*
X115020Y085238D01*
X115024Y085243D01*
X115027Y085248D01*
X115031Y085256D01*
X115036Y085265D01*
X115040Y085274D01*
X115044Y085285D01*
X115048Y085298D01*
X115052Y085313D01*
X115055Y085328D01*
X115059Y085344D01*
X115061Y085362D01*
X115063Y085381D01*
Y085402D01*
Y085403D01*
Y085408D01*
Y085414D01*
X115062Y085423D01*
Y085433D01*
X115061Y085445D01*
X115060Y085458D01*
X115057Y085472D01*
X115052Y085502D01*
X115043Y085532D01*
X115032Y085560D01*
X115025Y085573D01*
X115017Y085584D01*
Y085585D01*
X115015Y085586D01*
X115009Y085592D01*
X115000Y085601D01*
X114985Y085612D01*
X114969Y085622D01*
X114949Y085631D01*
X114926Y085637D01*
X114914Y085638D01*
X114901Y085639D01*
D02*
G37*
%LPD*%
D73*
X100788Y083483D02*
G03*
X114697Y107577I-000788J016517D01*
G01*
X099606Y084272D02*
G03*
X099213Y084665I-000394J000000D01*
G01*
X099213Y083465D02*
G03*
X099606Y083858I000000J000394D01*
G01*
X100787Y084665D02*
G03*
X100394Y084272I000000J-000394D01*
G01*
X100394Y083874D02*
G03*
X100787Y083480I000394J000000D01*
G01*
X113769Y108404D02*
G03*
X113913Y108942I-000197J000341D01*
G01*
X112886Y108349D02*
G03*
X113424Y108205I000341J000197D01*
G01*
X114714Y107586D02*
G03*
X114176Y107730I-000341J-000197D01*
G01*
X113818Y107523D02*
G03*
X113674Y106985I000197J-000341D01*
G01*
X085838Y107722D02*
G03*
X085300Y107578I-000197J-000341D01*
G01*
X086326Y106985D02*
G03*
X086182Y107523I-000341J000197D01*
G01*
X086074Y108950D02*
G03*
X086218Y108412I000341J-000197D01*
G01*
X086576Y108205D02*
G03*
X087114Y108349I000197J000341D01*
G01*
X113910Y108941D02*
G03*
X086089Y108939I-013910J-008941D01*
G01*
X085302Y107577D02*
G03*
X099213Y083483I014698J-007577D01*
G01*
X082677Y118504D02*
X117323D01*
Y081496D02*
Y118504D01*
X082677Y081496D02*
X117323D01*
X082677D02*
Y118504D01*
X099213Y084665D02*
X099213Y084665D01*
X099606Y084272D02*
X099606Y083858D01*
X100394Y083874D02*
X100394Y084272D01*
X113424Y108205D02*
X113769Y108404D01*
X113818Y107523D02*
X114176Y107730D01*
X113674Y106985D02*
Y106985D01*
X085838Y107722D02*
X086182Y107523D01*
X086218Y108412D02*
X086576Y108205D01*
X087114Y108349D02*
X087114Y108349D01*
M02*
