G04 Layer_Color=32896*
%FSLAX44Y44*%
%MOMM*%
G71*
G01*
G75*
%ADD53C,0.2540*%
%ADD54C,0.1270*%
%ADD55C,0.1500*%
%ADD76C,0.1000*%
%ADD77C,0.2000*%
%ADD78C,0.3000*%
%ADD80C,0.1200*%
%ADD134C,0.5080*%
G36*
X102501Y-238499D02*
X98501Y-232499D01*
X106501D01*
X102501Y-238499D01*
D02*
G37*
G36*
X20501Y-244001D02*
X14501Y-240001D01*
X20501Y-236001D01*
Y-244001D01*
D02*
G37*
G36*
X55000Y-172000D02*
X-56250D01*
Y-152000D01*
X55000D01*
Y-172000D01*
D02*
G37*
G36*
X20501Y-218001D02*
X14501Y-214001D01*
X20501Y-210001D01*
Y-218001D01*
D02*
G37*
G36*
X-11717Y-256086D02*
X-10862Y-256941D01*
X-10399Y-258059D01*
Y-258664D01*
Y-259269D01*
X-10862Y-260387D01*
X-11717Y-261242D01*
X-12835Y-261705D01*
X-14045D01*
X-15163Y-261242D01*
X-16019Y-260387D01*
X-16481Y-259269D01*
Y-258664D01*
Y-258059D01*
X-16019Y-256941D01*
X-15163Y-256086D01*
X-14045Y-255623D01*
X-12835D01*
X-11717Y-256086D01*
D02*
G37*
G36*
X118283Y-263586D02*
X119138Y-264441D01*
X119601Y-265559D01*
Y-266164D01*
Y-266769D01*
X119138Y-267887D01*
X118283Y-268742D01*
X117165Y-269205D01*
X115955D01*
X114837Y-268742D01*
X113982Y-267887D01*
X113518Y-266769D01*
Y-266164D01*
Y-265559D01*
X113982Y-264441D01*
X114837Y-263586D01*
X115955Y-263123D01*
X117165D01*
X118283Y-263586D01*
D02*
G37*
G36*
X117500Y-248500D02*
X87500D01*
Y-244500D01*
X117500D01*
Y-248500D01*
D02*
G37*
G36*
X12500Y-259050D02*
X6500D01*
Y-221000D01*
X12500D01*
Y-259050D01*
D02*
G37*
G36*
X-5000Y266750D02*
X-19000D01*
Y292750D01*
X-5000D01*
Y266750D01*
D02*
G37*
G36*
Y224750D02*
X-19000D01*
Y250750D01*
X-5000D01*
Y224750D01*
D02*
G37*
G36*
X-5000Y336750D02*
X-19000D01*
Y362750D01*
X-5000D01*
Y336750D01*
D02*
G37*
G36*
Y294750D02*
X-19000D01*
Y320750D01*
X-5000D01*
Y294750D01*
D02*
G37*
G36*
X-194217Y158914D02*
X-193362Y158059D01*
X-192899Y156941D01*
Y156336D01*
Y155731D01*
X-193362Y154613D01*
X-194217Y153758D01*
X-195335Y153295D01*
X-196545D01*
X-197663Y153758D01*
X-198519Y154613D01*
X-198981Y155731D01*
Y156336D01*
Y156941D01*
X-198519Y158059D01*
X-197663Y158914D01*
X-196545Y159377D01*
X-195335D01*
X-194217Y158914D01*
D02*
G37*
G36*
X60000Y-149500D02*
X-56250D01*
Y-129500D01*
X60000D01*
Y-149500D01*
D02*
G37*
G36*
X-209999Y184001D02*
X-213999Y190001D01*
X-205999D01*
X-209999Y184001D01*
D02*
G37*
G36*
X-195000Y174000D02*
X-225000D01*
Y178000D01*
X-195000D01*
Y174000D01*
D02*
G37*
D53*
X210000Y115000D02*
Y175000D01*
Y115000D02*
X212500D01*
X210000Y175000D02*
X212500D01*
X262500D02*
X265000D01*
X262500Y115000D02*
X265000D01*
Y175000D01*
X140000Y215000D02*
Y275000D01*
Y215000D02*
X142500D01*
X140000Y275000D02*
X142500D01*
X192500D02*
X195000D01*
X192500Y215000D02*
X195000D01*
Y275000D01*
X210000Y215000D02*
Y275000D01*
Y215000D02*
X212500D01*
X210000Y275000D02*
X212500D01*
X262500D02*
X265000D01*
X262500Y215000D02*
X265000D01*
Y275000D01*
X140000Y115000D02*
Y175000D01*
Y115000D02*
X142500D01*
X140000Y175000D02*
X142500D01*
X192500D02*
X195000D01*
X192500Y115000D02*
X195000D01*
Y175000D01*
X70000Y115000D02*
Y175000D01*
Y115000D02*
X72500D01*
X70000Y175000D02*
X72500D01*
X122500D02*
X125000D01*
X122500Y115000D02*
X125000D01*
Y175000D01*
X70000Y215000D02*
Y275000D01*
Y215000D02*
X72500D01*
X70000Y275000D02*
X72500D01*
X122500D02*
X125000D01*
X122500Y215000D02*
X125000D01*
Y275000D01*
X443040Y-470000D02*
X462540D01*
X443040Y470000D02*
X462540D01*
X440000Y473040D02*
Y492540D01*
X-440000Y473040D02*
Y492540D01*
D54*
X460000Y-470000D02*
Y-39545D01*
Y31925D02*
Y470000D01*
Y-470000D02*
X465080Y-454760D01*
X454920D02*
X460000Y-470000D01*
X454920Y454760D02*
X460000Y470000D01*
X465080Y454760D01*
X31925Y490000D02*
X440000D01*
X-440000D02*
X-39545D01*
X424760Y495080D02*
X440000Y490000D01*
X424760Y484920D02*
X440000Y490000D01*
X-440000D02*
X-424760Y484920D01*
X-440000Y490000D02*
X-424760Y495080D01*
X459577Y-29446D02*
X461028Y-29930D01*
X461996Y-30898D01*
X462479Y-32349D01*
Y-32832D01*
X461996Y-34283D01*
X461028Y-35251D01*
X459577Y-35735D01*
X459093D01*
X457642Y-35251D01*
X456675Y-34283D01*
X456191Y-32832D01*
Y-32349D01*
X456675Y-30898D01*
X457642Y-29930D01*
X459577Y-29446D01*
X461996D01*
X464414Y-29930D01*
X465865Y-30898D01*
X466349Y-32349D01*
Y-33316D01*
X465865Y-34767D01*
X464898Y-35251D01*
X456191Y-21852D02*
X462963Y-26689D01*
Y-19434D01*
X456191Y-21852D02*
X466349D01*
X465382Y-17160D02*
X465865Y-17644D01*
X466349Y-17160D01*
X465865Y-16677D01*
X465382Y-17160D01*
X456191Y-11549D02*
X456675Y-13000D01*
X458126Y-13968D01*
X460544Y-14452D01*
X461996D01*
X464414Y-13968D01*
X465865Y-13000D01*
X466349Y-11549D01*
Y-10582D01*
X465865Y-9131D01*
X464414Y-8163D01*
X461996Y-7680D01*
X460544D01*
X458126Y-8163D01*
X456675Y-9131D01*
X456191Y-10582D01*
Y-11549D01*
Y-2504D02*
X456675Y-3955D01*
X458126Y-4922D01*
X460544Y-5406D01*
X461996D01*
X464414Y-4922D01*
X465865Y-3955D01*
X466349Y-2504D01*
Y-1537D01*
X465865Y-86D01*
X464414Y882D01*
X461996Y1366D01*
X460544D01*
X458126Y882D01*
X456675Y-86D01*
X456191Y-1537D01*
Y-2504D01*
X459577Y3639D02*
X466349D01*
X461512D02*
X460061Y5090D01*
X459577Y6058D01*
Y7509D01*
X460061Y8476D01*
X461512Y8960D01*
X466349D01*
X461512D02*
X460061Y10411D01*
X459577Y11378D01*
Y12830D01*
X460061Y13797D01*
X461512Y14281D01*
X466349D01*
X459577Y17473D02*
X466349D01*
X461512D02*
X460061Y18924D01*
X459577Y19892D01*
Y21343D01*
X460061Y22310D01*
X461512Y22794D01*
X466349D01*
X461512D02*
X460061Y24245D01*
X459577Y25212D01*
Y26663D01*
X460061Y27631D01*
X461512Y28115D01*
X466349D01*
X-33316Y493809D02*
X-34767Y493325D01*
X-35251Y492358D01*
Y491390D01*
X-34767Y490423D01*
X-33800Y489939D01*
X-31865Y489456D01*
X-30414Y488972D01*
X-29446Y488004D01*
X-28963Y487037D01*
Y485586D01*
X-29446Y484618D01*
X-29930Y484135D01*
X-31381Y483651D01*
X-33316D01*
X-34767Y484135D01*
X-35251Y484618D01*
X-35735Y485586D01*
Y487037D01*
X-35251Y488004D01*
X-34283Y488972D01*
X-32832Y489456D01*
X-30898Y489939D01*
X-29930Y490423D01*
X-29446Y491390D01*
Y492358D01*
X-29930Y493325D01*
X-31381Y493809D01*
X-33316D01*
X-24271D02*
X-25722Y493325D01*
X-26206Y492358D01*
Y491390D01*
X-25722Y490423D01*
X-24755Y489939D01*
X-22820Y489456D01*
X-21369Y488972D01*
X-20401Y488004D01*
X-19917Y487037D01*
Y485586D01*
X-20401Y484618D01*
X-20885Y484135D01*
X-22336Y483651D01*
X-24271D01*
X-25722Y484135D01*
X-26206Y484618D01*
X-26689Y485586D01*
Y487037D01*
X-26206Y488004D01*
X-25238Y488972D01*
X-23787Y489456D01*
X-21852Y489939D01*
X-20885Y490423D01*
X-20401Y491390D01*
Y492358D01*
X-20885Y493325D01*
X-22336Y493809D01*
X-24271D01*
X-17160Y484618D02*
X-17644Y484135D01*
X-17160Y483651D01*
X-16677Y484135D01*
X-17160Y484618D01*
X-11549Y493809D02*
X-13000Y493325D01*
X-13968Y491874D01*
X-14452Y489456D01*
Y488004D01*
X-13968Y485586D01*
X-13000Y484135D01*
X-11549Y483651D01*
X-10582D01*
X-9131Y484135D01*
X-8163Y485586D01*
X-7680Y488004D01*
Y489456D01*
X-8163Y491874D01*
X-9131Y493325D01*
X-10582Y493809D01*
X-11549D01*
X-2504D02*
X-3955Y493325D01*
X-4922Y491874D01*
X-5406Y489456D01*
Y488004D01*
X-4922Y485586D01*
X-3955Y484135D01*
X-2504Y483651D01*
X-1537D01*
X-86Y484135D01*
X882Y485586D01*
X1366Y488004D01*
Y489456D01*
X882Y491874D01*
X-86Y493325D01*
X-1537Y493809D01*
X-2504D01*
X3639Y490423D02*
Y483651D01*
Y488488D02*
X5090Y489939D01*
X6058Y490423D01*
X7509D01*
X8476Y489939D01*
X8960Y488488D01*
Y483651D01*
Y488488D02*
X10411Y489939D01*
X11378Y490423D01*
X12830D01*
X13797Y489939D01*
X14281Y488488D01*
Y483651D01*
X17473Y490423D02*
Y483651D01*
Y488488D02*
X18924Y489939D01*
X19892Y490423D01*
X21343D01*
X22310Y489939D01*
X22794Y488488D01*
Y483651D01*
Y488488D02*
X24245Y489939D01*
X25212Y490423D01*
X26663D01*
X27631Y489939D01*
X28115Y488488D01*
Y483651D01*
D55*
X-217500Y-43750D02*
X-216250Y-45915D01*
X-213750D01*
X-212500Y-43750D01*
X-222500D02*
X-221250Y-45915D01*
X-218750D01*
X-217500Y-43750D01*
X-227500D02*
X-226250Y-45915D01*
X-223750D01*
X-222500Y-43750D01*
X76499Y-314501D02*
X88499Y-314501D01*
X82499Y-317501D02*
X82499Y-314501D01*
X76499Y-310501D02*
X88499Y-310501D01*
X82499Y-310501D02*
Y-307501D01*
X36501Y-310499D02*
X48501Y-310499D01*
X42501D02*
X42501Y-307499D01*
X36501Y-314499D02*
X48501Y-314499D01*
X42501Y-314499D02*
X42501Y-317499D01*
X-12499Y-312500D02*
Y-309500D01*
X-18499D02*
X-6499D01*
X-12499Y-305500D02*
Y-302500D01*
X-18499Y-305500D02*
X-6499D01*
X20501Y-214001D02*
X23502Y-214000D01*
X11500D02*
X14501Y-214001D01*
X20501Y-218001D02*
Y-210001D01*
X14501Y-214001D02*
X20501Y-218001D01*
X14501Y-214001D02*
X20501Y-210001D01*
X14501Y-218001D02*
Y-210001D01*
X20501Y-244001D02*
Y-236001D01*
X14501Y-240001D02*
X20501Y-244001D01*
X14501Y-240001D02*
X20501Y-236001D01*
X14501Y-244001D02*
Y-236001D01*
X98501Y-232499D02*
X106501D01*
X102501Y-238499D02*
X106501Y-232499D01*
X98501D02*
X102501Y-238499D01*
X98501D02*
X106501D01*
X72499Y-225001D02*
X72499Y-228001D01*
X66499Y-228001D02*
X78499Y-228001D01*
X72499Y-232001D02*
X72499Y-235001D01*
X66499Y-232001D02*
X78499Y-232001D01*
X220843Y-286077D02*
X229328Y-277592D01*
X222964Y-279713D02*
X225086Y-281835D01*
X223672Y-288906D02*
X232157Y-280420D01*
X227914Y-284663D02*
X230035Y-286784D01*
X244672Y-268158D02*
X253157Y-259673D01*
X248914Y-263915D02*
X251036Y-266037D01*
X241843Y-265330D02*
X250328Y-256844D01*
X243965Y-258966D02*
X246086Y-261087D01*
X-87500Y-174000D02*
X-85500Y-176000D01*
X-77500D01*
X-89500D02*
X-87500Y-174000D01*
X-97500Y-176000D02*
X-89500D01*
X-97500Y-164000D02*
X-89500D01*
X-87500Y-166000D01*
X-85500Y-164000D02*
X-77500D01*
X-87500Y-166000D02*
X-85500Y-164000D01*
X-89500Y-149000D02*
X-87500Y-151000D01*
X-97500Y-149000D02*
X-89500D01*
X-87500Y-151000D02*
X-85500Y-149000D01*
X-77500D01*
X-85500Y-161000D02*
X-77500D01*
X-87500Y-159000D02*
X-85500Y-161000D01*
X-97500D02*
X-89500D01*
X-87500Y-159000D01*
Y-194000D02*
X-85500Y-196000D01*
X-77500D01*
X-89500D02*
X-87500Y-194000D01*
X-97500Y-196000D02*
X-89500D01*
X-97500Y-184000D02*
X-89500D01*
X-87500Y-186000D01*
X-85500Y-184000D02*
X-77500D01*
X-87500Y-186000D02*
X-85500Y-184000D01*
X-205000Y-194000D02*
X-203000Y-196000D01*
X-195000D01*
X-207000D02*
X-205000Y-194000D01*
X-215000Y-196000D02*
X-207000D01*
X-215000Y-184000D02*
X-207000D01*
X-205000Y-186000D01*
X-203000Y-184000D02*
X-195000D01*
X-205000Y-186000D02*
X-203000Y-184000D01*
X-207000Y-149000D02*
X-205000Y-151000D01*
X-215000Y-149000D02*
X-207000D01*
X-205000Y-151000D02*
X-203000Y-149000D01*
X-195000D01*
X-203000Y-161000D02*
X-195000D01*
X-205000Y-159000D02*
X-203000Y-161000D01*
X-215000D02*
X-207000D01*
X-205000Y-159000D01*
Y-174000D02*
X-203000Y-176000D01*
X-195000D01*
X-207000D02*
X-205000Y-174000D01*
X-215000Y-176000D02*
X-207000D01*
X-215000Y-164000D02*
X-207000D01*
X-205000Y-166000D01*
X-203000Y-164000D02*
X-195000D01*
X-205000Y-166000D02*
X-203000Y-164000D01*
X-180500Y45000D02*
X-178500Y47000D01*
X-170500D01*
X-182500D02*
X-180500Y45000D01*
X-190500Y47000D02*
X-182500D01*
X-190500Y35000D02*
X-182500D01*
X-180500Y37000D01*
X-178500Y35000D02*
X-170500D01*
X-180500Y37000D02*
X-178500Y35000D01*
X-180500Y29800D02*
X-178500Y31800D01*
X-170500D01*
X-182500D02*
X-180500Y29800D01*
X-190500Y31800D02*
X-182500D01*
X-190500Y19800D02*
X-182500D01*
X-180500Y21800D01*
X-178500Y19800D02*
X-170500D01*
X-180500Y21800D02*
X-178500Y19800D01*
X-180500Y9100D02*
X-178500Y7100D01*
X-170500D01*
X-182500D02*
X-180500Y9100D01*
X-190500Y7100D02*
X-182500D01*
X-190500Y19100D02*
X-182500D01*
X-180500Y17100D01*
X-178500Y19100D02*
X-170500D01*
X-180500Y17100D02*
X-178500Y19100D01*
X-182500Y6400D02*
X-180500Y4400D01*
X-190500Y6400D02*
X-182500D01*
X-180500Y4400D02*
X-178500Y6400D01*
X-170500D01*
X-178500Y-5600D02*
X-170500D01*
X-180500Y-3600D02*
X-178500Y-5600D01*
X-190500D02*
X-182500D01*
X-180500Y-3600D01*
X-182500Y-6300D02*
X-180500Y-8300D01*
X-190500Y-6300D02*
X-182500D01*
X-180500Y-8300D02*
X-178500Y-6300D01*
X-170500D01*
X-178500Y-18300D02*
X-170500D01*
X-180500Y-16300D02*
X-178500Y-18300D01*
X-190500D02*
X-182500D01*
X-180500Y-16300D01*
X-182500Y-19000D02*
X-180500Y-21000D01*
X-190500Y-19000D02*
X-182500D01*
X-180500Y-21000D02*
X-178500Y-19000D01*
X-170500D01*
X-178500Y-31000D02*
X-170500D01*
X-180500Y-29000D02*
X-178500Y-31000D01*
X-190500D02*
X-182500D01*
X-180500Y-29000D01*
X-182500Y-31700D02*
X-180500Y-33700D01*
X-190500Y-31700D02*
X-182500D01*
X-180500Y-33700D02*
X-178500Y-31700D01*
X-170500D01*
X-178500Y-43700D02*
X-170500D01*
X-180500Y-41700D02*
X-178500Y-43700D01*
X-190500D02*
X-182500D01*
X-180500Y-41700D01*
X-241000Y19550D02*
X-239000Y17550D01*
Y9550D02*
Y17550D01*
X-241000Y19550D02*
X-239000Y21550D01*
Y29550D01*
X-251000Y21550D02*
Y29550D01*
Y21550D02*
X-249000Y19550D01*
X-251000Y9550D02*
Y17550D01*
X-249000Y19550D01*
X-212500Y-43750D02*
X-208000D01*
X-208000Y-43750D01*
X-232000Y-43750D02*
X-227500D01*
X125000Y312500D02*
Y315500D01*
X119000D02*
X131000D01*
X125000Y319500D02*
Y322500D01*
X119000Y319500D02*
X131000D01*
X91250Y312500D02*
Y315500D01*
X85250D02*
X97250D01*
X91250Y319500D02*
Y322500D01*
X85250Y319500D02*
X97250D01*
X158750Y312500D02*
Y315500D01*
X152750D02*
X164750D01*
X158750Y319500D02*
Y322500D01*
X152750Y319500D02*
X164750D01*
X-135000Y238000D02*
Y242000D01*
X-131000Y238000D02*
Y242000D01*
X-139000Y240000D02*
X-135000D01*
X-131000D02*
X-127000D01*
X-139000Y230000D02*
Y250000D01*
X-127000Y230000D02*
Y250000D01*
X-147000Y120750D02*
X-143000D01*
X-147000Y116750D02*
X-143000D01*
X-145000Y120750D02*
Y124750D01*
Y112750D02*
Y116750D01*
X-155000Y124750D02*
X-135000D01*
X-155000Y112750D02*
X-135000D01*
Y328000D02*
Y332000D01*
X-131000Y328000D02*
Y332000D01*
X-139000Y330000D02*
X-135000D01*
X-131000D02*
X-127000D01*
X-139000Y320000D02*
Y340000D01*
X-127000Y320000D02*
Y340000D01*
X-135000Y283000D02*
Y287000D01*
X-131000Y283000D02*
Y287000D01*
X-139000Y285000D02*
X-135000D01*
X-131000D02*
X-127000D01*
X-139000Y275000D02*
Y295000D01*
X-127000Y275000D02*
Y295000D01*
X-232250Y9500D02*
Y29500D01*
X-220250Y9500D02*
Y29500D01*
X-232250Y19500D02*
X-228250D01*
X-224250D02*
X-220250D01*
X-228250Y17500D02*
Y21500D01*
X-224250Y17500D02*
Y21500D01*
X-213999Y190001D02*
X-205999D01*
X-209999Y184001D02*
X-205999Y190001D01*
X-213999D02*
X-209999Y184001D01*
X-213999D02*
X-205999D01*
X286618Y227677D02*
X295811Y235390D01*
X289286Y233831D02*
X291215Y231533D01*
X289189Y224612D02*
X298382Y232326D01*
X293786Y228469D02*
X295714Y226171D01*
X-47001Y214500D02*
X-43001D01*
X-47001Y210500D02*
X-43001D01*
X-45001Y214500D02*
Y218500D01*
Y206500D02*
Y210500D01*
X-55001Y218500D02*
X-35001D01*
X-55001Y206500D02*
X-35001D01*
X20000Y180750D02*
Y200750D01*
X32000Y180750D02*
Y200750D01*
X20000Y190750D02*
X24000D01*
X28000D02*
X32000D01*
X24000Y188750D02*
Y192750D01*
X28000Y188750D02*
Y192750D01*
Y162750D02*
Y166750D01*
X24000Y162750D02*
Y166750D01*
X28000Y164750D02*
X32000D01*
X20000D02*
X24000D01*
X32000Y154750D02*
Y174750D01*
X20000Y154750D02*
Y174750D01*
X24000Y136750D02*
Y140750D01*
X28000Y136750D02*
Y140750D01*
X20000Y138750D02*
X24000D01*
X28000D02*
X32000D01*
X20000Y128750D02*
Y148750D01*
X32000Y128750D02*
Y148750D01*
X-55000Y219000D02*
X-35000D01*
X-55000Y231000D02*
X-35000D01*
X-45000Y219000D02*
Y223000D01*
Y227000D02*
Y231000D01*
X-47000Y223000D02*
X-43000D01*
X-47000Y227000D02*
X-43000D01*
X103867Y-320359D02*
X104820Y-320835D01*
X105772Y-321787D01*
X106248Y-322739D01*
Y-324644D01*
X105772Y-325596D01*
X104820Y-326548D01*
X103867Y-327024D01*
X102439Y-327500D01*
X100059D01*
X98630Y-327024D01*
X97678Y-326548D01*
X96726Y-325596D01*
X96250Y-324644D01*
Y-322739D01*
X96726Y-321787D01*
X97678Y-320835D01*
X98630Y-320359D01*
X104344Y-317550D02*
X104820Y-316598D01*
X106248Y-315169D01*
X96250D01*
X104344Y-310218D02*
X104820Y-309266D01*
X106248Y-307838D01*
X96250D01*
X106248Y-298125D02*
X99583Y-302886D01*
Y-295745D01*
X106248Y-298125D02*
X96250D01*
X62617Y-321609D02*
X63570Y-322085D01*
X64522Y-323037D01*
X64998Y-323989D01*
Y-325894D01*
X64522Y-326846D01*
X63570Y-327798D01*
X62617Y-328274D01*
X61189Y-328750D01*
X58809D01*
X57380Y-328274D01*
X56428Y-327798D01*
X55476Y-326846D01*
X55000Y-325894D01*
Y-323989D01*
X55476Y-323037D01*
X56428Y-322085D01*
X57380Y-321609D01*
X63094Y-318800D02*
X63570Y-317848D01*
X64998Y-316419D01*
X55000D01*
X63094Y-311468D02*
X63570Y-310516D01*
X64998Y-309088D01*
X55000D01*
X64998Y-303184D02*
Y-297947D01*
X61189Y-300804D01*
Y-299375D01*
X60713Y-298423D01*
X60237Y-297947D01*
X58809Y-297471D01*
X57856D01*
X56428Y-297947D01*
X55476Y-298899D01*
X55000Y-300327D01*
Y-301756D01*
X55476Y-303184D01*
X55952Y-303660D01*
X56904Y-304136D01*
X226587Y-240814D02*
X227597Y-240477D01*
X228943D01*
X229953Y-240814D01*
X231300Y-242161D01*
X231636Y-243171D01*
X231636Y-244517D01*
X231300Y-245527D01*
X230626Y-246874D01*
X228943Y-248557D01*
X227597Y-249230D01*
X226587Y-249567D01*
X225240D01*
X224230Y-249230D01*
X222883Y-247883D01*
X222547Y-246874D01*
Y-245527D01*
X222883Y-244517D01*
X224937Y-238491D02*
X224600Y-237481D01*
Y-235461D01*
X217531Y-242531D01*
X219079Y-229940D02*
X219753Y-231287D01*
X219416Y-232970D01*
X218069Y-234990D01*
X217060Y-236000D01*
X215040Y-237346D01*
X213356Y-237683D01*
X212010Y-237010D01*
X211337Y-236337D01*
X210663Y-234990D01*
X211000Y-233307D01*
X212346Y-231287D01*
X213356Y-230277D01*
X215376Y-228930D01*
X217060Y-228594D01*
X218406Y-229267D01*
X219079Y-229940D01*
X211438Y-222299D02*
X210091Y-230378D01*
X205041Y-225328D01*
X211438Y-222299D02*
X204368Y-229368D01*
X205587Y-259064D02*
X206597Y-258727D01*
X207943D01*
X208953Y-259064D01*
X210300Y-260411D01*
X210636Y-261420D01*
X210636Y-262767D01*
X210300Y-263777D01*
X209626Y-265124D01*
X207943Y-266807D01*
X206597Y-267480D01*
X205587Y-267817D01*
X204240D01*
X203230Y-267480D01*
X201884Y-266133D01*
X201547Y-265124D01*
Y-263777D01*
X201884Y-262767D01*
X203937Y-256741D02*
X203600Y-255731D01*
Y-253711D01*
X196531Y-260781D01*
X198079Y-248190D02*
X198753Y-249537D01*
X198416Y-251220D01*
X197069Y-253240D01*
X196060Y-254250D01*
X194040Y-255597D01*
X192356Y-255933D01*
X191010Y-255260D01*
X190337Y-254587D01*
X189663Y-253240D01*
X190000Y-251557D01*
X191346Y-249537D01*
X192356Y-248527D01*
X194376Y-247180D01*
X196060Y-246844D01*
X197406Y-247517D01*
X198079Y-248190D01*
X193131Y-243242D02*
X189428Y-239539D01*
X188754Y-244252D01*
X187744Y-243242D01*
X186735Y-242905D01*
X186061Y-242905D01*
X184715Y-243578D01*
X184041Y-244252D01*
X183368Y-245598D01*
Y-246945D01*
X184041Y-248291D01*
X185051Y-249301D01*
X186398Y-249975D01*
X187071D01*
X188081Y-249638D01*
X171997Y-51250D02*
X160000D01*
X171997D02*
Y-46108D01*
X171426Y-44394D01*
X170855Y-43823D01*
X169712Y-43252D01*
X168570D01*
X167427Y-43823D01*
X166856Y-44394D01*
X166284Y-46108D01*
Y-51250D01*
Y-47251D02*
X160000Y-43252D01*
X171997Y-34853D02*
X163999Y-40567D01*
Y-31997D01*
X171997Y-34853D02*
X160000D01*
X170284Y-23028D02*
X171426Y-23599D01*
X171997Y-25313D01*
Y-26455D01*
X171426Y-28169D01*
X169712Y-29312D01*
X166856Y-29883D01*
X163999D01*
X161714Y-29312D01*
X160571Y-28169D01*
X160000Y-26455D01*
Y-25884D01*
X160571Y-24170D01*
X161714Y-23028D01*
X163428Y-22456D01*
X163999D01*
X165713Y-23028D01*
X166856Y-24170D01*
X167427Y-25884D01*
Y-26455D01*
X166856Y-28169D01*
X165713Y-29312D01*
X163999Y-29883D01*
X169712Y-19828D02*
X170284Y-18686D01*
X171997Y-16972D01*
X160000D01*
X144998Y-348750D02*
X135000D01*
X144998D02*
Y-342561D01*
X140237Y-348750D02*
Y-344941D01*
X143094Y-341418D02*
X143570Y-340466D01*
X144998Y-339038D01*
X135000D01*
X143094Y-334086D02*
X143570Y-333134D01*
X144998Y-331706D01*
X135000D01*
X143094Y-326755D02*
X143570Y-325802D01*
X144998Y-324374D01*
X135000D01*
X113247Y-51250D02*
X101250D01*
X113247D02*
Y-46108D01*
X112676Y-44394D01*
X112105Y-43823D01*
X110962Y-43252D01*
X109820D01*
X108677Y-43823D01*
X108106Y-44394D01*
X107534Y-46108D01*
Y-51250D01*
Y-47251D02*
X101250Y-43252D01*
X113247Y-34853D02*
X105249Y-40567D01*
Y-31997D01*
X113247Y-34853D02*
X101250D01*
X111533Y-23028D02*
X112676Y-23599D01*
X113247Y-25313D01*
Y-26455D01*
X112676Y-28169D01*
X110962Y-29312D01*
X108106Y-29883D01*
X105249D01*
X102964Y-29312D01*
X101821Y-28169D01*
X101250Y-26455D01*
Y-25884D01*
X101821Y-24170D01*
X102964Y-23028D01*
X104678Y-22456D01*
X105249D01*
X106963Y-23028D01*
X108106Y-24170D01*
X108677Y-25884D01*
Y-26455D01*
X108106Y-28169D01*
X106963Y-29312D01*
X105249Y-29883D01*
X110391Y-19257D02*
X110962D01*
X112105Y-18686D01*
X112676Y-18114D01*
X113247Y-16972D01*
Y-14686D01*
X112676Y-13544D01*
X112105Y-12973D01*
X110962Y-12401D01*
X109820D01*
X108677Y-12973D01*
X106963Y-14115D01*
X101250Y-19828D01*
Y-11830D01*
X-42771Y261463D02*
X-42295Y262416D01*
X-41343Y263368D01*
X-40391Y263844D01*
X-38486D01*
X-37534Y263368D01*
X-36582Y262416D01*
X-36106Y261463D01*
X-35630Y260035D01*
Y257655D01*
X-36106Y256226D01*
X-36582Y255274D01*
X-37534Y254322D01*
X-38486Y253846D01*
X-40391D01*
X-41343Y254322D01*
X-42295Y255274D01*
X-42771Y256226D01*
X-50341Y263844D02*
X-45580Y257179D01*
X-52722D01*
X-50341Y263844D02*
Y253846D01*
X-60196Y263844D02*
X-55435D01*
X-54959Y259559D01*
X-55435Y260035D01*
X-56863Y260511D01*
X-58292D01*
X-59720Y260035D01*
X-60672Y259083D01*
X-61148Y257655D01*
Y256702D01*
X-60672Y255274D01*
X-59720Y254322D01*
X-58292Y253846D01*
X-56863D01*
X-55435Y254322D01*
X-54959Y254798D01*
X-54483Y255750D01*
X-64338Y263844D02*
X-69575D01*
X-66719Y260035D01*
X-68147D01*
X-69099Y259559D01*
X-69575Y259083D01*
X-70051Y257655D01*
Y256702D01*
X-69575Y255274D01*
X-68623Y254322D01*
X-67195Y253846D01*
X-65766D01*
X-64338Y254322D01*
X-63862Y254798D01*
X-63386Y255750D01*
X-42517Y331313D02*
X-42041Y332266D01*
X-41089Y333218D01*
X-40137Y333694D01*
X-38233D01*
X-37280Y333218D01*
X-36328Y332266D01*
X-35852Y331313D01*
X-35376Y329885D01*
Y327505D01*
X-35852Y326076D01*
X-36328Y325124D01*
X-37280Y324172D01*
X-38233Y323696D01*
X-40137D01*
X-41089Y324172D01*
X-42041Y325124D01*
X-42517Y326076D01*
X-50087Y333694D02*
X-45326Y327029D01*
X-52468D01*
X-50087Y333694D02*
Y323696D01*
X-59942Y333694D02*
X-55181D01*
X-54705Y329409D01*
X-55181Y329885D01*
X-56610Y330361D01*
X-58038D01*
X-59466Y329885D01*
X-60418Y328933D01*
X-60894Y327505D01*
Y326553D01*
X-60418Y325124D01*
X-59466Y324172D01*
X-58038Y323696D01*
X-56610D01*
X-55181Y324172D01*
X-54705Y324648D01*
X-54229Y325600D01*
X-67893Y333694D02*
X-63132Y327029D01*
X-70273D01*
X-67893Y333694D02*
Y323696D01*
X13369Y-85156D02*
Y-84775D01*
X12988Y-84013D01*
X12607Y-83632D01*
X11846Y-83252D01*
X10322D01*
X9560Y-83632D01*
X9180Y-84013D01*
X8799Y-84775D01*
Y-85537D01*
X9180Y-86299D01*
X9941Y-87441D01*
X13750Y-91250D01*
X8418D01*
X6628Y-84775D02*
X5866Y-84394D01*
X4723Y-83252D01*
Y-91250D01*
X381Y-90488D02*
X762Y-90869D01*
X381Y-91250D01*
X1Y-90869D01*
X381Y-90488D01*
X-4037Y-83252D02*
X-2894Y-83632D01*
X-2132Y-84775D01*
X-1752Y-86679D01*
Y-87822D01*
X-2132Y-89726D01*
X-2894Y-90869D01*
X-4037Y-91250D01*
X-4798D01*
X-5941Y-90869D01*
X-6703Y-89726D01*
X-7084Y-87822D01*
Y-86679D01*
X-6703Y-84775D01*
X-5941Y-83632D01*
X-4798Y-83252D01*
X-4037D01*
X-12682D02*
X-8874Y-88584D01*
X-14587D01*
X-12682Y-83252D02*
Y-91250D01*
X-16377Y-90488D02*
X-15996Y-90869D01*
X-16377Y-91250D01*
X-16758Y-90869D01*
X-16377Y-90488D01*
X-20795Y-83252D02*
X-19652Y-83632D01*
X-18891Y-84775D01*
X-18510Y-86679D01*
Y-87822D01*
X-18891Y-89726D01*
X-19652Y-90869D01*
X-20795Y-91250D01*
X-21557D01*
X-22699Y-90869D01*
X-23461Y-89726D01*
X-23842Y-87822D01*
Y-86679D01*
X-23461Y-84775D01*
X-22699Y-83632D01*
X-21557Y-83252D01*
X-20795D01*
X-30203D02*
X-26394D01*
X-26013Y-86679D01*
X-26394Y-86299D01*
X-27536Y-85918D01*
X-28679D01*
X-29822Y-86299D01*
X-30583Y-87060D01*
X-30964Y-88203D01*
Y-88965D01*
X-30583Y-90107D01*
X-29822Y-90869D01*
X-28679Y-91250D01*
X-27536D01*
X-26394Y-90869D01*
X-26013Y-90488D01*
X-25632Y-89726D01*
X12334Y-96728D02*
X13096Y-97490D01*
X13857Y-98633D01*
X14619Y-100156D01*
X15000Y-102060D01*
Y-103584D01*
X14619Y-105488D01*
X13857Y-107012D01*
X13096Y-108154D01*
X12334Y-108916D01*
X13096Y-97490D02*
X13857Y-99013D01*
X14238Y-100156D01*
X14619Y-102060D01*
Y-103584D01*
X14238Y-105488D01*
X13857Y-106631D01*
X13096Y-108154D01*
X10810Y-98252D02*
X7764Y-106250D01*
X4717Y-98252D02*
X7764Y-106250D01*
X3688Y-103203D02*
X-882D01*
Y-102441D01*
X-501Y-101680D01*
X-121Y-101299D01*
X641Y-100918D01*
X1784D01*
X2546Y-101299D01*
X3307Y-102060D01*
X3688Y-103203D01*
Y-103965D01*
X3307Y-105107D01*
X2546Y-105869D01*
X1784Y-106250D01*
X641D01*
X-121Y-105869D01*
X-882Y-105107D01*
X-2596Y-100918D02*
Y-106250D01*
Y-103203D02*
X-2977Y-102060D01*
X-3739Y-101299D01*
X-4501Y-100918D01*
X-5643D01*
X-6748Y-105488D02*
X-6367Y-105869D01*
X-6748Y-106250D01*
X-7129Y-105869D01*
X-6748Y-105488D01*
X-11166Y-98252D02*
X-10023Y-98633D01*
X-9262Y-99775D01*
X-8881Y-101680D01*
Y-102822D01*
X-9262Y-104726D01*
X-10023Y-105869D01*
X-11166Y-106250D01*
X-11928D01*
X-13070Y-105869D01*
X-13832Y-104726D01*
X-14213Y-102822D01*
Y-101680D01*
X-13832Y-99775D01*
X-13070Y-98633D01*
X-11928Y-98252D01*
X-11166D01*
X-16384Y-105488D02*
X-16003Y-105869D01*
X-16384Y-106250D01*
X-16765Y-105869D01*
X-16384Y-105488D01*
X-18898Y-100156D02*
Y-99775D01*
X-19278Y-99013D01*
X-19659Y-98633D01*
X-20421Y-98252D01*
X-21944D01*
X-22706Y-98633D01*
X-23087Y-99013D01*
X-23468Y-99775D01*
Y-100537D01*
X-23087Y-101299D01*
X-22325Y-102441D01*
X-18517Y-106250D01*
X-23849D01*
X-29448Y-98252D02*
X-25639Y-103584D01*
X-31352D01*
X-29448Y-98252D02*
Y-106250D01*
X-32761Y-96728D02*
X-33523Y-97490D01*
X-34285Y-98633D01*
X-35047Y-100156D01*
X-35427Y-102060D01*
Y-103584D01*
X-35047Y-105488D01*
X-34285Y-107012D01*
X-33523Y-108154D01*
X-32761Y-108916D01*
X-33523Y-97490D02*
X-34285Y-99013D01*
X-34666Y-100156D01*
X-35047Y-102060D01*
Y-103584D01*
X-34666Y-105488D01*
X-34285Y-106631D01*
X-33523Y-108154D01*
X-1320000Y-1010000D02*
Y1030000D01*
X1590000D01*
Y-1010000D02*
Y1030000D01*
X-1320000Y-1010000D02*
X1590000D01*
X-1350000Y-1040000D02*
X1620000D01*
X-1350000Y1060000D02*
X1620000D01*
X-1350000Y-1040000D02*
Y1060000D01*
Y530000D02*
X-1320000D01*
X-1350000Y530000D02*
X-1320000D01*
X-1350000Y790000D02*
X-1320000D01*
X-1350000D02*
X-1320000D01*
X5000Y-1040000D02*
Y-1010000D01*
X5000Y-1040000D02*
Y-1010000D01*
X-775000Y1030000D02*
Y1060000D01*
X-515000Y1030000D02*
Y1060000D01*
X-775000Y1030000D02*
Y1060000D01*
X-1035000Y1030000D02*
Y1060000D01*
X-1035000Y1030000D02*
Y1060000D01*
X5000Y1030000D02*
Y1060000D01*
X5000Y1030000D02*
Y1060000D01*
X-255000Y1030000D02*
Y1060000D01*
Y1030000D02*
Y1060000D01*
X-515000Y1030000D02*
Y1060000D01*
X1620000Y-1040000D02*
Y1060000D01*
X1590000Y790000D02*
X1620000D01*
X1590000D02*
X1620000D01*
X1590000Y530000D02*
X1620000D01*
X1590000Y530000D02*
X1620000D01*
X1590000Y270000D02*
X1620000D01*
X1590000D02*
X1620000D01*
X1590000Y10000D02*
X1620000D01*
X1590000D02*
X1620000D01*
X1590000Y-250000D02*
X1620000D01*
X1590000D02*
X1620000D01*
X1590000Y-510000D02*
X1620000D01*
X1590000Y-510000D02*
X1620000D01*
X1590000Y-770000D02*
X1620000D01*
X1590000D02*
X1620000D01*
X265000Y-1040000D02*
Y-1010000D01*
Y-1040000D02*
Y-1010000D01*
X525000Y-1040000D02*
Y-1010000D01*
Y-1040000D02*
Y-1010000D01*
X785000Y-1040000D02*
Y-1010000D01*
Y-1040000D02*
Y-1010000D01*
X1045000Y-1040000D02*
Y-1010000D01*
X1045000Y-1040000D02*
Y-1010000D01*
X1305000Y-1040000D02*
Y-1010000D01*
Y-1040000D02*
Y-1010000D01*
Y1030000D02*
Y1060000D01*
Y1030000D02*
Y1060000D01*
X1045000Y1030000D02*
Y1060000D01*
X1045000Y1030000D02*
Y1060000D01*
X785000Y1030000D02*
Y1060000D01*
Y1030000D02*
Y1060000D01*
X525000Y1030000D02*
Y1060000D01*
Y1030000D02*
Y1060000D01*
X265000Y1030000D02*
Y1060000D01*
Y1030000D02*
Y1060000D01*
X1240000Y-900000D02*
X1580000D01*
X1240000Y-920000D02*
X1580000D01*
X1240000Y-940000D02*
X1580000D01*
X1240000Y-960000D02*
X1580000D01*
X1240000Y-980000D02*
X1580000D01*
X1240000Y-1000000D02*
X1580000D01*
X1390000Y-980000D02*
Y-880000D01*
X1580000Y-1000000D02*
Y-880000D01*
X1240000D02*
X1580000D01*
X1240000Y-1000000D02*
Y-880000D01*
X-1350000Y-770000D02*
X-1320000D01*
X-1350000D02*
X-1320000D01*
X-1350000Y-510000D02*
X-1320000D01*
X-1350000Y-510000D02*
X-1320000D01*
X-1350000Y-250000D02*
X-1320000D01*
X-1350000D02*
X-1320000D01*
X-1350000Y10000D02*
X-1320000D01*
X-1350000D02*
X-1320000D01*
X-1350000Y270000D02*
X-1320000D01*
X-1350000D02*
X-1320000D01*
X-515000Y-1040000D02*
Y-1010000D01*
X-255000Y-1040000D02*
Y-1010000D01*
Y-1040000D02*
Y-1010000D01*
X-1035000Y-1040000D02*
Y-1010000D01*
X-1035000Y-1040000D02*
Y-1010000D01*
X-775000Y-1040000D02*
Y-1010000D01*
X-515000Y-1040000D02*
Y-1010000D01*
X-775000Y-1040000D02*
Y-1010000D01*
X895000Y-900000D02*
X1235000D01*
X895000Y-920000D02*
X1235000D01*
X895000Y-940000D02*
X1235000D01*
X895000Y-960000D02*
X1235000D01*
X895000Y-980000D02*
X1235000D01*
X895000Y-1000000D02*
X1235000D01*
X1045000D02*
Y-880000D01*
X1235000Y-1000000D02*
Y-880000D01*
X895000D02*
X1235000D01*
X895000Y-1000000D02*
Y-880000D01*
X1257141Y-987383D02*
X1256665Y-986430D01*
X1255713Y-985478D01*
X1254761Y-985002D01*
X1252857D01*
X1251904Y-985478D01*
X1250952Y-986430D01*
X1250476Y-987383D01*
X1250000Y-988811D01*
Y-991191D01*
X1250476Y-992619D01*
X1250952Y-993572D01*
X1251904Y-994524D01*
X1252857Y-995000D01*
X1254761D01*
X1255713Y-994524D01*
X1256665Y-993572D01*
X1257141Y-992619D01*
X1268520Y-988811D02*
X1268044Y-989287D01*
X1268520Y-989763D01*
X1268996Y-989287D01*
Y-988811D01*
X1268520Y-988335D01*
X1268044D01*
X1267568Y-988811D01*
X1267092Y-989763D01*
X1266139Y-992143D01*
X1265187Y-993572D01*
X1264235Y-994524D01*
X1263283Y-995000D01*
X1261855D01*
X1260426Y-994524D01*
X1259950Y-993572D01*
Y-992143D01*
X1260426Y-991191D01*
X1263283Y-989287D01*
X1264235Y-988335D01*
X1264711Y-987383D01*
Y-986430D01*
X1264235Y-985478D01*
X1263283Y-985002D01*
X1262331Y-985478D01*
X1261855Y-986430D01*
Y-987383D01*
X1262331Y-988811D01*
X1263283Y-990239D01*
X1265663Y-993572D01*
X1266616Y-994524D01*
X1268044Y-995000D01*
X1268520D01*
X1268996Y-994524D01*
Y-994048D01*
X1261855Y-995000D02*
X1260902Y-994524D01*
X1260426Y-993572D01*
Y-992143D01*
X1260902Y-991191D01*
X1261855Y-990239D01*
Y-987383D02*
X1262331Y-988335D01*
X1266139Y-993572D01*
X1267092Y-994524D01*
X1268044Y-995000D01*
X1271472Y-985002D02*
Y-995000D01*
X1278137Y-985002D02*
X1271472Y-991667D01*
X1273852Y-989287D02*
X1278137Y-995000D01*
X1400476Y-967383D02*
Y-966907D01*
X1400952Y-965954D01*
X1401428Y-965478D01*
X1402380Y-965002D01*
X1404285D01*
X1405237Y-965478D01*
X1405713Y-965954D01*
X1406189Y-966907D01*
Y-967859D01*
X1405713Y-968811D01*
X1404761Y-970239D01*
X1400000Y-975000D01*
X1406665D01*
X1411759Y-965002D02*
X1410331Y-965478D01*
X1409379Y-966907D01*
X1408903Y-969287D01*
Y-970715D01*
X1409379Y-973096D01*
X1410331Y-974524D01*
X1411759Y-975000D01*
X1412712D01*
X1414140Y-974524D01*
X1415092Y-973096D01*
X1415568Y-970715D01*
Y-969287D01*
X1415092Y-966907D01*
X1414140Y-965478D01*
X1412712Y-965002D01*
X1411759D01*
X1418282Y-967383D02*
Y-966907D01*
X1418758Y-965954D01*
X1419234Y-965478D01*
X1420186Y-965002D01*
X1422090D01*
X1423043Y-965478D01*
X1423519Y-965954D01*
X1423995Y-966907D01*
Y-967859D01*
X1423519Y-968811D01*
X1422567Y-970239D01*
X1417806Y-975000D01*
X1424471D01*
X1426709Y-966907D02*
X1427661Y-966430D01*
X1429089Y-965002D01*
Y-975000D01*
X1434516Y-974048D02*
X1434040Y-974524D01*
X1434516Y-975000D01*
X1434993Y-974524D01*
X1434516Y-974048D01*
X1440039Y-965002D02*
X1438611Y-965478D01*
X1437659Y-966907D01*
X1437182Y-969287D01*
Y-970715D01*
X1437659Y-973096D01*
X1438611Y-974524D01*
X1440039Y-975000D01*
X1440991D01*
X1442419Y-974524D01*
X1443372Y-973096D01*
X1443848Y-970715D01*
Y-969287D01*
X1443372Y-966907D01*
X1442419Y-965478D01*
X1440991Y-965002D01*
X1440039D01*
X1450846D02*
X1446085Y-971667D01*
X1453227D01*
X1450846Y-965002D02*
Y-975000D01*
X1455464Y-974048D02*
X1454988Y-974524D01*
X1455464Y-975000D01*
X1455940Y-974524D01*
X1455464Y-974048D01*
X1460987Y-965002D02*
X1459559Y-965478D01*
X1458607Y-966907D01*
X1458130Y-969287D01*
Y-970715D01*
X1458607Y-973096D01*
X1459559Y-974524D01*
X1460987Y-975000D01*
X1461939D01*
X1463367Y-974524D01*
X1464319Y-973096D01*
X1464796Y-970715D01*
Y-969287D01*
X1464319Y-966907D01*
X1463367Y-965478D01*
X1461939Y-965002D01*
X1460987D01*
X1467509Y-967383D02*
Y-966907D01*
X1467985Y-965954D01*
X1468461Y-965478D01*
X1469414Y-965002D01*
X1471318D01*
X1472270Y-965478D01*
X1472746Y-965954D01*
X1473222Y-966907D01*
Y-967859D01*
X1472746Y-968811D01*
X1471794Y-970239D01*
X1467033Y-975000D01*
X1473698D01*
X1476412Y-974048D02*
X1475936Y-974524D01*
X1476412Y-975000D01*
X1476888Y-974524D01*
X1476412Y-974048D01*
X1400000Y-945002D02*
Y-955000D01*
X1406665Y-945002D02*
X1400000Y-951667D01*
X1402380Y-949287D02*
X1406665Y-955000D01*
X1408903Y-945002D02*
Y-955000D01*
X1415568Y-945002D02*
Y-955000D01*
X1408903Y-949763D02*
X1415568D01*
X1418329Y-945002D02*
Y-955000D01*
X1424995Y-945002D02*
Y-955000D01*
X1418329Y-949763D02*
X1424995D01*
X1402856Y-925002D02*
X1401428Y-925478D01*
X1400476Y-926907D01*
X1400000Y-929287D01*
Y-930715D01*
X1400476Y-933096D01*
X1401428Y-934524D01*
X1402856Y-935000D01*
X1403809D01*
X1405237Y-934524D01*
X1406189Y-933096D01*
X1406665Y-930715D01*
Y-929287D01*
X1406189Y-926907D01*
X1405237Y-925478D01*
X1403809Y-925002D01*
X1402856D01*
X1409379Y-934048D02*
X1408903Y-934524D01*
X1409379Y-935000D01*
X1409855Y-934524D01*
X1409379Y-934048D01*
X1412521Y-927383D02*
Y-926907D01*
X1412997Y-925954D01*
X1413473Y-925478D01*
X1414426Y-925002D01*
X1416330D01*
X1417282Y-925478D01*
X1417758Y-925954D01*
X1418234Y-926907D01*
Y-927859D01*
X1417758Y-928811D01*
X1416806Y-930239D01*
X1412045Y-935000D01*
X1418710D01*
X1425709Y-925002D02*
X1420948Y-931667D01*
X1428089D01*
X1425709Y-925002D02*
Y-935000D01*
X1407617Y-915000D02*
X1403809Y-905002D01*
X1400000Y-915000D01*
X1401428Y-911667D02*
X1406189D01*
X1409950Y-905002D02*
Y-915000D01*
Y-905002D02*
X1414235D01*
X1415663Y-905478D01*
X1416139Y-905954D01*
X1416615Y-906907D01*
Y-907859D01*
X1416139Y-908811D01*
X1415663Y-909287D01*
X1414235Y-909763D01*
X1409950D01*
X1413283D02*
X1416615Y-915000D01*
X1425042Y-905002D02*
X1418853D01*
Y-915000D01*
X1425042D01*
X1418853Y-909763D02*
X1422662D01*
X1433374Y-906430D02*
X1432422Y-905478D01*
X1430993Y-905002D01*
X1429089D01*
X1427661Y-905478D01*
X1426709Y-906430D01*
Y-907383D01*
X1427185Y-908335D01*
X1427661Y-908811D01*
X1428613Y-909287D01*
X1431470Y-910239D01*
X1432422Y-910715D01*
X1432898Y-911191D01*
X1433374Y-912143D01*
Y-913572D01*
X1432422Y-914524D01*
X1430993Y-915000D01*
X1429089D01*
X1427661Y-914524D01*
X1426709Y-913572D01*
X1435611Y-918333D02*
X1443229D01*
X1444514Y-905002D02*
Y-915000D01*
Y-905002D02*
X1448799D01*
X1450227Y-905478D01*
X1450703Y-905954D01*
X1451180Y-906907D01*
Y-907859D01*
X1450703Y-908811D01*
X1450227Y-909287D01*
X1448799Y-909763D01*
X1444514D01*
X1447847D02*
X1451180Y-915000D01*
X1456274Y-905002D02*
X1454845Y-905478D01*
X1453893Y-906907D01*
X1453417Y-909287D01*
Y-910715D01*
X1453893Y-913096D01*
X1454845Y-914524D01*
X1456274Y-915000D01*
X1457226D01*
X1458654Y-914524D01*
X1459606Y-913096D01*
X1460082Y-910715D01*
Y-909287D01*
X1459606Y-906907D01*
X1458654Y-905478D01*
X1457226Y-905002D01*
X1456274D01*
X1468033Y-906430D02*
X1467557Y-905478D01*
X1466129Y-905002D01*
X1465177D01*
X1463748Y-905478D01*
X1462796Y-906907D01*
X1462320Y-909287D01*
Y-911667D01*
X1462796Y-913572D01*
X1463748Y-914524D01*
X1465177Y-915000D01*
X1465653D01*
X1467081Y-914524D01*
X1468033Y-913572D01*
X1468509Y-912143D01*
Y-911667D01*
X1468033Y-910239D01*
X1467081Y-909287D01*
X1465653Y-908811D01*
X1465177D01*
X1463748Y-909287D01*
X1462796Y-910239D01*
X1462320Y-911667D01*
X1470699Y-918333D02*
X1478316D01*
X1479602Y-910239D02*
X1483887D01*
X1485315Y-909763D01*
X1485791Y-909287D01*
X1486267Y-908335D01*
Y-906907D01*
X1485791Y-905954D01*
X1485315Y-905478D01*
X1483887Y-905002D01*
X1479602D01*
Y-915000D01*
X1490885Y-908335D02*
X1489933Y-908811D01*
X1488981Y-909763D01*
X1488505Y-911191D01*
Y-912143D01*
X1488981Y-913572D01*
X1489933Y-914524D01*
X1490885Y-915000D01*
X1492314D01*
X1493266Y-914524D01*
X1494218Y-913572D01*
X1494694Y-912143D01*
Y-911191D01*
X1494218Y-909763D01*
X1493266Y-908811D01*
X1492314Y-908335D01*
X1490885D01*
X1496884D02*
X1498788Y-915000D01*
X1500693Y-908335D02*
X1498788Y-915000D01*
X1500693Y-908335D02*
X1502597Y-915000D01*
X1504501Y-908335D02*
X1502597Y-915000D01*
X1506834Y-911191D02*
X1512547D01*
Y-910239D01*
X1512071Y-909287D01*
X1511595Y-908811D01*
X1510643Y-908335D01*
X1509215D01*
X1508262Y-908811D01*
X1507310Y-909763D01*
X1506834Y-911191D01*
Y-912143D01*
X1507310Y-913572D01*
X1508262Y-914524D01*
X1509215Y-915000D01*
X1510643D01*
X1511595Y-914524D01*
X1512547Y-913572D01*
X1514690Y-908335D02*
Y-915000D01*
Y-911191D02*
X1515166Y-909763D01*
X1516118Y-908811D01*
X1517070Y-908335D01*
X1518498D01*
X1400000Y-885002D02*
Y-895000D01*
X1406665Y-885002D02*
Y-895000D01*
X1400000Y-889763D02*
X1406665D01*
X1410379Y-885002D02*
X1410855Y-885478D01*
X1411331Y-885002D01*
X1410855Y-884526D01*
X1410379Y-885002D01*
X1410855Y-888335D02*
Y-895000D01*
X1418806Y-888335D02*
Y-895952D01*
X1418329Y-897380D01*
X1417853Y-897857D01*
X1416901Y-898333D01*
X1415473D01*
X1414521Y-897857D01*
X1418806Y-889763D02*
X1417853Y-888811D01*
X1416901Y-888335D01*
X1415473D01*
X1414521Y-888811D01*
X1413569Y-889763D01*
X1413092Y-891191D01*
Y-892143D01*
X1413569Y-893572D01*
X1414521Y-894524D01*
X1415473Y-895000D01*
X1416901D01*
X1417853Y-894524D01*
X1418806Y-893572D01*
X1421472Y-891191D02*
X1427185D01*
Y-890239D01*
X1426709Y-889287D01*
X1426232Y-888811D01*
X1425280Y-888335D01*
X1423852D01*
X1422900Y-888811D01*
X1421948Y-889763D01*
X1421472Y-891191D01*
Y-892143D01*
X1421948Y-893572D01*
X1422900Y-894524D01*
X1423852Y-895000D01*
X1425280D01*
X1426232Y-894524D01*
X1427185Y-893572D01*
X1429327Y-888335D02*
Y-895000D01*
Y-890239D02*
X1430755Y-888811D01*
X1431707Y-888335D01*
X1433136D01*
X1434088Y-888811D01*
X1434564Y-890239D01*
Y-895000D01*
X1250000Y-965002D02*
Y-975000D01*
X1255713D01*
X1262521Y-968335D02*
Y-975000D01*
Y-969763D02*
X1261569Y-968811D01*
X1260617Y-968335D01*
X1259189D01*
X1258236Y-968811D01*
X1257284Y-969763D01*
X1256808Y-971191D01*
Y-972143D01*
X1257284Y-973572D01*
X1258236Y-974524D01*
X1259189Y-975000D01*
X1260617D01*
X1261569Y-974524D01*
X1262521Y-973572D01*
X1270424Y-969763D02*
X1269948Y-968811D01*
X1268520Y-968335D01*
X1267092D01*
X1265663Y-968811D01*
X1265187Y-969763D01*
X1265663Y-970715D01*
X1266616Y-971191D01*
X1268996Y-971667D01*
X1269948Y-972143D01*
X1270424Y-973096D01*
Y-973572D01*
X1269948Y-974524D01*
X1268520Y-975000D01*
X1267092D01*
X1265663Y-974524D01*
X1265187Y-973572D01*
X1273947Y-965002D02*
Y-973096D01*
X1274423Y-974524D01*
X1275376Y-975000D01*
X1276328D01*
X1272519Y-968335D02*
X1275852D01*
X1285611Y-965002D02*
Y-975000D01*
Y-965002D02*
X1288944D01*
X1290372Y-965478D01*
X1291324Y-966430D01*
X1291801Y-967383D01*
X1292277Y-968811D01*
Y-971191D01*
X1291801Y-972619D01*
X1291324Y-973572D01*
X1290372Y-974524D01*
X1288944Y-975000D01*
X1285611D01*
X1300227Y-968335D02*
Y-975000D01*
Y-969763D02*
X1299275Y-968811D01*
X1298323Y-968335D01*
X1296895D01*
X1295943Y-968811D01*
X1294990Y-969763D01*
X1294514Y-971191D01*
Y-972143D01*
X1294990Y-973572D01*
X1295943Y-974524D01*
X1296895Y-975000D01*
X1298323D01*
X1299275Y-974524D01*
X1300227Y-973572D01*
X1304322Y-965002D02*
Y-973096D01*
X1304798Y-974524D01*
X1305750Y-975000D01*
X1306702D01*
X1302893Y-968335D02*
X1306226D01*
X1313843D02*
Y-975000D01*
Y-969763D02*
X1312891Y-968811D01*
X1311939Y-968335D01*
X1310511D01*
X1309559Y-968811D01*
X1308607Y-969763D01*
X1308130Y-971191D01*
Y-972143D01*
X1308607Y-973572D01*
X1309559Y-974524D01*
X1310511Y-975000D01*
X1311939D01*
X1312891Y-974524D01*
X1313843Y-973572D01*
X1250000Y-945002D02*
Y-955000D01*
Y-945002D02*
X1253333D01*
X1254761Y-945478D01*
X1255713Y-946430D01*
X1256189Y-947383D01*
X1256665Y-948811D01*
Y-951191D01*
X1256189Y-952619D01*
X1255713Y-953572D01*
X1254761Y-954524D01*
X1253333Y-955000D01*
X1250000D01*
X1258903Y-951191D02*
X1264616D01*
Y-950239D01*
X1264140Y-949287D01*
X1263664Y-948811D01*
X1262711Y-948335D01*
X1261283D01*
X1260331Y-948811D01*
X1259379Y-949763D01*
X1258903Y-951191D01*
Y-952143D01*
X1259379Y-953572D01*
X1260331Y-954524D01*
X1261283Y-955000D01*
X1262711D01*
X1263664Y-954524D01*
X1264616Y-953572D01*
X1271995Y-949763D02*
X1271519Y-948811D01*
X1270091Y-948335D01*
X1268663D01*
X1267234Y-948811D01*
X1266758Y-949763D01*
X1267234Y-950715D01*
X1268187Y-951191D01*
X1270567Y-951667D01*
X1271519Y-952143D01*
X1271995Y-953096D01*
Y-953572D01*
X1271519Y-954524D01*
X1270091Y-955000D01*
X1268663D01*
X1267234Y-954524D01*
X1266758Y-953572D01*
X1275042Y-945002D02*
X1275518Y-945478D01*
X1275994Y-945002D01*
X1275518Y-944526D01*
X1275042Y-945002D01*
X1275518Y-948335D02*
Y-955000D01*
X1283469Y-948335D02*
Y-955952D01*
X1282993Y-957380D01*
X1282517Y-957857D01*
X1281565Y-958333D01*
X1280136D01*
X1279184Y-957857D01*
X1283469Y-949763D02*
X1282517Y-948811D01*
X1281565Y-948335D01*
X1280136D01*
X1279184Y-948811D01*
X1278232Y-949763D01*
X1277756Y-951191D01*
Y-952143D01*
X1278232Y-953572D01*
X1279184Y-954524D01*
X1280136Y-955000D01*
X1281565D01*
X1282517Y-954524D01*
X1283469Y-953572D01*
X1286135Y-948335D02*
Y-955000D01*
Y-950239D02*
X1287563Y-948811D01*
X1288515Y-948335D01*
X1289944D01*
X1290896Y-948811D01*
X1291372Y-950239D01*
Y-955000D01*
X1293991Y-951191D02*
X1299704D01*
Y-950239D01*
X1299227Y-949287D01*
X1298752Y-948811D01*
X1297799Y-948335D01*
X1296371D01*
X1295419Y-948811D01*
X1294467Y-949763D01*
X1293991Y-951191D01*
Y-952143D01*
X1294467Y-953572D01*
X1295419Y-954524D01*
X1296371Y-955000D01*
X1297799D01*
X1298752Y-954524D01*
X1299704Y-953572D01*
X1301846Y-948335D02*
Y-955000D01*
Y-951191D02*
X1302322Y-949763D01*
X1303274Y-948811D01*
X1304226Y-948335D01*
X1305655D01*
X1250000Y-925002D02*
Y-935000D01*
Y-925002D02*
X1254285D01*
X1255713Y-925478D01*
X1256189Y-925954D01*
X1256665Y-926907D01*
Y-927859D01*
X1256189Y-928811D01*
X1255713Y-929287D01*
X1254285Y-929763D01*
X1250000D01*
X1253333D02*
X1256665Y-935000D01*
X1258903Y-931191D02*
X1264616D01*
Y-930239D01*
X1264140Y-929287D01*
X1263664Y-928811D01*
X1262711Y-928335D01*
X1261283D01*
X1260331Y-928811D01*
X1259379Y-929763D01*
X1258903Y-931191D01*
Y-932143D01*
X1259379Y-933572D01*
X1260331Y-934524D01*
X1261283Y-935000D01*
X1262711D01*
X1263664Y-934524D01*
X1264616Y-933572D01*
X1266758Y-928335D02*
X1269615Y-935000D01*
X1272471Y-928335D02*
X1269615Y-935000D01*
X1250000Y-905002D02*
Y-915000D01*
Y-905002D02*
X1253333D01*
X1254761Y-905478D01*
X1255713Y-906430D01*
X1256189Y-907383D01*
X1256665Y-908811D01*
Y-911191D01*
X1256189Y-912619D01*
X1255713Y-913572D01*
X1254761Y-914524D01*
X1253333Y-915000D01*
X1250000D01*
X1258903Y-911191D02*
X1264616D01*
Y-910239D01*
X1264140Y-909287D01*
X1263664Y-908811D01*
X1262711Y-908335D01*
X1261283D01*
X1260331Y-908811D01*
X1259379Y-909763D01*
X1258903Y-911191D01*
Y-912143D01*
X1259379Y-913572D01*
X1260331Y-914524D01*
X1261283Y-915000D01*
X1262711D01*
X1263664Y-914524D01*
X1264616Y-913572D01*
X1271995Y-909763D02*
X1271519Y-908811D01*
X1270091Y-908335D01*
X1268663D01*
X1267234Y-908811D01*
X1266758Y-909763D01*
X1267234Y-910715D01*
X1268187Y-911191D01*
X1270567Y-911667D01*
X1271519Y-912143D01*
X1271995Y-913096D01*
Y-913572D01*
X1271519Y-914524D01*
X1270091Y-915000D01*
X1268663D01*
X1267234Y-914524D01*
X1266758Y-913572D01*
X1275042Y-905002D02*
X1275518Y-905478D01*
X1275994Y-905002D01*
X1275518Y-904526D01*
X1275042Y-905002D01*
X1275518Y-908335D02*
Y-915000D01*
X1283469Y-908335D02*
Y-915952D01*
X1282993Y-917380D01*
X1282517Y-917857D01*
X1281565Y-918333D01*
X1280136D01*
X1279184Y-917857D01*
X1283469Y-909763D02*
X1282517Y-908811D01*
X1281565Y-908335D01*
X1280136D01*
X1279184Y-908811D01*
X1278232Y-909763D01*
X1277756Y-911191D01*
Y-912143D01*
X1278232Y-913572D01*
X1279184Y-914524D01*
X1280136Y-915000D01*
X1281565D01*
X1282517Y-914524D01*
X1283469Y-913572D01*
X1286135Y-908335D02*
Y-915000D01*
Y-910239D02*
X1287563Y-908811D01*
X1288515Y-908335D01*
X1289944D01*
X1290896Y-908811D01*
X1291372Y-910239D01*
Y-915000D01*
X1301846Y-905002D02*
Y-915000D01*
Y-905002D02*
X1308511Y-915000D01*
Y-905002D02*
Y-915000D01*
X1316986Y-908335D02*
Y-915000D01*
Y-909763D02*
X1316033Y-908811D01*
X1315081Y-908335D01*
X1313653D01*
X1312701Y-908811D01*
X1311749Y-909763D01*
X1311273Y-911191D01*
Y-912143D01*
X1311749Y-913572D01*
X1312701Y-914524D01*
X1313653Y-915000D01*
X1315081D01*
X1316033Y-914524D01*
X1316986Y-913572D01*
X1319652Y-908335D02*
Y-915000D01*
Y-910239D02*
X1321080Y-908811D01*
X1322032Y-908335D01*
X1323460D01*
X1324413Y-908811D01*
X1324889Y-910239D01*
Y-915000D01*
Y-910239D02*
X1326317Y-908811D01*
X1327269Y-908335D01*
X1328697D01*
X1329650Y-908811D01*
X1330126Y-910239D01*
Y-915000D01*
X1333268Y-911191D02*
X1338981D01*
Y-910239D01*
X1338505Y-909287D01*
X1338029Y-908811D01*
X1337077Y-908335D01*
X1335648D01*
X1334696Y-908811D01*
X1333744Y-909763D01*
X1333268Y-911191D01*
Y-912143D01*
X1333744Y-913572D01*
X1334696Y-914524D01*
X1335648Y-915000D01*
X1337077D01*
X1338029Y-914524D01*
X1338981Y-913572D01*
X1257141Y-887383D02*
X1256665Y-886430D01*
X1255713Y-885478D01*
X1254761Y-885002D01*
X1252857D01*
X1251904Y-885478D01*
X1250952Y-886430D01*
X1250476Y-887383D01*
X1250000Y-888811D01*
Y-891191D01*
X1250476Y-892620D01*
X1250952Y-893572D01*
X1251904Y-894524D01*
X1252857Y-895000D01*
X1254761D01*
X1255713Y-894524D01*
X1256665Y-893572D01*
X1257141Y-892620D01*
X1259950Y-888335D02*
Y-893096D01*
X1260426Y-894524D01*
X1261378Y-895000D01*
X1262807D01*
X1263759Y-894524D01*
X1265187Y-893096D01*
Y-888335D02*
Y-895000D01*
X1273043Y-889763D02*
X1272567Y-888811D01*
X1271138Y-888335D01*
X1269710D01*
X1268282Y-888811D01*
X1267806Y-889763D01*
X1268282Y-890715D01*
X1269234Y-891191D01*
X1271614Y-891667D01*
X1272567Y-892143D01*
X1273043Y-893096D01*
Y-893572D01*
X1272567Y-894524D01*
X1271138Y-895000D01*
X1269710D01*
X1268282Y-894524D01*
X1267806Y-893572D01*
X1276566Y-885002D02*
Y-893096D01*
X1277042Y-894524D01*
X1277994Y-895000D01*
X1278946D01*
X1275137Y-888335D02*
X1278470D01*
X1282755D02*
X1281803Y-888811D01*
X1280851Y-889763D01*
X1280374Y-891191D01*
Y-892143D01*
X1280851Y-893572D01*
X1281803Y-894524D01*
X1282755Y-895000D01*
X1284183D01*
X1285135Y-894524D01*
X1286087Y-893572D01*
X1286564Y-892143D01*
Y-891191D01*
X1286087Y-889763D01*
X1285135Y-888811D01*
X1284183Y-888335D01*
X1282755D01*
X1288754D02*
Y-895000D01*
Y-890239D02*
X1290182Y-888811D01*
X1291134Y-888335D01*
X1292562D01*
X1293515Y-888811D01*
X1293991Y-890239D01*
Y-895000D01*
Y-890239D02*
X1295419Y-888811D01*
X1296371Y-888335D01*
X1297799D01*
X1298752Y-888811D01*
X1299227Y-890239D01*
Y-895000D01*
X1302370Y-891191D02*
X1308083D01*
Y-890239D01*
X1307607Y-889287D01*
X1307131Y-888811D01*
X1306178Y-888335D01*
X1304750D01*
X1303798Y-888811D01*
X1302846Y-889763D01*
X1302370Y-891191D01*
Y-892143D01*
X1302846Y-893572D01*
X1303798Y-894524D01*
X1304750Y-895000D01*
X1306178D01*
X1307131Y-894524D01*
X1308083Y-893572D01*
X1310225Y-888335D02*
Y-895000D01*
Y-891191D02*
X1310701Y-889763D01*
X1311653Y-888811D01*
X1312606Y-888335D01*
X1314034D01*
X1055000Y-985002D02*
X1057380Y-995000D01*
X1059761Y-985002D02*
X1057380Y-995000D01*
X1059761Y-985002D02*
X1062141Y-995000D01*
X1064522Y-985002D02*
X1062141Y-995000D01*
X1066521Y-985002D02*
Y-995000D01*
Y-990239D02*
X1067950Y-988811D01*
X1068902Y-988335D01*
X1070330D01*
X1071282Y-988811D01*
X1071758Y-990239D01*
Y-995000D01*
X1075329Y-985002D02*
X1075805Y-985478D01*
X1076281Y-985002D01*
X1075805Y-984526D01*
X1075329Y-985002D01*
X1075805Y-988335D02*
Y-995000D01*
X1079471Y-985002D02*
Y-993096D01*
X1079947Y-994524D01*
X1080899Y-995000D01*
X1081851D01*
X1078043Y-988335D02*
X1081375D01*
X1083280Y-991191D02*
X1088993D01*
Y-990239D01*
X1088517Y-989287D01*
X1088040Y-988811D01*
X1087088Y-988335D01*
X1085660D01*
X1084708Y-988811D01*
X1083756Y-989763D01*
X1083280Y-991191D01*
Y-992143D01*
X1083756Y-993572D01*
X1084708Y-994524D01*
X1085660Y-995000D01*
X1087088D01*
X1088040Y-994524D01*
X1088993Y-993572D01*
X1055000Y-965002D02*
Y-975000D01*
Y-965002D02*
X1059285D01*
X1060713Y-965478D01*
X1061189Y-965954D01*
X1061665Y-966907D01*
Y-967859D01*
X1061189Y-968811D01*
X1060713Y-969287D01*
X1059285Y-969763D01*
X1055000D02*
X1059285D01*
X1060713Y-970239D01*
X1061189Y-970715D01*
X1061665Y-971667D01*
Y-973096D01*
X1061189Y-974048D01*
X1060713Y-974524D01*
X1059285Y-975000D01*
X1055000D01*
X1063903Y-965002D02*
Y-975000D01*
X1069616D01*
X1070711Y-965002D02*
Y-972143D01*
X1071187Y-973572D01*
X1072139Y-974524D01*
X1073567Y-975000D01*
X1074520D01*
X1075948Y-974524D01*
X1076900Y-973572D01*
X1077376Y-972143D01*
Y-965002D01*
X1086327D02*
X1080137D01*
Y-975000D01*
X1086327D01*
X1080137Y-969763D02*
X1083946D01*
X1057857Y-945002D02*
X1056904Y-945478D01*
X1055952Y-946430D01*
X1055476Y-947383D01*
X1055000Y-948811D01*
Y-951191D01*
X1055476Y-952620D01*
X1055952Y-953572D01*
X1056904Y-954524D01*
X1057857Y-955000D01*
X1059761D01*
X1060713Y-954524D01*
X1061665Y-953572D01*
X1062141Y-952620D01*
X1062617Y-951191D01*
Y-948811D01*
X1062141Y-947383D01*
X1061665Y-946430D01*
X1060713Y-945478D01*
X1059761Y-945002D01*
X1057857D01*
X1071616Y-946430D02*
X1070663Y-945478D01*
X1069235Y-945002D01*
X1067331D01*
X1065902Y-945478D01*
X1064950Y-946430D01*
Y-947383D01*
X1065426Y-948335D01*
X1065902Y-948811D01*
X1066855Y-949287D01*
X1069711Y-950239D01*
X1070663Y-950715D01*
X1071139Y-951191D01*
X1071616Y-952143D01*
Y-953572D01*
X1070663Y-954524D01*
X1069235Y-955000D01*
X1067331D01*
X1065902Y-954524D01*
X1064950Y-953572D01*
X1073853Y-950239D02*
X1078138D01*
X1079566Y-949763D01*
X1080042Y-949287D01*
X1080518Y-948335D01*
Y-946907D01*
X1080042Y-945954D01*
X1079566Y-945478D01*
X1078138Y-945002D01*
X1073853D01*
Y-955000D01*
X1055000Y-925002D02*
Y-935000D01*
Y-925002D02*
X1061189D01*
X1055000Y-929763D02*
X1058809D01*
X1062332Y-925002D02*
Y-935000D01*
Y-925002D02*
X1066617D01*
X1068045Y-925478D01*
X1068521Y-925954D01*
X1068997Y-926907D01*
Y-927859D01*
X1068521Y-928811D01*
X1068045Y-929287D01*
X1066617Y-929763D01*
X1062332D01*
X1065664D02*
X1068997Y-935000D01*
X1071235Y-930715D02*
X1079804D01*
X1087517Y-925002D02*
X1082756Y-931667D01*
X1089897D01*
X1087517Y-925002D02*
Y-935000D01*
X1055000Y-906907D02*
X1055952Y-906430D01*
X1057380Y-905002D01*
Y-915000D01*
X1062808Y-914048D02*
X1062332Y-914524D01*
X1062808Y-915000D01*
X1063284Y-914524D01*
X1062808Y-914048D01*
X1071187Y-906430D02*
X1070711Y-905478D01*
X1069283Y-905002D01*
X1068331D01*
X1066902Y-905478D01*
X1065950Y-906907D01*
X1065474Y-909287D01*
Y-911667D01*
X1065950Y-913572D01*
X1066902Y-914524D01*
X1068331Y-915000D01*
X1068807D01*
X1070235Y-914524D01*
X1071187Y-913572D01*
X1071663Y-912143D01*
Y-911667D01*
X1071187Y-910239D01*
X1070235Y-909287D01*
X1068807Y-908811D01*
X1068331D01*
X1066902Y-909287D01*
X1065950Y-910239D01*
X1065474Y-911667D01*
X1077186Y-905002D02*
Y-915000D01*
X1073853Y-905002D02*
X1080518D01*
X1057380Y-885002D02*
X1055952Y-885478D01*
X1055476Y-886430D01*
Y-887383D01*
X1055952Y-888335D01*
X1056904Y-888811D01*
X1058809Y-889287D01*
X1060237Y-889763D01*
X1061189Y-890715D01*
X1061665Y-891667D01*
Y-893096D01*
X1061189Y-894048D01*
X1060713Y-894524D01*
X1059285Y-895000D01*
X1057380D01*
X1055952Y-894524D01*
X1055476Y-894048D01*
X1055000Y-893096D01*
Y-891667D01*
X1055476Y-890715D01*
X1056428Y-889763D01*
X1057857Y-889287D01*
X1059761Y-888811D01*
X1060713Y-888335D01*
X1061189Y-887383D01*
Y-886430D01*
X1060713Y-885478D01*
X1059285Y-885002D01*
X1057380D01*
X1066283D02*
X1064855Y-885478D01*
X1064379Y-886430D01*
Y-887383D01*
X1064855Y-888335D01*
X1065807Y-888811D01*
X1067712Y-889287D01*
X1069140Y-889763D01*
X1070092Y-890715D01*
X1070568Y-891667D01*
Y-893096D01*
X1070092Y-894048D01*
X1069616Y-894524D01*
X1068188Y-895000D01*
X1066283D01*
X1064855Y-894524D01*
X1064379Y-894048D01*
X1063903Y-893096D01*
Y-891667D01*
X1064379Y-890715D01*
X1065331Y-889763D01*
X1066759Y-889287D01*
X1068664Y-888811D01*
X1069616Y-888335D01*
X1070092Y-887383D01*
Y-886430D01*
X1069616Y-885478D01*
X1068188Y-885002D01*
X1066283D01*
X1072806Y-888335D02*
Y-895000D01*
Y-890239D02*
X1074234Y-888811D01*
X1075186Y-888335D01*
X1076614D01*
X1077567Y-888811D01*
X1078043Y-890239D01*
Y-895000D01*
Y-890239D02*
X1079471Y-888811D01*
X1080423Y-888335D01*
X1081851D01*
X1082804Y-888811D01*
X1083280Y-890239D01*
Y-895000D01*
X1086422Y-888335D02*
Y-895000D01*
Y-890239D02*
X1087850Y-888811D01*
X1088802Y-888335D01*
X1090230D01*
X1091183Y-888811D01*
X1091659Y-890239D01*
Y-895000D01*
Y-890239D02*
X1093087Y-888811D01*
X1094039Y-888335D01*
X1095468D01*
X1096420Y-888811D01*
X1096896Y-890239D01*
Y-895000D01*
X1107893Y-885002D02*
X1114559Y-895000D01*
Y-885002D02*
X1107893Y-895000D01*
X1130841Y-888335D02*
X1130365Y-889763D01*
X1129413Y-890715D01*
X1127984Y-891191D01*
X1127508D01*
X1126080Y-890715D01*
X1125128Y-889763D01*
X1124652Y-888335D01*
Y-887859D01*
X1125128Y-886430D01*
X1126080Y-885478D01*
X1127508Y-885002D01*
X1127984D01*
X1129413Y-885478D01*
X1130365Y-886430D01*
X1130841Y-888335D01*
Y-890715D01*
X1130365Y-893096D01*
X1129413Y-894524D01*
X1127984Y-895000D01*
X1127032D01*
X1125604Y-894524D01*
X1125128Y-893572D01*
X1138316Y-885002D02*
X1133555Y-891667D01*
X1140696D01*
X1138316Y-885002D02*
Y-895000D01*
X1142457Y-888335D02*
Y-895000D01*
Y-890239D02*
X1143886Y-888811D01*
X1144838Y-888335D01*
X1146266D01*
X1147218Y-888811D01*
X1147694Y-890239D01*
Y-895000D01*
Y-890239D02*
X1149123Y-888811D01*
X1150075Y-888335D01*
X1151503D01*
X1152455Y-888811D01*
X1152931Y-890239D01*
Y-895000D01*
X1156074Y-888335D02*
Y-895000D01*
Y-890239D02*
X1157502Y-888811D01*
X1158454Y-888335D01*
X1159882D01*
X1160835Y-888811D01*
X1161311Y-890239D01*
Y-895000D01*
Y-890239D02*
X1162739Y-888811D01*
X1163691Y-888335D01*
X1165119D01*
X1166071Y-888811D01*
X1166547Y-890239D01*
Y-895000D01*
X911665Y-986430D02*
X910713Y-985478D01*
X909285Y-985002D01*
X907380D01*
X905952Y-985478D01*
X905000Y-986430D01*
Y-987383D01*
X905476Y-988335D01*
X905952Y-988811D01*
X906904Y-989287D01*
X909761Y-990239D01*
X910713Y-990715D01*
X911189Y-991191D01*
X911665Y-992143D01*
Y-993572D01*
X910713Y-994524D01*
X909285Y-995000D01*
X907380D01*
X905952Y-994524D01*
X905000Y-993572D01*
X914855Y-985002D02*
X915331Y-985478D01*
X915807Y-985002D01*
X915331Y-984526D01*
X914855Y-985002D01*
X915331Y-988335D02*
Y-995000D01*
X917569Y-985002D02*
Y-995000D01*
X919663Y-985002D02*
Y-995000D01*
X924424Y-988335D02*
X919663Y-993096D01*
X921568Y-991191D02*
X924901Y-995000D01*
X940992Y-986430D02*
X940040Y-985478D01*
X938612Y-985002D01*
X936708D01*
X935279Y-985478D01*
X934327Y-986430D01*
Y-987383D01*
X934803Y-988335D01*
X935279Y-988811D01*
X936231Y-989287D01*
X939088Y-990239D01*
X940040Y-990715D01*
X940516Y-991191D01*
X940992Y-992143D01*
Y-993572D01*
X940040Y-994524D01*
X938612Y-995000D01*
X936708D01*
X935279Y-994524D01*
X934327Y-993572D01*
X948943Y-989763D02*
X947991Y-988811D01*
X947039Y-988335D01*
X945610D01*
X944658Y-988811D01*
X943706Y-989763D01*
X943230Y-991191D01*
Y-992143D01*
X943706Y-993572D01*
X944658Y-994524D01*
X945610Y-995000D01*
X947039D01*
X947991Y-994524D01*
X948943Y-993572D01*
X951085Y-988335D02*
Y-995000D01*
Y-991191D02*
X951561Y-989763D01*
X952514Y-988811D01*
X953466Y-988335D01*
X954894D01*
X955799Y-991191D02*
X961512D01*
Y-990239D01*
X961036Y-989287D01*
X960559Y-988811D01*
X959607Y-988335D01*
X958179D01*
X957227Y-988811D01*
X956275Y-989763D01*
X955799Y-991191D01*
Y-992143D01*
X956275Y-993572D01*
X957227Y-994524D01*
X958179Y-995000D01*
X959607D01*
X960559Y-994524D01*
X961512Y-993572D01*
X963654Y-991191D02*
X969367D01*
Y-990239D01*
X968891Y-989287D01*
X968415Y-988811D01*
X967463Y-988335D01*
X966034D01*
X965082Y-988811D01*
X964130Y-989763D01*
X963654Y-991191D01*
Y-992143D01*
X964130Y-993572D01*
X965082Y-994524D01*
X966034Y-995000D01*
X967463D01*
X968415Y-994524D01*
X969367Y-993572D01*
X971509Y-988335D02*
Y-995000D01*
Y-990239D02*
X972938Y-988811D01*
X973890Y-988335D01*
X975318D01*
X976270Y-988811D01*
X976747Y-990239D01*
Y-995000D01*
X911665Y-966430D02*
X910713Y-965478D01*
X909285Y-965002D01*
X907380D01*
X905952Y-965478D01*
X905000Y-966430D01*
Y-967383D01*
X905476Y-968335D01*
X905952Y-968811D01*
X906904Y-969287D01*
X909761Y-970239D01*
X910713Y-970715D01*
X911189Y-971191D01*
X911665Y-972143D01*
Y-973572D01*
X910713Y-974524D01*
X909285Y-975000D01*
X907380D01*
X905952Y-974524D01*
X905000Y-973572D01*
X916283Y-968335D02*
X915331Y-968811D01*
X914379Y-969763D01*
X913903Y-971191D01*
Y-972143D01*
X914379Y-973572D01*
X915331Y-974524D01*
X916283Y-975000D01*
X917712D01*
X918664Y-974524D01*
X919616Y-973572D01*
X920092Y-972143D01*
Y-971191D01*
X919616Y-969763D01*
X918664Y-968811D01*
X917712Y-968335D01*
X916283D01*
X922282Y-965002D02*
Y-975000D01*
X930090Y-965002D02*
Y-975000D01*
Y-969763D02*
X929138Y-968811D01*
X928186Y-968335D01*
X926757D01*
X925805Y-968811D01*
X924853Y-969763D01*
X924377Y-971191D01*
Y-972143D01*
X924853Y-973572D01*
X925805Y-974524D01*
X926757Y-975000D01*
X928186D01*
X929138Y-974524D01*
X930090Y-973572D01*
X932756Y-971191D02*
X938469D01*
Y-970239D01*
X937993Y-969287D01*
X937517Y-968811D01*
X936565Y-968335D01*
X935136D01*
X934184Y-968811D01*
X933232Y-969763D01*
X932756Y-971191D01*
Y-972143D01*
X933232Y-973572D01*
X934184Y-974524D01*
X935136Y-975000D01*
X936565D01*
X937517Y-974524D01*
X938469Y-973572D01*
X940611Y-968335D02*
Y-975000D01*
Y-971191D02*
X941087Y-969763D01*
X942040Y-968811D01*
X942992Y-968335D01*
X944420D01*
X953180Y-965002D02*
Y-975000D01*
Y-965002D02*
X956989Y-975000D01*
X960798Y-965002D02*
X956989Y-975000D01*
X960798Y-965002D02*
Y-975000D01*
X969367Y-968335D02*
Y-975000D01*
Y-969763D02*
X968415Y-968811D01*
X967463Y-968335D01*
X966034D01*
X965082Y-968811D01*
X964130Y-969763D01*
X963654Y-971191D01*
Y-972143D01*
X964130Y-973572D01*
X965082Y-974524D01*
X966034Y-975000D01*
X967463D01*
X968415Y-974524D01*
X969367Y-973572D01*
X977270Y-969763D02*
X976794Y-968811D01*
X975366Y-968335D01*
X973938D01*
X972509Y-968811D01*
X972033Y-969763D01*
X972509Y-970715D01*
X973462Y-971191D01*
X975842Y-971667D01*
X976794Y-972143D01*
X977270Y-973096D01*
Y-973572D01*
X976794Y-974524D01*
X975366Y-975000D01*
X973938D01*
X972509Y-974524D01*
X972033Y-973572D01*
X979365Y-965002D02*
Y-975000D01*
X984126Y-968335D02*
X979365Y-973096D01*
X981269Y-971191D02*
X984602Y-975000D01*
X911665Y-946430D02*
X910713Y-945478D01*
X909285Y-945002D01*
X907380D01*
X905952Y-945478D01*
X905000Y-946430D01*
Y-947383D01*
X905476Y-948335D01*
X905952Y-948811D01*
X906904Y-949287D01*
X909761Y-950239D01*
X910713Y-950715D01*
X911189Y-951191D01*
X911665Y-952143D01*
Y-953572D01*
X910713Y-954524D01*
X909285Y-955000D01*
X907380D01*
X905952Y-954524D01*
X905000Y-953572D01*
X913903Y-948335D02*
Y-953096D01*
X914379Y-954524D01*
X915331Y-955000D01*
X916759D01*
X917712Y-954524D01*
X919140Y-953096D01*
Y-948335D02*
Y-955000D01*
X921758Y-948335D02*
Y-955000D01*
Y-951191D02*
X922234Y-949763D01*
X923187Y-948811D01*
X924139Y-948335D01*
X925567D01*
X930280Y-945002D02*
X929328D01*
X928376Y-945478D01*
X927900Y-946907D01*
Y-955000D01*
X926472Y-948335D02*
X929804D01*
X937422D02*
Y-955000D01*
Y-949763D02*
X936469Y-948811D01*
X935517Y-948335D01*
X934089D01*
X933137Y-948811D01*
X932185Y-949763D01*
X931709Y-951191D01*
Y-952143D01*
X932185Y-953572D01*
X933137Y-954524D01*
X934089Y-955000D01*
X935517D01*
X936469Y-954524D01*
X937422Y-953572D01*
X945801Y-949763D02*
X944849Y-948811D01*
X943896Y-948335D01*
X942468D01*
X941516Y-948811D01*
X940564Y-949763D01*
X940088Y-951191D01*
Y-952143D01*
X940564Y-953572D01*
X941516Y-954524D01*
X942468Y-955000D01*
X943896D01*
X944849Y-954524D01*
X945801Y-953572D01*
X947943Y-951191D02*
X953656D01*
Y-950239D01*
X953180Y-949287D01*
X952704Y-948811D01*
X951752Y-948335D01*
X950324D01*
X949371Y-948811D01*
X948419Y-949763D01*
X947943Y-951191D01*
Y-952143D01*
X948419Y-953572D01*
X949371Y-954524D01*
X950324Y-955000D01*
X951752D01*
X952704Y-954524D01*
X953656Y-953572D01*
X963654Y-950239D02*
X967939D01*
X969367Y-949763D01*
X969843Y-949287D01*
X970319Y-948335D01*
Y-946907D01*
X969843Y-945954D01*
X969367Y-945478D01*
X967939Y-945002D01*
X963654D01*
Y-955000D01*
X972557Y-948335D02*
Y-955000D01*
Y-951191D02*
X973033Y-949763D01*
X973985Y-948811D01*
X974937Y-948335D01*
X976366D01*
X977270Y-951191D02*
X982983D01*
Y-950239D01*
X982507Y-949287D01*
X982031Y-948811D01*
X981079Y-948335D01*
X979651D01*
X978699Y-948811D01*
X977746Y-949763D01*
X977270Y-951191D01*
Y-952143D01*
X977746Y-953572D01*
X978699Y-954524D01*
X979651Y-955000D01*
X981079D01*
X982031Y-954524D01*
X982983Y-953572D01*
X985126Y-948335D02*
Y-958333D01*
Y-949763D02*
X986078Y-948811D01*
X987030Y-948335D01*
X988458D01*
X989410Y-948811D01*
X990363Y-949763D01*
X990839Y-951191D01*
Y-952143D01*
X990363Y-953572D01*
X989410Y-954524D01*
X988458Y-955000D01*
X987030D01*
X986078Y-954524D01*
X985126Y-953572D01*
X998694Y-948335D02*
Y-955000D01*
Y-949763D02*
X997742Y-948811D01*
X996790Y-948335D01*
X995362D01*
X994409Y-948811D01*
X993457Y-949763D01*
X992981Y-951191D01*
Y-952143D01*
X993457Y-953572D01*
X994409Y-954524D01*
X995362Y-955000D01*
X996790D01*
X997742Y-954524D01*
X998694Y-953572D01*
X1001360Y-948335D02*
Y-955000D01*
Y-951191D02*
X1001836Y-949763D01*
X1002788Y-948811D01*
X1003741Y-948335D01*
X1005169D01*
X1011787D02*
Y-955000D01*
Y-949763D02*
X1010835Y-948811D01*
X1009882Y-948335D01*
X1008454D01*
X1007502Y-948811D01*
X1006550Y-949763D01*
X1006074Y-951191D01*
Y-952143D01*
X1006550Y-953572D01*
X1007502Y-954524D01*
X1008454Y-955000D01*
X1009882D01*
X1010835Y-954524D01*
X1011787Y-953572D01*
X1015881Y-945002D02*
Y-953096D01*
X1016357Y-954524D01*
X1017309Y-955000D01*
X1018261D01*
X1014453Y-948335D02*
X1017785D01*
X1020642Y-945002D02*
X1021118Y-945478D01*
X1021594Y-945002D01*
X1021118Y-944526D01*
X1020642Y-945002D01*
X1021118Y-948335D02*
Y-955000D01*
X1025736Y-948335D02*
X1024784Y-948811D01*
X1023832Y-949763D01*
X1023356Y-951191D01*
Y-952143D01*
X1023832Y-953572D01*
X1024784Y-954524D01*
X1025736Y-955000D01*
X1027164D01*
X1028117Y-954524D01*
X1029069Y-953572D01*
X1029545Y-952143D01*
Y-951191D01*
X1029069Y-949763D01*
X1028117Y-948811D01*
X1027164Y-948335D01*
X1025736D01*
X1031735D02*
Y-955000D01*
Y-950239D02*
X1033163Y-948811D01*
X1034115Y-948335D01*
X1035543D01*
X1036496Y-948811D01*
X1036972Y-950239D01*
Y-955000D01*
X905000Y-925002D02*
Y-935000D01*
Y-925002D02*
X908809Y-935000D01*
X912617Y-925002D02*
X908809Y-935000D01*
X912617Y-925002D02*
Y-935000D01*
X915474Y-931191D02*
X921187D01*
Y-930239D01*
X920711Y-929287D01*
X920235Y-928811D01*
X919283Y-928335D01*
X917854D01*
X916902Y-928811D01*
X915950Y-929763D01*
X915474Y-931191D01*
Y-932143D01*
X915950Y-933572D01*
X916902Y-934524D01*
X917854Y-935000D01*
X919283D01*
X920235Y-934524D01*
X921187Y-933572D01*
X924758Y-925002D02*
Y-933096D01*
X925234Y-934524D01*
X926186Y-935000D01*
X927138D01*
X923329Y-928335D02*
X926662D01*
X928566Y-931191D02*
X934279D01*
Y-930239D01*
X933803Y-929287D01*
X933327Y-928811D01*
X932375Y-928335D01*
X930947D01*
X929995Y-928811D01*
X929043Y-929763D01*
X928566Y-931191D01*
Y-932143D01*
X929043Y-933572D01*
X929995Y-934524D01*
X930947Y-935000D01*
X932375D01*
X933327Y-934524D01*
X934279Y-933572D01*
X936422Y-928335D02*
Y-935000D01*
Y-931191D02*
X936898Y-929763D01*
X937850Y-928811D01*
X938802Y-928335D01*
X940230D01*
X942087Y-925002D02*
X942563Y-925478D01*
X943039Y-925002D01*
X942563Y-924526D01*
X942087Y-925002D01*
X942563Y-928335D02*
Y-935000D01*
X950514Y-928335D02*
Y-935000D01*
Y-929763D02*
X949562Y-928811D01*
X948610Y-928335D01*
X947181D01*
X946229Y-928811D01*
X945277Y-929763D01*
X944801Y-931191D01*
Y-932143D01*
X945277Y-933572D01*
X946229Y-934524D01*
X947181Y-935000D01*
X948610D01*
X949562Y-934524D01*
X950514Y-933572D01*
X953180Y-925002D02*
Y-935000D01*
X908333Y-905002D02*
Y-915000D01*
X905000Y-905002D02*
X911665D01*
X912856D02*
Y-915000D01*
Y-910239D02*
X914284Y-908811D01*
X915236Y-908335D01*
X916664D01*
X917616Y-908811D01*
X918092Y-910239D01*
Y-915000D01*
X921663Y-905002D02*
X922139Y-905478D01*
X922615Y-905002D01*
X922139Y-904526D01*
X921663Y-905002D01*
X922139Y-908335D02*
Y-915000D01*
X930090Y-909763D02*
X929138Y-908811D01*
X928186Y-908335D01*
X926757D01*
X925805Y-908811D01*
X924853Y-909763D01*
X924377Y-911191D01*
Y-912143D01*
X924853Y-913572D01*
X925805Y-914524D01*
X926757Y-915000D01*
X928186D01*
X929138Y-914524D01*
X930090Y-913572D01*
X932232Y-905002D02*
Y-915000D01*
X936993Y-908335D02*
X932232Y-913096D01*
X934137Y-911191D02*
X937469Y-915000D01*
X939040Y-908335D02*
Y-915000D01*
Y-910239D02*
X940469Y-908811D01*
X941421Y-908335D01*
X942849D01*
X943801Y-908811D01*
X944277Y-910239D01*
Y-915000D01*
X946896Y-911191D02*
X952609D01*
Y-910239D01*
X952133Y-909287D01*
X951657Y-908811D01*
X950704Y-908335D01*
X949276D01*
X948324Y-908811D01*
X947372Y-909763D01*
X946896Y-911191D01*
Y-912143D01*
X947372Y-913572D01*
X948324Y-914524D01*
X949276Y-915000D01*
X950704D01*
X951657Y-914524D01*
X952609Y-913572D01*
X959988Y-909763D02*
X959512Y-908811D01*
X958084Y-908335D01*
X956656D01*
X955227Y-908811D01*
X954751Y-909763D01*
X955227Y-910715D01*
X956180Y-911191D01*
X958560Y-911667D01*
X959512Y-912143D01*
X959988Y-913096D01*
Y-913572D01*
X959512Y-914524D01*
X958084Y-915000D01*
X956656D01*
X955227Y-914524D01*
X954751Y-913572D01*
X967320Y-909763D02*
X966844Y-908811D01*
X965416Y-908335D01*
X963987D01*
X962559Y-908811D01*
X962083Y-909763D01*
X962559Y-910715D01*
X963511Y-911191D01*
X965892Y-911667D01*
X966844Y-912143D01*
X967320Y-913096D01*
Y-913572D01*
X966844Y-914524D01*
X965416Y-915000D01*
X963987D01*
X962559Y-914524D01*
X962083Y-913572D01*
X911665Y-886430D02*
X910713Y-885478D01*
X909285Y-885002D01*
X907380D01*
X905952Y-885478D01*
X905000Y-886430D01*
Y-887383D01*
X905476Y-888335D01*
X905952Y-888811D01*
X906904Y-889287D01*
X909761Y-890239D01*
X910713Y-890715D01*
X911189Y-891191D01*
X911665Y-892143D01*
Y-893572D01*
X910713Y-894524D01*
X909285Y-895000D01*
X907380D01*
X905952Y-894524D01*
X905000Y-893572D01*
X914855Y-885002D02*
X915331Y-885478D01*
X915807Y-885002D01*
X915331Y-884526D01*
X914855Y-885002D01*
X915331Y-888335D02*
Y-895000D01*
X922806Y-888335D02*
X917569Y-895000D01*
Y-888335D02*
X922806D01*
X917569Y-895000D02*
X922806D01*
X924901Y-891191D02*
X930614D01*
Y-890239D01*
X930137Y-889287D01*
X929661Y-888811D01*
X928709Y-888335D01*
X927281D01*
X926329Y-888811D01*
X925377Y-889763D01*
X924901Y-891191D01*
Y-892143D01*
X925377Y-893572D01*
X926329Y-894524D01*
X927281Y-895000D01*
X928709D01*
X929661Y-894524D01*
X930614Y-893572D01*
D76*
X-192899Y156336D02*
X-193790Y158487D01*
X-195940Y159377D01*
X-198091Y158487D01*
X-198981Y156336D01*
X-198091Y154185D01*
X-195940Y153295D01*
X-193790Y154185D01*
X-192899Y156336D01*
X-10399Y-258664D02*
X-11290Y-256513D01*
X-13440Y-255623D01*
X-15591Y-256513D01*
X-16481Y-258664D01*
X-15591Y-260814D01*
X-13440Y-261705D01*
X-11290Y-260814D01*
X-10399Y-258664D01*
X119601Y-266164D02*
X118710Y-264013D01*
X116560Y-263123D01*
X114409Y-264013D01*
X113518Y-266164D01*
X114409Y-268314D01*
X116560Y-269205D01*
X118710Y-268314D01*
X119601Y-266164D01*
D77*
X72500Y-293500D02*
X72500Y-331500D01*
X92500Y-331500D02*
X92500Y-293500D01*
X52500D02*
X52500Y-331500D01*
X32500Y-331500D02*
X32500Y-293500D01*
X-22500Y-326501D02*
X-22500Y-288501D01*
X-2500D02*
X-2500Y-326501D01*
X-2500Y-303500D02*
Y-288500D01*
Y-311500D02*
X-2500Y-326500D01*
X-2500Y-303500D02*
X1500Y-307500D01*
X-2500Y-311500D02*
X1500Y-307500D01*
X13500D02*
X17500Y-311500D01*
X13500Y-307500D02*
X17500Y-303500D01*
X17500Y-326500D02*
Y-311500D01*
X17500Y-288500D02*
X17500Y-303500D01*
X38000Y224750D02*
X49000Y235750D01*
Y249750D01*
X38000Y292750D02*
X49000Y281750D01*
Y267750D02*
Y281750D01*
X-19000Y224750D02*
Y249750D01*
Y267750D02*
Y292750D01*
Y224750D02*
X38000D01*
X-19000Y292750D02*
X38000D01*
X38000Y294750D02*
X49000Y305750D01*
Y319750D01*
X38000Y362750D02*
X49000Y351750D01*
Y337750D02*
Y351750D01*
X-19000Y294750D02*
Y319750D01*
Y337750D02*
Y362750D01*
Y294750D02*
X38000D01*
X-19000Y362750D02*
X38000D01*
X177730Y32500D02*
X183730Y26500D01*
X177730Y32500D02*
X183730Y38500D01*
Y0D02*
Y26500D01*
Y38500D02*
Y65000D01*
X146270Y38500D02*
Y65000D01*
Y0D02*
Y26500D01*
Y38500D02*
X152270Y32500D01*
X146270Y26500D02*
X152270Y32500D01*
X236495Y-106690D02*
X250875Y-113703D01*
X241931Y-113792D02*
X243685Y-110196D01*
X239125Y-101297D02*
X253505Y-108311D01*
X246315Y-104804D02*
X248069Y-101208D01*
X202277Y-128941D02*
X254407Y-154367D01*
X235593Y-60633D02*
X287723Y-86059D01*
X202277Y-128941D02*
X235593Y-60633D01*
X254407Y-154367D02*
X287723Y-86059D01*
X-5360Y-259050D02*
X40360D01*
X-5360Y-220950D02*
X40360D01*
Y-259050D02*
Y-253970D01*
Y-226030D02*
Y-220950D01*
X-5360Y-259050D02*
Y-253970D01*
Y-226030D02*
Y-220950D01*
X87500Y-260500D02*
Y-214500D01*
X117500Y-260500D02*
Y-214500D01*
X87500Y-260500D02*
X91500D01*
X113500D02*
X117500D01*
X87500Y-214500D02*
X91500D01*
X113500D02*
X117500D01*
X-230500Y96000D02*
Y144000D01*
X-254500Y96000D02*
Y144000D01*
X-230500D01*
X-254500Y96000D02*
X-230500D01*
X82500Y-249000D02*
X82500Y-211000D01*
X62500Y-249000D02*
Y-211000D01*
X220136Y-262744D02*
X247006Y-289614D01*
X205994Y-276886D02*
X232864Y-303756D01*
X226994Y-256136D02*
X253864Y-283006D01*
X241136Y-241994D02*
X268006Y-268864D01*
X-232000Y-67750D02*
X-208000D01*
X-232000Y-19750D02*
X-208000D01*
X-232000Y-67750D02*
Y-19750D01*
X-208000Y-67750D02*
Y-19750D01*
X117730Y32500D02*
X123730Y26500D01*
X117730Y32500D02*
X123730Y38500D01*
Y0D02*
Y26500D01*
Y38500D02*
Y65000D01*
X86270Y38500D02*
Y65000D01*
Y0D02*
Y26500D01*
Y38500D02*
X92270Y32500D01*
X86270Y26500D02*
X92270Y32500D01*
X127000Y-298000D02*
Y-272000D01*
X153000Y-298000D02*
Y-272000D01*
X141000Y290500D02*
Y344500D01*
X109000Y290500D02*
Y344500D01*
X141000D01*
X109000Y290500D02*
X141000D01*
X107250D02*
Y344500D01*
X75250Y290500D02*
Y344500D01*
X107250D01*
X75250Y290500D02*
X107250D01*
X174750D02*
Y344500D01*
X142750Y290500D02*
Y344500D01*
X174750D01*
X142750Y290500D02*
X174750D01*
X-225000Y162000D02*
Y208000D01*
X-195000Y162000D02*
Y208000D01*
X-225000Y162000D02*
X-221000D01*
X-199000D02*
X-195000D01*
X-225000Y208000D02*
X-221000D01*
X-199000D02*
X-195000D01*
X287948Y250983D02*
X312374Y221873D01*
X272627Y238127D02*
X297053Y209017D01*
X210528Y-78695D02*
X209751Y-77681D01*
X209225Y-76153D01*
X209212Y-74875D01*
X210214Y-72822D01*
X211229Y-72045D01*
X212756Y-71519D01*
X214034Y-71506D01*
X215825Y-71744D01*
X218392Y-72997D01*
X219682Y-74261D01*
X220459Y-75276D01*
X220985Y-76803D01*
X220997Y-78081D01*
X219996Y-80135D01*
X218981Y-80911D01*
X217453Y-81438D01*
X216176Y-81450D01*
X208536Y-81474D02*
X207522Y-82251D01*
X205230Y-83040D01*
X216014Y-88299D01*
X201123Y-91461D02*
X202388Y-90171D01*
X204429Y-89895D01*
X207247Y-90634D01*
X208787Y-91386D01*
X211105Y-93151D01*
X212144Y-94930D01*
X211906Y-96721D01*
X211405Y-97747D01*
X210140Y-99038D01*
X208099Y-99313D01*
X205281Y-98574D01*
X203741Y-97823D01*
X201424Y-96057D01*
X200384Y-94279D01*
X200622Y-92488D01*
X201123Y-91461D01*
X194937Y-104144D02*
X197442Y-99009D01*
X202313Y-100750D01*
X201549Y-101013D01*
X200285Y-102303D01*
X199533Y-103843D01*
X199295Y-105634D01*
X199821Y-107162D01*
X201112Y-108427D01*
X202139Y-108928D01*
X203929Y-109166D01*
X205457Y-108640D01*
X206722Y-107350D01*
X207473Y-105809D01*
X207711Y-104018D01*
X207448Y-103254D01*
X206672Y-102240D01*
X102383Y-123750D02*
X106191Y-113752D01*
X110000Y-123750D01*
X108572Y-120417D02*
X103811D01*
X100050Y-113752D02*
Y-123750D01*
Y-113752D02*
X95765D01*
X94337Y-114228D01*
X93861Y-114704D01*
X93385Y-115656D01*
Y-116609D01*
X93861Y-117561D01*
X94337Y-118037D01*
X95765Y-118513D01*
X100050D01*
X96717D02*
X93385Y-123750D01*
X84958Y-113752D02*
X91147D01*
Y-123750D01*
X84958D01*
X91147Y-118513D02*
X87338D01*
X76626Y-115180D02*
X77578Y-114228D01*
X79007Y-113752D01*
X80911D01*
X82339Y-114228D01*
X83292Y-115180D01*
Y-116133D01*
X82815Y-117085D01*
X82339Y-117561D01*
X81387Y-118037D01*
X78531Y-118989D01*
X77578Y-119465D01*
X77102Y-119941D01*
X76626Y-120893D01*
Y-122322D01*
X77578Y-123274D01*
X79007Y-123750D01*
X80911D01*
X82339Y-123274D01*
X83292Y-122322D01*
X74389Y-127083D02*
X66771D01*
X65486Y-113752D02*
Y-123750D01*
Y-113752D02*
X61201D01*
X59773Y-114228D01*
X59297Y-114704D01*
X58821Y-115656D01*
Y-116609D01*
X59297Y-117561D01*
X59773Y-118037D01*
X61201Y-118513D01*
X65486D01*
X62153D02*
X58821Y-123750D01*
X53726Y-113752D02*
X55155Y-114228D01*
X56107Y-115656D01*
X56583Y-118037D01*
Y-119465D01*
X56107Y-121846D01*
X55155Y-123274D01*
X53726Y-123750D01*
X52774D01*
X51346Y-123274D01*
X50394Y-121846D01*
X49918Y-119465D01*
Y-118037D01*
X50394Y-115656D01*
X51346Y-114228D01*
X52774Y-113752D01*
X53726D01*
X41967Y-115180D02*
X42443Y-114228D01*
X43871Y-113752D01*
X44823D01*
X46252Y-114228D01*
X47204Y-115656D01*
X47680Y-118037D01*
Y-120417D01*
X47204Y-122322D01*
X46252Y-123274D01*
X44823Y-123750D01*
X44347D01*
X42919Y-123274D01*
X41967Y-122322D01*
X41491Y-120893D01*
Y-120417D01*
X41967Y-118989D01*
X42919Y-118037D01*
X44347Y-117561D01*
X44823D01*
X46252Y-118037D01*
X47204Y-118989D01*
X47680Y-120417D01*
X39301Y-127083D02*
X31683D01*
X30398Y-118989D02*
X26113D01*
X24685Y-118513D01*
X24209Y-118037D01*
X23733Y-117085D01*
Y-115656D01*
X24209Y-114704D01*
X24685Y-114228D01*
X26113Y-113752D01*
X30398D01*
Y-123750D01*
X19115Y-117085D02*
X20067Y-117561D01*
X21019Y-118513D01*
X21495Y-119941D01*
Y-120893D01*
X21019Y-122322D01*
X20067Y-123274D01*
X19115Y-123750D01*
X17687D01*
X16734Y-123274D01*
X15782Y-122322D01*
X15306Y-120893D01*
Y-119941D01*
X15782Y-118513D01*
X16734Y-117561D01*
X17687Y-117085D01*
X19115D01*
X13116D02*
X11212Y-123750D01*
X9307Y-117085D02*
X11212Y-123750D01*
X9307Y-117085D02*
X7403Y-123750D01*
X5499Y-117085D02*
X7403Y-123750D01*
X3166Y-119941D02*
X-2547D01*
Y-118989D01*
X-2071Y-118037D01*
X-1595Y-117561D01*
X-643Y-117085D01*
X785D01*
X1737Y-117561D01*
X2690Y-118513D01*
X3166Y-119941D01*
Y-120893D01*
X2690Y-122322D01*
X1737Y-123274D01*
X785Y-123750D01*
X-643D01*
X-1595Y-123274D01*
X-2547Y-122322D01*
X-4690Y-117085D02*
Y-123750D01*
Y-119941D02*
X-5166Y-118513D01*
X-6118Y-117561D01*
X-7070Y-117085D01*
X-8498D01*
X57358Y279034D02*
Y268750D01*
X62500Y273892D02*
X52217D01*
X57358Y349034D02*
Y338750D01*
X62500Y343892D02*
X52217D01*
X107251Y-155003D02*
Y-167000D01*
X111250Y-155003D02*
X103252D01*
X101824D02*
X97253Y-160716D01*
Y-167000D01*
X92683Y-155003D02*
X97253Y-160716D01*
X91140Y-161287D02*
X85998D01*
X84284Y-160716D01*
X83713Y-160144D01*
X83142Y-159002D01*
Y-157288D01*
X83713Y-156145D01*
X84284Y-155574D01*
X85998Y-155003D01*
X91140D01*
Y-167000D01*
X73030Y-155003D02*
X80457D01*
Y-167000D01*
X73030D01*
X80457Y-160716D02*
X75886D01*
X61032Y-159002D02*
X61603Y-159573D01*
X61032Y-160144D01*
X60461Y-159573D01*
X61032Y-159002D01*
Y-165857D02*
X61603Y-166429D01*
X61032Y-167000D01*
X60461Y-166429D01*
X61032Y-165857D01*
X103252Y-134216D02*
X104394Y-133074D01*
X106108Y-132503D01*
X108393D01*
X110107Y-133074D01*
X111250Y-134216D01*
Y-135359D01*
X110679Y-136502D01*
X110107Y-137073D01*
X108965Y-137644D01*
X105537Y-138787D01*
X104394Y-139358D01*
X103823Y-139930D01*
X103252Y-141072D01*
Y-142786D01*
X104394Y-143929D01*
X106108Y-144500D01*
X108393D01*
X110107Y-143929D01*
X111250Y-142786D01*
X100567Y-146214D02*
X92568Y-132503D01*
X91769D02*
Y-144500D01*
Y-132503D02*
X83770Y-144500D01*
Y-132503D02*
Y-144500D01*
X70459Y-136502D02*
X71030Y-137073D01*
X70459Y-137644D01*
X69887Y-137073D01*
X70459Y-136502D01*
Y-143357D02*
X71030Y-143929D01*
X70459Y-144500D01*
X69887Y-143929D01*
X70459Y-143357D01*
D78*
X110000Y-82505D02*
Y-107500D01*
X93337Y-82505D02*
Y-107500D01*
X110000Y-94408D02*
X93337D01*
X86434Y-82505D02*
Y-107500D01*
X63343Y-88456D02*
X64534Y-86076D01*
X66914Y-83696D01*
X69295Y-82505D01*
X74055D01*
X76436Y-83696D01*
X78816Y-86076D01*
X80007Y-88456D01*
X81197Y-92027D01*
Y-97978D01*
X80007Y-101549D01*
X78816Y-103929D01*
X76436Y-106310D01*
X74055Y-107500D01*
X69295D01*
X66914Y-106310D01*
X64534Y-103929D01*
X63343Y-101549D01*
Y-97978D01*
X69295D02*
X63343D01*
X42157Y-82505D02*
X57630D01*
Y-107500D01*
X42157D01*
X57630Y-94408D02*
X48109D01*
X37992Y-82505D02*
Y-107500D01*
Y-82505D02*
X21329Y-107500D01*
Y-82505D02*
Y-107500D01*
D80*
X-118906Y323213D02*
X-118144Y322832D01*
X-117383Y322071D01*
X-117002Y321309D01*
Y319785D01*
X-117383Y319023D01*
X-118144Y318262D01*
X-118906Y317881D01*
X-120049Y317500D01*
X-121953D01*
X-123096Y317881D01*
X-123857Y318262D01*
X-124619Y319023D01*
X-125000Y319785D01*
Y321309D01*
X-124619Y322071D01*
X-123857Y322832D01*
X-123096Y323213D01*
X-117002Y326222D02*
Y330411D01*
X-120049Y328126D01*
Y329269D01*
X-120430Y330031D01*
X-120810Y330411D01*
X-121953Y330792D01*
X-122715D01*
X-123857Y330411D01*
X-124619Y329650D01*
X-125000Y328507D01*
Y327365D01*
X-124619Y326222D01*
X-124238Y325841D01*
X-123476Y325460D01*
X-117002Y337153D02*
Y333344D01*
X-120430Y332963D01*
X-120049Y333344D01*
X-119668Y334487D01*
Y335630D01*
X-120049Y336772D01*
X-120810Y337534D01*
X-121953Y337915D01*
X-122715D01*
X-123857Y337534D01*
X-124619Y336772D01*
X-125000Y335630D01*
Y334487D01*
X-124619Y333344D01*
X-124238Y332963D01*
X-123476Y332583D01*
X-117002Y345037D02*
X-125000Y341228D01*
X-117002Y339705D02*
Y345037D01*
X-118906Y278213D02*
X-118144Y277832D01*
X-117383Y277070D01*
X-117002Y276309D01*
Y274785D01*
X-117383Y274023D01*
X-118144Y273262D01*
X-118906Y272881D01*
X-120049Y272500D01*
X-121953D01*
X-123096Y272881D01*
X-123857Y273262D01*
X-124619Y274023D01*
X-125000Y274785D01*
Y276309D01*
X-124619Y277070D01*
X-123857Y277832D01*
X-123096Y278213D01*
X-117002Y281222D02*
Y285411D01*
X-120049Y283126D01*
Y284269D01*
X-120430Y285031D01*
X-120810Y285411D01*
X-121953Y285792D01*
X-122715D01*
X-123857Y285411D01*
X-124619Y284650D01*
X-125000Y283507D01*
Y282365D01*
X-124619Y281222D01*
X-124238Y280841D01*
X-123476Y280460D01*
X-117002Y292153D02*
Y288344D01*
X-120430Y287963D01*
X-120049Y288344D01*
X-119668Y289487D01*
Y290629D01*
X-120049Y291772D01*
X-120810Y292534D01*
X-121953Y292915D01*
X-122715D01*
X-123857Y292534D01*
X-124619Y291772D01*
X-125000Y290629D01*
Y289487D01*
X-124619Y288344D01*
X-124238Y287963D01*
X-123476Y287582D01*
X-117002Y298514D02*
X-122334Y294705D01*
Y300418D01*
X-117002Y298514D02*
X-125000D01*
X-101250Y-165752D02*
Y-173750D01*
Y-165752D02*
X-104678D01*
X-105821Y-166133D01*
X-106201Y-166513D01*
X-106582Y-167275D01*
Y-168037D01*
X-106201Y-168799D01*
X-105821Y-169179D01*
X-104678Y-169560D01*
X-101250D01*
X-103916D02*
X-106582Y-173750D01*
X-108753Y-167656D02*
Y-167275D01*
X-109134Y-166513D01*
X-109515Y-166133D01*
X-110277Y-165752D01*
X-111800D01*
X-112562Y-166133D01*
X-112943Y-166513D01*
X-113324Y-167275D01*
Y-168037D01*
X-112943Y-168799D01*
X-112181Y-169941D01*
X-108372Y-173750D01*
X-113705D01*
X-115495Y-167275D02*
X-116256Y-166894D01*
X-117399Y-165752D01*
Y-173750D01*
X-125931Y-165752D02*
X-122122D01*
X-121741Y-169179D01*
X-122122Y-168799D01*
X-123264Y-168418D01*
X-124407D01*
X-125550Y-168799D01*
X-126311Y-169560D01*
X-126692Y-170703D01*
Y-171465D01*
X-126311Y-172607D01*
X-125550Y-173369D01*
X-124407Y-173750D01*
X-123264D01*
X-122122Y-173369D01*
X-121741Y-172988D01*
X-121360Y-172227D01*
X-102500Y-150752D02*
Y-158750D01*
Y-150752D02*
X-105928D01*
X-107070Y-151133D01*
X-107451Y-151513D01*
X-107832Y-152275D01*
Y-153037D01*
X-107451Y-153799D01*
X-107070Y-154179D01*
X-105928Y-154560D01*
X-102500D01*
X-105166D02*
X-107832Y-158750D01*
X-110003Y-152656D02*
Y-152275D01*
X-110384Y-151513D01*
X-110765Y-151133D01*
X-111527Y-150752D01*
X-113050D01*
X-113812Y-151133D01*
X-114193Y-151513D01*
X-114574Y-152275D01*
Y-153037D01*
X-114193Y-153799D01*
X-113431Y-154941D01*
X-109622Y-158750D01*
X-114955D01*
X-116745Y-152275D02*
X-117506Y-151894D01*
X-118649Y-150752D01*
Y-158750D01*
X-126419Y-150752D02*
X-122610Y-156084D01*
X-128323D01*
X-126419Y-150752D02*
Y-158750D01*
X-101250Y-185752D02*
Y-193750D01*
Y-185752D02*
X-104678D01*
X-105820Y-186133D01*
X-106201Y-186514D01*
X-106582Y-187275D01*
Y-188037D01*
X-106201Y-188799D01*
X-105820Y-189180D01*
X-104678Y-189561D01*
X-101250D01*
X-103916D02*
X-106582Y-193750D01*
X-108753Y-187656D02*
Y-187275D01*
X-109134Y-186514D01*
X-109515Y-186133D01*
X-110277Y-185752D01*
X-111800D01*
X-112562Y-186133D01*
X-112943Y-186514D01*
X-113324Y-187275D01*
Y-188037D01*
X-112943Y-188799D01*
X-112181Y-189941D01*
X-108372Y-193750D01*
X-113704D01*
X-115494Y-187275D02*
X-116256Y-186894D01*
X-117399Y-185752D01*
Y-193750D01*
X-121741Y-187656D02*
Y-187275D01*
X-122122Y-186514D01*
X-122503Y-186133D01*
X-123264Y-185752D01*
X-124788D01*
X-125549Y-186133D01*
X-125930Y-186514D01*
X-126311Y-187275D01*
Y-188037D01*
X-125930Y-188799D01*
X-125169Y-189941D01*
X-121360Y-193750D01*
X-126692D01*
X-220000Y-166002D02*
Y-174000D01*
Y-166002D02*
X-223428D01*
X-224571Y-166383D01*
X-224951Y-166763D01*
X-225332Y-167525D01*
Y-168287D01*
X-224951Y-169049D01*
X-224571Y-169430D01*
X-223428Y-169810D01*
X-220000D01*
X-222666D02*
X-225332Y-174000D01*
X-227503Y-167906D02*
Y-167525D01*
X-227884Y-166763D01*
X-228265Y-166383D01*
X-229027Y-166002D01*
X-230550D01*
X-231312Y-166383D01*
X-231693Y-166763D01*
X-232074Y-167525D01*
Y-168287D01*
X-231693Y-169049D01*
X-230931Y-170191D01*
X-227122Y-174000D01*
X-232454D01*
X-236530Y-166002D02*
X-235387Y-166383D01*
X-234625Y-167525D01*
X-234245Y-169430D01*
Y-170572D01*
X-234625Y-172477D01*
X-235387Y-173619D01*
X-236530Y-174000D01*
X-237292D01*
X-238434Y-173619D01*
X-239196Y-172477D01*
X-239577Y-170572D01*
Y-169430D01*
X-239196Y-167525D01*
X-238434Y-166383D01*
X-237292Y-166002D01*
X-236530D01*
X-245937D02*
X-242129D01*
X-241748Y-169430D01*
X-242129Y-169049D01*
X-243271Y-168668D01*
X-244414D01*
X-245557Y-169049D01*
X-246318Y-169810D01*
X-246699Y-170953D01*
Y-171715D01*
X-246318Y-172857D01*
X-245557Y-173619D01*
X-244414Y-174000D01*
X-243271D01*
X-242129Y-173619D01*
X-241748Y-173238D01*
X-241367Y-172477D01*
X-220000Y-151002D02*
Y-159000D01*
Y-151002D02*
X-223428D01*
X-224571Y-151383D01*
X-224951Y-151763D01*
X-225332Y-152525D01*
Y-153287D01*
X-224951Y-154049D01*
X-224571Y-154430D01*
X-223428Y-154810D01*
X-220000D01*
X-222666D02*
X-225332Y-159000D01*
X-227503Y-152906D02*
Y-152525D01*
X-227884Y-151763D01*
X-228265Y-151383D01*
X-229027Y-151002D01*
X-230550D01*
X-231312Y-151383D01*
X-231693Y-151763D01*
X-232074Y-152525D01*
Y-153287D01*
X-231693Y-154049D01*
X-230931Y-155191D01*
X-227122Y-159000D01*
X-232454D01*
X-236530Y-151002D02*
X-235387Y-151383D01*
X-234625Y-152525D01*
X-234245Y-154430D01*
Y-155572D01*
X-234625Y-157477D01*
X-235387Y-158619D01*
X-236530Y-159000D01*
X-237292D01*
X-238434Y-158619D01*
X-239196Y-157477D01*
X-239577Y-155572D01*
Y-154430D01*
X-239196Y-152525D01*
X-238434Y-151383D01*
X-237292Y-151002D01*
X-236530D01*
X-245176D02*
X-241367Y-156334D01*
X-247080D01*
X-245176Y-151002D02*
Y-159000D01*
X-221000Y-185002D02*
Y-193000D01*
Y-185002D02*
X-224428D01*
X-225571Y-185383D01*
X-225951Y-185763D01*
X-226332Y-186525D01*
Y-187287D01*
X-225951Y-188049D01*
X-225571Y-188430D01*
X-224428Y-188810D01*
X-221000D01*
X-223666D02*
X-226332Y-193000D01*
X-228503Y-186906D02*
Y-186525D01*
X-228884Y-185763D01*
X-229265Y-185383D01*
X-230027Y-185002D01*
X-231550D01*
X-232312Y-185383D01*
X-232693Y-185763D01*
X-233074Y-186525D01*
Y-187287D01*
X-232693Y-188049D01*
X-231931Y-189191D01*
X-228122Y-193000D01*
X-233454D01*
X-237530Y-185002D02*
X-236387Y-185383D01*
X-235625Y-186525D01*
X-235245Y-188430D01*
Y-189572D01*
X-235625Y-191476D01*
X-236387Y-192619D01*
X-237530Y-193000D01*
X-238291D01*
X-239434Y-192619D01*
X-240196Y-191476D01*
X-240577Y-189572D01*
Y-188430D01*
X-240196Y-186525D01*
X-239434Y-185383D01*
X-238291Y-185002D01*
X-237530D01*
X-242748Y-186906D02*
Y-186525D01*
X-243129Y-185763D01*
X-243510Y-185383D01*
X-244271Y-185002D01*
X-245795D01*
X-246556Y-185383D01*
X-246937Y-185763D01*
X-247318Y-186525D01*
Y-187287D01*
X-246937Y-188049D01*
X-246176Y-189191D01*
X-242367Y-193000D01*
X-247699D01*
X276974Y113659D02*
X276593Y112898D01*
X275832Y112136D01*
X275070Y111755D01*
X273927Y111374D01*
X272023D01*
X270880Y111755D01*
X270119Y112136D01*
X269357Y112898D01*
X268976Y113659D01*
Y115183D01*
X269357Y115944D01*
X270119Y116706D01*
X270880Y117087D01*
X272023Y117468D01*
X273927D01*
X275070Y117087D01*
X275832Y116706D01*
X276593Y115944D01*
X276974Y115183D01*
Y113659D01*
X270499Y114802D02*
X268214Y117087D01*
X276974Y123143D02*
X271642Y119334D01*
Y125047D01*
X276974Y123143D02*
X268976D01*
X276974Y130265D02*
X271642Y126456D01*
Y132170D01*
X276974Y130265D02*
X268976D01*
X275070Y133960D02*
X275451D01*
X276213Y134340D01*
X276593Y134721D01*
X276974Y135483D01*
Y137007D01*
X276593Y137768D01*
X276213Y138149D01*
X275451Y138530D01*
X274689D01*
X273927Y138149D01*
X272785Y137388D01*
X268976Y133579D01*
Y138911D01*
X237715Y202998D02*
X238477Y202617D01*
X239238Y201856D01*
X239619Y201094D01*
X240000Y199951D01*
Y198047D01*
X239619Y196904D01*
X239238Y196143D01*
X238477Y195381D01*
X237715Y195000D01*
X236191D01*
X235430Y195381D01*
X234668Y196143D01*
X234287Y196904D01*
X233906Y198047D01*
Y199951D01*
X234287Y201094D01*
X234668Y201856D01*
X235430Y202617D01*
X236191Y202998D01*
X237715D01*
X236572Y196523D02*
X234287Y194238D01*
X228231Y202998D02*
X232040Y197666D01*
X226327D01*
X228231Y202998D02*
Y195000D01*
X221109Y202998D02*
X224918Y197666D01*
X219204D01*
X221109Y202998D02*
Y195000D01*
X217795Y201475D02*
X217034Y201856D01*
X215891Y202998D01*
Y195000D01*
X206870Y113659D02*
X206489Y112898D01*
X205728Y112136D01*
X204966Y111755D01*
X203823Y111374D01*
X201919D01*
X200776Y111755D01*
X200015Y112136D01*
X199253Y112898D01*
X198872Y113659D01*
Y115183D01*
X199253Y115944D01*
X200015Y116706D01*
X200776Y117087D01*
X201919Y117468D01*
X203823D01*
X204966Y117087D01*
X205728Y116706D01*
X206489Y115944D01*
X206870Y115183D01*
Y113659D01*
X200395Y114802D02*
X198110Y117087D01*
X206870Y123143D02*
X201538Y119334D01*
Y125047D01*
X206870Y123143D02*
X198872D01*
X206870Y127218D02*
Y131408D01*
X203823Y129123D01*
Y130265D01*
X203442Y131027D01*
X203062Y131408D01*
X201919Y131789D01*
X201157D01*
X200015Y131408D01*
X199253Y130646D01*
X198872Y129503D01*
Y128361D01*
X199253Y127218D01*
X199634Y126837D01*
X200395Y126457D01*
X204966Y133960D02*
X205347D01*
X206108Y134341D01*
X206489Y134721D01*
X206870Y135483D01*
Y137007D01*
X206489Y137768D01*
X206108Y138149D01*
X205347Y138530D01*
X204585D01*
X203823Y138149D01*
X202681Y137388D01*
X198872Y133579D01*
Y138911D01*
X168965Y202998D02*
X169727Y202617D01*
X170488Y201856D01*
X170869Y201094D01*
X171250Y199951D01*
Y198047D01*
X170869Y196904D01*
X170488Y196143D01*
X169727Y195381D01*
X168965Y195000D01*
X167441D01*
X166679Y195381D01*
X165918Y196143D01*
X165537Y196904D01*
X165156Y198047D01*
Y199951D01*
X165537Y201094D01*
X165918Y201856D01*
X166679Y202617D01*
X167441Y202998D01*
X168965D01*
X167822Y196523D02*
X165537Y194238D01*
X159481Y202998D02*
X163290Y197666D01*
X157577D01*
X159481Y202998D02*
Y195000D01*
X155406Y202998D02*
X151216D01*
X153501Y199951D01*
X152359D01*
X151597Y199570D01*
X151216Y199190D01*
X150835Y198047D01*
Y197285D01*
X151216Y196143D01*
X151978Y195381D01*
X153120Y195000D01*
X154263D01*
X155406Y195381D01*
X155787Y195762D01*
X156167Y196523D01*
X149045Y201475D02*
X148284Y201856D01*
X147141Y202998D01*
Y195000D01*
X136766Y113659D02*
X136385Y112898D01*
X135624Y112136D01*
X134862Y111755D01*
X133719Y111374D01*
X131815D01*
X130672Y111755D01*
X129911Y112136D01*
X129149Y112898D01*
X128768Y113659D01*
Y115183D01*
X129149Y115945D01*
X129911Y116706D01*
X130672Y117087D01*
X131815Y117468D01*
X133719D01*
X134862Y117087D01*
X135624Y116706D01*
X136385Y115945D01*
X136766Y115183D01*
Y113659D01*
X130291Y114802D02*
X128006Y117087D01*
X136766Y123143D02*
X131434Y119334D01*
Y125047D01*
X136766Y123143D02*
X128768D01*
X134862Y126838D02*
X135243D01*
X136004Y127218D01*
X136385Y127599D01*
X136766Y128361D01*
Y129884D01*
X136385Y130646D01*
X136004Y131027D01*
X135243Y131408D01*
X134481D01*
X133719Y131027D01*
X132577Y130265D01*
X128768Y126457D01*
Y131789D01*
X134862Y133960D02*
X135243D01*
X136004Y134341D01*
X136385Y134721D01*
X136766Y135483D01*
Y137007D01*
X136385Y137768D01*
X136004Y138149D01*
X135243Y138530D01*
X134481D01*
X133719Y138149D01*
X132577Y137388D01*
X128768Y133579D01*
Y138911D01*
X92715Y204248D02*
X93476Y203867D01*
X94238Y203106D01*
X94619Y202344D01*
X95000Y201201D01*
Y199297D01*
X94619Y198154D01*
X94238Y197393D01*
X93476Y196631D01*
X92715Y196250D01*
X91191D01*
X90429Y196631D01*
X89668Y197393D01*
X89287Y198154D01*
X88906Y199297D01*
Y201201D01*
X89287Y202344D01*
X89668Y203106D01*
X90429Y203867D01*
X91191Y204248D01*
X92715D01*
X91572Y197773D02*
X89287Y195488D01*
X83231Y204248D02*
X87040Y198916D01*
X81327D01*
X83231Y204248D02*
Y196250D01*
X79537Y202344D02*
Y202725D01*
X79156Y203487D01*
X78775Y203867D01*
X78013Y204248D01*
X76490D01*
X75728Y203867D01*
X75347Y203487D01*
X74966Y202725D01*
Y201963D01*
X75347Y201201D01*
X76109Y200059D01*
X79917Y196250D01*
X74585D01*
X72795Y202725D02*
X72034Y203106D01*
X70891Y204248D01*
Y196250D01*
X-195502Y-56150D02*
X-203500D01*
Y-51580D01*
X-197025Y-50704D02*
X-196644Y-49942D01*
X-195502Y-48799D01*
X-203500D01*
X-195502Y-42553D02*
X-195883Y-43696D01*
X-197025Y-44457D01*
X-198930Y-44838D01*
X-200072D01*
X-201977Y-44457D01*
X-203119Y-43696D01*
X-203500Y-42553D01*
Y-41791D01*
X-203119Y-40649D01*
X-201977Y-39887D01*
X-200072Y-39506D01*
X-198930D01*
X-197025Y-39887D01*
X-195883Y-40649D01*
X-195502Y-41791D01*
Y-42553D01*
X-197406Y-37335D02*
X-197025D01*
X-196263Y-36954D01*
X-195883Y-36573D01*
X-195502Y-35812D01*
Y-34288D01*
X-195883Y-33526D01*
X-196263Y-33145D01*
X-197025Y-32765D01*
X-197787D01*
X-198549Y-33145D01*
X-199691Y-33907D01*
X-203500Y-37716D01*
Y-32384D01*
X-257002Y110000D02*
X-265000D01*
X-257002D02*
Y114951D01*
X-260810Y110000D02*
Y113047D01*
X-258525Y115865D02*
X-258144Y116627D01*
X-257002Y117770D01*
X-265000D01*
X-257002Y125540D02*
X-262334Y121731D01*
Y127444D01*
X-257002Y125540D02*
X-265000D01*
X-258525Y128853D02*
X-258144Y129615D01*
X-257002Y130758D01*
X-265000D01*
X101748Y-201250D02*
X93750D01*
X101748D02*
Y-198584D01*
X101367Y-197441D01*
X100606Y-196679D01*
X99844Y-196299D01*
X98701Y-195918D01*
X96797D01*
X95654Y-196299D01*
X94893Y-196679D01*
X94131Y-197441D01*
X93750Y-198584D01*
Y-201250D01*
X100225Y-194128D02*
X100606Y-193366D01*
X101748Y-192223D01*
X93750D01*
X101748Y-185977D02*
X101367Y-187120D01*
X100225Y-187881D01*
X98321Y-188262D01*
X97178D01*
X95274Y-187881D01*
X94131Y-187120D01*
X93750Y-185977D01*
Y-185215D01*
X94131Y-184073D01*
X95274Y-183311D01*
X97178Y-182930D01*
X98321D01*
X100225Y-183311D01*
X101367Y-184073D01*
X101748Y-185215D01*
Y-185977D01*
Y-177331D02*
X96416Y-181140D01*
Y-175427D01*
X101748Y-177331D02*
X93750D01*
X28750Y-263252D02*
Y-271250D01*
Y-263252D02*
X26084D01*
X24941Y-263633D01*
X24180Y-264394D01*
X23799Y-265156D01*
X23418Y-266299D01*
Y-268203D01*
X23799Y-269346D01*
X24180Y-270107D01*
X24941Y-270869D01*
X26084Y-271250D01*
X28750D01*
X21628Y-264775D02*
X20866Y-264394D01*
X19723Y-263252D01*
Y-271250D01*
X13477Y-263252D02*
X14620Y-263633D01*
X15381Y-264775D01*
X15762Y-266680D01*
Y-267822D01*
X15381Y-269727D01*
X14620Y-270869D01*
X13477Y-271250D01*
X12715D01*
X11573Y-270869D01*
X10811Y-269727D01*
X10430Y-267822D01*
Y-266680D01*
X10811Y-264775D01*
X11573Y-263633D01*
X12715Y-263252D01*
X13477D01*
X7878D02*
X3689D01*
X5974Y-266299D01*
X4831D01*
X4070Y-266680D01*
X3689Y-267060D01*
X3308Y-268203D01*
Y-268965D01*
X3689Y-270107D01*
X4450Y-270869D01*
X5593Y-271250D01*
X6736D01*
X7878Y-270869D01*
X8259Y-270488D01*
X8640Y-269727D01*
X-66963Y213594D02*
X-66582Y214356D01*
X-65820Y215117D01*
X-65059Y215498D01*
X-63535D01*
X-62773Y215117D01*
X-62012Y214356D01*
X-61631Y213594D01*
X-61250Y212451D01*
Y210547D01*
X-61631Y209404D01*
X-62012Y208643D01*
X-62773Y207881D01*
X-63535Y207500D01*
X-65059D01*
X-65820Y207881D01*
X-66582Y208643D01*
X-66963Y209404D01*
X-73019Y215498D02*
X-69210Y210166D01*
X-74923D01*
X-73019Y215498D02*
Y207500D01*
X-78618Y215498D02*
X-77475Y215117D01*
X-76713Y213975D01*
X-76333Y212070D01*
Y210928D01*
X-76713Y209023D01*
X-77475Y207881D01*
X-78618Y207500D01*
X-79379D01*
X-80522Y207881D01*
X-81284Y209023D01*
X-81665Y210928D01*
Y212070D01*
X-81284Y213975D01*
X-80522Y215117D01*
X-79379Y215498D01*
X-78618D01*
X-83836Y213594D02*
Y213975D01*
X-84216Y214737D01*
X-84597Y215117D01*
X-85359Y215498D01*
X-86883D01*
X-87644Y215117D01*
X-88025Y214737D01*
X-88406Y213975D01*
Y213213D01*
X-88025Y212451D01*
X-87263Y211309D01*
X-83455Y207500D01*
X-88787D01*
X96287Y354094D02*
X96668Y354856D01*
X97430Y355617D01*
X98191Y355998D01*
X99715D01*
X100477Y355617D01*
X101238Y354856D01*
X101619Y354094D01*
X102000Y352951D01*
Y351047D01*
X101619Y349904D01*
X101238Y349143D01*
X100477Y348381D01*
X99715Y348000D01*
X98191D01*
X97430Y348381D01*
X96668Y349143D01*
X96287Y349904D01*
X94040Y354475D02*
X93278Y354856D01*
X92135Y355998D01*
Y348000D01*
X87794Y354094D02*
Y354475D01*
X87413Y355237D01*
X87032Y355617D01*
X86270Y355998D01*
X84747D01*
X83985Y355617D01*
X83604Y355237D01*
X83223Y354475D01*
Y353713D01*
X83604Y352951D01*
X84366Y351809D01*
X88174Y348000D01*
X82842D01*
X80671Y354094D02*
Y354475D01*
X80290Y355237D01*
X79910Y355617D01*
X79148Y355998D01*
X77624D01*
X76863Y355617D01*
X76482Y355237D01*
X76101Y354475D01*
Y353713D01*
X76482Y352951D01*
X77243Y351809D01*
X81052Y348000D01*
X75720D01*
X131287Y354094D02*
X131668Y354856D01*
X132430Y355617D01*
X133191Y355998D01*
X134715D01*
X135477Y355617D01*
X136238Y354856D01*
X136619Y354094D01*
X137000Y352951D01*
Y351047D01*
X136619Y349904D01*
X136238Y349143D01*
X135477Y348381D01*
X134715Y348000D01*
X133191D01*
X132430Y348381D01*
X131668Y349143D01*
X131287Y349904D01*
X129040Y354475D02*
X128278Y354856D01*
X127135Y355998D01*
Y348000D01*
X122794Y354094D02*
Y354475D01*
X122413Y355237D01*
X122032Y355617D01*
X121270Y355998D01*
X119747D01*
X118985Y355617D01*
X118604Y355237D01*
X118223Y354475D01*
Y353713D01*
X118604Y352951D01*
X119366Y351809D01*
X123174Y348000D01*
X117842D01*
X116052Y354475D02*
X115290Y354856D01*
X114148Y355998D01*
Y348000D01*
X74844Y-200537D02*
X75606Y-200918D01*
X76367Y-201680D01*
X76748Y-202441D01*
Y-203965D01*
X76367Y-204727D01*
X75606Y-205488D01*
X74844Y-205869D01*
X73701Y-206250D01*
X71797D01*
X70654Y-205869D01*
X69893Y-205488D01*
X69131Y-204727D01*
X68750Y-203965D01*
Y-202441D01*
X69131Y-201680D01*
X69893Y-200918D01*
X70654Y-200537D01*
X75225Y-198290D02*
X75606Y-197528D01*
X76748Y-196385D01*
X68750D01*
X75225Y-192424D02*
X75606Y-191663D01*
X76748Y-190520D01*
X68750D01*
X76748Y-181989D02*
Y-185797D01*
X73320Y-186178D01*
X73701Y-185797D01*
X74082Y-184655D01*
Y-183512D01*
X73701Y-182369D01*
X72940Y-181608D01*
X71797Y-181227D01*
X71035D01*
X69893Y-181608D01*
X69131Y-182369D01*
X68750Y-183512D01*
Y-184655D01*
X69131Y-185797D01*
X69512Y-186178D01*
X70273Y-186559D01*
X287246Y212044D02*
X288074Y212241D01*
X289147Y212148D01*
X289929Y211809D01*
X290908Y210642D01*
X291106Y209813D01*
X291012Y208740D01*
X290673Y207959D01*
X290043Y206933D01*
X288584Y205709D01*
X287464Y205266D01*
X286636Y205068D01*
X285562Y205162D01*
X284781Y205501D01*
X283802Y206668D01*
X283604Y207496D01*
X283698Y208569D01*
X284037Y209351D01*
X286093Y214010D02*
X285895Y214838D01*
X286036Y216448D01*
X279909Y211307D01*
X283001Y220066D02*
X280308Y223275D01*
X279442Y219566D01*
X278708Y220441D01*
X277926Y220780D01*
X277390Y220827D01*
X276270Y220384D01*
X275686Y219895D01*
X275056Y218868D01*
X274962Y217795D01*
X275404Y216675D01*
X276139Y215800D01*
X277165Y215169D01*
X277702Y215123D01*
X278530Y215320D01*
X277745Y223959D02*
X277547Y224787D01*
X277688Y226397D01*
X271561Y221256D01*
X-136250Y15498D02*
Y7500D01*
Y15498D02*
X-139678D01*
X-140820Y15117D01*
X-141201Y14737D01*
X-141582Y13975D01*
Y13213D01*
X-141201Y12451D01*
X-140820Y12070D01*
X-139678Y11690D01*
X-136250D01*
X-138916D02*
X-141582Y7500D01*
X-147181Y15498D02*
X-143372Y10166D01*
X-149085D01*
X-147181Y15498D02*
Y7500D01*
X-150495Y13975D02*
X-151256Y14356D01*
X-152399Y15498D01*
Y7500D01*
X-161692Y15498D02*
X-157884Y7500D01*
X-156360Y15498D02*
X-161692D01*
X-136250Y29248D02*
Y21250D01*
Y29248D02*
X-139678D01*
X-140820Y28867D01*
X-141201Y28487D01*
X-141582Y27725D01*
Y26963D01*
X-141201Y26201D01*
X-140820Y25820D01*
X-139678Y25440D01*
X-136250D01*
X-138916D02*
X-141582Y21250D01*
X-147181Y29248D02*
X-143372Y23916D01*
X-149085D01*
X-147181Y29248D02*
Y21250D01*
X-150495Y27725D02*
X-151256Y28106D01*
X-152399Y29248D01*
Y21250D01*
X-160930Y28106D02*
X-160550Y28867D01*
X-159407Y29248D01*
X-158645D01*
X-157503Y28867D01*
X-156741Y27725D01*
X-156360Y25820D01*
Y23916D01*
X-156741Y22393D01*
X-157503Y21631D01*
X-158645Y21250D01*
X-159026D01*
X-160169Y21631D01*
X-160930Y22393D01*
X-161311Y23535D01*
Y23916D01*
X-160930Y25059D01*
X-160169Y25820D01*
X-159026Y26201D01*
X-158645D01*
X-157503Y25820D01*
X-156741Y25059D01*
X-156360Y23916D01*
X-255752Y7500D02*
X-263750D01*
X-255752D02*
Y10928D01*
X-256133Y12070D01*
X-256513Y12451D01*
X-257275Y12832D01*
X-258037D01*
X-258799Y12451D01*
X-259179Y12070D01*
X-259560Y10928D01*
Y7500D01*
Y10166D02*
X-263750Y12832D01*
X-255752Y18431D02*
X-261084Y14622D01*
Y20335D01*
X-255752Y18431D02*
X-263750D01*
X-255752Y24030D02*
X-256133Y22887D01*
X-257275Y22125D01*
X-259179Y21745D01*
X-260322D01*
X-262227Y22125D01*
X-263369Y22887D01*
X-263750Y24030D01*
Y24792D01*
X-263369Y25934D01*
X-262227Y26696D01*
X-260322Y27077D01*
X-259179D01*
X-257275Y26696D01*
X-256133Y25934D01*
X-255752Y24792D01*
Y24030D01*
X-257656Y29248D02*
X-257275D01*
X-256513Y29629D01*
X-256133Y30010D01*
X-255752Y30771D01*
Y32295D01*
X-256133Y33056D01*
X-256513Y33437D01*
X-257275Y33818D01*
X-258037D01*
X-258799Y33437D01*
X-259941Y32676D01*
X-263750Y28867D01*
Y34199D01*
X-136250Y44248D02*
Y36250D01*
Y44248D02*
X-139678D01*
X-140820Y43868D01*
X-141201Y43487D01*
X-141582Y42725D01*
Y41963D01*
X-141201Y41201D01*
X-140820Y40820D01*
X-139678Y40440D01*
X-136250D01*
X-138916D02*
X-141582Y36250D01*
X-147181Y44248D02*
X-143372Y38916D01*
X-149085D01*
X-147181Y44248D02*
Y36250D01*
X-150495Y42725D02*
X-151256Y43106D01*
X-152399Y44248D01*
Y36250D01*
X-156360Y42725D02*
X-157122Y43106D01*
X-158264Y44248D01*
Y36250D01*
X-183252Y173750D02*
X-191250D01*
X-183252D02*
Y176416D01*
X-183633Y177559D01*
X-184394Y178320D01*
X-185156Y178701D01*
X-186299Y179082D01*
X-188203D01*
X-189346Y178701D01*
X-190107Y178320D01*
X-190869Y177559D01*
X-191250Y176416D01*
Y173750D01*
X-183252Y184681D02*
X-188584Y180872D01*
Y186585D01*
X-183252Y184681D02*
X-191250D01*
X-183252Y192565D02*
Y188756D01*
X-186680Y188375D01*
X-186299Y188756D01*
X-185918Y189899D01*
Y191042D01*
X-186299Y192184D01*
X-187060Y192946D01*
X-188203Y193327D01*
X-188965D01*
X-190107Y192946D01*
X-190869Y192184D01*
X-191250Y191042D01*
Y189899D01*
X-190869Y188756D01*
X-190488Y188375D01*
X-189727Y187995D01*
X-184775Y195117D02*
X-184394Y195879D01*
X-183252Y197021D01*
X-191250D01*
X-118906Y233213D02*
X-118144Y232832D01*
X-117383Y232071D01*
X-117002Y231309D01*
Y229785D01*
X-117383Y229023D01*
X-118144Y228262D01*
X-118906Y227881D01*
X-120049Y227500D01*
X-121953D01*
X-123096Y227881D01*
X-123857Y228262D01*
X-124619Y229023D01*
X-125000Y229785D01*
Y231309D01*
X-124619Y232071D01*
X-123857Y232832D01*
X-123096Y233213D01*
X-117002Y236222D02*
Y240411D01*
X-120049Y238126D01*
Y239269D01*
X-120430Y240031D01*
X-120810Y240411D01*
X-121953Y240792D01*
X-122715D01*
X-123857Y240411D01*
X-124619Y239650D01*
X-125000Y238507D01*
Y237365D01*
X-124619Y236222D01*
X-124238Y235841D01*
X-123476Y235460D01*
X-117002Y247153D02*
Y243344D01*
X-120430Y242963D01*
X-120049Y243344D01*
X-119668Y244487D01*
Y245630D01*
X-120049Y246772D01*
X-120810Y247534D01*
X-121953Y247915D01*
X-122715D01*
X-123857Y247534D01*
X-124619Y246772D01*
X-125000Y245630D01*
Y244487D01*
X-124619Y243344D01*
X-124238Y242963D01*
X-123476Y242582D01*
X-118525Y249705D02*
X-118144Y250466D01*
X-117002Y251609D01*
X-125000D01*
X-136250Y-9502D02*
Y-17500D01*
Y-9502D02*
X-139678D01*
X-140820Y-9883D01*
X-141201Y-10263D01*
X-141582Y-11025D01*
Y-11787D01*
X-141201Y-12549D01*
X-140820Y-12930D01*
X-139678Y-13310D01*
X-136250D01*
X-138916D02*
X-141582Y-17500D01*
X-147181Y-9502D02*
X-143372Y-14834D01*
X-149085D01*
X-147181Y-9502D02*
Y-17500D01*
X-150495Y-11025D02*
X-151256Y-10644D01*
X-152399Y-9502D01*
Y-17500D01*
X-160930Y-9502D02*
X-157122D01*
X-156741Y-12930D01*
X-157122Y-12549D01*
X-158264Y-12168D01*
X-159407D01*
X-160550Y-12549D01*
X-161311Y-13310D01*
X-161692Y-14453D01*
Y-15215D01*
X-161311Y-16357D01*
X-160550Y-17119D01*
X-159407Y-17500D01*
X-158264D01*
X-157122Y-17119D01*
X-156741Y-16738D01*
X-156360Y-15977D01*
X-136250Y2998D02*
Y-5000D01*
Y2998D02*
X-139678D01*
X-140820Y2617D01*
X-141201Y2237D01*
X-141582Y1475D01*
Y713D01*
X-141201Y-49D01*
X-140820Y-430D01*
X-139678Y-810D01*
X-136250D01*
X-138916D02*
X-141582Y-5000D01*
X-147181Y2998D02*
X-143372Y-2334D01*
X-149085D01*
X-147181Y2998D02*
Y-5000D01*
X-150495Y1475D02*
X-151256Y1856D01*
X-152399Y2998D01*
Y-5000D01*
X-160169Y2998D02*
X-156360Y-2334D01*
X-162073D01*
X-160169Y2998D02*
Y-5000D01*
X-136250Y-34502D02*
Y-42500D01*
Y-34502D02*
X-139678D01*
X-140820Y-34883D01*
X-141201Y-35263D01*
X-141582Y-36025D01*
Y-36787D01*
X-141201Y-37549D01*
X-140820Y-37929D01*
X-139678Y-38310D01*
X-136250D01*
X-138916D02*
X-141582Y-42500D01*
X-147181Y-34502D02*
X-143372Y-39834D01*
X-149085D01*
X-147181Y-34502D02*
Y-42500D01*
X-150495Y-36025D02*
X-151256Y-35644D01*
X-152399Y-34502D01*
Y-42500D01*
X-157122Y-34502D02*
X-161311D01*
X-159026Y-37549D01*
X-160169D01*
X-160930Y-37929D01*
X-161311Y-38310D01*
X-161692Y-39453D01*
Y-40215D01*
X-161311Y-41357D01*
X-160550Y-42119D01*
X-159407Y-42500D01*
X-158264D01*
X-157122Y-42119D01*
X-156741Y-41738D01*
X-156360Y-40977D01*
X-136250Y-22002D02*
Y-30000D01*
Y-22002D02*
X-139678D01*
X-140820Y-22383D01*
X-141201Y-22763D01*
X-141582Y-23525D01*
Y-24287D01*
X-141201Y-25049D01*
X-140820Y-25429D01*
X-139678Y-25810D01*
X-136250D01*
X-138916D02*
X-141582Y-30000D01*
X-147181Y-22002D02*
X-143372Y-27334D01*
X-149085D01*
X-147181Y-22002D02*
Y-30000D01*
X-150495Y-23525D02*
X-151256Y-23144D01*
X-152399Y-22002D01*
Y-30000D01*
X-156741Y-23906D02*
Y-23525D01*
X-157122Y-22763D01*
X-157503Y-22383D01*
X-158264Y-22002D01*
X-159788D01*
X-160550Y-22383D01*
X-160930Y-22763D01*
X-161311Y-23525D01*
Y-24287D01*
X-160930Y-25049D01*
X-160169Y-26191D01*
X-156360Y-30000D01*
X-161692D01*
X42344Y189463D02*
X43106Y189082D01*
X43867Y188321D01*
X44248Y187559D01*
Y186035D01*
X43867Y185273D01*
X43106Y184512D01*
X42344Y184131D01*
X41201Y183750D01*
X39297D01*
X38154Y184131D01*
X37393Y184512D01*
X36631Y185273D01*
X36250Y186035D01*
Y187559D01*
X36631Y188321D01*
X37393Y189082D01*
X38154Y189463D01*
X44248Y195519D02*
X38916Y191710D01*
Y197423D01*
X44248Y195519D02*
X36250D01*
X44248Y202641D02*
X38916Y198832D01*
Y204546D01*
X44248Y202641D02*
X36250D01*
X42725Y205955D02*
X43106Y206716D01*
X44248Y207859D01*
X36250D01*
X42344Y158213D02*
X43106Y157832D01*
X43867Y157071D01*
X44248Y156309D01*
Y154785D01*
X43867Y154024D01*
X43106Y153262D01*
X42344Y152881D01*
X41201Y152500D01*
X39297D01*
X38154Y152881D01*
X37393Y153262D01*
X36631Y154024D01*
X36250Y154785D01*
Y156309D01*
X36631Y157071D01*
X37393Y157832D01*
X38154Y158213D01*
X44248Y164269D02*
X38916Y160460D01*
Y166173D01*
X44248Y164269D02*
X36250D01*
X44248Y168344D02*
Y172534D01*
X41201Y170249D01*
Y171391D01*
X40820Y172153D01*
X40440Y172534D01*
X39297Y172915D01*
X38535D01*
X37393Y172534D01*
X36631Y171772D01*
X36250Y170630D01*
Y169487D01*
X36631Y168344D01*
X37012Y167963D01*
X37773Y167582D01*
X42725Y174705D02*
X43106Y175466D01*
X44248Y176609D01*
X36250D01*
X42344Y129463D02*
X43106Y129082D01*
X43867Y128320D01*
X44248Y127559D01*
Y126035D01*
X43867Y125274D01*
X43106Y124512D01*
X42344Y124131D01*
X41201Y123750D01*
X39297D01*
X38154Y124131D01*
X37393Y124512D01*
X36631Y125274D01*
X36250Y126035D01*
Y127559D01*
X36631Y128320D01*
X37393Y129082D01*
X38154Y129463D01*
X44248Y135519D02*
X38916Y131710D01*
Y137423D01*
X44248Y135519D02*
X36250D01*
X42344Y139213D02*
X42725D01*
X43487Y139594D01*
X43867Y139975D01*
X44248Y140737D01*
Y142260D01*
X43867Y143022D01*
X43487Y143403D01*
X42725Y143784D01*
X41963D01*
X41201Y143403D01*
X40059Y142641D01*
X36250Y138833D01*
Y144165D01*
X42725Y145955D02*
X43106Y146716D01*
X44248Y147859D01*
X36250D01*
X-111963Y119844D02*
X-111582Y120606D01*
X-110821Y121367D01*
X-110059Y121748D01*
X-108535D01*
X-107774Y121367D01*
X-107012Y120606D01*
X-106631Y119844D01*
X-106250Y118701D01*
Y116797D01*
X-106631Y115654D01*
X-107012Y114893D01*
X-107774Y114131D01*
X-108535Y113750D01*
X-110059D01*
X-110821Y114131D01*
X-111582Y114893D01*
X-111963Y115654D01*
X-118019Y121748D02*
X-114210Y116416D01*
X-119923D01*
X-118019Y121748D02*
Y113750D01*
X-125903Y121748D02*
X-122094D01*
X-121713Y118320D01*
X-122094Y118701D01*
X-123237Y119082D01*
X-124380D01*
X-125522Y118701D01*
X-126284Y117940D01*
X-126665Y116797D01*
Y116035D01*
X-126284Y114893D01*
X-125522Y114131D01*
X-124380Y113750D01*
X-123237D01*
X-122094Y114131D01*
X-121713Y114512D01*
X-121333Y115274D01*
X-128455Y120225D02*
X-129216Y120606D01*
X-130359Y121748D01*
Y113750D01*
X185094Y308713D02*
X185856Y308332D01*
X186617Y307570D01*
X186998Y306809D01*
Y305285D01*
X186617Y304524D01*
X185856Y303762D01*
X185094Y303381D01*
X183951Y303000D01*
X182047D01*
X180904Y303381D01*
X180143Y303762D01*
X179381Y304524D01*
X179000Y305285D01*
Y306809D01*
X179381Y307570D01*
X180143Y308332D01*
X180904Y308713D01*
X185475Y310960D02*
X185856Y311722D01*
X186998Y312865D01*
X179000D01*
X185094Y317206D02*
X185475D01*
X186237Y317587D01*
X186617Y317968D01*
X186998Y318730D01*
Y320253D01*
X186617Y321015D01*
X186237Y321396D01*
X185475Y321777D01*
X184713D01*
X183951Y321396D01*
X182809Y320634D01*
X179000Y316826D01*
Y322158D01*
X186998Y327757D02*
X181666Y323948D01*
Y329661D01*
X186998Y327757D02*
X179000D01*
X-208906Y13213D02*
X-208144Y12832D01*
X-207383Y12070D01*
X-207002Y11309D01*
Y9785D01*
X-207383Y9024D01*
X-208144Y8262D01*
X-208906Y7881D01*
X-210049Y7500D01*
X-211953D01*
X-213096Y7881D01*
X-213857Y8262D01*
X-214619Y9024D01*
X-215000Y9785D01*
Y11309D01*
X-214619Y12070D01*
X-213857Y12832D01*
X-213096Y13213D01*
X-207002Y19269D02*
X-212334Y15460D01*
Y21173D01*
X-207002Y19269D02*
X-215000D01*
X-207002Y24868D02*
X-207383Y23725D01*
X-208525Y22963D01*
X-210430Y22582D01*
X-211572D01*
X-213477Y22963D01*
X-214619Y23725D01*
X-215000Y24868D01*
Y25629D01*
X-214619Y26772D01*
X-213477Y27534D01*
X-211572Y27915D01*
X-210430D01*
X-208525Y27534D01*
X-207383Y26772D01*
X-207002Y25629D01*
Y24868D01*
Y33514D02*
X-212334Y29705D01*
Y35418D01*
X-207002Y33514D02*
X-215000D01*
X-64963Y226094D02*
X-64582Y226856D01*
X-63821Y227617D01*
X-63059Y227998D01*
X-61535D01*
X-60774Y227617D01*
X-60012Y226856D01*
X-59631Y226094D01*
X-59250Y224951D01*
Y223047D01*
X-59631Y221904D01*
X-60012Y221143D01*
X-60774Y220381D01*
X-61535Y220000D01*
X-63059D01*
X-63821Y220381D01*
X-64582Y221143D01*
X-64963Y221904D01*
X-71019Y227998D02*
X-67210Y222666D01*
X-72923D01*
X-71019Y227998D02*
Y220000D01*
X-76618Y227998D02*
X-75475Y227617D01*
X-74713Y226475D01*
X-74333Y224570D01*
Y223428D01*
X-74713Y221523D01*
X-75475Y220381D01*
X-76618Y220000D01*
X-77379D01*
X-78522Y220381D01*
X-79284Y221523D01*
X-79665Y223428D01*
Y224570D01*
X-79284Y226475D01*
X-78522Y227617D01*
X-77379Y227998D01*
X-76618D01*
X-86025D02*
X-82217D01*
X-81836Y224570D01*
X-82217Y224951D01*
X-83359Y225332D01*
X-84502D01*
X-85644Y224951D01*
X-86406Y224190D01*
X-86787Y223047D01*
Y222285D01*
X-86406Y221143D01*
X-85644Y220381D01*
X-84502Y220000D01*
X-83359D01*
X-82217Y220381D01*
X-81836Y220762D01*
X-81455Y221523D01*
X-38906Y-318037D02*
X-38144Y-318418D01*
X-37383Y-319179D01*
X-37002Y-319941D01*
Y-321465D01*
X-37383Y-322226D01*
X-38144Y-322988D01*
X-38906Y-323369D01*
X-40049Y-323750D01*
X-41953D01*
X-43096Y-323369D01*
X-43857Y-322988D01*
X-44619Y-322226D01*
X-45000Y-321465D01*
Y-319941D01*
X-44619Y-319179D01*
X-43857Y-318418D01*
X-43096Y-318037D01*
X-38525Y-315790D02*
X-38144Y-315028D01*
X-37002Y-313885D01*
X-45000D01*
X-37002Y-309163D02*
Y-304973D01*
X-40049Y-307258D01*
Y-306116D01*
X-40430Y-305354D01*
X-40810Y-304973D01*
X-41953Y-304592D01*
X-42715D01*
X-43857Y-304973D01*
X-44619Y-305735D01*
X-45000Y-306877D01*
Y-308020D01*
X-44619Y-309163D01*
X-44238Y-309543D01*
X-43477Y-309924D01*
X-38525Y-302802D02*
X-38144Y-302040D01*
X-37002Y-300898D01*
X-45000D01*
Y-290843D02*
X-37002Y-293890D01*
X-45000Y-296937D01*
X-42334Y-295794D02*
Y-291985D01*
X-27002Y-323750D02*
X-35000D01*
X-27002D02*
Y-320322D01*
X-27383Y-319179D01*
X-27763Y-318799D01*
X-28525Y-318418D01*
X-29287D01*
X-30049Y-318799D01*
X-30430Y-319179D01*
X-30810Y-320322D01*
Y-323750D01*
Y-321084D02*
X-35000Y-318418D01*
X-28525Y-316628D02*
X-28144Y-315866D01*
X-27002Y-314723D01*
X-35000D01*
X-27002Y-310000D02*
Y-305811D01*
X-30049Y-308096D01*
Y-306954D01*
X-30430Y-306192D01*
X-30810Y-305811D01*
X-31953Y-305430D01*
X-32715D01*
X-33857Y-305811D01*
X-34619Y-306573D01*
X-35000Y-307715D01*
Y-308858D01*
X-34619Y-310000D01*
X-34238Y-310381D01*
X-33477Y-310762D01*
X-28525Y-303640D02*
X-28144Y-302878D01*
X-27002Y-301736D01*
X-35000D01*
Y-291681D02*
X-27002Y-294728D01*
X-35000Y-297775D01*
X-32334Y-296632D02*
Y-292823D01*
X275498Y82500D02*
X267500Y84404D01*
X275498Y86309D02*
X267500Y84404D01*
X275498Y86309D02*
X267500Y88213D01*
X275498Y90118D02*
X267500Y88213D01*
X275498Y47500D02*
X267500Y50547D01*
X275498Y53594D02*
X267500Y50547D01*
X275498Y13750D02*
X269785D01*
X268643Y14131D01*
X267881Y14893D01*
X267500Y16035D01*
Y16797D01*
X267881Y17940D01*
X268643Y18701D01*
X269785Y19082D01*
X275498D01*
D134*
X258455Y100550D02*
X257139Y102362D01*
X255009Y101670D01*
Y99430D01*
X257139Y98738D01*
X258455Y100550D01*
X188455Y200550D02*
X187139Y202362D01*
X185009Y201670D01*
Y199430D01*
X187139Y198738D01*
X188455Y200550D01*
X258455Y200550D02*
X257139Y202362D01*
X255009Y201670D01*
Y199430D01*
X257139Y198738D01*
X258455Y200550D01*
X188455Y100550D02*
X187139Y102362D01*
X185009Y101670D01*
Y99430D01*
X187139Y98738D01*
X188455Y100550D01*
X118455Y100550D02*
X117139Y102362D01*
X115009Y101670D01*
Y99430D01*
X117139Y98738D01*
X118455Y100550D01*
Y200550D02*
X117139Y202362D01*
X115009Y201670D01*
Y199430D01*
X117139Y198738D01*
X118455Y200550D01*
M02*
