G04 Layer_Color=16711935*
%FSLAX44Y44*%
%MOMM*%
G71*
G01*
G75*
%ADD53C,0.2540*%
%ADD54C,0.1270*%
%ADD55C,0.1500*%
D53*
X443040Y-470000D02*
X462540D01*
X443040Y470000D02*
X462540D01*
X440000Y473040D02*
Y492540D01*
X-440000Y473040D02*
Y492540D01*
D54*
X460000Y-470000D02*
Y-39545D01*
Y31925D02*
Y470000D01*
Y-470000D02*
X465080Y-454760D01*
X454920D02*
X460000Y-470000D01*
X454920Y454760D02*
X460000Y470000D01*
X465080Y454760D01*
X31925Y490000D02*
X440000D01*
X-440000D02*
X-39545D01*
X424760Y495080D02*
X440000Y490000D01*
X424760Y484920D02*
X440000Y490000D01*
X-440000D02*
X-424760Y484920D01*
X-440000Y490000D02*
X-424760Y495080D01*
X459577Y-29446D02*
X461028Y-29930D01*
X461996Y-30898D01*
X462479Y-32349D01*
Y-32832D01*
X461996Y-34283D01*
X461028Y-35251D01*
X459577Y-35735D01*
X459093D01*
X457642Y-35251D01*
X456675Y-34283D01*
X456191Y-32832D01*
Y-32349D01*
X456675Y-30898D01*
X457642Y-29930D01*
X459577Y-29446D01*
X461996D01*
X464414Y-29930D01*
X465865Y-30898D01*
X466349Y-32349D01*
Y-33316D01*
X465865Y-34767D01*
X464898Y-35251D01*
X456191Y-21852D02*
X462963Y-26689D01*
Y-19434D01*
X456191Y-21852D02*
X466349D01*
X465382Y-17160D02*
X465865Y-17644D01*
X466349Y-17160D01*
X465865Y-16677D01*
X465382Y-17160D01*
X456191Y-11549D02*
X456675Y-13000D01*
X458126Y-13968D01*
X460544Y-14452D01*
X461996D01*
X464414Y-13968D01*
X465865Y-13000D01*
X466349Y-11549D01*
Y-10582D01*
X465865Y-9131D01*
X464414Y-8163D01*
X461996Y-7680D01*
X460544D01*
X458126Y-8163D01*
X456675Y-9131D01*
X456191Y-10582D01*
Y-11549D01*
Y-2504D02*
X456675Y-3955D01*
X458126Y-4922D01*
X460544Y-5406D01*
X461996D01*
X464414Y-4922D01*
X465865Y-3955D01*
X466349Y-2504D01*
Y-1537D01*
X465865Y-86D01*
X464414Y882D01*
X461996Y1366D01*
X460544D01*
X458126Y882D01*
X456675Y-86D01*
X456191Y-1537D01*
Y-2504D01*
X459577Y3639D02*
X466349D01*
X461512D02*
X460061Y5090D01*
X459577Y6058D01*
Y7509D01*
X460061Y8476D01*
X461512Y8960D01*
X466349D01*
X461512D02*
X460061Y10411D01*
X459577Y11378D01*
Y12830D01*
X460061Y13797D01*
X461512Y14281D01*
X466349D01*
X459577Y17473D02*
X466349D01*
X461512D02*
X460061Y18924D01*
X459577Y19892D01*
Y21343D01*
X460061Y22310D01*
X461512Y22794D01*
X466349D01*
X461512D02*
X460061Y24245D01*
X459577Y25212D01*
Y26663D01*
X460061Y27631D01*
X461512Y28115D01*
X466349D01*
X-33316Y493809D02*
X-34767Y493325D01*
X-35251Y492358D01*
Y491390D01*
X-34767Y490423D01*
X-33800Y489939D01*
X-31865Y489456D01*
X-30414Y488972D01*
X-29446Y488004D01*
X-28963Y487037D01*
Y485586D01*
X-29446Y484618D01*
X-29930Y484135D01*
X-31381Y483651D01*
X-33316D01*
X-34767Y484135D01*
X-35251Y484618D01*
X-35735Y485586D01*
Y487037D01*
X-35251Y488004D01*
X-34283Y488972D01*
X-32832Y489456D01*
X-30898Y489939D01*
X-29930Y490423D01*
X-29446Y491390D01*
Y492358D01*
X-29930Y493325D01*
X-31381Y493809D01*
X-33316D01*
X-24271D02*
X-25722Y493325D01*
X-26206Y492358D01*
Y491390D01*
X-25722Y490423D01*
X-24755Y489939D01*
X-22820Y489456D01*
X-21369Y488972D01*
X-20401Y488004D01*
X-19917Y487037D01*
Y485586D01*
X-20401Y484618D01*
X-20885Y484135D01*
X-22336Y483651D01*
X-24271D01*
X-25722Y484135D01*
X-26206Y484618D01*
X-26689Y485586D01*
Y487037D01*
X-26206Y488004D01*
X-25238Y488972D01*
X-23787Y489456D01*
X-21852Y489939D01*
X-20885Y490423D01*
X-20401Y491390D01*
Y492358D01*
X-20885Y493325D01*
X-22336Y493809D01*
X-24271D01*
X-17160Y484618D02*
X-17644Y484135D01*
X-17160Y483651D01*
X-16677Y484135D01*
X-17160Y484618D01*
X-11549Y493809D02*
X-13000Y493325D01*
X-13968Y491874D01*
X-14452Y489456D01*
Y488004D01*
X-13968Y485586D01*
X-13000Y484135D01*
X-11549Y483651D01*
X-10582D01*
X-9131Y484135D01*
X-8163Y485586D01*
X-7680Y488004D01*
Y489456D01*
X-8163Y491874D01*
X-9131Y493325D01*
X-10582Y493809D01*
X-11549D01*
X-2504D02*
X-3955Y493325D01*
X-4922Y491874D01*
X-5406Y489456D01*
Y488004D01*
X-4922Y485586D01*
X-3955Y484135D01*
X-2504Y483651D01*
X-1537D01*
X-86Y484135D01*
X882Y485586D01*
X1366Y488004D01*
Y489456D01*
X882Y491874D01*
X-86Y493325D01*
X-1537Y493809D01*
X-2504D01*
X3639Y490423D02*
Y483651D01*
Y488488D02*
X5090Y489939D01*
X6058Y490423D01*
X7509D01*
X8476Y489939D01*
X8960Y488488D01*
Y483651D01*
Y488488D02*
X10411Y489939D01*
X11378Y490423D01*
X12830D01*
X13797Y489939D01*
X14281Y488488D01*
Y483651D01*
X17473Y490423D02*
Y483651D01*
Y488488D02*
X18924Y489939D01*
X19892Y490423D01*
X21343D01*
X22310Y489939D01*
X22794Y488488D01*
Y483651D01*
Y488488D02*
X24245Y489939D01*
X25212Y490423D01*
X26663D01*
X27631Y489939D01*
X28115Y488488D01*
Y483651D01*
D55*
X-1320000Y-1010000D02*
Y1030000D01*
X1590000D01*
Y-1010000D02*
Y1030000D01*
X-1320000Y-1010000D02*
X1590000D01*
X-1350000Y-1040000D02*
X1620000D01*
X-1350000Y1060000D02*
X1620000D01*
X-1350000Y-1040000D02*
Y1060000D01*
Y530000D02*
X-1320000D01*
X-1350000Y530000D02*
X-1320000D01*
X-1350000Y790000D02*
X-1320000D01*
X-1350000D02*
X-1320000D01*
X5000Y-1040000D02*
Y-1010000D01*
X5000Y-1040000D02*
Y-1010000D01*
X-775000Y1030000D02*
Y1060000D01*
X-515000Y1030000D02*
Y1060000D01*
X-775000Y1030000D02*
Y1060000D01*
X-1035000Y1030000D02*
Y1060000D01*
X-1035000Y1030000D02*
Y1060000D01*
X5000Y1030000D02*
Y1060000D01*
X5000Y1030000D02*
Y1060000D01*
X-255000Y1030000D02*
Y1060000D01*
Y1030000D02*
Y1060000D01*
X-515000Y1030000D02*
Y1060000D01*
X1620000Y-1040000D02*
Y1060000D01*
X1590000Y790000D02*
X1620000D01*
X1590000D02*
X1620000D01*
X1590000Y530000D02*
X1620000D01*
X1590000Y530000D02*
X1620000D01*
X1590000Y270000D02*
X1620000D01*
X1590000D02*
X1620000D01*
X1590000Y10000D02*
X1620000D01*
X1590000D02*
X1620000D01*
X1590000Y-250000D02*
X1620000D01*
X1590000D02*
X1620000D01*
X1590000Y-510000D02*
X1620000D01*
X1590000Y-510000D02*
X1620000D01*
X1590000Y-770000D02*
X1620000D01*
X1590000D02*
X1620000D01*
X265000Y-1040000D02*
Y-1010000D01*
Y-1040000D02*
Y-1010000D01*
X525000Y-1040000D02*
Y-1010000D01*
Y-1040000D02*
Y-1010000D01*
X785000Y-1040000D02*
Y-1010000D01*
Y-1040000D02*
Y-1010000D01*
X1045000Y-1040000D02*
Y-1010000D01*
X1045000Y-1040000D02*
Y-1010000D01*
X1305000Y-1040000D02*
Y-1010000D01*
Y-1040000D02*
Y-1010000D01*
Y1030000D02*
Y1060000D01*
Y1030000D02*
Y1060000D01*
X1045000Y1030000D02*
Y1060000D01*
X1045000Y1030000D02*
Y1060000D01*
X785000Y1030000D02*
Y1060000D01*
Y1030000D02*
Y1060000D01*
X525000Y1030000D02*
Y1060000D01*
Y1030000D02*
Y1060000D01*
X265000Y1030000D02*
Y1060000D01*
Y1030000D02*
Y1060000D01*
X1240000Y-900000D02*
X1580000D01*
X1240000Y-920000D02*
X1580000D01*
X1240000Y-940000D02*
X1580000D01*
X1240000Y-960000D02*
X1580000D01*
X1240000Y-980000D02*
X1580000D01*
X1240000Y-1000000D02*
X1580000D01*
X1390000Y-980000D02*
Y-880000D01*
X1580000Y-1000000D02*
Y-880000D01*
X1240000D02*
X1580000D01*
X1240000Y-1000000D02*
Y-880000D01*
X-1350000Y-770000D02*
X-1320000D01*
X-1350000D02*
X-1320000D01*
X-1350000Y-510000D02*
X-1320000D01*
X-1350000Y-510000D02*
X-1320000D01*
X-1350000Y-250000D02*
X-1320000D01*
X-1350000D02*
X-1320000D01*
X-1350000Y10000D02*
X-1320000D01*
X-1350000D02*
X-1320000D01*
X-1350000Y270000D02*
X-1320000D01*
X-1350000D02*
X-1320000D01*
X-515000Y-1040000D02*
Y-1010000D01*
X-255000Y-1040000D02*
Y-1010000D01*
Y-1040000D02*
Y-1010000D01*
X-1035000Y-1040000D02*
Y-1010000D01*
X-1035000Y-1040000D02*
Y-1010000D01*
X-775000Y-1040000D02*
Y-1010000D01*
X-515000Y-1040000D02*
Y-1010000D01*
X-775000Y-1040000D02*
Y-1010000D01*
X895000Y-900000D02*
X1235000D01*
X895000Y-920000D02*
X1235000D01*
X895000Y-940000D02*
X1235000D01*
X895000Y-960000D02*
X1235000D01*
X895000Y-980000D02*
X1235000D01*
X895000Y-1000000D02*
X1235000D01*
X1045000D02*
Y-880000D01*
X1235000Y-1000000D02*
Y-880000D01*
X895000D02*
X1235000D01*
X895000Y-1000000D02*
Y-880000D01*
X1257141Y-987383D02*
X1256665Y-986430D01*
X1255713Y-985478D01*
X1254761Y-985002D01*
X1252857D01*
X1251904Y-985478D01*
X1250952Y-986430D01*
X1250476Y-987383D01*
X1250000Y-988811D01*
Y-991191D01*
X1250476Y-992619D01*
X1250952Y-993572D01*
X1251904Y-994524D01*
X1252857Y-995000D01*
X1254761D01*
X1255713Y-994524D01*
X1256665Y-993572D01*
X1257141Y-992619D01*
X1268520Y-988811D02*
X1268044Y-989287D01*
X1268520Y-989763D01*
X1268996Y-989287D01*
Y-988811D01*
X1268520Y-988335D01*
X1268044D01*
X1267568Y-988811D01*
X1267092Y-989763D01*
X1266139Y-992143D01*
X1265187Y-993572D01*
X1264235Y-994524D01*
X1263283Y-995000D01*
X1261855D01*
X1260426Y-994524D01*
X1259950Y-993572D01*
Y-992143D01*
X1260426Y-991191D01*
X1263283Y-989287D01*
X1264235Y-988335D01*
X1264711Y-987383D01*
Y-986430D01*
X1264235Y-985478D01*
X1263283Y-985002D01*
X1262331Y-985478D01*
X1261855Y-986430D01*
Y-987383D01*
X1262331Y-988811D01*
X1263283Y-990239D01*
X1265663Y-993572D01*
X1266616Y-994524D01*
X1268044Y-995000D01*
X1268520D01*
X1268996Y-994524D01*
Y-994048D01*
X1261855Y-995000D02*
X1260902Y-994524D01*
X1260426Y-993572D01*
Y-992143D01*
X1260902Y-991191D01*
X1261855Y-990239D01*
Y-987383D02*
X1262331Y-988335D01*
X1266139Y-993572D01*
X1267092Y-994524D01*
X1268044Y-995000D01*
X1271472Y-985002D02*
Y-995000D01*
X1278137Y-985002D02*
X1271472Y-991667D01*
X1273852Y-989287D02*
X1278137Y-995000D01*
X1400476Y-967383D02*
Y-966907D01*
X1400952Y-965954D01*
X1401428Y-965478D01*
X1402380Y-965002D01*
X1404285D01*
X1405237Y-965478D01*
X1405713Y-965954D01*
X1406189Y-966907D01*
Y-967859D01*
X1405713Y-968811D01*
X1404761Y-970239D01*
X1400000Y-975000D01*
X1406665D01*
X1411759Y-965002D02*
X1410331Y-965478D01*
X1409379Y-966907D01*
X1408903Y-969287D01*
Y-970715D01*
X1409379Y-973096D01*
X1410331Y-974524D01*
X1411759Y-975000D01*
X1412712D01*
X1414140Y-974524D01*
X1415092Y-973096D01*
X1415568Y-970715D01*
Y-969287D01*
X1415092Y-966907D01*
X1414140Y-965478D01*
X1412712Y-965002D01*
X1411759D01*
X1418282Y-967383D02*
Y-966907D01*
X1418758Y-965954D01*
X1419234Y-965478D01*
X1420186Y-965002D01*
X1422090D01*
X1423043Y-965478D01*
X1423519Y-965954D01*
X1423995Y-966907D01*
Y-967859D01*
X1423519Y-968811D01*
X1422567Y-970239D01*
X1417806Y-975000D01*
X1424471D01*
X1426709Y-966907D02*
X1427661Y-966430D01*
X1429089Y-965002D01*
Y-975000D01*
X1434516Y-974048D02*
X1434040Y-974524D01*
X1434516Y-975000D01*
X1434993Y-974524D01*
X1434516Y-974048D01*
X1440039Y-965002D02*
X1438611Y-965478D01*
X1437659Y-966907D01*
X1437182Y-969287D01*
Y-970715D01*
X1437659Y-973096D01*
X1438611Y-974524D01*
X1440039Y-975000D01*
X1440991D01*
X1442419Y-974524D01*
X1443372Y-973096D01*
X1443848Y-970715D01*
Y-969287D01*
X1443372Y-966907D01*
X1442419Y-965478D01*
X1440991Y-965002D01*
X1440039D01*
X1450846D02*
X1446085Y-971667D01*
X1453227D01*
X1450846Y-965002D02*
Y-975000D01*
X1455464Y-974048D02*
X1454988Y-974524D01*
X1455464Y-975000D01*
X1455940Y-974524D01*
X1455464Y-974048D01*
X1460987Y-965002D02*
X1459559Y-965478D01*
X1458607Y-966907D01*
X1458130Y-969287D01*
Y-970715D01*
X1458607Y-973096D01*
X1459559Y-974524D01*
X1460987Y-975000D01*
X1461939D01*
X1463367Y-974524D01*
X1464319Y-973096D01*
X1464796Y-970715D01*
Y-969287D01*
X1464319Y-966907D01*
X1463367Y-965478D01*
X1461939Y-965002D01*
X1460987D01*
X1467509Y-967383D02*
Y-966907D01*
X1467985Y-965954D01*
X1468461Y-965478D01*
X1469414Y-965002D01*
X1471318D01*
X1472270Y-965478D01*
X1472746Y-965954D01*
X1473222Y-966907D01*
Y-967859D01*
X1472746Y-968811D01*
X1471794Y-970239D01*
X1467033Y-975000D01*
X1473698D01*
X1476412Y-974048D02*
X1475936Y-974524D01*
X1476412Y-975000D01*
X1476888Y-974524D01*
X1476412Y-974048D01*
X1400000Y-945002D02*
Y-955000D01*
X1406665Y-945002D02*
X1400000Y-951667D01*
X1402380Y-949287D02*
X1406665Y-955000D01*
X1408903Y-945002D02*
Y-955000D01*
X1415568Y-945002D02*
Y-955000D01*
X1408903Y-949763D02*
X1415568D01*
X1418329Y-945002D02*
Y-955000D01*
X1424995Y-945002D02*
Y-955000D01*
X1418329Y-949763D02*
X1424995D01*
X1402856Y-925002D02*
X1401428Y-925478D01*
X1400476Y-926907D01*
X1400000Y-929287D01*
Y-930715D01*
X1400476Y-933096D01*
X1401428Y-934524D01*
X1402856Y-935000D01*
X1403809D01*
X1405237Y-934524D01*
X1406189Y-933096D01*
X1406665Y-930715D01*
Y-929287D01*
X1406189Y-926907D01*
X1405237Y-925478D01*
X1403809Y-925002D01*
X1402856D01*
X1409379Y-934048D02*
X1408903Y-934524D01*
X1409379Y-935000D01*
X1409855Y-934524D01*
X1409379Y-934048D01*
X1412521Y-927383D02*
Y-926907D01*
X1412997Y-925954D01*
X1413473Y-925478D01*
X1414426Y-925002D01*
X1416330D01*
X1417282Y-925478D01*
X1417758Y-925954D01*
X1418234Y-926907D01*
Y-927859D01*
X1417758Y-928811D01*
X1416806Y-930239D01*
X1412045Y-935000D01*
X1418710D01*
X1425709Y-925002D02*
X1420948Y-931667D01*
X1428089D01*
X1425709Y-925002D02*
Y-935000D01*
X1407617Y-915000D02*
X1403809Y-905002D01*
X1400000Y-915000D01*
X1401428Y-911667D02*
X1406189D01*
X1409950Y-905002D02*
Y-915000D01*
Y-905002D02*
X1414235D01*
X1415663Y-905478D01*
X1416139Y-905954D01*
X1416615Y-906907D01*
Y-907859D01*
X1416139Y-908811D01*
X1415663Y-909287D01*
X1414235Y-909763D01*
X1409950D01*
X1413283D02*
X1416615Y-915000D01*
X1425042Y-905002D02*
X1418853D01*
Y-915000D01*
X1425042D01*
X1418853Y-909763D02*
X1422662D01*
X1433374Y-906430D02*
X1432422Y-905478D01*
X1430993Y-905002D01*
X1429089D01*
X1427661Y-905478D01*
X1426709Y-906430D01*
Y-907383D01*
X1427185Y-908335D01*
X1427661Y-908811D01*
X1428613Y-909287D01*
X1431470Y-910239D01*
X1432422Y-910715D01*
X1432898Y-911191D01*
X1433374Y-912143D01*
Y-913572D01*
X1432422Y-914524D01*
X1430993Y-915000D01*
X1429089D01*
X1427661Y-914524D01*
X1426709Y-913572D01*
X1435611Y-918333D02*
X1443229D01*
X1444514Y-905002D02*
Y-915000D01*
Y-905002D02*
X1448799D01*
X1450227Y-905478D01*
X1450703Y-905954D01*
X1451180Y-906907D01*
Y-907859D01*
X1450703Y-908811D01*
X1450227Y-909287D01*
X1448799Y-909763D01*
X1444514D01*
X1447847D02*
X1451180Y-915000D01*
X1456274Y-905002D02*
X1454845Y-905478D01*
X1453893Y-906907D01*
X1453417Y-909287D01*
Y-910715D01*
X1453893Y-913096D01*
X1454845Y-914524D01*
X1456274Y-915000D01*
X1457226D01*
X1458654Y-914524D01*
X1459606Y-913096D01*
X1460082Y-910715D01*
Y-909287D01*
X1459606Y-906907D01*
X1458654Y-905478D01*
X1457226Y-905002D01*
X1456274D01*
X1468033Y-906430D02*
X1467557Y-905478D01*
X1466129Y-905002D01*
X1465177D01*
X1463748Y-905478D01*
X1462796Y-906907D01*
X1462320Y-909287D01*
Y-911667D01*
X1462796Y-913572D01*
X1463748Y-914524D01*
X1465177Y-915000D01*
X1465653D01*
X1467081Y-914524D01*
X1468033Y-913572D01*
X1468509Y-912143D01*
Y-911667D01*
X1468033Y-910239D01*
X1467081Y-909287D01*
X1465653Y-908811D01*
X1465177D01*
X1463748Y-909287D01*
X1462796Y-910239D01*
X1462320Y-911667D01*
X1470699Y-918333D02*
X1478316D01*
X1479602Y-910239D02*
X1483887D01*
X1485315Y-909763D01*
X1485791Y-909287D01*
X1486267Y-908335D01*
Y-906907D01*
X1485791Y-905954D01*
X1485315Y-905478D01*
X1483887Y-905002D01*
X1479602D01*
Y-915000D01*
X1490885Y-908335D02*
X1489933Y-908811D01*
X1488981Y-909763D01*
X1488505Y-911191D01*
Y-912143D01*
X1488981Y-913572D01*
X1489933Y-914524D01*
X1490885Y-915000D01*
X1492314D01*
X1493266Y-914524D01*
X1494218Y-913572D01*
X1494694Y-912143D01*
Y-911191D01*
X1494218Y-909763D01*
X1493266Y-908811D01*
X1492314Y-908335D01*
X1490885D01*
X1496884D02*
X1498788Y-915000D01*
X1500693Y-908335D02*
X1498788Y-915000D01*
X1500693Y-908335D02*
X1502597Y-915000D01*
X1504501Y-908335D02*
X1502597Y-915000D01*
X1506834Y-911191D02*
X1512547D01*
Y-910239D01*
X1512071Y-909287D01*
X1511595Y-908811D01*
X1510643Y-908335D01*
X1509215D01*
X1508262Y-908811D01*
X1507310Y-909763D01*
X1506834Y-911191D01*
Y-912143D01*
X1507310Y-913572D01*
X1508262Y-914524D01*
X1509215Y-915000D01*
X1510643D01*
X1511595Y-914524D01*
X1512547Y-913572D01*
X1514690Y-908335D02*
Y-915000D01*
Y-911191D02*
X1515166Y-909763D01*
X1516118Y-908811D01*
X1517070Y-908335D01*
X1518498D01*
X1400000Y-885002D02*
Y-895000D01*
X1406665Y-885002D02*
Y-895000D01*
X1400000Y-889763D02*
X1406665D01*
X1410379Y-885002D02*
X1410855Y-885478D01*
X1411331Y-885002D01*
X1410855Y-884526D01*
X1410379Y-885002D01*
X1410855Y-888335D02*
Y-895000D01*
X1418806Y-888335D02*
Y-895952D01*
X1418329Y-897380D01*
X1417853Y-897857D01*
X1416901Y-898333D01*
X1415473D01*
X1414521Y-897857D01*
X1418806Y-889763D02*
X1417853Y-888811D01*
X1416901Y-888335D01*
X1415473D01*
X1414521Y-888811D01*
X1413569Y-889763D01*
X1413092Y-891191D01*
Y-892143D01*
X1413569Y-893572D01*
X1414521Y-894524D01*
X1415473Y-895000D01*
X1416901D01*
X1417853Y-894524D01*
X1418806Y-893572D01*
X1421472Y-891191D02*
X1427185D01*
Y-890239D01*
X1426709Y-889287D01*
X1426232Y-888811D01*
X1425280Y-888335D01*
X1423852D01*
X1422900Y-888811D01*
X1421948Y-889763D01*
X1421472Y-891191D01*
Y-892143D01*
X1421948Y-893572D01*
X1422900Y-894524D01*
X1423852Y-895000D01*
X1425280D01*
X1426232Y-894524D01*
X1427185Y-893572D01*
X1429327Y-888335D02*
Y-895000D01*
Y-890239D02*
X1430755Y-888811D01*
X1431707Y-888335D01*
X1433136D01*
X1434088Y-888811D01*
X1434564Y-890239D01*
Y-895000D01*
X1250000Y-965002D02*
Y-975000D01*
X1255713D01*
X1262521Y-968335D02*
Y-975000D01*
Y-969763D02*
X1261569Y-968811D01*
X1260617Y-968335D01*
X1259189D01*
X1258236Y-968811D01*
X1257284Y-969763D01*
X1256808Y-971191D01*
Y-972143D01*
X1257284Y-973572D01*
X1258236Y-974524D01*
X1259189Y-975000D01*
X1260617D01*
X1261569Y-974524D01*
X1262521Y-973572D01*
X1270424Y-969763D02*
X1269948Y-968811D01*
X1268520Y-968335D01*
X1267092D01*
X1265663Y-968811D01*
X1265187Y-969763D01*
X1265663Y-970715D01*
X1266616Y-971191D01*
X1268996Y-971667D01*
X1269948Y-972143D01*
X1270424Y-973096D01*
Y-973572D01*
X1269948Y-974524D01*
X1268520Y-975000D01*
X1267092D01*
X1265663Y-974524D01*
X1265187Y-973572D01*
X1273947Y-965002D02*
Y-973096D01*
X1274423Y-974524D01*
X1275376Y-975000D01*
X1276328D01*
X1272519Y-968335D02*
X1275852D01*
X1285611Y-965002D02*
Y-975000D01*
Y-965002D02*
X1288944D01*
X1290372Y-965478D01*
X1291324Y-966430D01*
X1291801Y-967383D01*
X1292277Y-968811D01*
Y-971191D01*
X1291801Y-972619D01*
X1291324Y-973572D01*
X1290372Y-974524D01*
X1288944Y-975000D01*
X1285611D01*
X1300227Y-968335D02*
Y-975000D01*
Y-969763D02*
X1299275Y-968811D01*
X1298323Y-968335D01*
X1296895D01*
X1295943Y-968811D01*
X1294990Y-969763D01*
X1294514Y-971191D01*
Y-972143D01*
X1294990Y-973572D01*
X1295943Y-974524D01*
X1296895Y-975000D01*
X1298323D01*
X1299275Y-974524D01*
X1300227Y-973572D01*
X1304322Y-965002D02*
Y-973096D01*
X1304798Y-974524D01*
X1305750Y-975000D01*
X1306702D01*
X1302893Y-968335D02*
X1306226D01*
X1313843D02*
Y-975000D01*
Y-969763D02*
X1312891Y-968811D01*
X1311939Y-968335D01*
X1310511D01*
X1309559Y-968811D01*
X1308607Y-969763D01*
X1308130Y-971191D01*
Y-972143D01*
X1308607Y-973572D01*
X1309559Y-974524D01*
X1310511Y-975000D01*
X1311939D01*
X1312891Y-974524D01*
X1313843Y-973572D01*
X1250000Y-945002D02*
Y-955000D01*
Y-945002D02*
X1253333D01*
X1254761Y-945478D01*
X1255713Y-946430D01*
X1256189Y-947383D01*
X1256665Y-948811D01*
Y-951191D01*
X1256189Y-952619D01*
X1255713Y-953572D01*
X1254761Y-954524D01*
X1253333Y-955000D01*
X1250000D01*
X1258903Y-951191D02*
X1264616D01*
Y-950239D01*
X1264140Y-949287D01*
X1263664Y-948811D01*
X1262711Y-948335D01*
X1261283D01*
X1260331Y-948811D01*
X1259379Y-949763D01*
X1258903Y-951191D01*
Y-952143D01*
X1259379Y-953572D01*
X1260331Y-954524D01*
X1261283Y-955000D01*
X1262711D01*
X1263664Y-954524D01*
X1264616Y-953572D01*
X1271995Y-949763D02*
X1271519Y-948811D01*
X1270091Y-948335D01*
X1268663D01*
X1267234Y-948811D01*
X1266758Y-949763D01*
X1267234Y-950715D01*
X1268187Y-951191D01*
X1270567Y-951667D01*
X1271519Y-952143D01*
X1271995Y-953096D01*
Y-953572D01*
X1271519Y-954524D01*
X1270091Y-955000D01*
X1268663D01*
X1267234Y-954524D01*
X1266758Y-953572D01*
X1275042Y-945002D02*
X1275518Y-945478D01*
X1275994Y-945002D01*
X1275518Y-944526D01*
X1275042Y-945002D01*
X1275518Y-948335D02*
Y-955000D01*
X1283469Y-948335D02*
Y-955952D01*
X1282993Y-957380D01*
X1282517Y-957857D01*
X1281565Y-958333D01*
X1280136D01*
X1279184Y-957857D01*
X1283469Y-949763D02*
X1282517Y-948811D01*
X1281565Y-948335D01*
X1280136D01*
X1279184Y-948811D01*
X1278232Y-949763D01*
X1277756Y-951191D01*
Y-952143D01*
X1278232Y-953572D01*
X1279184Y-954524D01*
X1280136Y-955000D01*
X1281565D01*
X1282517Y-954524D01*
X1283469Y-953572D01*
X1286135Y-948335D02*
Y-955000D01*
Y-950239D02*
X1287563Y-948811D01*
X1288515Y-948335D01*
X1289944D01*
X1290896Y-948811D01*
X1291372Y-950239D01*
Y-955000D01*
X1293991Y-951191D02*
X1299704D01*
Y-950239D01*
X1299227Y-949287D01*
X1298752Y-948811D01*
X1297799Y-948335D01*
X1296371D01*
X1295419Y-948811D01*
X1294467Y-949763D01*
X1293991Y-951191D01*
Y-952143D01*
X1294467Y-953572D01*
X1295419Y-954524D01*
X1296371Y-955000D01*
X1297799D01*
X1298752Y-954524D01*
X1299704Y-953572D01*
X1301846Y-948335D02*
Y-955000D01*
Y-951191D02*
X1302322Y-949763D01*
X1303274Y-948811D01*
X1304226Y-948335D01*
X1305655D01*
X1250000Y-925002D02*
Y-935000D01*
Y-925002D02*
X1254285D01*
X1255713Y-925478D01*
X1256189Y-925954D01*
X1256665Y-926907D01*
Y-927859D01*
X1256189Y-928811D01*
X1255713Y-929287D01*
X1254285Y-929763D01*
X1250000D01*
X1253333D02*
X1256665Y-935000D01*
X1258903Y-931191D02*
X1264616D01*
Y-930239D01*
X1264140Y-929287D01*
X1263664Y-928811D01*
X1262711Y-928335D01*
X1261283D01*
X1260331Y-928811D01*
X1259379Y-929763D01*
X1258903Y-931191D01*
Y-932143D01*
X1259379Y-933572D01*
X1260331Y-934524D01*
X1261283Y-935000D01*
X1262711D01*
X1263664Y-934524D01*
X1264616Y-933572D01*
X1266758Y-928335D02*
X1269615Y-935000D01*
X1272471Y-928335D02*
X1269615Y-935000D01*
X1250000Y-905002D02*
Y-915000D01*
Y-905002D02*
X1253333D01*
X1254761Y-905478D01*
X1255713Y-906430D01*
X1256189Y-907383D01*
X1256665Y-908811D01*
Y-911191D01*
X1256189Y-912619D01*
X1255713Y-913572D01*
X1254761Y-914524D01*
X1253333Y-915000D01*
X1250000D01*
X1258903Y-911191D02*
X1264616D01*
Y-910239D01*
X1264140Y-909287D01*
X1263664Y-908811D01*
X1262711Y-908335D01*
X1261283D01*
X1260331Y-908811D01*
X1259379Y-909763D01*
X1258903Y-911191D01*
Y-912143D01*
X1259379Y-913572D01*
X1260331Y-914524D01*
X1261283Y-915000D01*
X1262711D01*
X1263664Y-914524D01*
X1264616Y-913572D01*
X1271995Y-909763D02*
X1271519Y-908811D01*
X1270091Y-908335D01*
X1268663D01*
X1267234Y-908811D01*
X1266758Y-909763D01*
X1267234Y-910715D01*
X1268187Y-911191D01*
X1270567Y-911667D01*
X1271519Y-912143D01*
X1271995Y-913096D01*
Y-913572D01*
X1271519Y-914524D01*
X1270091Y-915000D01*
X1268663D01*
X1267234Y-914524D01*
X1266758Y-913572D01*
X1275042Y-905002D02*
X1275518Y-905478D01*
X1275994Y-905002D01*
X1275518Y-904526D01*
X1275042Y-905002D01*
X1275518Y-908335D02*
Y-915000D01*
X1283469Y-908335D02*
Y-915952D01*
X1282993Y-917380D01*
X1282517Y-917857D01*
X1281565Y-918333D01*
X1280136D01*
X1279184Y-917857D01*
X1283469Y-909763D02*
X1282517Y-908811D01*
X1281565Y-908335D01*
X1280136D01*
X1279184Y-908811D01*
X1278232Y-909763D01*
X1277756Y-911191D01*
Y-912143D01*
X1278232Y-913572D01*
X1279184Y-914524D01*
X1280136Y-915000D01*
X1281565D01*
X1282517Y-914524D01*
X1283469Y-913572D01*
X1286135Y-908335D02*
Y-915000D01*
Y-910239D02*
X1287563Y-908811D01*
X1288515Y-908335D01*
X1289944D01*
X1290896Y-908811D01*
X1291372Y-910239D01*
Y-915000D01*
X1301846Y-905002D02*
Y-915000D01*
Y-905002D02*
X1308511Y-915000D01*
Y-905002D02*
Y-915000D01*
X1316986Y-908335D02*
Y-915000D01*
Y-909763D02*
X1316033Y-908811D01*
X1315081Y-908335D01*
X1313653D01*
X1312701Y-908811D01*
X1311749Y-909763D01*
X1311273Y-911191D01*
Y-912143D01*
X1311749Y-913572D01*
X1312701Y-914524D01*
X1313653Y-915000D01*
X1315081D01*
X1316033Y-914524D01*
X1316986Y-913572D01*
X1319652Y-908335D02*
Y-915000D01*
Y-910239D02*
X1321080Y-908811D01*
X1322032Y-908335D01*
X1323460D01*
X1324413Y-908811D01*
X1324889Y-910239D01*
Y-915000D01*
Y-910239D02*
X1326317Y-908811D01*
X1327269Y-908335D01*
X1328697D01*
X1329650Y-908811D01*
X1330126Y-910239D01*
Y-915000D01*
X1333268Y-911191D02*
X1338981D01*
Y-910239D01*
X1338505Y-909287D01*
X1338029Y-908811D01*
X1337077Y-908335D01*
X1335648D01*
X1334696Y-908811D01*
X1333744Y-909763D01*
X1333268Y-911191D01*
Y-912143D01*
X1333744Y-913572D01*
X1334696Y-914524D01*
X1335648Y-915000D01*
X1337077D01*
X1338029Y-914524D01*
X1338981Y-913572D01*
X1257141Y-887383D02*
X1256665Y-886430D01*
X1255713Y-885478D01*
X1254761Y-885002D01*
X1252857D01*
X1251904Y-885478D01*
X1250952Y-886430D01*
X1250476Y-887383D01*
X1250000Y-888811D01*
Y-891191D01*
X1250476Y-892620D01*
X1250952Y-893572D01*
X1251904Y-894524D01*
X1252857Y-895000D01*
X1254761D01*
X1255713Y-894524D01*
X1256665Y-893572D01*
X1257141Y-892620D01*
X1259950Y-888335D02*
Y-893096D01*
X1260426Y-894524D01*
X1261378Y-895000D01*
X1262807D01*
X1263759Y-894524D01*
X1265187Y-893096D01*
Y-888335D02*
Y-895000D01*
X1273043Y-889763D02*
X1272567Y-888811D01*
X1271138Y-888335D01*
X1269710D01*
X1268282Y-888811D01*
X1267806Y-889763D01*
X1268282Y-890715D01*
X1269234Y-891191D01*
X1271614Y-891667D01*
X1272567Y-892143D01*
X1273043Y-893096D01*
Y-893572D01*
X1272567Y-894524D01*
X1271138Y-895000D01*
X1269710D01*
X1268282Y-894524D01*
X1267806Y-893572D01*
X1276566Y-885002D02*
Y-893096D01*
X1277042Y-894524D01*
X1277994Y-895000D01*
X1278946D01*
X1275137Y-888335D02*
X1278470D01*
X1282755D02*
X1281803Y-888811D01*
X1280851Y-889763D01*
X1280374Y-891191D01*
Y-892143D01*
X1280851Y-893572D01*
X1281803Y-894524D01*
X1282755Y-895000D01*
X1284183D01*
X1285135Y-894524D01*
X1286087Y-893572D01*
X1286564Y-892143D01*
Y-891191D01*
X1286087Y-889763D01*
X1285135Y-888811D01*
X1284183Y-888335D01*
X1282755D01*
X1288754D02*
Y-895000D01*
Y-890239D02*
X1290182Y-888811D01*
X1291134Y-888335D01*
X1292562D01*
X1293515Y-888811D01*
X1293991Y-890239D01*
Y-895000D01*
Y-890239D02*
X1295419Y-888811D01*
X1296371Y-888335D01*
X1297799D01*
X1298752Y-888811D01*
X1299227Y-890239D01*
Y-895000D01*
X1302370Y-891191D02*
X1308083D01*
Y-890239D01*
X1307607Y-889287D01*
X1307131Y-888811D01*
X1306178Y-888335D01*
X1304750D01*
X1303798Y-888811D01*
X1302846Y-889763D01*
X1302370Y-891191D01*
Y-892143D01*
X1302846Y-893572D01*
X1303798Y-894524D01*
X1304750Y-895000D01*
X1306178D01*
X1307131Y-894524D01*
X1308083Y-893572D01*
X1310225Y-888335D02*
Y-895000D01*
Y-891191D02*
X1310701Y-889763D01*
X1311653Y-888811D01*
X1312606Y-888335D01*
X1314034D01*
X1055000Y-985002D02*
X1057380Y-995000D01*
X1059761Y-985002D02*
X1057380Y-995000D01*
X1059761Y-985002D02*
X1062141Y-995000D01*
X1064522Y-985002D02*
X1062141Y-995000D01*
X1066521Y-985002D02*
Y-995000D01*
Y-990239D02*
X1067950Y-988811D01*
X1068902Y-988335D01*
X1070330D01*
X1071282Y-988811D01*
X1071758Y-990239D01*
Y-995000D01*
X1075329Y-985002D02*
X1075805Y-985478D01*
X1076281Y-985002D01*
X1075805Y-984526D01*
X1075329Y-985002D01*
X1075805Y-988335D02*
Y-995000D01*
X1079471Y-985002D02*
Y-993096D01*
X1079947Y-994524D01*
X1080899Y-995000D01*
X1081851D01*
X1078043Y-988335D02*
X1081375D01*
X1083280Y-991191D02*
X1088993D01*
Y-990239D01*
X1088517Y-989287D01*
X1088040Y-988811D01*
X1087088Y-988335D01*
X1085660D01*
X1084708Y-988811D01*
X1083756Y-989763D01*
X1083280Y-991191D01*
Y-992143D01*
X1083756Y-993572D01*
X1084708Y-994524D01*
X1085660Y-995000D01*
X1087088D01*
X1088040Y-994524D01*
X1088993Y-993572D01*
X1055000Y-965002D02*
Y-975000D01*
Y-965002D02*
X1059285D01*
X1060713Y-965478D01*
X1061189Y-965954D01*
X1061665Y-966907D01*
Y-967859D01*
X1061189Y-968811D01*
X1060713Y-969287D01*
X1059285Y-969763D01*
X1055000D02*
X1059285D01*
X1060713Y-970239D01*
X1061189Y-970715D01*
X1061665Y-971667D01*
Y-973096D01*
X1061189Y-974048D01*
X1060713Y-974524D01*
X1059285Y-975000D01*
X1055000D01*
X1063903Y-965002D02*
Y-975000D01*
X1069616D01*
X1070711Y-965002D02*
Y-972143D01*
X1071187Y-973572D01*
X1072139Y-974524D01*
X1073567Y-975000D01*
X1074520D01*
X1075948Y-974524D01*
X1076900Y-973572D01*
X1077376Y-972143D01*
Y-965002D01*
X1086327D02*
X1080137D01*
Y-975000D01*
X1086327D01*
X1080137Y-969763D02*
X1083946D01*
X1057857Y-945002D02*
X1056904Y-945478D01*
X1055952Y-946430D01*
X1055476Y-947383D01*
X1055000Y-948811D01*
Y-951191D01*
X1055476Y-952620D01*
X1055952Y-953572D01*
X1056904Y-954524D01*
X1057857Y-955000D01*
X1059761D01*
X1060713Y-954524D01*
X1061665Y-953572D01*
X1062141Y-952620D01*
X1062617Y-951191D01*
Y-948811D01*
X1062141Y-947383D01*
X1061665Y-946430D01*
X1060713Y-945478D01*
X1059761Y-945002D01*
X1057857D01*
X1071616Y-946430D02*
X1070663Y-945478D01*
X1069235Y-945002D01*
X1067331D01*
X1065902Y-945478D01*
X1064950Y-946430D01*
Y-947383D01*
X1065426Y-948335D01*
X1065902Y-948811D01*
X1066855Y-949287D01*
X1069711Y-950239D01*
X1070663Y-950715D01*
X1071139Y-951191D01*
X1071616Y-952143D01*
Y-953572D01*
X1070663Y-954524D01*
X1069235Y-955000D01*
X1067331D01*
X1065902Y-954524D01*
X1064950Y-953572D01*
X1073853Y-950239D02*
X1078138D01*
X1079566Y-949763D01*
X1080042Y-949287D01*
X1080518Y-948335D01*
Y-946907D01*
X1080042Y-945954D01*
X1079566Y-945478D01*
X1078138Y-945002D01*
X1073853D01*
Y-955000D01*
X1055000Y-925002D02*
Y-935000D01*
Y-925002D02*
X1061189D01*
X1055000Y-929763D02*
X1058809D01*
X1062332Y-925002D02*
Y-935000D01*
Y-925002D02*
X1066617D01*
X1068045Y-925478D01*
X1068521Y-925954D01*
X1068997Y-926907D01*
Y-927859D01*
X1068521Y-928811D01*
X1068045Y-929287D01*
X1066617Y-929763D01*
X1062332D01*
X1065664D02*
X1068997Y-935000D01*
X1071235Y-930715D02*
X1079804D01*
X1087517Y-925002D02*
X1082756Y-931667D01*
X1089897D01*
X1087517Y-925002D02*
Y-935000D01*
X1055000Y-906907D02*
X1055952Y-906430D01*
X1057380Y-905002D01*
Y-915000D01*
X1062808Y-914048D02*
X1062332Y-914524D01*
X1062808Y-915000D01*
X1063284Y-914524D01*
X1062808Y-914048D01*
X1071187Y-906430D02*
X1070711Y-905478D01*
X1069283Y-905002D01*
X1068331D01*
X1066902Y-905478D01*
X1065950Y-906907D01*
X1065474Y-909287D01*
Y-911667D01*
X1065950Y-913572D01*
X1066902Y-914524D01*
X1068331Y-915000D01*
X1068807D01*
X1070235Y-914524D01*
X1071187Y-913572D01*
X1071663Y-912143D01*
Y-911667D01*
X1071187Y-910239D01*
X1070235Y-909287D01*
X1068807Y-908811D01*
X1068331D01*
X1066902Y-909287D01*
X1065950Y-910239D01*
X1065474Y-911667D01*
X1077186Y-905002D02*
Y-915000D01*
X1073853Y-905002D02*
X1080518D01*
X1057380Y-885002D02*
X1055952Y-885478D01*
X1055476Y-886430D01*
Y-887383D01*
X1055952Y-888335D01*
X1056904Y-888811D01*
X1058809Y-889287D01*
X1060237Y-889763D01*
X1061189Y-890715D01*
X1061665Y-891667D01*
Y-893096D01*
X1061189Y-894048D01*
X1060713Y-894524D01*
X1059285Y-895000D01*
X1057380D01*
X1055952Y-894524D01*
X1055476Y-894048D01*
X1055000Y-893096D01*
Y-891667D01*
X1055476Y-890715D01*
X1056428Y-889763D01*
X1057857Y-889287D01*
X1059761Y-888811D01*
X1060713Y-888335D01*
X1061189Y-887383D01*
Y-886430D01*
X1060713Y-885478D01*
X1059285Y-885002D01*
X1057380D01*
X1066283D02*
X1064855Y-885478D01*
X1064379Y-886430D01*
Y-887383D01*
X1064855Y-888335D01*
X1065807Y-888811D01*
X1067712Y-889287D01*
X1069140Y-889763D01*
X1070092Y-890715D01*
X1070568Y-891667D01*
Y-893096D01*
X1070092Y-894048D01*
X1069616Y-894524D01*
X1068188Y-895000D01*
X1066283D01*
X1064855Y-894524D01*
X1064379Y-894048D01*
X1063903Y-893096D01*
Y-891667D01*
X1064379Y-890715D01*
X1065331Y-889763D01*
X1066759Y-889287D01*
X1068664Y-888811D01*
X1069616Y-888335D01*
X1070092Y-887383D01*
Y-886430D01*
X1069616Y-885478D01*
X1068188Y-885002D01*
X1066283D01*
X1072806Y-888335D02*
Y-895000D01*
Y-890239D02*
X1074234Y-888811D01*
X1075186Y-888335D01*
X1076614D01*
X1077567Y-888811D01*
X1078043Y-890239D01*
Y-895000D01*
Y-890239D02*
X1079471Y-888811D01*
X1080423Y-888335D01*
X1081851D01*
X1082804Y-888811D01*
X1083280Y-890239D01*
Y-895000D01*
X1086422Y-888335D02*
Y-895000D01*
Y-890239D02*
X1087850Y-888811D01*
X1088802Y-888335D01*
X1090230D01*
X1091183Y-888811D01*
X1091659Y-890239D01*
Y-895000D01*
Y-890239D02*
X1093087Y-888811D01*
X1094039Y-888335D01*
X1095468D01*
X1096420Y-888811D01*
X1096896Y-890239D01*
Y-895000D01*
X1107893Y-885002D02*
X1114559Y-895000D01*
Y-885002D02*
X1107893Y-895000D01*
X1130841Y-888335D02*
X1130365Y-889763D01*
X1129413Y-890715D01*
X1127984Y-891191D01*
X1127508D01*
X1126080Y-890715D01*
X1125128Y-889763D01*
X1124652Y-888335D01*
Y-887859D01*
X1125128Y-886430D01*
X1126080Y-885478D01*
X1127508Y-885002D01*
X1127984D01*
X1129413Y-885478D01*
X1130365Y-886430D01*
X1130841Y-888335D01*
Y-890715D01*
X1130365Y-893096D01*
X1129413Y-894524D01*
X1127984Y-895000D01*
X1127032D01*
X1125604Y-894524D01*
X1125128Y-893572D01*
X1138316Y-885002D02*
X1133555Y-891667D01*
X1140696D01*
X1138316Y-885002D02*
Y-895000D01*
X1142457Y-888335D02*
Y-895000D01*
Y-890239D02*
X1143886Y-888811D01*
X1144838Y-888335D01*
X1146266D01*
X1147218Y-888811D01*
X1147694Y-890239D01*
Y-895000D01*
Y-890239D02*
X1149123Y-888811D01*
X1150075Y-888335D01*
X1151503D01*
X1152455Y-888811D01*
X1152931Y-890239D01*
Y-895000D01*
X1156074Y-888335D02*
Y-895000D01*
Y-890239D02*
X1157502Y-888811D01*
X1158454Y-888335D01*
X1159882D01*
X1160835Y-888811D01*
X1161311Y-890239D01*
Y-895000D01*
Y-890239D02*
X1162739Y-888811D01*
X1163691Y-888335D01*
X1165119D01*
X1166071Y-888811D01*
X1166547Y-890239D01*
Y-895000D01*
X911665Y-986430D02*
X910713Y-985478D01*
X909285Y-985002D01*
X907380D01*
X905952Y-985478D01*
X905000Y-986430D01*
Y-987383D01*
X905476Y-988335D01*
X905952Y-988811D01*
X906904Y-989287D01*
X909761Y-990239D01*
X910713Y-990715D01*
X911189Y-991191D01*
X911665Y-992143D01*
Y-993572D01*
X910713Y-994524D01*
X909285Y-995000D01*
X907380D01*
X905952Y-994524D01*
X905000Y-993572D01*
X914855Y-985002D02*
X915331Y-985478D01*
X915807Y-985002D01*
X915331Y-984526D01*
X914855Y-985002D01*
X915331Y-988335D02*
Y-995000D01*
X917569Y-985002D02*
Y-995000D01*
X919663Y-985002D02*
Y-995000D01*
X924424Y-988335D02*
X919663Y-993096D01*
X921568Y-991191D02*
X924901Y-995000D01*
X940992Y-986430D02*
X940040Y-985478D01*
X938612Y-985002D01*
X936708D01*
X935279Y-985478D01*
X934327Y-986430D01*
Y-987383D01*
X934803Y-988335D01*
X935279Y-988811D01*
X936231Y-989287D01*
X939088Y-990239D01*
X940040Y-990715D01*
X940516Y-991191D01*
X940992Y-992143D01*
Y-993572D01*
X940040Y-994524D01*
X938612Y-995000D01*
X936708D01*
X935279Y-994524D01*
X934327Y-993572D01*
X948943Y-989763D02*
X947991Y-988811D01*
X947039Y-988335D01*
X945610D01*
X944658Y-988811D01*
X943706Y-989763D01*
X943230Y-991191D01*
Y-992143D01*
X943706Y-993572D01*
X944658Y-994524D01*
X945610Y-995000D01*
X947039D01*
X947991Y-994524D01*
X948943Y-993572D01*
X951085Y-988335D02*
Y-995000D01*
Y-991191D02*
X951561Y-989763D01*
X952514Y-988811D01*
X953466Y-988335D01*
X954894D01*
X955799Y-991191D02*
X961512D01*
Y-990239D01*
X961036Y-989287D01*
X960559Y-988811D01*
X959607Y-988335D01*
X958179D01*
X957227Y-988811D01*
X956275Y-989763D01*
X955799Y-991191D01*
Y-992143D01*
X956275Y-993572D01*
X957227Y-994524D01*
X958179Y-995000D01*
X959607D01*
X960559Y-994524D01*
X961512Y-993572D01*
X963654Y-991191D02*
X969367D01*
Y-990239D01*
X968891Y-989287D01*
X968415Y-988811D01*
X967463Y-988335D01*
X966034D01*
X965082Y-988811D01*
X964130Y-989763D01*
X963654Y-991191D01*
Y-992143D01*
X964130Y-993572D01*
X965082Y-994524D01*
X966034Y-995000D01*
X967463D01*
X968415Y-994524D01*
X969367Y-993572D01*
X971509Y-988335D02*
Y-995000D01*
Y-990239D02*
X972938Y-988811D01*
X973890Y-988335D01*
X975318D01*
X976270Y-988811D01*
X976747Y-990239D01*
Y-995000D01*
X911665Y-966430D02*
X910713Y-965478D01*
X909285Y-965002D01*
X907380D01*
X905952Y-965478D01*
X905000Y-966430D01*
Y-967383D01*
X905476Y-968335D01*
X905952Y-968811D01*
X906904Y-969287D01*
X909761Y-970239D01*
X910713Y-970715D01*
X911189Y-971191D01*
X911665Y-972143D01*
Y-973572D01*
X910713Y-974524D01*
X909285Y-975000D01*
X907380D01*
X905952Y-974524D01*
X905000Y-973572D01*
X916283Y-968335D02*
X915331Y-968811D01*
X914379Y-969763D01*
X913903Y-971191D01*
Y-972143D01*
X914379Y-973572D01*
X915331Y-974524D01*
X916283Y-975000D01*
X917712D01*
X918664Y-974524D01*
X919616Y-973572D01*
X920092Y-972143D01*
Y-971191D01*
X919616Y-969763D01*
X918664Y-968811D01*
X917712Y-968335D01*
X916283D01*
X922282Y-965002D02*
Y-975000D01*
X930090Y-965002D02*
Y-975000D01*
Y-969763D02*
X929138Y-968811D01*
X928186Y-968335D01*
X926757D01*
X925805Y-968811D01*
X924853Y-969763D01*
X924377Y-971191D01*
Y-972143D01*
X924853Y-973572D01*
X925805Y-974524D01*
X926757Y-975000D01*
X928186D01*
X929138Y-974524D01*
X930090Y-973572D01*
X932756Y-971191D02*
X938469D01*
Y-970239D01*
X937993Y-969287D01*
X937517Y-968811D01*
X936565Y-968335D01*
X935136D01*
X934184Y-968811D01*
X933232Y-969763D01*
X932756Y-971191D01*
Y-972143D01*
X933232Y-973572D01*
X934184Y-974524D01*
X935136Y-975000D01*
X936565D01*
X937517Y-974524D01*
X938469Y-973572D01*
X940611Y-968335D02*
Y-975000D01*
Y-971191D02*
X941087Y-969763D01*
X942040Y-968811D01*
X942992Y-968335D01*
X944420D01*
X953180Y-965002D02*
Y-975000D01*
Y-965002D02*
X956989Y-975000D01*
X960798Y-965002D02*
X956989Y-975000D01*
X960798Y-965002D02*
Y-975000D01*
X969367Y-968335D02*
Y-975000D01*
Y-969763D02*
X968415Y-968811D01*
X967463Y-968335D01*
X966034D01*
X965082Y-968811D01*
X964130Y-969763D01*
X963654Y-971191D01*
Y-972143D01*
X964130Y-973572D01*
X965082Y-974524D01*
X966034Y-975000D01*
X967463D01*
X968415Y-974524D01*
X969367Y-973572D01*
X977270Y-969763D02*
X976794Y-968811D01*
X975366Y-968335D01*
X973938D01*
X972509Y-968811D01*
X972033Y-969763D01*
X972509Y-970715D01*
X973462Y-971191D01*
X975842Y-971667D01*
X976794Y-972143D01*
X977270Y-973096D01*
Y-973572D01*
X976794Y-974524D01*
X975366Y-975000D01*
X973938D01*
X972509Y-974524D01*
X972033Y-973572D01*
X979365Y-965002D02*
Y-975000D01*
X984126Y-968335D02*
X979365Y-973096D01*
X981269Y-971191D02*
X984602Y-975000D01*
X911665Y-946430D02*
X910713Y-945478D01*
X909285Y-945002D01*
X907380D01*
X905952Y-945478D01*
X905000Y-946430D01*
Y-947383D01*
X905476Y-948335D01*
X905952Y-948811D01*
X906904Y-949287D01*
X909761Y-950239D01*
X910713Y-950715D01*
X911189Y-951191D01*
X911665Y-952143D01*
Y-953572D01*
X910713Y-954524D01*
X909285Y-955000D01*
X907380D01*
X905952Y-954524D01*
X905000Y-953572D01*
X913903Y-948335D02*
Y-953096D01*
X914379Y-954524D01*
X915331Y-955000D01*
X916759D01*
X917712Y-954524D01*
X919140Y-953096D01*
Y-948335D02*
Y-955000D01*
X921758Y-948335D02*
Y-955000D01*
Y-951191D02*
X922234Y-949763D01*
X923187Y-948811D01*
X924139Y-948335D01*
X925567D01*
X930280Y-945002D02*
X929328D01*
X928376Y-945478D01*
X927900Y-946907D01*
Y-955000D01*
X926472Y-948335D02*
X929804D01*
X937422D02*
Y-955000D01*
Y-949763D02*
X936469Y-948811D01*
X935517Y-948335D01*
X934089D01*
X933137Y-948811D01*
X932185Y-949763D01*
X931709Y-951191D01*
Y-952143D01*
X932185Y-953572D01*
X933137Y-954524D01*
X934089Y-955000D01*
X935517D01*
X936469Y-954524D01*
X937422Y-953572D01*
X945801Y-949763D02*
X944849Y-948811D01*
X943896Y-948335D01*
X942468D01*
X941516Y-948811D01*
X940564Y-949763D01*
X940088Y-951191D01*
Y-952143D01*
X940564Y-953572D01*
X941516Y-954524D01*
X942468Y-955000D01*
X943896D01*
X944849Y-954524D01*
X945801Y-953572D01*
X947943Y-951191D02*
X953656D01*
Y-950239D01*
X953180Y-949287D01*
X952704Y-948811D01*
X951752Y-948335D01*
X950324D01*
X949371Y-948811D01*
X948419Y-949763D01*
X947943Y-951191D01*
Y-952143D01*
X948419Y-953572D01*
X949371Y-954524D01*
X950324Y-955000D01*
X951752D01*
X952704Y-954524D01*
X953656Y-953572D01*
X963654Y-950239D02*
X967939D01*
X969367Y-949763D01*
X969843Y-949287D01*
X970319Y-948335D01*
Y-946907D01*
X969843Y-945954D01*
X969367Y-945478D01*
X967939Y-945002D01*
X963654D01*
Y-955000D01*
X972557Y-948335D02*
Y-955000D01*
Y-951191D02*
X973033Y-949763D01*
X973985Y-948811D01*
X974937Y-948335D01*
X976366D01*
X977270Y-951191D02*
X982983D01*
Y-950239D01*
X982507Y-949287D01*
X982031Y-948811D01*
X981079Y-948335D01*
X979651D01*
X978699Y-948811D01*
X977746Y-949763D01*
X977270Y-951191D01*
Y-952143D01*
X977746Y-953572D01*
X978699Y-954524D01*
X979651Y-955000D01*
X981079D01*
X982031Y-954524D01*
X982983Y-953572D01*
X985126Y-948335D02*
Y-958333D01*
Y-949763D02*
X986078Y-948811D01*
X987030Y-948335D01*
X988458D01*
X989410Y-948811D01*
X990363Y-949763D01*
X990839Y-951191D01*
Y-952143D01*
X990363Y-953572D01*
X989410Y-954524D01*
X988458Y-955000D01*
X987030D01*
X986078Y-954524D01*
X985126Y-953572D01*
X998694Y-948335D02*
Y-955000D01*
Y-949763D02*
X997742Y-948811D01*
X996790Y-948335D01*
X995362D01*
X994409Y-948811D01*
X993457Y-949763D01*
X992981Y-951191D01*
Y-952143D01*
X993457Y-953572D01*
X994409Y-954524D01*
X995362Y-955000D01*
X996790D01*
X997742Y-954524D01*
X998694Y-953572D01*
X1001360Y-948335D02*
Y-955000D01*
Y-951191D02*
X1001836Y-949763D01*
X1002788Y-948811D01*
X1003741Y-948335D01*
X1005169D01*
X1011787D02*
Y-955000D01*
Y-949763D02*
X1010835Y-948811D01*
X1009882Y-948335D01*
X1008454D01*
X1007502Y-948811D01*
X1006550Y-949763D01*
X1006074Y-951191D01*
Y-952143D01*
X1006550Y-953572D01*
X1007502Y-954524D01*
X1008454Y-955000D01*
X1009882D01*
X1010835Y-954524D01*
X1011787Y-953572D01*
X1015881Y-945002D02*
Y-953096D01*
X1016357Y-954524D01*
X1017309Y-955000D01*
X1018261D01*
X1014453Y-948335D02*
X1017785D01*
X1020642Y-945002D02*
X1021118Y-945478D01*
X1021594Y-945002D01*
X1021118Y-944526D01*
X1020642Y-945002D01*
X1021118Y-948335D02*
Y-955000D01*
X1025736Y-948335D02*
X1024784Y-948811D01*
X1023832Y-949763D01*
X1023356Y-951191D01*
Y-952143D01*
X1023832Y-953572D01*
X1024784Y-954524D01*
X1025736Y-955000D01*
X1027164D01*
X1028117Y-954524D01*
X1029069Y-953572D01*
X1029545Y-952143D01*
Y-951191D01*
X1029069Y-949763D01*
X1028117Y-948811D01*
X1027164Y-948335D01*
X1025736D01*
X1031735D02*
Y-955000D01*
Y-950239D02*
X1033163Y-948811D01*
X1034115Y-948335D01*
X1035543D01*
X1036496Y-948811D01*
X1036972Y-950239D01*
Y-955000D01*
X905000Y-925002D02*
Y-935000D01*
Y-925002D02*
X908809Y-935000D01*
X912617Y-925002D02*
X908809Y-935000D01*
X912617Y-925002D02*
Y-935000D01*
X915474Y-931191D02*
X921187D01*
Y-930239D01*
X920711Y-929287D01*
X920235Y-928811D01*
X919283Y-928335D01*
X917854D01*
X916902Y-928811D01*
X915950Y-929763D01*
X915474Y-931191D01*
Y-932143D01*
X915950Y-933572D01*
X916902Y-934524D01*
X917854Y-935000D01*
X919283D01*
X920235Y-934524D01*
X921187Y-933572D01*
X924758Y-925002D02*
Y-933096D01*
X925234Y-934524D01*
X926186Y-935000D01*
X927138D01*
X923329Y-928335D02*
X926662D01*
X928566Y-931191D02*
X934279D01*
Y-930239D01*
X933803Y-929287D01*
X933327Y-928811D01*
X932375Y-928335D01*
X930947D01*
X929995Y-928811D01*
X929043Y-929763D01*
X928566Y-931191D01*
Y-932143D01*
X929043Y-933572D01*
X929995Y-934524D01*
X930947Y-935000D01*
X932375D01*
X933327Y-934524D01*
X934279Y-933572D01*
X936422Y-928335D02*
Y-935000D01*
Y-931191D02*
X936898Y-929763D01*
X937850Y-928811D01*
X938802Y-928335D01*
X940230D01*
X942087Y-925002D02*
X942563Y-925478D01*
X943039Y-925002D01*
X942563Y-924526D01*
X942087Y-925002D01*
X942563Y-928335D02*
Y-935000D01*
X950514Y-928335D02*
Y-935000D01*
Y-929763D02*
X949562Y-928811D01*
X948610Y-928335D01*
X947181D01*
X946229Y-928811D01*
X945277Y-929763D01*
X944801Y-931191D01*
Y-932143D01*
X945277Y-933572D01*
X946229Y-934524D01*
X947181Y-935000D01*
X948610D01*
X949562Y-934524D01*
X950514Y-933572D01*
X953180Y-925002D02*
Y-935000D01*
X908333Y-905002D02*
Y-915000D01*
X905000Y-905002D02*
X911665D01*
X912856D02*
Y-915000D01*
Y-910239D02*
X914284Y-908811D01*
X915236Y-908335D01*
X916664D01*
X917616Y-908811D01*
X918092Y-910239D01*
Y-915000D01*
X921663Y-905002D02*
X922139Y-905478D01*
X922615Y-905002D01*
X922139Y-904526D01*
X921663Y-905002D01*
X922139Y-908335D02*
Y-915000D01*
X930090Y-909763D02*
X929138Y-908811D01*
X928186Y-908335D01*
X926757D01*
X925805Y-908811D01*
X924853Y-909763D01*
X924377Y-911191D01*
Y-912143D01*
X924853Y-913572D01*
X925805Y-914524D01*
X926757Y-915000D01*
X928186D01*
X929138Y-914524D01*
X930090Y-913572D01*
X932232Y-905002D02*
Y-915000D01*
X936993Y-908335D02*
X932232Y-913096D01*
X934137Y-911191D02*
X937469Y-915000D01*
X939040Y-908335D02*
Y-915000D01*
Y-910239D02*
X940469Y-908811D01*
X941421Y-908335D01*
X942849D01*
X943801Y-908811D01*
X944277Y-910239D01*
Y-915000D01*
X946896Y-911191D02*
X952609D01*
Y-910239D01*
X952133Y-909287D01*
X951657Y-908811D01*
X950704Y-908335D01*
X949276D01*
X948324Y-908811D01*
X947372Y-909763D01*
X946896Y-911191D01*
Y-912143D01*
X947372Y-913572D01*
X948324Y-914524D01*
X949276Y-915000D01*
X950704D01*
X951657Y-914524D01*
X952609Y-913572D01*
X959988Y-909763D02*
X959512Y-908811D01*
X958084Y-908335D01*
X956656D01*
X955227Y-908811D01*
X954751Y-909763D01*
X955227Y-910715D01*
X956180Y-911191D01*
X958560Y-911667D01*
X959512Y-912143D01*
X959988Y-913096D01*
Y-913572D01*
X959512Y-914524D01*
X958084Y-915000D01*
X956656D01*
X955227Y-914524D01*
X954751Y-913572D01*
X967320Y-909763D02*
X966844Y-908811D01*
X965416Y-908335D01*
X963987D01*
X962559Y-908811D01*
X962083Y-909763D01*
X962559Y-910715D01*
X963511Y-911191D01*
X965892Y-911667D01*
X966844Y-912143D01*
X967320Y-913096D01*
Y-913572D01*
X966844Y-914524D01*
X965416Y-915000D01*
X963987D01*
X962559Y-914524D01*
X962083Y-913572D01*
X911665Y-886430D02*
X910713Y-885478D01*
X909285Y-885002D01*
X907380D01*
X905952Y-885478D01*
X905000Y-886430D01*
Y-887383D01*
X905476Y-888335D01*
X905952Y-888811D01*
X906904Y-889287D01*
X909761Y-890239D01*
X910713Y-890715D01*
X911189Y-891191D01*
X911665Y-892143D01*
Y-893572D01*
X910713Y-894524D01*
X909285Y-895000D01*
X907380D01*
X905952Y-894524D01*
X905000Y-893572D01*
X914855Y-885002D02*
X915331Y-885478D01*
X915807Y-885002D01*
X915331Y-884526D01*
X914855Y-885002D01*
X915331Y-888335D02*
Y-895000D01*
X922806Y-888335D02*
X917569Y-895000D01*
Y-888335D02*
X922806D01*
X917569Y-895000D02*
X922806D01*
X924901Y-891191D02*
X930614D01*
Y-890239D01*
X930137Y-889287D01*
X929661Y-888811D01*
X928709Y-888335D01*
X927281D01*
X926329Y-888811D01*
X925377Y-889763D01*
X924901Y-891191D01*
Y-892143D01*
X925377Y-893572D01*
X926329Y-894524D01*
X927281Y-895000D01*
X928709D01*
X929661Y-894524D01*
X930614Y-893572D01*
M02*
