G04 Layer_Color=65535*
%FSLAX44Y44*%
%MOMM*%
G71*
G01*
G75*
%ADD10C,0.2500*%
%ADD14C,0.4000*%
%ADD53C,0.2540*%
%ADD54C,0.1270*%
%ADD55C,0.1500*%
%ADD76C,0.1000*%
%ADD77C,0.2000*%
%ADD78C,0.3000*%
%ADD79C,0.1800*%
%ADD80C,0.1200*%
G36*
X184950Y-76956D02*
X177879Y-78370D01*
X179293Y-71299D01*
X184950Y-76956D01*
D02*
G37*
G36*
X233047Y274D02*
X234453Y-1132D01*
X235215Y-2970D01*
Y-3965D01*
Y-4959D01*
X234453Y-6797D01*
X233047Y-8203D01*
X231209Y-8964D01*
X229220D01*
X227382Y-8203D01*
X225976Y-6797D01*
X225215Y-4959D01*
Y-3965D01*
Y-2970D01*
X225976Y-1132D01*
X227382Y274D01*
X229220Y1036D01*
X231209D01*
X233047Y274D01*
D02*
G37*
G36*
X211113Y-103119D02*
X204042Y-104533D01*
X205456Y-97462D01*
X211113Y-103119D01*
D02*
G37*
G36*
X125559Y-95862D02*
X126414Y-96717D01*
X126877Y-97835D01*
Y-98440D01*
Y-99045D01*
X126414Y-100163D01*
X125559Y-101018D01*
X124441Y-101482D01*
X123231D01*
X122113Y-101018D01*
X121258Y-100163D01*
X120795Y-99045D01*
Y-98440D01*
Y-97835D01*
X121258Y-96717D01*
X122113Y-95862D01*
X123231Y-95399D01*
X124441D01*
X125559Y-95862D01*
D02*
G37*
G36*
X140500Y99500D02*
X134500D01*
X137500Y105500D01*
X140500Y99500D01*
D02*
G37*
G36*
X65500Y99500D02*
X59500D01*
X62500Y105500D01*
X65500Y99500D01*
D02*
G37*
G36*
X-159360Y33420D02*
X-164440Y38500D01*
X-159360Y43580D01*
Y33420D01*
D02*
G37*
G36*
X210500Y99500D02*
X204500D01*
X207500Y105500D01*
X210500Y99500D01*
D02*
G37*
G36*
X194368Y-104987D02*
X188980Y-110375D01*
X145875Y-67270D01*
X151263Y-61882D01*
X194368Y-104987D01*
D02*
G37*
G36*
X28750Y-298750D02*
X20000Y-293750D01*
X28750Y-288750D01*
Y-298750D01*
D02*
G37*
G36*
X49500Y-295500D02*
X45500Y-292500D01*
X49500Y-289500D01*
X49500Y-295500D01*
D02*
G37*
G36*
X129582Y-354261D02*
X130989Y-355668D01*
X131750Y-357505D01*
Y-358500D01*
Y-359495D01*
X130989Y-361332D01*
X129582Y-362739D01*
X127745Y-363500D01*
X125755D01*
X123918Y-362739D01*
X122511Y-361332D01*
X121750Y-359495D01*
Y-358500D01*
Y-357505D01*
X122511Y-355668D01*
X123918Y-354261D01*
X125755Y-353500D01*
X127745D01*
X129582Y-354261D01*
D02*
G37*
G36*
X206368Y-314511D02*
X207774Y-315918D01*
X208535Y-317755D01*
Y-318750D01*
Y-319744D01*
X207774Y-321582D01*
X206368Y-322989D01*
X204530Y-323750D01*
X202541D01*
X200703Y-322989D01*
X199297Y-321582D01*
X198535Y-319744D01*
Y-318750D01*
Y-317755D01*
X199297Y-315918D01*
X200703Y-314511D01*
X202541Y-313750D01*
X204530D01*
X206368Y-314511D01*
D02*
G37*
G36*
X213332Y-208011D02*
X214739Y-209418D01*
X215500Y-211255D01*
Y-212250D01*
Y-213244D01*
X214739Y-215082D01*
X213332Y-216489D01*
X211495Y-217250D01*
X209505D01*
X207668Y-216489D01*
X206261Y-215082D01*
X205500Y-213244D01*
Y-212250D01*
Y-211255D01*
X206261Y-209418D01*
X207668Y-208011D01*
X209505Y-207250D01*
X211495D01*
X213332Y-208011D01*
D02*
G37*
G36*
X254297Y-134726D02*
X255703Y-136132D01*
X256465Y-137970D01*
Y-138965D01*
Y-139959D01*
X255703Y-141797D01*
X254297Y-143203D01*
X252459Y-143965D01*
X250470D01*
X248632Y-143203D01*
X247226Y-141797D01*
X246465Y-139959D01*
Y-138965D01*
Y-137970D01*
X247226Y-136132D01*
X248632Y-134726D01*
X250470Y-133965D01*
X252459D01*
X254297Y-134726D01*
D02*
G37*
G36*
X77000Y-278000D02*
X73000Y-275000D01*
X77000Y-272000D01*
Y-278000D01*
D02*
G37*
G36*
X82500Y-265000D02*
X73750Y-260000D01*
X82500Y-255000D01*
Y-265000D01*
D02*
G37*
G36*
X140500Y199500D02*
X134500D01*
X137500Y205500D01*
X140500Y199500D01*
D02*
G37*
G36*
X70500Y199500D02*
X64500D01*
X67500Y205500D01*
X70500Y199500D01*
D02*
G37*
G36*
X-49837Y200165D02*
X-48982Y199309D01*
X-48519Y198191D01*
Y197586D01*
Y196981D01*
X-48982Y195863D01*
X-49837Y195008D01*
X-50955Y194545D01*
X-52165D01*
X-53283Y195008D01*
X-54138Y195863D01*
X-54601Y196981D01*
Y197586D01*
Y198191D01*
X-54138Y199309D01*
X-53283Y200165D01*
X-52165Y200627D01*
X-50955D01*
X-49837Y200165D01*
D02*
G37*
G36*
X210500Y199500D02*
X204500D01*
X207500Y205500D01*
X210500Y199500D01*
D02*
G37*
G36*
X59723Y223578D02*
X60578Y222723D01*
X61041Y221605D01*
Y221000D01*
Y220395D01*
X60578Y219277D01*
X59723Y218422D01*
X58605Y217959D01*
X57395D01*
X56277Y218422D01*
X55422Y219277D01*
X54959Y220395D01*
Y221000D01*
Y221605D01*
X55422Y222723D01*
X56277Y223578D01*
X57395Y224042D01*
X58605D01*
X59723Y223578D01*
D02*
G37*
G36*
X-510277Y233078D02*
X-509422Y232223D01*
X-508959Y231105D01*
Y230500D01*
Y229895D01*
X-509422Y228777D01*
X-510277Y227922D01*
X-511395Y227459D01*
X-512605D01*
X-513723Y227922D01*
X-514578Y228777D01*
X-515041Y229895D01*
Y230500D01*
Y231105D01*
X-514578Y232223D01*
X-513723Y233078D01*
X-512605Y233541D01*
X-511395D01*
X-510277Y233078D01*
D02*
G37*
G36*
X199723Y223578D02*
X200578Y222723D01*
X201041Y221605D01*
Y221000D01*
Y220395D01*
X200578Y219277D01*
X199723Y218422D01*
X198605Y217959D01*
X197395D01*
X196277Y218422D01*
X195422Y219277D01*
X194959Y220395D01*
Y221000D01*
Y221605D01*
X195422Y222723D01*
X196277Y223578D01*
X197395Y224041D01*
X198605D01*
X199723Y223578D01*
D02*
G37*
G36*
X129723Y223578D02*
X130578Y222723D01*
X131041Y221605D01*
Y221000D01*
Y220395D01*
X130578Y219277D01*
X129723Y218422D01*
X128605Y217959D01*
X127395D01*
X126277Y218422D01*
X125422Y219277D01*
X124959Y220395D01*
Y221000D01*
Y221605D01*
X125422Y222723D01*
X126277Y223578D01*
X127395Y224042D01*
X128605D01*
X129723Y223578D01*
D02*
G37*
G36*
X-176678Y182229D02*
X-175822Y181373D01*
X-175359Y180256D01*
Y179651D01*
Y179046D01*
X-175822Y177928D01*
X-176678Y177072D01*
X-177796Y176609D01*
X-179006D01*
X-180123Y177072D01*
X-180979Y177928D01*
X-181442Y179046D01*
Y179651D01*
Y180256D01*
X-180979Y181373D01*
X-180123Y182229D01*
X-179006Y182692D01*
X-177796D01*
X-176678Y182229D01*
D02*
G37*
G36*
X129723Y123578D02*
X130578Y122723D01*
X131041Y121605D01*
Y121000D01*
Y120395D01*
X130578Y119277D01*
X129723Y118422D01*
X128605Y117959D01*
X127395D01*
X126277Y118422D01*
X125422Y119277D01*
X124959Y120395D01*
Y121000D01*
Y121605D01*
X125422Y122723D01*
X126277Y123578D01*
X127395Y124041D01*
X128605D01*
X129723Y123578D01*
D02*
G37*
G36*
X54723Y123578D02*
X55578Y122723D01*
X56041Y121605D01*
Y121000D01*
Y120395D01*
X55578Y119277D01*
X54723Y118422D01*
X53605Y117959D01*
X52395D01*
X51277Y118422D01*
X50422Y119277D01*
X49959Y120395D01*
Y121000D01*
Y121605D01*
X50422Y122723D01*
X51277Y123578D01*
X52395Y124042D01*
X53605D01*
X54723Y123578D01*
D02*
G37*
G36*
X-157928Y120979D02*
X-157072Y120123D01*
X-156609Y119005D01*
Y118401D01*
Y117796D01*
X-157072Y116678D01*
X-157928Y115822D01*
X-159046Y115359D01*
X-160256D01*
X-161373Y115822D01*
X-162229Y116678D01*
X-162692Y117796D01*
Y118401D01*
Y119005D01*
X-162229Y120123D01*
X-161373Y120979D01*
X-160256Y121442D01*
X-159046D01*
X-157928Y120979D01*
D02*
G37*
G36*
X199723Y123578D02*
X200578Y122723D01*
X201041Y121605D01*
Y121000D01*
Y120395D01*
X200578Y119277D01*
X199723Y118422D01*
X198605Y117959D01*
X197395D01*
X196277Y118422D01*
X195422Y119277D01*
X194959Y120395D01*
Y121000D01*
Y121605D01*
X195422Y122723D01*
X196277Y123578D01*
X197395Y124041D01*
X198605D01*
X199723Y123578D01*
D02*
G37*
G36*
X-214999Y141001D02*
X-220999Y145001D01*
X-214999Y149001D01*
Y141001D01*
D02*
G37*
G36*
X-254168Y153239D02*
X-252761Y151832D01*
X-252000Y149995D01*
Y149000D01*
Y148006D01*
X-252761Y146168D01*
X-254168Y144761D01*
X-256005Y144000D01*
X-257995D01*
X-259832Y144761D01*
X-261239Y146168D01*
X-262000Y148006D01*
Y149000D01*
Y149995D01*
X-261239Y151832D01*
X-259832Y153239D01*
X-257995Y154000D01*
X-256005D01*
X-254168Y153239D01*
D02*
G37*
G36*
X-216999Y119001D02*
X-222999Y123001D01*
X-216999Y127001D01*
Y119001D01*
D02*
G37*
G36*
X-227000Y130000D02*
X-231000D01*
Y160000D01*
X-227000D01*
Y130000D01*
D02*
G37*
D10*
X-52750Y230250D02*
X-54625Y231333D01*
Y229167D01*
X-52750Y230250D01*
Y275250D02*
X-54625Y276333D01*
Y274167D01*
X-52750Y275250D01*
Y320250D02*
X-54625Y321333D01*
Y319167D01*
X-52750Y320250D01*
X-157500Y118000D02*
X-158882Y119902D01*
X-161118Y119176D01*
Y116824D01*
X-158882Y116098D01*
X-157500Y118000D01*
X-49250Y197250D02*
X-51125Y198332D01*
Y196167D01*
X-49250Y197250D01*
X73750Y-265000D02*
Y-255000D01*
Y-260000D02*
X82500Y-255000D01*
X73750Y-260000D02*
X82500Y-265000D01*
Y-255000D01*
X28750Y-298750D02*
Y-288750D01*
X20000Y-293750D02*
X28750Y-298750D01*
X20000Y-293750D02*
X28750Y-288750D01*
X20000Y-298750D02*
Y-288750D01*
X-83750Y-205000D02*
Y-115750D01*
X-100000Y-205500D02*
X-87500D01*
X-127500D02*
X-97500D01*
X-139750Y-155000D02*
X-132250D01*
X-139750Y-185000D02*
X-132250D01*
X-127500Y-213750D02*
Y-205500D01*
X-87500Y-213750D02*
Y-205500D01*
X-83500Y-125000D02*
X-75250D01*
X-82750Y-135000D02*
X-75250D01*
X-82750Y-145000D02*
X-75250D01*
X-82750Y-155000D02*
X-75250D01*
X-82750Y-165000D02*
X-75250D01*
X-82750Y-175000D02*
X-75250D01*
X-82750Y-185000D02*
X-75250D01*
X-82750Y-195000D02*
X-75250D01*
X-83750Y-205000D02*
X-75250D01*
X-97500Y-213750D02*
Y-205500D01*
X-107500Y-214250D02*
Y-205500D01*
X-117500Y-213750D02*
Y-205500D01*
X-201250Y-205000D02*
Y-115750D01*
X-217500Y-205500D02*
X-205000D01*
X-245000D02*
X-215000D01*
X-257250Y-155000D02*
X-249750D01*
X-257250Y-185000D02*
X-249750D01*
X-245000Y-213750D02*
Y-205500D01*
X-205000Y-213750D02*
Y-205500D01*
X-201000Y-125000D02*
X-192750D01*
X-200250Y-135000D02*
X-192750D01*
X-200250Y-145000D02*
X-192750D01*
X-200250Y-155000D02*
X-192750D01*
X-200250Y-165000D02*
X-192750D01*
X-200250Y-175000D02*
X-192750D01*
X-200250Y-185000D02*
X-192750D01*
X-200250Y-195000D02*
X-192750D01*
X-201250Y-205000D02*
X-192750D01*
X-215000Y-213750D02*
Y-205500D01*
X-225000Y-214250D02*
Y-205500D01*
X-235000Y-213750D02*
Y-205500D01*
D14*
X-186750Y62500D02*
X-188132Y64402D01*
X-190368Y63676D01*
Y61324D01*
X-188132Y60598D01*
X-186750Y62500D01*
D53*
X-213650Y61425D02*
X-214133Y63855D01*
X-215510Y65915D01*
X-217570Y67292D01*
X-220000Y67775D01*
X-222430Y67292D01*
X-224490Y65915D01*
X-225867Y63855D01*
X-226350Y61425D01*
X-213650D02*
X-200000D01*
X-240000D02*
X-226350D01*
X-240000Y118575D02*
X-200000D01*
X-240000Y115000D02*
Y118575D01*
Y61425D02*
Y65000D01*
X-200011Y61426D02*
Y65001D01*
Y115001D02*
Y118576D01*
X443040Y-470000D02*
X462540D01*
X443040Y470000D02*
X462540D01*
X440000Y473040D02*
Y492540D01*
X-440000Y473040D02*
Y492540D01*
D54*
X-242380Y25800D02*
X-242793Y28274D01*
X-243987Y30480D01*
X-245832Y32179D01*
X-248129Y33187D01*
X-250629Y33394D01*
X-253061Y32778D01*
X-255161Y31406D01*
X-256702Y29427D01*
X-257516Y27054D01*
Y24546D01*
X-256702Y22173D01*
X-255161Y20194D01*
X-253061Y18822D01*
X-250629Y18206D01*
X-248129Y18413D01*
X-245832Y19421D01*
X-243987Y21120D01*
X-242793Y23326D01*
X-242380Y25800D01*
X-117380Y-63100D02*
X-117793Y-60626D01*
X-118987Y-58420D01*
X-120832Y-56721D01*
X-123129Y-55713D01*
X-125629Y-55506D01*
X-128061Y-56122D01*
X-130161Y-57494D01*
X-131702Y-59473D01*
X-132516Y-61846D01*
Y-64354D01*
X-131702Y-66727D01*
X-130161Y-68706D01*
X-128061Y-70078D01*
X-125629Y-70694D01*
X-123129Y-70487D01*
X-120832Y-69479D01*
X-118987Y-67780D01*
X-117793Y-65574D01*
X-117380Y-63100D01*
X-108630Y-103750D02*
X-109043Y-101276D01*
X-110237Y-99070D01*
X-112082Y-97371D01*
X-114379Y-96363D01*
X-116879Y-96156D01*
X-119311Y-96772D01*
X-121411Y-98144D01*
X-122952Y-100123D01*
X-123766Y-102496D01*
Y-105004D01*
X-122952Y-107377D01*
X-121411Y-109356D01*
X-119311Y-110728D01*
X-116879Y-111344D01*
X-114379Y-111137D01*
X-112082Y-110129D01*
X-110237Y-108430D01*
X-109043Y-106224D01*
X-108630Y-103750D01*
X-242380Y-30000D02*
X-242793Y-27526D01*
X-243987Y-25320D01*
X-245832Y-23621D01*
X-248129Y-22613D01*
X-250629Y-22406D01*
X-253061Y-23022D01*
X-255161Y-24394D01*
X-256702Y-26373D01*
X-257516Y-28746D01*
Y-31254D01*
X-256702Y-33627D01*
X-255161Y-35606D01*
X-253061Y-36978D01*
X-250629Y-37594D01*
X-248129Y-37387D01*
X-245832Y-36379D01*
X-243987Y-34680D01*
X-242793Y-32474D01*
X-242380Y-30000D01*
X-257380Y-15000D02*
X-257793Y-12526D01*
X-258987Y-10320D01*
X-260832Y-8621D01*
X-263129Y-7613D01*
X-265629Y-7406D01*
X-268061Y-8022D01*
X-270161Y-9394D01*
X-271702Y-11373D01*
X-272516Y-13746D01*
Y-16254D01*
X-271702Y-18627D01*
X-270161Y-20606D01*
X-268061Y-21978D01*
X-265629Y-22594D01*
X-263129Y-22387D01*
X-260832Y-21379D01*
X-258987Y-19680D01*
X-257793Y-17474D01*
X-257380Y-15000D01*
X-242380Y400D02*
X-242793Y2874D01*
X-243987Y5080D01*
X-245832Y6779D01*
X-248129Y7787D01*
X-250629Y7994D01*
X-253061Y7378D01*
X-255161Y6006D01*
X-256702Y4027D01*
X-257516Y1654D01*
Y-854D01*
X-256702Y-3227D01*
X-255161Y-5206D01*
X-253061Y-6578D01*
X-250629Y-7194D01*
X-248129Y-6987D01*
X-245832Y-5979D01*
X-243987Y-4280D01*
X-242793Y-2074D01*
X-242380Y400D01*
X217120Y-170500D02*
X216707Y-168026D01*
X215513Y-165820D01*
X213668Y-164121D01*
X211371Y-163113D01*
X208871Y-162906D01*
X206439Y-163522D01*
X204339Y-164894D01*
X202798Y-166873D01*
X201984Y-169246D01*
Y-171754D01*
X202798Y-174127D01*
X204339Y-176106D01*
X206439Y-177478D01*
X208871Y-178094D01*
X211371Y-177887D01*
X213668Y-176879D01*
X215513Y-175180D01*
X216707Y-172974D01*
X217120Y-170500D01*
X-242380Y-75800D02*
X-242793Y-73326D01*
X-243987Y-71120D01*
X-245832Y-69421D01*
X-248129Y-68413D01*
X-250629Y-68206D01*
X-253061Y-68822D01*
X-255161Y-70194D01*
X-256702Y-72173D01*
X-257516Y-74546D01*
Y-77054D01*
X-256702Y-79427D01*
X-255161Y-81406D01*
X-253061Y-82778D01*
X-250629Y-83394D01*
X-248129Y-83187D01*
X-245832Y-82179D01*
X-243987Y-80480D01*
X-242793Y-78274D01*
X-242380Y-75800D01*
X-132380Y205000D02*
X-132793Y207474D01*
X-133987Y209680D01*
X-135832Y211379D01*
X-138129Y212387D01*
X-140629Y212594D01*
X-143061Y211978D01*
X-145161Y210606D01*
X-146702Y208627D01*
X-147516Y206254D01*
Y203746D01*
X-146702Y201373D01*
X-145161Y199394D01*
X-143061Y198022D01*
X-140629Y197406D01*
X-138129Y197613D01*
X-135832Y198621D01*
X-133987Y200320D01*
X-132793Y202526D01*
X-132380Y205000D01*
X-269880Y50000D02*
X-270293Y52474D01*
X-271487Y54680D01*
X-273332Y56379D01*
X-275629Y57387D01*
X-278129Y57594D01*
X-280561Y56978D01*
X-282661Y55606D01*
X-284202Y53627D01*
X-285016Y51254D01*
Y48746D01*
X-284202Y46373D01*
X-282661Y44394D01*
X-280561Y43022D01*
X-278129Y42406D01*
X-275629Y42613D01*
X-273332Y43621D01*
X-271487Y45320D01*
X-270293Y47526D01*
X-269880Y50000D01*
X-242380Y-57500D02*
X-242793Y-55026D01*
X-243987Y-52820D01*
X-245832Y-51121D01*
X-248129Y-50113D01*
X-250629Y-49906D01*
X-253061Y-50522D01*
X-255161Y-51894D01*
X-256702Y-53873D01*
X-257516Y-56246D01*
Y-58754D01*
X-256702Y-61127D01*
X-255161Y-63106D01*
X-253061Y-64478D01*
X-250629Y-65094D01*
X-248129Y-64887D01*
X-245832Y-63879D01*
X-243987Y-62180D01*
X-242793Y-59974D01*
X-242380Y-57500D01*
X-147380Y400D02*
X-147793Y2874D01*
X-148987Y5080D01*
X-150832Y6779D01*
X-153129Y7787D01*
X-155629Y7994D01*
X-158061Y7378D01*
X-160161Y6006D01*
X-161702Y4027D01*
X-162516Y1654D01*
Y-854D01*
X-161702Y-3227D01*
X-160161Y-5206D01*
X-158061Y-6578D01*
X-155629Y-7194D01*
X-153129Y-6987D01*
X-150832Y-5979D01*
X-148987Y-4280D01*
X-147793Y-2074D01*
X-147380Y400D01*
X-117380Y13100D02*
X-117793Y15574D01*
X-118987Y17780D01*
X-120832Y19479D01*
X-123129Y20487D01*
X-125629Y20694D01*
X-128061Y20078D01*
X-130161Y18706D01*
X-131702Y16727D01*
X-132516Y14354D01*
Y11846D01*
X-131702Y9473D01*
X-130161Y7494D01*
X-128061Y6122D01*
X-125629Y5506D01*
X-123129Y5713D01*
X-120832Y6721D01*
X-118987Y8420D01*
X-117793Y10626D01*
X-117380Y13100D01*
X-147380Y25800D02*
X-147793Y28274D01*
X-148987Y30480D01*
X-150832Y32179D01*
X-153129Y33187D01*
X-155629Y33394D01*
X-158061Y32778D01*
X-160161Y31406D01*
X-161702Y29427D01*
X-162516Y27054D01*
Y24546D01*
X-161702Y22173D01*
X-160161Y20194D01*
X-158061Y18822D01*
X-155629Y18206D01*
X-153129Y18413D01*
X-150832Y19421D01*
X-148987Y21120D01*
X-147793Y23326D01*
X-147380Y25800D01*
X-253630Y132500D02*
X-254043Y134974D01*
X-255237Y137180D01*
X-257082Y138879D01*
X-259379Y139887D01*
X-261879Y140094D01*
X-264311Y139478D01*
X-266411Y138106D01*
X-267952Y136127D01*
X-268766Y133754D01*
Y131246D01*
X-267952Y128873D01*
X-266411Y126894D01*
X-264311Y125522D01*
X-261879Y124906D01*
X-259379Y125113D01*
X-257082Y126121D01*
X-255237Y127820D01*
X-254043Y130026D01*
X-253630Y132500D01*
X-117380Y-12300D02*
X-117793Y-9826D01*
X-118987Y-7620D01*
X-120832Y-5921D01*
X-123129Y-4913D01*
X-125629Y-4706D01*
X-128061Y-5322D01*
X-130161Y-6694D01*
X-131702Y-8673D01*
X-132516Y-11046D01*
Y-13554D01*
X-131702Y-15927D01*
X-130161Y-17906D01*
X-128061Y-19278D01*
X-125629Y-19894D01*
X-123129Y-19687D01*
X-120832Y-18679D01*
X-118987Y-16980D01*
X-117793Y-14774D01*
X-117380Y-12300D01*
X-147380Y-25000D02*
X-147793Y-22526D01*
X-148987Y-20320D01*
X-150832Y-18621D01*
X-153129Y-17613D01*
X-155629Y-17406D01*
X-158061Y-18022D01*
X-160161Y-19394D01*
X-161702Y-21373D01*
X-162516Y-23746D01*
Y-26254D01*
X-161702Y-28627D01*
X-160161Y-30606D01*
X-158061Y-31978D01*
X-155629Y-32594D01*
X-153129Y-32387D01*
X-150832Y-31379D01*
X-148987Y-29680D01*
X-147793Y-27474D01*
X-147380Y-25000D01*
X-117380Y-37700D02*
X-117793Y-35226D01*
X-118987Y-33020D01*
X-120832Y-31321D01*
X-123129Y-30313D01*
X-125629Y-30106D01*
X-128061Y-30722D01*
X-130161Y-32094D01*
X-131701Y-34073D01*
X-132516Y-36446D01*
Y-38954D01*
X-131701Y-41327D01*
X-130161Y-43306D01*
X-128061Y-44678D01*
X-125629Y-45294D01*
X-123129Y-45087D01*
X-120832Y-44079D01*
X-118987Y-42380D01*
X-117793Y-40174D01*
X-117380Y-37700D01*
X256370Y-95000D02*
X255957Y-92526D01*
X254763Y-90320D01*
X252918Y-88621D01*
X250621Y-87613D01*
X248121Y-87406D01*
X245689Y-88022D01*
X243589Y-89394D01*
X242048Y-91373D01*
X241234Y-93746D01*
Y-96254D01*
X242048Y-98627D01*
X243589Y-100606D01*
X245689Y-101978D01*
X248121Y-102594D01*
X250621Y-102387D01*
X252918Y-101379D01*
X254763Y-99680D01*
X255957Y-97474D01*
X256370Y-95000D01*
X-154880Y72500D02*
X-155293Y74974D01*
X-156487Y77180D01*
X-158332Y78879D01*
X-160629Y79887D01*
X-163129Y80094D01*
X-165561Y79478D01*
X-167661Y78106D01*
X-169202Y76127D01*
X-170016Y73754D01*
Y71246D01*
X-169202Y68873D01*
X-167661Y66894D01*
X-165561Y65522D01*
X-163129Y64906D01*
X-160629Y65113D01*
X-158332Y66121D01*
X-156487Y67820D01*
X-155293Y70026D01*
X-154880Y72500D01*
X-192380Y-280000D02*
X-192793Y-277526D01*
X-193987Y-275320D01*
X-195832Y-273621D01*
X-198129Y-272613D01*
X-200629Y-272406D01*
X-203061Y-273022D01*
X-205161Y-274394D01*
X-206702Y-276373D01*
X-207516Y-278746D01*
Y-281254D01*
X-206702Y-283627D01*
X-205161Y-285606D01*
X-203061Y-286978D01*
X-200629Y-287594D01*
X-198129Y-287387D01*
X-195832Y-286379D01*
X-193987Y-284680D01*
X-192793Y-282474D01*
X-192380Y-280000D01*
X-164880Y-248750D02*
X-165293Y-246276D01*
X-166487Y-244070D01*
X-168332Y-242371D01*
X-170629Y-241363D01*
X-173129Y-241156D01*
X-175561Y-241772D01*
X-177661Y-243144D01*
X-179202Y-245123D01*
X-180016Y-247496D01*
Y-250004D01*
X-179202Y-252377D01*
X-177661Y-254356D01*
X-175561Y-255728D01*
X-173129Y-256344D01*
X-170629Y-256137D01*
X-168332Y-255129D01*
X-166487Y-253430D01*
X-165293Y-251224D01*
X-164880Y-248750D01*
X60120Y-158750D02*
X59707Y-156276D01*
X58513Y-154070D01*
X56668Y-152371D01*
X54371Y-151363D01*
X51871Y-151156D01*
X49439Y-151772D01*
X47339Y-153144D01*
X45798Y-155123D01*
X44984Y-157496D01*
Y-160004D01*
X45798Y-162377D01*
X47339Y-164356D01*
X49439Y-165728D01*
X51871Y-166344D01*
X54371Y-166137D01*
X56668Y-165129D01*
X58513Y-163430D01*
X59707Y-161224D01*
X60120Y-158750D01*
X460000Y-470000D02*
Y-39545D01*
Y31925D02*
Y470000D01*
Y-470000D02*
X465080Y-454760D01*
X454920D02*
X460000Y-470000D01*
X454920Y454760D02*
X460000Y470000D01*
X465080Y454760D01*
X31925Y490000D02*
X440000D01*
X-440000D02*
X-39545D01*
X424760Y495080D02*
X440000Y490000D01*
X424760Y484920D02*
X440000Y490000D01*
X-440000D02*
X-424760Y484920D01*
X-440000Y490000D02*
X-424760Y495080D01*
X459577Y-29446D02*
X461028Y-29930D01*
X461996Y-30898D01*
X462479Y-32349D01*
Y-32832D01*
X461996Y-34283D01*
X461028Y-35251D01*
X459577Y-35735D01*
X459093D01*
X457642Y-35251D01*
X456675Y-34283D01*
X456191Y-32832D01*
Y-32349D01*
X456675Y-30898D01*
X457642Y-29930D01*
X459577Y-29446D01*
X461996D01*
X464414Y-29930D01*
X465865Y-30898D01*
X466349Y-32349D01*
Y-33316D01*
X465865Y-34767D01*
X464898Y-35251D01*
X456191Y-21852D02*
X462963Y-26689D01*
Y-19434D01*
X456191Y-21852D02*
X466349D01*
X465382Y-17160D02*
X465865Y-17644D01*
X466349Y-17160D01*
X465865Y-16677D01*
X465382Y-17160D01*
X456191Y-11549D02*
X456675Y-13000D01*
X458126Y-13968D01*
X460544Y-14452D01*
X461996D01*
X464414Y-13968D01*
X465865Y-13000D01*
X466349Y-11549D01*
Y-10582D01*
X465865Y-9131D01*
X464414Y-8163D01*
X461996Y-7680D01*
X460544D01*
X458126Y-8163D01*
X456675Y-9131D01*
X456191Y-10582D01*
Y-11549D01*
Y-2504D02*
X456675Y-3955D01*
X458126Y-4922D01*
X460544Y-5406D01*
X461996D01*
X464414Y-4922D01*
X465865Y-3955D01*
X466349Y-2504D01*
Y-1537D01*
X465865Y-86D01*
X464414Y882D01*
X461996Y1366D01*
X460544D01*
X458126Y882D01*
X456675Y-86D01*
X456191Y-1537D01*
Y-2504D01*
X459577Y3639D02*
X466349D01*
X461512D02*
X460061Y5090D01*
X459577Y6058D01*
Y7509D01*
X460061Y8476D01*
X461512Y8960D01*
X466349D01*
X461512D02*
X460061Y10411D01*
X459577Y11378D01*
Y12830D01*
X460061Y13797D01*
X461512Y14281D01*
X466349D01*
X459577Y17473D02*
X466349D01*
X461512D02*
X460061Y18924D01*
X459577Y19892D01*
Y21343D01*
X460061Y22310D01*
X461512Y22794D01*
X466349D01*
X461512D02*
X460061Y24245D01*
X459577Y25212D01*
Y26663D01*
X460061Y27631D01*
X461512Y28115D01*
X466349D01*
X-33316Y493809D02*
X-34767Y493325D01*
X-35251Y492358D01*
Y491390D01*
X-34767Y490423D01*
X-33800Y489939D01*
X-31865Y489456D01*
X-30414Y488972D01*
X-29446Y488004D01*
X-28963Y487037D01*
Y485586D01*
X-29446Y484618D01*
X-29930Y484135D01*
X-31381Y483651D01*
X-33316D01*
X-34767Y484135D01*
X-35251Y484618D01*
X-35735Y485586D01*
Y487037D01*
X-35251Y488004D01*
X-34283Y488972D01*
X-32832Y489456D01*
X-30898Y489939D01*
X-29930Y490423D01*
X-29446Y491390D01*
Y492358D01*
X-29930Y493325D01*
X-31381Y493809D01*
X-33316D01*
X-24271D02*
X-25722Y493325D01*
X-26206Y492358D01*
Y491390D01*
X-25722Y490423D01*
X-24755Y489939D01*
X-22820Y489456D01*
X-21369Y488972D01*
X-20401Y488004D01*
X-19917Y487037D01*
Y485586D01*
X-20401Y484618D01*
X-20885Y484135D01*
X-22336Y483651D01*
X-24271D01*
X-25722Y484135D01*
X-26206Y484618D01*
X-26689Y485586D01*
Y487037D01*
X-26206Y488004D01*
X-25238Y488972D01*
X-23787Y489456D01*
X-21852Y489939D01*
X-20885Y490423D01*
X-20401Y491390D01*
Y492358D01*
X-20885Y493325D01*
X-22336Y493809D01*
X-24271D01*
X-17160Y484618D02*
X-17644Y484135D01*
X-17160Y483651D01*
X-16677Y484135D01*
X-17160Y484618D01*
X-11549Y493809D02*
X-13000Y493325D01*
X-13968Y491874D01*
X-14452Y489456D01*
Y488004D01*
X-13968Y485586D01*
X-13000Y484135D01*
X-11549Y483651D01*
X-10582D01*
X-9131Y484135D01*
X-8163Y485586D01*
X-7680Y488004D01*
Y489456D01*
X-8163Y491874D01*
X-9131Y493325D01*
X-10582Y493809D01*
X-11549D01*
X-2504D02*
X-3955Y493325D01*
X-4922Y491874D01*
X-5406Y489456D01*
Y488004D01*
X-4922Y485586D01*
X-3955Y484135D01*
X-2504Y483651D01*
X-1537D01*
X-86Y484135D01*
X882Y485586D01*
X1366Y488004D01*
Y489456D01*
X882Y491874D01*
X-86Y493325D01*
X-1537Y493809D01*
X-2504D01*
X3639Y490423D02*
Y483651D01*
Y488488D02*
X5090Y489939D01*
X6058Y490423D01*
X7509D01*
X8476Y489939D01*
X8960Y488488D01*
Y483651D01*
Y488488D02*
X10411Y489939D01*
X11378Y490423D01*
X12830D01*
X13797Y489939D01*
X14281Y488488D01*
Y483651D01*
X17473Y490423D02*
Y483651D01*
Y488488D02*
X18924Y489939D01*
X19892Y490423D01*
X21343D01*
X22310Y489939D01*
X22794Y488488D01*
Y483651D01*
Y488488D02*
X24245Y489939D01*
X25212Y490423D01*
X26663D01*
X27631Y489939D01*
X28115Y488488D01*
Y483651D01*
D55*
X212500Y241500D02*
X211768Y243268D01*
X210000Y244000D01*
Y233500D02*
X211768Y234232D01*
X212500Y236000D01*
X192500D02*
X193232Y234232D01*
X195000Y233500D01*
Y244000D02*
X193232Y243268D01*
X192500Y241500D01*
X12500Y-155000D02*
X11250Y-152835D01*
X8750D01*
X7500Y-155000D01*
X6250Y-152835D01*
X3750D01*
X2500Y-155000D01*
X1250Y-152835D01*
X-1250D01*
X-2500Y-155000D01*
X318000Y58500D02*
X316828Y61328D01*
X314000Y62500D01*
X314000Y37500D02*
X316828Y38672D01*
X318000Y41500D01*
X294000Y41500D02*
X295172Y38672D01*
X298000Y37500D01*
X298000Y62500D02*
X295172Y61328D01*
X294000Y58500D01*
Y6500D02*
X295172Y3672D01*
X298000Y2500D01*
X298000Y27500D02*
X295172Y26328D01*
X294000Y23500D01*
X318000D02*
X316828Y26328D01*
X314000Y27500D01*
X314000Y2500D02*
X316828Y3672D01*
X318000Y6500D01*
X298000Y97500D02*
X295172Y96328D01*
X294000Y93500D01*
Y76500D02*
X295172Y73672D01*
X298000Y72500D01*
X314000Y72500D02*
X316828Y73672D01*
X318000Y76500D01*
Y93500D02*
X316828Y96328D01*
X314000Y97500D01*
X316452Y-221407D02*
X317270Y-218457D01*
X315762Y-215792D01*
X300371Y-235492D02*
X303321Y-236311D01*
X305985Y-234803D01*
X287073Y-220027D02*
X286255Y-222977D01*
X287762Y-225642D01*
X303154Y-205942D02*
X300204Y-205124D01*
X297539Y-206631D01*
X265525Y-247608D02*
X264707Y-250558D01*
X266214Y-253222D01*
X281606Y-233522D02*
X278656Y-232704D01*
X275991Y-234211D01*
X294903Y-248987D02*
X295722Y-246037D01*
X294214Y-243372D01*
X278823Y-263073D02*
X281773Y-263891D01*
X284437Y-262383D01*
X361052Y-139290D02*
X361239Y-136234D01*
X359210Y-133941D01*
X348251Y-156411D02*
X351307Y-156597D01*
X353600Y-154569D01*
X332029Y-144048D02*
X331842Y-147104D01*
X333870Y-149397D01*
X344829Y-126927D02*
X341774Y-126740D01*
X339481Y-128769D01*
X316686Y-175506D02*
X316499Y-178561D01*
X318527Y-180854D01*
X329486Y-158385D02*
X326431Y-158198D01*
X324138Y-160226D01*
X345709Y-170747D02*
X345896Y-167691D01*
X343867Y-165399D01*
X332908Y-187868D02*
X335964Y-188055D01*
X338257Y-186027D01*
X-136500Y182500D02*
X-134500Y184500D01*
Y192500D01*
X-136500Y182500D02*
X-134500Y180500D01*
Y172500D02*
Y180500D01*
X-146500Y172500D02*
Y180500D01*
X-144500Y182500D01*
X-146500Y184500D02*
Y192500D01*
Y184500D02*
X-144500Y182500D01*
X60500Y-268000D02*
X89500D01*
X60500Y-282000D02*
Y-268000D01*
X89500Y-282000D02*
Y-268000D01*
X60500Y-282000D02*
X89500D01*
X77000Y-278000D02*
Y-272000D01*
X73000Y-275000D02*
X77000Y-272000D01*
X73000Y-275000D02*
X77000Y-278000D01*
X73000D02*
Y-272000D01*
X207500Y105500D02*
X210500Y99500D01*
X204500D02*
X207500Y105500D01*
X204500Y99500D02*
X210500D01*
X204500Y105500D02*
X210500D01*
X217450Y215500D02*
X219450Y217500D01*
X217450Y207500D02*
Y215500D01*
Y219500D02*
X219450Y217500D01*
X217450Y219500D02*
Y227500D01*
X229450Y219500D02*
Y227500D01*
X227450Y217500D02*
X229450Y219500D01*
Y207500D02*
Y215500D01*
X227450Y217500D02*
X229450Y215500D01*
X202500Y233750D02*
Y243750D01*
X212500Y236000D02*
Y241500D01*
X195000Y233500D02*
X210000D01*
X195000Y244000D02*
X210000D01*
X192500Y236000D02*
Y241500D01*
X-162500Y-137500D02*
Y-134500D01*
X-168500D02*
X-156500D01*
X-162500Y-130500D02*
Y-127500D01*
X-168500Y-130500D02*
X-156500D01*
X45500Y-292500D02*
X49500Y-289500D01*
X45500Y-292500D02*
X49500Y-295500D01*
X45500Y-289500D02*
X45500Y-295500D01*
X49500Y-289500D02*
X49500Y-295500D01*
X33000Y-299500D02*
X62000D01*
X62000Y-285500D01*
X33000Y-299500D02*
Y-285500D01*
X62000D01*
X175050Y-75542D02*
X180707Y-81199D01*
X177879Y-78370D02*
X184950Y-76956D01*
X177879Y-78370D02*
X179293Y-71299D01*
X184950Y-76956D01*
X201213Y-101705D02*
X206870Y-107362D01*
X204042Y-104533D02*
X211113Y-103119D01*
X204042Y-104533D02*
X205456Y-97462D01*
X211113Y-103119D01*
X201920Y-106656D02*
X204042Y-104533D01*
X208284Y-100290D02*
X210407Y-98169D01*
X12500Y-155000D02*
X17000D01*
X17000Y-155000D01*
X-7000Y-155000D02*
X-2500D01*
X318000Y6500D02*
X318000Y23500D01*
X298000Y62500D02*
X314000D01*
X318000Y41500D02*
X318000Y58500D01*
X298000Y37500D02*
X314000D01*
X294000Y41500D02*
Y58500D01*
Y6500D02*
Y23500D01*
X298000Y27500D02*
X314000D01*
X298000Y2500D02*
X314000D01*
X246000Y37500D02*
X268000Y37500D01*
X268000Y62500D01*
X246000D02*
X268000D01*
X246000Y37500D02*
X246000Y39500D01*
X246000Y60500D02*
Y62500D01*
Y25500D02*
Y27500D01*
Y2500D02*
Y4500D01*
Y27500D02*
X268000D01*
Y2500D02*
Y27500D01*
X246000Y2500D02*
X268000D01*
X241000Y-6500D02*
X321000D01*
X241000D02*
Y106500D01*
X321000Y-6500D02*
Y106500D01*
X278000Y-6500D02*
Y106500D01*
X237000Y-6500D02*
X241000D01*
X237000D02*
X237000Y71500D01*
Y106500D01*
X239000Y-6500D02*
Y106500D01*
X240000Y-6500D02*
Y106500D01*
X238000Y105500D02*
X238000Y-6500D01*
X237000Y106500D02*
X241000D01*
X321000D01*
X246000Y95500D02*
Y97500D01*
Y72500D02*
X246000Y74500D01*
X246000Y97500D02*
X268000D01*
X268000Y72500D02*
X268000Y97500D01*
X246000Y72500D02*
X268000Y72500D01*
X294000Y76500D02*
Y93500D01*
X298000Y72500D02*
X314000D01*
X318000Y76500D02*
X318000Y93500D01*
X298000Y97500D02*
X314000D01*
X237000Y106500D02*
X238000Y105500D01*
X-108500Y-235000D02*
X-106500Y-237000D01*
Y-245000D02*
Y-237000D01*
X-108500Y-235000D02*
X-106500Y-233000D01*
Y-225000D01*
X-118500Y-233000D02*
Y-225000D01*
Y-233000D02*
X-116500Y-235000D01*
X-118500Y-245000D02*
Y-237000D01*
X-116500Y-235000D01*
X284437Y-262383D02*
X294904Y-248987D01*
X303154Y-205942D02*
X315762Y-215792D01*
X305985Y-234803D02*
X316452Y-221407D01*
X287763Y-225642D02*
X300371Y-235492D01*
X287073Y-220027D02*
X297539Y-206631D01*
X265525Y-247607D02*
X275991Y-234211D01*
X281606Y-233522D02*
X294214Y-243372D01*
X266214Y-253222D02*
X278822Y-263073D01*
X246786Y-193627D02*
X264122Y-207172D01*
X279514Y-187472D01*
X262178Y-173927D02*
X279514Y-187472D01*
X246786Y-193627D02*
X248017Y-192052D01*
X260946Y-175503D02*
X262178Y-173927D01*
X239398Y-203084D02*
X240629Y-201508D01*
X225238Y-221208D02*
X226469Y-219632D01*
X240629Y-201508D02*
X257966Y-215052D01*
X242574Y-234752D02*
X257966Y-215052D01*
X225238Y-221208D02*
X242574Y-234752D01*
X215757Y-225222D02*
X278798Y-274475D01*
X215757Y-225222D02*
X263778Y-163757D01*
X326819Y-213010D01*
X278798Y-274475D02*
X326819Y-213010D01*
X244913Y-248001D02*
X292935Y-186536D01*
X212605Y-222759D02*
X215757Y-225222D01*
X212605Y-222759D02*
X260626Y-161294D01*
X263778Y-163757D01*
X214181Y-223990D02*
X262202Y-162526D01*
X214969Y-224606D02*
X262990Y-163141D01*
X213393Y-223375D02*
X261414Y-161910D01*
X-69500Y302000D02*
Y313000D01*
X-60500Y302000D02*
Y313000D01*
X-50000Y315500D02*
X-48500Y317000D01*
X-44500D01*
X-51500D02*
X-50000Y315500D01*
X-55500Y317000D02*
X-51500D01*
X-55500Y308000D02*
X-51500D01*
X-50000Y309500D01*
X-48500Y308000D02*
X-44500D01*
X-50000Y309500D02*
X-48500Y308000D01*
X-34500Y-288000D02*
Y-284000D01*
X-30500Y-288000D02*
Y-284000D01*
X-38500Y-286000D02*
X-34500D01*
X-30500D02*
X-26500D01*
X-38500Y-296000D02*
Y-276000D01*
X-26500Y-296000D02*
Y-276000D01*
X62500Y105500D02*
X65500Y99500D01*
X59500D02*
X62500Y105500D01*
X59500Y99500D02*
X65500D01*
X59500Y105500D02*
X65500D01*
X72450Y89500D02*
X74450Y87500D01*
X72450Y89500D02*
Y97500D01*
Y85500D02*
X74450Y87500D01*
X72450Y77500D02*
Y85500D01*
X84450Y77500D02*
Y85500D01*
X82450Y87500D02*
X84450Y85500D01*
Y89500D02*
Y97500D01*
X82450Y87500D02*
X84450Y89500D01*
X82450Y117500D02*
X84450Y115500D01*
Y107500D02*
Y115500D01*
X82450Y117500D02*
X84450Y119500D01*
Y127500D01*
X72450Y119500D02*
Y127500D01*
Y119500D02*
X74450Y117500D01*
X72450Y107500D02*
Y115500D01*
X74450Y117500D01*
X77450Y189500D02*
X79450Y187500D01*
X77450Y189500D02*
Y197500D01*
Y185500D02*
X79450Y187500D01*
X77450Y177500D02*
Y185500D01*
X89450Y177500D02*
Y185500D01*
X87450Y187500D02*
X89450Y185500D01*
Y189500D02*
Y197500D01*
X87450Y187500D02*
X89450Y189500D01*
X87450Y211500D02*
X89450Y209500D01*
Y201500D02*
Y209500D01*
X87450Y211500D02*
X89450Y213500D01*
Y221500D01*
X77450Y213500D02*
Y221500D01*
Y213500D02*
X79450Y211500D01*
X77450Y201500D02*
Y209500D01*
X79450Y211500D01*
X227450Y187500D02*
X229450Y189500D01*
Y197500D01*
X227450Y187500D02*
X229450Y185500D01*
Y177500D02*
Y185500D01*
X217450Y177500D02*
Y185500D01*
X219450Y187500D01*
X217450Y189500D02*
Y197500D01*
Y189500D02*
X219450Y187500D01*
X207500Y205500D02*
X210500Y199500D01*
X204500D02*
X207500Y205500D01*
X204500Y199500D02*
X210500D01*
X204500Y205500D02*
X210500D01*
X225250Y87500D02*
X227250Y89500D01*
Y97500D01*
X225250Y87500D02*
X227250Y85500D01*
Y77500D02*
Y85500D01*
X215250Y77500D02*
Y85500D01*
X217250Y87500D01*
X215250Y89500D02*
Y97500D01*
Y89500D02*
X217250Y87500D01*
X214950Y115500D02*
X216950Y117500D01*
X214950Y107500D02*
Y115500D01*
Y119500D02*
X216950Y117500D01*
X214950Y119500D02*
Y127500D01*
X226950Y119500D02*
Y127500D01*
X224950Y117500D02*
X226950Y119500D01*
Y107500D02*
Y115500D01*
X224950Y117500D02*
X226950Y115500D01*
X147450Y115500D02*
X149450Y117500D01*
X147450Y107500D02*
Y115500D01*
Y119500D02*
X149450Y117500D01*
X147450Y119500D02*
Y127500D01*
X159450Y119500D02*
Y127500D01*
X157450Y117500D02*
X159450Y119500D01*
Y107500D02*
Y115500D01*
X157450Y117500D02*
X159450Y115500D01*
X157450Y87500D02*
X159450Y89500D01*
Y97500D01*
X157450Y87500D02*
X159450Y85500D01*
Y77500D02*
Y85500D01*
X147450Y77500D02*
Y85500D01*
X149450Y87500D01*
X147450Y89500D02*
Y97500D01*
Y89500D02*
X149450Y87500D01*
X137500Y105500D02*
X140500Y99500D01*
X134500D02*
X137500Y105500D01*
X134500Y99500D02*
X140500D01*
X134500Y105500D02*
X140500D01*
X137500Y205500D02*
X140500Y199500D01*
X134500D02*
X137500Y205500D01*
X134500Y199500D02*
X140500D01*
X134500Y205500D02*
X140500D01*
X157450Y187500D02*
X159450Y189500D01*
Y197500D01*
X157450Y187500D02*
X159450Y185500D01*
Y177500D02*
Y185500D01*
X147450Y177500D02*
Y185500D01*
X149450Y187500D01*
X147450Y189500D02*
Y197500D01*
Y189500D02*
X149450Y187500D01*
X147450Y215500D02*
X149450Y217500D01*
X147450Y207500D02*
Y215500D01*
Y219500D02*
X149450Y217500D01*
X147450Y219500D02*
Y227500D01*
X159450Y219500D02*
Y227500D01*
X157450Y217500D02*
X159450Y219500D01*
Y207500D02*
Y215500D01*
X157450Y217500D02*
X159450Y215500D01*
X-90500Y-237000D02*
Y-233000D01*
X-94500Y-237000D02*
Y-233000D01*
X-90500Y-235000D02*
X-86500D01*
X-98500D02*
X-94500D01*
X-86500Y-245000D02*
Y-225000D01*
X-98500Y-245000D02*
Y-225000D01*
X-131000Y-233000D02*
X-129000Y-235000D01*
X-131000Y-233000D02*
Y-225000D01*
Y-237000D02*
X-129000Y-235000D01*
X-131000Y-245000D02*
Y-237000D01*
X-119000Y-245000D02*
Y-237000D01*
X-121000Y-235000D02*
X-119000Y-237000D01*
Y-233000D02*
Y-225000D01*
X-121000Y-235000D02*
X-119000Y-233000D01*
X-162500Y-185500D02*
Y-182500D01*
X-168500Y-185500D02*
X-156500D01*
X-162500Y-192500D02*
Y-189500D01*
X-168500D02*
X-156500D01*
X-280000Y-137500D02*
Y-134500D01*
X-286000D02*
X-274000D01*
X-280000Y-130500D02*
Y-127500D01*
X-286000Y-130500D02*
X-274000D01*
X-208000Y-237000D02*
Y-233000D01*
X-212000Y-237000D02*
Y-233000D01*
X-208000Y-235000D02*
X-204000D01*
X-216000D02*
X-212000D01*
X-204000Y-245000D02*
Y-225000D01*
X-216000Y-245000D02*
Y-225000D01*
X-226000Y-235000D02*
X-224000Y-237000D01*
Y-245000D02*
Y-237000D01*
X-226000Y-235000D02*
X-224000Y-233000D01*
Y-225000D01*
X-236000Y-233000D02*
Y-225000D01*
Y-233000D02*
X-234000Y-235000D01*
X-236000Y-245000D02*
Y-237000D01*
X-234000Y-235000D01*
X-50000Y219500D02*
X-48500Y218000D01*
X-44500D01*
X-51500D02*
X-50000Y219500D01*
X-55500Y218000D02*
X-51500D01*
X-55500Y227000D02*
X-51500D01*
X-50000Y225500D01*
X-48500Y227000D02*
X-44500D01*
X-50000Y225500D02*
X-48500Y227000D01*
X141750Y312500D02*
Y315500D01*
X135750D02*
X147750D01*
X141750Y319500D02*
Y322500D01*
X135750Y319500D02*
X147750D01*
X102000D02*
X114000D01*
X108000D02*
Y322500D01*
X102000Y315500D02*
X114000D01*
X108000Y312500D02*
Y315500D01*
X46000Y-254000D02*
X66000D01*
X46000Y-266000D02*
X66000D01*
X56000Y-258000D02*
X56000Y-254000D01*
X56000Y-266000D02*
X56000Y-262000D01*
X54000Y-258000D02*
X58000Y-258000D01*
X54000Y-262000D02*
X58000Y-262000D01*
X-50000Y215500D02*
X-48500Y217000D01*
X-44500D01*
X-51500D02*
X-50000Y215500D01*
X-55500Y217000D02*
X-51500D01*
X-55500Y208000D02*
X-51500D01*
X-50000Y209500D01*
X-48500Y208000D02*
X-44500D01*
X-50000Y209500D02*
X-48500Y208000D01*
X-60500Y212000D02*
Y223000D01*
X-69500Y212000D02*
Y223000D01*
X67500Y205500D02*
X70500Y199500D01*
X64500D02*
X67500Y205500D01*
X64500Y199500D02*
X70500D01*
X64500Y205500D02*
X70500D01*
X-280000Y-185500D02*
Y-182500D01*
X-286000Y-185500D02*
X-274000D01*
X-280000Y-192500D02*
Y-189500D01*
X-286000D02*
X-274000D01*
X-248500Y-233000D02*
X-246500Y-235000D01*
X-248500Y-233000D02*
Y-225000D01*
Y-237000D02*
X-246500Y-235000D01*
X-248500Y-245000D02*
Y-237000D01*
X-236500Y-245000D02*
Y-237000D01*
X-238500Y-235000D02*
X-236500Y-237000D01*
Y-233000D02*
Y-225000D01*
X-238500Y-235000D02*
X-236500Y-233000D01*
X338257Y-186027D02*
X345709Y-170747D01*
X344829Y-126927D02*
X359210Y-133941D01*
X353600Y-154569D02*
X361052Y-139289D01*
X333870Y-149397D02*
X348251Y-156411D01*
X332029Y-144048D02*
X339481Y-128768D01*
X316686Y-175506D02*
X324138Y-160226D01*
X329486Y-158385D02*
X343867Y-165399D01*
X318527Y-180854D02*
X332908Y-187868D01*
X287133Y-126601D02*
X306906Y-136245D01*
X317866Y-113776D01*
X298092Y-104132D02*
X317866Y-113776D01*
X287133Y-126601D02*
X288010Y-124804D01*
X297215Y-105929D02*
X298092Y-104132D01*
X281872Y-137387D02*
X282749Y-135589D01*
X271790Y-158059D02*
X272667Y-156262D01*
X282749Y-135589D02*
X302523Y-145233D01*
X291563Y-167703D02*
X302523Y-145233D01*
X271790Y-158059D02*
X291563Y-167703D01*
X263351Y-163957D02*
X335254Y-199026D01*
X263351Y-163957D02*
X297543Y-93850D01*
X369447Y-128920D01*
X335254Y-199026D02*
X369447Y-128920D01*
X296606Y-180176D02*
X330799Y-110070D01*
X259755Y-162203D02*
X263351Y-163957D01*
X259755Y-162203D02*
X293948Y-92097D01*
X297543Y-93850D01*
X261553Y-163080D02*
X295746Y-92974D01*
X262452Y-163518D02*
X296645Y-93412D01*
X260654Y-162641D02*
X294847Y-92535D01*
X-160752Y323750D02*
X-160751Y329750D01*
X-157752Y323750D02*
X-157751Y329750D01*
X-173251Y320250D02*
X-145251D01*
Y333250D01*
X-173251Y320250D02*
Y333250D01*
X-145251D01*
X-157751Y326750D02*
X-156751D01*
X-161751D02*
X-160751D01*
X-160752Y278750D02*
X-160751Y284750D01*
X-157752Y278750D02*
X-157751Y284750D01*
X-173251Y275250D02*
X-145251D01*
Y288250D01*
X-173251Y275250D02*
Y288250D01*
X-145251D01*
X-157751Y281750D02*
X-156751D01*
X-161751D02*
X-160751D01*
X-160752Y233750D02*
X-160751Y239750D01*
X-157752Y233750D02*
X-157751Y239750D01*
X-173251Y230250D02*
X-145251D01*
Y243250D01*
X-173251Y230250D02*
Y243250D01*
X-145251D01*
X-157751Y236750D02*
X-156751D01*
X-161751D02*
X-160751D01*
X-50000Y305500D02*
X-48500Y307000D01*
X-44500D01*
X-51500D02*
X-50000Y305500D01*
X-55500Y307000D02*
X-51500D01*
X-55500Y298000D02*
X-51500D01*
X-50000Y299500D01*
X-48500Y298000D02*
X-44500D01*
X-50000Y299500D02*
X-48500Y298000D01*
X-69500Y257000D02*
Y268000D01*
X-60500Y257000D02*
Y268000D01*
X-50000Y270500D02*
X-48500Y272000D01*
X-44500D01*
X-51500D02*
X-50000Y270500D01*
X-55500Y272000D02*
X-51500D01*
X-55500Y263000D02*
X-51500D01*
X-50000Y264500D01*
X-48500Y263000D02*
X-44500D01*
X-50000Y264500D02*
X-48500Y263000D01*
X-50000Y260500D02*
X-48500Y262000D01*
X-44500D01*
X-51500D02*
X-50000Y260500D01*
X-55500Y262000D02*
X-51500D01*
X-55500Y253000D02*
X-51500D01*
X-50000Y254500D01*
X-48500Y253000D02*
X-44500D01*
X-50000Y254500D02*
X-48500Y253000D01*
X-216999Y123001D02*
X-213998Y123000D01*
X-226000D02*
X-222999Y123001D01*
X-220999Y141001D02*
Y149001D01*
Y145001D02*
X-214999Y141001D01*
X-220999Y145001D02*
X-214999Y149001D01*
Y141001D02*
Y149001D01*
X-216999Y119001D02*
Y127001D01*
X-222999Y123001D02*
X-216999Y127001D01*
X-222999Y123001D02*
X-216999Y119001D01*
X-222999D02*
Y127001D01*
X-246000Y188000D02*
X-234000D01*
X-240000Y185000D02*
Y188000D01*
X-246000Y192000D02*
X-234000D01*
X-240000D02*
Y195000D01*
X-283750Y102350D02*
X-263750D01*
X-283750Y90350D02*
X-263750D01*
X-273750Y98350D02*
Y102350D01*
Y90350D02*
Y94350D01*
X-275750Y98350D02*
X-271750D01*
X-275750Y94350D02*
X-271750D01*
X-275750Y81650D02*
X-271750D01*
X-275750Y85650D02*
X-271750D01*
X-273750Y77650D02*
Y81650D01*
Y85650D02*
Y89650D01*
X-283750Y77650D02*
X-263750D01*
X-283750Y89650D02*
X-263750D01*
X-275750Y72950D02*
X-271750D01*
X-275750Y68950D02*
X-271750D01*
X-273750Y72950D02*
Y76950D01*
Y64950D02*
Y68950D01*
X-283750Y76950D02*
X-263750D01*
X-283750Y64950D02*
X-263750D01*
X-97500Y134500D02*
X-77500D01*
X-97500Y146500D02*
X-77500D01*
X-87500Y134500D02*
Y138500D01*
Y142500D02*
Y146500D01*
X-89500Y138500D02*
X-85500D01*
X-89500Y142500D02*
X-85500D01*
X-89500Y115000D02*
X-88000Y116500D01*
Y120500D01*
X-89500Y115000D02*
X-88000Y113500D01*
Y109500D02*
Y113500D01*
X-97000Y109500D02*
Y113500D01*
X-95500Y115000D01*
X-97000Y116500D02*
Y120500D01*
Y116500D02*
X-95500Y115000D01*
X-63500Y132500D02*
X-61000Y130000D01*
Y118500D02*
Y130000D01*
X-63500Y132500D02*
X-61000Y135000D01*
Y146500D01*
X-74000Y135000D02*
Y146500D01*
Y135000D02*
X-71500Y132500D01*
X-74000Y118500D02*
Y130000D01*
X-71500Y132500D01*
X-74000Y146500D02*
X-61000D01*
X-74000Y118500D02*
X-61000D01*
X-87000Y109500D02*
Y120500D01*
X-78000Y109500D02*
Y120500D01*
X94017Y-260266D02*
X105732Y-265518D01*
X100480Y-253803D02*
X105732Y-265518D01*
X109650Y-248673D02*
X108438Y-248269D01*
X106823D01*
X105611Y-248673D01*
X103995Y-250288D01*
X103591Y-251500D01*
Y-253116D01*
X103995Y-254328D01*
X104803Y-255944D01*
X106823Y-257964D01*
X108438Y-258772D01*
X109650Y-259176D01*
X111266Y-259176D01*
X112478Y-258772D01*
X114094Y-257156D01*
X114498Y-255944D01*
Y-254328D01*
X114094Y-253116D01*
X114862Y-245077D02*
X114458Y-246289D01*
Y-247905D01*
X115266Y-249521D01*
X116074Y-250329D01*
X117689Y-251137D01*
X119305D01*
X120517Y-250733D01*
X121729Y-249521D01*
X122133Y-248309D01*
X122133Y-246693D01*
X121325Y-245077D01*
X120517Y-244269D01*
X118901Y-243461D01*
X117285Y-243461D01*
X116074Y-243865D01*
X114862Y-245077D01*
X119952Y-239987D02*
X123991Y-244027D01*
X125607Y-244835D01*
X126819Y-244431D01*
X128031Y-243219D01*
X128435Y-242007D01*
Y-239583D01*
X124395Y-235543D02*
X130051Y-241199D01*
X125001Y-229282D02*
X131869Y-236149D01*
X133485Y-236957D01*
X134697Y-236553D01*
X135505Y-235745D01*
X126617Y-233321D02*
X129445Y-230494D01*
X146517Y-247766D02*
X158232Y-253018D01*
X152980Y-241303D02*
X158232Y-253018D01*
X162150Y-236173D02*
X160938Y-235769D01*
X159323D01*
X158111Y-236173D01*
X156495Y-237788D01*
X156091Y-239000D01*
Y-240616D01*
X156495Y-241828D01*
X157303Y-243444D01*
X159323Y-245464D01*
X160938Y-246272D01*
X162150Y-246676D01*
X163766Y-246676D01*
X164978Y-246272D01*
X166594Y-244656D01*
X166998Y-243444D01*
Y-241828D01*
X166594Y-240616D01*
X163322Y-230961D02*
X164130Y-230961D01*
X164130Y-230153D01*
X163322D01*
Y-230961D01*
X166554Y-233385D02*
X172209Y-239041D01*
X168452Y-231486D02*
X174108Y-237142D01*
X170068Y-233102D02*
Y-230678D01*
X170472Y-229466D01*
X171684Y-228255D01*
X172896Y-227851D01*
X174512Y-228659D01*
X178552Y-232698D01*
X170999Y-144610D02*
X165000Y-155000D01*
X170999Y-144610D02*
X177431Y-148323D01*
X168142Y-149558D02*
X172100Y-151843D01*
X177475Y-150988D02*
X178751Y-151065D01*
X181092Y-150437D01*
X175093Y-160827D01*
X189206Y-155122D02*
X187436Y-154760D01*
X185590Y-155673D01*
X183667Y-157861D01*
X182810Y-159345D01*
X181876Y-162105D01*
X182009Y-164160D01*
X183207Y-165512D01*
X184197Y-166083D01*
X185967Y-166446D01*
X187813Y-165533D01*
X189736Y-163344D01*
X190593Y-161860D01*
X191527Y-159101D01*
X191394Y-157045D01*
X190196Y-155693D01*
X189206Y-155122D01*
X194347Y-160729D02*
X195622Y-160805D01*
X197964Y-160178D01*
X191965Y-170568D01*
X126517Y-61516D02*
X135000Y-70000D01*
X126517Y-61516D02*
X129344Y-58689D01*
X130960Y-57881D01*
X132576D01*
X133788Y-58285D01*
X135404Y-59093D01*
X137424Y-61113D01*
X138232Y-62729D01*
X138636Y-63940D01*
X138636Y-65556D01*
X137828Y-67172D01*
X135000Y-70000D01*
X135687Y-55578D02*
X136091Y-54366D01*
Y-51942D01*
X144574Y-60426D01*
X142716Y-45317D02*
X141908Y-46933D01*
X142312Y-48953D01*
X143928Y-51377D01*
X145140Y-52589D01*
X147564Y-54205D01*
X149584Y-54609D01*
X151199Y-53801D01*
X152007Y-52993D01*
X152815Y-51377D01*
X152411Y-49357D01*
X150795Y-46933D01*
X149584Y-45721D01*
X147160Y-44105D01*
X145140Y-43701D01*
X143524Y-44509D01*
X142716Y-45317D01*
X150270Y-41803D02*
X149866Y-41399D01*
X149462Y-40187D01*
Y-39379D01*
X149866Y-38167D01*
X151482Y-36551D01*
X152694Y-36147D01*
X153502D01*
X154714Y-36551D01*
X155522Y-37359D01*
X155926Y-38571D01*
X156330Y-40591D01*
Y-48670D01*
X161985Y-43014D01*
X40000Y-136753D02*
X44570Y-148750D01*
X49141Y-136753D02*
X44570Y-148750D01*
X50683Y-143037D02*
X55825D01*
X57539Y-142466D01*
X58110Y-141894D01*
X58682Y-140752D01*
Y-139038D01*
X58110Y-137895D01*
X57539Y-137324D01*
X55825Y-136753D01*
X50683D01*
Y-148750D01*
X61367Y-143037D02*
X66509D01*
X68222Y-142466D01*
X68794Y-141894D01*
X69365Y-140752D01*
Y-139038D01*
X68794Y-137895D01*
X68222Y-137324D01*
X66509Y-136753D01*
X61367D01*
Y-148750D01*
X172930Y-199180D02*
X182693Y-203557D01*
X178317Y-193794D02*
X182693Y-203557D01*
X182592Y-189519D02*
X183939Y-197598D01*
X188988Y-192549D01*
X182592Y-189519D02*
X189662Y-196588D01*
X187204Y-184907D02*
X186531Y-186253D01*
X186868Y-187263D01*
X187541Y-187936D01*
X188551Y-188273D01*
X189561Y-187936D01*
X191244Y-186927D01*
X192591Y-186253D01*
X193937D01*
X194947Y-186590D01*
X195957Y-187600D01*
X196294Y-188610D01*
Y-189283D01*
X195620Y-190630D01*
X194274Y-191976D01*
X192927Y-192649D01*
X192254D01*
X191244Y-192313D01*
X190234Y-191303D01*
X189897Y-190293D01*
Y-188946D01*
X190571Y-187600D01*
X191581Y-185917D01*
X191917Y-184907D01*
X191581Y-183897D01*
X190907Y-183223D01*
X189897Y-182887D01*
X188551Y-183560D01*
X187204Y-184907D01*
X192489Y-179621D02*
X193163D01*
Y-178948D01*
X192489Y-178948D01*
Y-179621D01*
X195183Y-181641D02*
X199896Y-186354D01*
X196765Y-180059D02*
X201478Y-184772D01*
X198111Y-181406D02*
X198111Y-179386D01*
X198448Y-178376D01*
X199458Y-177366D01*
X200468Y-177029D01*
X201815Y-177703D01*
X205181Y-181069D01*
X-7500Y220682D02*
Y212112D01*
X-6929Y210398D01*
X-5786Y209256D01*
X-4072Y208684D01*
X-2930D01*
X-1216Y209256D01*
X-73Y210398D01*
X498Y212112D01*
Y220682D01*
X9525D02*
X3812Y212684D01*
X12381D01*
X9525Y220682D02*
Y208684D01*
X17923Y220682D02*
X16209Y220110D01*
X15066Y218397D01*
X14495Y215540D01*
Y213826D01*
X15066Y210970D01*
X16209Y209256D01*
X17923Y208684D01*
X19066D01*
X20780Y209256D01*
X21922Y210970D01*
X22494Y213826D01*
Y215540D01*
X21922Y218397D01*
X20780Y220110D01*
X19066Y220682D01*
X17923D01*
X25179Y218397D02*
X26321Y218968D01*
X28035Y220682D01*
Y208684D01*
X281071Y-213020D02*
X280234Y-212866D01*
X279167Y-213016D01*
X278404Y-213395D01*
X277488Y-214611D01*
X277333Y-215449D01*
X277483Y-216516D01*
X277862Y-217278D01*
X278546Y-218270D01*
X280067Y-219416D01*
X281208Y-219800D01*
X282046Y-219954D01*
X283113Y-219804D01*
X283875Y-219425D01*
X284792Y-218208D01*
X284946Y-217371D01*
X284797Y-216304D01*
X284417Y-215541D01*
X283505Y-214854D01*
X282359Y-216374D02*
X283505Y-214854D01*
X280651Y-210414D02*
X287038Y-215227D01*
X280651Y-210414D02*
X290247Y-210969D01*
X283860Y-206155D02*
X290247Y-210969D01*
X285189Y-204391D02*
X291577Y-209205D01*
X285189Y-204391D02*
X286794Y-202262D01*
X287785Y-201579D01*
X288852Y-201429D01*
X289690Y-201583D01*
X290832Y-201966D01*
X292353Y-203112D01*
X293036Y-204104D01*
X293415Y-204867D01*
X293565Y-205934D01*
X293181Y-207075D01*
X291577Y-209205D01*
X274664Y-108393D02*
X273812Y-108387D01*
X272788Y-108720D01*
X272103Y-109225D01*
X271411Y-110583D01*
X271404Y-111434D01*
X271737Y-112459D01*
X272243Y-113144D01*
X273088Y-114002D01*
X274785Y-114867D01*
X275976Y-115046D01*
X276828Y-115053D01*
X277852Y-114720D01*
X278538Y-114214D01*
X279229Y-112856D01*
X279236Y-112005D01*
X278903Y-110980D01*
X278397Y-110295D01*
X277379Y-109776D01*
X276514Y-111473D02*
X277379Y-109776D01*
X273797Y-105899D02*
X280924Y-109531D01*
X273797Y-105899D02*
X283344Y-104780D01*
X276218Y-101149D02*
X283344Y-104780D01*
X277221Y-99180D02*
X284347Y-102811D01*
X277221Y-99180D02*
X278431Y-96805D01*
X279289Y-95960D01*
X280314Y-95627D01*
X281165Y-95633D01*
X282356Y-95813D01*
X284053Y-96677D01*
X284898Y-97535D01*
X285404Y-98220D01*
X285737Y-99245D01*
X285558Y-100436D01*
X284347Y-102811D01*
X271071Y-203020D02*
X270234Y-202866D01*
X269167Y-203016D01*
X268404Y-203395D01*
X267488Y-204611D01*
X267333Y-205449D01*
X267483Y-206516D01*
X267862Y-207278D01*
X268546Y-208270D01*
X270067Y-209416D01*
X271208Y-209800D01*
X272046Y-209954D01*
X273113Y-209804D01*
X273875Y-209425D01*
X274792Y-208208D01*
X274946Y-207371D01*
X274797Y-206304D01*
X274417Y-205541D01*
X273505Y-204854D01*
X272359Y-206374D02*
X273505Y-204854D01*
X270651Y-200414D02*
X277038Y-205227D01*
X270651Y-200414D02*
X280247Y-200969D01*
X273860Y-196155D02*
X280247Y-200969D01*
X275189Y-194391D02*
X281577Y-199205D01*
X275189Y-194391D02*
X276794Y-192262D01*
X277785Y-191579D01*
X278852Y-191429D01*
X279690Y-191583D01*
X280832Y-191966D01*
X282353Y-193112D01*
X283036Y-194104D01*
X283415Y-194867D01*
X283565Y-195934D01*
X283181Y-197075D01*
X281577Y-199205D01*
X257154Y-238395D02*
X259121Y-244646D01*
X262559Y-240083D01*
X257154Y-238395D02*
X263542Y-243208D01*
X260295Y-234228D02*
X259911Y-235369D01*
X260290Y-236132D01*
X260899Y-236590D01*
X261736Y-236744D01*
X262499Y-236365D01*
X263720Y-235378D01*
X264712Y-234695D01*
X265779Y-234545D01*
X266616Y-234699D01*
X267529Y-235387D01*
X267908Y-236149D01*
X267983Y-236683D01*
X267599Y-237824D01*
X266682Y-239041D01*
X265691Y-239724D01*
X265157Y-239799D01*
X264320Y-239645D01*
X263407Y-238957D01*
X263028Y-238195D01*
X262878Y-237128D01*
X263262Y-235986D01*
X263874Y-234540D01*
X264028Y-233703D01*
X263649Y-232940D01*
X263041Y-232482D01*
X262203Y-232327D01*
X261211Y-233011D01*
X260295Y-234228D01*
X263435Y-230060D02*
X271656Y-232440D01*
X267102Y-225193D02*
X271656Y-232440D01*
X253111Y-150668D02*
X256334Y-156373D01*
X258748Y-151195D01*
X253111Y-150668D02*
X260360Y-154048D01*
X255316Y-145939D02*
X255178Y-147135D01*
X255708Y-147802D01*
X256398Y-148124D01*
X257249Y-148101D01*
X257917Y-147572D01*
X258906Y-146352D01*
X259734Y-145477D01*
X260746Y-145109D01*
X261597Y-145086D01*
X262633Y-145569D01*
X263162Y-146236D01*
X263346Y-146742D01*
X263209Y-147938D01*
X262565Y-149319D01*
X261737Y-150194D01*
X261231Y-150378D01*
X260379Y-150401D01*
X259344Y-149918D01*
X258814Y-149251D01*
X258446Y-148239D01*
X258584Y-147042D01*
X258882Y-145501D01*
X258859Y-144649D01*
X258330Y-143982D01*
X257639Y-143660D01*
X256788Y-143684D01*
X255960Y-144558D01*
X255316Y-145939D01*
X257521Y-141210D02*
X266058Y-141828D01*
X260096Y-135687D02*
X266058Y-141828D01*
X213404Y-200895D02*
X215371Y-207146D01*
X218809Y-202583D01*
X213404Y-200895D02*
X219792Y-205708D01*
X216545Y-196728D02*
X216161Y-197869D01*
X216540Y-198632D01*
X217149Y-199090D01*
X217986Y-199244D01*
X218749Y-198865D01*
X219970Y-197878D01*
X220962Y-197195D01*
X222029Y-197045D01*
X222866Y-197199D01*
X223779Y-197887D01*
X224158Y-198649D01*
X224233Y-199183D01*
X223849Y-200324D01*
X222932Y-201541D01*
X221941Y-202224D01*
X221407Y-202299D01*
X220570Y-202145D01*
X219657Y-201457D01*
X219278Y-200695D01*
X219128Y-199628D01*
X219512Y-198486D01*
X220124Y-197040D01*
X220278Y-196203D01*
X219899Y-195440D01*
X219291Y-194982D01*
X218453Y-194827D01*
X217461Y-195511D01*
X216545Y-196728D01*
X219685Y-192560D02*
X227906Y-194940D01*
X223352Y-187693D02*
X227906Y-194940D01*
X309361Y-166918D02*
X312584Y-172623D01*
X314998Y-167446D01*
X309361Y-166918D02*
X316610Y-170298D01*
X311566Y-162189D02*
X311428Y-163385D01*
X311958Y-164053D01*
X312648Y-164374D01*
X313499Y-164351D01*
X314167Y-163822D01*
X315156Y-162602D01*
X315984Y-161727D01*
X316996Y-161359D01*
X317847Y-161336D01*
X318883Y-161819D01*
X319412Y-162486D01*
X319596Y-162992D01*
X319459Y-164188D01*
X318815Y-165569D01*
X317987Y-166444D01*
X317481Y-166628D01*
X316629Y-166651D01*
X315594Y-166168D01*
X315064Y-165501D01*
X314696Y-164489D01*
X314834Y-163292D01*
X315132Y-161751D01*
X315109Y-160899D01*
X314580Y-160232D01*
X313889Y-159910D01*
X313038Y-159934D01*
X312210Y-160808D01*
X311566Y-162189D01*
X313771Y-157460D02*
X322308Y-158079D01*
X316346Y-151937D02*
X322308Y-158079D01*
X324664Y-135893D02*
X323812Y-135887D01*
X322788Y-136220D01*
X322103Y-136725D01*
X321411Y-138083D01*
X321404Y-138934D01*
X321737Y-139959D01*
X322243Y-140644D01*
X323088Y-141502D01*
X324785Y-142367D01*
X325976Y-142546D01*
X326828Y-142552D01*
X327852Y-142220D01*
X328537Y-141714D01*
X329229Y-140356D01*
X329236Y-139505D01*
X328903Y-138480D01*
X328397Y-137795D01*
X327379Y-137276D01*
X326514Y-138973D02*
X327379Y-137276D01*
X323797Y-133399D02*
X330924Y-137031D01*
X323797Y-133399D02*
X333344Y-132280D01*
X326218Y-128649D02*
X333344Y-132280D01*
X327221Y-126680D02*
X334347Y-130311D01*
X327221Y-126680D02*
X328431Y-124305D01*
X329289Y-123460D01*
X330314Y-123127D01*
X331165Y-123133D01*
X332356Y-123313D01*
X334053Y-124177D01*
X334898Y-125035D01*
X335404Y-125720D01*
X335737Y-126745D01*
X335558Y-127936D01*
X334347Y-130311D01*
X-1320000Y-1010000D02*
Y1030000D01*
X1590000D01*
Y-1010000D02*
Y1030000D01*
X-1320000Y-1010000D02*
X1590000D01*
X-1350000Y-1040000D02*
X1620000D01*
X-1350000Y1060000D02*
X1620000D01*
X-1350000Y-1040000D02*
Y1060000D01*
Y530000D02*
X-1320000D01*
X-1350000Y530000D02*
X-1320000D01*
X-1350000Y790000D02*
X-1320000D01*
X-1350000D02*
X-1320000D01*
X5000Y-1040000D02*
Y-1010000D01*
X5000Y-1040000D02*
Y-1010000D01*
X-775000Y1030000D02*
Y1060000D01*
X-515000Y1030000D02*
Y1060000D01*
X-775000Y1030000D02*
Y1060000D01*
X-1035000Y1030000D02*
Y1060000D01*
X-1035000Y1030000D02*
Y1060000D01*
X5000Y1030000D02*
Y1060000D01*
X5000Y1030000D02*
Y1060000D01*
X-255000Y1030000D02*
Y1060000D01*
Y1030000D02*
Y1060000D01*
X-515000Y1030000D02*
Y1060000D01*
X1620000Y-1040000D02*
Y1060000D01*
X1590000Y790000D02*
X1620000D01*
X1590000D02*
X1620000D01*
X1590000Y530000D02*
X1620000D01*
X1590000Y530000D02*
X1620000D01*
X1590000Y270000D02*
X1620000D01*
X1590000D02*
X1620000D01*
X1590000Y10000D02*
X1620000D01*
X1590000D02*
X1620000D01*
X1590000Y-250000D02*
X1620000D01*
X1590000D02*
X1620000D01*
X1590000Y-510000D02*
X1620000D01*
X1590000Y-510000D02*
X1620000D01*
X1590000Y-770000D02*
X1620000D01*
X1590000D02*
X1620000D01*
X265000Y-1040000D02*
Y-1010000D01*
Y-1040000D02*
Y-1010000D01*
X525000Y-1040000D02*
Y-1010000D01*
Y-1040000D02*
Y-1010000D01*
X785000Y-1040000D02*
Y-1010000D01*
Y-1040000D02*
Y-1010000D01*
X1045000Y-1040000D02*
Y-1010000D01*
X1045000Y-1040000D02*
Y-1010000D01*
X1305000Y-1040000D02*
Y-1010000D01*
Y-1040000D02*
Y-1010000D01*
Y1030000D02*
Y1060000D01*
Y1030000D02*
Y1060000D01*
X1045000Y1030000D02*
Y1060000D01*
X1045000Y1030000D02*
Y1060000D01*
X785000Y1030000D02*
Y1060000D01*
Y1030000D02*
Y1060000D01*
X525000Y1030000D02*
Y1060000D01*
Y1030000D02*
Y1060000D01*
X265000Y1030000D02*
Y1060000D01*
Y1030000D02*
Y1060000D01*
X1240000Y-900000D02*
X1580000D01*
X1240000Y-920000D02*
X1580000D01*
X1240000Y-940000D02*
X1580000D01*
X1240000Y-960000D02*
X1580000D01*
X1240000Y-980000D02*
X1580000D01*
X1240000Y-1000000D02*
X1580000D01*
X1390000Y-980000D02*
Y-880000D01*
X1580000Y-1000000D02*
Y-880000D01*
X1240000D02*
X1580000D01*
X1240000Y-1000000D02*
Y-880000D01*
X-1350000Y-770000D02*
X-1320000D01*
X-1350000D02*
X-1320000D01*
X-1350000Y-510000D02*
X-1320000D01*
X-1350000Y-510000D02*
X-1320000D01*
X-1350000Y-250000D02*
X-1320000D01*
X-1350000D02*
X-1320000D01*
X-1350000Y10000D02*
X-1320000D01*
X-1350000D02*
X-1320000D01*
X-1350000Y270000D02*
X-1320000D01*
X-1350000D02*
X-1320000D01*
X-515000Y-1040000D02*
Y-1010000D01*
X-255000Y-1040000D02*
Y-1010000D01*
Y-1040000D02*
Y-1010000D01*
X-1035000Y-1040000D02*
Y-1010000D01*
X-1035000Y-1040000D02*
Y-1010000D01*
X-775000Y-1040000D02*
Y-1010000D01*
X-515000Y-1040000D02*
Y-1010000D01*
X-775000Y-1040000D02*
Y-1010000D01*
X895000Y-900000D02*
X1235000D01*
X895000Y-920000D02*
X1235000D01*
X895000Y-940000D02*
X1235000D01*
X895000Y-960000D02*
X1235000D01*
X895000Y-980000D02*
X1235000D01*
X895000Y-1000000D02*
X1235000D01*
X1045000D02*
Y-880000D01*
X1235000Y-1000000D02*
Y-880000D01*
X895000D02*
X1235000D01*
X895000Y-1000000D02*
Y-880000D01*
X1257141Y-987383D02*
X1256665Y-986430D01*
X1255713Y-985478D01*
X1254761Y-985002D01*
X1252857D01*
X1251904Y-985478D01*
X1250952Y-986430D01*
X1250476Y-987383D01*
X1250000Y-988811D01*
Y-991191D01*
X1250476Y-992619D01*
X1250952Y-993572D01*
X1251904Y-994524D01*
X1252857Y-995000D01*
X1254761D01*
X1255713Y-994524D01*
X1256665Y-993572D01*
X1257141Y-992619D01*
X1268520Y-988811D02*
X1268044Y-989287D01*
X1268520Y-989763D01*
X1268996Y-989287D01*
Y-988811D01*
X1268520Y-988335D01*
X1268044D01*
X1267568Y-988811D01*
X1267092Y-989763D01*
X1266139Y-992143D01*
X1265187Y-993572D01*
X1264235Y-994524D01*
X1263283Y-995000D01*
X1261855D01*
X1260426Y-994524D01*
X1259950Y-993572D01*
Y-992143D01*
X1260426Y-991191D01*
X1263283Y-989287D01*
X1264235Y-988335D01*
X1264711Y-987383D01*
Y-986430D01*
X1264235Y-985478D01*
X1263283Y-985002D01*
X1262331Y-985478D01*
X1261855Y-986430D01*
Y-987383D01*
X1262331Y-988811D01*
X1263283Y-990239D01*
X1265663Y-993572D01*
X1266616Y-994524D01*
X1268044Y-995000D01*
X1268520D01*
X1268996Y-994524D01*
Y-994048D01*
X1261855Y-995000D02*
X1260902Y-994524D01*
X1260426Y-993572D01*
Y-992143D01*
X1260902Y-991191D01*
X1261855Y-990239D01*
Y-987383D02*
X1262331Y-988335D01*
X1266139Y-993572D01*
X1267092Y-994524D01*
X1268044Y-995000D01*
X1271472Y-985002D02*
Y-995000D01*
X1278137Y-985002D02*
X1271472Y-991667D01*
X1273852Y-989287D02*
X1278137Y-995000D01*
X1400476Y-967383D02*
Y-966907D01*
X1400952Y-965954D01*
X1401428Y-965478D01*
X1402380Y-965002D01*
X1404285D01*
X1405237Y-965478D01*
X1405713Y-965954D01*
X1406189Y-966907D01*
Y-967859D01*
X1405713Y-968811D01*
X1404761Y-970239D01*
X1400000Y-975000D01*
X1406665D01*
X1411759Y-965002D02*
X1410331Y-965478D01*
X1409379Y-966907D01*
X1408903Y-969287D01*
Y-970715D01*
X1409379Y-973096D01*
X1410331Y-974524D01*
X1411759Y-975000D01*
X1412712D01*
X1414140Y-974524D01*
X1415092Y-973096D01*
X1415568Y-970715D01*
Y-969287D01*
X1415092Y-966907D01*
X1414140Y-965478D01*
X1412712Y-965002D01*
X1411759D01*
X1418282Y-967383D02*
Y-966907D01*
X1418758Y-965954D01*
X1419234Y-965478D01*
X1420186Y-965002D01*
X1422090D01*
X1423043Y-965478D01*
X1423519Y-965954D01*
X1423995Y-966907D01*
Y-967859D01*
X1423519Y-968811D01*
X1422567Y-970239D01*
X1417806Y-975000D01*
X1424471D01*
X1426709Y-966907D02*
X1427661Y-966430D01*
X1429089Y-965002D01*
Y-975000D01*
X1434516Y-974048D02*
X1434040Y-974524D01*
X1434516Y-975000D01*
X1434993Y-974524D01*
X1434516Y-974048D01*
X1440039Y-965002D02*
X1438611Y-965478D01*
X1437659Y-966907D01*
X1437182Y-969287D01*
Y-970715D01*
X1437659Y-973096D01*
X1438611Y-974524D01*
X1440039Y-975000D01*
X1440991D01*
X1442419Y-974524D01*
X1443372Y-973096D01*
X1443848Y-970715D01*
Y-969287D01*
X1443372Y-966907D01*
X1442419Y-965478D01*
X1440991Y-965002D01*
X1440039D01*
X1450846D02*
X1446085Y-971667D01*
X1453227D01*
X1450846Y-965002D02*
Y-975000D01*
X1455464Y-974048D02*
X1454988Y-974524D01*
X1455464Y-975000D01*
X1455940Y-974524D01*
X1455464Y-974048D01*
X1460987Y-965002D02*
X1459559Y-965478D01*
X1458607Y-966907D01*
X1458130Y-969287D01*
Y-970715D01*
X1458607Y-973096D01*
X1459559Y-974524D01*
X1460987Y-975000D01*
X1461939D01*
X1463367Y-974524D01*
X1464319Y-973096D01*
X1464796Y-970715D01*
Y-969287D01*
X1464319Y-966907D01*
X1463367Y-965478D01*
X1461939Y-965002D01*
X1460987D01*
X1467509Y-967383D02*
Y-966907D01*
X1467985Y-965954D01*
X1468461Y-965478D01*
X1469414Y-965002D01*
X1471318D01*
X1472270Y-965478D01*
X1472746Y-965954D01*
X1473222Y-966907D01*
Y-967859D01*
X1472746Y-968811D01*
X1471794Y-970239D01*
X1467033Y-975000D01*
X1473698D01*
X1476412Y-974048D02*
X1475936Y-974524D01*
X1476412Y-975000D01*
X1476888Y-974524D01*
X1476412Y-974048D01*
X1400000Y-945002D02*
Y-955000D01*
X1406665Y-945002D02*
X1400000Y-951667D01*
X1402380Y-949287D02*
X1406665Y-955000D01*
X1408903Y-945002D02*
Y-955000D01*
X1415568Y-945002D02*
Y-955000D01*
X1408903Y-949763D02*
X1415568D01*
X1418329Y-945002D02*
Y-955000D01*
X1424995Y-945002D02*
Y-955000D01*
X1418329Y-949763D02*
X1424995D01*
X1402856Y-925002D02*
X1401428Y-925478D01*
X1400476Y-926907D01*
X1400000Y-929287D01*
Y-930715D01*
X1400476Y-933096D01*
X1401428Y-934524D01*
X1402856Y-935000D01*
X1403809D01*
X1405237Y-934524D01*
X1406189Y-933096D01*
X1406665Y-930715D01*
Y-929287D01*
X1406189Y-926907D01*
X1405237Y-925478D01*
X1403809Y-925002D01*
X1402856D01*
X1409379Y-934048D02*
X1408903Y-934524D01*
X1409379Y-935000D01*
X1409855Y-934524D01*
X1409379Y-934048D01*
X1412521Y-927383D02*
Y-926907D01*
X1412997Y-925954D01*
X1413473Y-925478D01*
X1414426Y-925002D01*
X1416330D01*
X1417282Y-925478D01*
X1417758Y-925954D01*
X1418234Y-926907D01*
Y-927859D01*
X1417758Y-928811D01*
X1416806Y-930239D01*
X1412045Y-935000D01*
X1418710D01*
X1425709Y-925002D02*
X1420948Y-931667D01*
X1428089D01*
X1425709Y-925002D02*
Y-935000D01*
X1407617Y-915000D02*
X1403809Y-905002D01*
X1400000Y-915000D01*
X1401428Y-911667D02*
X1406189D01*
X1409950Y-905002D02*
Y-915000D01*
Y-905002D02*
X1414235D01*
X1415663Y-905478D01*
X1416139Y-905954D01*
X1416615Y-906907D01*
Y-907859D01*
X1416139Y-908811D01*
X1415663Y-909287D01*
X1414235Y-909763D01*
X1409950D01*
X1413283D02*
X1416615Y-915000D01*
X1425042Y-905002D02*
X1418853D01*
Y-915000D01*
X1425042D01*
X1418853Y-909763D02*
X1422662D01*
X1433374Y-906430D02*
X1432422Y-905478D01*
X1430993Y-905002D01*
X1429089D01*
X1427661Y-905478D01*
X1426709Y-906430D01*
Y-907383D01*
X1427185Y-908335D01*
X1427661Y-908811D01*
X1428613Y-909287D01*
X1431470Y-910239D01*
X1432422Y-910715D01*
X1432898Y-911191D01*
X1433374Y-912143D01*
Y-913572D01*
X1432422Y-914524D01*
X1430993Y-915000D01*
X1429089D01*
X1427661Y-914524D01*
X1426709Y-913572D01*
X1435611Y-918333D02*
X1443229D01*
X1444514Y-905002D02*
Y-915000D01*
Y-905002D02*
X1448799D01*
X1450227Y-905478D01*
X1450703Y-905954D01*
X1451180Y-906907D01*
Y-907859D01*
X1450703Y-908811D01*
X1450227Y-909287D01*
X1448799Y-909763D01*
X1444514D01*
X1447847D02*
X1451180Y-915000D01*
X1456274Y-905002D02*
X1454845Y-905478D01*
X1453893Y-906907D01*
X1453417Y-909287D01*
Y-910715D01*
X1453893Y-913096D01*
X1454845Y-914524D01*
X1456274Y-915000D01*
X1457226D01*
X1458654Y-914524D01*
X1459606Y-913096D01*
X1460082Y-910715D01*
Y-909287D01*
X1459606Y-906907D01*
X1458654Y-905478D01*
X1457226Y-905002D01*
X1456274D01*
X1468033Y-906430D02*
X1467557Y-905478D01*
X1466129Y-905002D01*
X1465177D01*
X1463748Y-905478D01*
X1462796Y-906907D01*
X1462320Y-909287D01*
Y-911667D01*
X1462796Y-913572D01*
X1463748Y-914524D01*
X1465177Y-915000D01*
X1465653D01*
X1467081Y-914524D01*
X1468033Y-913572D01*
X1468509Y-912143D01*
Y-911667D01*
X1468033Y-910239D01*
X1467081Y-909287D01*
X1465653Y-908811D01*
X1465177D01*
X1463748Y-909287D01*
X1462796Y-910239D01*
X1462320Y-911667D01*
X1470699Y-918333D02*
X1478316D01*
X1479602Y-910239D02*
X1483887D01*
X1485315Y-909763D01*
X1485791Y-909287D01*
X1486267Y-908335D01*
Y-906907D01*
X1485791Y-905954D01*
X1485315Y-905478D01*
X1483887Y-905002D01*
X1479602D01*
Y-915000D01*
X1490885Y-908335D02*
X1489933Y-908811D01*
X1488981Y-909763D01*
X1488505Y-911191D01*
Y-912143D01*
X1488981Y-913572D01*
X1489933Y-914524D01*
X1490885Y-915000D01*
X1492314D01*
X1493266Y-914524D01*
X1494218Y-913572D01*
X1494694Y-912143D01*
Y-911191D01*
X1494218Y-909763D01*
X1493266Y-908811D01*
X1492314Y-908335D01*
X1490885D01*
X1496884D02*
X1498788Y-915000D01*
X1500693Y-908335D02*
X1498788Y-915000D01*
X1500693Y-908335D02*
X1502597Y-915000D01*
X1504501Y-908335D02*
X1502597Y-915000D01*
X1506834Y-911191D02*
X1512547D01*
Y-910239D01*
X1512071Y-909287D01*
X1511595Y-908811D01*
X1510643Y-908335D01*
X1509215D01*
X1508262Y-908811D01*
X1507310Y-909763D01*
X1506834Y-911191D01*
Y-912143D01*
X1507310Y-913572D01*
X1508262Y-914524D01*
X1509215Y-915000D01*
X1510643D01*
X1511595Y-914524D01*
X1512547Y-913572D01*
X1514690Y-908335D02*
Y-915000D01*
Y-911191D02*
X1515166Y-909763D01*
X1516118Y-908811D01*
X1517070Y-908335D01*
X1518498D01*
X1400000Y-885002D02*
Y-895000D01*
X1406665Y-885002D02*
Y-895000D01*
X1400000Y-889763D02*
X1406665D01*
X1410379Y-885002D02*
X1410855Y-885478D01*
X1411331Y-885002D01*
X1410855Y-884526D01*
X1410379Y-885002D01*
X1410855Y-888335D02*
Y-895000D01*
X1418806Y-888335D02*
Y-895952D01*
X1418329Y-897380D01*
X1417853Y-897857D01*
X1416901Y-898333D01*
X1415473D01*
X1414521Y-897857D01*
X1418806Y-889763D02*
X1417853Y-888811D01*
X1416901Y-888335D01*
X1415473D01*
X1414521Y-888811D01*
X1413569Y-889763D01*
X1413092Y-891191D01*
Y-892143D01*
X1413569Y-893572D01*
X1414521Y-894524D01*
X1415473Y-895000D01*
X1416901D01*
X1417853Y-894524D01*
X1418806Y-893572D01*
X1421472Y-891191D02*
X1427185D01*
Y-890239D01*
X1426709Y-889287D01*
X1426232Y-888811D01*
X1425280Y-888335D01*
X1423852D01*
X1422900Y-888811D01*
X1421948Y-889763D01*
X1421472Y-891191D01*
Y-892143D01*
X1421948Y-893572D01*
X1422900Y-894524D01*
X1423852Y-895000D01*
X1425280D01*
X1426232Y-894524D01*
X1427185Y-893572D01*
X1429327Y-888335D02*
Y-895000D01*
Y-890239D02*
X1430755Y-888811D01*
X1431707Y-888335D01*
X1433136D01*
X1434088Y-888811D01*
X1434564Y-890239D01*
Y-895000D01*
X1250000Y-965002D02*
Y-975000D01*
X1255713D01*
X1262521Y-968335D02*
Y-975000D01*
Y-969763D02*
X1261569Y-968811D01*
X1260617Y-968335D01*
X1259189D01*
X1258236Y-968811D01*
X1257284Y-969763D01*
X1256808Y-971191D01*
Y-972143D01*
X1257284Y-973572D01*
X1258236Y-974524D01*
X1259189Y-975000D01*
X1260617D01*
X1261569Y-974524D01*
X1262521Y-973572D01*
X1270424Y-969763D02*
X1269948Y-968811D01*
X1268520Y-968335D01*
X1267092D01*
X1265663Y-968811D01*
X1265187Y-969763D01*
X1265663Y-970715D01*
X1266616Y-971191D01*
X1268996Y-971667D01*
X1269948Y-972143D01*
X1270424Y-973096D01*
Y-973572D01*
X1269948Y-974524D01*
X1268520Y-975000D01*
X1267092D01*
X1265663Y-974524D01*
X1265187Y-973572D01*
X1273947Y-965002D02*
Y-973096D01*
X1274423Y-974524D01*
X1275376Y-975000D01*
X1276328D01*
X1272519Y-968335D02*
X1275852D01*
X1285611Y-965002D02*
Y-975000D01*
Y-965002D02*
X1288944D01*
X1290372Y-965478D01*
X1291324Y-966430D01*
X1291801Y-967383D01*
X1292277Y-968811D01*
Y-971191D01*
X1291801Y-972619D01*
X1291324Y-973572D01*
X1290372Y-974524D01*
X1288944Y-975000D01*
X1285611D01*
X1300227Y-968335D02*
Y-975000D01*
Y-969763D02*
X1299275Y-968811D01*
X1298323Y-968335D01*
X1296895D01*
X1295943Y-968811D01*
X1294990Y-969763D01*
X1294514Y-971191D01*
Y-972143D01*
X1294990Y-973572D01*
X1295943Y-974524D01*
X1296895Y-975000D01*
X1298323D01*
X1299275Y-974524D01*
X1300227Y-973572D01*
X1304322Y-965002D02*
Y-973096D01*
X1304798Y-974524D01*
X1305750Y-975000D01*
X1306702D01*
X1302893Y-968335D02*
X1306226D01*
X1313843D02*
Y-975000D01*
Y-969763D02*
X1312891Y-968811D01*
X1311939Y-968335D01*
X1310511D01*
X1309559Y-968811D01*
X1308607Y-969763D01*
X1308130Y-971191D01*
Y-972143D01*
X1308607Y-973572D01*
X1309559Y-974524D01*
X1310511Y-975000D01*
X1311939D01*
X1312891Y-974524D01*
X1313843Y-973572D01*
X1250000Y-945002D02*
Y-955000D01*
Y-945002D02*
X1253333D01*
X1254761Y-945478D01*
X1255713Y-946430D01*
X1256189Y-947383D01*
X1256665Y-948811D01*
Y-951191D01*
X1256189Y-952619D01*
X1255713Y-953572D01*
X1254761Y-954524D01*
X1253333Y-955000D01*
X1250000D01*
X1258903Y-951191D02*
X1264616D01*
Y-950239D01*
X1264140Y-949287D01*
X1263664Y-948811D01*
X1262711Y-948335D01*
X1261283D01*
X1260331Y-948811D01*
X1259379Y-949763D01*
X1258903Y-951191D01*
Y-952143D01*
X1259379Y-953572D01*
X1260331Y-954524D01*
X1261283Y-955000D01*
X1262711D01*
X1263664Y-954524D01*
X1264616Y-953572D01*
X1271995Y-949763D02*
X1271519Y-948811D01*
X1270091Y-948335D01*
X1268663D01*
X1267234Y-948811D01*
X1266758Y-949763D01*
X1267234Y-950715D01*
X1268187Y-951191D01*
X1270567Y-951667D01*
X1271519Y-952143D01*
X1271995Y-953096D01*
Y-953572D01*
X1271519Y-954524D01*
X1270091Y-955000D01*
X1268663D01*
X1267234Y-954524D01*
X1266758Y-953572D01*
X1275042Y-945002D02*
X1275518Y-945478D01*
X1275994Y-945002D01*
X1275518Y-944526D01*
X1275042Y-945002D01*
X1275518Y-948335D02*
Y-955000D01*
X1283469Y-948335D02*
Y-955952D01*
X1282993Y-957380D01*
X1282517Y-957857D01*
X1281565Y-958333D01*
X1280136D01*
X1279184Y-957857D01*
X1283469Y-949763D02*
X1282517Y-948811D01*
X1281565Y-948335D01*
X1280136D01*
X1279184Y-948811D01*
X1278232Y-949763D01*
X1277756Y-951191D01*
Y-952143D01*
X1278232Y-953572D01*
X1279184Y-954524D01*
X1280136Y-955000D01*
X1281565D01*
X1282517Y-954524D01*
X1283469Y-953572D01*
X1286135Y-948335D02*
Y-955000D01*
Y-950239D02*
X1287563Y-948811D01*
X1288515Y-948335D01*
X1289944D01*
X1290896Y-948811D01*
X1291372Y-950239D01*
Y-955000D01*
X1293991Y-951191D02*
X1299704D01*
Y-950239D01*
X1299227Y-949287D01*
X1298752Y-948811D01*
X1297799Y-948335D01*
X1296371D01*
X1295419Y-948811D01*
X1294467Y-949763D01*
X1293991Y-951191D01*
Y-952143D01*
X1294467Y-953572D01*
X1295419Y-954524D01*
X1296371Y-955000D01*
X1297799D01*
X1298752Y-954524D01*
X1299704Y-953572D01*
X1301846Y-948335D02*
Y-955000D01*
Y-951191D02*
X1302322Y-949763D01*
X1303274Y-948811D01*
X1304226Y-948335D01*
X1305655D01*
X1250000Y-925002D02*
Y-935000D01*
Y-925002D02*
X1254285D01*
X1255713Y-925478D01*
X1256189Y-925954D01*
X1256665Y-926907D01*
Y-927859D01*
X1256189Y-928811D01*
X1255713Y-929287D01*
X1254285Y-929763D01*
X1250000D01*
X1253333D02*
X1256665Y-935000D01*
X1258903Y-931191D02*
X1264616D01*
Y-930239D01*
X1264140Y-929287D01*
X1263664Y-928811D01*
X1262711Y-928335D01*
X1261283D01*
X1260331Y-928811D01*
X1259379Y-929763D01*
X1258903Y-931191D01*
Y-932143D01*
X1259379Y-933572D01*
X1260331Y-934524D01*
X1261283Y-935000D01*
X1262711D01*
X1263664Y-934524D01*
X1264616Y-933572D01*
X1266758Y-928335D02*
X1269615Y-935000D01*
X1272471Y-928335D02*
X1269615Y-935000D01*
X1250000Y-905002D02*
Y-915000D01*
Y-905002D02*
X1253333D01*
X1254761Y-905478D01*
X1255713Y-906430D01*
X1256189Y-907383D01*
X1256665Y-908811D01*
Y-911191D01*
X1256189Y-912619D01*
X1255713Y-913572D01*
X1254761Y-914524D01*
X1253333Y-915000D01*
X1250000D01*
X1258903Y-911191D02*
X1264616D01*
Y-910239D01*
X1264140Y-909287D01*
X1263664Y-908811D01*
X1262711Y-908335D01*
X1261283D01*
X1260331Y-908811D01*
X1259379Y-909763D01*
X1258903Y-911191D01*
Y-912143D01*
X1259379Y-913572D01*
X1260331Y-914524D01*
X1261283Y-915000D01*
X1262711D01*
X1263664Y-914524D01*
X1264616Y-913572D01*
X1271995Y-909763D02*
X1271519Y-908811D01*
X1270091Y-908335D01*
X1268663D01*
X1267234Y-908811D01*
X1266758Y-909763D01*
X1267234Y-910715D01*
X1268187Y-911191D01*
X1270567Y-911667D01*
X1271519Y-912143D01*
X1271995Y-913096D01*
Y-913572D01*
X1271519Y-914524D01*
X1270091Y-915000D01*
X1268663D01*
X1267234Y-914524D01*
X1266758Y-913572D01*
X1275042Y-905002D02*
X1275518Y-905478D01*
X1275994Y-905002D01*
X1275518Y-904526D01*
X1275042Y-905002D01*
X1275518Y-908335D02*
Y-915000D01*
X1283469Y-908335D02*
Y-915952D01*
X1282993Y-917380D01*
X1282517Y-917857D01*
X1281565Y-918333D01*
X1280136D01*
X1279184Y-917857D01*
X1283469Y-909763D02*
X1282517Y-908811D01*
X1281565Y-908335D01*
X1280136D01*
X1279184Y-908811D01*
X1278232Y-909763D01*
X1277756Y-911191D01*
Y-912143D01*
X1278232Y-913572D01*
X1279184Y-914524D01*
X1280136Y-915000D01*
X1281565D01*
X1282517Y-914524D01*
X1283469Y-913572D01*
X1286135Y-908335D02*
Y-915000D01*
Y-910239D02*
X1287563Y-908811D01*
X1288515Y-908335D01*
X1289944D01*
X1290896Y-908811D01*
X1291372Y-910239D01*
Y-915000D01*
X1301846Y-905002D02*
Y-915000D01*
Y-905002D02*
X1308511Y-915000D01*
Y-905002D02*
Y-915000D01*
X1316986Y-908335D02*
Y-915000D01*
Y-909763D02*
X1316033Y-908811D01*
X1315081Y-908335D01*
X1313653D01*
X1312701Y-908811D01*
X1311749Y-909763D01*
X1311273Y-911191D01*
Y-912143D01*
X1311749Y-913572D01*
X1312701Y-914524D01*
X1313653Y-915000D01*
X1315081D01*
X1316033Y-914524D01*
X1316986Y-913572D01*
X1319652Y-908335D02*
Y-915000D01*
Y-910239D02*
X1321080Y-908811D01*
X1322032Y-908335D01*
X1323460D01*
X1324413Y-908811D01*
X1324889Y-910239D01*
Y-915000D01*
Y-910239D02*
X1326317Y-908811D01*
X1327269Y-908335D01*
X1328697D01*
X1329650Y-908811D01*
X1330126Y-910239D01*
Y-915000D01*
X1333268Y-911191D02*
X1338981D01*
Y-910239D01*
X1338505Y-909287D01*
X1338029Y-908811D01*
X1337077Y-908335D01*
X1335648D01*
X1334696Y-908811D01*
X1333744Y-909763D01*
X1333268Y-911191D01*
Y-912143D01*
X1333744Y-913572D01*
X1334696Y-914524D01*
X1335648Y-915000D01*
X1337077D01*
X1338029Y-914524D01*
X1338981Y-913572D01*
X1257141Y-887383D02*
X1256665Y-886430D01*
X1255713Y-885478D01*
X1254761Y-885002D01*
X1252857D01*
X1251904Y-885478D01*
X1250952Y-886430D01*
X1250476Y-887383D01*
X1250000Y-888811D01*
Y-891191D01*
X1250476Y-892620D01*
X1250952Y-893572D01*
X1251904Y-894524D01*
X1252857Y-895000D01*
X1254761D01*
X1255713Y-894524D01*
X1256665Y-893572D01*
X1257141Y-892620D01*
X1259950Y-888335D02*
Y-893096D01*
X1260426Y-894524D01*
X1261378Y-895000D01*
X1262807D01*
X1263759Y-894524D01*
X1265187Y-893096D01*
Y-888335D02*
Y-895000D01*
X1273043Y-889763D02*
X1272567Y-888811D01*
X1271138Y-888335D01*
X1269710D01*
X1268282Y-888811D01*
X1267806Y-889763D01*
X1268282Y-890715D01*
X1269234Y-891191D01*
X1271614Y-891667D01*
X1272567Y-892143D01*
X1273043Y-893096D01*
Y-893572D01*
X1272567Y-894524D01*
X1271138Y-895000D01*
X1269710D01*
X1268282Y-894524D01*
X1267806Y-893572D01*
X1276566Y-885002D02*
Y-893096D01*
X1277042Y-894524D01*
X1277994Y-895000D01*
X1278946D01*
X1275137Y-888335D02*
X1278470D01*
X1282755D02*
X1281803Y-888811D01*
X1280851Y-889763D01*
X1280374Y-891191D01*
Y-892143D01*
X1280851Y-893572D01*
X1281803Y-894524D01*
X1282755Y-895000D01*
X1284183D01*
X1285135Y-894524D01*
X1286087Y-893572D01*
X1286564Y-892143D01*
Y-891191D01*
X1286087Y-889763D01*
X1285135Y-888811D01*
X1284183Y-888335D01*
X1282755D01*
X1288754D02*
Y-895000D01*
Y-890239D02*
X1290182Y-888811D01*
X1291134Y-888335D01*
X1292562D01*
X1293515Y-888811D01*
X1293991Y-890239D01*
Y-895000D01*
Y-890239D02*
X1295419Y-888811D01*
X1296371Y-888335D01*
X1297799D01*
X1298752Y-888811D01*
X1299227Y-890239D01*
Y-895000D01*
X1302370Y-891191D02*
X1308083D01*
Y-890239D01*
X1307607Y-889287D01*
X1307131Y-888811D01*
X1306178Y-888335D01*
X1304750D01*
X1303798Y-888811D01*
X1302846Y-889763D01*
X1302370Y-891191D01*
Y-892143D01*
X1302846Y-893572D01*
X1303798Y-894524D01*
X1304750Y-895000D01*
X1306178D01*
X1307131Y-894524D01*
X1308083Y-893572D01*
X1310225Y-888335D02*
Y-895000D01*
Y-891191D02*
X1310701Y-889763D01*
X1311653Y-888811D01*
X1312606Y-888335D01*
X1314034D01*
X1055000Y-985002D02*
X1057380Y-995000D01*
X1059761Y-985002D02*
X1057380Y-995000D01*
X1059761Y-985002D02*
X1062141Y-995000D01*
X1064522Y-985002D02*
X1062141Y-995000D01*
X1066521Y-985002D02*
Y-995000D01*
Y-990239D02*
X1067950Y-988811D01*
X1068902Y-988335D01*
X1070330D01*
X1071282Y-988811D01*
X1071758Y-990239D01*
Y-995000D01*
X1075329Y-985002D02*
X1075805Y-985478D01*
X1076281Y-985002D01*
X1075805Y-984526D01*
X1075329Y-985002D01*
X1075805Y-988335D02*
Y-995000D01*
X1079471Y-985002D02*
Y-993096D01*
X1079947Y-994524D01*
X1080899Y-995000D01*
X1081851D01*
X1078043Y-988335D02*
X1081375D01*
X1083280Y-991191D02*
X1088993D01*
Y-990239D01*
X1088517Y-989287D01*
X1088040Y-988811D01*
X1087088Y-988335D01*
X1085660D01*
X1084708Y-988811D01*
X1083756Y-989763D01*
X1083280Y-991191D01*
Y-992143D01*
X1083756Y-993572D01*
X1084708Y-994524D01*
X1085660Y-995000D01*
X1087088D01*
X1088040Y-994524D01*
X1088993Y-993572D01*
X1055000Y-965002D02*
Y-975000D01*
Y-965002D02*
X1059285D01*
X1060713Y-965478D01*
X1061189Y-965954D01*
X1061665Y-966907D01*
Y-967859D01*
X1061189Y-968811D01*
X1060713Y-969287D01*
X1059285Y-969763D01*
X1055000D02*
X1059285D01*
X1060713Y-970239D01*
X1061189Y-970715D01*
X1061665Y-971667D01*
Y-973096D01*
X1061189Y-974048D01*
X1060713Y-974524D01*
X1059285Y-975000D01*
X1055000D01*
X1063903Y-965002D02*
Y-975000D01*
X1069616D01*
X1070711Y-965002D02*
Y-972143D01*
X1071187Y-973572D01*
X1072139Y-974524D01*
X1073567Y-975000D01*
X1074520D01*
X1075948Y-974524D01*
X1076900Y-973572D01*
X1077376Y-972143D01*
Y-965002D01*
X1086327D02*
X1080137D01*
Y-975000D01*
X1086327D01*
X1080137Y-969763D02*
X1083946D01*
X1057857Y-945002D02*
X1056904Y-945478D01*
X1055952Y-946430D01*
X1055476Y-947383D01*
X1055000Y-948811D01*
Y-951191D01*
X1055476Y-952620D01*
X1055952Y-953572D01*
X1056904Y-954524D01*
X1057857Y-955000D01*
X1059761D01*
X1060713Y-954524D01*
X1061665Y-953572D01*
X1062141Y-952620D01*
X1062617Y-951191D01*
Y-948811D01*
X1062141Y-947383D01*
X1061665Y-946430D01*
X1060713Y-945478D01*
X1059761Y-945002D01*
X1057857D01*
X1071616Y-946430D02*
X1070663Y-945478D01*
X1069235Y-945002D01*
X1067331D01*
X1065902Y-945478D01*
X1064950Y-946430D01*
Y-947383D01*
X1065426Y-948335D01*
X1065902Y-948811D01*
X1066855Y-949287D01*
X1069711Y-950239D01*
X1070663Y-950715D01*
X1071139Y-951191D01*
X1071616Y-952143D01*
Y-953572D01*
X1070663Y-954524D01*
X1069235Y-955000D01*
X1067331D01*
X1065902Y-954524D01*
X1064950Y-953572D01*
X1073853Y-950239D02*
X1078138D01*
X1079566Y-949763D01*
X1080042Y-949287D01*
X1080518Y-948335D01*
Y-946907D01*
X1080042Y-945954D01*
X1079566Y-945478D01*
X1078138Y-945002D01*
X1073853D01*
Y-955000D01*
X1055000Y-925002D02*
Y-935000D01*
Y-925002D02*
X1061189D01*
X1055000Y-929763D02*
X1058809D01*
X1062332Y-925002D02*
Y-935000D01*
Y-925002D02*
X1066617D01*
X1068045Y-925478D01*
X1068521Y-925954D01*
X1068997Y-926907D01*
Y-927859D01*
X1068521Y-928811D01*
X1068045Y-929287D01*
X1066617Y-929763D01*
X1062332D01*
X1065664D02*
X1068997Y-935000D01*
X1071235Y-930715D02*
X1079804D01*
X1087517Y-925002D02*
X1082756Y-931667D01*
X1089897D01*
X1087517Y-925002D02*
Y-935000D01*
X1055000Y-906907D02*
X1055952Y-906430D01*
X1057380Y-905002D01*
Y-915000D01*
X1062808Y-914048D02*
X1062332Y-914524D01*
X1062808Y-915000D01*
X1063284Y-914524D01*
X1062808Y-914048D01*
X1071187Y-906430D02*
X1070711Y-905478D01*
X1069283Y-905002D01*
X1068331D01*
X1066902Y-905478D01*
X1065950Y-906907D01*
X1065474Y-909287D01*
Y-911667D01*
X1065950Y-913572D01*
X1066902Y-914524D01*
X1068331Y-915000D01*
X1068807D01*
X1070235Y-914524D01*
X1071187Y-913572D01*
X1071663Y-912143D01*
Y-911667D01*
X1071187Y-910239D01*
X1070235Y-909287D01*
X1068807Y-908811D01*
X1068331D01*
X1066902Y-909287D01*
X1065950Y-910239D01*
X1065474Y-911667D01*
X1077186Y-905002D02*
Y-915000D01*
X1073853Y-905002D02*
X1080518D01*
X1057380Y-885002D02*
X1055952Y-885478D01*
X1055476Y-886430D01*
Y-887383D01*
X1055952Y-888335D01*
X1056904Y-888811D01*
X1058809Y-889287D01*
X1060237Y-889763D01*
X1061189Y-890715D01*
X1061665Y-891667D01*
Y-893096D01*
X1061189Y-894048D01*
X1060713Y-894524D01*
X1059285Y-895000D01*
X1057380D01*
X1055952Y-894524D01*
X1055476Y-894048D01*
X1055000Y-893096D01*
Y-891667D01*
X1055476Y-890715D01*
X1056428Y-889763D01*
X1057857Y-889287D01*
X1059761Y-888811D01*
X1060713Y-888335D01*
X1061189Y-887383D01*
Y-886430D01*
X1060713Y-885478D01*
X1059285Y-885002D01*
X1057380D01*
X1066283D02*
X1064855Y-885478D01*
X1064379Y-886430D01*
Y-887383D01*
X1064855Y-888335D01*
X1065807Y-888811D01*
X1067712Y-889287D01*
X1069140Y-889763D01*
X1070092Y-890715D01*
X1070568Y-891667D01*
Y-893096D01*
X1070092Y-894048D01*
X1069616Y-894524D01*
X1068188Y-895000D01*
X1066283D01*
X1064855Y-894524D01*
X1064379Y-894048D01*
X1063903Y-893096D01*
Y-891667D01*
X1064379Y-890715D01*
X1065331Y-889763D01*
X1066759Y-889287D01*
X1068664Y-888811D01*
X1069616Y-888335D01*
X1070092Y-887383D01*
Y-886430D01*
X1069616Y-885478D01*
X1068188Y-885002D01*
X1066283D01*
X1072806Y-888335D02*
Y-895000D01*
Y-890239D02*
X1074234Y-888811D01*
X1075186Y-888335D01*
X1076614D01*
X1077567Y-888811D01*
X1078043Y-890239D01*
Y-895000D01*
Y-890239D02*
X1079471Y-888811D01*
X1080423Y-888335D01*
X1081851D01*
X1082804Y-888811D01*
X1083280Y-890239D01*
Y-895000D01*
X1086422Y-888335D02*
Y-895000D01*
Y-890239D02*
X1087850Y-888811D01*
X1088802Y-888335D01*
X1090230D01*
X1091183Y-888811D01*
X1091659Y-890239D01*
Y-895000D01*
Y-890239D02*
X1093087Y-888811D01*
X1094039Y-888335D01*
X1095468D01*
X1096420Y-888811D01*
X1096896Y-890239D01*
Y-895000D01*
X1107893Y-885002D02*
X1114559Y-895000D01*
Y-885002D02*
X1107893Y-895000D01*
X1130841Y-888335D02*
X1130365Y-889763D01*
X1129413Y-890715D01*
X1127984Y-891191D01*
X1127508D01*
X1126080Y-890715D01*
X1125128Y-889763D01*
X1124652Y-888335D01*
Y-887859D01*
X1125128Y-886430D01*
X1126080Y-885478D01*
X1127508Y-885002D01*
X1127984D01*
X1129413Y-885478D01*
X1130365Y-886430D01*
X1130841Y-888335D01*
Y-890715D01*
X1130365Y-893096D01*
X1129413Y-894524D01*
X1127984Y-895000D01*
X1127032D01*
X1125604Y-894524D01*
X1125128Y-893572D01*
X1138316Y-885002D02*
X1133555Y-891667D01*
X1140696D01*
X1138316Y-885002D02*
Y-895000D01*
X1142457Y-888335D02*
Y-895000D01*
Y-890239D02*
X1143886Y-888811D01*
X1144838Y-888335D01*
X1146266D01*
X1147218Y-888811D01*
X1147694Y-890239D01*
Y-895000D01*
Y-890239D02*
X1149123Y-888811D01*
X1150075Y-888335D01*
X1151503D01*
X1152455Y-888811D01*
X1152931Y-890239D01*
Y-895000D01*
X1156074Y-888335D02*
Y-895000D01*
Y-890239D02*
X1157502Y-888811D01*
X1158454Y-888335D01*
X1159882D01*
X1160835Y-888811D01*
X1161311Y-890239D01*
Y-895000D01*
Y-890239D02*
X1162739Y-888811D01*
X1163691Y-888335D01*
X1165119D01*
X1166071Y-888811D01*
X1166547Y-890239D01*
Y-895000D01*
X911665Y-986430D02*
X910713Y-985478D01*
X909285Y-985002D01*
X907380D01*
X905952Y-985478D01*
X905000Y-986430D01*
Y-987383D01*
X905476Y-988335D01*
X905952Y-988811D01*
X906904Y-989287D01*
X909761Y-990239D01*
X910713Y-990715D01*
X911189Y-991191D01*
X911665Y-992143D01*
Y-993572D01*
X910713Y-994524D01*
X909285Y-995000D01*
X907380D01*
X905952Y-994524D01*
X905000Y-993572D01*
X914855Y-985002D02*
X915331Y-985478D01*
X915807Y-985002D01*
X915331Y-984526D01*
X914855Y-985002D01*
X915331Y-988335D02*
Y-995000D01*
X917569Y-985002D02*
Y-995000D01*
X919663Y-985002D02*
Y-995000D01*
X924424Y-988335D02*
X919663Y-993096D01*
X921568Y-991191D02*
X924901Y-995000D01*
X940992Y-986430D02*
X940040Y-985478D01*
X938612Y-985002D01*
X936708D01*
X935279Y-985478D01*
X934327Y-986430D01*
Y-987383D01*
X934803Y-988335D01*
X935279Y-988811D01*
X936231Y-989287D01*
X939088Y-990239D01*
X940040Y-990715D01*
X940516Y-991191D01*
X940992Y-992143D01*
Y-993572D01*
X940040Y-994524D01*
X938612Y-995000D01*
X936708D01*
X935279Y-994524D01*
X934327Y-993572D01*
X948943Y-989763D02*
X947991Y-988811D01*
X947039Y-988335D01*
X945610D01*
X944658Y-988811D01*
X943706Y-989763D01*
X943230Y-991191D01*
Y-992143D01*
X943706Y-993572D01*
X944658Y-994524D01*
X945610Y-995000D01*
X947039D01*
X947991Y-994524D01*
X948943Y-993572D01*
X951085Y-988335D02*
Y-995000D01*
Y-991191D02*
X951561Y-989763D01*
X952514Y-988811D01*
X953466Y-988335D01*
X954894D01*
X955799Y-991191D02*
X961512D01*
Y-990239D01*
X961036Y-989287D01*
X960559Y-988811D01*
X959607Y-988335D01*
X958179D01*
X957227Y-988811D01*
X956275Y-989763D01*
X955799Y-991191D01*
Y-992143D01*
X956275Y-993572D01*
X957227Y-994524D01*
X958179Y-995000D01*
X959607D01*
X960559Y-994524D01*
X961512Y-993572D01*
X963654Y-991191D02*
X969367D01*
Y-990239D01*
X968891Y-989287D01*
X968415Y-988811D01*
X967463Y-988335D01*
X966034D01*
X965082Y-988811D01*
X964130Y-989763D01*
X963654Y-991191D01*
Y-992143D01*
X964130Y-993572D01*
X965082Y-994524D01*
X966034Y-995000D01*
X967463D01*
X968415Y-994524D01*
X969367Y-993572D01*
X971509Y-988335D02*
Y-995000D01*
Y-990239D02*
X972938Y-988811D01*
X973890Y-988335D01*
X975318D01*
X976270Y-988811D01*
X976747Y-990239D01*
Y-995000D01*
X911665Y-966430D02*
X910713Y-965478D01*
X909285Y-965002D01*
X907380D01*
X905952Y-965478D01*
X905000Y-966430D01*
Y-967383D01*
X905476Y-968335D01*
X905952Y-968811D01*
X906904Y-969287D01*
X909761Y-970239D01*
X910713Y-970715D01*
X911189Y-971191D01*
X911665Y-972143D01*
Y-973572D01*
X910713Y-974524D01*
X909285Y-975000D01*
X907380D01*
X905952Y-974524D01*
X905000Y-973572D01*
X916283Y-968335D02*
X915331Y-968811D01*
X914379Y-969763D01*
X913903Y-971191D01*
Y-972143D01*
X914379Y-973572D01*
X915331Y-974524D01*
X916283Y-975000D01*
X917712D01*
X918664Y-974524D01*
X919616Y-973572D01*
X920092Y-972143D01*
Y-971191D01*
X919616Y-969763D01*
X918664Y-968811D01*
X917712Y-968335D01*
X916283D01*
X922282Y-965002D02*
Y-975000D01*
X930090Y-965002D02*
Y-975000D01*
Y-969763D02*
X929138Y-968811D01*
X928186Y-968335D01*
X926757D01*
X925805Y-968811D01*
X924853Y-969763D01*
X924377Y-971191D01*
Y-972143D01*
X924853Y-973572D01*
X925805Y-974524D01*
X926757Y-975000D01*
X928186D01*
X929138Y-974524D01*
X930090Y-973572D01*
X932756Y-971191D02*
X938469D01*
Y-970239D01*
X937993Y-969287D01*
X937517Y-968811D01*
X936565Y-968335D01*
X935136D01*
X934184Y-968811D01*
X933232Y-969763D01*
X932756Y-971191D01*
Y-972143D01*
X933232Y-973572D01*
X934184Y-974524D01*
X935136Y-975000D01*
X936565D01*
X937517Y-974524D01*
X938469Y-973572D01*
X940611Y-968335D02*
Y-975000D01*
Y-971191D02*
X941087Y-969763D01*
X942040Y-968811D01*
X942992Y-968335D01*
X944420D01*
X953180Y-965002D02*
Y-975000D01*
Y-965002D02*
X956989Y-975000D01*
X960798Y-965002D02*
X956989Y-975000D01*
X960798Y-965002D02*
Y-975000D01*
X969367Y-968335D02*
Y-975000D01*
Y-969763D02*
X968415Y-968811D01*
X967463Y-968335D01*
X966034D01*
X965082Y-968811D01*
X964130Y-969763D01*
X963654Y-971191D01*
Y-972143D01*
X964130Y-973572D01*
X965082Y-974524D01*
X966034Y-975000D01*
X967463D01*
X968415Y-974524D01*
X969367Y-973572D01*
X977270Y-969763D02*
X976794Y-968811D01*
X975366Y-968335D01*
X973938D01*
X972509Y-968811D01*
X972033Y-969763D01*
X972509Y-970715D01*
X973462Y-971191D01*
X975842Y-971667D01*
X976794Y-972143D01*
X977270Y-973096D01*
Y-973572D01*
X976794Y-974524D01*
X975366Y-975000D01*
X973938D01*
X972509Y-974524D01*
X972033Y-973572D01*
X979365Y-965002D02*
Y-975000D01*
X984126Y-968335D02*
X979365Y-973096D01*
X981269Y-971191D02*
X984602Y-975000D01*
X911665Y-946430D02*
X910713Y-945478D01*
X909285Y-945002D01*
X907380D01*
X905952Y-945478D01*
X905000Y-946430D01*
Y-947383D01*
X905476Y-948335D01*
X905952Y-948811D01*
X906904Y-949287D01*
X909761Y-950239D01*
X910713Y-950715D01*
X911189Y-951191D01*
X911665Y-952143D01*
Y-953572D01*
X910713Y-954524D01*
X909285Y-955000D01*
X907380D01*
X905952Y-954524D01*
X905000Y-953572D01*
X913903Y-948335D02*
Y-953096D01*
X914379Y-954524D01*
X915331Y-955000D01*
X916759D01*
X917712Y-954524D01*
X919140Y-953096D01*
Y-948335D02*
Y-955000D01*
X921758Y-948335D02*
Y-955000D01*
Y-951191D02*
X922234Y-949763D01*
X923187Y-948811D01*
X924139Y-948335D01*
X925567D01*
X930280Y-945002D02*
X929328D01*
X928376Y-945478D01*
X927900Y-946907D01*
Y-955000D01*
X926472Y-948335D02*
X929804D01*
X937422D02*
Y-955000D01*
Y-949763D02*
X936469Y-948811D01*
X935517Y-948335D01*
X934089D01*
X933137Y-948811D01*
X932185Y-949763D01*
X931709Y-951191D01*
Y-952143D01*
X932185Y-953572D01*
X933137Y-954524D01*
X934089Y-955000D01*
X935517D01*
X936469Y-954524D01*
X937422Y-953572D01*
X945801Y-949763D02*
X944849Y-948811D01*
X943896Y-948335D01*
X942468D01*
X941516Y-948811D01*
X940564Y-949763D01*
X940088Y-951191D01*
Y-952143D01*
X940564Y-953572D01*
X941516Y-954524D01*
X942468Y-955000D01*
X943896D01*
X944849Y-954524D01*
X945801Y-953572D01*
X947943Y-951191D02*
X953656D01*
Y-950239D01*
X953180Y-949287D01*
X952704Y-948811D01*
X951752Y-948335D01*
X950324D01*
X949371Y-948811D01*
X948419Y-949763D01*
X947943Y-951191D01*
Y-952143D01*
X948419Y-953572D01*
X949371Y-954524D01*
X950324Y-955000D01*
X951752D01*
X952704Y-954524D01*
X953656Y-953572D01*
X963654Y-950239D02*
X967939D01*
X969367Y-949763D01*
X969843Y-949287D01*
X970319Y-948335D01*
Y-946907D01*
X969843Y-945954D01*
X969367Y-945478D01*
X967939Y-945002D01*
X963654D01*
Y-955000D01*
X972557Y-948335D02*
Y-955000D01*
Y-951191D02*
X973033Y-949763D01*
X973985Y-948811D01*
X974937Y-948335D01*
X976366D01*
X977270Y-951191D02*
X982983D01*
Y-950239D01*
X982507Y-949287D01*
X982031Y-948811D01*
X981079Y-948335D01*
X979651D01*
X978699Y-948811D01*
X977746Y-949763D01*
X977270Y-951191D01*
Y-952143D01*
X977746Y-953572D01*
X978699Y-954524D01*
X979651Y-955000D01*
X981079D01*
X982031Y-954524D01*
X982983Y-953572D01*
X985126Y-948335D02*
Y-958333D01*
Y-949763D02*
X986078Y-948811D01*
X987030Y-948335D01*
X988458D01*
X989410Y-948811D01*
X990363Y-949763D01*
X990839Y-951191D01*
Y-952143D01*
X990363Y-953572D01*
X989410Y-954524D01*
X988458Y-955000D01*
X987030D01*
X986078Y-954524D01*
X985126Y-953572D01*
X998694Y-948335D02*
Y-955000D01*
Y-949763D02*
X997742Y-948811D01*
X996790Y-948335D01*
X995362D01*
X994409Y-948811D01*
X993457Y-949763D01*
X992981Y-951191D01*
Y-952143D01*
X993457Y-953572D01*
X994409Y-954524D01*
X995362Y-955000D01*
X996790D01*
X997742Y-954524D01*
X998694Y-953572D01*
X1001360Y-948335D02*
Y-955000D01*
Y-951191D02*
X1001836Y-949763D01*
X1002788Y-948811D01*
X1003741Y-948335D01*
X1005169D01*
X1011787D02*
Y-955000D01*
Y-949763D02*
X1010835Y-948811D01*
X1009882Y-948335D01*
X1008454D01*
X1007502Y-948811D01*
X1006550Y-949763D01*
X1006074Y-951191D01*
Y-952143D01*
X1006550Y-953572D01*
X1007502Y-954524D01*
X1008454Y-955000D01*
X1009882D01*
X1010835Y-954524D01*
X1011787Y-953572D01*
X1015881Y-945002D02*
Y-953096D01*
X1016357Y-954524D01*
X1017309Y-955000D01*
X1018261D01*
X1014453Y-948335D02*
X1017785D01*
X1020642Y-945002D02*
X1021118Y-945478D01*
X1021594Y-945002D01*
X1021118Y-944526D01*
X1020642Y-945002D01*
X1021118Y-948335D02*
Y-955000D01*
X1025736Y-948335D02*
X1024784Y-948811D01*
X1023832Y-949763D01*
X1023356Y-951191D01*
Y-952143D01*
X1023832Y-953572D01*
X1024784Y-954524D01*
X1025736Y-955000D01*
X1027164D01*
X1028117Y-954524D01*
X1029069Y-953572D01*
X1029545Y-952143D01*
Y-951191D01*
X1029069Y-949763D01*
X1028117Y-948811D01*
X1027164Y-948335D01*
X1025736D01*
X1031735D02*
Y-955000D01*
Y-950239D02*
X1033163Y-948811D01*
X1034115Y-948335D01*
X1035543D01*
X1036496Y-948811D01*
X1036972Y-950239D01*
Y-955000D01*
X905000Y-925002D02*
Y-935000D01*
Y-925002D02*
X908809Y-935000D01*
X912617Y-925002D02*
X908809Y-935000D01*
X912617Y-925002D02*
Y-935000D01*
X915474Y-931191D02*
X921187D01*
Y-930239D01*
X920711Y-929287D01*
X920235Y-928811D01*
X919283Y-928335D01*
X917854D01*
X916902Y-928811D01*
X915950Y-929763D01*
X915474Y-931191D01*
Y-932143D01*
X915950Y-933572D01*
X916902Y-934524D01*
X917854Y-935000D01*
X919283D01*
X920235Y-934524D01*
X921187Y-933572D01*
X924758Y-925002D02*
Y-933096D01*
X925234Y-934524D01*
X926186Y-935000D01*
X927138D01*
X923329Y-928335D02*
X926662D01*
X928566Y-931191D02*
X934279D01*
Y-930239D01*
X933803Y-929287D01*
X933327Y-928811D01*
X932375Y-928335D01*
X930947D01*
X929995Y-928811D01*
X929043Y-929763D01*
X928566Y-931191D01*
Y-932143D01*
X929043Y-933572D01*
X929995Y-934524D01*
X930947Y-935000D01*
X932375D01*
X933327Y-934524D01*
X934279Y-933572D01*
X936422Y-928335D02*
Y-935000D01*
Y-931191D02*
X936898Y-929763D01*
X937850Y-928811D01*
X938802Y-928335D01*
X940230D01*
X942087Y-925002D02*
X942563Y-925478D01*
X943039Y-925002D01*
X942563Y-924526D01*
X942087Y-925002D01*
X942563Y-928335D02*
Y-935000D01*
X950514Y-928335D02*
Y-935000D01*
Y-929763D02*
X949562Y-928811D01*
X948610Y-928335D01*
X947181D01*
X946229Y-928811D01*
X945277Y-929763D01*
X944801Y-931191D01*
Y-932143D01*
X945277Y-933572D01*
X946229Y-934524D01*
X947181Y-935000D01*
X948610D01*
X949562Y-934524D01*
X950514Y-933572D01*
X953180Y-925002D02*
Y-935000D01*
X908333Y-905002D02*
Y-915000D01*
X905000Y-905002D02*
X911665D01*
X912856D02*
Y-915000D01*
Y-910239D02*
X914284Y-908811D01*
X915236Y-908335D01*
X916664D01*
X917616Y-908811D01*
X918092Y-910239D01*
Y-915000D01*
X921663Y-905002D02*
X922139Y-905478D01*
X922615Y-905002D01*
X922139Y-904526D01*
X921663Y-905002D01*
X922139Y-908335D02*
Y-915000D01*
X930090Y-909763D02*
X929138Y-908811D01*
X928186Y-908335D01*
X926757D01*
X925805Y-908811D01*
X924853Y-909763D01*
X924377Y-911191D01*
Y-912143D01*
X924853Y-913572D01*
X925805Y-914524D01*
X926757Y-915000D01*
X928186D01*
X929138Y-914524D01*
X930090Y-913572D01*
X932232Y-905002D02*
Y-915000D01*
X936993Y-908335D02*
X932232Y-913096D01*
X934137Y-911191D02*
X937469Y-915000D01*
X939040Y-908335D02*
Y-915000D01*
Y-910239D02*
X940469Y-908811D01*
X941421Y-908335D01*
X942849D01*
X943801Y-908811D01*
X944277Y-910239D01*
Y-915000D01*
X946896Y-911191D02*
X952609D01*
Y-910239D01*
X952133Y-909287D01*
X951657Y-908811D01*
X950704Y-908335D01*
X949276D01*
X948324Y-908811D01*
X947372Y-909763D01*
X946896Y-911191D01*
Y-912143D01*
X947372Y-913572D01*
X948324Y-914524D01*
X949276Y-915000D01*
X950704D01*
X951657Y-914524D01*
X952609Y-913572D01*
X959988Y-909763D02*
X959512Y-908811D01*
X958084Y-908335D01*
X956656D01*
X955227Y-908811D01*
X954751Y-909763D01*
X955227Y-910715D01*
X956180Y-911191D01*
X958560Y-911667D01*
X959512Y-912143D01*
X959988Y-913096D01*
Y-913572D01*
X959512Y-914524D01*
X958084Y-915000D01*
X956656D01*
X955227Y-914524D01*
X954751Y-913572D01*
X967320Y-909763D02*
X966844Y-908811D01*
X965416Y-908335D01*
X963987D01*
X962559Y-908811D01*
X962083Y-909763D01*
X962559Y-910715D01*
X963511Y-911191D01*
X965892Y-911667D01*
X966844Y-912143D01*
X967320Y-913096D01*
Y-913572D01*
X966844Y-914524D01*
X965416Y-915000D01*
X963987D01*
X962559Y-914524D01*
X962083Y-913572D01*
X911665Y-886430D02*
X910713Y-885478D01*
X909285Y-885002D01*
X907380D01*
X905952Y-885478D01*
X905000Y-886430D01*
Y-887383D01*
X905476Y-888335D01*
X905952Y-888811D01*
X906904Y-889287D01*
X909761Y-890239D01*
X910713Y-890715D01*
X911189Y-891191D01*
X911665Y-892143D01*
Y-893572D01*
X910713Y-894524D01*
X909285Y-895000D01*
X907380D01*
X905952Y-894524D01*
X905000Y-893572D01*
X914855Y-885002D02*
X915331Y-885478D01*
X915807Y-885002D01*
X915331Y-884526D01*
X914855Y-885002D01*
X915331Y-888335D02*
Y-895000D01*
X922806Y-888335D02*
X917569Y-895000D01*
Y-888335D02*
X922806D01*
X917569Y-895000D02*
X922806D01*
X924901Y-891191D02*
X930614D01*
Y-890239D01*
X930137Y-889287D01*
X929661Y-888811D01*
X928709Y-888335D01*
X927281D01*
X926329Y-888811D01*
X925377Y-889763D01*
X924901Y-891191D01*
Y-892143D01*
X925377Y-893572D01*
X926329Y-894524D01*
X927281Y-895000D01*
X928709D01*
X929661Y-894524D01*
X930614Y-893572D01*
D76*
X-252000Y149000D02*
X-252670Y151500D01*
X-254500Y153330D01*
X-257000Y154000D01*
X-259500Y153330D01*
X-261330Y151500D01*
X-262000Y149000D01*
X-261330Y146500D01*
X-259500Y144670D01*
X-257000Y144000D01*
X-254500Y144670D01*
X-252670Y146500D01*
X-252000Y149000D01*
X-175359Y179651D02*
X-176250Y181801D01*
X-178401Y182692D01*
X-180551Y181801D01*
X-181442Y179651D01*
X-180551Y177500D01*
X-178401Y176609D01*
X-176250Y177500D01*
X-175359Y179651D01*
X235215Y-3965D02*
X234545Y-1464D01*
X232715Y366D01*
X230215Y1036D01*
X227715Y366D01*
X225884Y-1464D01*
X225215Y-3965D01*
X225884Y-6464D01*
X227715Y-8295D01*
X230215Y-8964D01*
X232715Y-8295D01*
X234545Y-6464D01*
X235215Y-3965D01*
X126877Y-98440D02*
X125987Y-96290D01*
X123836Y-95399D01*
X121686Y-96290D01*
X120795Y-98440D01*
X121686Y-100591D01*
X123836Y-101482D01*
X125987Y-100591D01*
X126877Y-98440D01*
X215500Y-212250D02*
X214830Y-209750D01*
X213000Y-207920D01*
X210500Y-207250D01*
X208000Y-207920D01*
X206170Y-209750D01*
X205500Y-212250D01*
X206170Y-214750D01*
X208000Y-216580D01*
X210500Y-217250D01*
X213000Y-216580D01*
X214830Y-214750D01*
X215500Y-212250D01*
X131750Y-358500D02*
X131080Y-356000D01*
X129250Y-354170D01*
X126750Y-353500D01*
X124250Y-354170D01*
X122420Y-356000D01*
X121750Y-358500D01*
X122420Y-361000D01*
X124250Y-362830D01*
X126750Y-363500D01*
X129250Y-362830D01*
X131080Y-361000D01*
X131750Y-358500D01*
X208535Y-318750D02*
X207866Y-316250D01*
X206035Y-314420D01*
X203535Y-313750D01*
X201035Y-314420D01*
X199205Y-316250D01*
X198535Y-318750D01*
X199205Y-321250D01*
X201035Y-323080D01*
X203535Y-323750D01*
X206035Y-323080D01*
X207866Y-321250D01*
X208535Y-318750D01*
X256465Y-138965D02*
X255795Y-136465D01*
X253965Y-134634D01*
X251465Y-133965D01*
X248965Y-134634D01*
X247134Y-136465D01*
X246465Y-138965D01*
X247134Y-141465D01*
X248965Y-143295D01*
X251465Y-143965D01*
X253965Y-143295D01*
X255795Y-141465D01*
X256465Y-138965D01*
X201041Y121000D02*
X200151Y123151D01*
X198000Y124041D01*
X195849Y123151D01*
X194959Y121000D01*
X195849Y118849D01*
X198000Y117959D01*
X200151Y118849D01*
X201041Y121000D01*
X131041Y121000D02*
X130150Y123151D01*
X128000Y124041D01*
X125849Y123151D01*
X124959Y121000D01*
X125849Y118849D01*
X128000Y117959D01*
X130150Y118849D01*
X131041Y121000D01*
X56041Y121000D02*
X55150Y123151D01*
X53000Y124042D01*
X50849Y123151D01*
X49959Y121000D01*
X50849Y118849D01*
X53000Y117959D01*
X55150Y118849D01*
X56041Y121000D01*
X201041Y221000D02*
X200151Y223151D01*
X198000Y224041D01*
X195849Y223151D01*
X194959Y221000D01*
X195849Y218849D01*
X198000Y217959D01*
X200151Y218849D01*
X201041Y221000D01*
X131041Y221000D02*
X130150Y223151D01*
X128000Y224042D01*
X125849Y223151D01*
X124959Y221000D01*
X125849Y218850D01*
X128000Y217959D01*
X130150Y218850D01*
X131041Y221000D01*
X61041Y221000D02*
X60150Y223151D01*
X58000Y224042D01*
X55849Y223151D01*
X54959Y221000D01*
X55849Y218850D01*
X58000Y217959D01*
X60150Y218850D01*
X61041Y221000D01*
X-508959Y230500D02*
X-509850Y232651D01*
X-512000Y233541D01*
X-514151Y232651D01*
X-515041Y230500D01*
X-514151Y228349D01*
X-512000Y227459D01*
X-509850Y228349D01*
X-508959Y230500D01*
X-156609Y118401D02*
X-157500Y120551D01*
X-159651Y121442D01*
X-161801Y120551D01*
X-162692Y118401D01*
X-161801Y116250D01*
X-159651Y115359D01*
X-157500Y116250D01*
X-156609Y118401D01*
X-48519Y197586D02*
X-49409Y199737D01*
X-51560Y200627D01*
X-53710Y199737D01*
X-54601Y197586D01*
X-53710Y195436D01*
X-51560Y194545D01*
X-49409Y195436D01*
X-48519Y197586D01*
X-206000Y184000D02*
X-193500D01*
X-206000D02*
Y186500D01*
Y213500D02*
Y216000D01*
X-193500D01*
X-186500D02*
X-174000D01*
Y213500D02*
Y216000D01*
Y184000D02*
Y186500D01*
X-186500Y184000D02*
X-174000D01*
X251500Y-85000D02*
Y-10000D01*
X308500D01*
X251500Y-85000D02*
X308500D01*
X302000Y-51500D02*
X308500D01*
X302000D02*
Y-43500D01*
X308500D01*
Y-85000D02*
Y-51500D01*
Y-43500D02*
Y-10000D01*
X255000Y-13500D02*
X306000D01*
X255000Y-81500D02*
Y-13500D01*
Y-81500D02*
X306000D01*
Y-55500D01*
X298000D02*
X306000D01*
X298000D02*
Y-39500D01*
X306000D01*
Y-13500D01*
X308500Y-60500D02*
X314000Y-66000D01*
X308500Y-60500D02*
X314000Y-55000D01*
Y-66000D02*
Y-55000D01*
X-40000Y315999D02*
Y310000D01*
Y315999D02*
X-37429D01*
X-36572Y315713D01*
X-36286Y315427D01*
X-36001Y314856D01*
Y314285D01*
X-36286Y313713D01*
X-36572Y313428D01*
X-37429Y313142D01*
X-40000D01*
X-38000D02*
X-36001Y310000D01*
X-34087Y315999D02*
X-30945D01*
X-32659Y313713D01*
X-31802D01*
X-31230Y313428D01*
X-30945Y313142D01*
X-30659Y312285D01*
Y311714D01*
X-30945Y310857D01*
X-31516Y310286D01*
X-32373Y310000D01*
X-33230D01*
X-34087Y310286D01*
X-34373Y310571D01*
X-34658Y311143D01*
X-25889Y315999D02*
X-28745D01*
X-29031Y313428D01*
X-28745Y313713D01*
X-27888Y313999D01*
X-27031D01*
X-26174Y313713D01*
X-25603Y313142D01*
X-25317Y312285D01*
Y311714D01*
X-25603Y310857D01*
X-26174Y310286D01*
X-27031Y310000D01*
X-27888D01*
X-28745Y310286D01*
X-29031Y310571D01*
X-29317Y311143D01*
X-20547Y315142D02*
X-20833Y315713D01*
X-21690Y315999D01*
X-22261D01*
X-23118Y315713D01*
X-23689Y314856D01*
X-23975Y313428D01*
Y312000D01*
X-23689Y310857D01*
X-23118Y310286D01*
X-22261Y310000D01*
X-21975D01*
X-21118Y310286D01*
X-20547Y310857D01*
X-20261Y311714D01*
Y312000D01*
X-20547Y312857D01*
X-21118Y313428D01*
X-21975Y313713D01*
X-22261D01*
X-23118Y313428D01*
X-23689Y312857D01*
X-23975Y312000D01*
X-40000Y305999D02*
Y300000D01*
Y305999D02*
X-37429D01*
X-36572Y305713D01*
X-36286Y305427D01*
X-36001Y304856D01*
Y304285D01*
X-36286Y303713D01*
X-36572Y303428D01*
X-37429Y303142D01*
X-40000D01*
X-38000D02*
X-36001Y300000D01*
X-34087Y305999D02*
X-30945D01*
X-32659Y303713D01*
X-31802D01*
X-31230Y303428D01*
X-30945Y303142D01*
X-30659Y302285D01*
Y301714D01*
X-30945Y300857D01*
X-31516Y300286D01*
X-32373Y300000D01*
X-33230D01*
X-34087Y300286D01*
X-34373Y300571D01*
X-34658Y301143D01*
X-25889Y305999D02*
X-28745D01*
X-29031Y303428D01*
X-28745Y303713D01*
X-27888Y303999D01*
X-27031D01*
X-26174Y303713D01*
X-25603Y303142D01*
X-25317Y302285D01*
Y301714D01*
X-25603Y300857D01*
X-26174Y300286D01*
X-27031Y300000D01*
X-27888D01*
X-28745Y300286D01*
X-29031Y300571D01*
X-29317Y301143D01*
X-20547Y305999D02*
X-23404D01*
X-23689Y303428D01*
X-23404Y303713D01*
X-22547Y303999D01*
X-21690D01*
X-20833Y303713D01*
X-20261Y303142D01*
X-19976Y302285D01*
Y301714D01*
X-20261Y300857D01*
X-20833Y300286D01*
X-21690Y300000D01*
X-22547D01*
X-23404Y300286D01*
X-23689Y300571D01*
X-23975Y301143D01*
X-40000Y270999D02*
Y265000D01*
Y270999D02*
X-37429D01*
X-36572Y270713D01*
X-36286Y270427D01*
X-36001Y269856D01*
Y269285D01*
X-36286Y268713D01*
X-36572Y268428D01*
X-37429Y268142D01*
X-40000D01*
X-38000D02*
X-36001Y265000D01*
X-34087Y270999D02*
X-30945D01*
X-32659Y268713D01*
X-31802D01*
X-31230Y268428D01*
X-30945Y268142D01*
X-30659Y267285D01*
Y266714D01*
X-30945Y265857D01*
X-31516Y265286D01*
X-32373Y265000D01*
X-33230D01*
X-34087Y265286D01*
X-34373Y265571D01*
X-34658Y266143D01*
X-25889Y270999D02*
X-28745D01*
X-29031Y268428D01*
X-28745Y268713D01*
X-27888Y268999D01*
X-27031D01*
X-26174Y268713D01*
X-25603Y268142D01*
X-25317Y267285D01*
Y266714D01*
X-25603Y265857D01*
X-26174Y265286D01*
X-27031Y265000D01*
X-27888D01*
X-28745Y265286D01*
X-29031Y265571D01*
X-29317Y266143D01*
X-21118Y270999D02*
X-23975Y267000D01*
X-19690D01*
X-21118Y270999D02*
Y265000D01*
X-40000Y259749D02*
Y253750D01*
Y259749D02*
X-37429D01*
X-36572Y259463D01*
X-36286Y259177D01*
X-36001Y258606D01*
Y258035D01*
X-36286Y257463D01*
X-36572Y257178D01*
X-37429Y256892D01*
X-40000D01*
X-38000D02*
X-36001Y253750D01*
X-34087Y259749D02*
X-30945D01*
X-32659Y257463D01*
X-31802D01*
X-31230Y257178D01*
X-30945Y256892D01*
X-30659Y256035D01*
Y255464D01*
X-30945Y254607D01*
X-31516Y254036D01*
X-32373Y253750D01*
X-33230D01*
X-34087Y254036D01*
X-34373Y254321D01*
X-34658Y254893D01*
X-25889Y259749D02*
X-28745D01*
X-29031Y257178D01*
X-28745Y257463D01*
X-27888Y257749D01*
X-27031D01*
X-26174Y257463D01*
X-25603Y256892D01*
X-25317Y256035D01*
Y255464D01*
X-25603Y254607D01*
X-26174Y254036D01*
X-27031Y253750D01*
X-27888D01*
X-28745Y254036D01*
X-29031Y254321D01*
X-29317Y254893D01*
X-23404Y259749D02*
X-20261D01*
X-21975Y257463D01*
X-21118D01*
X-20547Y257178D01*
X-20261Y256892D01*
X-19976Y256035D01*
Y255464D01*
X-20261Y254607D01*
X-20833Y254036D01*
X-21690Y253750D01*
X-22547D01*
X-23404Y254036D01*
X-23689Y254321D01*
X-23975Y254893D01*
X-193215Y328321D02*
X-193501Y328892D01*
X-194072Y329463D01*
X-194643Y329749D01*
X-195786D01*
X-196357Y329463D01*
X-196929Y328892D01*
X-197214Y328321D01*
X-197500Y327463D01*
Y326035D01*
X-197214Y325178D01*
X-196929Y324607D01*
X-196357Y324036D01*
X-195786Y323750D01*
X-194643D01*
X-194072Y324036D01*
X-193501Y324607D01*
X-193215Y325178D01*
X-190959Y329749D02*
X-187816D01*
X-189530Y327463D01*
X-188673D01*
X-188102Y327178D01*
X-187816Y326892D01*
X-187531Y326035D01*
Y325464D01*
X-187816Y324607D01*
X-188388Y324036D01*
X-189245Y323750D01*
X-190102D01*
X-190959Y324036D01*
X-191244Y324321D01*
X-191530Y324893D01*
X-182760Y329749D02*
X-185617D01*
X-185903Y327178D01*
X-185617Y327463D01*
X-184760Y327749D01*
X-183903D01*
X-183046Y327463D01*
X-182475Y326892D01*
X-182189Y326035D01*
Y325464D01*
X-182475Y324607D01*
X-183046Y324036D01*
X-183903Y323750D01*
X-184760D01*
X-185617Y324036D01*
X-185903Y324321D01*
X-186188Y324893D01*
X-177133Y327749D02*
X-177419Y326892D01*
X-177990Y326321D01*
X-178847Y326035D01*
X-179133D01*
X-179989Y326321D01*
X-180561Y326892D01*
X-180847Y327749D01*
Y328035D01*
X-180561Y328892D01*
X-179989Y329463D01*
X-179133Y329749D01*
X-178847D01*
X-177990Y329463D01*
X-177419Y328892D01*
X-177133Y327749D01*
Y326321D01*
X-177419Y324893D01*
X-177990Y324036D01*
X-178847Y323750D01*
X-179418D01*
X-180275Y324036D01*
X-180561Y324607D01*
X-88215Y309571D02*
X-88501Y310142D01*
X-89072Y310713D01*
X-89643Y310999D01*
X-90786D01*
X-91357Y310713D01*
X-91929Y310142D01*
X-92214Y309571D01*
X-92500Y308713D01*
Y307285D01*
X-92214Y306428D01*
X-91929Y305857D01*
X-91357Y305286D01*
X-90786Y305000D01*
X-89643D01*
X-89072Y305286D01*
X-88501Y305857D01*
X-88215Y306428D01*
X-85959Y310999D02*
X-82816D01*
X-84530Y308713D01*
X-83673D01*
X-83102Y308428D01*
X-82816Y308142D01*
X-82531Y307285D01*
Y306714D01*
X-82816Y305857D01*
X-83388Y305286D01*
X-84245Y305000D01*
X-85102D01*
X-85959Y305286D01*
X-86244Y305571D01*
X-86530Y306143D01*
X-77760Y310999D02*
X-80617D01*
X-80903Y308428D01*
X-80617Y308713D01*
X-79760Y308999D01*
X-78903D01*
X-78046Y308713D01*
X-77475Y308142D01*
X-77189Y307285D01*
Y306714D01*
X-77475Y305857D01*
X-78046Y305286D01*
X-78903Y305000D01*
X-79760D01*
X-80617Y305286D01*
X-80903Y305571D01*
X-81188Y306143D01*
X-74418Y310999D02*
X-75275Y310713D01*
X-75561Y310142D01*
Y309571D01*
X-75275Y308999D01*
X-74704Y308713D01*
X-73561Y308428D01*
X-72704Y308142D01*
X-72133Y307571D01*
X-71847Y307000D01*
Y306143D01*
X-72133Y305571D01*
X-72419Y305286D01*
X-73276Y305000D01*
X-74418D01*
X-75275Y305286D01*
X-75561Y305571D01*
X-75847Y306143D01*
Y307000D01*
X-75561Y307571D01*
X-74990Y308142D01*
X-74132Y308428D01*
X-72990Y308713D01*
X-72419Y308999D01*
X-72133Y309571D01*
Y310142D01*
X-72419Y310713D01*
X-73276Y310999D01*
X-74418D01*
X-193215Y283320D02*
X-193501Y283892D01*
X-194072Y284463D01*
X-194643Y284749D01*
X-195786D01*
X-196357Y284463D01*
X-196929Y283892D01*
X-197214Y283320D01*
X-197500Y282463D01*
Y281035D01*
X-197214Y280178D01*
X-196929Y279607D01*
X-196357Y279036D01*
X-195786Y278750D01*
X-194643D01*
X-194072Y279036D01*
X-193501Y279607D01*
X-193215Y280178D01*
X-190959Y284749D02*
X-187816D01*
X-189530Y282463D01*
X-188673D01*
X-188102Y282178D01*
X-187816Y281892D01*
X-187531Y281035D01*
Y280464D01*
X-187816Y279607D01*
X-188388Y279036D01*
X-189245Y278750D01*
X-190102D01*
X-190959Y279036D01*
X-191244Y279321D01*
X-191530Y279893D01*
X-182760Y284749D02*
X-185617D01*
X-185903Y282178D01*
X-185617Y282463D01*
X-184760Y282749D01*
X-183903D01*
X-183046Y282463D01*
X-182475Y281892D01*
X-182189Y281035D01*
Y280464D01*
X-182475Y279607D01*
X-183046Y279036D01*
X-183903Y278750D01*
X-184760D01*
X-185617Y279036D01*
X-185903Y279321D01*
X-186188Y279893D01*
X-177419Y283892D02*
X-177704Y284463D01*
X-178561Y284749D01*
X-179133D01*
X-179989Y284463D01*
X-180561Y283606D01*
X-180847Y282178D01*
Y280750D01*
X-180561Y279607D01*
X-179989Y279036D01*
X-179133Y278750D01*
X-178847D01*
X-177990Y279036D01*
X-177419Y279607D01*
X-177133Y280464D01*
Y280750D01*
X-177419Y281607D01*
X-177990Y282178D01*
X-178847Y282463D01*
X-179133D01*
X-179989Y282178D01*
X-180561Y281607D01*
X-180847Y280750D01*
X-88215Y263321D02*
X-88501Y263892D01*
X-89072Y264463D01*
X-89643Y264749D01*
X-90786D01*
X-91357Y264463D01*
X-91929Y263892D01*
X-92214Y263321D01*
X-92500Y262463D01*
Y261035D01*
X-92214Y260178D01*
X-91929Y259607D01*
X-91357Y259036D01*
X-90786Y258750D01*
X-89643D01*
X-89072Y259036D01*
X-88501Y259607D01*
X-88215Y260178D01*
X-85959Y264749D02*
X-82816D01*
X-84530Y262463D01*
X-83673D01*
X-83102Y262178D01*
X-82816Y261892D01*
X-82531Y261035D01*
Y260464D01*
X-82816Y259607D01*
X-83388Y259036D01*
X-84245Y258750D01*
X-85102D01*
X-85959Y259036D01*
X-86244Y259321D01*
X-86530Y259893D01*
X-77760Y264749D02*
X-80617D01*
X-80903Y262178D01*
X-80617Y262463D01*
X-79760Y262749D01*
X-78903D01*
X-78046Y262463D01*
X-77475Y261892D01*
X-77189Y261035D01*
Y260464D01*
X-77475Y259607D01*
X-78046Y259036D01*
X-78903Y258750D01*
X-79760D01*
X-80617Y259036D01*
X-80903Y259321D01*
X-81188Y259893D01*
X-72419Y264749D02*
X-75275D01*
X-75561Y262178D01*
X-75275Y262463D01*
X-74418Y262749D01*
X-73561D01*
X-72704Y262463D01*
X-72133Y261892D01*
X-71847Y261035D01*
Y260464D01*
X-72133Y259607D01*
X-72704Y259036D01*
X-73561Y258750D01*
X-74418D01*
X-75275Y259036D01*
X-75561Y259321D01*
X-75847Y259893D01*
X-193215Y238321D02*
X-193501Y238892D01*
X-194072Y239463D01*
X-194643Y239749D01*
X-195786D01*
X-196357Y239463D01*
X-196929Y238892D01*
X-197214Y238321D01*
X-197500Y237463D01*
Y236035D01*
X-197214Y235178D01*
X-196929Y234607D01*
X-196357Y234036D01*
X-195786Y233750D01*
X-194643D01*
X-194072Y234036D01*
X-193501Y234607D01*
X-193215Y235178D01*
X-190959Y239749D02*
X-187816D01*
X-189530Y237463D01*
X-188673D01*
X-188102Y237178D01*
X-187816Y236892D01*
X-187531Y236035D01*
Y235464D01*
X-187816Y234607D01*
X-188388Y234036D01*
X-189245Y233750D01*
X-190102D01*
X-190959Y234036D01*
X-191244Y234321D01*
X-191530Y234893D01*
X-182760Y239749D02*
X-185617D01*
X-185903Y237178D01*
X-185617Y237463D01*
X-184760Y237749D01*
X-183903D01*
X-183046Y237463D01*
X-182475Y236892D01*
X-182189Y236035D01*
Y235464D01*
X-182475Y234607D01*
X-183046Y234036D01*
X-183903Y233750D01*
X-184760D01*
X-185617Y234036D01*
X-185903Y234321D01*
X-186188Y234893D01*
X-180275Y239749D02*
X-177133D01*
X-178847Y237463D01*
X-177990D01*
X-177419Y237178D01*
X-177133Y236892D01*
X-176847Y236035D01*
Y235464D01*
X-177133Y234607D01*
X-177704Y234036D01*
X-178561Y233750D01*
X-179418D01*
X-180275Y234036D01*
X-180561Y234321D01*
X-180847Y234893D01*
X-275000Y-55251D02*
X-272715Y-61250D01*
X-270430Y-55251D02*
X-272715Y-61250D01*
X-266231Y-55251D02*
X-269087D01*
X-269373Y-57822D01*
X-269087Y-57537D01*
X-268230Y-57251D01*
X-267373D01*
X-266516Y-57537D01*
X-265945Y-58108D01*
X-265659Y-58965D01*
Y-59536D01*
X-265945Y-60393D01*
X-266516Y-60964D01*
X-267373Y-61250D01*
X-268230D01*
X-269087Y-60964D01*
X-269373Y-60679D01*
X-269658Y-60107D01*
X-260032Y-56680D02*
X-260317Y-56108D01*
X-260889Y-55537D01*
X-261460Y-55251D01*
X-262603D01*
X-263174Y-55537D01*
X-263745Y-56108D01*
X-264031Y-56680D01*
X-264317Y-57537D01*
Y-58965D01*
X-264031Y-59822D01*
X-263745Y-60393D01*
X-263174Y-60964D01*
X-262603Y-61250D01*
X-261460D01*
X-260889Y-60964D01*
X-260317Y-60393D01*
X-260032Y-59822D01*
X-268750Y-29001D02*
Y-35000D01*
X-267493Y-29001D02*
X-266065Y-35000D01*
X-264637Y-29001D02*
X-266065Y-35000D01*
X-264637Y-29001D02*
X-263208Y-35000D01*
X-261780Y-29001D02*
X-263208Y-35000D01*
X-281250Y-12751D02*
Y-18750D01*
X-279993Y-12751D02*
X-277708Y-18750D01*
X-275423Y-12751D02*
X-277708Y-18750D01*
X-265000Y4749D02*
Y-1250D01*
X-263743Y4749D02*
Y464D01*
X-263458Y-393D01*
X-262886Y-964D01*
X-262029Y-1250D01*
X-261458D01*
X-260601Y-964D01*
X-260030Y-393D01*
X-259744Y464D01*
Y4749D01*
X-257251Y-87358D02*
X-257822Y-86787D01*
X-258679Y-86501D01*
X-259822D01*
X-260679Y-86787D01*
X-261250Y-87358D01*
Y-87929D01*
X-260964Y-88501D01*
X-260679Y-88786D01*
X-260107Y-89072D01*
X-258393Y-89643D01*
X-257822Y-89929D01*
X-257537Y-90215D01*
X-257251Y-90786D01*
Y-91643D01*
X-257822Y-92214D01*
X-258679Y-92500D01*
X-259822D01*
X-260679Y-92214D01*
X-261250Y-91643D01*
X-255908Y-94500D02*
X-251338D01*
X-250567Y-86501D02*
Y-92500D01*
Y-86501D02*
X-247996D01*
X-247139Y-86787D01*
X-246853Y-87073D01*
X-246567Y-87644D01*
Y-88215D01*
X-246853Y-88786D01*
X-247139Y-89072D01*
X-247996Y-89358D01*
X-250567D02*
X-247996D01*
X-247139Y-89643D01*
X-246853Y-89929D01*
X-246567Y-90500D01*
Y-91357D01*
X-246853Y-91929D01*
X-247139Y-92214D01*
X-247996Y-92500D01*
X-250567D01*
X-245225Y-86501D02*
Y-92500D01*
Y-86501D02*
X-242654D01*
X-241797Y-86787D01*
X-241511Y-87073D01*
X-241226Y-87644D01*
Y-88215D01*
X-241511Y-88786D01*
X-241797Y-89072D01*
X-242654Y-89358D01*
X-245225D01*
X-243225D02*
X-241226Y-92500D01*
X-239883Y-86501D02*
Y-92500D01*
X-235884Y-86501D02*
X-239883Y-90500D01*
X-238455Y-89072D02*
X-235884Y-92500D01*
X-89465Y218320D02*
X-89751Y218892D01*
X-90322Y219463D01*
X-90893Y219749D01*
X-92036D01*
X-92607Y219463D01*
X-93179Y218892D01*
X-93464Y218320D01*
X-93750Y217463D01*
Y216035D01*
X-93464Y215178D01*
X-93179Y214607D01*
X-92607Y214036D01*
X-92036Y213750D01*
X-90893D01*
X-90322Y214036D01*
X-89751Y214607D01*
X-89465Y215178D01*
X-87209Y219749D02*
X-84066D01*
X-85780Y217463D01*
X-84923D01*
X-84352Y217178D01*
X-84066Y216892D01*
X-83781Y216035D01*
Y215464D01*
X-84066Y214607D01*
X-84638Y214036D01*
X-85495Y213750D01*
X-86352D01*
X-87209Y214036D01*
X-87494Y214321D01*
X-87780Y214893D01*
X-79010Y219749D02*
X-81867D01*
X-82153Y217178D01*
X-81867Y217463D01*
X-81010Y217749D01*
X-80153D01*
X-79296Y217463D01*
X-78725Y216892D01*
X-78439Y216035D01*
Y215464D01*
X-78725Y214607D01*
X-79296Y214036D01*
X-80153Y213750D01*
X-81010D01*
X-81867Y214036D01*
X-82153Y214321D01*
X-82438Y214893D01*
X-76811Y218320D02*
Y218606D01*
X-76525Y219177D01*
X-76240Y219463D01*
X-75668Y219749D01*
X-74526D01*
X-73954Y219463D01*
X-73669Y219177D01*
X-73383Y218606D01*
Y218035D01*
X-73669Y217463D01*
X-74240Y216607D01*
X-77097Y213750D01*
X-73097D01*
X214001Y55000D02*
X220000D01*
X214001D02*
Y57571D01*
X214287Y58428D01*
X214573Y58713D01*
X215144Y58999D01*
X215715D01*
X216287Y58713D01*
X216572Y58428D01*
X216858Y57571D01*
Y55000D01*
Y57000D02*
X220000Y58999D01*
X214001Y63198D02*
X218000Y60342D01*
Y64626D01*
X214001Y63198D02*
X220000D01*
X214001Y68540D02*
X218000Y65683D01*
Y69968D01*
X214001Y68540D02*
X220000D01*
X214001Y71596D02*
Y74739D01*
X216287Y73025D01*
Y73882D01*
X216572Y74453D01*
X216858Y74739D01*
X217715Y75024D01*
X218286D01*
X219143Y74739D01*
X219714Y74167D01*
X220000Y73310D01*
Y72453D01*
X219714Y71596D01*
X219429Y71311D01*
X218857Y71025D01*
X-40000Y224749D02*
Y218750D01*
Y224749D02*
X-37429D01*
X-36572Y224463D01*
X-36286Y224177D01*
X-36001Y223606D01*
Y223035D01*
X-36286Y222463D01*
X-36572Y222178D01*
X-37429Y221892D01*
X-40000D01*
X-38000D02*
X-36001Y218750D01*
X-34087Y224749D02*
X-30945D01*
X-32659Y222463D01*
X-31802D01*
X-31230Y222178D01*
X-30945Y221892D01*
X-30659Y221035D01*
Y220464D01*
X-30945Y219607D01*
X-31516Y219036D01*
X-32373Y218750D01*
X-33230D01*
X-34087Y219036D01*
X-34373Y219321D01*
X-34658Y219893D01*
X-25889Y224749D02*
X-28745D01*
X-29031Y222178D01*
X-28745Y222463D01*
X-27888Y222749D01*
X-27031D01*
X-26174Y222463D01*
X-25603Y221892D01*
X-25317Y221035D01*
Y220464D01*
X-25603Y219607D01*
X-26174Y219036D01*
X-27031Y218750D01*
X-27888D01*
X-28745Y219036D01*
X-29031Y219321D01*
X-29317Y219893D01*
X-23689Y223321D02*
Y223606D01*
X-23404Y224177D01*
X-23118Y224463D01*
X-22547Y224749D01*
X-21404D01*
X-20833Y224463D01*
X-20547Y224177D01*
X-20261Y223606D01*
Y223035D01*
X-20547Y222463D01*
X-21118Y221607D01*
X-23975Y218750D01*
X-19976D01*
X-40000Y214749D02*
Y208750D01*
Y214749D02*
X-37429D01*
X-36572Y214463D01*
X-36286Y214177D01*
X-36001Y213606D01*
Y213035D01*
X-36286Y212463D01*
X-36572Y212178D01*
X-37429Y211892D01*
X-40000D01*
X-38000D02*
X-36001Y208750D01*
X-34087Y214749D02*
X-30945D01*
X-32659Y212463D01*
X-31802D01*
X-31230Y212178D01*
X-30945Y211892D01*
X-30659Y211035D01*
Y210464D01*
X-30945Y209607D01*
X-31516Y209036D01*
X-32373Y208750D01*
X-33230D01*
X-34087Y209036D01*
X-34373Y209321D01*
X-34658Y209893D01*
X-25889Y214749D02*
X-28745D01*
X-29031Y212178D01*
X-28745Y212463D01*
X-27888Y212749D01*
X-27031D01*
X-26174Y212463D01*
X-25603Y211892D01*
X-25317Y211035D01*
Y210464D01*
X-25603Y209607D01*
X-26174Y209036D01*
X-27031Y208750D01*
X-27888D01*
X-28745Y209036D01*
X-29031Y209321D01*
X-29317Y209893D01*
X-23975Y213606D02*
X-23404Y213892D01*
X-22547Y214749D01*
Y208750D01*
X-260000Y35393D02*
X-256001Y42249D01*
X-255601D02*
Y36250D01*
Y42249D02*
X-251887D01*
X-255601Y39392D02*
X-253316D01*
X-251202Y42249D02*
Y36250D01*
X-247774D01*
X-245117Y42249D02*
Y36250D01*
X-247117Y42249D02*
X-243118D01*
X147298Y-354988D02*
X146692Y-354786D01*
X145884D01*
X145278Y-354988D01*
X144470Y-355796D01*
X144268Y-356402D01*
X144268Y-357210D01*
X144470Y-357816D01*
X144874Y-358624D01*
X145884Y-359634D01*
X146692Y-360038D01*
X147298Y-360240D01*
X148106D01*
X148712Y-360038D01*
X149520Y-359230D01*
X149722Y-358624D01*
Y-357816D01*
X149520Y-357210D01*
X148914Y-356604D01*
X147904Y-357614D02*
X148914Y-356604D01*
X147258Y-353009D02*
X151499Y-357251D01*
X147258Y-353009D02*
X154327Y-354423D01*
X150085Y-350181D02*
X154327Y-354423D01*
X151257Y-349010D02*
X155499Y-353251D01*
X151257Y-349010D02*
X152671Y-347596D01*
X153479Y-347192D01*
X154287D01*
X154893Y-347394D01*
X155701Y-347798D01*
X156711Y-348808D01*
X157115Y-349616D01*
X157317Y-350221D01*
Y-351030D01*
X156913Y-351837D01*
X155499Y-353251D01*
X189798Y-331238D02*
X189192Y-331036D01*
X188384D01*
X187778Y-331238D01*
X186970Y-332046D01*
X186768Y-332652D01*
X186768Y-333460D01*
X186970Y-334066D01*
X187374Y-334874D01*
X188384Y-335884D01*
X189192Y-336288D01*
X189798Y-336490D01*
X190606D01*
X191212Y-336288D01*
X192020Y-335480D01*
X192222Y-334874D01*
Y-334066D01*
X192020Y-333460D01*
X191414Y-332854D01*
X190404Y-333864D02*
X191414Y-332854D01*
X189758Y-329259D02*
X193999Y-333501D01*
X189758Y-329259D02*
X196827Y-330673D01*
X192585Y-326431D02*
X196827Y-330673D01*
X193757Y-325260D02*
X197999Y-329501D01*
X193757Y-325260D02*
X195171Y-323846D01*
X195979Y-323442D01*
X196787D01*
X197393Y-323644D01*
X198201Y-324048D01*
X199211Y-325058D01*
X199615Y-325866D01*
X199817Y-326471D01*
Y-327280D01*
X199413Y-328087D01*
X197999Y-329501D01*
X238220Y-284066D02*
X238018Y-283864D01*
X237816Y-283258D01*
Y-282854D01*
X238018Y-282248D01*
X238826Y-281440D01*
X239432Y-281238D01*
X239836D01*
X240442Y-281440D01*
X240846Y-281844D01*
X241048Y-282450D01*
X241250Y-283460D01*
Y-287500D01*
X244078Y-284672D01*
X242805Y-277461D02*
X243613Y-282309D01*
X246643Y-279279D01*
X242805Y-277461D02*
X247047Y-281703D01*
X244563Y-275704D02*
X250420Y-278330D01*
X247794Y-272472D02*
X250420Y-278330D01*
X159470Y-327816D02*
X159268Y-327614D01*
X159066Y-327008D01*
Y-326604D01*
X159268Y-325998D01*
X160076Y-325190D01*
X160682Y-324988D01*
X161086D01*
X161692Y-325190D01*
X162096Y-325594D01*
X162298Y-326200D01*
X162500Y-327210D01*
Y-331250D01*
X165328Y-328422D01*
X164055Y-321211D02*
X164863Y-326059D01*
X167893Y-323029D01*
X164055Y-321211D02*
X168297Y-325453D01*
X165813Y-319454D02*
X171670Y-322080D01*
X169044Y-316222D02*
X171670Y-322080D01*
D77*
X-83825Y233575D02*
X-84755Y235820D01*
X-87000Y236750D01*
X-89245Y235820D01*
X-90175Y233575D01*
X-89245Y231330D01*
X-87000Y230400D01*
X-84755Y231330D01*
X-83825Y233575D01*
X-93650Y224500D02*
X-94133Y226930D01*
X-95510Y228990D01*
X-97570Y230367D01*
X-100000Y230850D01*
X-102430Y230367D01*
X-104490Y228990D01*
X-105867Y226930D01*
X-106350Y224500D01*
X-83825Y278575D02*
X-84755Y280820D01*
X-87000Y281750D01*
X-89245Y280820D01*
X-90175Y278575D01*
X-89245Y276330D01*
X-87000Y275400D01*
X-84755Y276330D01*
X-83825Y278575D01*
X-93650Y269500D02*
X-94133Y271930D01*
X-95510Y273990D01*
X-97570Y275367D01*
X-100000Y275850D01*
X-102430Y275367D01*
X-104490Y273990D01*
X-105867Y271930D01*
X-106350Y269500D01*
X-93650Y314500D02*
X-94133Y316930D01*
X-95510Y318990D01*
X-97570Y320367D01*
X-100000Y320850D01*
X-102430Y320367D01*
X-104490Y318990D01*
X-105867Y316930D01*
X-106350Y314500D01*
X-83825Y323575D02*
X-84755Y325820D01*
X-87000Y326750D01*
X-89245Y325820D01*
X-90175Y323575D01*
X-89245Y321330D01*
X-87000Y320400D01*
X-84755Y321330D01*
X-83825Y323575D01*
X-176750Y180000D02*
X-178132Y181902D01*
X-180368Y181176D01*
Y178825D01*
X-178132Y178098D01*
X-176750Y180000D01*
X-268500Y33500D02*
X-269671Y36328D01*
X-272500Y37500D01*
X-272500Y2500D02*
X-269672Y3672D01*
X-268500Y6500D01*
X-286500Y6500D02*
X-285328Y3672D01*
X-282500Y2500D01*
Y37500D02*
X-285328Y36328D01*
X-286500Y33500D01*
X-280000Y-67500D02*
X-282828Y-68672D01*
X-284000Y-71500D01*
X-284000Y-98500D02*
X-282829Y-101328D01*
X-280000Y-102500D01*
X-270000D02*
X-267172Y-101328D01*
X-266000Y-98500D01*
Y-71500D02*
X-267172Y-68672D01*
X-270000Y-67500D01*
X-11350Y204000D02*
X-10867Y201570D01*
X-9490Y199510D01*
X-7430Y198133D01*
X-5000Y197650D01*
X-2570Y198133D01*
X-510Y199510D01*
X867Y201570D01*
X1350Y204000D01*
X-122500Y224500D02*
Y255500D01*
X-77500Y224500D02*
Y255500D01*
X-122500D02*
X-77500D01*
X-122500Y224500D02*
X-106350D01*
X-93650D02*
X-77500D01*
X-122500Y269500D02*
Y300500D01*
X-77500Y269500D02*
Y300500D01*
X-122500D02*
X-77500D01*
X-122500Y269500D02*
X-106350D01*
X-93650D02*
X-77500D01*
X-93650Y314500D02*
X-77500D01*
X-122500D02*
X-106350D01*
X-122500Y345500D02*
X-77500D01*
Y314500D02*
Y345500D01*
X-122500Y314500D02*
Y345500D01*
X-217500Y44850D02*
X-182500Y44850D01*
X-164440Y38500D02*
X-159360Y43580D01*
X-164440Y38500D02*
X-159360Y33420D01*
Y43580D01*
X-217500Y-82150D02*
X-182500Y-82150D01*
X-136000Y161000D02*
X-134000D01*
Y129000D02*
Y161000D01*
X-136000Y129000D02*
X-134000D01*
X-166000D02*
X-164000D01*
X-166000D02*
Y161000D01*
X-164000D01*
X200500Y95500D02*
X214500Y95500D01*
X200500Y95500D02*
X200500Y109500D01*
X214500Y95500D02*
X214500Y109500D01*
X200500Y109500D02*
X214500Y109500D01*
X190750Y106500D02*
Y126500D01*
Y78500D02*
Y98500D01*
X186750Y102500D02*
X190750Y106500D01*
X186750Y102500D02*
X190750Y98500D01*
X166750D02*
X170750Y102500D01*
X166750Y106500D02*
X170750Y102500D01*
X166750Y78500D02*
Y98500D01*
Y106500D02*
Y126500D01*
Y78500D02*
X190750D01*
X166750Y126500D02*
X190750D01*
X-178500Y-159500D02*
Y-105500D01*
X-146500Y-159500D02*
Y-105500D01*
X-178500D02*
X-146500D01*
X-178500Y-159500D02*
X-146500D01*
X219513Y-65474D02*
X226697Y-72658D01*
X183592Y-29553D02*
X190776Y-36737D01*
X133303Y-79842D02*
X140487Y-87026D01*
X169224Y-115763D02*
X176408Y-122947D01*
X133303Y-79842D02*
X183592Y-29553D01*
X176408Y-122947D02*
X226697Y-72658D01*
X145875Y-67270D02*
X188980Y-110375D01*
X151263Y-61882D02*
X194368Y-104987D01*
X210242Y-129742D02*
X232758Y-142742D01*
X197242Y-152258D02*
X219758Y-165258D01*
X-286500Y20000D02*
X-268500Y20000D01*
X-286500Y33500D02*
X-286500Y6500D01*
X-282500Y2500D02*
X-272500D01*
X-268500Y6500D02*
X-268500Y33500D01*
X-282500Y37500D02*
X-272500Y37500D01*
X-7000Y-131000D02*
X17000D01*
X-7000Y-179000D02*
X17000D01*
X-7000D02*
Y-131000D01*
X17000Y-179000D02*
Y-131000D01*
X62925Y-316994D02*
X119494Y-260425D01*
X62925Y-316994D02*
X65047Y-319115D01*
X93331Y-347399D02*
X111716Y-365784D01*
X149899Y-290831D02*
X168284Y-309216D01*
X119494Y-260425D02*
X121615Y-262547D01*
X152021Y-325479D02*
X168284Y-309216D01*
X111716Y-365784D02*
X127979Y-349521D01*
X-280000Y-67500D02*
X-270000D01*
X-266000Y-98500D02*
Y-71500D01*
X-280000Y-102500D02*
X-270000D01*
X-284000Y-98500D02*
Y-71500D01*
Y-85000D02*
X-266000D01*
X287948Y250983D02*
X297589Y239492D01*
X302732Y233364D02*
X312373Y221873D01*
X297096Y233857D02*
X297589Y239492D01*
X297096Y233857D02*
X302732Y233364D01*
X287411Y220508D02*
X287904Y226143D01*
X282268Y226636D02*
X287904Y226143D01*
X287411Y220508D02*
X297052Y209017D01*
X272627Y238127D02*
X282268Y226636D01*
X120750Y106500D02*
Y126500D01*
Y78500D02*
Y98500D01*
X116750Y102500D02*
X120750Y106500D01*
X116750Y102500D02*
X120750Y98500D01*
X96750D02*
X100750Y102500D01*
X96750Y106500D02*
X100750Y102500D01*
X96750Y78500D02*
Y98500D01*
Y106500D02*
Y126500D01*
Y78500D02*
X120750D01*
X96750Y126500D02*
X120750D01*
X55500Y95500D02*
X69500D01*
X55500D02*
Y109500D01*
X69500Y95500D02*
Y109500D01*
X55500D02*
X69500D01*
X200500Y195500D02*
X214500D01*
X200500D02*
Y209500D01*
X214500Y195500D02*
Y209500D01*
X200500D02*
X214500D01*
X130500Y95500D02*
X144500D01*
X130500D02*
Y109500D01*
X144500Y95500D02*
Y109500D01*
X130500D02*
X144500D01*
X130500Y195500D02*
X144500D01*
X130500D02*
Y209500D01*
X144500Y195500D02*
Y209500D01*
X130500D02*
X144500D01*
X-146500Y-214500D02*
Y-160500D01*
X-178500Y-214500D02*
Y-160500D01*
Y-214500D02*
X-146500D01*
X-178500Y-160500D02*
X-146500D01*
X-296000Y-159500D02*
Y-105500D01*
X-264000Y-159500D02*
Y-105500D01*
X-296000D02*
X-264000D01*
X-296000Y-159500D02*
X-264000D01*
X125750Y290500D02*
Y344500D01*
X157750Y290500D02*
Y344500D01*
X125750D02*
X157750D01*
X125750Y290500D02*
X157750D01*
X92000D02*
X124000D01*
X92000Y344500D02*
X124000D01*
Y290500D02*
Y344500D01*
X92000Y290500D02*
Y344500D01*
X241000Y132000D02*
X261000D01*
X269000D02*
X289000D01*
X261000Y132000D02*
X265000Y128000D01*
Y128000D02*
X269000Y132000D01*
X265000Y112000D02*
X269000Y108000D01*
X261000Y108000D02*
X265000Y112000D01*
X269000Y108000D02*
X289000D01*
X241000D02*
X261000D01*
X289000D02*
Y132000D01*
X241000Y108000D02*
Y132000D01*
X60500Y195500D02*
X74500D01*
X60500D02*
Y209500D01*
X74500Y195500D02*
Y209500D01*
X60500D02*
X74500D01*
X-264000Y-214500D02*
Y-160500D01*
X-296000Y-214500D02*
Y-160500D01*
Y-214500D02*
X-264000D01*
X-296000Y-160500D02*
X-264000D01*
X142925Y-274494D02*
X199494Y-217925D01*
X142925Y-274494D02*
X145047Y-276615D01*
X173331Y-304900D02*
X191716Y-323284D01*
X229900Y-248331D02*
X248284Y-266716D01*
X199494Y-217925D02*
X201615Y-220047D01*
X232021Y-282979D02*
X248284Y-266716D01*
X191716Y-323284D02*
X207979Y-307021D01*
X-257500Y-215000D02*
Y-115000D01*
X-192500D01*
Y-215000D02*
Y-115000D01*
X-257500Y-215000D02*
X-192500D01*
X-140000D02*
X-75000D01*
Y-115000D01*
X-140000D02*
X-75000D01*
X-140000Y-215000D02*
Y-115000D01*
X56500Y-234500D02*
X68500D01*
X38500D02*
X50500D01*
X53500Y-237500D02*
X56500Y-234500D01*
X50500D02*
X53500Y-237500D01*
X50500Y-250500D02*
X53500Y-247500D01*
X56500Y-250500D01*
X68500D01*
X38500D02*
X50500D01*
X38500D02*
Y-234500D01*
X68500Y-250500D02*
Y-234500D01*
X56500Y-215750D02*
X68500D01*
X38500D02*
X50500D01*
X53500Y-218750D02*
X56500Y-215750D01*
X50500D02*
X53500Y-218750D01*
X50500Y-231750D02*
X53500Y-228750D01*
X56500Y-231750D01*
X68500D01*
X38500D02*
X50500D01*
X38500D02*
Y-215750D01*
X68500Y-231750D02*
Y-215750D01*
X-44500Y-298499D02*
Y-286499D01*
Y-280499D02*
Y-268499D01*
X-47500Y-283499D02*
X-44500Y-286499D01*
X-47500Y-283499D02*
X-44500Y-280499D01*
X-60500D02*
X-57500Y-283499D01*
X-60500Y-286499D02*
X-57500Y-283499D01*
X-60500Y-298499D02*
Y-286499D01*
Y-280499D02*
Y-268499D01*
X-44500D01*
X-60500Y-298499D02*
X-44500D01*
X-64500D02*
Y-286499D01*
Y-280499D02*
Y-268499D01*
X-67500Y-283499D02*
X-64500Y-286499D01*
X-67500Y-283499D02*
X-64500Y-280499D01*
X-80500D02*
X-77500Y-283499D01*
X-80500Y-286499D02*
X-77500Y-283499D01*
X-80500Y-298499D02*
Y-286499D01*
Y-280499D02*
Y-268499D01*
X-64500D01*
X-80500Y-298499D02*
X-64500D01*
X-197000Y156000D02*
Y160000D01*
Y130000D02*
Y134000D01*
X-243000Y156000D02*
Y160000D01*
Y130000D02*
Y134000D01*
Y160000D02*
X-197000D01*
X-243000Y130000D02*
X-197000D01*
X-256000Y217000D02*
X-224000D01*
X-256000Y163000D02*
X-224000D01*
X-256000D02*
Y217000D01*
X-224000Y163000D02*
Y217000D01*
X-17500Y-285500D02*
X-5500D01*
X500D02*
X12500D01*
X-5500D02*
X-2500Y-282500D01*
X500Y-285500D01*
X-2500Y-272500D02*
X500Y-269500D01*
X-5500D02*
X-2500Y-272500D01*
X-17500Y-269500D02*
X-5500D01*
X500D02*
X12500D01*
Y-285500D02*
Y-269500D01*
X-17500Y-285500D02*
Y-269500D01*
Y-268000D02*
X-5500D01*
X500D02*
X12500D01*
X-5500D02*
X-2500Y-265000D01*
X500Y-268000D01*
X-2500Y-255000D02*
X500Y-252000D01*
X-5500D02*
X-2500Y-255000D01*
X-17500Y-252000D02*
X-5500D01*
X500D02*
X12500D01*
Y-268000D02*
Y-252000D01*
X-17500Y-268000D02*
Y-252000D01*
X64500Y-187000D02*
Y-175000D01*
Y-205000D02*
Y-193000D01*
Y-187000D02*
X67500Y-190000D01*
X64500Y-193000D02*
X67500Y-190000D01*
X77500D02*
X80500Y-193000D01*
X77500Y-190000D02*
X80500Y-187000D01*
Y-175000D01*
Y-205000D02*
Y-193000D01*
X64500Y-205000D02*
X80500D01*
X64500Y-175000D02*
X80500D01*
X44500Y-187000D02*
Y-175000D01*
Y-205000D02*
Y-193000D01*
Y-187000D02*
X47500Y-190000D01*
X44500Y-193000D02*
X47500Y-190000D01*
X57500D02*
X60500Y-193000D01*
X57500Y-190000D02*
X60500Y-187000D01*
Y-175000D01*
Y-205000D02*
Y-193000D01*
X44500Y-205000D02*
X60500D01*
X44500Y-175000D02*
X60500D01*
X39000Y145250D02*
X45000D01*
X-55000Y138768D02*
X-49000D01*
X-27500Y204000D02*
X-11350D01*
X1350D02*
X17500D01*
Y106000D02*
Y204000D01*
X-27500Y106000D02*
Y204000D01*
Y106000D02*
X17500D01*
X297500Y124997D02*
Y110000D01*
Y124997D02*
X303213Y110000D01*
X308926Y124997D02*
X303213Y110000D01*
X308926Y124997D02*
Y110000D01*
X317496Y124997D02*
X316067Y124283D01*
X314639Y122854D01*
X313925Y121426D01*
X313211Y119284D01*
Y115713D01*
X313925Y113571D01*
X314639Y112142D01*
X316067Y110714D01*
X317496Y110000D01*
X320352D01*
X321781Y110714D01*
X323209Y112142D01*
X323923Y113571D01*
X324637Y115713D01*
Y119284D01*
X323923Y121426D01*
X323209Y122854D01*
X321781Y124283D01*
X320352Y124997D01*
X317496D01*
X333135D02*
Y110000D01*
X328136Y124997D02*
X338134D01*
X231253Y-51250D02*
X246250D01*
X231253D02*
Y-44823D01*
X231967Y-42680D01*
X232682Y-41966D01*
X234110Y-41252D01*
X235538D01*
X236966Y-41966D01*
X237680Y-42680D01*
X238395Y-44823D01*
Y-51250D02*
Y-44823D01*
X239109Y-42680D01*
X239823Y-41966D01*
X241251Y-41252D01*
X243393D01*
X244822Y-41966D01*
X245536Y-42680D01*
X246250Y-44823D01*
Y-51250D01*
X231253Y-37896D02*
X246250D01*
X231253D02*
Y-31469D01*
X231967Y-29326D01*
X232682Y-28612D01*
X234110Y-27898D01*
X235538D01*
X236966Y-28612D01*
X237680Y-29326D01*
X238395Y-31469D01*
Y-37896D01*
Y-32897D02*
X246250Y-27898D01*
X231253Y-24541D02*
X246250D01*
X231253Y-14544D02*
X241251Y-24541D01*
X237680Y-20971D02*
X246250Y-14544D01*
D78*
X129078Y-358750D02*
X128013Y-356539D01*
X125621Y-355993D01*
X123702Y-357523D01*
Y-359977D01*
X125621Y-361508D01*
X128013Y-360961D01*
X129078Y-358750D01*
X207633Y-318922D02*
X206569Y-316710D01*
X204176Y-316164D01*
X202257Y-317694D01*
Y-320149D01*
X204176Y-321679D01*
X206569Y-321133D01*
X207633Y-318922D01*
D79*
X-261490Y-210720D02*
X-260290D01*
X-262290Y-213720D02*
X-259290Y-210720D01*
X-262290Y-213720D02*
Y-207720D01*
X-259290Y-210720D01*
X-228000Y-165000D02*
X-222000D01*
X-225000Y-168000D02*
Y-162000D01*
X-107500Y-168000D02*
Y-162000D01*
X-110500Y-165000D02*
X-104500D01*
X-144790Y-207720D02*
X-141790Y-210720D01*
X-144790Y-213720D02*
Y-207720D01*
Y-213720D02*
X-141790Y-210720D01*
X-143990D02*
X-142790D01*
D80*
X-172500Y347498D02*
Y340356D01*
X-172024Y338928D01*
X-171072Y337976D01*
X-169643Y337500D01*
X-168691D01*
X-167263Y337976D01*
X-166311Y338928D01*
X-165835Y340356D01*
Y347498D01*
X-162121D02*
X-156884D01*
X-159741Y343689D01*
X-158313D01*
X-157360Y343213D01*
X-156884Y342737D01*
X-156408Y341309D01*
Y340356D01*
X-156884Y338928D01*
X-157837Y337976D01*
X-159265Y337500D01*
X-160693D01*
X-162121Y337976D01*
X-162597Y338452D01*
X-163074Y339404D01*
X-153218Y347498D02*
X-147982D01*
X-150838Y343689D01*
X-149410D01*
X-148457Y343213D01*
X-147982Y342737D01*
X-147505Y341309D01*
Y340356D01*
X-147982Y338928D01*
X-148934Y337976D01*
X-150362Y337500D01*
X-151790D01*
X-153218Y337976D01*
X-153694Y338452D01*
X-154171Y339404D01*
X-145268Y345593D02*
X-144316Y346070D01*
X-142887Y347498D01*
Y337500D01*
X-15000Y-289502D02*
Y-297500D01*
Y-289502D02*
X-11572D01*
X-10430Y-289883D01*
X-10049Y-290263D01*
X-9668Y-291025D01*
Y-291787D01*
X-10049Y-292549D01*
X-10430Y-292929D01*
X-11572Y-293310D01*
X-15000D01*
X-12334D02*
X-9668Y-297500D01*
X-7116Y-289502D02*
X-2926D01*
X-5212Y-292549D01*
X-4069D01*
X-3307Y-292929D01*
X-2926Y-293310D01*
X-2546Y-294453D01*
Y-295215D01*
X-2926Y-296357D01*
X-3688Y-297119D01*
X-4831Y-297500D01*
X-5973D01*
X-7116Y-297119D01*
X-7497Y-296738D01*
X-7878Y-295977D01*
X3053Y-289502D02*
X-755Y-294834D01*
X4958D01*
X3053Y-289502D02*
Y-297500D01*
X6367Y-291025D02*
X7129Y-290644D01*
X8271Y-289502D01*
Y-297500D01*
X-295498Y-100000D02*
X-287500D01*
X-295498D02*
Y-95049D01*
X-291690Y-100000D02*
Y-96953D01*
X-295498Y-94135D02*
X-287500D01*
X-295498D02*
Y-90707D01*
X-295117Y-89564D01*
X-294737Y-89183D01*
X-293975Y-88802D01*
X-293213D01*
X-292451Y-89183D01*
X-292071Y-89564D01*
X-291690Y-90707D01*
Y-94135D02*
Y-90707D01*
X-291309Y-89564D01*
X-290928Y-89183D01*
X-290166Y-88802D01*
X-289023D01*
X-288262Y-89183D01*
X-287881Y-89564D01*
X-287500Y-90707D01*
Y-94135D01*
X-293594Y-86631D02*
X-293975D01*
X-294737Y-86251D01*
X-295117Y-85870D01*
X-295498Y-85108D01*
Y-83584D01*
X-295117Y-82823D01*
X-294737Y-82442D01*
X-293975Y-82061D01*
X-293213D01*
X-292451Y-82442D01*
X-291309Y-83204D01*
X-287500Y-87012D01*
Y-81680D01*
X-293975Y-79890D02*
X-294356Y-79128D01*
X-295498Y-77986D01*
X-287500D01*
X-293975Y-74025D02*
X-294356Y-73263D01*
X-295498Y-72120D01*
X-287500D01*
X196197Y-203826D02*
X204376Y-206349D01*
X199949Y-199024D02*
X204376Y-206349D01*
X203884Y-200793D02*
X205994Y-198092D01*
X206397Y-196957D01*
X206332Y-196422D01*
X205966Y-195653D01*
X205065Y-194949D01*
X204231Y-194781D01*
X203696Y-194846D01*
X202693Y-195512D01*
X200582Y-198213D01*
X206885Y-203138D01*
X208241Y-192742D02*
X208072Y-193576D01*
X208203Y-194646D01*
X208869Y-195649D01*
X209469Y-196118D01*
X210604Y-196521D01*
X211673Y-196390D01*
X212442Y-196024D01*
X213146Y-195124D01*
X213315Y-194289D01*
X213183Y-193220D01*
X212517Y-192216D01*
X211917Y-191747D01*
X210782Y-191344D01*
X209713Y-191476D01*
X208944Y-191841D01*
X208241Y-192742D01*
X211195Y-188960D02*
X214196Y-191305D01*
X215331Y-191708D01*
X216100Y-191342D01*
X216804Y-190442D01*
X216973Y-189607D01*
X216776Y-188003D01*
X213774Y-185659D02*
X217976Y-188941D01*
X213667Y-181466D02*
X218769Y-185452D01*
X219904Y-185856D01*
X220673Y-185490D01*
X221142Y-184890D01*
X215064Y-184008D02*
X216705Y-181907D01*
X249061Y-127744D02*
X257586Y-128511D01*
X251733Y-122267D02*
X257586Y-128511D01*
X255949Y-123179D02*
X257452Y-120098D01*
X257610Y-118904D01*
X257435Y-118395D01*
X256917Y-117718D01*
X255890Y-117218D01*
X255039Y-117226D01*
X254529Y-117401D01*
X253686Y-118261D01*
X252183Y-121342D01*
X259372Y-124848D01*
X255639Y-114256D02*
X256149Y-114081D01*
X255973Y-113572D01*
X255464Y-113747D01*
X255639Y-114256D01*
X258203Y-115083D02*
X262995Y-117420D01*
X258988Y-113474D02*
X263780Y-115811D01*
X260357Y-114142D02*
X259831Y-112614D01*
X259822Y-111762D01*
X260323Y-110735D01*
X260999Y-110217D01*
X262193Y-110376D01*
X265617Y-112046D01*
X-130000Y-84502D02*
X-126953Y-92500D01*
X-123906Y-84502D02*
X-126953Y-92500D01*
X-122878Y-86025D02*
X-122116Y-85644D01*
X-120973Y-84502D01*
Y-92500D01*
X-116631Y-86406D02*
Y-86025D01*
X-116250Y-85263D01*
X-115870Y-84883D01*
X-115108Y-84502D01*
X-113584D01*
X-112823Y-84883D01*
X-112442Y-85263D01*
X-112061Y-86025D01*
Y-86787D01*
X-112442Y-87549D01*
X-113204Y-88691D01*
X-117012Y-92500D01*
X-111680D01*
X-104177Y-86406D02*
X-104558Y-85644D01*
X-105320Y-84883D01*
X-106081Y-84502D01*
X-107605D01*
X-108366Y-84883D01*
X-109128Y-85644D01*
X-109509Y-86406D01*
X-109890Y-87549D01*
Y-89453D01*
X-109509Y-90596D01*
X-109128Y-91357D01*
X-108366Y-92119D01*
X-107605Y-92500D01*
X-106081D01*
X-105320Y-92119D01*
X-104558Y-91357D01*
X-104177Y-90596D01*
Y-89453D01*
X-106081D02*
X-104177D01*
X-89000Y-103002D02*
Y-108715D01*
X-88619Y-109857D01*
X-87857Y-110619D01*
X-86715Y-111000D01*
X-85953D01*
X-84810Y-110619D01*
X-84049Y-109857D01*
X-83668Y-108715D01*
Y-103002D01*
X-81078Y-104906D02*
Y-104525D01*
X-80697Y-103763D01*
X-80316Y-103383D01*
X-79554Y-103002D01*
X-78031D01*
X-77269Y-103383D01*
X-76888Y-103763D01*
X-76507Y-104525D01*
Y-105287D01*
X-76888Y-106049D01*
X-77650Y-107191D01*
X-81459Y-111000D01*
X-76126D01*
X-74337Y-104525D02*
X-73575Y-104144D01*
X-72432Y-103002D01*
Y-111000D01*
X-66186Y-103002D02*
X-67328Y-103383D01*
X-68090Y-104525D01*
X-68471Y-106430D01*
Y-107572D01*
X-68090Y-109476D01*
X-67328Y-110619D01*
X-66186Y-111000D01*
X-65424D01*
X-64282Y-110619D01*
X-63520Y-109476D01*
X-63139Y-107572D01*
Y-106430D01*
X-63520Y-104525D01*
X-64282Y-103383D01*
X-65424Y-103002D01*
X-66186D01*
X-207500Y-102002D02*
Y-107715D01*
X-207119Y-108857D01*
X-206357Y-109619D01*
X-205215Y-110000D01*
X-204453D01*
X-203310Y-109619D01*
X-202549Y-108857D01*
X-202168Y-107715D01*
Y-102002D01*
X-199578Y-103906D02*
Y-103525D01*
X-199197Y-102763D01*
X-198816Y-102383D01*
X-198054Y-102002D01*
X-196531D01*
X-195769Y-102383D01*
X-195388Y-102763D01*
X-195007Y-103525D01*
Y-104287D01*
X-195388Y-105049D01*
X-196150Y-106191D01*
X-199959Y-110000D01*
X-194627D01*
X-190551Y-102002D02*
X-191694Y-102383D01*
X-192456Y-103525D01*
X-192836Y-105430D01*
Y-106572D01*
X-192456Y-108476D01*
X-191694Y-109619D01*
X-190551Y-110000D01*
X-189790D01*
X-188647Y-109619D01*
X-187885Y-108476D01*
X-187504Y-106572D01*
Y-105430D01*
X-187885Y-103525D01*
X-188647Y-102383D01*
X-189790Y-102002D01*
X-190551D01*
X-185714Y-103525D02*
X-184952Y-103144D01*
X-183810Y-102002D01*
Y-110000D01*
X-96498Y77000D02*
X-88500D01*
X-96498D02*
Y80428D01*
X-96117Y81570D01*
X-95737Y81951D01*
X-94975Y82332D01*
X-94213D01*
X-93451Y81951D01*
X-93070Y81570D01*
X-92690Y80428D01*
Y77000D01*
Y79666D02*
X-88500Y82332D01*
X-96498Y87931D02*
X-91166Y84122D01*
Y89835D01*
X-96498Y87931D02*
X-88500D01*
X-94975Y91245D02*
X-95356Y92006D01*
X-96498Y93149D01*
X-88500D01*
X-96498Y99014D02*
X-96117Y97872D01*
X-95356Y97491D01*
X-94594D01*
X-93832Y97872D01*
X-93451Y98633D01*
X-93070Y100157D01*
X-92690Y101300D01*
X-91928Y102061D01*
X-91166Y102442D01*
X-90023D01*
X-89262Y102061D01*
X-88881Y101680D01*
X-88500Y100538D01*
Y99014D01*
X-88881Y97872D01*
X-89262Y97491D01*
X-90023Y97110D01*
X-91166D01*
X-91928Y97491D01*
X-92690Y98253D01*
X-93070Y99395D01*
X-93451Y100919D01*
X-93832Y101680D01*
X-94594Y102061D01*
X-95356D01*
X-96117Y101680D01*
X-96498Y100538D01*
Y99014D01*
X-74248Y-265000D02*
X-66250D01*
X-74248D02*
Y-261572D01*
X-73867Y-260430D01*
X-73487Y-260049D01*
X-72725Y-259668D01*
X-71963D01*
X-71201Y-260049D01*
X-70820Y-260430D01*
X-70440Y-261572D01*
Y-265000D01*
Y-262334D02*
X-66250Y-259668D01*
X-74248Y-257116D02*
Y-252926D01*
X-71201Y-255212D01*
Y-254069D01*
X-70820Y-253307D01*
X-70440Y-252926D01*
X-69297Y-252546D01*
X-68535D01*
X-67393Y-252926D01*
X-66631Y-253688D01*
X-66250Y-254831D01*
Y-255973D01*
X-66631Y-257116D01*
X-67012Y-257497D01*
X-67773Y-257878D01*
X-74248Y-246947D02*
X-68916Y-250755D01*
Y-245042D01*
X-74248Y-246947D02*
X-66250D01*
X-74248Y-239063D02*
Y-242871D01*
X-70820Y-243252D01*
X-71201Y-242871D01*
X-71582Y-241729D01*
Y-240586D01*
X-71201Y-239444D01*
X-70440Y-238682D01*
X-69297Y-238301D01*
X-68535D01*
X-67393Y-238682D01*
X-66631Y-239444D01*
X-66250Y-240586D01*
Y-241729D01*
X-66631Y-242871D01*
X-67012Y-243252D01*
X-67773Y-243633D01*
X-57998Y-263750D02*
X-50000D01*
X-57998D02*
Y-260322D01*
X-57617Y-259179D01*
X-57237Y-258799D01*
X-56475Y-258418D01*
X-55713D01*
X-54951Y-258799D01*
X-54570Y-259179D01*
X-54190Y-260322D01*
Y-263750D01*
Y-261084D02*
X-50000Y-258418D01*
X-57998Y-255866D02*
Y-251676D01*
X-54951Y-253962D01*
Y-252819D01*
X-54570Y-252057D01*
X-54190Y-251676D01*
X-53047Y-251296D01*
X-52285D01*
X-51143Y-251676D01*
X-50381Y-252438D01*
X-50000Y-253581D01*
Y-254723D01*
X-50381Y-255866D01*
X-50762Y-256247D01*
X-51523Y-256628D01*
X-57998Y-245697D02*
X-52666Y-249505D01*
Y-243792D01*
X-57998Y-245697D02*
X-50000D01*
X-57998Y-238574D02*
X-52666Y-242383D01*
Y-236670D01*
X-57998Y-238574D02*
X-50000D01*
X-21250Y-240752D02*
Y-248750D01*
Y-240752D02*
X-17822D01*
X-16680Y-241133D01*
X-16299Y-241513D01*
X-15918Y-242275D01*
Y-243037D01*
X-16299Y-243799D01*
X-16680Y-244179D01*
X-17822Y-244560D01*
X-21250D01*
X-18584D02*
X-15918Y-248750D01*
X-13366Y-240752D02*
X-9176D01*
X-11462Y-243799D01*
X-10319D01*
X-9557Y-244179D01*
X-9176Y-244560D01*
X-8795Y-245703D01*
Y-246465D01*
X-9176Y-247607D01*
X-9938Y-248369D01*
X-11081Y-248750D01*
X-12223D01*
X-13366Y-248369D01*
X-13747Y-247988D01*
X-14128Y-247227D01*
X-3197Y-240752D02*
X-7005Y-246084D01*
X-1292D01*
X-3197Y-240752D02*
Y-248750D01*
X498Y-242656D02*
Y-242275D01*
X879Y-241513D01*
X1259Y-241133D01*
X2021Y-240752D01*
X3545D01*
X4306Y-241133D01*
X4687Y-241513D01*
X5068Y-242275D01*
Y-243037D01*
X4687Y-243799D01*
X3926Y-244941D01*
X117Y-248750D01*
X5449D01*
X-140498Y-246250D02*
X-132500D01*
X-140498D02*
Y-242822D01*
X-140117Y-241680D01*
X-139737Y-241299D01*
X-138975Y-240918D01*
X-138213D01*
X-137451Y-241299D01*
X-137070Y-241680D01*
X-136690Y-242822D01*
Y-246250D01*
Y-243584D02*
X-132500Y-240918D01*
X-138594Y-238747D02*
X-138975D01*
X-139737Y-238366D01*
X-140117Y-237985D01*
X-140498Y-237223D01*
Y-235700D01*
X-140117Y-234938D01*
X-139737Y-234557D01*
X-138975Y-234176D01*
X-138213D01*
X-137451Y-234557D01*
X-136309Y-235319D01*
X-132500Y-239128D01*
Y-233796D01*
X-138975Y-232005D02*
X-139356Y-231244D01*
X-140498Y-230101D01*
X-132500D01*
X-140498Y-225378D02*
Y-221189D01*
X-137451Y-223474D01*
Y-222331D01*
X-137070Y-221570D01*
X-136690Y-221189D01*
X-135547Y-220808D01*
X-134785D01*
X-133643Y-221189D01*
X-132881Y-221950D01*
X-132500Y-223093D01*
Y-224236D01*
X-132881Y-225378D01*
X-133262Y-225759D01*
X-134024Y-226140D01*
X-150498Y-246250D02*
X-142500D01*
X-150498D02*
Y-242822D01*
X-150117Y-241680D01*
X-149737Y-241299D01*
X-148975Y-240918D01*
X-148213D01*
X-147451Y-241299D01*
X-147070Y-241680D01*
X-146690Y-242822D01*
Y-246250D01*
Y-243584D02*
X-142500Y-240918D01*
X-148594Y-238747D02*
X-148975D01*
X-149737Y-238366D01*
X-150117Y-237985D01*
X-150498Y-237223D01*
Y-235700D01*
X-150117Y-234938D01*
X-149737Y-234557D01*
X-148975Y-234176D01*
X-148213D01*
X-147451Y-234557D01*
X-146309Y-235319D01*
X-142500Y-239128D01*
Y-233796D01*
X-148975Y-232005D02*
X-149356Y-231244D01*
X-150498Y-230101D01*
X-142500D01*
X-148975Y-226140D02*
X-149356Y-225378D01*
X-150498Y-224236D01*
X-142500D01*
X-259248Y-247500D02*
X-251250D01*
X-259248D02*
Y-244072D01*
X-258867Y-242929D01*
X-258487Y-242549D01*
X-257725Y-242168D01*
X-256963D01*
X-256201Y-242549D01*
X-255820Y-242929D01*
X-255440Y-244072D01*
Y-247500D01*
Y-244834D02*
X-251250Y-242168D01*
X-257344Y-239997D02*
X-257725D01*
X-258487Y-239616D01*
X-258867Y-239235D01*
X-259248Y-238473D01*
Y-236950D01*
X-258867Y-236188D01*
X-258487Y-235807D01*
X-257725Y-235426D01*
X-256963D01*
X-256201Y-235807D01*
X-255059Y-236569D01*
X-251250Y-240378D01*
Y-235046D01*
X-259248Y-230970D02*
X-258867Y-232113D01*
X-257725Y-232875D01*
X-255820Y-233255D01*
X-254678D01*
X-252773Y-232875D01*
X-251631Y-232113D01*
X-251250Y-230970D01*
Y-230208D01*
X-251631Y-229066D01*
X-252773Y-228304D01*
X-254678Y-227923D01*
X-255820D01*
X-257725Y-228304D01*
X-258867Y-229066D01*
X-259248Y-230208D01*
Y-230970D01*
Y-225371D02*
Y-221182D01*
X-256201Y-223467D01*
Y-222324D01*
X-255820Y-221563D01*
X-255440Y-221182D01*
X-254297Y-220801D01*
X-253535D01*
X-252393Y-221182D01*
X-251631Y-221943D01*
X-251250Y-223086D01*
Y-224229D01*
X-251631Y-225371D01*
X-252012Y-225752D01*
X-252773Y-226133D01*
X-270498Y-247500D02*
X-262500D01*
X-270498D02*
Y-244072D01*
X-270117Y-242929D01*
X-269737Y-242549D01*
X-268975Y-242168D01*
X-268213D01*
X-267451Y-242549D01*
X-267071Y-242929D01*
X-266690Y-244072D01*
Y-247500D01*
Y-244834D02*
X-262500Y-242168D01*
X-268594Y-239997D02*
X-268975D01*
X-269737Y-239616D01*
X-270117Y-239235D01*
X-270498Y-238473D01*
Y-236950D01*
X-270117Y-236188D01*
X-269737Y-235807D01*
X-268975Y-235426D01*
X-268213D01*
X-267451Y-235807D01*
X-266309Y-236569D01*
X-262500Y-240378D01*
Y-235046D01*
X-270498Y-230970D02*
X-270117Y-232113D01*
X-268975Y-232875D01*
X-267071Y-233255D01*
X-265928D01*
X-264023Y-232875D01*
X-262881Y-232113D01*
X-262500Y-230970D01*
Y-230208D01*
X-262881Y-229066D01*
X-264023Y-228304D01*
X-265928Y-227923D01*
X-267071D01*
X-268975Y-228304D01*
X-270117Y-229066D01*
X-270498Y-230208D01*
Y-230970D01*
X-268975Y-226133D02*
X-269356Y-225371D01*
X-270498Y-224229D01*
X-262500D01*
X264877Y268891D02*
X258750Y263750D01*
X264877Y268891D02*
X267080Y266265D01*
X267523Y265145D01*
X267476Y264609D01*
X267138Y263827D01*
X266554Y263338D01*
X265726Y263140D01*
X265189Y263187D01*
X264163Y263817D01*
X261959Y266443D01*
X263673Y264401D02*
X262178Y259665D01*
X268288Y262456D02*
X269069Y262117D01*
X270679Y261976D01*
X264552Y256835D01*
X273715Y258358D02*
X276408Y255149D01*
X272605Y254941D01*
X273340Y254066D01*
X273537Y253237D01*
X273490Y252701D01*
X272860Y251675D01*
X272276Y251185D01*
X271156Y250742D01*
X270083Y250836D01*
X269057Y251467D01*
X268323Y252342D01*
X267880Y253462D01*
X267927Y253999D01*
X268265Y254780D01*
X276637Y252507D02*
X277418Y252168D01*
X279028Y252027D01*
X272901Y246886D01*
X-19248Y-168750D02*
X-11250D01*
Y-164180D01*
X-17725Y-163304D02*
X-18106Y-162542D01*
X-19248Y-161399D01*
X-11250D01*
X-19248Y-155153D02*
X-18867Y-156295D01*
X-17725Y-157057D01*
X-15820Y-157438D01*
X-14678D01*
X-12773Y-157057D01*
X-11631Y-156295D01*
X-11250Y-155153D01*
Y-154391D01*
X-11631Y-153249D01*
X-12773Y-152487D01*
X-14678Y-152106D01*
X-15820D01*
X-17725Y-152487D01*
X-18867Y-153249D01*
X-19248Y-154391D01*
Y-155153D01*
Y-149554D02*
Y-145365D01*
X-16201Y-147650D01*
Y-146507D01*
X-15820Y-145745D01*
X-15440Y-145365D01*
X-14297Y-144984D01*
X-13535D01*
X-12393Y-145365D01*
X-11631Y-146126D01*
X-11250Y-147269D01*
Y-148412D01*
X-11631Y-149554D01*
X-12012Y-149935D01*
X-12773Y-150316D01*
X-296748Y4000D02*
X-288750D01*
X-296748D02*
Y8951D01*
X-292940Y4000D02*
Y7047D01*
X-296748Y9865D02*
X-288750D01*
X-296748D02*
Y13293D01*
X-296367Y14436D01*
X-295987Y14817D01*
X-295225Y15198D01*
X-294463D01*
X-293701Y14817D01*
X-293321Y14436D01*
X-292940Y13293D01*
Y9865D02*
Y13293D01*
X-292559Y14436D01*
X-292178Y14817D01*
X-291416Y15198D01*
X-290273D01*
X-289512Y14817D01*
X-289131Y14436D01*
X-288750Y13293D01*
Y9865D01*
X-294844Y17369D02*
X-295225D01*
X-295987Y17750D01*
X-296367Y18130D01*
X-296748Y18892D01*
Y20416D01*
X-296367Y21177D01*
X-295987Y21558D01*
X-295225Y21939D01*
X-294463D01*
X-293701Y21558D01*
X-292559Y20796D01*
X-288750Y16988D01*
Y22320D01*
X-296748Y27919D02*
X-291416Y24110D01*
Y29823D01*
X-296748Y27919D02*
X-288750D01*
X-295225Y31232D02*
X-295606Y31994D01*
X-296748Y33137D01*
X-288750D01*
X-238750Y-275752D02*
Y-283750D01*
Y-275752D02*
X-236084D01*
X-234941Y-276133D01*
X-234179Y-276894D01*
X-233799Y-277656D01*
X-233418Y-278799D01*
Y-280703D01*
X-233799Y-281846D01*
X-234179Y-282607D01*
X-234941Y-283369D01*
X-236084Y-283750D01*
X-238750D01*
X-225915Y-277656D02*
X-226296Y-276894D01*
X-227057Y-276133D01*
X-227819Y-275752D01*
X-229342D01*
X-230104Y-276133D01*
X-230866Y-276894D01*
X-231247Y-277656D01*
X-231628Y-278799D01*
Y-280703D01*
X-231247Y-281846D01*
X-230866Y-282607D01*
X-230104Y-283369D01*
X-229342Y-283750D01*
X-227819D01*
X-227057Y-283369D01*
X-226296Y-282607D01*
X-225915Y-281846D01*
Y-280703D01*
X-227819D02*
X-225915D01*
X-224086Y-275752D02*
Y-283750D01*
Y-275752D02*
X-218754Y-283750D01*
Y-275752D02*
Y-283750D01*
X-216545Y-275752D02*
Y-283750D01*
Y-275752D02*
X-213879D01*
X-212736Y-276133D01*
X-211975Y-276894D01*
X-211594Y-277656D01*
X-211213Y-278799D01*
Y-280703D01*
X-211594Y-281846D01*
X-211975Y-282607D01*
X-212736Y-283369D01*
X-213879Y-283750D01*
X-216545D01*
X40713Y-303906D02*
X40332Y-303144D01*
X39571Y-302383D01*
X38809Y-302002D01*
X37285D01*
X36523Y-302383D01*
X35762Y-303144D01*
X35381Y-303906D01*
X35000Y-305049D01*
Y-306953D01*
X35381Y-308096D01*
X35762Y-308857D01*
X36523Y-309619D01*
X37285Y-310000D01*
X38809D01*
X39571Y-309619D01*
X40332Y-308857D01*
X40713Y-308096D01*
X44103Y-302002D02*
Y-308477D01*
X44484Y-309619D01*
X45245Y-310000D01*
X46007D01*
X42960Y-304668D02*
X45626D01*
X47150D02*
Y-310000D01*
Y-306953D02*
X47531Y-305810D01*
X48292Y-305049D01*
X49054Y-304668D01*
X50197D01*
X50920Y-302002D02*
Y-310000D01*
X-83094Y82213D02*
X-83856Y81832D01*
X-84617Y81070D01*
X-84998Y80309D01*
Y78785D01*
X-84617Y78024D01*
X-83856Y77262D01*
X-83094Y76881D01*
X-81951Y76500D01*
X-80047D01*
X-78904Y76881D01*
X-78143Y77262D01*
X-77381Y78024D01*
X-77000Y78785D01*
Y80309D01*
X-77381Y81070D01*
X-78143Y81832D01*
X-78904Y82213D01*
X-84998Y88269D02*
X-79666Y84460D01*
Y90173D01*
X-84998Y88269D02*
X-77000D01*
X-84998Y93868D02*
X-84617Y92725D01*
X-83475Y91963D01*
X-81570Y91582D01*
X-80428D01*
X-78524Y91963D01*
X-77381Y92725D01*
X-77000Y93868D01*
Y94629D01*
X-77381Y95772D01*
X-78524Y96534D01*
X-80428Y96915D01*
X-81570D01*
X-83475Y96534D01*
X-84617Y95772D01*
X-84998Y94629D01*
Y93868D01*
Y99466D02*
Y103656D01*
X-81951Y101371D01*
Y102514D01*
X-81570Y103275D01*
X-81190Y103656D01*
X-80047Y104037D01*
X-79285D01*
X-78143Y103656D01*
X-77381Y102894D01*
X-77000Y101752D01*
Y100609D01*
X-77381Y99466D01*
X-77762Y99086D01*
X-78524Y98705D01*
X-34844Y-266787D02*
X-35606Y-267168D01*
X-36367Y-267929D01*
X-36748Y-268691D01*
Y-270215D01*
X-36367Y-270977D01*
X-35606Y-271738D01*
X-34844Y-272119D01*
X-33701Y-272500D01*
X-31797D01*
X-30654Y-272119D01*
X-29893Y-271738D01*
X-29131Y-270977D01*
X-28750Y-270215D01*
Y-268691D01*
X-29131Y-267929D01*
X-29893Y-267168D01*
X-30654Y-266787D01*
X-36748Y-263778D02*
Y-259589D01*
X-33701Y-261874D01*
Y-260731D01*
X-33321Y-259969D01*
X-32940Y-259589D01*
X-31797Y-259208D01*
X-31035D01*
X-29893Y-259589D01*
X-29131Y-260350D01*
X-28750Y-261493D01*
Y-262635D01*
X-29131Y-263778D01*
X-29512Y-264159D01*
X-30273Y-264540D01*
X-36748Y-253609D02*
X-31416Y-257418D01*
Y-251704D01*
X-36748Y-253609D02*
X-28750D01*
X-35225Y-250295D02*
X-35606Y-249534D01*
X-36748Y-248391D01*
X-28750D01*
X-170537Y-96406D02*
X-170918Y-95644D01*
X-171679Y-94883D01*
X-172441Y-94502D01*
X-173965D01*
X-174727Y-94883D01*
X-175488Y-95644D01*
X-175869Y-96406D01*
X-176250Y-97549D01*
Y-99453D01*
X-175869Y-100596D01*
X-175488Y-101357D01*
X-174727Y-102119D01*
X-173965Y-102500D01*
X-172441D01*
X-171679Y-102119D01*
X-170918Y-101357D01*
X-170537Y-100596D01*
X-167909Y-96406D02*
Y-96025D01*
X-167528Y-95263D01*
X-167147Y-94883D01*
X-166385Y-94502D01*
X-164862D01*
X-164100Y-94883D01*
X-163719Y-95263D01*
X-163339Y-96025D01*
Y-96787D01*
X-163719Y-97549D01*
X-164481Y-98691D01*
X-168290Y-102500D01*
X-162958D01*
X-161168Y-96025D02*
X-160406Y-95644D01*
X-159263Y-94502D01*
Y-102500D01*
X-154540Y-94502D02*
X-150351D01*
X-152636Y-97549D01*
X-151493D01*
X-150732Y-97929D01*
X-150351Y-98310D01*
X-149970Y-99453D01*
Y-100215D01*
X-150351Y-101357D01*
X-151112Y-102119D01*
X-152255Y-102500D01*
X-153398D01*
X-154540Y-102119D01*
X-154921Y-101738D01*
X-155302Y-100976D01*
X-97344Y-269287D02*
X-98106Y-269668D01*
X-98867Y-270430D01*
X-99248Y-271191D01*
Y-272715D01*
X-98867Y-273477D01*
X-98106Y-274238D01*
X-97344Y-274619D01*
X-96201Y-275000D01*
X-94297D01*
X-93154Y-274619D01*
X-92393Y-274238D01*
X-91631Y-273477D01*
X-91250Y-272715D01*
Y-271191D01*
X-91631Y-270430D01*
X-92393Y-269668D01*
X-93154Y-269287D01*
X-97344Y-266659D02*
X-97725D01*
X-98487Y-266278D01*
X-98867Y-265897D01*
X-99248Y-265135D01*
Y-263612D01*
X-98867Y-262850D01*
X-98487Y-262469D01*
X-97725Y-262089D01*
X-96963D01*
X-96201Y-262469D01*
X-95059Y-263231D01*
X-91250Y-267040D01*
Y-261708D01*
X-97725Y-259918D02*
X-98106Y-259156D01*
X-99248Y-258013D01*
X-91250D01*
X-97344Y-253671D02*
X-97725D01*
X-98487Y-253290D01*
X-98867Y-252910D01*
X-99248Y-252148D01*
Y-250624D01*
X-98867Y-249862D01*
X-98487Y-249482D01*
X-97725Y-249101D01*
X-96963D01*
X-96201Y-249482D01*
X-95059Y-250243D01*
X-91250Y-254052D01*
Y-248720D01*
X-170537Y-221406D02*
X-170918Y-220644D01*
X-171679Y-219883D01*
X-172441Y-219502D01*
X-173965D01*
X-174727Y-219883D01*
X-175488Y-220644D01*
X-175869Y-221406D01*
X-176250Y-222549D01*
Y-224453D01*
X-175869Y-225596D01*
X-175488Y-226357D01*
X-174727Y-227119D01*
X-173965Y-227500D01*
X-172441D01*
X-171679Y-227119D01*
X-170918Y-226357D01*
X-170537Y-225596D01*
X-167909Y-221406D02*
Y-221025D01*
X-167528Y-220263D01*
X-167147Y-219883D01*
X-166385Y-219502D01*
X-164862D01*
X-164100Y-219883D01*
X-163719Y-220263D01*
X-163339Y-221025D01*
Y-221787D01*
X-163719Y-222549D01*
X-164481Y-223691D01*
X-168290Y-227500D01*
X-162958D01*
X-161168Y-221025D02*
X-160406Y-220644D01*
X-159263Y-219502D01*
Y-227500D01*
X-155302Y-221025D02*
X-154540Y-220644D01*
X-153398Y-219502D01*
Y-227500D01*
X-304844Y-138037D02*
X-305606Y-138418D01*
X-306367Y-139179D01*
X-306748Y-139941D01*
Y-141465D01*
X-306367Y-142226D01*
X-305606Y-142988D01*
X-304844Y-143369D01*
X-303701Y-143750D01*
X-301797D01*
X-300654Y-143369D01*
X-299893Y-142988D01*
X-299131Y-142226D01*
X-298750Y-141465D01*
Y-139941D01*
X-299131Y-139179D01*
X-299893Y-138418D01*
X-300654Y-138037D01*
X-304844Y-135409D02*
X-305225D01*
X-305987Y-135028D01*
X-306367Y-134647D01*
X-306748Y-133885D01*
Y-132362D01*
X-306367Y-131600D01*
X-305987Y-131219D01*
X-305225Y-130838D01*
X-304463D01*
X-303701Y-131219D01*
X-302559Y-131981D01*
X-298750Y-135790D01*
Y-130457D01*
X-306748Y-126382D02*
X-306367Y-127525D01*
X-305225Y-128287D01*
X-303321Y-128667D01*
X-302178D01*
X-300273Y-128287D01*
X-299131Y-127525D01*
X-298750Y-126382D01*
Y-125620D01*
X-299131Y-124478D01*
X-300273Y-123716D01*
X-302178Y-123335D01*
X-303321D01*
X-305225Y-123716D01*
X-306367Y-124478D01*
X-306748Y-125620D01*
Y-126382D01*
Y-120783D02*
Y-116594D01*
X-303701Y-118879D01*
Y-117736D01*
X-303321Y-116975D01*
X-302940Y-116594D01*
X-301797Y-116213D01*
X-301035D01*
X-299893Y-116594D01*
X-299131Y-117356D01*
X-298750Y-118498D01*
Y-119641D01*
X-299131Y-120783D01*
X-299512Y-121164D01*
X-300273Y-121545D01*
X-198594Y-243037D02*
X-199356Y-243418D01*
X-200117Y-244179D01*
X-200498Y-244941D01*
Y-246465D01*
X-200117Y-247227D01*
X-199356Y-247988D01*
X-198594Y-248369D01*
X-197451Y-248750D01*
X-195547D01*
X-194404Y-248369D01*
X-193643Y-247988D01*
X-192881Y-247227D01*
X-192500Y-246465D01*
Y-244941D01*
X-192881Y-244179D01*
X-193643Y-243418D01*
X-194404Y-243037D01*
X-198594Y-240409D02*
X-198975D01*
X-199737Y-240028D01*
X-200117Y-239647D01*
X-200498Y-238885D01*
Y-237362D01*
X-200117Y-236600D01*
X-199737Y-236219D01*
X-198975Y-235839D01*
X-198213D01*
X-197451Y-236219D01*
X-196309Y-236981D01*
X-192500Y-240790D01*
Y-235458D01*
X-200498Y-231382D02*
X-200117Y-232525D01*
X-198975Y-233287D01*
X-197070Y-233668D01*
X-195928D01*
X-194023Y-233287D01*
X-192881Y-232525D01*
X-192500Y-231382D01*
Y-230620D01*
X-192881Y-229478D01*
X-194023Y-228716D01*
X-195928Y-228335D01*
X-197070D01*
X-198975Y-228716D01*
X-200117Y-229478D01*
X-200498Y-230620D01*
Y-231382D01*
X-198594Y-226164D02*
X-198975D01*
X-199737Y-225784D01*
X-200117Y-225403D01*
X-200498Y-224641D01*
Y-223117D01*
X-200117Y-222356D01*
X-199737Y-221975D01*
X-198975Y-221594D01*
X-198213D01*
X-197451Y-221975D01*
X-196309Y-222736D01*
X-192500Y-226545D01*
Y-221213D01*
X-306094Y-196787D02*
X-306856Y-197168D01*
X-307617Y-197930D01*
X-307998Y-198691D01*
Y-200215D01*
X-307617Y-200977D01*
X-306856Y-201738D01*
X-306094Y-202119D01*
X-304951Y-202500D01*
X-303047D01*
X-301904Y-202119D01*
X-301143Y-201738D01*
X-300381Y-200977D01*
X-300000Y-200215D01*
Y-198691D01*
X-300381Y-197930D01*
X-301143Y-197168D01*
X-301904Y-196787D01*
X-306094Y-194159D02*
X-306475D01*
X-307237Y-193778D01*
X-307617Y-193397D01*
X-307998Y-192635D01*
Y-191112D01*
X-307617Y-190350D01*
X-307237Y-189969D01*
X-306475Y-189589D01*
X-305713D01*
X-304951Y-189969D01*
X-303809Y-190731D01*
X-300000Y-194540D01*
Y-189208D01*
X-307998Y-185132D02*
X-307617Y-186275D01*
X-306475Y-187037D01*
X-304571Y-187418D01*
X-303428D01*
X-301523Y-187037D01*
X-300381Y-186275D01*
X-300000Y-185132D01*
Y-184370D01*
X-300381Y-183228D01*
X-301523Y-182466D01*
X-303428Y-182085D01*
X-304571D01*
X-306475Y-182466D01*
X-307617Y-183228D01*
X-307998Y-184370D01*
Y-185132D01*
X-306475Y-180295D02*
X-306856Y-179534D01*
X-307998Y-178391D01*
X-300000D01*
X173252Y131250D02*
X181250D01*
X173252D02*
Y134678D01*
X173633Y135821D01*
X174013Y136201D01*
X174775Y136582D01*
X175537D01*
X176299Y136201D01*
X176680Y135821D01*
X177060Y134678D01*
Y131250D01*
Y133916D02*
X181250Y136582D01*
X174394Y143705D02*
X173633Y142943D01*
X173252Y141800D01*
Y140277D01*
X173633Y139134D01*
X174394Y138372D01*
X175156D01*
X175918Y138753D01*
X176299Y139134D01*
X176680Y139896D01*
X177441Y142181D01*
X177822Y142943D01*
X178203Y143324D01*
X178965Y143705D01*
X180107D01*
X180869Y142943D01*
X181250Y141800D01*
Y140277D01*
X180869Y139134D01*
X180107Y138372D01*
X173252Y145495D02*
X181250Y148541D01*
X173252Y151588D02*
X181250Y148541D01*
X103252Y131250D02*
X111250D01*
X103252D02*
Y134678D01*
X103633Y135821D01*
X104013Y136201D01*
X104775Y136582D01*
X105537D01*
X106299Y136201D01*
X106679Y135821D01*
X107060Y134678D01*
Y131250D01*
Y133916D02*
X111250Y136582D01*
X104394Y143705D02*
X103633Y142943D01*
X103252Y141800D01*
Y140277D01*
X103633Y139134D01*
X104394Y138372D01*
X105156D01*
X105918Y138753D01*
X106299Y139134D01*
X106679Y139896D01*
X107441Y142181D01*
X107822Y142943D01*
X108203Y143324D01*
X108965Y143705D01*
X110107D01*
X110869Y142943D01*
X111250Y141800D01*
Y140277D01*
X110869Y139134D01*
X110107Y138372D01*
X103252Y145495D02*
X108965D01*
X110107Y145876D01*
X110869Y146637D01*
X111250Y147780D01*
Y148541D01*
X110869Y149684D01*
X110107Y150446D01*
X108965Y150827D01*
X103252D01*
X8750Y-222002D02*
Y-230000D01*
Y-222002D02*
X12178D01*
X13320Y-222383D01*
X13701Y-222763D01*
X14082Y-223525D01*
Y-224287D01*
X13701Y-225049D01*
X13320Y-225429D01*
X12178Y-225810D01*
X8750D01*
X11416D02*
X14082Y-230000D01*
X16634Y-222002D02*
X20824D01*
X18538Y-225049D01*
X19681D01*
X20443Y-225429D01*
X20824Y-225810D01*
X21205Y-226953D01*
Y-227715D01*
X20824Y-228857D01*
X20062Y-229619D01*
X18919Y-230000D01*
X17777D01*
X16634Y-229619D01*
X16253Y-229238D01*
X15872Y-228477D01*
X23756Y-222002D02*
X27946D01*
X25661Y-225049D01*
X26803D01*
X27565Y-225429D01*
X27946Y-225810D01*
X28327Y-226953D01*
Y-227715D01*
X27946Y-228857D01*
X27184Y-229619D01*
X26042Y-230000D01*
X24899D01*
X23756Y-229619D01*
X23375Y-229238D01*
X22995Y-228477D01*
X34687Y-222002D02*
X30879D01*
X30498Y-225429D01*
X30879Y-225049D01*
X32021Y-224668D01*
X33164D01*
X34306Y-225049D01*
X35068Y-225810D01*
X35449Y-226953D01*
Y-227715D01*
X35068Y-228857D01*
X34306Y-229619D01*
X33164Y-230000D01*
X32021D01*
X30879Y-229619D01*
X30498Y-229238D01*
X30117Y-228477D01*
X8750Y-238252D02*
Y-246250D01*
Y-238252D02*
X12178D01*
X13320Y-238633D01*
X13701Y-239013D01*
X14082Y-239775D01*
Y-240537D01*
X13701Y-241299D01*
X13320Y-241680D01*
X12178Y-242060D01*
X8750D01*
X11416D02*
X14082Y-246250D01*
X16634Y-238252D02*
X20824D01*
X18538Y-241299D01*
X19681D01*
X20443Y-241680D01*
X20824Y-242060D01*
X21205Y-243203D01*
Y-243965D01*
X20824Y-245107D01*
X20062Y-245869D01*
X18919Y-246250D01*
X17777D01*
X16634Y-245869D01*
X16253Y-245488D01*
X15872Y-244727D01*
X23756Y-238252D02*
X27946D01*
X25661Y-241299D01*
X26803D01*
X27565Y-241680D01*
X27946Y-242060D01*
X28327Y-243203D01*
Y-243965D01*
X27946Y-245107D01*
X27184Y-245869D01*
X26042Y-246250D01*
X24899D01*
X23756Y-245869D01*
X23375Y-245488D01*
X22995Y-244727D01*
X33926Y-238252D02*
X30117Y-243584D01*
X35830D01*
X33926Y-238252D02*
Y-246250D01*
X-107668Y-58644D02*
X-108429Y-57883D01*
X-109572Y-57502D01*
X-111096D01*
X-112238Y-57883D01*
X-113000Y-58644D01*
Y-59406D01*
X-112619Y-60168D01*
X-112238Y-60549D01*
X-111476Y-60929D01*
X-109191Y-61691D01*
X-108429Y-62072D01*
X-108049Y-62453D01*
X-107668Y-63215D01*
Y-64357D01*
X-108429Y-65119D01*
X-109572Y-65500D01*
X-111096D01*
X-112238Y-65119D01*
X-113000Y-64357D01*
X-105878Y-68166D02*
X-99784D01*
X-98755Y-57502D02*
X-95708Y-65500D01*
X-92661Y-57502D02*
X-95708Y-65500D01*
X-87063Y-57502D02*
Y-65500D01*
Y-61310D02*
X-87824Y-60549D01*
X-88586Y-60168D01*
X-89729D01*
X-90491Y-60549D01*
X-91252Y-61310D01*
X-91633Y-62453D01*
Y-63215D01*
X-91252Y-64357D01*
X-90491Y-65119D01*
X-89729Y-65500D01*
X-88586D01*
X-87824Y-65119D01*
X-87063Y-64357D01*
X-80359Y-61310D02*
X-81121Y-60549D01*
X-81883Y-60168D01*
X-83025D01*
X-83787Y-60549D01*
X-84549Y-61310D01*
X-84930Y-62453D01*
Y-63215D01*
X-84549Y-64357D01*
X-83787Y-65119D01*
X-83025Y-65500D01*
X-81883D01*
X-81121Y-65119D01*
X-80359Y-64357D01*
X-98287Y156094D02*
X-98668Y156856D01*
X-99430Y157617D01*
X-100191Y157998D01*
X-101715D01*
X-102477Y157617D01*
X-103238Y156856D01*
X-103619Y156094D01*
X-104000Y154951D01*
Y153047D01*
X-103619Y151904D01*
X-103238Y151143D01*
X-102477Y150381D01*
X-101715Y150000D01*
X-100191D01*
X-99430Y150381D01*
X-98668Y151143D01*
X-98287Y151904D01*
X-92231Y157998D02*
X-96040Y152666D01*
X-90327D01*
X-92231Y157998D02*
Y150000D01*
X-86632Y157998D02*
X-87775Y157617D01*
X-88537Y156475D01*
X-88918Y154571D01*
Y153428D01*
X-88537Y151524D01*
X-87775Y150381D01*
X-86632Y150000D01*
X-85871D01*
X-84728Y150381D01*
X-83966Y151524D01*
X-83585Y153428D01*
Y154571D01*
X-83966Y156475D01*
X-84728Y157617D01*
X-85871Y157998D01*
X-86632D01*
X-81795Y156475D02*
X-81033Y156856D01*
X-79891Y157998D01*
Y150000D01*
X-145000Y31498D02*
X-143096Y23500D01*
X-141191Y31498D02*
X-143096Y23500D01*
X-141191Y31498D02*
X-139287Y23500D01*
X-137383Y31498D02*
X-139287Y23500D01*
X-135783Y27309D02*
X-132355D01*
X-131213Y27690D01*
X-130832Y28070D01*
X-130451Y28832D01*
Y29975D01*
X-130832Y30737D01*
X-131213Y31117D01*
X-132355Y31498D01*
X-135783D01*
Y23500D01*
X-113000Y16348D02*
X-111096Y8350D01*
X-109191Y16348D02*
X-111096Y8350D01*
X-109191Y16348D02*
X-107287Y8350D01*
X-105382Y16348D02*
X-107287Y8350D01*
X-103783Y16348D02*
Y8350D01*
Y16348D02*
X-98451Y8350D01*
Y16348D02*
Y8350D01*
X-145000Y4998D02*
X-141953Y-3000D01*
X-138906Y4998D02*
X-141953Y-3000D01*
X-137878Y809D02*
X-134450D01*
X-133307Y1190D01*
X-132926Y1570D01*
X-132545Y2332D01*
Y3475D01*
X-132926Y4237D01*
X-133307Y4617D01*
X-134450Y4998D01*
X-137878D01*
Y-3000D01*
X-113000Y-7402D02*
X-109953Y-15400D01*
X-106906Y-7402D02*
X-109953Y-15400D01*
X-105878Y-7402D02*
Y-15400D01*
Y-7402D02*
X-100546Y-15400D01*
Y-7402D02*
Y-15400D01*
X-144000Y-21002D02*
Y-26715D01*
X-143619Y-27857D01*
X-142857Y-28619D01*
X-141715Y-29000D01*
X-140953D01*
X-139810Y-28619D01*
X-139049Y-27857D01*
X-138668Y-26715D01*
Y-21002D01*
X-136459Y-25191D02*
X-133031D01*
X-131888Y-24810D01*
X-131507Y-24430D01*
X-131126Y-23668D01*
Y-22525D01*
X-131507Y-21763D01*
X-131888Y-21383D01*
X-133031Y-21002D01*
X-136459D01*
Y-29000D01*
X-113000Y-32502D02*
Y-38215D01*
X-112619Y-39357D01*
X-111857Y-40119D01*
X-110715Y-40500D01*
X-109953D01*
X-108810Y-40119D01*
X-108049Y-39357D01*
X-107668Y-38215D01*
Y-32502D01*
X-105459D02*
Y-40500D01*
Y-32502D02*
X-100126Y-40500D01*
Y-32502D02*
Y-40500D01*
X187500Y254248D02*
Y246250D01*
Y254248D02*
X190928D01*
X192071Y253867D01*
X192451Y253487D01*
X192832Y252725D01*
Y251963D01*
X192451Y251201D01*
X192071Y250821D01*
X190928Y250440D01*
X187500D01*
X190166D02*
X192832Y246250D01*
X197288Y254248D02*
Y246250D01*
X194622Y254248D02*
X199954D01*
X201668D02*
X205858D01*
X203573Y251201D01*
X204715D01*
X205477Y250821D01*
X205858Y250440D01*
X206239Y249297D01*
Y248535D01*
X205858Y247393D01*
X205096Y246631D01*
X203954Y246250D01*
X202811D01*
X201668Y246631D01*
X201287Y247012D01*
X200907Y247773D01*
X210314Y254248D02*
X209172Y253867D01*
X208410Y252725D01*
X208029Y250821D01*
Y249678D01*
X208410Y247773D01*
X209172Y246631D01*
X210314Y246250D01*
X211076D01*
X212218Y246631D01*
X212980Y247773D01*
X213361Y249678D01*
Y250821D01*
X212980Y252725D01*
X212218Y253867D01*
X211076Y254248D01*
X210314D01*
X215151Y252725D02*
X215913Y253106D01*
X217056Y254248D01*
Y246250D01*
X232002Y205000D02*
X240000D01*
X232002D02*
Y208428D01*
X232383Y209570D01*
X232763Y209951D01*
X233525Y210332D01*
X234287D01*
X235049Y209951D01*
X235430Y209570D01*
X235810Y208428D01*
Y205000D01*
Y207666D02*
X240000Y210332D01*
X232002Y215931D02*
X237334Y212122D01*
Y217835D01*
X232002Y215931D02*
X240000D01*
X232002Y223053D02*
X237334Y219245D01*
Y224958D01*
X232002Y223053D02*
X240000D01*
X233906Y226748D02*
X233525D01*
X232763Y227129D01*
X232383Y227509D01*
X232002Y228271D01*
Y229795D01*
X232383Y230556D01*
X232763Y230937D01*
X233525Y231318D01*
X234287D01*
X235049Y230937D01*
X236191Y230176D01*
X240000Y226367D01*
Y231699D01*
X149502Y46250D02*
X157500D01*
X149502D02*
Y49678D01*
X149883Y50820D01*
X150263Y51201D01*
X151025Y51582D01*
X151787D01*
X152549Y51201D01*
X152929Y50820D01*
X153310Y49678D01*
Y46250D01*
Y48916D02*
X157500Y51582D01*
X149502Y57181D02*
X154834Y53372D01*
Y59085D01*
X149502Y57181D02*
X157500D01*
X149502Y61256D02*
Y65446D01*
X152549Y63161D01*
Y64303D01*
X152929Y65065D01*
X153310Y65446D01*
X154453Y65827D01*
X155215D01*
X156357Y65446D01*
X157119Y64684D01*
X157500Y63541D01*
Y62399D01*
X157119Y61256D01*
X156738Y60875D01*
X155976Y60495D01*
X149502Y68379D02*
Y72568D01*
X152549Y70283D01*
Y71426D01*
X152929Y72187D01*
X153310Y72568D01*
X154453Y72949D01*
X155215D01*
X156357Y72568D01*
X157119Y71806D01*
X157500Y70664D01*
Y69521D01*
X157119Y68379D01*
X156738Y67998D01*
X155976Y67617D01*
X151002Y132000D02*
X159000D01*
X151002D02*
Y135428D01*
X151383Y136570D01*
X151763Y136951D01*
X152525Y137332D01*
X153287D01*
X154049Y136951D01*
X154430Y136570D01*
X154810Y135428D01*
Y132000D01*
Y134666D02*
X159000Y137332D01*
X151002Y142931D02*
X156334Y139122D01*
Y144835D01*
X151002Y142931D02*
X159000D01*
X151002Y147006D02*
Y151196D01*
X154049Y148911D01*
Y150053D01*
X154430Y150815D01*
X154810Y151196D01*
X155953Y151577D01*
X156715D01*
X157857Y151196D01*
X158619Y150434D01*
X159000Y149291D01*
Y148149D01*
X158619Y147006D01*
X158238Y146625D01*
X157477Y146245D01*
X151002Y157176D02*
X156334Y153367D01*
Y159080D01*
X151002Y157176D02*
X159000D01*
X161702Y177500D02*
X169700D01*
X161702D02*
Y180928D01*
X162083Y182071D01*
X162463Y182451D01*
X163225Y182832D01*
X163987D01*
X164749Y182451D01*
X165130Y182071D01*
X165510Y180928D01*
Y177500D01*
Y180166D02*
X169700Y182832D01*
X161702Y188431D02*
X167034Y184622D01*
Y190336D01*
X161702Y188431D02*
X169700D01*
X161702Y192506D02*
Y196696D01*
X164749Y194411D01*
Y195553D01*
X165130Y196315D01*
X165510Y196696D01*
X166653Y197077D01*
X167415D01*
X168557Y196696D01*
X169319Y195934D01*
X169700Y194792D01*
Y193649D01*
X169319Y192506D01*
X168938Y192125D01*
X168176Y191745D01*
X163225Y198867D02*
X162844Y199629D01*
X161702Y200771D01*
X169700D01*
X-267500Y56748D02*
Y48750D01*
X-262929D01*
X-262054Y56748D02*
Y48750D01*
Y56748D02*
X-259387D01*
X-258245Y56367D01*
X-257483Y55606D01*
X-257102Y54844D01*
X-256721Y53701D01*
Y51797D01*
X-257102Y50654D01*
X-257483Y49893D01*
X-258245Y49131D01*
X-259387Y48750D01*
X-262054D01*
X-252646Y56748D02*
X-253408Y56367D01*
X-254170Y55606D01*
X-254550Y54844D01*
X-254931Y53701D01*
Y51797D01*
X-254550Y50654D01*
X-254170Y49893D01*
X-253408Y49131D01*
X-252646Y48750D01*
X-251123D01*
X-250361Y49131D01*
X-249599Y49893D01*
X-249218Y50654D01*
X-248837Y51797D01*
Y53701D01*
X-249218Y54844D01*
X-249599Y55606D01*
X-250361Y56367D01*
X-251123Y56748D01*
X-252646D01*
X-246209D02*
X-242020D01*
X-244305Y53701D01*
X-243162D01*
X-242401Y53320D01*
X-242020Y52940D01*
X-241639Y51797D01*
Y51035D01*
X-242020Y49893D01*
X-242782Y49131D01*
X-243924Y48750D01*
X-245067D01*
X-246209Y49131D01*
X-246590Y49512D01*
X-246971Y50273D01*
X-239849Y46084D02*
X-233755D01*
X-231965Y56748D02*
X-227775D01*
X-230060Y53701D01*
X-228918D01*
X-228156Y53320D01*
X-227775Y52940D01*
X-227394Y51797D01*
Y51035D01*
X-227775Y49893D01*
X-228537Y49131D01*
X-229680Y48750D01*
X-230822D01*
X-231965Y49131D01*
X-232346Y49512D01*
X-232726Y50273D01*
X202002Y126250D02*
X210000D01*
X202002D02*
Y128916D01*
X202383Y130059D01*
X203144Y130820D01*
X203906Y131201D01*
X205049Y131582D01*
X206953D01*
X208096Y131201D01*
X208857Y130820D01*
X209619Y130059D01*
X210000Y128916D01*
Y126250D01*
X202002Y137181D02*
X207334Y133372D01*
Y139085D01*
X202002Y137181D02*
X210000D01*
X202002Y142780D02*
X202383Y141637D01*
X203525Y140875D01*
X205430Y140495D01*
X206572D01*
X208477Y140875D01*
X209619Y141637D01*
X210000Y142780D01*
Y143541D01*
X209619Y144684D01*
X208477Y145446D01*
X206572Y145827D01*
X205430D01*
X203525Y145446D01*
X202383Y144684D01*
X202002Y143541D01*
Y142780D01*
X203144Y152187D02*
X202383Y151806D01*
X202002Y150664D01*
Y149902D01*
X202383Y148759D01*
X203525Y147998D01*
X205430Y147617D01*
X207334D01*
X208857Y147998D01*
X209619Y148759D01*
X210000Y149902D01*
Y150283D01*
X209619Y151426D01*
X208857Y152187D01*
X207715Y152568D01*
X207334D01*
X206191Y152187D01*
X205430Y151426D01*
X205049Y150283D01*
Y149902D01*
X205430Y148759D01*
X206191Y147998D01*
X207334Y147617D01*
X189002Y187000D02*
X197000D01*
X189002D02*
Y189666D01*
X189383Y190809D01*
X190144Y191570D01*
X190906Y191951D01*
X192049Y192332D01*
X193953D01*
X195096Y191951D01*
X195857Y191570D01*
X196619Y190809D01*
X197000Y189666D01*
Y187000D01*
X189002Y197931D02*
X194334Y194122D01*
Y199835D01*
X189002Y197931D02*
X197000D01*
X189002Y203530D02*
X189383Y202387D01*
X190525Y201625D01*
X192430Y201245D01*
X193572D01*
X195476Y201625D01*
X196619Y202387D01*
X197000Y203530D01*
Y204291D01*
X196619Y205434D01*
X195476Y206196D01*
X193572Y206577D01*
X192430D01*
X190525Y206196D01*
X189383Y205434D01*
X189002Y204291D01*
Y203530D01*
Y212937D02*
Y209129D01*
X192430Y208748D01*
X192049Y209129D01*
X191668Y210271D01*
Y211414D01*
X192049Y212556D01*
X192810Y213318D01*
X193953Y213699D01*
X194715D01*
X195857Y213318D01*
X196619Y212556D01*
X197000Y211414D01*
Y210271D01*
X196619Y209129D01*
X196238Y208748D01*
X195476Y208367D01*
X131002Y127000D02*
X139000D01*
X131002D02*
Y129666D01*
X131383Y130809D01*
X132144Y131571D01*
X132906Y131951D01*
X134049Y132332D01*
X135953D01*
X137096Y131951D01*
X137857Y131571D01*
X138619Y130809D01*
X139000Y129666D01*
Y127000D01*
X131002Y137931D02*
X136334Y134122D01*
Y139835D01*
X131002Y137931D02*
X139000D01*
X131002Y143530D02*
X131383Y142387D01*
X132525Y141625D01*
X134430Y141245D01*
X135572D01*
X137477Y141625D01*
X138619Y142387D01*
X139000Y143530D01*
Y144291D01*
X138619Y145434D01*
X137477Y146196D01*
X135572Y146577D01*
X134430D01*
X132525Y146196D01*
X131383Y145434D01*
X131002Y144291D01*
Y143530D01*
Y152176D02*
X136334Y148367D01*
Y154080D01*
X131002Y152176D02*
X139000D01*
X119002Y187000D02*
X127000D01*
X119002D02*
Y189666D01*
X119383Y190809D01*
X120144Y191570D01*
X120906Y191951D01*
X122049Y192332D01*
X123953D01*
X125096Y191951D01*
X125857Y191570D01*
X126619Y190809D01*
X127000Y189666D01*
Y187000D01*
X119002Y197931D02*
X124334Y194122D01*
Y199835D01*
X119002Y197931D02*
X127000D01*
X119002Y203530D02*
X119383Y202387D01*
X120525Y201625D01*
X122430Y201245D01*
X123572D01*
X125477Y201625D01*
X126619Y202387D01*
X127000Y203530D01*
Y204291D01*
X126619Y205434D01*
X125477Y206196D01*
X123572Y206577D01*
X122430D01*
X120525Y206196D01*
X119383Y205434D01*
X119002Y204291D01*
Y203530D01*
Y209129D02*
Y213318D01*
X122049Y211033D01*
Y212176D01*
X122430Y212937D01*
X122810Y213318D01*
X123953Y213699D01*
X124715D01*
X125857Y213318D01*
X126619Y212556D01*
X127000Y211414D01*
Y210271D01*
X126619Y209129D01*
X126238Y208748D01*
X125477Y208367D01*
X58252Y127500D02*
X66250D01*
X58252D02*
Y130166D01*
X58633Y131309D01*
X59394Y132070D01*
X60156Y132451D01*
X61299Y132832D01*
X63203D01*
X64346Y132451D01*
X65107Y132070D01*
X65869Y131309D01*
X66250Y130166D01*
Y127500D01*
X58252Y138431D02*
X63584Y134622D01*
Y140335D01*
X58252Y138431D02*
X66250D01*
X58252Y144030D02*
X58633Y142887D01*
X59775Y142125D01*
X61680Y141745D01*
X62822D01*
X64727Y142125D01*
X65869Y142887D01*
X66250Y144030D01*
Y144791D01*
X65869Y145934D01*
X64727Y146696D01*
X62822Y147077D01*
X61680D01*
X59775Y146696D01*
X58633Y145934D01*
X58252Y144791D01*
Y144030D01*
X60156Y149248D02*
X59775D01*
X59013Y149629D01*
X58633Y150009D01*
X58252Y150771D01*
Y152295D01*
X58633Y153056D01*
X59013Y153437D01*
X59775Y153818D01*
X60537D01*
X61299Y153437D01*
X62441Y152676D01*
X66250Y148867D01*
Y154199D01*
X49002Y189000D02*
X57000D01*
X49002D02*
Y191666D01*
X49383Y192809D01*
X50144Y193570D01*
X50906Y193951D01*
X52049Y194332D01*
X53953D01*
X55096Y193951D01*
X55857Y193570D01*
X56619Y192809D01*
X57000Y191666D01*
Y189000D01*
X49002Y199931D02*
X54334Y196122D01*
Y201835D01*
X49002Y199931D02*
X57000D01*
X49002Y205530D02*
X49383Y204387D01*
X50525Y203626D01*
X52429Y203245D01*
X53572D01*
X55476Y203626D01*
X56619Y204387D01*
X57000Y205530D01*
Y206292D01*
X56619Y207434D01*
X55476Y208196D01*
X53572Y208577D01*
X52429D01*
X50525Y208196D01*
X49383Y207434D01*
X49002Y206292D01*
Y205530D01*
X50525Y210367D02*
X50144Y211129D01*
X49002Y212271D01*
X57000D01*
X-130000Y211748D02*
Y203750D01*
Y211748D02*
X-126572D01*
X-125429Y211367D01*
X-125049Y210987D01*
X-124668Y210225D01*
Y209463D01*
X-125049Y208701D01*
X-125429Y208321D01*
X-126572Y207940D01*
X-130000D02*
X-126572D01*
X-125429Y207559D01*
X-125049Y207178D01*
X-124668Y206416D01*
Y205273D01*
X-125049Y204512D01*
X-125429Y204131D01*
X-126572Y203750D01*
X-130000D01*
X-122878Y211748D02*
Y203750D01*
Y211748D02*
X-119450D01*
X-118307Y211367D01*
X-117926Y210987D01*
X-117545Y210225D01*
Y209463D01*
X-117926Y208701D01*
X-118307Y208321D01*
X-119450Y207940D01*
X-122878D01*
X-120212D02*
X-117545Y203750D01*
X-115755Y211748D02*
Y203750D01*
X-110423Y211748D02*
X-115755Y206416D01*
X-113851Y208321D02*
X-110423Y203750D01*
X-108633Y201084D02*
X-102539D01*
X-99226Y211748D02*
X-99987Y211367D01*
X-100749Y210606D01*
X-101130Y209844D01*
X-101511Y208701D01*
Y206797D01*
X-101130Y205654D01*
X-100749Y204893D01*
X-99987Y204131D01*
X-99226Y203750D01*
X-97702D01*
X-96940Y204131D01*
X-96179Y204893D01*
X-95798Y205654D01*
X-95417Y206797D01*
Y208701D01*
X-95798Y209844D01*
X-96179Y210606D01*
X-96940Y211367D01*
X-97702Y211748D01*
X-99226D01*
X-93551D02*
Y203750D01*
Y211748D02*
X-88218Y203750D01*
Y211748D02*
Y203750D01*
X-298750Y132998D02*
Y125000D01*
Y132998D02*
X-295322D01*
X-294179Y132617D01*
X-293799Y132237D01*
X-293418Y131475D01*
Y130713D01*
X-293799Y129951D01*
X-294179Y129571D01*
X-295322Y129190D01*
X-298750D02*
X-295322D01*
X-294179Y128809D01*
X-293799Y128428D01*
X-293418Y127666D01*
Y126524D01*
X-293799Y125762D01*
X-294179Y125381D01*
X-295322Y125000D01*
X-298750D01*
X-291628Y132998D02*
Y125000D01*
Y132998D02*
X-288200D01*
X-287057Y132617D01*
X-286676Y132237D01*
X-286296Y131475D01*
Y130713D01*
X-286676Y129951D01*
X-287057Y129571D01*
X-288200Y129190D01*
X-291628D01*
X-288962D02*
X-286296Y125000D01*
X-284505Y132998D02*
Y125000D01*
X-279173Y132998D02*
X-284505Y127666D01*
X-282601Y129571D02*
X-279173Y125000D01*
X-273955Y131856D02*
Y125000D01*
X-277383Y128428D02*
X-270527D01*
X-196250Y124248D02*
Y118535D01*
X-195869Y117393D01*
X-195107Y116631D01*
X-193965Y116250D01*
X-193203D01*
X-192060Y116631D01*
X-191299Y117393D01*
X-190918Y118535D01*
Y124248D01*
X-187947D02*
X-183757D01*
X-186043Y121201D01*
X-184900D01*
X-184138Y120821D01*
X-183757Y120440D01*
X-183377Y119297D01*
Y118535D01*
X-183757Y117393D01*
X-184519Y116631D01*
X-185662Y116250D01*
X-186804D01*
X-187947Y116631D01*
X-188328Y117012D01*
X-188709Y117774D01*
X-181206Y122344D02*
Y122725D01*
X-180825Y123487D01*
X-180444Y123867D01*
X-179682Y124248D01*
X-178159D01*
X-177397Y123867D01*
X-177016Y123487D01*
X-176635Y122725D01*
Y121963D01*
X-177016Y121201D01*
X-177778Y120059D01*
X-181586Y116250D01*
X-176254D01*
X-174464Y122725D02*
X-173702Y123106D01*
X-172560Y124248D01*
Y116250D01*
X-172500Y303748D02*
Y296607D01*
X-172024Y295178D01*
X-171072Y294226D01*
X-169643Y293750D01*
X-168691D01*
X-167263Y294226D01*
X-166311Y295178D01*
X-165835Y296607D01*
Y303748D01*
X-162121D02*
X-156884D01*
X-159741Y299939D01*
X-158313D01*
X-157360Y299463D01*
X-156884Y298987D01*
X-156408Y297559D01*
Y296607D01*
X-156884Y295178D01*
X-157837Y294226D01*
X-159265Y293750D01*
X-160693D01*
X-162121Y294226D01*
X-162597Y294702D01*
X-163074Y295654D01*
X-154171Y301843D02*
X-153218Y302320D01*
X-151790Y303748D01*
Y293750D01*
X-146839Y301843D02*
X-145887Y302320D01*
X-144458Y303748D01*
Y293750D01*
X-172500Y258748D02*
Y251607D01*
X-172024Y250178D01*
X-171072Y249226D01*
X-169643Y248750D01*
X-168691D01*
X-167263Y249226D01*
X-166311Y250178D01*
X-165835Y251607D01*
Y258748D01*
X-162121D02*
X-156884D01*
X-159741Y254939D01*
X-158313D01*
X-157360Y254463D01*
X-156884Y253987D01*
X-156408Y252559D01*
Y251607D01*
X-156884Y250178D01*
X-157837Y249226D01*
X-159265Y248750D01*
X-160693D01*
X-162121Y249226D01*
X-162597Y249702D01*
X-163074Y250654D01*
X-151314Y258748D02*
X-152742Y258272D01*
X-153694Y256843D01*
X-154171Y254463D01*
Y253035D01*
X-153694Y250654D01*
X-152742Y249226D01*
X-151314Y248750D01*
X-150362D01*
X-148934Y249226D01*
X-147982Y250654D01*
X-147505Y253035D01*
Y254463D01*
X-147982Y256843D01*
X-148934Y258272D01*
X-150362Y258748D01*
X-151314D01*
X-145268Y256843D02*
X-144316Y257320D01*
X-142887Y258748D01*
Y248750D01*
X217502Y131000D02*
X225500D01*
X217502D02*
Y134428D01*
X217882Y135570D01*
X218263Y135951D01*
X219025Y136332D01*
X219787D01*
X220549Y135951D01*
X220930Y135570D01*
X221310Y134428D01*
Y131000D01*
Y133666D02*
X225500Y136332D01*
X217502Y141931D02*
X222834Y138122D01*
Y143835D01*
X217502Y141931D02*
X225500D01*
X217502Y149053D02*
X222834Y145245D01*
Y150958D01*
X217502Y149053D02*
X225500D01*
X217502Y156176D02*
X222834Y152367D01*
Y158080D01*
X217502Y156176D02*
X225500D01*
X232002Y175000D02*
X240000D01*
X232002D02*
Y178428D01*
X232383Y179571D01*
X232763Y179951D01*
X233525Y180332D01*
X234287D01*
X235049Y179951D01*
X235430Y179571D01*
X235810Y178428D01*
Y175000D01*
Y177666D02*
X240000Y180332D01*
X232002Y185931D02*
X237334Y182122D01*
Y187835D01*
X232002Y185931D02*
X240000D01*
X232002Y193053D02*
X237334Y189245D01*
Y194958D01*
X232002Y193053D02*
X240000D01*
X233525Y196367D02*
X233144Y197129D01*
X232002Y198271D01*
X240000D01*
X162002Y207000D02*
X170000D01*
X162002D02*
Y210428D01*
X162383Y211570D01*
X162763Y211951D01*
X163525Y212332D01*
X164287D01*
X165049Y211951D01*
X165429Y211570D01*
X165810Y210428D01*
Y207000D01*
Y209666D02*
X170000Y212332D01*
X162002Y217931D02*
X167334Y214122D01*
Y219835D01*
X162002Y217931D02*
X170000D01*
X162002Y222006D02*
Y226196D01*
X165049Y223911D01*
Y225053D01*
X165429Y225815D01*
X165810Y226196D01*
X166953Y226577D01*
X167715D01*
X168857Y226196D01*
X169619Y225434D01*
X170000Y224291D01*
Y223149D01*
X169619Y222006D01*
X169238Y221625D01*
X168477Y221245D01*
X163906Y228748D02*
X163525D01*
X162763Y229129D01*
X162383Y229510D01*
X162002Y230271D01*
Y231795D01*
X162383Y232556D01*
X162763Y232937D01*
X163525Y233318D01*
X164287D01*
X165049Y232937D01*
X166191Y232176D01*
X170000Y228367D01*
Y233699D01*
X75002Y46500D02*
X83000D01*
X75002D02*
Y49928D01*
X75383Y51070D01*
X75764Y51451D01*
X76525Y51832D01*
X77287D01*
X78049Y51451D01*
X78430Y51070D01*
X78810Y49928D01*
Y46500D01*
Y49166D02*
X83000Y51832D01*
X75002Y57431D02*
X80334Y53622D01*
Y59335D01*
X75002Y57431D02*
X83000D01*
X76906Y61125D02*
X76525D01*
X75764Y61506D01*
X75383Y61887D01*
X75002Y62649D01*
Y64172D01*
X75383Y64934D01*
X75764Y65315D01*
X76525Y65696D01*
X77287D01*
X78049Y65315D01*
X79191Y64553D01*
X83000Y60745D01*
Y66077D01*
X75002Y68629D02*
Y72818D01*
X78049Y70533D01*
Y71676D01*
X78430Y72437D01*
X78810Y72818D01*
X79953Y73199D01*
X80715D01*
X81857Y72818D01*
X82619Y72056D01*
X83000Y70914D01*
Y69771D01*
X82619Y68629D01*
X82238Y68248D01*
X81476Y67867D01*
X-266094Y198213D02*
X-266856Y197832D01*
X-267617Y197070D01*
X-267998Y196309D01*
Y194785D01*
X-267617Y194023D01*
X-266856Y193262D01*
X-266094Y192881D01*
X-264951Y192500D01*
X-263047D01*
X-261904Y192881D01*
X-261143Y193262D01*
X-260381Y194023D01*
X-260000Y194785D01*
Y196309D01*
X-260381Y197070D01*
X-261143Y197832D01*
X-261904Y198213D01*
X-267998Y204269D02*
X-262666Y200460D01*
Y206173D01*
X-267998Y204269D02*
X-260000D01*
X-267998Y212153D02*
Y208344D01*
X-264570Y207963D01*
X-264951Y208344D01*
X-265332Y209487D01*
Y210629D01*
X-264951Y211772D01*
X-264190Y212534D01*
X-263047Y212915D01*
X-262285D01*
X-261143Y212534D01*
X-260381Y211772D01*
X-260000Y210629D01*
Y209487D01*
X-260381Y208344D01*
X-260762Y207963D01*
X-261523Y207582D01*
X-266094Y215086D02*
X-266475D01*
X-267236Y215466D01*
X-267617Y215847D01*
X-267998Y216609D01*
Y218133D01*
X-267617Y218894D01*
X-267236Y219275D01*
X-266475Y219656D01*
X-265713D01*
X-264951Y219275D01*
X-263809Y218514D01*
X-260000Y214705D01*
Y220037D01*
X-309287Y98594D02*
X-309668Y99356D01*
X-310430Y100117D01*
X-311191Y100498D01*
X-312715D01*
X-313477Y100117D01*
X-314238Y99356D01*
X-314619Y98594D01*
X-315000Y97451D01*
Y95547D01*
X-314619Y94404D01*
X-314238Y93643D01*
X-313477Y92881D01*
X-312715Y92500D01*
X-311191D01*
X-310430Y92881D01*
X-309668Y93643D01*
X-309287Y94404D01*
X-306278Y100498D02*
X-302089D01*
X-304374Y97451D01*
X-303231D01*
X-302469Y97070D01*
X-302089Y96690D01*
X-301708Y95547D01*
Y94785D01*
X-302089Y93643D01*
X-302850Y92881D01*
X-303993Y92500D01*
X-305135D01*
X-306278Y92881D01*
X-306659Y93262D01*
X-307040Y94024D01*
X-299537Y98594D02*
Y98975D01*
X-299156Y99737D01*
X-298775Y100117D01*
X-298013Y100498D01*
X-296490D01*
X-295728Y100117D01*
X-295347Y99737D01*
X-294966Y98975D01*
Y98213D01*
X-295347Y97451D01*
X-296109Y96309D01*
X-299918Y92500D01*
X-294585D01*
X-292034Y100498D02*
X-287844D01*
X-290129Y97451D01*
X-288986D01*
X-288225Y97070D01*
X-287844Y96690D01*
X-287463Y95547D01*
Y94785D01*
X-287844Y93643D01*
X-288606Y92881D01*
X-289748Y92500D01*
X-290891D01*
X-292034Y92881D01*
X-292414Y93262D01*
X-292795Y94024D01*
X-306787Y73594D02*
X-307168Y74356D01*
X-307930Y75117D01*
X-308691Y75498D01*
X-310215D01*
X-310977Y75117D01*
X-311738Y74356D01*
X-312119Y73594D01*
X-312500Y72451D01*
Y70547D01*
X-312119Y69404D01*
X-311738Y68643D01*
X-310977Y67881D01*
X-310215Y67500D01*
X-308691D01*
X-307930Y67881D01*
X-307168Y68643D01*
X-306787Y69404D01*
X-303778Y75498D02*
X-299589D01*
X-301874Y72451D01*
X-300731D01*
X-299969Y72070D01*
X-299589Y71690D01*
X-299208Y70547D01*
Y69785D01*
X-299589Y68643D01*
X-300350Y67881D01*
X-301493Y67500D01*
X-302635D01*
X-303778Y67881D01*
X-304159Y68262D01*
X-304540Y69023D01*
X-297037Y73594D02*
Y73975D01*
X-296656Y74737D01*
X-296275Y75117D01*
X-295513Y75498D01*
X-293990D01*
X-293228Y75117D01*
X-292847Y74737D01*
X-292466Y73975D01*
Y73213D01*
X-292847Y72451D01*
X-293609Y71309D01*
X-297418Y67500D01*
X-292085D01*
X-290295Y73975D02*
X-289534Y74356D01*
X-288391Y75498D01*
Y67500D01*
X-309287Y86094D02*
X-309668Y86856D01*
X-310430Y87617D01*
X-311191Y87998D01*
X-312715D01*
X-313477Y87617D01*
X-314238Y86856D01*
X-314619Y86094D01*
X-315000Y84951D01*
Y83047D01*
X-314619Y81904D01*
X-314238Y81143D01*
X-313477Y80381D01*
X-312715Y80000D01*
X-311191D01*
X-310430Y80381D01*
X-309668Y81143D01*
X-309287Y81904D01*
X-306278Y87998D02*
X-302089D01*
X-304374Y84951D01*
X-303231D01*
X-302469Y84570D01*
X-302089Y84190D01*
X-301708Y83047D01*
Y82285D01*
X-302089Y81143D01*
X-302850Y80381D01*
X-303993Y80000D01*
X-305135D01*
X-306278Y80381D01*
X-306659Y80762D01*
X-307040Y81524D01*
X-299537Y86094D02*
Y86475D01*
X-299156Y87237D01*
X-298775Y87617D01*
X-298013Y87998D01*
X-296490D01*
X-295728Y87617D01*
X-295347Y87237D01*
X-294966Y86475D01*
Y85713D01*
X-295347Y84951D01*
X-296109Y83809D01*
X-299918Y80000D01*
X-294585D01*
X-292414Y86094D02*
Y86475D01*
X-292034Y87237D01*
X-291653Y87617D01*
X-290891Y87998D01*
X-289367D01*
X-288606Y87617D01*
X-288225Y87237D01*
X-287844Y86475D01*
Y85713D01*
X-288225Y84951D01*
X-288986Y83809D01*
X-292795Y80000D01*
X-287463D01*
X-129248Y132500D02*
X-123535D01*
X-122393Y132881D01*
X-121631Y133643D01*
X-121250Y134785D01*
Y135547D01*
X-121631Y136690D01*
X-122393Y137451D01*
X-123535Y137832D01*
X-129248D01*
Y143850D02*
X-123916Y140041D01*
Y145754D01*
X-129248Y143850D02*
X-121250D01*
X-129248Y151734D02*
Y147925D01*
X-125820Y147544D01*
X-126201Y147925D01*
X-126582Y149068D01*
Y150211D01*
X-126201Y151353D01*
X-125440Y152115D01*
X-124297Y152496D01*
X-123535D01*
X-122393Y152115D01*
X-121631Y151353D01*
X-121250Y150211D01*
Y149068D01*
X-121631Y147925D01*
X-122012Y147544D01*
X-122774Y147163D01*
X-127725Y154286D02*
X-128106Y155048D01*
X-129248Y156190D01*
X-121250D01*
X25713Y-258906D02*
X25332Y-258144D01*
X24571Y-257383D01*
X23809Y-257002D01*
X22285D01*
X21523Y-257383D01*
X20762Y-258144D01*
X20381Y-258906D01*
X20000Y-260049D01*
Y-261953D01*
X20381Y-263096D01*
X20762Y-263857D01*
X21523Y-264619D01*
X22285Y-265000D01*
X23809D01*
X24571Y-264619D01*
X25332Y-263857D01*
X25713Y-263096D01*
X28722Y-257002D02*
X32912D01*
X30626Y-260049D01*
X31769D01*
X32531Y-260430D01*
X32912Y-260810D01*
X33292Y-261953D01*
Y-262715D01*
X32912Y-263857D01*
X32150Y-264619D01*
X31007Y-265000D01*
X29865D01*
X28722Y-264619D01*
X28341Y-264238D01*
X27960Y-263477D01*
X35844Y-257002D02*
X40034D01*
X37749Y-260049D01*
X38891D01*
X39653Y-260430D01*
X40034Y-260810D01*
X40415Y-261953D01*
Y-262715D01*
X40034Y-263857D01*
X39272Y-264619D01*
X38129Y-265000D01*
X36987D01*
X35844Y-264619D01*
X35463Y-264238D01*
X35082Y-263477D01*
X42205Y-258525D02*
X42966Y-258144D01*
X44109Y-257002D01*
Y-265000D01*
X-217500Y171748D02*
Y163750D01*
Y171748D02*
X-214834D01*
X-213691Y171367D01*
X-212929Y170606D01*
X-212549Y169844D01*
X-212168Y168701D01*
Y166797D01*
X-212549Y165654D01*
X-212929Y164893D01*
X-213691Y164131D01*
X-214834Y163750D01*
X-217500D01*
X-206569Y171748D02*
X-210378Y166416D01*
X-204665D01*
X-206569Y171748D02*
Y163750D01*
X-198685Y171748D02*
X-202494D01*
X-202875Y168320D01*
X-202494Y168701D01*
X-201351Y169082D01*
X-200208D01*
X-199066Y168701D01*
X-198304Y167940D01*
X-197923Y166797D01*
Y166035D01*
X-198304Y164893D01*
X-199066Y164131D01*
X-200208Y163750D01*
X-201351D01*
X-202494Y164131D01*
X-202875Y164512D01*
X-203255Y165273D01*
X-195371Y171748D02*
X-191182D01*
X-193467Y168701D01*
X-192324D01*
X-191563Y168320D01*
X-191182Y167940D01*
X-190801Y166797D01*
Y166035D01*
X-191182Y164893D01*
X-191944Y164131D01*
X-193086Y163750D01*
X-194229D01*
X-195371Y164131D01*
X-195752Y164512D01*
X-196133Y165273D01*
X23750Y-270752D02*
Y-278750D01*
Y-270752D02*
X26416D01*
X27559Y-271133D01*
X28320Y-271894D01*
X28701Y-272656D01*
X29082Y-273799D01*
Y-275703D01*
X28701Y-276846D01*
X28320Y-277607D01*
X27559Y-278369D01*
X26416Y-278750D01*
X23750D01*
X36585Y-272656D02*
X36205Y-271894D01*
X35443Y-271133D01*
X34681Y-270752D01*
X33157D01*
X32396Y-271133D01*
X31634Y-271894D01*
X31253Y-272656D01*
X30872Y-273799D01*
Y-275703D01*
X31253Y-276846D01*
X31634Y-277607D01*
X32396Y-278369D01*
X33157Y-278750D01*
X34681D01*
X35443Y-278369D01*
X36205Y-277607D01*
X36585Y-276846D01*
X38832Y-270752D02*
Y-278750D01*
X43403D01*
X45041Y-270752D02*
X45422Y-271133D01*
X45802Y-270752D01*
X45422Y-270371D01*
X45041Y-270752D01*
X45422Y-273418D02*
Y-278750D01*
X47212Y-273418D02*
Y-278750D01*
Y-274941D02*
X48354Y-273799D01*
X49116Y-273418D01*
X50259D01*
X51020Y-273799D01*
X51401Y-274941D01*
Y-278750D01*
X53496Y-270752D02*
Y-278750D01*
X57305Y-273418D02*
X53496Y-277227D01*
X55019Y-275703D02*
X57686Y-278750D01*
X-217715Y226748D02*
X-218477Y226367D01*
X-219238Y225606D01*
X-219619Y224844D01*
X-220000Y223701D01*
Y221797D01*
X-219619Y220654D01*
X-219238Y219893D01*
X-218477Y219131D01*
X-217715Y218750D01*
X-216191D01*
X-215429Y219131D01*
X-214668Y219893D01*
X-214287Y220654D01*
X-213906Y221797D01*
Y223701D01*
X-214287Y224844D01*
X-214668Y225606D01*
X-215429Y226367D01*
X-216191Y226748D01*
X-217715D01*
X-216572Y220273D02*
X-214287Y217988D01*
X-208231Y226748D02*
X-212040Y221416D01*
X-206327D01*
X-208231Y226748D02*
Y218750D01*
X-200347Y226748D02*
X-204156D01*
X-204537Y223321D01*
X-204156Y223701D01*
X-203013Y224082D01*
X-201870D01*
X-200728Y223701D01*
X-199966Y222940D01*
X-199585Y221797D01*
Y221035D01*
X-199966Y219893D01*
X-200728Y219131D01*
X-201870Y218750D01*
X-203013D01*
X-204156Y219131D01*
X-204537Y219512D01*
X-204918Y220273D01*
X-197795Y225225D02*
X-197034Y225606D01*
X-195891Y226748D01*
Y218750D01*
X83752Y-205000D02*
X93750D01*
X83752D02*
Y-200715D01*
X84228Y-199287D01*
X84704Y-198811D01*
X85656Y-198335D01*
X86609D01*
X87561Y-198811D01*
X88037Y-199287D01*
X88513Y-200715D01*
Y-205000D01*
Y-201667D02*
X93750Y-198335D01*
X83752Y-195145D02*
Y-189908D01*
X87561Y-192764D01*
Y-191336D01*
X88037Y-190384D01*
X88513Y-189908D01*
X89941Y-189432D01*
X90893D01*
X92322Y-189908D01*
X93274Y-190860D01*
X93750Y-192288D01*
Y-193717D01*
X93274Y-195145D01*
X92798Y-195621D01*
X91846Y-196097D01*
X83752Y-186242D02*
Y-181005D01*
X87561Y-183862D01*
Y-182433D01*
X88037Y-181481D01*
X88513Y-181005D01*
X89941Y-180529D01*
X90893D01*
X92322Y-181005D01*
X93274Y-181957D01*
X93750Y-183386D01*
Y-184814D01*
X93274Y-186242D01*
X92798Y-186718D01*
X91846Y-187194D01*
X85656Y-178291D02*
X85180Y-177339D01*
X83752Y-175911D01*
X93750D01*
X31252Y-205000D02*
X41250D01*
X31252D02*
Y-200715D01*
X31728Y-199287D01*
X32204Y-198811D01*
X33156Y-198335D01*
X34109D01*
X35061Y-198811D01*
X35537Y-199287D01*
X36013Y-200715D01*
Y-205000D01*
Y-201667D02*
X41250Y-198335D01*
X31252Y-195145D02*
Y-189908D01*
X35061Y-192764D01*
Y-191336D01*
X35537Y-190384D01*
X36013Y-189908D01*
X37441Y-189432D01*
X38393D01*
X39822Y-189908D01*
X40774Y-190860D01*
X41250Y-192288D01*
Y-193717D01*
X40774Y-195145D01*
X40298Y-195621D01*
X39346Y-196097D01*
X31252Y-186242D02*
Y-181005D01*
X35061Y-183862D01*
Y-182433D01*
X35537Y-181481D01*
X36013Y-181005D01*
X37441Y-180529D01*
X38393D01*
X39822Y-181005D01*
X40774Y-181957D01*
X41250Y-183386D01*
Y-184814D01*
X40774Y-186242D01*
X40298Y-186718D01*
X39346Y-187194D01*
X33633Y-177815D02*
X33156D01*
X32204Y-177339D01*
X31728Y-176863D01*
X31252Y-175911D01*
Y-174007D01*
X31728Y-173055D01*
X32204Y-172578D01*
X33156Y-172102D01*
X34109D01*
X35061Y-172578D01*
X36489Y-173531D01*
X41250Y-178291D01*
Y-171626D01*
X93002Y204000D02*
X101000D01*
X93002D02*
Y207428D01*
X93383Y208570D01*
X93763Y208951D01*
X94525Y209332D01*
X95287D01*
X96049Y208951D01*
X96430Y208570D01*
X96810Y207428D01*
Y204000D01*
Y206666D02*
X101000Y209332D01*
X93002Y214931D02*
X98334Y211122D01*
Y216835D01*
X93002Y214931D02*
X101000D01*
X94906Y218625D02*
X94525D01*
X93763Y219006D01*
X93383Y219387D01*
X93002Y220149D01*
Y221672D01*
X93383Y222434D01*
X93763Y222815D01*
X94525Y223196D01*
X95287D01*
X96049Y222815D01*
X97191Y222053D01*
X101000Y218244D01*
Y223577D01*
X94906Y225748D02*
X94525D01*
X93763Y226128D01*
X93383Y226509D01*
X93002Y227271D01*
Y228794D01*
X93383Y229556D01*
X93763Y229937D01*
X94525Y230318D01*
X95287D01*
X96049Y229937D01*
X97191Y229175D01*
X101000Y225367D01*
Y230699D01*
X92002Y172000D02*
X100000D01*
X92002D02*
Y175428D01*
X92383Y176570D01*
X92763Y176951D01*
X93525Y177332D01*
X94287D01*
X95049Y176951D01*
X95430Y176570D01*
X95810Y175428D01*
Y172000D01*
Y174666D02*
X100000Y177332D01*
X92002Y182931D02*
X97334Y179122D01*
Y184835D01*
X92002Y182931D02*
X100000D01*
X93906Y186625D02*
X93525D01*
X92763Y187006D01*
X92383Y187387D01*
X92002Y188149D01*
Y189672D01*
X92383Y190434D01*
X92763Y190815D01*
X93525Y191196D01*
X94287D01*
X95049Y190815D01*
X96191Y190053D01*
X100000Y186245D01*
Y191577D01*
X93525Y193367D02*
X93144Y194129D01*
X92002Y195271D01*
X100000D01*
X72002Y132500D02*
X80000D01*
X72002D02*
Y135928D01*
X72383Y137070D01*
X72763Y137451D01*
X73525Y137832D01*
X74287D01*
X75049Y137451D01*
X75430Y137070D01*
X75810Y135928D01*
Y132500D01*
Y135166D02*
X80000Y137832D01*
X72002Y143431D02*
X77334Y139622D01*
Y145335D01*
X72002Y143431D02*
X80000D01*
X73906Y147125D02*
X73525D01*
X72763Y147506D01*
X72383Y147887D01*
X72002Y148649D01*
Y150172D01*
X72383Y150934D01*
X72763Y151315D01*
X73525Y151696D01*
X74287D01*
X75049Y151315D01*
X76191Y150553D01*
X80000Y146745D01*
Y152077D01*
X72002Y157676D02*
X77334Y153867D01*
Y159580D01*
X72002Y157676D02*
X80000D01*
X-71748Y91250D02*
X-63750D01*
X-71748D02*
Y94678D01*
X-71367Y95821D01*
X-70987Y96201D01*
X-70225Y96582D01*
X-69463D01*
X-68701Y96201D01*
X-68320Y95821D01*
X-67940Y94678D01*
Y91250D01*
Y93916D02*
X-63750Y96582D01*
X-71748Y102181D02*
X-66416Y98372D01*
Y104085D01*
X-71748Y102181D02*
X-63750D01*
X-71748Y107780D02*
X-71367Y106637D01*
X-70225Y105876D01*
X-68320Y105495D01*
X-67178D01*
X-65273Y105876D01*
X-64131Y106637D01*
X-63750Y107780D01*
Y108541D01*
X-64131Y109684D01*
X-65273Y110446D01*
X-67178Y110827D01*
X-68320D01*
X-70225Y110446D01*
X-71367Y109684D01*
X-71748Y108541D01*
Y107780D01*
X-70225Y112617D02*
X-70606Y113379D01*
X-71748Y114521D01*
X-63750D01*
X-126748Y171250D02*
X-118750D01*
X-126748D02*
Y174678D01*
X-126367Y175821D01*
X-125987Y176201D01*
X-125225Y176582D01*
X-124463D01*
X-123701Y176201D01*
X-123321Y175821D01*
X-122940Y174678D01*
Y171250D01*
Y173916D02*
X-118750Y176582D01*
X-126748Y182181D02*
X-121416Y178372D01*
Y184085D01*
X-126748Y182181D02*
X-118750D01*
X-126748Y190065D02*
Y186256D01*
X-123321Y185875D01*
X-123701Y186256D01*
X-124082Y187399D01*
Y188542D01*
X-123701Y189684D01*
X-122940Y190446D01*
X-121797Y190827D01*
X-121035D01*
X-119893Y190446D01*
X-119131Y189684D01*
X-118750Y188542D01*
Y187399D01*
X-119131Y186256D01*
X-119512Y185875D01*
X-120274Y185495D01*
X-126748Y193379D02*
Y197568D01*
X-123701Y195283D01*
Y196426D01*
X-123321Y197187D01*
X-122940Y197568D01*
X-121797Y197949D01*
X-121035D01*
X-119893Y197568D01*
X-119131Y196806D01*
X-118750Y195664D01*
Y194521D01*
X-119131Y193379D01*
X-119512Y192998D01*
X-120274Y192617D01*
X-151250Y75498D02*
Y67500D01*
Y75498D02*
X-147822D01*
X-146679Y75117D01*
X-146299Y74737D01*
X-145918Y73975D01*
Y73213D01*
X-146299Y72451D01*
X-146679Y72070D01*
X-147822Y71690D01*
X-151250D02*
X-147822D01*
X-146679Y71309D01*
X-146299Y70928D01*
X-145918Y70166D01*
Y69023D01*
X-146299Y68262D01*
X-146679Y67881D01*
X-147822Y67500D01*
X-151250D01*
X-144128Y75498D02*
Y67500D01*
Y75498D02*
X-140700D01*
X-139557Y75117D01*
X-139176Y74737D01*
X-138795Y73975D01*
Y73213D01*
X-139176Y72451D01*
X-139557Y72070D01*
X-140700Y71690D01*
X-144128D01*
X-141462D02*
X-138795Y67500D01*
X-137005Y75498D02*
Y67500D01*
X-131673Y75498D02*
X-137005Y70166D01*
X-135101Y72070D02*
X-131673Y67500D01*
X-129883Y70928D02*
X-123027D01*
X-173037Y53594D02*
X-173418Y54356D01*
X-174180Y55117D01*
X-174941Y55498D01*
X-176465D01*
X-177227Y55117D01*
X-177988Y54356D01*
X-178369Y53594D01*
X-178750Y52451D01*
Y50547D01*
X-178369Y49404D01*
X-177988Y48643D01*
X-177227Y47881D01*
X-176465Y47500D01*
X-174941D01*
X-174180Y47881D01*
X-173418Y48643D01*
X-173037Y49404D01*
X-170790Y55498D02*
Y47500D01*
Y55498D02*
X-165458Y47500D01*
Y55498D02*
Y47500D01*
X-160963Y55498D02*
X-162106Y55117D01*
X-162868Y53975D01*
X-163249Y52070D01*
Y50928D01*
X-162868Y49023D01*
X-162106Y47881D01*
X-160963Y47500D01*
X-160202D01*
X-159059Y47881D01*
X-158297Y49023D01*
X-157916Y50928D01*
Y52070D01*
X-158297Y53975D01*
X-159059Y55117D01*
X-160202Y55498D01*
X-160963D01*
X-156126Y53975D02*
X-155365Y54356D01*
X-154222Y55498D01*
Y47500D01*
X260000Y144248D02*
Y136250D01*
Y144248D02*
X263428D01*
X264570Y143867D01*
X264951Y143487D01*
X265332Y142725D01*
Y141963D01*
X264951Y141201D01*
X264570Y140820D01*
X263428Y140440D01*
X260000D01*
X262666D02*
X265332Y136250D01*
X272454Y143106D02*
X271693Y143867D01*
X270550Y144248D01*
X269027D01*
X267884Y143867D01*
X267122Y143106D01*
Y142344D01*
X267503Y141582D01*
X267884Y141201D01*
X268646Y140820D01*
X270931Y140059D01*
X271693Y139678D01*
X272074Y139297D01*
X272454Y138535D01*
Y137393D01*
X271693Y136631D01*
X270550Y136250D01*
X269027D01*
X267884Y136631D01*
X267122Y137393D01*
X274245Y144248D02*
X276149Y136250D01*
X278053Y144248D02*
X276149Y136250D01*
X278053Y144248D02*
X279958Y136250D01*
X281862Y144248D02*
X279958Y136250D01*
X163406Y309713D02*
X162644Y309332D01*
X161883Y308570D01*
X161502Y307809D01*
Y306285D01*
X161883Y305523D01*
X162644Y304762D01*
X163406Y304381D01*
X164549Y304000D01*
X166453D01*
X167596Y304381D01*
X168357Y304762D01*
X169119Y305523D01*
X169500Y306285D01*
Y307809D01*
X169119Y308570D01*
X168357Y309332D01*
X167596Y309713D01*
X163025Y311960D02*
X162644Y312722D01*
X161502Y313865D01*
X169500D01*
X163406Y318207D02*
X163025D01*
X162263Y318587D01*
X161883Y318968D01*
X161502Y319730D01*
Y321254D01*
X161883Y322015D01*
X162263Y322396D01*
X163025Y322777D01*
X163787D01*
X164549Y322396D01*
X165691Y321634D01*
X169500Y317826D01*
Y323158D01*
X161502Y325710D02*
Y329899D01*
X164549Y327614D01*
Y328757D01*
X164930Y329518D01*
X165310Y329899D01*
X166453Y330280D01*
X167215D01*
X168357Y329899D01*
X169119Y329137D01*
X169500Y327995D01*
Y326852D01*
X169119Y325710D01*
X168738Y325329D01*
X167976Y324948D01*
X81906Y309713D02*
X81144Y309332D01*
X80383Y308570D01*
X80002Y307809D01*
Y306285D01*
X80383Y305523D01*
X81144Y304762D01*
X81906Y304381D01*
X83049Y304000D01*
X84953D01*
X86096Y304381D01*
X86857Y304762D01*
X87619Y305523D01*
X88000Y306285D01*
Y307809D01*
X87619Y308570D01*
X86857Y309332D01*
X86096Y309713D01*
X81525Y311960D02*
X81144Y312722D01*
X80002Y313865D01*
X88000D01*
X81906Y318207D02*
X81525D01*
X80763Y318587D01*
X80383Y318968D01*
X80002Y319730D01*
Y321254D01*
X80383Y322015D01*
X80763Y322396D01*
X81525Y322777D01*
X82287D01*
X83049Y322396D01*
X84191Y321634D01*
X88000Y317826D01*
Y323158D01*
X80002Y329518D02*
Y325710D01*
X83430Y325329D01*
X83049Y325710D01*
X82668Y326852D01*
Y327995D01*
X83049Y329137D01*
X83810Y329899D01*
X84953Y330280D01*
X85715D01*
X86857Y329899D01*
X87619Y329137D01*
X88000Y327995D01*
Y326852D01*
X87619Y325710D01*
X87238Y325329D01*
X86476Y324948D01*
X231489Y-120000D02*
Y-115715D01*
X231013Y-114287D01*
X230537Y-113811D01*
X229585Y-113335D01*
X228157D01*
X227204Y-113811D01*
X226728Y-114287D01*
X226252Y-115715D01*
Y-120000D01*
X236250D01*
X228633Y-103956D02*
X227680Y-104432D01*
X226728Y-105384D01*
X226252Y-106336D01*
Y-108241D01*
X226728Y-109193D01*
X227680Y-110145D01*
X228633Y-110621D01*
X230061Y-111097D01*
X232441D01*
X233870Y-110621D01*
X234822Y-110145D01*
X235774Y-109193D01*
X236250Y-108241D01*
Y-106336D01*
X235774Y-105384D01*
X234822Y-104432D01*
X233870Y-103956D01*
X232441D01*
Y-106336D02*
Y-103956D01*
X226252Y-101671D02*
X236250D01*
X226252D02*
X236250Y-95005D01*
X226252D02*
X236250D01*
X226252Y-92244D02*
X236250D01*
X226252D02*
Y-88911D01*
X226728Y-87483D01*
X227680Y-86531D01*
X228633Y-86055D01*
X230061Y-85579D01*
X232441D01*
X233870Y-86055D01*
X234822Y-86531D01*
X235774Y-87483D01*
X236250Y-88911D01*
Y-92244D01*
X-182500Y-259502D02*
X-179453Y-267500D01*
X-176406Y-259502D02*
X-179453Y-267500D01*
X-169665Y-261406D02*
X-170046Y-260644D01*
X-170807Y-259883D01*
X-171569Y-259502D01*
X-173092D01*
X-173854Y-259883D01*
X-174616Y-260644D01*
X-174997Y-261406D01*
X-175378Y-262549D01*
Y-264453D01*
X-174997Y-265596D01*
X-174616Y-266357D01*
X-173854Y-267119D01*
X-173092Y-267500D01*
X-171569D01*
X-170807Y-267119D01*
X-170046Y-266357D01*
X-169665Y-265596D01*
X-167418Y-263691D02*
X-163990D01*
X-162847Y-263310D01*
X-162466Y-262929D01*
X-162085Y-262168D01*
Y-261025D01*
X-162466Y-260263D01*
X-162847Y-259883D01*
X-163990Y-259502D01*
X-167418D01*
Y-267500D01*
X225752Y3750D02*
X231465D01*
X232607Y4131D01*
X233369Y4893D01*
X233750Y6035D01*
Y6797D01*
X233369Y7940D01*
X232607Y8701D01*
X231465Y9082D01*
X225752D01*
Y35000D02*
X233750Y38047D01*
X225752Y41094D02*
X233750Y38047D01*
X225752Y67500D02*
X233750Y69404D01*
X225752Y71309D02*
X233750Y69404D01*
X225752Y71309D02*
X233750Y73213D01*
X225752Y75117D02*
X233750Y73213D01*
M02*
