G04 Layer_Physical_Order=3*
G04 Layer_Color=16440176*
%FSLAX44Y44*%
%MOMM*%
G71*
G01*
G75*
%ADD10C,0.2500*%
%ADD12C,0.5000*%
%ADD13C,1.0000*%
%ADD17C,0.8000*%
%ADD52C,0.8000*%
%ADD53C,0.2540*%
%ADD54C,0.1270*%
%ADD55C,0.1500*%
%ADD56C,6.0000*%
%ADD58C,2.0000*%
%ADD61C,0.7000*%
%ADD62C,0.6000*%
G36*
X122832Y276739D02*
X124239Y275332D01*
X125000Y273494D01*
X125001Y272499D01*
X125001D01*
X125001Y252501D01*
X125001Y251506D01*
X124239Y249668D01*
X122833Y248261D01*
X120995Y247500D01*
X120000Y247500D01*
X90000D01*
X89005Y247500D01*
X87168Y248261D01*
X85761Y249668D01*
X85000Y251505D01*
X85000Y252500D01*
Y272500D01*
X85000Y273495D01*
X85761Y275332D01*
X87168Y276739D01*
X89005Y277500D01*
X90000Y277500D01*
X90000Y277500D01*
X120000Y277500D01*
X120995D01*
X122832Y276739D01*
D02*
G37*
G36*
X113560Y369152D02*
X128073Y363928D01*
X135192Y360961D01*
X167500Y347500D01*
X217500Y317500D01*
X260000Y282500D01*
X260000Y282500D01*
X261190Y281312D01*
X263059Y278516D01*
X264346Y275409D01*
X265001Y272110D01*
X265000Y270429D01*
Y267000D01*
X265053Y265922D01*
X265473Y263807D01*
X266299Y261815D01*
X267497Y260022D01*
X269021Y258497D01*
X270814Y257299D01*
X272807Y256474D01*
X274921Y256053D01*
X276000Y256000D01*
X276000D01*
X288093Y256000D01*
X288309Y256000D01*
X288732Y255916D01*
X289130Y255751D01*
X289488Y255511D01*
X289641Y255359D01*
X289641Y255359D01*
X294459Y250541D01*
X295063Y249937D01*
X296013Y248516D01*
X296667Y246937D01*
X297000Y245261D01*
Y244407D01*
X297000Y244407D01*
X297000Y241000D01*
X297000Y240304D01*
X296467Y239017D01*
X295483Y238033D01*
X294196Y237500D01*
X293500Y237500D01*
X272500Y237500D01*
X271734Y237461D01*
X270233Y237149D01*
X268827Y236539D01*
X267575Y235656D01*
X266528Y234537D01*
X265730Y233228D01*
X265215Y231785D01*
X265005Y230267D01*
X265017Y229500D01*
D01*
Y229500D01*
Y229500D01*
X265000D01*
X265000Y165000D01*
X265069Y162874D01*
X265624Y158659D01*
X266724Y154553D01*
X268351Y150625D01*
X270476Y146943D01*
X273064Y143571D01*
X276071Y140564D01*
X279443Y137977D01*
X283125Y135851D01*
X287053Y134224D01*
X291159Y133124D01*
X295374Y132569D01*
X297500Y132500D01*
Y132500D01*
X298239Y132500D01*
X299688Y132213D01*
X301054Y131648D01*
X302282Y130827D01*
X303327Y129782D01*
X304148Y128553D01*
X304713Y127188D01*
X305000Y125739D01*
X305000Y125000D01*
Y104993D01*
X301638Y104325D01*
X299809Y103567D01*
X299809Y103567D01*
X299809Y103567D01*
X297981Y102809D01*
X296335Y101710D01*
X296335Y101710D01*
X296335Y101710D01*
X294689Y100610D01*
X291890Y97811D01*
X289690Y94519D01*
X288176Y90862D01*
X287403Y86979D01*
Y85000D01*
Y15000D01*
Y13021D01*
X288176Y9138D01*
X289690Y5481D01*
X291890Y2189D01*
X294689Y-610D01*
X297981Y-2810D01*
X301638Y-4324D01*
X305000Y-4993D01*
X305000Y-80000D01*
X305059Y-81799D01*
X305528Y-85365D01*
X306459Y-88840D01*
X307836Y-92163D01*
X309635Y-95278D01*
X311824Y-98132D01*
X314368Y-100676D01*
X317222Y-102865D01*
X320337Y-104664D01*
X323660Y-106041D01*
X327135Y-106972D01*
X330701Y-107441D01*
X332500Y-107500D01*
X353485D01*
X355417Y-107884D01*
X357237Y-108638D01*
X358875Y-109733D01*
X360267Y-111125D01*
X361362Y-112763D01*
X362116Y-114583D01*
X362500Y-116515D01*
Y-127500D01*
X360400Y-132541D01*
X359406Y-132656D01*
X359331Y-132552D01*
X353281Y-144957D01*
X347231Y-157361D01*
X349002Y-157295D01*
X349679Y-158271D01*
X346466Y-165982D01*
X345394Y-165954D01*
X343834Y-163797D01*
X341669Y-161786D01*
X339153Y-160237D01*
X336383Y-159208D01*
X333466Y-158740D01*
X330513Y-158849D01*
X327638Y-159533D01*
X324952Y-160764D01*
X322558Y-162495D01*
X320548Y-164661D01*
X318998Y-167177D01*
X317969Y-169946D01*
X317501Y-172864D01*
X317610Y-175817D01*
X318294Y-178691D01*
X319525Y-181377D01*
X321257Y-183771D01*
X323422Y-185782D01*
X325938Y-187331D01*
X328708Y-188360D01*
X331625Y-188829D01*
X334578Y-188719D01*
X335726Y-188446D01*
X336293Y-189270D01*
X317994Y-216110D01*
X316854Y-216006D01*
X316169Y-214459D01*
X307673Y-225334D01*
X299176Y-236210D01*
X301827Y-236672D01*
X302915Y-236646D01*
X303393Y-237524D01*
X300000Y-242500D01*
X296863Y-245637D01*
X295903Y-245358D01*
X295711Y-244501D01*
X294515Y-241799D01*
X292815Y-239382D01*
X290676Y-237344D01*
X288180Y-235761D01*
X285424Y-234697D01*
X282513Y-234190D01*
X279559Y-234261D01*
X276676Y-234907D01*
X273974Y-236102D01*
X271558Y-237802D01*
X269519Y-239941D01*
X267937Y-242437D01*
X266872Y-245193D01*
X266365Y-248104D01*
X266436Y-251058D01*
X267082Y-253941D01*
X268278Y-256643D01*
X269978Y-259060D01*
X272117Y-261098D01*
X274612Y-262680D01*
X276328Y-263343D01*
X276257Y-264388D01*
X275108Y-264661D01*
X273300Y-264752D01*
X271507Y-264510D01*
X269787Y-263944D01*
X268200Y-263073D01*
X267500Y-262500D01*
X212500Y-217500D01*
X212500Y-217500D01*
X212500Y-217500D01*
X210918Y-216052D01*
X207554Y-213391D01*
X203953Y-211063D01*
X200145Y-209090D01*
X196166Y-207489D01*
X192053Y-206276D01*
X187843Y-205461D01*
X183574Y-205051D01*
X181430Y-205000D01*
X142609Y-205000D01*
X141012Y-204683D01*
X139509Y-204060D01*
X138155Y-203155D01*
X124775Y-189775D01*
X124775Y-189775D01*
X124774Y-189775D01*
X123589Y-188700D01*
X120932Y-186925D01*
X117980Y-185702D01*
X114845Y-185079D01*
X113248Y-185000D01*
X38750Y-185000D01*
X38118D01*
X36951Y-184517D01*
X36057Y-183623D01*
X35574Y-182456D01*
X35574Y-156824D01*
X35574Y-156823D01*
X35574Y-156823D01*
X35573Y-156820D01*
X35541Y-156155D01*
X35491Y-155903D01*
X35280Y-154843D01*
X34768Y-153607D01*
X34025Y-152495D01*
X33079Y-151549D01*
X31967Y-150806D01*
X30731Y-150294D01*
X29419Y-150033D01*
X28750Y-150000D01*
X-41250D01*
X-41250Y-150000D01*
X-42112Y-150000D01*
X-43802Y-149664D01*
X-45395Y-149004D01*
X-46828Y-148047D01*
X-48047Y-146828D01*
X-49004Y-145395D01*
X-49664Y-143802D01*
X-50000Y-142112D01*
Y-141250D01*
X-50000Y-88750D01*
X-50000Y-88750D01*
X-49975Y-87761D01*
X-49664Y-86198D01*
X-49004Y-84605D01*
X-48047Y-83172D01*
X-46828Y-81953D01*
X-45395Y-80996D01*
X-43802Y-80336D01*
X-42112Y-80000D01*
X-41250Y-80000D01*
X-0Y-80000D01*
X3925Y-79904D01*
X11739Y-79135D01*
X19439Y-77604D01*
X26952Y-75326D01*
X34206Y-72322D01*
X41130Y-68621D01*
X47658Y-64259D01*
X53727Y-59279D01*
X59278Y-53727D01*
X64259Y-47658D01*
X68621Y-41130D01*
X72321Y-34206D01*
X75325Y-26952D01*
X77604Y-19439D01*
X79135Y-11739D01*
X79904Y-3926D01*
X80000Y-0D01*
X79999Y9999D01*
X79999D01*
X79999Y10000D01*
X79915Y13434D01*
X79243Y20271D01*
X77903Y27009D01*
X75909Y33582D01*
X73281Y39929D01*
X70043Y45988D01*
X66226Y51700D01*
X61868Y57010D01*
X57011Y61868D01*
X52421Y65634D01*
X51685Y66243D01*
X51661Y66269D01*
X51100Y66978D01*
X51078Y67007D01*
X50686Y67594D01*
X50250Y68646D01*
X50028Y69762D01*
X50000Y70331D01*
Y82500D01*
X50015Y82796D01*
X50130Y83378D01*
X50357Y83926D01*
X50687Y84419D01*
X50886Y84639D01*
X67500Y101253D01*
X68206Y101795D01*
X68747Y102500D01*
X72617Y106370D01*
X73394Y105732D01*
X72798Y104841D01*
X72332Y102500D01*
X72798Y100159D01*
X74124Y98174D01*
X76109Y96848D01*
X78450Y96383D01*
X80791Y96848D01*
X82776Y98174D01*
X84102Y100159D01*
X84567Y102500D01*
X84102Y104841D01*
X82776Y106826D01*
X80791Y108152D01*
X78450Y108618D01*
X76109Y108152D01*
X75218Y107556D01*
X74580Y108333D01*
X77375Y111128D01*
X87157D01*
X88661Y110504D01*
X89882Y109284D01*
X90542Y107689D01*
X90628Y106826D01*
Y100224D01*
X90766Y99526D01*
X90975Y97940D01*
X91857Y95811D01*
X93259Y93983D01*
X95087Y92581D01*
X97216Y91699D01*
X98802Y91490D01*
X99500Y91352D01*
X100198Y91490D01*
X101784Y91699D01*
X103913Y92581D01*
X104500Y93032D01*
X105087Y92581D01*
X107216Y91699D01*
X108802Y91490D01*
X109500Y91352D01*
X110198Y91490D01*
X111784Y91699D01*
X113913Y92581D01*
X115740Y93983D01*
X117143Y95811D01*
X118025Y97940D01*
X118234Y99526D01*
X118372Y100224D01*
Y108372D01*
X118428Y108934D01*
X118857Y109971D01*
X119651Y110765D01*
X120527Y111128D01*
X124860D01*
X129574Y106414D01*
X129706Y105412D01*
X130512Y103466D01*
X131794Y101794D01*
X133465Y100512D01*
X135412Y99706D01*
X137500Y99431D01*
X139588Y99706D01*
X141535Y100512D01*
X141819Y100730D01*
X142755Y100378D01*
X142798Y100159D01*
X144124Y98174D01*
X146109Y96848D01*
X148450Y96383D01*
X150791Y96848D01*
X152776Y98174D01*
X154102Y100159D01*
X154567Y102500D01*
Y115817D01*
X154672Y116877D01*
X155483Y118836D01*
X156982Y120335D01*
X158897Y121128D01*
X184860D01*
X199574Y106414D01*
X199706Y105412D01*
X200512Y103465D01*
X201794Y101794D01*
X203465Y100512D01*
X205412Y99706D01*
X207500Y99431D01*
X209588Y99706D01*
X211535Y100512D01*
X211819Y100730D01*
X212755Y100378D01*
X212798Y100159D01*
X214124Y98174D01*
X216109Y96848D01*
X218450Y96382D01*
X220791Y96848D01*
X222776Y98174D01*
X224102Y100159D01*
X224568Y102500D01*
X224102Y104841D01*
X222776Y106826D01*
X220791Y108152D01*
X218450Y108617D01*
X216482Y108226D01*
X215399Y108789D01*
X215294Y109588D01*
X214488Y111535D01*
X213206Y113206D01*
X211535Y114488D01*
X209588Y115294D01*
X208586Y115426D01*
X198273Y125739D01*
X196974Y127172D01*
X194827Y130385D01*
X193349Y133955D01*
X192595Y137745D01*
X192500Y139677D01*
Y141013D01*
X192598Y141505D01*
Y142500D01*
Y194745D01*
X192609Y194858D01*
X193457Y196906D01*
X195025Y198473D01*
X197073Y199322D01*
X198181Y199431D01*
X207500D01*
X209588Y199706D01*
X211535Y200512D01*
X211819Y200730D01*
X212755Y200378D01*
X212798Y200159D01*
X214124Y198174D01*
X216109Y196848D01*
X218450Y196382D01*
X220791Y196848D01*
X222776Y198174D01*
X224102Y200159D01*
X224568Y202500D01*
X224102Y204841D01*
X222776Y206826D01*
X220791Y208152D01*
X218450Y208617D01*
X216482Y208226D01*
X215399Y208789D01*
X215294Y209588D01*
X214488Y211535D01*
X213206Y213206D01*
X211535Y214488D01*
X209588Y215294D01*
X207500Y215569D01*
X206986Y215501D01*
X204060Y217452D01*
X199401Y222111D01*
X199691Y223068D01*
X199841Y223098D01*
X201826Y224424D01*
X202000Y224685D01*
X203000D01*
X203174Y224424D01*
X205159Y223098D01*
X207500Y222633D01*
X209841Y223098D01*
X211826Y224424D01*
X213152Y226409D01*
X213617Y228750D01*
X213152Y231091D01*
X211826Y233076D01*
X209841Y234402D01*
X207500Y234868D01*
X205159Y234402D01*
X203174Y233076D01*
X203000Y232815D01*
X202000D01*
X201826Y233076D01*
X199841Y234402D01*
X197500Y234868D01*
X195159Y234402D01*
X193174Y233076D01*
X191848Y231091D01*
X191818Y230941D01*
X190861Y230651D01*
X184506Y237006D01*
X182439Y238387D01*
X180000Y238872D01*
X61000D01*
X58561Y238387D01*
X56494Y237006D01*
X37994Y218506D01*
X36613Y216439D01*
X36128Y214000D01*
Y208684D01*
X36025Y207647D01*
X35231Y205730D01*
X33765Y204263D01*
X31848Y203470D01*
X30811Y203367D01*
X17207D01*
X17204Y203369D01*
X16201Y203368D01*
X-2500Y203684D01*
X-2500Y203684D01*
X-3362Y204005D01*
X-4936Y204950D01*
X-6235Y206248D01*
X-7179Y207822D01*
X-7500Y208684D01*
X-7500Y252506D01*
X-7500D01*
X-7500Y252506D01*
X-7596Y253480D01*
X-8342Y255280D01*
X-9720Y256658D01*
X-11520Y257404D01*
X-12494Y257500D01*
X-17500Y257500D01*
X-18239Y257500D01*
X-19688Y257788D01*
X-21053Y258353D01*
X-22281Y259174D01*
X-23326Y260219D01*
X-24147Y261447D01*
X-24712Y262812D01*
X-25000Y264261D01*
X-25000Y265000D01*
X-25000Y359059D01*
X-25000Y360001D01*
X-25000Y360001D01*
X-25000Y360001D01*
X-25001Y362463D01*
X-24040Y367293D01*
X-22834Y370205D01*
X-18204Y370546D01*
X0Y370993D01*
X18204Y370546D01*
X36364Y369207D01*
X54436Y366978D01*
X66591Y364869D01*
X66723Y364814D01*
X68472Y363472D01*
X69814Y361723D01*
X70658Y359686D01*
X70934Y357587D01*
X70922Y357500D01*
Y296642D01*
X70908D01*
X71277Y290999D01*
X72381Y285452D01*
X74198Y280097D01*
X76700Y275025D01*
X79842Y270322D01*
X79902Y270254D01*
Y252500D01*
X79902Y251506D01*
X79902Y251506D01*
X79902Y251505D01*
X80290Y249555D01*
X80290Y249555D01*
X80290Y249555D01*
X81051Y247717D01*
X82156Y246063D01*
X83563Y244656D01*
X85217Y243551D01*
X87055Y242790D01*
X87055Y242790D01*
X87055Y242790D01*
X89005Y242402D01*
X89005Y242402D01*
X89005Y242402D01*
X90000Y242402D01*
X120000D01*
X120994Y242402D01*
X121877Y242577D01*
X122945Y242790D01*
X122945Y242790D01*
X124783Y243551D01*
X126437Y244656D01*
X127844Y246063D01*
X128949Y247717D01*
X129711Y249555D01*
X129711Y249555D01*
X129711Y249555D01*
X130099Y251506D01*
X130099Y252501D01*
X130098Y272499D01*
X130098Y272500D01*
X130098Y273494D01*
X129710Y275445D01*
X128949Y277283D01*
X127844Y278937D01*
X127844Y278937D01*
X126437Y280344D01*
X124783Y281449D01*
X122945Y282210D01*
X120995Y282598D01*
X93307Y282598D01*
X93242Y282677D01*
X90919Y287023D01*
X89489Y291738D01*
X89037Y296331D01*
X89078Y296642D01*
Y357500D01*
X89082D01*
X88834Y360647D01*
X89000Y360968D01*
X92110Y364871D01*
X95922Y368093D01*
X100289Y370509D01*
X104601Y371885D01*
X113560Y369152D01*
D02*
G37*
G36*
X-196084Y244619D02*
X-195381Y243916D01*
X-195000Y242997D01*
Y242500D01*
Y228750D01*
Y228253D01*
X-195381Y227334D01*
X-196084Y226631D01*
X-197003Y226250D01*
X-217997D01*
X-218916Y226631D01*
X-219619Y227334D01*
X-220000Y228253D01*
Y228750D01*
Y242500D01*
Y242997D01*
X-219619Y243916D01*
X-218916Y244619D01*
X-217997Y245000D01*
X-197003D01*
X-196084Y244619D01*
D02*
G37*
G36*
X-229126Y244429D02*
X-228071Y243374D01*
X-227500Y241996D01*
Y241250D01*
Y230000D01*
Y229254D01*
X-228071Y227876D01*
X-229126Y226821D01*
X-230504Y226250D01*
X-249496D01*
X-250874Y226821D01*
X-251929Y227876D01*
X-252500Y229254D01*
Y230000D01*
Y241250D01*
Y241996D01*
X-251929Y243374D01*
X-250874Y244429D01*
X-249496Y245000D01*
X-230504D01*
X-229126Y244429D01*
D02*
G37*
G36*
X185332Y216739D02*
X186739Y215332D01*
X187500Y213494D01*
Y212500D01*
Y142500D01*
Y141505D01*
X186739Y139668D01*
X185332Y138261D01*
X183495Y137500D01*
X171505D01*
X169668Y138261D01*
X168261Y139668D01*
X167500Y141505D01*
Y142500D01*
X167404Y143475D01*
X166657Y145278D01*
X165278Y146657D01*
X163475Y147404D01*
X162500Y147500D01*
X151505D01*
X149668Y148261D01*
X148261Y149668D01*
X147500Y151505D01*
Y152500D01*
Y162500D01*
Y163494D01*
X148261Y165332D01*
X149668Y166739D01*
X151505Y167500D01*
X162500D01*
X163475Y167596D01*
X165278Y168343D01*
X166657Y169722D01*
X167404Y171525D01*
X167500Y172500D01*
Y212500D01*
Y213494D01*
X168261Y215332D01*
X169668Y216739D01*
X171505Y217500D01*
X183495D01*
X185332Y216739D01*
D02*
G37*
G36*
X115332D02*
X116739Y215332D01*
X117500Y213494D01*
Y212500D01*
Y142500D01*
Y141505D01*
X116739Y139668D01*
X115332Y138261D01*
X113495Y137500D01*
X101505D01*
X99668Y138261D01*
X98261Y139668D01*
X97500Y141505D01*
Y142500D01*
X97404Y143475D01*
X96657Y145278D01*
X95278Y146657D01*
X93475Y147404D01*
X92500Y147500D01*
X81505D01*
X79668Y148261D01*
X78261Y149668D01*
X77500Y151505D01*
Y152500D01*
Y162500D01*
Y163494D01*
X78261Y165332D01*
X79668Y166739D01*
X81505Y167500D01*
X92500D01*
X93475Y167596D01*
X95278Y168343D01*
X96657Y169722D01*
X97404Y171525D01*
X97500Y172500D01*
Y212500D01*
Y213494D01*
X98261Y215332D01*
X99668Y216739D01*
X101505Y217500D01*
X113495D01*
X115332Y216739D01*
D02*
G37*
G36*
X-45000Y367183D02*
X-45000Y340000D01*
X-45000Y240000D01*
X-44904Y239025D01*
X-44158Y237222D01*
X-42778Y235843D01*
X-40975Y235096D01*
X-40000Y235000D01*
X-32500Y235000D01*
X-31506Y235000D01*
X-29668Y234239D01*
X-28261Y232832D01*
X-27574Y231171D01*
X-27501Y230002D01*
Y230000D01*
X-27501Y230000D01*
X-27500Y230000D01*
X-27500Y211049D01*
X-28639Y210488D01*
X-28966Y210738D01*
X-30912Y211544D01*
X-33000Y211819D01*
X-95000D01*
X-97088Y211544D01*
X-99035Y210738D01*
X-100706Y209456D01*
X-111956Y198206D01*
X-113238Y196535D01*
X-114044Y194588D01*
X-114319Y192500D01*
Y105000D01*
Y90000D01*
X-114044Y87912D01*
X-113238Y85965D01*
X-111956Y84294D01*
X-94319Y66658D01*
Y51642D01*
X-94314Y51603D01*
X-94580Y49578D01*
X-95377Y47654D01*
X-95889Y46987D01*
X-96693Y46049D01*
X-97485Y45084D01*
X-99955Y42074D01*
X-99994Y42002D01*
X-101355Y42150D01*
X-101822Y43278D01*
X-102864Y44636D01*
X-104222Y45678D01*
X-105803Y46333D01*
X-107500Y46556D01*
X-109197Y46333D01*
X-110778Y45678D01*
X-112136Y44636D01*
X-113178Y43278D01*
X-113833Y41697D01*
X-114056Y40000D01*
X-113833Y38303D01*
X-113178Y36722D01*
X-112136Y35364D01*
X-110778Y34322D01*
X-109197Y33667D01*
X-107500Y33444D01*
X-105803Y33667D01*
X-104748Y34104D01*
X-103700Y33185D01*
X-103872Y32618D01*
X-104376Y27500D01*
X-104319D01*
Y-92470D01*
X-104496Y-93701D01*
X-105471Y-93895D01*
X-106850Y-94466D01*
X-107677Y-95019D01*
X-108731Y-96073D01*
X-108731Y-96073D01*
X-109284Y-96900D01*
X-109511Y-97448D01*
X-109652Y-97659D01*
X-109701Y-97907D01*
X-109855Y-98279D01*
X-110049Y-99254D01*
Y-99656D01*
X-110117Y-100000D01*
X-110049Y-100344D01*
Y-109656D01*
X-110117Y-110000D01*
X-110049Y-110344D01*
Y-110746D01*
X-109855Y-111721D01*
X-109701Y-112093D01*
X-109652Y-112341D01*
X-109511Y-112552D01*
X-109284Y-113100D01*
X-108731Y-113927D01*
X-107677Y-114981D01*
X-107677Y-114981D01*
X-106850Y-115534D01*
X-105471Y-116105D01*
X-104496Y-116299D01*
X-93004D01*
X-92029Y-116105D01*
X-90650Y-115534D01*
X-89823Y-114981D01*
X-88769Y-113927D01*
X-88216Y-113100D01*
X-87645Y-111721D01*
X-87451Y-110746D01*
Y-99254D01*
X-87645Y-98279D01*
X-88181Y-96985D01*
Y27500D01*
X-88195Y27607D01*
X-87866Y30105D01*
X-86861Y32533D01*
X-86019Y33630D01*
X-85208Y34564D01*
X-84418Y35527D01*
X-82204Y38224D01*
X-79972Y42400D01*
X-78598Y46930D01*
X-78134Y51642D01*
X-78181D01*
X-78181Y51642D01*
Y70000D01*
X-78456Y72088D01*
X-79262Y74035D01*
X-80544Y75706D01*
X-98181Y93342D01*
Y99392D01*
X-94907D01*
X-94841Y99348D01*
X-92500Y98883D01*
X-90159Y99348D01*
X-88174Y100674D01*
X-86848Y102659D01*
X-86382Y105000D01*
X-86848Y107341D01*
X-88174Y109326D01*
X-90159Y110652D01*
X-92500Y111118D01*
X-94841Y110652D01*
X-94907Y110608D01*
X-98181D01*
Y189158D01*
X-91658Y195681D01*
X-33000D01*
X-30912Y195956D01*
X-28966Y196762D01*
X-28639Y197012D01*
X-27500Y196451D01*
X-27500Y127499D01*
X-27572Y126768D01*
X-28132Y125417D01*
X-29167Y124382D01*
X-30518Y123822D01*
X-31250Y123750D01*
X-47997D01*
X-48916Y123369D01*
X-49619Y122666D01*
X-50000Y121747D01*
Y76250D01*
X-50048Y75762D01*
X-50421Y74861D01*
X-50710Y74573D01*
X-51024Y74437D01*
X-52159Y73784D01*
X-52500Y73750D01*
X-52462Y73609D01*
X-56318Y71387D01*
X-61222Y67742D01*
X-65669Y63552D01*
X-69599Y58873D01*
X-72959Y53770D01*
X-75703Y48310D01*
X-77793Y42569D01*
X-79203Y36624D01*
X-79912Y30555D01*
X-80000Y27500D01*
X-80000D01*
X-80000Y27500D01*
X-80000D01*
X-80000Y-25858D01*
X-79941Y-27873D01*
X-79466Y-31874D01*
X-78523Y-35792D01*
X-77126Y-39572D01*
X-75292Y-43160D01*
X-73048Y-46508D01*
X-70426Y-49567D01*
X-67461Y-52296D01*
X-65863Y-53525D01*
X-64501Y-54508D01*
X-62312Y-57059D01*
X-60783Y-60052D01*
X-59998Y-63320D01*
X-60000Y-65000D01*
X-60000Y-65000D01*
X-60000Y-65001D01*
X-60000Y-150000D01*
X-59952Y-150980D01*
X-59570Y-152903D01*
X-58819Y-154714D01*
X-57730Y-156344D01*
X-56344Y-157730D01*
X-54714Y-158819D01*
X-52903Y-159570D01*
X-50981Y-159952D01*
X-50001Y-160000D01*
X18750Y-160000D01*
X19993Y-160000D01*
X22290Y-160952D01*
X24048Y-162710D01*
X25000Y-165007D01*
X24999Y-166250D01*
X24999Y-166250D01*
X25000Y-166251D01*
Y-186250D01*
X25042Y-187108D01*
X25377Y-188790D01*
X26033Y-190375D01*
X26986Y-191801D01*
X28199Y-193014D01*
X29625Y-193967D01*
X31210Y-194623D01*
X32892Y-194958D01*
X33750Y-195000D01*
X103247Y-195000D01*
X105400Y-195000D01*
X109622Y-195840D01*
X113599Y-197487D01*
X117178Y-199879D01*
X118700Y-201401D01*
X118700D01*
X118701Y-201401D01*
X131122Y-213823D01*
X132365Y-214949D01*
X135152Y-216811D01*
X138248Y-218094D01*
X141535Y-218748D01*
X143210Y-218830D01*
X185326Y-218830D01*
X187668Y-218830D01*
X192293Y-219569D01*
X196744Y-221029D01*
X200908Y-223172D01*
X202795Y-224559D01*
X202796Y-224559D01*
X218886Y-236385D01*
X255983Y-273277D01*
X260007Y-278689D01*
X260788Y-279737D01*
X261461Y-282263D01*
X261152Y-284858D01*
X259904Y-287155D01*
X258899Y-287991D01*
X258899Y-287991D01*
X258899Y-287991D01*
X232670Y-309830D01*
X228619Y-312869D01*
X220366Y-318742D01*
X211967Y-324404D01*
X203428Y-329853D01*
X194754Y-335083D01*
X185950Y-340093D01*
X177022Y-344879D01*
X167977Y-349438D01*
X163398Y-351602D01*
X163398Y-351602D01*
X163398Y-351602D01*
X157059Y-354599D01*
X144135Y-360039D01*
X130988Y-364916D01*
X117643Y-369222D01*
X110883Y-371084D01*
X109198Y-370256D01*
X106005Y-368276D01*
X103023Y-365992D01*
X100280Y-363425D01*
X97802Y-360601D01*
X95615Y-357547D01*
X93738Y-354293D01*
X92191Y-350870D01*
X91590Y-349090D01*
Y-349090D01*
X42500Y-300000D01*
X-4320Y-300000D01*
X-7144Y-300092D01*
X-12745Y-300828D01*
X-18201Y-302290D01*
X-23420Y-304451D01*
X-28312Y-307275D01*
X-32793Y-310713D01*
X-36787Y-314707D01*
X-40226Y-319188D01*
X-43049Y-324081D01*
X-45210Y-329299D01*
X-46672Y-334756D01*
X-47408Y-340356D01*
X-47500Y-343180D01*
X-47500Y-343180D01*
X-47500Y-343180D01*
X-47500Y-375000D01*
X-47498Y-375995D01*
X-48258Y-377834D01*
X-49666Y-379242D01*
X-51270Y-379904D01*
X-52500Y-380000D01*
X-52500Y-380000D01*
X-95000Y-372500D01*
X-162500Y-347500D01*
X-215000Y-317500D01*
X-270000Y-270000D01*
X-305000Y-230000D01*
X-340000Y-177500D01*
X-367500Y-102500D01*
X-370000Y-96250D01*
X-369880Y-95031D01*
X-368947Y-92778D01*
X-367222Y-91053D01*
X-364969Y-90120D01*
X-363750Y-90000D01*
X-320000D01*
X-317550Y-89880D01*
X-312743Y-88924D01*
X-308215Y-87048D01*
X-304140Y-84325D01*
X-300675Y-80860D01*
X-297952Y-76785D01*
X-296077Y-72257D01*
X-295121Y-67451D01*
X-295000Y-65000D01*
X-295000Y-65000D01*
X-295000Y47500D01*
X-295108Y49706D01*
X-295968Y54032D01*
X-297655Y58108D01*
X-300106Y61775D01*
X-303225Y64894D01*
X-306893Y67345D01*
X-310968Y69032D01*
X-315294Y69892D01*
X-317500Y70000D01*
X-317500Y70000D01*
X-317500Y70000D01*
X-371250D01*
X-371982Y70072D01*
X-373333Y70632D01*
X-374368Y71667D01*
X-374928Y73018D01*
X-375000Y73750D01*
Y82500D01*
X-370000Y107500D01*
X-357500Y140000D01*
X-355702Y142997D01*
X-355319Y143344D01*
X-353232Y144738D01*
X-350913Y145699D01*
X-348452Y146188D01*
X-347197Y146250D01*
X-343680D01*
X-343612Y146186D01*
X-340336Y143498D01*
X-336813Y141144D01*
X-333076Y139146D01*
X-329161Y137524D01*
X-325106Y136294D01*
X-320950Y135468D01*
X-316733Y135052D01*
X-314614Y135000D01*
X-310000D01*
X-307220Y135091D01*
X-301709Y135817D01*
X-296339Y137255D01*
X-291203Y139383D01*
X-286388Y142163D01*
X-281978Y145547D01*
X-278047Y149478D01*
X-274662Y153888D01*
X-271883Y158703D01*
X-269755Y163839D01*
X-268317Y169209D01*
X-267591Y174720D01*
X-267500Y177500D01*
X-267500Y187322D01*
X-267551Y189417D01*
X-267960Y193585D01*
X-268777Y197693D01*
X-269992Y201701D01*
X-271595Y205570D01*
X-273570Y209264D01*
X-275897Y212746D01*
X-278555Y215983D01*
X-280000Y217500D01*
X-280000Y217500D01*
X-281189Y218689D01*
X-283057Y221485D01*
X-284344Y224592D01*
X-285000Y227890D01*
X-285000Y229571D01*
Y247500D01*
Y249878D01*
X-284072Y254542D01*
X-282252Y258936D01*
X-279610Y262890D01*
X-277929Y264571D01*
X-277929Y264571D01*
X-267500Y275000D01*
X-231786Y306250D01*
X-220000D01*
X-219332Y306184D01*
X-218099Y305673D01*
X-217154Y304729D01*
X-216643Y303495D01*
X-216578Y302828D01*
Y298468D01*
X-216606Y298103D01*
X-216578D01*
Y250098D01*
X-250294D01*
X-251859Y249787D01*
X-253334Y249176D01*
X-254661Y248289D01*
X-255789Y247161D01*
X-256676Y245834D01*
X-257287Y244359D01*
X-257598Y242794D01*
Y228456D01*
X-257287Y226891D01*
X-256676Y225416D01*
X-255789Y224089D01*
X-254661Y222961D01*
X-253334Y222074D01*
X-251859Y221463D01*
X-250294Y221152D01*
X-196303D01*
X-194932Y221425D01*
X-193639Y221960D01*
X-192476Y222737D01*
X-191487Y223726D01*
X-190710Y224889D01*
X-190175Y226182D01*
X-189902Y227553D01*
Y242997D01*
X-190290Y244948D01*
X-190671Y245867D01*
X-190671Y245867D01*
X-191776Y247521D01*
X-192479Y248224D01*
X-192479Y248224D01*
X-194133Y249329D01*
X-195052Y249710D01*
X-197003Y250098D01*
X-198422D01*
Y298103D01*
X-198439Y298230D01*
X-198138Y301293D01*
X-197207Y304360D01*
X-195696Y307187D01*
X-193744Y309566D01*
X-193642Y309644D01*
X-177687Y325600D01*
X-174885Y327187D01*
X-161277Y334036D01*
X-160242Y333301D01*
X-160319Y332715D01*
Y302500D01*
Y257500D01*
Y214750D01*
X-160044Y212662D01*
X-159238Y210716D01*
X-157956Y209044D01*
X-138069Y189158D01*
Y123842D01*
X-146206Y115706D01*
X-147488Y114035D01*
X-148294Y112088D01*
X-148569Y110000D01*
Y77842D01*
X-150842Y75569D01*
X-152948D01*
X-153379Y76839D01*
X-152507Y77508D01*
X-151385Y78970D01*
X-150680Y80673D01*
X-150440Y82500D01*
X-150680Y84327D01*
X-151385Y86030D01*
X-152507Y87492D01*
X-153970Y88615D01*
X-155673Y89320D01*
X-157500Y89560D01*
X-159327Y89320D01*
X-161030Y88615D01*
X-162492Y87492D01*
X-162508D01*
X-163970Y88615D01*
X-165673Y89320D01*
X-167500Y89560D01*
X-169327Y89320D01*
X-171030Y88615D01*
X-172492Y87492D01*
X-173615Y86030D01*
X-174320Y84327D01*
X-174560Y82500D01*
X-174320Y80673D01*
X-173615Y78970D01*
X-172492Y77508D01*
X-171621Y76839D01*
X-172052Y75569D01*
X-212500D01*
X-214588Y75294D01*
X-216535Y74488D01*
X-218206Y73206D01*
X-223206Y68206D01*
X-224488Y66535D01*
X-225294Y64588D01*
X-225569Y62500D01*
Y56302D01*
X-226174Y55092D01*
X-227592Y53674D01*
X-229478Y52731D01*
X-230285Y52549D01*
X-240000Y52549D01*
X-240746Y52549D01*
X-241721Y52355D01*
X-243100Y51784D01*
X-243927Y51232D01*
X-244982Y50177D01*
X-245534Y49350D01*
X-246105Y47971D01*
X-246299Y46996D01*
X-246299Y46250D01*
X-246299Y38750D01*
X-246299Y38004D01*
X-246105Y37029D01*
X-245534Y35650D01*
X-244982Y34823D01*
X-244981Y34823D01*
X-243927Y33768D01*
X-243100Y33216D01*
X-241721Y32645D01*
X-240889Y32479D01*
X-240689Y32092D01*
X-240546Y31181D01*
X-241826Y30326D01*
X-243152Y28341D01*
X-243617Y26000D01*
X-243152Y23659D01*
X-241826Y21674D01*
X-239841Y20348D01*
X-239084Y20198D01*
Y18903D01*
X-239841Y18752D01*
X-241826Y17426D01*
X-243152Y15441D01*
X-243617Y13100D01*
X-243152Y10759D01*
X-241826Y8774D01*
X-239841Y7448D01*
X-237500Y6983D01*
X-235159Y7448D01*
X-233174Y8774D01*
X-231848Y10759D01*
X-231382Y13100D01*
X-231848Y15441D01*
X-233174Y17426D01*
X-235159Y18752D01*
X-235916Y18903D01*
Y20198D01*
X-235159Y20348D01*
X-233174Y21674D01*
X-231848Y23659D01*
X-231382Y26000D01*
X-231848Y28341D01*
X-233174Y30326D01*
X-234454Y31181D01*
X-234069Y32451D01*
X-230285Y32451D01*
X-229478Y32269D01*
X-227592Y31326D01*
X-226174Y29908D01*
X-225569Y28698D01*
Y-11658D01*
X-271956Y-58044D01*
X-273238Y-59715D01*
X-274044Y-61662D01*
X-274319Y-63750D01*
Y-76250D01*
X-274044Y-78338D01*
X-273238Y-80285D01*
X-271956Y-81956D01*
X-270285Y-83238D01*
X-268338Y-84044D01*
X-266250Y-84319D01*
X-264162Y-84044D01*
X-262215Y-83238D01*
X-260544Y-81956D01*
X-259262Y-80285D01*
X-258456Y-78338D01*
X-258181Y-76250D01*
Y-67092D01*
X-244262Y-53173D01*
X-242704Y-53411D01*
X-241826Y-54726D01*
X-239841Y-56052D01*
X-237500Y-56518D01*
X-235159Y-56052D01*
X-233174Y-54726D01*
X-231848Y-52741D01*
X-231383Y-50400D01*
X-231848Y-48059D01*
X-233174Y-46074D01*
X-234489Y-45196D01*
X-234726Y-43638D01*
X-211794Y-20706D01*
X-210512Y-19035D01*
X-209888Y-17527D01*
X-208617Y-17780D01*
Y-26217D01*
X-207686Y-28465D01*
X-205965Y-30186D01*
X-203717Y-31117D01*
X-201283D01*
X-199035Y-30186D01*
X-197314Y-28465D01*
X-196382Y-26217D01*
Y1617D01*
X-196848Y2741D01*
X-196848Y2741D01*
X-196848Y2741D01*
X-197314Y3865D01*
X-198174Y4726D01*
X-198174Y4726D01*
X-198174Y4726D01*
X-199035Y5586D01*
X-200159Y6052D01*
X-200159Y6052D01*
X-200159Y6052D01*
X-201283Y6518D01*
X-203717D01*
X-205965Y5586D01*
X-207686Y3865D01*
X-208161Y2719D01*
X-209431Y2972D01*
Y23380D01*
X-208161Y23505D01*
X-208152Y23459D01*
X-206826Y21474D01*
X-204841Y20148D01*
X-202500Y19683D01*
X-200159Y20148D01*
X-198174Y21474D01*
X-196848Y23459D01*
X-196383Y25800D01*
X-196848Y28141D01*
X-198174Y30126D01*
X-200159Y31452D01*
X-202500Y31918D01*
X-204841Y31452D01*
X-206826Y30126D01*
X-208152Y28141D01*
X-208161Y28096D01*
X-209431Y28221D01*
Y59158D01*
X-209158Y59431D01*
X-147500D01*
X-145412Y59706D01*
X-143465Y60512D01*
X-141794Y61794D01*
X-134794Y68794D01*
X-133512Y70465D01*
X-132706Y72412D01*
X-132431Y74500D01*
Y106658D01*
X-124294Y114794D01*
X-123012Y116466D01*
X-122206Y118412D01*
X-121931Y120500D01*
Y192500D01*
X-122206Y194588D01*
X-123012Y196535D01*
X-124294Y198206D01*
X-144181Y218092D01*
Y250440D01*
X-133000D01*
X-131173Y250680D01*
X-129470Y251385D01*
X-128007Y252507D01*
X-126885Y253970D01*
X-126180Y255673D01*
X-125940Y257500D01*
X-126180Y259327D01*
X-126885Y261030D01*
X-128007Y262492D01*
X-127638Y263810D01*
X-127322Y264222D01*
X-126667Y265803D01*
X-126444Y267500D01*
X-126667Y269197D01*
X-127322Y270778D01*
X-128364Y272136D01*
X-129722Y273178D01*
X-131303Y273833D01*
X-133000Y274056D01*
X-134697Y273833D01*
X-136278Y273178D01*
X-137636Y272136D01*
X-138678Y270778D01*
X-139333Y269197D01*
X-139556Y267500D01*
X-139336Y265830D01*
X-139313Y265562D01*
X-140124Y264560D01*
X-144181D01*
Y295440D01*
X-133000D01*
X-131173Y295680D01*
X-129470Y296385D01*
X-128007Y297507D01*
X-126885Y298970D01*
X-126180Y300673D01*
X-125940Y302500D01*
X-126180Y304327D01*
X-126885Y306030D01*
X-128007Y307492D01*
X-127638Y308810D01*
X-127322Y309222D01*
X-126667Y310803D01*
X-126444Y312500D01*
X-126667Y314197D01*
X-127322Y315778D01*
X-128364Y317136D01*
X-129722Y318178D01*
X-131303Y318833D01*
X-133000Y319056D01*
X-134697Y318833D01*
X-136278Y318178D01*
X-137636Y317136D01*
X-138678Y315778D01*
X-139333Y314197D01*
X-139556Y312500D01*
X-139336Y310830D01*
X-139313Y310562D01*
X-140124Y309560D01*
X-144181D01*
Y332467D01*
X-143174Y333139D01*
X-141848Y335124D01*
X-141383Y337465D01*
X-141848Y339806D01*
X-142680Y341050D01*
X-142291Y342612D01*
X-141973Y342753D01*
X-124984Y349306D01*
X-107694Y355018D01*
X-90144Y359875D01*
X-72377Y363864D01*
X-54436Y366978D01*
X-45951Y368024D01*
X-45000Y367183D01*
D02*
G37*
G36*
X-212500Y57500D02*
X-212500Y27500D01*
X-222500Y27500D01*
X-222500Y27500D01*
X-222813Y28885D01*
X-224079Y31418D01*
X-226082Y33421D01*
X-228615Y34687D01*
X-230000Y35000D01*
X-240000Y35000D01*
X-240000Y35000D01*
X-240746Y35000D01*
X-242124Y35571D01*
X-243179Y36626D01*
X-243750Y38004D01*
X-243750Y38750D01*
X-243750Y46250D01*
X-243750Y46996D01*
X-243179Y48374D01*
X-242124Y49429D01*
X-240746Y50000D01*
X-240000Y50000D01*
X-230000Y50000D01*
X-228615Y50313D01*
X-226082Y51579D01*
X-224079Y53582D01*
X-222813Y56115D01*
X-222500Y57500D01*
X-212500Y57500D01*
D02*
G37*
G36*
X-91626Y-96821D02*
X-90571Y-97876D01*
X-90000Y-99254D01*
Y-100000D01*
Y-110000D01*
Y-110746D01*
X-90571Y-112124D01*
X-91626Y-113179D01*
X-93004Y-113750D01*
X-104496D01*
X-105874Y-113179D01*
X-106929Y-112124D01*
X-107500Y-110746D01*
Y-110000D01*
Y-100000D01*
Y-99254D01*
X-106929Y-97876D01*
X-105874Y-96821D01*
X-104496Y-96250D01*
X-93004D01*
X-91626Y-96821D01*
D02*
G37*
%LPC*%
G36*
X252245Y282598D02*
X221250Y282598D01*
X221250Y282598D01*
X220256Y282598D01*
X220256Y282598D01*
X220256Y282598D01*
X219239Y282396D01*
X218305Y282210D01*
X218305Y282210D01*
X218305Y282210D01*
X216467Y281449D01*
X214813Y280344D01*
X213406Y278937D01*
X213406Y278937D01*
X212717Y277906D01*
X212301Y277283D01*
X211540Y275445D01*
X211540Y275445D01*
X211540Y275445D01*
X211364Y274561D01*
X211152Y273494D01*
X211152Y273494D01*
X211152Y273494D01*
X211152Y272500D01*
Y252500D01*
X211152Y251506D01*
X211152Y251506D01*
X211152Y251505D01*
X211540Y249555D01*
X211540Y249555D01*
X211540Y249555D01*
X212301Y247717D01*
X213406Y246063D01*
X214813Y244656D01*
X216467Y243551D01*
X218305Y242790D01*
X218305Y242790D01*
X218305Y242790D01*
X220255Y242402D01*
X220256Y242402D01*
X220256Y242402D01*
X221250Y242402D01*
X251250D01*
X252244Y242402D01*
X253127Y242577D01*
X254195Y242790D01*
X254195Y242790D01*
X256033Y243551D01*
X257687Y244656D01*
X259094Y246063D01*
X260199Y247717D01*
X260961Y249555D01*
X260961Y249555D01*
X260961Y249555D01*
X261349Y251506D01*
X261349Y252501D01*
X261349Y272499D01*
X261348Y272500D01*
X261348Y273494D01*
X260960Y275445D01*
X260199Y277283D01*
X259094Y278937D01*
X259094Y278937D01*
X257687Y280344D01*
X256033Y281449D01*
X254195Y282210D01*
X252245Y282598D01*
D02*
G37*
G36*
X183495D02*
X152500Y282598D01*
X152500Y282598D01*
X151506Y282598D01*
X151506Y282598D01*
X151505Y282598D01*
X150489Y282396D01*
X149555Y282210D01*
X149555Y282210D01*
X149555Y282210D01*
X147717Y281449D01*
X146063Y280344D01*
X144656Y278937D01*
X144656Y278937D01*
X143967Y277906D01*
X143551Y277283D01*
X142790Y275445D01*
X142790Y275445D01*
X142790Y275445D01*
X142614Y274561D01*
X142402Y273494D01*
X142402Y273494D01*
X142402Y273494D01*
X142402Y272500D01*
Y252500D01*
X142402Y251506D01*
X142402Y251506D01*
X142402Y251505D01*
X142790Y249555D01*
X142790Y249555D01*
X142790Y249555D01*
X143551Y247717D01*
X144656Y246063D01*
X146063Y244656D01*
X147717Y243551D01*
X149555Y242790D01*
X149555Y242790D01*
X149555Y242790D01*
X151505Y242402D01*
X151505Y242402D01*
X151505Y242402D01*
X152500Y242402D01*
X182500D01*
X183494Y242402D01*
X184377Y242577D01*
X185445Y242790D01*
X185445Y242790D01*
X187283Y243551D01*
X188937Y244656D01*
X190344Y246063D01*
X191449Y247717D01*
X192211Y249555D01*
X192211Y249555D01*
X192211Y249555D01*
X192599Y251506D01*
X192599Y252501D01*
X192598Y272499D01*
X192598Y272500D01*
X192598Y273494D01*
X192210Y275445D01*
X191449Y277283D01*
X190344Y278937D01*
X190344Y278937D01*
X188937Y280344D01*
X187283Y281449D01*
X185445Y282210D01*
X183495Y282598D01*
D02*
G37*
G36*
X293500Y237500D02*
X293500D01*
D01*
X293500D01*
D02*
G37*
G36*
X241506Y222598D02*
X241506Y222598D01*
X241506Y222598D01*
X240536Y222405D01*
X239555Y222210D01*
X239555Y222210D01*
X239555Y222210D01*
X237717Y221449D01*
X237717Y221449D01*
X237717Y221449D01*
X236989Y220962D01*
X236063Y220344D01*
X236063Y220344D01*
X236063Y220344D01*
X234656Y218937D01*
X234656Y218937D01*
X234656Y218937D01*
X234246Y218323D01*
X233551Y217283D01*
X233551Y217283D01*
X233551Y217283D01*
X232790Y215445D01*
X232790Y215445D01*
X232790Y215445D01*
X232607Y214525D01*
X232402Y213494D01*
X232402Y213494D01*
X232402Y213494D01*
X232402Y212499D01*
X232402Y172770D01*
X232352Y172648D01*
X232230Y172598D01*
X222500Y172598D01*
X221506Y172598D01*
X221506Y172598D01*
X221506Y172598D01*
X220536Y172405D01*
X219555Y172210D01*
X219555Y172210D01*
X219555Y172210D01*
X217717Y171449D01*
X217717Y171449D01*
X217717Y171449D01*
X216989Y170962D01*
X216063Y170344D01*
X216063Y170344D01*
X216063Y170344D01*
X214656Y168937D01*
X214656Y168937D01*
X214656Y168937D01*
X214246Y168323D01*
X213551Y167283D01*
X213551Y167283D01*
X213551Y167283D01*
X212790Y165445D01*
X212790Y165445D01*
X212790Y165445D01*
X212607Y164525D01*
X212402Y163494D01*
X212402Y163494D01*
X212402Y163494D01*
X212402Y162499D01*
X212402Y141505D01*
X212790Y139555D01*
X213551Y137717D01*
X214656Y136063D01*
X216063Y134656D01*
X217717Y133551D01*
X219555Y132790D01*
X221505Y132402D01*
X253494Y132402D01*
X255445Y132790D01*
X257283Y133551D01*
X258937Y134656D01*
X260344Y136063D01*
X261449Y137717D01*
X262210Y139555D01*
X262210Y139555D01*
X262210Y139555D01*
X262598Y141505D01*
X262598Y141505D01*
X262598Y141506D01*
X262598Y142500D01*
X262598Y142500D01*
X262598Y212500D01*
X262598Y213494D01*
X262598Y213494D01*
X262598Y213494D01*
X262396Y214511D01*
X262210Y215445D01*
X262210Y215445D01*
X262210Y215445D01*
X261449Y217283D01*
X260344Y218937D01*
X260344Y218937D01*
X260344Y218937D01*
X258937Y220344D01*
X257283Y221449D01*
X257283Y221449D01*
X257283Y221449D01*
X255445Y222210D01*
X255445Y222210D01*
X255445Y222210D01*
X254433Y222411D01*
X253494Y222598D01*
X253494Y222598D01*
X253494Y222598D01*
X252500Y222598D01*
X252500Y222598D01*
X242500Y222598D01*
X241506Y222598D01*
D02*
G37*
G36*
X254479Y105097D02*
X250521D01*
X246638Y104325D01*
X244809Y103567D01*
X244809Y103567D01*
X244809Y103567D01*
X242981Y102809D01*
X241335Y101710D01*
X241335Y101710D01*
X241335Y101710D01*
X239689Y100610D01*
X236890Y97811D01*
X234690Y94519D01*
X233176Y90862D01*
X232403Y86979D01*
Y85000D01*
Y15000D01*
Y13021D01*
X233176Y9138D01*
X234690Y5481D01*
X236890Y2189D01*
X239689Y-610D01*
X242981Y-2810D01*
X246638Y-4324D01*
X250521Y-5097D01*
X254479D01*
X258362Y-4324D01*
X262019Y-2810D01*
X265311Y-610D01*
X268110Y2189D01*
X269210Y3835D01*
X269210Y3835D01*
X269210Y3835D01*
X270310Y5481D01*
X271067Y7309D01*
X271067Y7309D01*
X271067Y7309D01*
X271824Y9138D01*
X272597Y13021D01*
Y15000D01*
Y85000D01*
Y86979D01*
X271824Y90862D01*
X271067Y92690D01*
X271067Y92691D01*
X271067Y92691D01*
X270310Y94519D01*
X269210Y96165D01*
X269210Y96165D01*
X269210Y96165D01*
X268110Y97811D01*
X265311Y100610D01*
X263665Y101710D01*
X263665Y101710D01*
X263665Y101710D01*
X262019Y102809D01*
X260191Y103567D01*
X260191Y103567D01*
X260190Y103567D01*
X258362Y104325D01*
X256421Y104711D01*
X254479Y105097D01*
D02*
G37*
G36*
X281354Y-21250D02*
X278646D01*
X275989Y-21778D01*
X273487Y-22815D01*
X271235Y-24320D01*
X269320Y-26235D01*
X267815Y-28487D01*
X266778Y-30989D01*
X266250Y-33646D01*
Y-35000D01*
Y-66989D01*
X266538Y-68438D01*
X267104Y-69803D01*
X267924Y-71031D01*
X268969Y-72076D01*
X270197Y-72896D01*
X271562Y-73462D01*
X273011Y-73750D01*
X286989D01*
X288438Y-73462D01*
X289803Y-72896D01*
X291031Y-72076D01*
X292076Y-71031D01*
X292896Y-69803D01*
X293462Y-68438D01*
X293750Y-66989D01*
Y-35000D01*
Y-33646D01*
X293222Y-30989D01*
X292185Y-28487D01*
X290680Y-26235D01*
X288765Y-24320D01*
X286513Y-22815D01*
X284011Y-21778D01*
X281354Y-21250D01*
D02*
G37*
G36*
X299112Y-103181D02*
X296422Y-103281D01*
X293547Y-103964D01*
X290861Y-105196D01*
X288680Y-106773D01*
X295692Y-110193D01*
X299112Y-103181D01*
D02*
G37*
G36*
X309897Y-108442D02*
X306478Y-115453D01*
X313489Y-118873D01*
X313389Y-116183D01*
X312706Y-113309D01*
X311475Y-110623D01*
X309897Y-108442D01*
D02*
G37*
G36*
X283420Y-117559D02*
X283520Y-120248D01*
X284203Y-123123D01*
X285434Y-125809D01*
X287012Y-127990D01*
X290432Y-120978D01*
X283420Y-117559D01*
D02*
G37*
G36*
X301217Y-126239D02*
X297797Y-133251D01*
X300487Y-133151D01*
X303362Y-132467D01*
X306048Y-131236D01*
X308229Y-129659D01*
X301217Y-126239D01*
D02*
G37*
G36*
X348546Y-127292D02*
X345856Y-127391D01*
X342981Y-128075D01*
X340295Y-129306D01*
X338114Y-130884D01*
X345126Y-134303D01*
X348546Y-127292D01*
D02*
G37*
G36*
X332854Y-141669D02*
X332953Y-144359D01*
X333637Y-147233D01*
X334868Y-149920D01*
X336446Y-152100D01*
X339865Y-145089D01*
X332854Y-141669D01*
D02*
G37*
G36*
X284032Y-134629D02*
X281079Y-134739D01*
X278204Y-135422D01*
X275518Y-136653D01*
X273124Y-138385D01*
X271114Y-140550D01*
X269565Y-143066D01*
X268536Y-145836D01*
X268067Y-148753D01*
X268177Y-151706D01*
X268860Y-154581D01*
X270091Y-157267D01*
X271823Y-159661D01*
X273988Y-161671D01*
X276504Y-163221D01*
X279274Y-164249D01*
X282192Y-164718D01*
X285144Y-164608D01*
X288019Y-163925D01*
X290705Y-162694D01*
X293099Y-160962D01*
X295110Y-158797D01*
X296659Y-156281D01*
X297688Y-153511D01*
X298156Y-150594D01*
X298047Y-147641D01*
X297363Y-144766D01*
X296132Y-142080D01*
X294400Y-139686D01*
X292235Y-137676D01*
X289719Y-136126D01*
X286949Y-135098D01*
X284032Y-134629D01*
D02*
G37*
G36*
X143295Y-109421D02*
X141306Y-109421D01*
X139355Y-109809D01*
X137517Y-110570D01*
X137517Y-110570D01*
X137517Y-110570D01*
X135864Y-111676D01*
X135863Y-111676D01*
X135160Y-112379D01*
X135160Y-112379D01*
X121019Y-126520D01*
X120315Y-127224D01*
X120315Y-127224D01*
X120315Y-127224D01*
X119697Y-128149D01*
X119210Y-128877D01*
X119210Y-128877D01*
X119210Y-128878D01*
X118449Y-130715D01*
X118449Y-130716D01*
X118061Y-132666D01*
X118061Y-132666D01*
X118061Y-132667D01*
X118061Y-134656D01*
X118061Y-134656D01*
X118061Y-134656D01*
X118244Y-135580D01*
X118448Y-136607D01*
X118449Y-136607D01*
X118449Y-136607D01*
X119210Y-138444D01*
X119210Y-138445D01*
X119210Y-138445D01*
X119643Y-139092D01*
X120315Y-140098D01*
X120315Y-140098D01*
X120315Y-140099D01*
X121018Y-140801D01*
X121018Y-140801D01*
X142231Y-162015D01*
X142232Y-162015D01*
X142934Y-162718D01*
X142934Y-162718D01*
X142934Y-162718D01*
X144588Y-163823D01*
X146426Y-164584D01*
X148377Y-164972D01*
X150366Y-164972D01*
X150366Y-164972D01*
X150366Y-164972D01*
X151458Y-164755D01*
X152317Y-164585D01*
X152317Y-164584D01*
X152317Y-164584D01*
X154155Y-163823D01*
X154155Y-163823D01*
X155809Y-162718D01*
X170654Y-147872D01*
X170654Y-147872D01*
X171357Y-147169D01*
X171357Y-147169D01*
X171357Y-147169D01*
X172463Y-145515D01*
Y-145515D01*
X172463Y-145515D01*
X173224Y-143678D01*
X173612Y-141727D01*
X173612Y-139738D01*
X173224Y-137787D01*
X172463Y-135949D01*
X171357Y-134295D01*
X171357Y-134295D01*
X171357Y-134295D01*
X170654Y-133592D01*
X149441Y-112379D01*
X149441Y-112379D01*
X148738Y-111675D01*
X147084Y-110570D01*
X145246Y-109809D01*
X145246Y-109809D01*
X143295Y-109421D01*
D02*
G37*
G36*
X260721Y-172748D02*
X257767Y-172819D01*
X254884Y-173465D01*
X252422Y-174554D01*
X258570Y-179357D01*
X263373Y-173210D01*
X260721Y-172748D01*
D02*
G37*
G36*
X272829Y-180597D02*
X268026Y-186745D01*
X274173Y-191548D01*
X274635Y-188896D01*
X274564Y-185942D01*
X273918Y-183059D01*
X272829Y-180597D01*
D02*
G37*
G36*
X245034Y-184010D02*
X244573Y-186662D01*
X244643Y-189616D01*
X245289Y-192499D01*
X246379Y-194961D01*
X251182Y-188813D01*
X245034Y-184010D01*
D02*
G37*
G36*
X260638Y-196201D02*
X255835Y-202348D01*
X258487Y-202810D01*
X261441Y-202739D01*
X264324Y-202093D01*
X266785Y-201004D01*
X260638Y-196201D01*
D02*
G37*
G36*
X304061Y-206609D02*
X301108Y-206680D01*
X298224Y-207326D01*
X295763Y-208416D01*
X301910Y-213218D01*
X306713Y-207071D01*
X304061Y-206609D01*
D02*
G37*
G36*
X288375Y-217871D02*
X287913Y-220523D01*
X287984Y-223477D01*
X288630Y-226361D01*
X289720Y-228822D01*
X294522Y-222675D01*
X288375Y-217871D01*
D02*
G37*
G36*
X239173Y-200328D02*
X236219Y-200399D01*
X233335Y-201045D01*
X230634Y-202241D01*
X228217Y-203941D01*
X226178Y-206080D01*
X224596Y-208575D01*
X223531Y-211331D01*
X223025Y-214242D01*
X223095Y-217196D01*
X223741Y-220080D01*
X224937Y-222782D01*
X226637Y-225198D01*
X228776Y-227237D01*
X231271Y-228819D01*
X234028Y-229884D01*
X236939Y-230390D01*
X239893Y-230320D01*
X242776Y-229674D01*
X245478Y-228478D01*
X247894Y-226778D01*
X249933Y-224639D01*
X251515Y-222143D01*
X252580Y-219387D01*
X253087Y-216476D01*
X253016Y-213522D01*
X252370Y-210639D01*
X251174Y-207937D01*
X249474Y-205521D01*
X247335Y-203482D01*
X244840Y-201900D01*
X242084Y-200835D01*
X239173Y-200328D01*
D02*
G37*
%LPD*%
G36*
X254083Y276739D02*
X255489Y275332D01*
X256250Y273494D01*
X256251Y272499D01*
X256251D01*
X256251Y252501D01*
X256251Y251506D01*
X255489Y249668D01*
X254083Y248261D01*
X252245Y247500D01*
X251250Y247500D01*
X221250D01*
X220255Y247500D01*
X218418Y248261D01*
X217011Y249668D01*
X216250Y251505D01*
X216250Y252500D01*
Y272500D01*
X216250Y273495D01*
X217011Y275332D01*
X218418Y276739D01*
X220255Y277500D01*
X221250Y277500D01*
X221250Y277500D01*
X251250Y277500D01*
X252244D01*
X254083Y276739D01*
D02*
G37*
G36*
X185333D02*
X186739Y275332D01*
X187500Y273494D01*
X187501Y272499D01*
X187501D01*
X187501Y252501D01*
X187501Y251506D01*
X186739Y249668D01*
X185333Y248261D01*
X183495Y247500D01*
X182500Y247500D01*
X152500D01*
X151505Y247500D01*
X149668Y248261D01*
X148261Y249668D01*
X147500Y251505D01*
X147500Y252500D01*
Y272500D01*
X147500Y273495D01*
X148261Y275332D01*
X149668Y276739D01*
X151505Y277500D01*
X152500Y277500D01*
X152500Y277500D01*
X182500Y277500D01*
X183494D01*
X185333Y276739D01*
D02*
G37*
G36*
X242500Y217500D02*
X252500Y217500D01*
X252500Y217500D01*
X253494Y217500D01*
X255332Y216739D01*
X256739Y215332D01*
X257500Y213494D01*
X257500Y212500D01*
X257500Y142500D01*
X257500Y142500D01*
X257500Y141505D01*
X256739Y139668D01*
X255332Y138261D01*
X253494Y137500D01*
X252500D01*
X222500Y137500D01*
X221505D01*
X219668Y138261D01*
X218261Y139668D01*
X217500Y141505D01*
Y142500D01*
X217500Y162500D01*
D01*
Y162500D01*
Y162500D01*
X217500Y163494D01*
X218261Y165332D01*
X219668Y166739D01*
X221505Y167500D01*
X222500Y167500D01*
X232500Y167500D01*
X232500D01*
X233475Y167596D01*
X235278Y168342D01*
X236658Y169722D01*
X237404Y171525D01*
X237500Y172500D01*
X237500Y212500D01*
D01*
Y212500D01*
Y212500D01*
X237500Y213494D01*
X238261Y215332D01*
X239668Y216739D01*
X241505Y217500D01*
X242500Y217500D01*
D02*
G37*
G36*
X145133Y-115280D02*
X145836Y-115983D01*
X145836Y-115983D01*
X167050Y-137197D01*
X167753Y-137900D01*
X168514Y-139738D01*
X168514Y-141727D01*
X167753Y-143564D01*
X167050Y-144268D01*
X167050Y-144268D01*
X152907Y-158410D01*
X152204Y-159113D01*
X150366Y-159874D01*
X148377Y-159874D01*
X146539Y-159113D01*
X145836Y-158410D01*
X145836Y-158410D01*
X124623Y-137197D01*
X123920Y-136494D01*
X123159Y-134656D01*
X123159Y-132667D01*
X123920Y-130829D01*
X124623Y-130126D01*
X124623Y-130126D01*
X138765Y-115983D01*
X139468Y-115280D01*
X141306Y-114519D01*
X143295Y-114519D01*
X145133Y-115280D01*
D02*
G37*
%LPC*%
G36*
X-133000Y226556D02*
X-134697Y226333D01*
X-136278Y225678D01*
X-137636Y224636D01*
X-138678Y223278D01*
X-139333Y221697D01*
X-139556Y220000D01*
X-139333Y218303D01*
X-138678Y216722D01*
X-137636Y215364D01*
X-136278Y214322D01*
X-134697Y213667D01*
X-133000Y213444D01*
X-131303Y213667D01*
X-129722Y214322D01*
X-128364Y215364D01*
X-127322Y216722D01*
X-126667Y218303D01*
X-126444Y220000D01*
X-126667Y221697D01*
X-127322Y223278D01*
X-128364Y224636D01*
X-129722Y225678D01*
X-131303Y226333D01*
X-133000Y226556D01*
D02*
G37*
G36*
X-165000Y209078D02*
X-167349Y208768D01*
X-169539Y207861D01*
X-171419Y206419D01*
X-172861Y204539D01*
X-173768Y202349D01*
X-174078Y200000D01*
Y192500D01*
Y185000D01*
X-173768Y182651D01*
X-172861Y180461D01*
X-171419Y178581D01*
X-169539Y177139D01*
X-167349Y176232D01*
X-165000Y175922D01*
X-162651Y176232D01*
X-160461Y177139D01*
X-158581Y178581D01*
X-157139Y180461D01*
X-156232Y182651D01*
X-155922Y185000D01*
Y192500D01*
Y200000D01*
X-156232Y202349D01*
X-157139Y204539D01*
X-158581Y206419D01*
X-160461Y207861D01*
X-162651Y208768D01*
X-165000Y209078D01*
D02*
G37*
G36*
X-230000Y167060D02*
X-231827Y166820D01*
X-233530Y166115D01*
X-234375Y165466D01*
X-235220Y166115D01*
X-236923Y166820D01*
X-238750Y167060D01*
X-240577Y166820D01*
X-242280Y166115D01*
X-243125Y165466D01*
X-243970Y166115D01*
X-245673Y166820D01*
X-247500Y167060D01*
X-249327Y166820D01*
X-251030Y166115D01*
X-252492Y164993D01*
X-253615Y163530D01*
X-254320Y161827D01*
X-254560Y160000D01*
X-254320Y158173D01*
X-253615Y156470D01*
X-252492Y155008D01*
X-251030Y153885D01*
X-249327Y153180D01*
X-247500Y152940D01*
X-245673Y153180D01*
X-243970Y153885D01*
X-243125Y154534D01*
X-242280Y153885D01*
X-240577Y153180D01*
X-238750Y152940D01*
X-236923Y153180D01*
X-235220Y153885D01*
X-234375Y154534D01*
X-233530Y153885D01*
X-231827Y153180D01*
X-230000Y152940D01*
X-228173Y153180D01*
X-226470Y153885D01*
X-225008Y155008D01*
X-223885Y156470D01*
X-223180Y158173D01*
X-222940Y160000D01*
X-223180Y161827D01*
X-223885Y163530D01*
X-225008Y164993D01*
X-226470Y166115D01*
X-228173Y166820D01*
X-230000Y167060D01*
D02*
G37*
G36*
X-52500Y144618D02*
X-54841Y144152D01*
X-56826Y142826D01*
X-58152Y140841D01*
X-58618Y138500D01*
X-58152Y136159D01*
X-56826Y134174D01*
X-54841Y132848D01*
X-52500Y132382D01*
X-50159Y132848D01*
X-48174Y134174D01*
X-46848Y136159D01*
X-46382Y138500D01*
X-46848Y140841D01*
X-48174Y142826D01*
X-50159Y144152D01*
X-52500Y144618D01*
D02*
G37*
G36*
X-167500Y135118D02*
X-169841Y134652D01*
X-171826Y133326D01*
X-173152Y131341D01*
X-173617Y129000D01*
X-173152Y126659D01*
X-171826Y124674D01*
X-169841Y123348D01*
X-167500Y122882D01*
X-165159Y123348D01*
X-163174Y124674D01*
X-161848Y126659D01*
X-161383Y129000D01*
X-161848Y131341D01*
X-163174Y133326D01*
X-165159Y134652D01*
X-167500Y135118D01*
D02*
G37*
G36*
X-281250Y115168D02*
X-283591Y114702D01*
X-285576Y113376D01*
X-286902Y111391D01*
X-287368Y109050D01*
X-286902Y106709D01*
X-285576Y104724D01*
X-283591Y103398D01*
X-281250Y102933D01*
X-278909Y103398D01*
X-276924Y104724D01*
X-275598Y106709D01*
X-275133Y109050D01*
X-275598Y111391D01*
X-276924Y113376D01*
X-278909Y114702D01*
X-281250Y115168D01*
D02*
G37*
G36*
X-225000Y116117D02*
X-227341Y115652D01*
X-229326Y114326D01*
X-230652Y112341D01*
X-231117Y110000D01*
X-230652Y107659D01*
X-229408Y105798D01*
X-229267Y105362D01*
Y104638D01*
X-229408Y104202D01*
X-230652Y102341D01*
X-231117Y100000D01*
X-230652Y97659D01*
X-229326Y95674D01*
X-227341Y94348D01*
X-225000Y93883D01*
X-222659Y94348D01*
X-220674Y95674D01*
X-219348Y97659D01*
X-218883Y100000D01*
X-219348Y102341D01*
X-220592Y104202D01*
X-220733Y104638D01*
Y105362D01*
X-220592Y105798D01*
X-219348Y107659D01*
X-218883Y110000D01*
X-219348Y112341D01*
X-220674Y114326D01*
X-222659Y115652D01*
X-225000Y116117D01*
D02*
G37*
G36*
X-231250Y89768D02*
X-233591Y89302D01*
X-235576Y87976D01*
X-236902Y85991D01*
X-237367Y83650D01*
X-236902Y81309D01*
X-235576Y79324D01*
X-233591Y77998D01*
X-231250Y77533D01*
X-228909Y77998D01*
X-226924Y79324D01*
X-225598Y81309D01*
X-225133Y83650D01*
X-225598Y85991D01*
X-226924Y87976D01*
X-228909Y89302D01*
X-231250Y89768D01*
D02*
G37*
G36*
X-260000Y64560D02*
X-261827Y64320D01*
X-263530Y63615D01*
X-264993Y62492D01*
X-271242Y56242D01*
X-272365Y54780D01*
X-273070Y53077D01*
X-273310Y51250D01*
Y45000D01*
Y37500D01*
Y30000D01*
X-273070Y28173D01*
X-272365Y26470D01*
X-271242Y25008D01*
X-269780Y23886D01*
X-268077Y23180D01*
X-266250Y22940D01*
X-264423Y23180D01*
X-262720Y23886D01*
X-261257Y25008D01*
X-260135Y26470D01*
X-259430Y28173D01*
X-259190Y30000D01*
Y37500D01*
Y48326D01*
X-255008Y52508D01*
X-253885Y53970D01*
X-253180Y55673D01*
X-252940Y57500D01*
X-253180Y59327D01*
X-253885Y61030D01*
X-255008Y62492D01*
X-256470Y63615D01*
X-258173Y64320D01*
X-260000Y64560D01*
D02*
G37*
G36*
X-132500Y21169D02*
X-134588Y20894D01*
X-136535Y20088D01*
X-138206Y18806D01*
X-139488Y17135D01*
X-140294Y15188D01*
X-140569Y13100D01*
X-140294Y11012D01*
X-139488Y9066D01*
X-138206Y7394D01*
X-136535Y6112D01*
X-134588Y5306D01*
X-132500Y5031D01*
X-130412Y5306D01*
X-128465Y6112D01*
X-126794Y7394D01*
X-125512Y9066D01*
X-124706Y11012D01*
X-124431Y13100D01*
X-124706Y15188D01*
X-125512Y17135D01*
X-126794Y18806D01*
X-128465Y20088D01*
X-130412Y20894D01*
X-132500Y21169D01*
D02*
G37*
G36*
Y-4231D02*
X-134588Y-4506D01*
X-136535Y-5312D01*
X-138206Y-6594D01*
X-139488Y-8265D01*
X-140294Y-10211D01*
X-140569Y-12300D01*
X-140294Y-14388D01*
X-139488Y-16334D01*
X-138206Y-18006D01*
X-136535Y-19288D01*
X-134588Y-20094D01*
X-132500Y-20369D01*
X-130412Y-20094D01*
X-128465Y-19288D01*
X-126794Y-18006D01*
X-125512Y-16334D01*
X-124706Y-14388D01*
X-124431Y-12300D01*
X-124706Y-10211D01*
X-125512Y-8265D01*
X-126794Y-6594D01*
X-128465Y-5312D01*
X-130412Y-4506D01*
X-132500Y-4231D01*
D02*
G37*
G36*
X-161705Y47118D02*
X-163295D01*
X-164854Y46807D01*
X-166322Y46199D01*
X-167644Y45316D01*
X-168768Y44192D01*
X-169651Y42871D01*
X-170259Y41402D01*
X-170569Y39843D01*
Y39049D01*
Y-48448D01*
Y-49243D01*
X-170259Y-50802D01*
X-169651Y-52271D01*
X-168768Y-53592D01*
X-167644Y-54716D01*
X-166322Y-55599D01*
X-164854Y-56207D01*
X-163295Y-56518D01*
X-161705D01*
X-160146Y-56207D01*
X-158678Y-55599D01*
X-157356Y-54716D01*
X-156232Y-53592D01*
X-155349Y-52271D01*
X-154741Y-50802D01*
X-154431Y-49243D01*
Y-48448D01*
Y39049D01*
Y39843D01*
X-154741Y41402D01*
X-155349Y42871D01*
X-156232Y44192D01*
X-157356Y45316D01*
X-158678Y46199D01*
X-160146Y46807D01*
X-161705Y47118D01*
D02*
G37*
G36*
X-202500Y-44282D02*
X-204841Y-44748D01*
X-206826Y-46074D01*
X-208152Y-48059D01*
X-208617Y-50400D01*
X-208152Y-52741D01*
X-206826Y-54726D01*
X-204841Y-56052D01*
X-202500Y-56518D01*
X-200159Y-56052D01*
X-198174Y-54726D01*
X-196848Y-52741D01*
X-196383Y-50400D01*
X-196848Y-48059D01*
X-198174Y-46074D01*
X-200159Y-44748D01*
X-202500Y-44282D01*
D02*
G37*
G36*
X-140000Y-56982D02*
X-142341Y-57448D01*
X-144326Y-58774D01*
X-145652Y-60759D01*
X-146117Y-63100D01*
X-145652Y-65441D01*
X-144326Y-67426D01*
X-142341Y-68752D01*
X-140000Y-69218D01*
X-137659Y-68752D01*
X-135674Y-67426D01*
X-134348Y-65441D01*
X-133883Y-63100D01*
X-134348Y-60759D01*
X-135674Y-58774D01*
X-137659Y-57448D01*
X-140000Y-56982D01*
D02*
G37*
G36*
X-162500Y-69682D02*
X-164841Y-70148D01*
X-166826Y-71474D01*
X-168152Y-73459D01*
X-168617Y-75800D01*
X-168152Y-78141D01*
X-166826Y-80126D01*
X-164841Y-81452D01*
X-162500Y-81917D01*
X-160159Y-81452D01*
X-158174Y-80126D01*
X-156848Y-78141D01*
X-156383Y-75800D01*
X-156848Y-73459D01*
X-158174Y-71474D01*
X-160159Y-70148D01*
X-162500Y-69682D01*
D02*
G37*
G36*
X-237500D02*
X-239841Y-70148D01*
X-241826Y-71474D01*
X-243152Y-73459D01*
X-243617Y-75800D01*
X-243152Y-78141D01*
X-241826Y-80126D01*
X-239841Y-81452D01*
X-237500Y-81917D01*
X-235159Y-81452D01*
X-233174Y-80126D01*
X-231848Y-78141D01*
X-231383Y-75800D01*
X-231848Y-73459D01*
X-233174Y-71474D01*
X-235159Y-70148D01*
X-237500Y-69682D01*
D02*
G37*
G36*
X-128750Y-77632D02*
X-131091Y-78098D01*
X-133076Y-79424D01*
X-134402Y-81409D01*
X-134867Y-83750D01*
X-134402Y-86091D01*
X-133076Y-88076D01*
X-131091Y-89402D01*
X-128750Y-89867D01*
X-126409Y-89402D01*
X-124424Y-88076D01*
X-123098Y-86091D01*
X-122633Y-83750D01*
X-123098Y-81409D01*
X-124424Y-79424D01*
X-126409Y-78098D01*
X-128750Y-77632D01*
D02*
G37*
G36*
X-211504Y-93701D02*
X-222996D01*
X-223972Y-93895D01*
X-225350Y-94466D01*
X-226177Y-95019D01*
X-227232Y-96073D01*
X-227232Y-96073D01*
X-227784Y-96900D01*
X-228011Y-97448D01*
X-228152Y-97659D01*
X-228201Y-97907D01*
X-228355Y-98279D01*
X-228549Y-99254D01*
Y-99656D01*
X-228617Y-100000D01*
X-228549Y-100344D01*
Y-109656D01*
X-228617Y-110000D01*
X-228549Y-110344D01*
Y-110746D01*
X-228355Y-111721D01*
X-228201Y-112093D01*
X-228152Y-112341D01*
X-228011Y-112552D01*
X-227784Y-113100D01*
X-227232Y-113926D01*
X-226177Y-114981D01*
X-226177Y-114981D01*
X-225350Y-115534D01*
X-223972Y-116105D01*
X-222996Y-116299D01*
X-211504D01*
X-210529Y-116105D01*
X-209151Y-115534D01*
X-208324Y-114981D01*
X-207269Y-113927D01*
X-206716Y-113100D01*
X-206145Y-111721D01*
X-205951Y-110746D01*
Y-99254D01*
X-206145Y-98279D01*
X-206716Y-96900D01*
X-207269Y-96073D01*
X-208323Y-95019D01*
X-209151Y-94466D01*
X-210529Y-93895D01*
X-211504Y-93701D01*
D02*
G37*
G36*
X-71250Y-163883D02*
X-73591Y-164348D01*
X-75576Y-165674D01*
X-76902Y-167659D01*
X-77368Y-170000D01*
X-76902Y-172341D01*
X-75576Y-174326D01*
X-73591Y-175652D01*
X-71250Y-176117D01*
X-68909Y-175652D01*
X-66924Y-174326D01*
X-65598Y-172341D01*
X-65132Y-170000D01*
X-65598Y-167659D01*
X-66924Y-165674D01*
X-68909Y-164348D01*
X-71250Y-163883D01*
D02*
G37*
G36*
X-188750D02*
X-191091Y-164348D01*
X-193076Y-165674D01*
X-194402Y-167659D01*
X-194868Y-170000D01*
X-194402Y-172341D01*
X-193076Y-174326D01*
X-191091Y-175652D01*
X-188750Y-176117D01*
X-186409Y-175652D01*
X-184424Y-174326D01*
X-183098Y-172341D01*
X-182633Y-170000D01*
X-183098Y-167659D01*
X-184424Y-165674D01*
X-186409Y-164348D01*
X-188750Y-163883D01*
D02*
G37*
G36*
Y-183883D02*
X-191091Y-184348D01*
X-193076Y-185674D01*
X-194402Y-187659D01*
X-194868Y-190000D01*
X-194402Y-192341D01*
X-193158Y-194202D01*
X-193017Y-194638D01*
Y-195362D01*
X-193158Y-195798D01*
X-194402Y-197659D01*
X-194868Y-200000D01*
X-194402Y-202341D01*
X-193539Y-203632D01*
X-194218Y-204902D01*
X-282495Y-204902D01*
X-282993Y-204902D01*
X-282994Y-204902D01*
X-282995Y-204902D01*
X-283961Y-205093D01*
X-284944Y-205288D01*
X-284945Y-205289D01*
X-284946Y-205289D01*
X-285866Y-205669D01*
X-285867Y-205670D01*
X-285868Y-205670D01*
X-286659Y-206199D01*
X-287520Y-206773D01*
X-287521Y-206775D01*
X-287522Y-206775D01*
X-288225Y-207479D01*
X-288226Y-207480D01*
X-288227Y-207480D01*
X-288780Y-208310D01*
X-289330Y-209133D01*
X-289330Y-209134D01*
X-289331Y-209135D01*
X-289711Y-210054D01*
X-289711Y-210055D01*
X-289712Y-210056D01*
X-289901Y-211010D01*
X-290098Y-212005D01*
X-290098Y-212006D01*
X-290098Y-212008D01*
X-290098Y-212505D01*
Y-224805D01*
X-290000Y-225298D01*
Y-225800D01*
X-289672Y-227449D01*
X-289480Y-227913D01*
X-289382Y-228405D01*
X-288738Y-229958D01*
X-288459Y-230376D01*
X-288267Y-230840D01*
X-287333Y-232238D01*
X-286978Y-232593D01*
X-286699Y-233010D01*
X-286105Y-233605D01*
X-286105Y-233605D01*
X-247658Y-272052D01*
X-246584Y-273125D01*
X-246374Y-273266D01*
X-246213Y-273461D01*
X-243866Y-275388D01*
X-243643Y-275507D01*
X-243464Y-275686D01*
X-240939Y-277373D01*
X-240705Y-277470D01*
X-240510Y-277630D01*
X-237832Y-279062D01*
X-237590Y-279135D01*
X-237379Y-279276D01*
X-234574Y-280438D01*
X-234326Y-280487D01*
X-234103Y-280606D01*
X-231196Y-281488D01*
X-230945Y-281513D01*
X-230711Y-281609D01*
X-227733Y-282202D01*
X-227480D01*
X-227238Y-282276D01*
X-224216Y-282573D01*
X-223964Y-282548D01*
X-223716Y-282598D01*
X-222197Y-282598D01*
X-94122Y-282598D01*
X-93630Y-282500D01*
X-93128Y-282500D01*
X-93128Y-282500D01*
X-81872D01*
X-81872Y-282500D01*
X-81370Y-282500D01*
X-80878Y-282598D01*
X-18750Y-282598D01*
X-17507Y-282598D01*
X-15556Y-282210D01*
X-15556Y-282210D01*
X-13259Y-281259D01*
X-11605Y-280154D01*
X-9848Y-278396D01*
X-9847Y-278396D01*
X-8742Y-276742D01*
X-7791Y-274445D01*
X-7403Y-272494D01*
X-7403Y-271252D01*
X-7403Y-271251D01*
X-7402Y-245995D01*
X-7402Y-245995D01*
Y-240665D01*
X-7402Y-237500D01*
X-7402Y-237500D01*
X-7402Y-237500D01*
X-7402Y-226506D01*
X-7790Y-224555D01*
X-8551Y-222717D01*
X-9656Y-221063D01*
X-11063Y-219656D01*
X-12717Y-218551D01*
X-14555Y-217790D01*
X-15755Y-217551D01*
X-15963Y-217495D01*
X-16077Y-217487D01*
X-16505Y-217402D01*
X-27245D01*
X-27245Y-217402D01*
X-50000Y-217402D01*
X-50995Y-217402D01*
X-52945Y-217790D01*
X-54783Y-218551D01*
X-56437Y-219656D01*
X-56437Y-219657D01*
X-56437Y-219657D01*
X-57844Y-221063D01*
X-58949Y-222717D01*
X-59637Y-224378D01*
X-59800Y-225201D01*
X-60015Y-226011D01*
X-60088Y-227183D01*
X-60066Y-227342D01*
X-60098Y-227500D01*
X-60098Y-232229D01*
X-60149Y-232351D01*
X-60271Y-232402D01*
X-94875Y-232402D01*
X-96334Y-232330D01*
X-99319Y-231737D01*
X-102013Y-230621D01*
X-104438Y-229000D01*
X-106500Y-226938D01*
X-108121Y-224513D01*
X-109237Y-221819D01*
X-109830Y-218835D01*
X-109902Y-217375D01*
X-109902Y-213750D01*
X-109902Y-213005D01*
X-109902Y-213004D01*
X-109902Y-213004D01*
X-110106Y-211981D01*
X-110290Y-211054D01*
X-110290Y-211054D01*
X-110290Y-211053D01*
X-110861Y-209675D01*
X-110861Y-209675D01*
X-110861Y-209675D01*
X-111417Y-208844D01*
X-111966Y-208021D01*
X-111966Y-208021D01*
X-111966Y-208021D01*
X-113021Y-206966D01*
X-113021Y-206966D01*
X-113021Y-206966D01*
X-113568Y-206601D01*
X-114675Y-205861D01*
X-114675Y-205861D01*
X-114675Y-205861D01*
X-115638Y-205462D01*
X-116252Y-205340D01*
X-116842Y-205129D01*
X-118001Y-204958D01*
X-118378Y-204976D01*
X-118749Y-204902D01*
X-118749D01*
X-118750Y-204902D01*
X-183282Y-204902D01*
X-183961Y-203632D01*
X-183098Y-202341D01*
X-182633Y-200000D01*
X-183098Y-197659D01*
X-184342Y-195798D01*
X-184483Y-195362D01*
Y-194638D01*
X-184342Y-194202D01*
X-183098Y-192341D01*
X-182633Y-190000D01*
X-183098Y-187659D01*
X-184424Y-185674D01*
X-186409Y-184348D01*
X-188750Y-183883D01*
D02*
G37*
G36*
X-71250D02*
X-73591Y-184348D01*
X-75576Y-185674D01*
X-76902Y-187659D01*
X-77368Y-190000D01*
X-76902Y-192341D01*
X-75658Y-194202D01*
X-75517Y-194638D01*
Y-195362D01*
X-75658Y-195798D01*
X-76902Y-197659D01*
X-77368Y-200000D01*
X-76902Y-202341D01*
X-75576Y-204326D01*
X-73591Y-205652D01*
X-71250Y-206117D01*
X-68909Y-205652D01*
X-66924Y-204326D01*
X-65598Y-202341D01*
X-65132Y-200000D01*
X-65598Y-197659D01*
X-66842Y-195798D01*
X-66983Y-195362D01*
Y-194638D01*
X-66842Y-194202D01*
X-65598Y-192341D01*
X-65132Y-190000D01*
X-65598Y-187659D01*
X-66924Y-185674D01*
X-68909Y-184348D01*
X-71250Y-183883D01*
D02*
G37*
G36*
X44500Y-207633D02*
X42159Y-208098D01*
X40174Y-209424D01*
X38848Y-211409D01*
X38382Y-213750D01*
X38848Y-216091D01*
X40174Y-218076D01*
X42159Y-219402D01*
X44500Y-219867D01*
X46841Y-219402D01*
X48826Y-218076D01*
X50152Y-216091D01*
X50618Y-213750D01*
X50152Y-211409D01*
X48826Y-209424D01*
X46841Y-208098D01*
X44500Y-207633D01*
D02*
G37*
G36*
X-102500Y-211383D02*
X-104841Y-211848D01*
X-106826Y-213174D01*
X-108152Y-215159D01*
X-108618Y-217500D01*
X-108152Y-219841D01*
X-106826Y-221826D01*
X-104841Y-223152D01*
X-102500Y-223617D01*
X-100159Y-223152D01*
X-98174Y-221826D01*
X-96848Y-219841D01*
X-96383Y-217500D01*
X-96848Y-215159D01*
X-98174Y-213174D01*
X-100159Y-211848D01*
X-102500Y-211383D01*
D02*
G37*
G36*
X161250Y-306152D02*
X158750D01*
X156799Y-306540D01*
X155145Y-307645D01*
X142645Y-320145D01*
X141540Y-321799D01*
X141152Y-323750D01*
Y-326250D01*
X141540Y-328201D01*
X142645Y-329855D01*
X145145Y-332355D01*
X146799Y-333460D01*
X148750Y-333848D01*
X161250D01*
X163201Y-333460D01*
X164855Y-332355D01*
X172355Y-324855D01*
X173460Y-323201D01*
X173848Y-321250D01*
Y-318750D01*
X173460Y-316799D01*
X172355Y-315145D01*
X164855Y-307645D01*
X163201Y-306540D01*
X161250Y-306152D01*
D02*
G37*
%LPD*%
G36*
X-210126Y-96821D02*
X-209071Y-97876D01*
X-208500Y-99254D01*
Y-100000D01*
Y-110000D01*
Y-110746D01*
X-209071Y-112124D01*
X-210126Y-113179D01*
X-211504Y-113750D01*
X-222996D01*
X-224374Y-113179D01*
X-225429Y-112124D01*
X-226000Y-110746D01*
Y-110000D01*
Y-100000D01*
Y-99254D01*
X-225429Y-97876D01*
X-224374Y-96821D01*
X-222996Y-96250D01*
X-211504D01*
X-210126Y-96821D01*
D02*
G37*
G36*
X-282500Y-210000D02*
X-118750Y-210000D01*
X-118750Y-210000D01*
X-118750Y-210000D01*
X-118749D01*
X-117589Y-210172D01*
X-116626Y-210571D01*
X-115571Y-211626D01*
X-115000Y-213004D01*
X-115000Y-213750D01*
X-115000Y-217500D01*
X-114904Y-219461D01*
X-114139Y-223306D01*
X-112638Y-226928D01*
X-110460Y-230188D01*
X-107688Y-232960D01*
X-104428Y-235138D01*
X-100806Y-236639D01*
X-96960Y-237404D01*
X-95000Y-237500D01*
X-60000Y-237500D01*
X-60000Y-237500D01*
X-60000Y-237500D01*
X-59025Y-237404D01*
X-58807Y-237314D01*
X-57222Y-236657D01*
X-55843Y-235278D01*
X-55096Y-233476D01*
X-55000Y-232500D01*
X-55000Y-227500D01*
X-55000Y-227500D01*
X-55000Y-227500D01*
X-54927Y-226329D01*
X-54239Y-224668D01*
X-52832Y-223261D01*
X-50995Y-222500D01*
X-50000Y-222500D01*
X-27245Y-222500D01*
X-27245Y-222500D01*
X-16506D01*
X-14668Y-223261D01*
X-13261Y-224668D01*
X-12500Y-226506D01*
Y-226506D01*
X-12500Y-226506D01*
X-12500Y-237500D01*
X-12500Y-240664D01*
Y-245000D01*
Y-245995D01*
X-12500Y-245995D01*
X-12501Y-271251D01*
X-12501Y-271251D01*
X-12501Y-272494D01*
X-13452Y-274791D01*
X-15210Y-276549D01*
X-17507Y-277500D01*
X-18750Y-277500D01*
X-80878Y-277500D01*
X-81727Y-276230D01*
X-81382Y-274499D01*
X-81848Y-272158D01*
X-83174Y-270173D01*
X-85159Y-268847D01*
X-87500Y-268382D01*
X-89841Y-268847D01*
X-91826Y-270173D01*
X-93152Y-272158D01*
X-93617Y-274499D01*
X-93273Y-276230D01*
X-94122Y-277500D01*
X-222197Y-277500D01*
X-223716Y-277500D01*
X-226738Y-277202D01*
X-229717Y-276610D01*
X-232623Y-275728D01*
X-235428Y-274566D01*
X-238107Y-273134D01*
X-240632Y-271447D01*
X-242979Y-269520D01*
X-244053Y-268447D01*
X-282500Y-230000D01*
X-283095Y-229406D01*
X-284029Y-228008D01*
X-284672Y-226454D01*
X-285000Y-224805D01*
Y-212500D01*
X-285000Y-212003D01*
X-284620Y-211083D01*
X-283917Y-210380D01*
X-282997Y-210000D01*
X-282500Y-210000D01*
D02*
G37*
%LPC*%
G36*
X-220000Y-211383D02*
X-222341Y-211848D01*
X-224326Y-213174D01*
X-225652Y-215159D01*
X-226118Y-217500D01*
X-225652Y-219841D01*
X-224326Y-221826D01*
X-222341Y-223152D01*
X-220000Y-223617D01*
X-217659Y-223152D01*
X-215674Y-221826D01*
X-214348Y-219841D01*
X-213883Y-217500D01*
X-214348Y-215159D01*
X-215674Y-213174D01*
X-217659Y-211848D01*
X-220000Y-211383D01*
D02*
G37*
G36*
X-210000Y-242633D02*
X-212341Y-243098D01*
X-214326Y-244424D01*
X-215652Y-246409D01*
X-216118Y-248750D01*
X-215652Y-251091D01*
X-214326Y-253076D01*
X-212341Y-254402D01*
X-210000Y-254867D01*
X-207659Y-254402D01*
X-205674Y-253076D01*
X-204348Y-251091D01*
X-203883Y-248750D01*
X-204348Y-246409D01*
X-205674Y-244424D01*
X-207659Y-243098D01*
X-210000Y-242633D01*
D02*
G37*
G36*
X-125000Y-242633D02*
X-127341Y-243098D01*
X-129326Y-244424D01*
X-130652Y-246409D01*
X-131117Y-248750D01*
X-130652Y-251091D01*
X-129326Y-253076D01*
X-127341Y-254402D01*
X-125000Y-254868D01*
X-122659Y-254402D01*
X-120674Y-253076D01*
X-119348Y-251091D01*
X-118883Y-248750D01*
X-119348Y-246409D01*
X-120674Y-244424D01*
X-122659Y-243098D01*
X-125000Y-242633D01*
D02*
G37*
G36*
X-242500D02*
X-244841Y-243098D01*
X-246826Y-244424D01*
X-248152Y-246409D01*
X-248617Y-248750D01*
X-248152Y-251091D01*
X-246826Y-253076D01*
X-244841Y-254402D01*
X-242500Y-254868D01*
X-240159Y-254402D01*
X-238174Y-253076D01*
X-236848Y-251091D01*
X-236383Y-248750D01*
X-236848Y-246409D01*
X-238174Y-244424D01*
X-240159Y-243098D01*
X-242500Y-242633D01*
D02*
G37*
%LPD*%
G36*
X168750Y-318750D02*
Y-321250D01*
X161250Y-328750D01*
X148750D01*
X146250Y-326250D01*
Y-323750D01*
X158750Y-311250D01*
X161250D01*
X168750Y-318750D01*
D02*
G37*
%LPC*%
G36*
X-230000Y50000D02*
X-230000D01*
X-230000Y50000D01*
X-230000Y50000D01*
D02*
G37*
%LPD*%
D10*
X89500Y225000D02*
X87732Y224268D01*
X87000Y222500D01*
X84500Y210776D02*
X86268Y211508D01*
X87000Y213276D01*
X82000D02*
X82732Y211508D01*
X84500Y210776D01*
X82000Y222500D02*
X81268Y224268D01*
X79500Y225000D01*
X67500Y193000D02*
X68232Y191232D01*
X70000Y190500D01*
X88500Y188000D02*
X87768Y189768D01*
X86000Y190500D01*
Y185500D02*
X87768Y186232D01*
X88500Y188000D01*
X67500Y185500D02*
X66000Y184000D01*
Y182000D02*
X67500Y180500D01*
X88500Y178000D02*
X87768Y179768D01*
X86000Y180500D01*
Y175500D02*
X87768Y176232D01*
X88500Y178000D01*
X68500Y175500D02*
X67500Y174500D01*
X60125Y156375D02*
X59393Y154607D01*
X60125Y152839D01*
X63589Y145840D02*
X64321Y147608D01*
X63589Y149376D01*
X60053Y145840D02*
X61821Y145108D01*
X63589Y145840D01*
X56589Y149304D02*
X54822Y150036D01*
X53054Y149304D01*
X44000Y93750D02*
X42232Y93018D01*
X41500Y91250D01*
X39000Y86750D02*
X40768Y87482D01*
X41500Y89250D01*
X36500D02*
X37232Y87482D01*
X39000Y86750D01*
X36500Y98250D02*
X35768Y100018D01*
X34000Y100750D01*
X32232Y100018D01*
X31500Y98250D01*
X29000Y86750D02*
X30768Y87482D01*
X31500Y89250D01*
X26500D02*
X27232Y87482D01*
X29000Y86750D01*
X26500Y98250D02*
X25768Y100018D01*
X24000Y100750D01*
X22232Y100018D01*
X21500Y98250D01*
X19000Y86750D02*
X20768Y87482D01*
X21500Y89250D01*
X16500D02*
X17232Y87482D01*
X19000Y86750D01*
X16500Y98250D02*
X15768Y100018D01*
X14000Y100750D01*
X12232Y100018D01*
X11500Y98250D01*
X9000Y93750D02*
X10768Y94482D01*
X11500Y96250D01*
X97000Y115000D02*
X96268Y116768D01*
X94500Y117500D01*
X97000Y100224D02*
X97732Y98456D01*
X99500Y97724D01*
X101268Y98456D01*
X102000Y100224D01*
X104500Y117500D02*
X102732Y116768D01*
X102000Y115000D01*
X107000D02*
X106268Y116768D01*
X104500Y117500D01*
X107000Y100224D02*
X107732Y98456D01*
X109500Y97724D01*
X111268Y98456D01*
X112000Y100224D01*
X114500Y117500D02*
X112732Y116768D01*
X112000Y115000D01*
X200000Y212500D02*
X207500Y207500D01*
X180000Y232500D02*
X200000Y212500D01*
X187500Y127500D02*
X207500Y107500D01*
X48750Y127500D02*
X187500D01*
X42500Y121250D02*
X48750Y127500D01*
X42500Y164750D02*
X55000Y177250D01*
Y215000D01*
X65000Y225000D01*
X87000Y213276D02*
Y222500D01*
X82000Y213276D02*
Y222500D01*
X65000Y225000D02*
X79500D01*
X120000D02*
X137500Y207500D01*
X89500Y225000D02*
X120000D01*
X70000Y190500D02*
X86000D01*
X67500Y185500D02*
X86000D01*
X66000Y182000D02*
Y184000D01*
X67500Y180500D02*
X86000D01*
X68500Y175500D02*
X86000D01*
X60125Y152839D02*
X63589Y149376D01*
X56589Y149304D02*
X60053Y145840D01*
X48625Y144875D02*
X53054Y149304D01*
X42500Y138750D02*
X48625Y144875D01*
X60125Y156375D02*
X67500Y163750D01*
Y174500D01*
Y193000D02*
Y207500D01*
X-28500Y95500D02*
X-26750Y93750D01*
X-38000Y105000D02*
X-28500Y95500D01*
X41500Y89250D02*
Y91250D01*
X36500Y89250D02*
Y93750D01*
Y98250D01*
X31500Y93750D02*
Y98250D01*
Y89250D02*
Y93750D01*
X26500Y89250D02*
Y93750D01*
Y98250D01*
X21500Y93750D02*
Y98250D01*
Y89250D02*
Y93750D01*
X16500Y89250D02*
Y93750D01*
Y98250D01*
X11500Y96250D02*
Y98250D01*
X-26750Y93750D02*
X9000D01*
X48750D02*
X62500Y107500D01*
X44000Y93750D02*
X48750D01*
X42500Y110000D02*
X50000Y117500D01*
X89500D02*
X92000D01*
X94500D01*
X97000Y100224D02*
Y115000D01*
X102000Y100224D02*
Y115000D01*
X107000Y100224D02*
Y115000D01*
X112000Y100224D02*
Y115000D01*
X114500Y117500D02*
X116500D01*
X50000D02*
X89500D01*
X116500D02*
X127500D01*
X137500Y107500D01*
X42500Y190750D02*
Y214000D01*
X61000Y232500D01*
X180000D01*
D12*
X-152250Y332715D02*
X-147500Y337465D01*
X-106250Y105000D02*
X-92500D01*
D13*
X-90947Y40303D02*
X-89312Y42217D01*
X-87998Y44362D01*
X-87035Y46687D01*
X-86447Y49134D01*
X-86250Y51642D01*
X-90947Y40303D02*
X-92508Y38523D01*
X-93824Y36553D01*
X-94872Y34429D01*
X-95633Y32186D01*
X-96095Y29863D01*
X-96250Y27500D01*
X-130000Y120500D02*
Y192500D01*
X-140500Y110000D02*
X-130000Y120500D01*
X-152250Y214750D02*
X-130000Y192500D01*
X-152250Y257500D02*
Y302500D01*
X-266250Y-76250D02*
Y-70000D01*
Y-63750D01*
X-217500Y-15000D01*
X-152250Y302500D02*
Y332715D01*
X-217500Y-15000D02*
Y62500D01*
X-140500Y74500D02*
Y110000D01*
X-217500Y62500D02*
X-212500Y67500D01*
X-147500D01*
X-140500Y74500D01*
X-152250Y214750D02*
Y257500D01*
X-106250Y90000D02*
X-86250Y70000D01*
Y51642D02*
Y70000D01*
X-106250Y192500D02*
X-95000Y203750D01*
X-38500D01*
X-106250Y90000D02*
Y105000D01*
Y192500D01*
X-38500Y203750D02*
X-33000D01*
X-96250Y-105000D02*
Y27500D01*
D17*
X20000Y-185000D02*
D03*
Y-200000D02*
D03*
X5000D02*
D03*
Y-185000D02*
D03*
X-10000D02*
D03*
Y-200000D02*
D03*
X-25000D02*
D03*
Y-185000D02*
D03*
Y-170000D02*
D03*
X95000Y-50000D02*
D03*
X110000D02*
D03*
X95000Y-35000D02*
D03*
X110000D02*
D03*
Y-20000D02*
D03*
X95000D02*
D03*
X252500Y172500D02*
D03*
X242500D02*
D03*
X252500Y182500D02*
D03*
X242500D02*
D03*
X252500Y192500D02*
D03*
X242500D02*
D03*
X252500Y202500D02*
D03*
X242500D02*
D03*
X222500Y162500D02*
D03*
Y152500D02*
D03*
X242500Y142500D02*
D03*
X252500D02*
D03*
Y152500D02*
D03*
X242500D02*
D03*
X232500D02*
D03*
Y162500D02*
D03*
X242500D02*
D03*
X252500D02*
D03*
X182500Y172500D02*
D03*
X172500D02*
D03*
X182500Y182500D02*
D03*
X172500D02*
D03*
X182500Y192500D02*
D03*
X172500D02*
D03*
X182500Y202500D02*
D03*
X172500D02*
D03*
X182500Y212500D02*
D03*
X172500D02*
D03*
X152500Y162500D02*
D03*
Y152500D02*
D03*
X172500Y142500D02*
D03*
X182500D02*
D03*
Y152500D02*
D03*
X172500D02*
D03*
X162500D02*
D03*
Y162500D02*
D03*
X172500D02*
D03*
X182500D02*
D03*
X-100000Y-177500D02*
D03*
Y-187500D02*
D03*
Y-197500D02*
D03*
X-217500D02*
D03*
Y-187500D02*
D03*
Y-177500D02*
D03*
X100000Y272500D02*
D03*
Y262500D02*
D03*
Y252500D02*
D03*
X90000D02*
D03*
Y262500D02*
D03*
Y272500D02*
D03*
X120000D02*
D03*
Y262500D02*
D03*
Y252500D02*
D03*
X110000D02*
D03*
Y262500D02*
D03*
Y272500D02*
D03*
X162500D02*
D03*
Y262500D02*
D03*
Y252500D02*
D03*
X152500D02*
D03*
Y262500D02*
D03*
Y272500D02*
D03*
X182500D02*
D03*
Y262500D02*
D03*
Y252500D02*
D03*
X172500D02*
D03*
Y262500D02*
D03*
Y272500D02*
D03*
X231250D02*
D03*
Y262500D02*
D03*
Y252500D02*
D03*
X221250D02*
D03*
Y262500D02*
D03*
Y272500D02*
D03*
X251250D02*
D03*
Y262500D02*
D03*
Y252500D02*
D03*
X241250D02*
D03*
Y262500D02*
D03*
Y272500D02*
D03*
X-237500Y-197500D02*
D03*
X-227500D02*
D03*
Y-187500D02*
D03*
X-237500D02*
D03*
Y-177500D02*
D03*
X-227500D02*
D03*
X-110000D02*
D03*
X-120000D02*
D03*
Y-187500D02*
D03*
X-110000Y-197500D02*
D03*
X-120000D02*
D03*
X-172500Y-215000D02*
D03*
X-280000D02*
D03*
X112500Y162500D02*
D03*
X102500D02*
D03*
X92500D02*
D03*
Y152500D02*
D03*
X102500D02*
D03*
X112500D02*
D03*
Y142500D02*
D03*
X102500D02*
D03*
X82500Y152500D02*
D03*
Y162500D02*
D03*
X252500Y212500D02*
D03*
X242500D02*
D03*
X102500Y212500D02*
D03*
X112500D02*
D03*
X102500Y202500D02*
D03*
X112500D02*
D03*
X102500Y192500D02*
D03*
X112500D02*
D03*
X102500Y182500D02*
D03*
X112500D02*
D03*
X102500Y172500D02*
D03*
X112500D02*
D03*
X-260000Y-215000D02*
D03*
X-270000D02*
D03*
X100000Y350000D02*
D03*
X142500D02*
D03*
X132500D02*
D03*
X117500D02*
D03*
X108750D02*
D03*
X102500Y-315000D02*
D03*
X112500D02*
D03*
Y-325000D02*
D03*
X-20000Y342500D02*
D03*
X-10000D02*
D03*
X0D02*
D03*
X-5000Y315000D02*
D03*
X-215750Y240000D02*
D03*
X-207500D02*
D03*
Y231250D02*
D03*
X-215750D02*
D03*
X-199250D02*
D03*
Y240000D02*
D03*
X-231750D02*
D03*
Y231250D02*
D03*
X-248250D02*
D03*
X-240000D02*
D03*
Y240000D02*
D03*
X-248250D02*
D03*
X-110000Y-187500D02*
D03*
X-142500Y-215000D02*
D03*
X-152500D02*
D03*
X-162500D02*
D03*
X142301Y-147803D02*
D03*
X149372Y-140732D02*
D03*
X156443Y-133661D02*
D03*
X142301Y-119519D02*
D03*
X149372Y-126590D02*
D03*
X135230D02*
D03*
X142301Y-133661D02*
D03*
X135230Y-140732D02*
D03*
X128159Y-133661D02*
D03*
X-26250Y-227500D02*
D03*
Y-236250D02*
D03*
Y-245000D02*
D03*
X-17500D02*
D03*
Y-236250D02*
D03*
Y-227500D02*
D03*
X-26250Y-253750D02*
D03*
D52*
X-200061Y316063D02*
X-201734Y314216D01*
X-203219Y312214D01*
X-204501Y310076D01*
X-205567Y307823D01*
X-206406Y305476D01*
X-207012Y303058D01*
X-207378Y300592D01*
X-207500Y298103D01*
X69253Y373645D02*
X66762Y374098D01*
X64268Y374534D01*
X61771Y374954D01*
X59272Y375357D01*
X56770Y375744D01*
X54265Y376114D01*
X51758Y376467D01*
X49248Y376804D01*
X46737Y377123D01*
X44223Y377426D01*
X41708Y377713D01*
X39190Y377982D01*
X36671Y378235D01*
X34150Y378471D01*
X31628Y378690D01*
X29104Y378892D01*
X26579Y379078D01*
X24053Y379246D01*
X21526Y379398D01*
X18997Y379533D01*
X16468Y379651D01*
X13939Y379753D01*
X11408Y379837D01*
X8877Y379905D01*
X6346Y379955D01*
X3814Y379989D01*
X1283Y380006D01*
X-1249Y380006D01*
X-3781Y379989D01*
X-6313Y379956D01*
X-8844Y379905D01*
X-11375Y379838D01*
X-13905Y379754D01*
X-16435Y379653D01*
X-18964Y379535D01*
X-21492Y379400D01*
X-24020Y379248D01*
X-26546Y379080D01*
X-29071Y378895D01*
X-31595Y378693D01*
X-34117Y378474D01*
X-36638Y378238D01*
X-39157Y377985D01*
X-41674Y377716D01*
X-44190Y377430D01*
X-46704Y377127D01*
X-49215Y376808D01*
X-51725Y376471D01*
X-54232Y376119D01*
X-56736Y375749D01*
X-59239Y375363D01*
X-61738Y374959D01*
X-64235Y374540D01*
X-66729Y374104D01*
X-69220Y373651D01*
X-71708Y373181D01*
X-74193Y372695D01*
X-76674Y372193D01*
X-79152Y371674D01*
X-81627Y371138D01*
X-84097Y370586D01*
X-86565Y370017D01*
X-89028Y369432D01*
X-91487Y368831D01*
X-93943Y368213D01*
X-96394Y367579D01*
X-98841Y366929D01*
X-101283Y366262D01*
X-103721Y365579D01*
X-106154Y364880D01*
X-108583Y364165D01*
X-111007Y363433D01*
X-113426Y362686D01*
X-115840Y361922D01*
X-118249Y361142D01*
X-120652Y360346D01*
X-123050Y359534D01*
X-125443Y358707D01*
X-127830Y357863D01*
X-130211Y357003D01*
X-132587Y356128D01*
X-134957Y355236D01*
X-137321Y354329D01*
X-139678Y353407D01*
X-142030Y352468D01*
X-144375Y351514D01*
X-146714Y350544D01*
X-149046Y349559D01*
X-151371Y348558D01*
X-153690Y347542D01*
X-156003Y346510D01*
X-158308Y345463D01*
X-160606Y344401D01*
X-162897Y343323D01*
X-165181Y342230D01*
X-167457Y341122D01*
X-169726Y339999D01*
X-171988Y338861D01*
X-174241Y337707D01*
X-176488Y336539D01*
X-178726Y335355D01*
X-180956Y334157D01*
X-183179Y332944D01*
X80000Y296642D02*
X80087Y294206D01*
X80347Y291783D01*
X80780Y289385D01*
X81383Y287023D01*
X82153Y284711D01*
X83085Y282459D01*
X84176Y280280D01*
X85420Y278183D01*
X86810Y276182D01*
X88339Y274284D01*
X90000Y272500D01*
X80000Y357500D02*
X79812Y360060D01*
X79251Y362565D01*
X78330Y364962D01*
X77067Y367197D01*
X75492Y369224D01*
X73637Y370999D01*
X71542Y372483D01*
X69253Y373645D01*
X-266250Y37500D02*
Y45000D01*
Y30000D02*
Y37500D01*
X-165000Y192500D02*
Y200000D01*
Y185000D02*
Y192500D01*
X-152250Y257500D02*
X-133000D01*
X-270000Y-215000D02*
X-260000D01*
X-280000D02*
X-270000D01*
X-152250Y302500D02*
X-133000D01*
X-266250Y45000D02*
Y51250D01*
X-260000Y57500D01*
X-152500Y257500D02*
X-152250D01*
X-207500Y231250D02*
Y298103D01*
X-200061Y316063D02*
X-183181Y332943D01*
X80000Y296642D02*
Y357500D01*
X-270000Y-215000D02*
X-260000D01*
X-280000D02*
X-270000D01*
X-172500D02*
X-142500D01*
D53*
X443040Y-470000D02*
X462540D01*
X443040Y470000D02*
X462540D01*
X440000Y473040D02*
Y492540D01*
X-440000Y473040D02*
Y492540D01*
D54*
X460000Y-470000D02*
Y-39545D01*
Y31925D02*
Y470000D01*
Y-470000D02*
X465080Y-454760D01*
X454920D02*
X460000Y-470000D01*
X454920Y454760D02*
X460000Y470000D01*
X465080Y454760D01*
X31925Y490000D02*
X440000D01*
X-440000D02*
X-39545D01*
X424760Y495080D02*
X440000Y490000D01*
X424760Y484920D02*
X440000Y490000D01*
X-440000D02*
X-424760Y484920D01*
X-440000Y490000D02*
X-424760Y495080D01*
X459577Y-29446D02*
X461028Y-29930D01*
X461996Y-30898D01*
X462479Y-32349D01*
Y-32832D01*
X461996Y-34283D01*
X461028Y-35251D01*
X459577Y-35735D01*
X459093D01*
X457642Y-35251D01*
X456675Y-34283D01*
X456191Y-32832D01*
Y-32349D01*
X456675Y-30898D01*
X457642Y-29930D01*
X459577Y-29446D01*
X461996D01*
X464414Y-29930D01*
X465865Y-30898D01*
X466349Y-32349D01*
Y-33316D01*
X465865Y-34767D01*
X464898Y-35251D01*
X456191Y-21852D02*
X462963Y-26689D01*
Y-19434D01*
X456191Y-21852D02*
X466349D01*
X465382Y-17160D02*
X465865Y-17644D01*
X466349Y-17160D01*
X465865Y-16677D01*
X465382Y-17160D01*
X456191Y-11549D02*
X456675Y-13000D01*
X458126Y-13968D01*
X460544Y-14452D01*
X461996D01*
X464414Y-13968D01*
X465865Y-13000D01*
X466349Y-11549D01*
Y-10582D01*
X465865Y-9131D01*
X464414Y-8163D01*
X461996Y-7680D01*
X460544D01*
X458126Y-8163D01*
X456675Y-9131D01*
X456191Y-10582D01*
Y-11549D01*
Y-2504D02*
X456675Y-3955D01*
X458126Y-4922D01*
X460544Y-5406D01*
X461996D01*
X464414Y-4922D01*
X465865Y-3955D01*
X466349Y-2504D01*
Y-1537D01*
X465865Y-86D01*
X464414Y882D01*
X461996Y1366D01*
X460544D01*
X458126Y882D01*
X456675Y-86D01*
X456191Y-1537D01*
Y-2504D01*
X459577Y3639D02*
X466349D01*
X461512D02*
X460061Y5090D01*
X459577Y6058D01*
Y7509D01*
X460061Y8476D01*
X461512Y8960D01*
X466349D01*
X461512D02*
X460061Y10411D01*
X459577Y11378D01*
Y12830D01*
X460061Y13797D01*
X461512Y14281D01*
X466349D01*
X459577Y17473D02*
X466349D01*
X461512D02*
X460061Y18924D01*
X459577Y19892D01*
Y21343D01*
X460061Y22310D01*
X461512Y22794D01*
X466349D01*
X461512D02*
X460061Y24245D01*
X459577Y25212D01*
Y26663D01*
X460061Y27631D01*
X461512Y28115D01*
X466349D01*
X-33316Y493809D02*
X-34767Y493325D01*
X-35251Y492358D01*
Y491390D01*
X-34767Y490423D01*
X-33800Y489939D01*
X-31865Y489456D01*
X-30414Y488972D01*
X-29446Y488004D01*
X-28963Y487037D01*
Y485586D01*
X-29446Y484618D01*
X-29930Y484135D01*
X-31381Y483651D01*
X-33316D01*
X-34767Y484135D01*
X-35251Y484618D01*
X-35735Y485586D01*
Y487037D01*
X-35251Y488004D01*
X-34283Y488972D01*
X-32832Y489456D01*
X-30898Y489939D01*
X-29930Y490423D01*
X-29446Y491390D01*
Y492358D01*
X-29930Y493325D01*
X-31381Y493809D01*
X-33316D01*
X-24271D02*
X-25722Y493325D01*
X-26206Y492358D01*
Y491390D01*
X-25722Y490423D01*
X-24755Y489939D01*
X-22820Y489456D01*
X-21369Y488972D01*
X-20401Y488004D01*
X-19917Y487037D01*
Y485586D01*
X-20401Y484618D01*
X-20885Y484135D01*
X-22336Y483651D01*
X-24271D01*
X-25722Y484135D01*
X-26206Y484618D01*
X-26689Y485586D01*
Y487037D01*
X-26206Y488004D01*
X-25238Y488972D01*
X-23787Y489456D01*
X-21852Y489939D01*
X-20885Y490423D01*
X-20401Y491390D01*
Y492358D01*
X-20885Y493325D01*
X-22336Y493809D01*
X-24271D01*
X-17160Y484618D02*
X-17644Y484135D01*
X-17160Y483651D01*
X-16677Y484135D01*
X-17160Y484618D01*
X-11549Y493809D02*
X-13000Y493325D01*
X-13968Y491874D01*
X-14452Y489456D01*
Y488004D01*
X-13968Y485586D01*
X-13000Y484135D01*
X-11549Y483651D01*
X-10582D01*
X-9131Y484135D01*
X-8163Y485586D01*
X-7680Y488004D01*
Y489456D01*
X-8163Y491874D01*
X-9131Y493325D01*
X-10582Y493809D01*
X-11549D01*
X-2504D02*
X-3955Y493325D01*
X-4922Y491874D01*
X-5406Y489456D01*
Y488004D01*
X-4922Y485586D01*
X-3955Y484135D01*
X-2504Y483651D01*
X-1537D01*
X-86Y484135D01*
X882Y485586D01*
X1366Y488004D01*
Y489456D01*
X882Y491874D01*
X-86Y493325D01*
X-1537Y493809D01*
X-2504D01*
X3639Y490423D02*
Y483651D01*
Y488488D02*
X5090Y489939D01*
X6058Y490423D01*
X7509D01*
X8476Y489939D01*
X8960Y488488D01*
Y483651D01*
Y488488D02*
X10411Y489939D01*
X11378Y490423D01*
X12830D01*
X13797Y489939D01*
X14281Y488488D01*
Y483651D01*
X17473Y490423D02*
Y483651D01*
Y488488D02*
X18924Y489939D01*
X19892Y490423D01*
X21343D01*
X22310Y489939D01*
X22794Y488488D01*
Y483651D01*
Y488488D02*
X24245Y489939D01*
X25212Y490423D01*
X26663D01*
X27631Y489939D01*
X28115Y488488D01*
Y483651D01*
D55*
X-1320000Y-1010000D02*
Y1030000D01*
X1590000D01*
Y-1010000D02*
Y1030000D01*
X-1320000Y-1010000D02*
X1590000D01*
X-1350000Y-1040000D02*
X1620000D01*
X-1350000Y1060000D02*
X1620000D01*
X-1350000Y-1040000D02*
Y1060000D01*
Y530000D02*
X-1320000D01*
X-1350000Y530000D02*
X-1320000D01*
X-1350000Y790000D02*
X-1320000D01*
X-1350000D02*
X-1320000D01*
X5000Y-1040000D02*
Y-1010000D01*
X5000Y-1040000D02*
Y-1010000D01*
X-775000Y1030000D02*
Y1060000D01*
X-515000Y1030000D02*
Y1060000D01*
X-775000Y1030000D02*
Y1060000D01*
X-1035000Y1030000D02*
Y1060000D01*
X-1035000Y1030000D02*
Y1060000D01*
X5000Y1030000D02*
Y1060000D01*
X5000Y1030000D02*
Y1060000D01*
X-255000Y1030000D02*
Y1060000D01*
Y1030000D02*
Y1060000D01*
X-515000Y1030000D02*
Y1060000D01*
X1620000Y-1040000D02*
Y1060000D01*
X1590000Y790000D02*
X1620000D01*
X1590000D02*
X1620000D01*
X1590000Y530000D02*
X1620000D01*
X1590000Y530000D02*
X1620000D01*
X1590000Y270000D02*
X1620000D01*
X1590000D02*
X1620000D01*
X1590000Y10000D02*
X1620000D01*
X1590000D02*
X1620000D01*
X1590000Y-250000D02*
X1620000D01*
X1590000D02*
X1620000D01*
X1590000Y-510000D02*
X1620000D01*
X1590000Y-510000D02*
X1620000D01*
X1590000Y-770000D02*
X1620000D01*
X1590000D02*
X1620000D01*
X265000Y-1040000D02*
Y-1010000D01*
Y-1040000D02*
Y-1010000D01*
X525000Y-1040000D02*
Y-1010000D01*
Y-1040000D02*
Y-1010000D01*
X785000Y-1040000D02*
Y-1010000D01*
Y-1040000D02*
Y-1010000D01*
X1045000Y-1040000D02*
Y-1010000D01*
X1045000Y-1040000D02*
Y-1010000D01*
X1305000Y-1040000D02*
Y-1010000D01*
Y-1040000D02*
Y-1010000D01*
Y1030000D02*
Y1060000D01*
Y1030000D02*
Y1060000D01*
X1045000Y1030000D02*
Y1060000D01*
X1045000Y1030000D02*
Y1060000D01*
X785000Y1030000D02*
Y1060000D01*
Y1030000D02*
Y1060000D01*
X525000Y1030000D02*
Y1060000D01*
Y1030000D02*
Y1060000D01*
X265000Y1030000D02*
Y1060000D01*
Y1030000D02*
Y1060000D01*
X1240000Y-900000D02*
X1580000D01*
X1240000Y-920000D02*
X1580000D01*
X1240000Y-940000D02*
X1580000D01*
X1240000Y-960000D02*
X1580000D01*
X1240000Y-980000D02*
X1580000D01*
X1240000Y-1000000D02*
X1580000D01*
X1390000Y-980000D02*
Y-880000D01*
X1580000Y-1000000D02*
Y-880000D01*
X1240000D02*
X1580000D01*
X1240000Y-1000000D02*
Y-880000D01*
X-1350000Y-770000D02*
X-1320000D01*
X-1350000D02*
X-1320000D01*
X-1350000Y-510000D02*
X-1320000D01*
X-1350000Y-510000D02*
X-1320000D01*
X-1350000Y-250000D02*
X-1320000D01*
X-1350000D02*
X-1320000D01*
X-1350000Y10000D02*
X-1320000D01*
X-1350000D02*
X-1320000D01*
X-1350000Y270000D02*
X-1320000D01*
X-1350000D02*
X-1320000D01*
X-515000Y-1040000D02*
Y-1010000D01*
X-255000Y-1040000D02*
Y-1010000D01*
Y-1040000D02*
Y-1010000D01*
X-1035000Y-1040000D02*
Y-1010000D01*
X-1035000Y-1040000D02*
Y-1010000D01*
X-775000Y-1040000D02*
Y-1010000D01*
X-515000Y-1040000D02*
Y-1010000D01*
X-775000Y-1040000D02*
Y-1010000D01*
X895000Y-900000D02*
X1235000D01*
X895000Y-920000D02*
X1235000D01*
X895000Y-940000D02*
X1235000D01*
X895000Y-960000D02*
X1235000D01*
X895000Y-980000D02*
X1235000D01*
X895000Y-1000000D02*
X1235000D01*
X1045000D02*
Y-880000D01*
X1235000Y-1000000D02*
Y-880000D01*
X895000D02*
X1235000D01*
X895000Y-1000000D02*
Y-880000D01*
X1257141Y-987383D02*
X1256665Y-986430D01*
X1255713Y-985478D01*
X1254761Y-985002D01*
X1252857D01*
X1251904Y-985478D01*
X1250952Y-986430D01*
X1250476Y-987383D01*
X1250000Y-988811D01*
Y-991191D01*
X1250476Y-992619D01*
X1250952Y-993572D01*
X1251904Y-994524D01*
X1252857Y-995000D01*
X1254761D01*
X1255713Y-994524D01*
X1256665Y-993572D01*
X1257141Y-992619D01*
X1268520Y-988811D02*
X1268044Y-989287D01*
X1268520Y-989763D01*
X1268996Y-989287D01*
Y-988811D01*
X1268520Y-988335D01*
X1268044D01*
X1267568Y-988811D01*
X1267092Y-989763D01*
X1266139Y-992143D01*
X1265187Y-993572D01*
X1264235Y-994524D01*
X1263283Y-995000D01*
X1261855D01*
X1260426Y-994524D01*
X1259950Y-993572D01*
Y-992143D01*
X1260426Y-991191D01*
X1263283Y-989287D01*
X1264235Y-988335D01*
X1264711Y-987383D01*
Y-986430D01*
X1264235Y-985478D01*
X1263283Y-985002D01*
X1262331Y-985478D01*
X1261855Y-986430D01*
Y-987383D01*
X1262331Y-988811D01*
X1263283Y-990239D01*
X1265663Y-993572D01*
X1266616Y-994524D01*
X1268044Y-995000D01*
X1268520D01*
X1268996Y-994524D01*
Y-994048D01*
X1261855Y-995000D02*
X1260902Y-994524D01*
X1260426Y-993572D01*
Y-992143D01*
X1260902Y-991191D01*
X1261855Y-990239D01*
Y-987383D02*
X1262331Y-988335D01*
X1266139Y-993572D01*
X1267092Y-994524D01*
X1268044Y-995000D01*
X1271472Y-985002D02*
Y-995000D01*
X1278137Y-985002D02*
X1271472Y-991667D01*
X1273852Y-989287D02*
X1278137Y-995000D01*
X1400476Y-967383D02*
Y-966907D01*
X1400952Y-965954D01*
X1401428Y-965478D01*
X1402380Y-965002D01*
X1404285D01*
X1405237Y-965478D01*
X1405713Y-965954D01*
X1406189Y-966907D01*
Y-967859D01*
X1405713Y-968811D01*
X1404761Y-970239D01*
X1400000Y-975000D01*
X1406665D01*
X1411759Y-965002D02*
X1410331Y-965478D01*
X1409379Y-966907D01*
X1408903Y-969287D01*
Y-970715D01*
X1409379Y-973096D01*
X1410331Y-974524D01*
X1411759Y-975000D01*
X1412712D01*
X1414140Y-974524D01*
X1415092Y-973096D01*
X1415568Y-970715D01*
Y-969287D01*
X1415092Y-966907D01*
X1414140Y-965478D01*
X1412712Y-965002D01*
X1411759D01*
X1418282Y-967383D02*
Y-966907D01*
X1418758Y-965954D01*
X1419234Y-965478D01*
X1420186Y-965002D01*
X1422090D01*
X1423043Y-965478D01*
X1423519Y-965954D01*
X1423995Y-966907D01*
Y-967859D01*
X1423519Y-968811D01*
X1422567Y-970239D01*
X1417806Y-975000D01*
X1424471D01*
X1426709Y-966907D02*
X1427661Y-966430D01*
X1429089Y-965002D01*
Y-975000D01*
X1434516Y-974048D02*
X1434040Y-974524D01*
X1434516Y-975000D01*
X1434993Y-974524D01*
X1434516Y-974048D01*
X1440039Y-965002D02*
X1438611Y-965478D01*
X1437659Y-966907D01*
X1437182Y-969287D01*
Y-970715D01*
X1437659Y-973096D01*
X1438611Y-974524D01*
X1440039Y-975000D01*
X1440991D01*
X1442419Y-974524D01*
X1443372Y-973096D01*
X1443848Y-970715D01*
Y-969287D01*
X1443372Y-966907D01*
X1442419Y-965478D01*
X1440991Y-965002D01*
X1440039D01*
X1450846D02*
X1446085Y-971667D01*
X1453227D01*
X1450846Y-965002D02*
Y-975000D01*
X1455464Y-974048D02*
X1454988Y-974524D01*
X1455464Y-975000D01*
X1455940Y-974524D01*
X1455464Y-974048D01*
X1460987Y-965002D02*
X1459559Y-965478D01*
X1458607Y-966907D01*
X1458130Y-969287D01*
Y-970715D01*
X1458607Y-973096D01*
X1459559Y-974524D01*
X1460987Y-975000D01*
X1461939D01*
X1463367Y-974524D01*
X1464319Y-973096D01*
X1464796Y-970715D01*
Y-969287D01*
X1464319Y-966907D01*
X1463367Y-965478D01*
X1461939Y-965002D01*
X1460987D01*
X1467509Y-967383D02*
Y-966907D01*
X1467985Y-965954D01*
X1468461Y-965478D01*
X1469414Y-965002D01*
X1471318D01*
X1472270Y-965478D01*
X1472746Y-965954D01*
X1473222Y-966907D01*
Y-967859D01*
X1472746Y-968811D01*
X1471794Y-970239D01*
X1467033Y-975000D01*
X1473698D01*
X1476412Y-974048D02*
X1475936Y-974524D01*
X1476412Y-975000D01*
X1476888Y-974524D01*
X1476412Y-974048D01*
X1400000Y-945002D02*
Y-955000D01*
X1406665Y-945002D02*
X1400000Y-951667D01*
X1402380Y-949287D02*
X1406665Y-955000D01*
X1408903Y-945002D02*
Y-955000D01*
X1415568Y-945002D02*
Y-955000D01*
X1408903Y-949763D02*
X1415568D01*
X1418329Y-945002D02*
Y-955000D01*
X1424995Y-945002D02*
Y-955000D01*
X1418329Y-949763D02*
X1424995D01*
X1402856Y-925002D02*
X1401428Y-925478D01*
X1400476Y-926907D01*
X1400000Y-929287D01*
Y-930715D01*
X1400476Y-933096D01*
X1401428Y-934524D01*
X1402856Y-935000D01*
X1403809D01*
X1405237Y-934524D01*
X1406189Y-933096D01*
X1406665Y-930715D01*
Y-929287D01*
X1406189Y-926907D01*
X1405237Y-925478D01*
X1403809Y-925002D01*
X1402856D01*
X1409379Y-934048D02*
X1408903Y-934524D01*
X1409379Y-935000D01*
X1409855Y-934524D01*
X1409379Y-934048D01*
X1412521Y-927383D02*
Y-926907D01*
X1412997Y-925954D01*
X1413473Y-925478D01*
X1414426Y-925002D01*
X1416330D01*
X1417282Y-925478D01*
X1417758Y-925954D01*
X1418234Y-926907D01*
Y-927859D01*
X1417758Y-928811D01*
X1416806Y-930239D01*
X1412045Y-935000D01*
X1418710D01*
X1425709Y-925002D02*
X1420948Y-931667D01*
X1428089D01*
X1425709Y-925002D02*
Y-935000D01*
X1407617Y-915000D02*
X1403809Y-905002D01*
X1400000Y-915000D01*
X1401428Y-911667D02*
X1406189D01*
X1409950Y-905002D02*
Y-915000D01*
Y-905002D02*
X1414235D01*
X1415663Y-905478D01*
X1416139Y-905954D01*
X1416615Y-906907D01*
Y-907859D01*
X1416139Y-908811D01*
X1415663Y-909287D01*
X1414235Y-909763D01*
X1409950D01*
X1413283D02*
X1416615Y-915000D01*
X1425042Y-905002D02*
X1418853D01*
Y-915000D01*
X1425042D01*
X1418853Y-909763D02*
X1422662D01*
X1433374Y-906430D02*
X1432422Y-905478D01*
X1430993Y-905002D01*
X1429089D01*
X1427661Y-905478D01*
X1426709Y-906430D01*
Y-907383D01*
X1427185Y-908335D01*
X1427661Y-908811D01*
X1428613Y-909287D01*
X1431470Y-910239D01*
X1432422Y-910715D01*
X1432898Y-911191D01*
X1433374Y-912143D01*
Y-913572D01*
X1432422Y-914524D01*
X1430993Y-915000D01*
X1429089D01*
X1427661Y-914524D01*
X1426709Y-913572D01*
X1435611Y-918333D02*
X1443229D01*
X1444514Y-905002D02*
Y-915000D01*
Y-905002D02*
X1448799D01*
X1450227Y-905478D01*
X1450703Y-905954D01*
X1451180Y-906907D01*
Y-907859D01*
X1450703Y-908811D01*
X1450227Y-909287D01*
X1448799Y-909763D01*
X1444514D01*
X1447847D02*
X1451180Y-915000D01*
X1456274Y-905002D02*
X1454845Y-905478D01*
X1453893Y-906907D01*
X1453417Y-909287D01*
Y-910715D01*
X1453893Y-913096D01*
X1454845Y-914524D01*
X1456274Y-915000D01*
X1457226D01*
X1458654Y-914524D01*
X1459606Y-913096D01*
X1460082Y-910715D01*
Y-909287D01*
X1459606Y-906907D01*
X1458654Y-905478D01*
X1457226Y-905002D01*
X1456274D01*
X1468033Y-906430D02*
X1467557Y-905478D01*
X1466129Y-905002D01*
X1465177D01*
X1463748Y-905478D01*
X1462796Y-906907D01*
X1462320Y-909287D01*
Y-911667D01*
X1462796Y-913572D01*
X1463748Y-914524D01*
X1465177Y-915000D01*
X1465653D01*
X1467081Y-914524D01*
X1468033Y-913572D01*
X1468509Y-912143D01*
Y-911667D01*
X1468033Y-910239D01*
X1467081Y-909287D01*
X1465653Y-908811D01*
X1465177D01*
X1463748Y-909287D01*
X1462796Y-910239D01*
X1462320Y-911667D01*
X1470699Y-918333D02*
X1478316D01*
X1479602Y-910239D02*
X1483887D01*
X1485315Y-909763D01*
X1485791Y-909287D01*
X1486267Y-908335D01*
Y-906907D01*
X1485791Y-905954D01*
X1485315Y-905478D01*
X1483887Y-905002D01*
X1479602D01*
Y-915000D01*
X1490885Y-908335D02*
X1489933Y-908811D01*
X1488981Y-909763D01*
X1488505Y-911191D01*
Y-912143D01*
X1488981Y-913572D01*
X1489933Y-914524D01*
X1490885Y-915000D01*
X1492314D01*
X1493266Y-914524D01*
X1494218Y-913572D01*
X1494694Y-912143D01*
Y-911191D01*
X1494218Y-909763D01*
X1493266Y-908811D01*
X1492314Y-908335D01*
X1490885D01*
X1496884D02*
X1498788Y-915000D01*
X1500693Y-908335D02*
X1498788Y-915000D01*
X1500693Y-908335D02*
X1502597Y-915000D01*
X1504501Y-908335D02*
X1502597Y-915000D01*
X1506834Y-911191D02*
X1512547D01*
Y-910239D01*
X1512071Y-909287D01*
X1511595Y-908811D01*
X1510643Y-908335D01*
X1509215D01*
X1508262Y-908811D01*
X1507310Y-909763D01*
X1506834Y-911191D01*
Y-912143D01*
X1507310Y-913572D01*
X1508262Y-914524D01*
X1509215Y-915000D01*
X1510643D01*
X1511595Y-914524D01*
X1512547Y-913572D01*
X1514690Y-908335D02*
Y-915000D01*
Y-911191D02*
X1515166Y-909763D01*
X1516118Y-908811D01*
X1517070Y-908335D01*
X1518498D01*
X1400000Y-885002D02*
Y-895000D01*
X1406665Y-885002D02*
Y-895000D01*
X1400000Y-889763D02*
X1406665D01*
X1410379Y-885002D02*
X1410855Y-885478D01*
X1411331Y-885002D01*
X1410855Y-884526D01*
X1410379Y-885002D01*
X1410855Y-888335D02*
Y-895000D01*
X1418806Y-888335D02*
Y-895952D01*
X1418329Y-897380D01*
X1417853Y-897857D01*
X1416901Y-898333D01*
X1415473D01*
X1414521Y-897857D01*
X1418806Y-889763D02*
X1417853Y-888811D01*
X1416901Y-888335D01*
X1415473D01*
X1414521Y-888811D01*
X1413569Y-889763D01*
X1413092Y-891191D01*
Y-892143D01*
X1413569Y-893572D01*
X1414521Y-894524D01*
X1415473Y-895000D01*
X1416901D01*
X1417853Y-894524D01*
X1418806Y-893572D01*
X1421472Y-891191D02*
X1427185D01*
Y-890239D01*
X1426709Y-889287D01*
X1426232Y-888811D01*
X1425280Y-888335D01*
X1423852D01*
X1422900Y-888811D01*
X1421948Y-889763D01*
X1421472Y-891191D01*
Y-892143D01*
X1421948Y-893572D01*
X1422900Y-894524D01*
X1423852Y-895000D01*
X1425280D01*
X1426232Y-894524D01*
X1427185Y-893572D01*
X1429327Y-888335D02*
Y-895000D01*
Y-890239D02*
X1430755Y-888811D01*
X1431707Y-888335D01*
X1433136D01*
X1434088Y-888811D01*
X1434564Y-890239D01*
Y-895000D01*
X1250000Y-965002D02*
Y-975000D01*
X1255713D01*
X1262521Y-968335D02*
Y-975000D01*
Y-969763D02*
X1261569Y-968811D01*
X1260617Y-968335D01*
X1259189D01*
X1258236Y-968811D01*
X1257284Y-969763D01*
X1256808Y-971191D01*
Y-972143D01*
X1257284Y-973572D01*
X1258236Y-974524D01*
X1259189Y-975000D01*
X1260617D01*
X1261569Y-974524D01*
X1262521Y-973572D01*
X1270424Y-969763D02*
X1269948Y-968811D01*
X1268520Y-968335D01*
X1267092D01*
X1265663Y-968811D01*
X1265187Y-969763D01*
X1265663Y-970715D01*
X1266616Y-971191D01*
X1268996Y-971667D01*
X1269948Y-972143D01*
X1270424Y-973096D01*
Y-973572D01*
X1269948Y-974524D01*
X1268520Y-975000D01*
X1267092D01*
X1265663Y-974524D01*
X1265187Y-973572D01*
X1273947Y-965002D02*
Y-973096D01*
X1274423Y-974524D01*
X1275376Y-975000D01*
X1276328D01*
X1272519Y-968335D02*
X1275852D01*
X1285611Y-965002D02*
Y-975000D01*
Y-965002D02*
X1288944D01*
X1290372Y-965478D01*
X1291324Y-966430D01*
X1291801Y-967383D01*
X1292277Y-968811D01*
Y-971191D01*
X1291801Y-972619D01*
X1291324Y-973572D01*
X1290372Y-974524D01*
X1288944Y-975000D01*
X1285611D01*
X1300227Y-968335D02*
Y-975000D01*
Y-969763D02*
X1299275Y-968811D01*
X1298323Y-968335D01*
X1296895D01*
X1295943Y-968811D01*
X1294990Y-969763D01*
X1294514Y-971191D01*
Y-972143D01*
X1294990Y-973572D01*
X1295943Y-974524D01*
X1296895Y-975000D01*
X1298323D01*
X1299275Y-974524D01*
X1300227Y-973572D01*
X1304322Y-965002D02*
Y-973096D01*
X1304798Y-974524D01*
X1305750Y-975000D01*
X1306702D01*
X1302893Y-968335D02*
X1306226D01*
X1313843D02*
Y-975000D01*
Y-969763D02*
X1312891Y-968811D01*
X1311939Y-968335D01*
X1310511D01*
X1309559Y-968811D01*
X1308607Y-969763D01*
X1308130Y-971191D01*
Y-972143D01*
X1308607Y-973572D01*
X1309559Y-974524D01*
X1310511Y-975000D01*
X1311939D01*
X1312891Y-974524D01*
X1313843Y-973572D01*
X1250000Y-945002D02*
Y-955000D01*
Y-945002D02*
X1253333D01*
X1254761Y-945478D01*
X1255713Y-946430D01*
X1256189Y-947383D01*
X1256665Y-948811D01*
Y-951191D01*
X1256189Y-952619D01*
X1255713Y-953572D01*
X1254761Y-954524D01*
X1253333Y-955000D01*
X1250000D01*
X1258903Y-951191D02*
X1264616D01*
Y-950239D01*
X1264140Y-949287D01*
X1263664Y-948811D01*
X1262711Y-948335D01*
X1261283D01*
X1260331Y-948811D01*
X1259379Y-949763D01*
X1258903Y-951191D01*
Y-952143D01*
X1259379Y-953572D01*
X1260331Y-954524D01*
X1261283Y-955000D01*
X1262711D01*
X1263664Y-954524D01*
X1264616Y-953572D01*
X1271995Y-949763D02*
X1271519Y-948811D01*
X1270091Y-948335D01*
X1268663D01*
X1267234Y-948811D01*
X1266758Y-949763D01*
X1267234Y-950715D01*
X1268187Y-951191D01*
X1270567Y-951667D01*
X1271519Y-952143D01*
X1271995Y-953096D01*
Y-953572D01*
X1271519Y-954524D01*
X1270091Y-955000D01*
X1268663D01*
X1267234Y-954524D01*
X1266758Y-953572D01*
X1275042Y-945002D02*
X1275518Y-945478D01*
X1275994Y-945002D01*
X1275518Y-944526D01*
X1275042Y-945002D01*
X1275518Y-948335D02*
Y-955000D01*
X1283469Y-948335D02*
Y-955952D01*
X1282993Y-957380D01*
X1282517Y-957857D01*
X1281565Y-958333D01*
X1280136D01*
X1279184Y-957857D01*
X1283469Y-949763D02*
X1282517Y-948811D01*
X1281565Y-948335D01*
X1280136D01*
X1279184Y-948811D01*
X1278232Y-949763D01*
X1277756Y-951191D01*
Y-952143D01*
X1278232Y-953572D01*
X1279184Y-954524D01*
X1280136Y-955000D01*
X1281565D01*
X1282517Y-954524D01*
X1283469Y-953572D01*
X1286135Y-948335D02*
Y-955000D01*
Y-950239D02*
X1287563Y-948811D01*
X1288515Y-948335D01*
X1289944D01*
X1290896Y-948811D01*
X1291372Y-950239D01*
Y-955000D01*
X1293991Y-951191D02*
X1299704D01*
Y-950239D01*
X1299227Y-949287D01*
X1298752Y-948811D01*
X1297799Y-948335D01*
X1296371D01*
X1295419Y-948811D01*
X1294467Y-949763D01*
X1293991Y-951191D01*
Y-952143D01*
X1294467Y-953572D01*
X1295419Y-954524D01*
X1296371Y-955000D01*
X1297799D01*
X1298752Y-954524D01*
X1299704Y-953572D01*
X1301846Y-948335D02*
Y-955000D01*
Y-951191D02*
X1302322Y-949763D01*
X1303274Y-948811D01*
X1304226Y-948335D01*
X1305655D01*
X1250000Y-925002D02*
Y-935000D01*
Y-925002D02*
X1254285D01*
X1255713Y-925478D01*
X1256189Y-925954D01*
X1256665Y-926907D01*
Y-927859D01*
X1256189Y-928811D01*
X1255713Y-929287D01*
X1254285Y-929763D01*
X1250000D01*
X1253333D02*
X1256665Y-935000D01*
X1258903Y-931191D02*
X1264616D01*
Y-930239D01*
X1264140Y-929287D01*
X1263664Y-928811D01*
X1262711Y-928335D01*
X1261283D01*
X1260331Y-928811D01*
X1259379Y-929763D01*
X1258903Y-931191D01*
Y-932143D01*
X1259379Y-933572D01*
X1260331Y-934524D01*
X1261283Y-935000D01*
X1262711D01*
X1263664Y-934524D01*
X1264616Y-933572D01*
X1266758Y-928335D02*
X1269615Y-935000D01*
X1272471Y-928335D02*
X1269615Y-935000D01*
X1250000Y-905002D02*
Y-915000D01*
Y-905002D02*
X1253333D01*
X1254761Y-905478D01*
X1255713Y-906430D01*
X1256189Y-907383D01*
X1256665Y-908811D01*
Y-911191D01*
X1256189Y-912619D01*
X1255713Y-913572D01*
X1254761Y-914524D01*
X1253333Y-915000D01*
X1250000D01*
X1258903Y-911191D02*
X1264616D01*
Y-910239D01*
X1264140Y-909287D01*
X1263664Y-908811D01*
X1262711Y-908335D01*
X1261283D01*
X1260331Y-908811D01*
X1259379Y-909763D01*
X1258903Y-911191D01*
Y-912143D01*
X1259379Y-913572D01*
X1260331Y-914524D01*
X1261283Y-915000D01*
X1262711D01*
X1263664Y-914524D01*
X1264616Y-913572D01*
X1271995Y-909763D02*
X1271519Y-908811D01*
X1270091Y-908335D01*
X1268663D01*
X1267234Y-908811D01*
X1266758Y-909763D01*
X1267234Y-910715D01*
X1268187Y-911191D01*
X1270567Y-911667D01*
X1271519Y-912143D01*
X1271995Y-913096D01*
Y-913572D01*
X1271519Y-914524D01*
X1270091Y-915000D01*
X1268663D01*
X1267234Y-914524D01*
X1266758Y-913572D01*
X1275042Y-905002D02*
X1275518Y-905478D01*
X1275994Y-905002D01*
X1275518Y-904526D01*
X1275042Y-905002D01*
X1275518Y-908335D02*
Y-915000D01*
X1283469Y-908335D02*
Y-915952D01*
X1282993Y-917380D01*
X1282517Y-917857D01*
X1281565Y-918333D01*
X1280136D01*
X1279184Y-917857D01*
X1283469Y-909763D02*
X1282517Y-908811D01*
X1281565Y-908335D01*
X1280136D01*
X1279184Y-908811D01*
X1278232Y-909763D01*
X1277756Y-911191D01*
Y-912143D01*
X1278232Y-913572D01*
X1279184Y-914524D01*
X1280136Y-915000D01*
X1281565D01*
X1282517Y-914524D01*
X1283469Y-913572D01*
X1286135Y-908335D02*
Y-915000D01*
Y-910239D02*
X1287563Y-908811D01*
X1288515Y-908335D01*
X1289944D01*
X1290896Y-908811D01*
X1291372Y-910239D01*
Y-915000D01*
X1301846Y-905002D02*
Y-915000D01*
Y-905002D02*
X1308511Y-915000D01*
Y-905002D02*
Y-915000D01*
X1316986Y-908335D02*
Y-915000D01*
Y-909763D02*
X1316033Y-908811D01*
X1315081Y-908335D01*
X1313653D01*
X1312701Y-908811D01*
X1311749Y-909763D01*
X1311273Y-911191D01*
Y-912143D01*
X1311749Y-913572D01*
X1312701Y-914524D01*
X1313653Y-915000D01*
X1315081D01*
X1316033Y-914524D01*
X1316986Y-913572D01*
X1319652Y-908335D02*
Y-915000D01*
Y-910239D02*
X1321080Y-908811D01*
X1322032Y-908335D01*
X1323460D01*
X1324413Y-908811D01*
X1324889Y-910239D01*
Y-915000D01*
Y-910239D02*
X1326317Y-908811D01*
X1327269Y-908335D01*
X1328697D01*
X1329650Y-908811D01*
X1330126Y-910239D01*
Y-915000D01*
X1333268Y-911191D02*
X1338981D01*
Y-910239D01*
X1338505Y-909287D01*
X1338029Y-908811D01*
X1337077Y-908335D01*
X1335648D01*
X1334696Y-908811D01*
X1333744Y-909763D01*
X1333268Y-911191D01*
Y-912143D01*
X1333744Y-913572D01*
X1334696Y-914524D01*
X1335648Y-915000D01*
X1337077D01*
X1338029Y-914524D01*
X1338981Y-913572D01*
X1257141Y-887383D02*
X1256665Y-886430D01*
X1255713Y-885478D01*
X1254761Y-885002D01*
X1252857D01*
X1251904Y-885478D01*
X1250952Y-886430D01*
X1250476Y-887383D01*
X1250000Y-888811D01*
Y-891191D01*
X1250476Y-892620D01*
X1250952Y-893572D01*
X1251904Y-894524D01*
X1252857Y-895000D01*
X1254761D01*
X1255713Y-894524D01*
X1256665Y-893572D01*
X1257141Y-892620D01*
X1259950Y-888335D02*
Y-893096D01*
X1260426Y-894524D01*
X1261378Y-895000D01*
X1262807D01*
X1263759Y-894524D01*
X1265187Y-893096D01*
Y-888335D02*
Y-895000D01*
X1273043Y-889763D02*
X1272567Y-888811D01*
X1271138Y-888335D01*
X1269710D01*
X1268282Y-888811D01*
X1267806Y-889763D01*
X1268282Y-890715D01*
X1269234Y-891191D01*
X1271614Y-891667D01*
X1272567Y-892143D01*
X1273043Y-893096D01*
Y-893572D01*
X1272567Y-894524D01*
X1271138Y-895000D01*
X1269710D01*
X1268282Y-894524D01*
X1267806Y-893572D01*
X1276566Y-885002D02*
Y-893096D01*
X1277042Y-894524D01*
X1277994Y-895000D01*
X1278946D01*
X1275137Y-888335D02*
X1278470D01*
X1282755D02*
X1281803Y-888811D01*
X1280851Y-889763D01*
X1280374Y-891191D01*
Y-892143D01*
X1280851Y-893572D01*
X1281803Y-894524D01*
X1282755Y-895000D01*
X1284183D01*
X1285135Y-894524D01*
X1286087Y-893572D01*
X1286564Y-892143D01*
Y-891191D01*
X1286087Y-889763D01*
X1285135Y-888811D01*
X1284183Y-888335D01*
X1282755D01*
X1288754D02*
Y-895000D01*
Y-890239D02*
X1290182Y-888811D01*
X1291134Y-888335D01*
X1292562D01*
X1293515Y-888811D01*
X1293991Y-890239D01*
Y-895000D01*
Y-890239D02*
X1295419Y-888811D01*
X1296371Y-888335D01*
X1297799D01*
X1298752Y-888811D01*
X1299227Y-890239D01*
Y-895000D01*
X1302370Y-891191D02*
X1308083D01*
Y-890239D01*
X1307607Y-889287D01*
X1307131Y-888811D01*
X1306178Y-888335D01*
X1304750D01*
X1303798Y-888811D01*
X1302846Y-889763D01*
X1302370Y-891191D01*
Y-892143D01*
X1302846Y-893572D01*
X1303798Y-894524D01*
X1304750Y-895000D01*
X1306178D01*
X1307131Y-894524D01*
X1308083Y-893572D01*
X1310225Y-888335D02*
Y-895000D01*
Y-891191D02*
X1310701Y-889763D01*
X1311653Y-888811D01*
X1312606Y-888335D01*
X1314034D01*
X1055000Y-985002D02*
X1057380Y-995000D01*
X1059761Y-985002D02*
X1057380Y-995000D01*
X1059761Y-985002D02*
X1062141Y-995000D01*
X1064522Y-985002D02*
X1062141Y-995000D01*
X1066521Y-985002D02*
Y-995000D01*
Y-990239D02*
X1067950Y-988811D01*
X1068902Y-988335D01*
X1070330D01*
X1071282Y-988811D01*
X1071758Y-990239D01*
Y-995000D01*
X1075329Y-985002D02*
X1075805Y-985478D01*
X1076281Y-985002D01*
X1075805Y-984526D01*
X1075329Y-985002D01*
X1075805Y-988335D02*
Y-995000D01*
X1079471Y-985002D02*
Y-993096D01*
X1079947Y-994524D01*
X1080899Y-995000D01*
X1081851D01*
X1078043Y-988335D02*
X1081375D01*
X1083280Y-991191D02*
X1088993D01*
Y-990239D01*
X1088517Y-989287D01*
X1088040Y-988811D01*
X1087088Y-988335D01*
X1085660D01*
X1084708Y-988811D01*
X1083756Y-989763D01*
X1083280Y-991191D01*
Y-992143D01*
X1083756Y-993572D01*
X1084708Y-994524D01*
X1085660Y-995000D01*
X1087088D01*
X1088040Y-994524D01*
X1088993Y-993572D01*
X1055000Y-965002D02*
Y-975000D01*
Y-965002D02*
X1059285D01*
X1060713Y-965478D01*
X1061189Y-965954D01*
X1061665Y-966907D01*
Y-967859D01*
X1061189Y-968811D01*
X1060713Y-969287D01*
X1059285Y-969763D01*
X1055000D02*
X1059285D01*
X1060713Y-970239D01*
X1061189Y-970715D01*
X1061665Y-971667D01*
Y-973096D01*
X1061189Y-974048D01*
X1060713Y-974524D01*
X1059285Y-975000D01*
X1055000D01*
X1063903Y-965002D02*
Y-975000D01*
X1069616D01*
X1070711Y-965002D02*
Y-972143D01*
X1071187Y-973572D01*
X1072139Y-974524D01*
X1073567Y-975000D01*
X1074520D01*
X1075948Y-974524D01*
X1076900Y-973572D01*
X1077376Y-972143D01*
Y-965002D01*
X1086327D02*
X1080137D01*
Y-975000D01*
X1086327D01*
X1080137Y-969763D02*
X1083946D01*
X1057857Y-945002D02*
X1056904Y-945478D01*
X1055952Y-946430D01*
X1055476Y-947383D01*
X1055000Y-948811D01*
Y-951191D01*
X1055476Y-952620D01*
X1055952Y-953572D01*
X1056904Y-954524D01*
X1057857Y-955000D01*
X1059761D01*
X1060713Y-954524D01*
X1061665Y-953572D01*
X1062141Y-952620D01*
X1062617Y-951191D01*
Y-948811D01*
X1062141Y-947383D01*
X1061665Y-946430D01*
X1060713Y-945478D01*
X1059761Y-945002D01*
X1057857D01*
X1071616Y-946430D02*
X1070663Y-945478D01*
X1069235Y-945002D01*
X1067331D01*
X1065902Y-945478D01*
X1064950Y-946430D01*
Y-947383D01*
X1065426Y-948335D01*
X1065902Y-948811D01*
X1066855Y-949287D01*
X1069711Y-950239D01*
X1070663Y-950715D01*
X1071139Y-951191D01*
X1071616Y-952143D01*
Y-953572D01*
X1070663Y-954524D01*
X1069235Y-955000D01*
X1067331D01*
X1065902Y-954524D01*
X1064950Y-953572D01*
X1073853Y-950239D02*
X1078138D01*
X1079566Y-949763D01*
X1080042Y-949287D01*
X1080518Y-948335D01*
Y-946907D01*
X1080042Y-945954D01*
X1079566Y-945478D01*
X1078138Y-945002D01*
X1073853D01*
Y-955000D01*
X1055000Y-925002D02*
Y-935000D01*
Y-925002D02*
X1061189D01*
X1055000Y-929763D02*
X1058809D01*
X1062332Y-925002D02*
Y-935000D01*
Y-925002D02*
X1066617D01*
X1068045Y-925478D01*
X1068521Y-925954D01*
X1068997Y-926907D01*
Y-927859D01*
X1068521Y-928811D01*
X1068045Y-929287D01*
X1066617Y-929763D01*
X1062332D01*
X1065664D02*
X1068997Y-935000D01*
X1071235Y-930715D02*
X1079804D01*
X1087517Y-925002D02*
X1082756Y-931667D01*
X1089897D01*
X1087517Y-925002D02*
Y-935000D01*
X1055000Y-906907D02*
X1055952Y-906430D01*
X1057380Y-905002D01*
Y-915000D01*
X1062808Y-914048D02*
X1062332Y-914524D01*
X1062808Y-915000D01*
X1063284Y-914524D01*
X1062808Y-914048D01*
X1071187Y-906430D02*
X1070711Y-905478D01*
X1069283Y-905002D01*
X1068331D01*
X1066902Y-905478D01*
X1065950Y-906907D01*
X1065474Y-909287D01*
Y-911667D01*
X1065950Y-913572D01*
X1066902Y-914524D01*
X1068331Y-915000D01*
X1068807D01*
X1070235Y-914524D01*
X1071187Y-913572D01*
X1071663Y-912143D01*
Y-911667D01*
X1071187Y-910239D01*
X1070235Y-909287D01*
X1068807Y-908811D01*
X1068331D01*
X1066902Y-909287D01*
X1065950Y-910239D01*
X1065474Y-911667D01*
X1077186Y-905002D02*
Y-915000D01*
X1073853Y-905002D02*
X1080518D01*
X1057380Y-885002D02*
X1055952Y-885478D01*
X1055476Y-886430D01*
Y-887383D01*
X1055952Y-888335D01*
X1056904Y-888811D01*
X1058809Y-889287D01*
X1060237Y-889763D01*
X1061189Y-890715D01*
X1061665Y-891667D01*
Y-893096D01*
X1061189Y-894048D01*
X1060713Y-894524D01*
X1059285Y-895000D01*
X1057380D01*
X1055952Y-894524D01*
X1055476Y-894048D01*
X1055000Y-893096D01*
Y-891667D01*
X1055476Y-890715D01*
X1056428Y-889763D01*
X1057857Y-889287D01*
X1059761Y-888811D01*
X1060713Y-888335D01*
X1061189Y-887383D01*
Y-886430D01*
X1060713Y-885478D01*
X1059285Y-885002D01*
X1057380D01*
X1066283D02*
X1064855Y-885478D01*
X1064379Y-886430D01*
Y-887383D01*
X1064855Y-888335D01*
X1065807Y-888811D01*
X1067712Y-889287D01*
X1069140Y-889763D01*
X1070092Y-890715D01*
X1070568Y-891667D01*
Y-893096D01*
X1070092Y-894048D01*
X1069616Y-894524D01*
X1068188Y-895000D01*
X1066283D01*
X1064855Y-894524D01*
X1064379Y-894048D01*
X1063903Y-893096D01*
Y-891667D01*
X1064379Y-890715D01*
X1065331Y-889763D01*
X1066759Y-889287D01*
X1068664Y-888811D01*
X1069616Y-888335D01*
X1070092Y-887383D01*
Y-886430D01*
X1069616Y-885478D01*
X1068188Y-885002D01*
X1066283D01*
X1072806Y-888335D02*
Y-895000D01*
Y-890239D02*
X1074234Y-888811D01*
X1075186Y-888335D01*
X1076614D01*
X1077567Y-888811D01*
X1078043Y-890239D01*
Y-895000D01*
Y-890239D02*
X1079471Y-888811D01*
X1080423Y-888335D01*
X1081851D01*
X1082804Y-888811D01*
X1083280Y-890239D01*
Y-895000D01*
X1086422Y-888335D02*
Y-895000D01*
Y-890239D02*
X1087850Y-888811D01*
X1088802Y-888335D01*
X1090230D01*
X1091183Y-888811D01*
X1091659Y-890239D01*
Y-895000D01*
Y-890239D02*
X1093087Y-888811D01*
X1094039Y-888335D01*
X1095468D01*
X1096420Y-888811D01*
X1096896Y-890239D01*
Y-895000D01*
X1107893Y-885002D02*
X1114559Y-895000D01*
Y-885002D02*
X1107893Y-895000D01*
X1130841Y-888335D02*
X1130365Y-889763D01*
X1129413Y-890715D01*
X1127984Y-891191D01*
X1127508D01*
X1126080Y-890715D01*
X1125128Y-889763D01*
X1124652Y-888335D01*
Y-887859D01*
X1125128Y-886430D01*
X1126080Y-885478D01*
X1127508Y-885002D01*
X1127984D01*
X1129413Y-885478D01*
X1130365Y-886430D01*
X1130841Y-888335D01*
Y-890715D01*
X1130365Y-893096D01*
X1129413Y-894524D01*
X1127984Y-895000D01*
X1127032D01*
X1125604Y-894524D01*
X1125128Y-893572D01*
X1138316Y-885002D02*
X1133555Y-891667D01*
X1140696D01*
X1138316Y-885002D02*
Y-895000D01*
X1142457Y-888335D02*
Y-895000D01*
Y-890239D02*
X1143886Y-888811D01*
X1144838Y-888335D01*
X1146266D01*
X1147218Y-888811D01*
X1147694Y-890239D01*
Y-895000D01*
Y-890239D02*
X1149123Y-888811D01*
X1150075Y-888335D01*
X1151503D01*
X1152455Y-888811D01*
X1152931Y-890239D01*
Y-895000D01*
X1156074Y-888335D02*
Y-895000D01*
Y-890239D02*
X1157502Y-888811D01*
X1158454Y-888335D01*
X1159882D01*
X1160835Y-888811D01*
X1161311Y-890239D01*
Y-895000D01*
Y-890239D02*
X1162739Y-888811D01*
X1163691Y-888335D01*
X1165119D01*
X1166071Y-888811D01*
X1166547Y-890239D01*
Y-895000D01*
X911665Y-986430D02*
X910713Y-985478D01*
X909285Y-985002D01*
X907380D01*
X905952Y-985478D01*
X905000Y-986430D01*
Y-987383D01*
X905476Y-988335D01*
X905952Y-988811D01*
X906904Y-989287D01*
X909761Y-990239D01*
X910713Y-990715D01*
X911189Y-991191D01*
X911665Y-992143D01*
Y-993572D01*
X910713Y-994524D01*
X909285Y-995000D01*
X907380D01*
X905952Y-994524D01*
X905000Y-993572D01*
X914855Y-985002D02*
X915331Y-985478D01*
X915807Y-985002D01*
X915331Y-984526D01*
X914855Y-985002D01*
X915331Y-988335D02*
Y-995000D01*
X917569Y-985002D02*
Y-995000D01*
X919663Y-985002D02*
Y-995000D01*
X924424Y-988335D02*
X919663Y-993096D01*
X921568Y-991191D02*
X924901Y-995000D01*
X940992Y-986430D02*
X940040Y-985478D01*
X938612Y-985002D01*
X936708D01*
X935279Y-985478D01*
X934327Y-986430D01*
Y-987383D01*
X934803Y-988335D01*
X935279Y-988811D01*
X936231Y-989287D01*
X939088Y-990239D01*
X940040Y-990715D01*
X940516Y-991191D01*
X940992Y-992143D01*
Y-993572D01*
X940040Y-994524D01*
X938612Y-995000D01*
X936708D01*
X935279Y-994524D01*
X934327Y-993572D01*
X948943Y-989763D02*
X947991Y-988811D01*
X947039Y-988335D01*
X945610D01*
X944658Y-988811D01*
X943706Y-989763D01*
X943230Y-991191D01*
Y-992143D01*
X943706Y-993572D01*
X944658Y-994524D01*
X945610Y-995000D01*
X947039D01*
X947991Y-994524D01*
X948943Y-993572D01*
X951085Y-988335D02*
Y-995000D01*
Y-991191D02*
X951561Y-989763D01*
X952514Y-988811D01*
X953466Y-988335D01*
X954894D01*
X955799Y-991191D02*
X961512D01*
Y-990239D01*
X961036Y-989287D01*
X960559Y-988811D01*
X959607Y-988335D01*
X958179D01*
X957227Y-988811D01*
X956275Y-989763D01*
X955799Y-991191D01*
Y-992143D01*
X956275Y-993572D01*
X957227Y-994524D01*
X958179Y-995000D01*
X959607D01*
X960559Y-994524D01*
X961512Y-993572D01*
X963654Y-991191D02*
X969367D01*
Y-990239D01*
X968891Y-989287D01*
X968415Y-988811D01*
X967463Y-988335D01*
X966034D01*
X965082Y-988811D01*
X964130Y-989763D01*
X963654Y-991191D01*
Y-992143D01*
X964130Y-993572D01*
X965082Y-994524D01*
X966034Y-995000D01*
X967463D01*
X968415Y-994524D01*
X969367Y-993572D01*
X971509Y-988335D02*
Y-995000D01*
Y-990239D02*
X972938Y-988811D01*
X973890Y-988335D01*
X975318D01*
X976270Y-988811D01*
X976747Y-990239D01*
Y-995000D01*
X911665Y-966430D02*
X910713Y-965478D01*
X909285Y-965002D01*
X907380D01*
X905952Y-965478D01*
X905000Y-966430D01*
Y-967383D01*
X905476Y-968335D01*
X905952Y-968811D01*
X906904Y-969287D01*
X909761Y-970239D01*
X910713Y-970715D01*
X911189Y-971191D01*
X911665Y-972143D01*
Y-973572D01*
X910713Y-974524D01*
X909285Y-975000D01*
X907380D01*
X905952Y-974524D01*
X905000Y-973572D01*
X916283Y-968335D02*
X915331Y-968811D01*
X914379Y-969763D01*
X913903Y-971191D01*
Y-972143D01*
X914379Y-973572D01*
X915331Y-974524D01*
X916283Y-975000D01*
X917712D01*
X918664Y-974524D01*
X919616Y-973572D01*
X920092Y-972143D01*
Y-971191D01*
X919616Y-969763D01*
X918664Y-968811D01*
X917712Y-968335D01*
X916283D01*
X922282Y-965002D02*
Y-975000D01*
X930090Y-965002D02*
Y-975000D01*
Y-969763D02*
X929138Y-968811D01*
X928186Y-968335D01*
X926757D01*
X925805Y-968811D01*
X924853Y-969763D01*
X924377Y-971191D01*
Y-972143D01*
X924853Y-973572D01*
X925805Y-974524D01*
X926757Y-975000D01*
X928186D01*
X929138Y-974524D01*
X930090Y-973572D01*
X932756Y-971191D02*
X938469D01*
Y-970239D01*
X937993Y-969287D01*
X937517Y-968811D01*
X936565Y-968335D01*
X935136D01*
X934184Y-968811D01*
X933232Y-969763D01*
X932756Y-971191D01*
Y-972143D01*
X933232Y-973572D01*
X934184Y-974524D01*
X935136Y-975000D01*
X936565D01*
X937517Y-974524D01*
X938469Y-973572D01*
X940611Y-968335D02*
Y-975000D01*
Y-971191D02*
X941087Y-969763D01*
X942040Y-968811D01*
X942992Y-968335D01*
X944420D01*
X953180Y-965002D02*
Y-975000D01*
Y-965002D02*
X956989Y-975000D01*
X960798Y-965002D02*
X956989Y-975000D01*
X960798Y-965002D02*
Y-975000D01*
X969367Y-968335D02*
Y-975000D01*
Y-969763D02*
X968415Y-968811D01*
X967463Y-968335D01*
X966034D01*
X965082Y-968811D01*
X964130Y-969763D01*
X963654Y-971191D01*
Y-972143D01*
X964130Y-973572D01*
X965082Y-974524D01*
X966034Y-975000D01*
X967463D01*
X968415Y-974524D01*
X969367Y-973572D01*
X977270Y-969763D02*
X976794Y-968811D01*
X975366Y-968335D01*
X973938D01*
X972509Y-968811D01*
X972033Y-969763D01*
X972509Y-970715D01*
X973462Y-971191D01*
X975842Y-971667D01*
X976794Y-972143D01*
X977270Y-973096D01*
Y-973572D01*
X976794Y-974524D01*
X975366Y-975000D01*
X973938D01*
X972509Y-974524D01*
X972033Y-973572D01*
X979365Y-965002D02*
Y-975000D01*
X984126Y-968335D02*
X979365Y-973096D01*
X981269Y-971191D02*
X984602Y-975000D01*
X911665Y-946430D02*
X910713Y-945478D01*
X909285Y-945002D01*
X907380D01*
X905952Y-945478D01*
X905000Y-946430D01*
Y-947383D01*
X905476Y-948335D01*
X905952Y-948811D01*
X906904Y-949287D01*
X909761Y-950239D01*
X910713Y-950715D01*
X911189Y-951191D01*
X911665Y-952143D01*
Y-953572D01*
X910713Y-954524D01*
X909285Y-955000D01*
X907380D01*
X905952Y-954524D01*
X905000Y-953572D01*
X913903Y-948335D02*
Y-953096D01*
X914379Y-954524D01*
X915331Y-955000D01*
X916759D01*
X917712Y-954524D01*
X919140Y-953096D01*
Y-948335D02*
Y-955000D01*
X921758Y-948335D02*
Y-955000D01*
Y-951191D02*
X922234Y-949763D01*
X923187Y-948811D01*
X924139Y-948335D01*
X925567D01*
X930280Y-945002D02*
X929328D01*
X928376Y-945478D01*
X927900Y-946907D01*
Y-955000D01*
X926472Y-948335D02*
X929804D01*
X937422D02*
Y-955000D01*
Y-949763D02*
X936469Y-948811D01*
X935517Y-948335D01*
X934089D01*
X933137Y-948811D01*
X932185Y-949763D01*
X931709Y-951191D01*
Y-952143D01*
X932185Y-953572D01*
X933137Y-954524D01*
X934089Y-955000D01*
X935517D01*
X936469Y-954524D01*
X937422Y-953572D01*
X945801Y-949763D02*
X944849Y-948811D01*
X943896Y-948335D01*
X942468D01*
X941516Y-948811D01*
X940564Y-949763D01*
X940088Y-951191D01*
Y-952143D01*
X940564Y-953572D01*
X941516Y-954524D01*
X942468Y-955000D01*
X943896D01*
X944849Y-954524D01*
X945801Y-953572D01*
X947943Y-951191D02*
X953656D01*
Y-950239D01*
X953180Y-949287D01*
X952704Y-948811D01*
X951752Y-948335D01*
X950324D01*
X949371Y-948811D01*
X948419Y-949763D01*
X947943Y-951191D01*
Y-952143D01*
X948419Y-953572D01*
X949371Y-954524D01*
X950324Y-955000D01*
X951752D01*
X952704Y-954524D01*
X953656Y-953572D01*
X963654Y-950239D02*
X967939D01*
X969367Y-949763D01*
X969843Y-949287D01*
X970319Y-948335D01*
Y-946907D01*
X969843Y-945954D01*
X969367Y-945478D01*
X967939Y-945002D01*
X963654D01*
Y-955000D01*
X972557Y-948335D02*
Y-955000D01*
Y-951191D02*
X973033Y-949763D01*
X973985Y-948811D01*
X974937Y-948335D01*
X976366D01*
X977270Y-951191D02*
X982983D01*
Y-950239D01*
X982507Y-949287D01*
X982031Y-948811D01*
X981079Y-948335D01*
X979651D01*
X978699Y-948811D01*
X977746Y-949763D01*
X977270Y-951191D01*
Y-952143D01*
X977746Y-953572D01*
X978699Y-954524D01*
X979651Y-955000D01*
X981079D01*
X982031Y-954524D01*
X982983Y-953572D01*
X985126Y-948335D02*
Y-958333D01*
Y-949763D02*
X986078Y-948811D01*
X987030Y-948335D01*
X988458D01*
X989410Y-948811D01*
X990363Y-949763D01*
X990839Y-951191D01*
Y-952143D01*
X990363Y-953572D01*
X989410Y-954524D01*
X988458Y-955000D01*
X987030D01*
X986078Y-954524D01*
X985126Y-953572D01*
X998694Y-948335D02*
Y-955000D01*
Y-949763D02*
X997742Y-948811D01*
X996790Y-948335D01*
X995362D01*
X994409Y-948811D01*
X993457Y-949763D01*
X992981Y-951191D01*
Y-952143D01*
X993457Y-953572D01*
X994409Y-954524D01*
X995362Y-955000D01*
X996790D01*
X997742Y-954524D01*
X998694Y-953572D01*
X1001360Y-948335D02*
Y-955000D01*
Y-951191D02*
X1001836Y-949763D01*
X1002788Y-948811D01*
X1003741Y-948335D01*
X1005169D01*
X1011787D02*
Y-955000D01*
Y-949763D02*
X1010835Y-948811D01*
X1009882Y-948335D01*
X1008454D01*
X1007502Y-948811D01*
X1006550Y-949763D01*
X1006074Y-951191D01*
Y-952143D01*
X1006550Y-953572D01*
X1007502Y-954524D01*
X1008454Y-955000D01*
X1009882D01*
X1010835Y-954524D01*
X1011787Y-953572D01*
X1015881Y-945002D02*
Y-953096D01*
X1016357Y-954524D01*
X1017309Y-955000D01*
X1018261D01*
X1014453Y-948335D02*
X1017785D01*
X1020642Y-945002D02*
X1021118Y-945478D01*
X1021594Y-945002D01*
X1021118Y-944526D01*
X1020642Y-945002D01*
X1021118Y-948335D02*
Y-955000D01*
X1025736Y-948335D02*
X1024784Y-948811D01*
X1023832Y-949763D01*
X1023356Y-951191D01*
Y-952143D01*
X1023832Y-953572D01*
X1024784Y-954524D01*
X1025736Y-955000D01*
X1027164D01*
X1028117Y-954524D01*
X1029069Y-953572D01*
X1029545Y-952143D01*
Y-951191D01*
X1029069Y-949763D01*
X1028117Y-948811D01*
X1027164Y-948335D01*
X1025736D01*
X1031735D02*
Y-955000D01*
Y-950239D02*
X1033163Y-948811D01*
X1034115Y-948335D01*
X1035543D01*
X1036496Y-948811D01*
X1036972Y-950239D01*
Y-955000D01*
X905000Y-925002D02*
Y-935000D01*
Y-925002D02*
X908809Y-935000D01*
X912617Y-925002D02*
X908809Y-935000D01*
X912617Y-925002D02*
Y-935000D01*
X915474Y-931191D02*
X921187D01*
Y-930239D01*
X920711Y-929287D01*
X920235Y-928811D01*
X919283Y-928335D01*
X917854D01*
X916902Y-928811D01*
X915950Y-929763D01*
X915474Y-931191D01*
Y-932143D01*
X915950Y-933572D01*
X916902Y-934524D01*
X917854Y-935000D01*
X919283D01*
X920235Y-934524D01*
X921187Y-933572D01*
X924758Y-925002D02*
Y-933096D01*
X925234Y-934524D01*
X926186Y-935000D01*
X927138D01*
X923329Y-928335D02*
X926662D01*
X928566Y-931191D02*
X934279D01*
Y-930239D01*
X933803Y-929287D01*
X933327Y-928811D01*
X932375Y-928335D01*
X930947D01*
X929995Y-928811D01*
X929043Y-929763D01*
X928566Y-931191D01*
Y-932143D01*
X929043Y-933572D01*
X929995Y-934524D01*
X930947Y-935000D01*
X932375D01*
X933327Y-934524D01*
X934279Y-933572D01*
X936422Y-928335D02*
Y-935000D01*
Y-931191D02*
X936898Y-929763D01*
X937850Y-928811D01*
X938802Y-928335D01*
X940230D01*
X942087Y-925002D02*
X942563Y-925478D01*
X943039Y-925002D01*
X942563Y-924526D01*
X942087Y-925002D01*
X942563Y-928335D02*
Y-935000D01*
X950514Y-928335D02*
Y-935000D01*
Y-929763D02*
X949562Y-928811D01*
X948610Y-928335D01*
X947181D01*
X946229Y-928811D01*
X945277Y-929763D01*
X944801Y-931191D01*
Y-932143D01*
X945277Y-933572D01*
X946229Y-934524D01*
X947181Y-935000D01*
X948610D01*
X949562Y-934524D01*
X950514Y-933572D01*
X953180Y-925002D02*
Y-935000D01*
X908333Y-905002D02*
Y-915000D01*
X905000Y-905002D02*
X911665D01*
X912856D02*
Y-915000D01*
Y-910239D02*
X914284Y-908811D01*
X915236Y-908335D01*
X916664D01*
X917616Y-908811D01*
X918092Y-910239D01*
Y-915000D01*
X921663Y-905002D02*
X922139Y-905478D01*
X922615Y-905002D01*
X922139Y-904526D01*
X921663Y-905002D01*
X922139Y-908335D02*
Y-915000D01*
X930090Y-909763D02*
X929138Y-908811D01*
X928186Y-908335D01*
X926757D01*
X925805Y-908811D01*
X924853Y-909763D01*
X924377Y-911191D01*
Y-912143D01*
X924853Y-913572D01*
X925805Y-914524D01*
X926757Y-915000D01*
X928186D01*
X929138Y-914524D01*
X930090Y-913572D01*
X932232Y-905002D02*
Y-915000D01*
X936993Y-908335D02*
X932232Y-913096D01*
X934137Y-911191D02*
X937469Y-915000D01*
X939040Y-908335D02*
Y-915000D01*
Y-910239D02*
X940469Y-908811D01*
X941421Y-908335D01*
X942849D01*
X943801Y-908811D01*
X944277Y-910239D01*
Y-915000D01*
X946896Y-911191D02*
X952609D01*
Y-910239D01*
X952133Y-909287D01*
X951657Y-908811D01*
X950704Y-908335D01*
X949276D01*
X948324Y-908811D01*
X947372Y-909763D01*
X946896Y-911191D01*
Y-912143D01*
X947372Y-913572D01*
X948324Y-914524D01*
X949276Y-915000D01*
X950704D01*
X951657Y-914524D01*
X952609Y-913572D01*
X959988Y-909763D02*
X959512Y-908811D01*
X958084Y-908335D01*
X956656D01*
X955227Y-908811D01*
X954751Y-909763D01*
X955227Y-910715D01*
X956180Y-911191D01*
X958560Y-911667D01*
X959512Y-912143D01*
X959988Y-913096D01*
Y-913572D01*
X959512Y-914524D01*
X958084Y-915000D01*
X956656D01*
X955227Y-914524D01*
X954751Y-913572D01*
X967320Y-909763D02*
X966844Y-908811D01*
X965416Y-908335D01*
X963987D01*
X962559Y-908811D01*
X962083Y-909763D01*
X962559Y-910715D01*
X963511Y-911191D01*
X965892Y-911667D01*
X966844Y-912143D01*
X967320Y-913096D01*
Y-913572D01*
X966844Y-914524D01*
X965416Y-915000D01*
X963987D01*
X962559Y-914524D01*
X962083Y-913572D01*
X911665Y-886430D02*
X910713Y-885478D01*
X909285Y-885002D01*
X907380D01*
X905952Y-885478D01*
X905000Y-886430D01*
Y-887383D01*
X905476Y-888335D01*
X905952Y-888811D01*
X906904Y-889287D01*
X909761Y-890239D01*
X910713Y-890715D01*
X911189Y-891191D01*
X911665Y-892143D01*
Y-893572D01*
X910713Y-894524D01*
X909285Y-895000D01*
X907380D01*
X905952Y-894524D01*
X905000Y-893572D01*
X914855Y-885002D02*
X915331Y-885478D01*
X915807Y-885002D01*
X915331Y-884526D01*
X914855Y-885002D01*
X915331Y-888335D02*
Y-895000D01*
X922806Y-888335D02*
X917569Y-895000D01*
Y-888335D02*
X922806D01*
X917569Y-895000D02*
X922806D01*
X924901Y-891191D02*
X930614D01*
Y-890239D01*
X930137Y-889287D01*
X929661Y-888811D01*
X928709Y-888335D01*
X927281D01*
X926329Y-888811D01*
X925377Y-889763D01*
X924901Y-891191D01*
Y-892143D01*
X925377Y-893572D01*
X926329Y-894524D01*
X927281Y-895000D01*
X928709D01*
X929661Y-894524D01*
X930614Y-893572D01*
D56*
X0Y-360000D02*
D03*
D58*
X302944Y-221640D02*
D03*
X259604Y-187779D02*
D03*
X347888Y-142326D02*
D03*
X298455Y-118216D02*
D03*
D61*
X-266250Y37500D02*
D03*
X340002Y-119999D02*
D03*
X280002Y-219999D02*
D03*
X120001Y360002D02*
D03*
Y-39999D02*
D03*
X100001Y360002D02*
D03*
Y-59999D02*
D03*
X80001Y-39999D02*
D03*
X40001Y-119999D02*
D03*
Y-139999D02*
D03*
X20001Y340002D02*
D03*
Y-119999D02*
D03*
Y-139999D02*
D03*
X1Y-119999D02*
D03*
X-19999D02*
D03*
Y-139999D02*
D03*
X-39999Y-119999D02*
D03*
Y-139999D02*
D03*
X87500Y-216500D02*
D03*
X118750D02*
D03*
X102500Y-200000D02*
D03*
X-151251Y220000D02*
D03*
X-287500Y-20000D02*
D03*
X196250Y-308750D02*
D03*
X201250Y-303750D02*
D03*
X-133000Y257500D02*
D03*
Y302500D02*
D03*
X-266250Y30000D02*
D03*
Y45000D02*
D03*
X-260000Y57500D02*
D03*
X-287500Y-32500D02*
D03*
X-277500Y-42500D02*
D03*
X-287500D02*
D03*
X-165000Y192500D02*
D03*
Y185000D02*
D03*
Y200000D02*
D03*
X-94000Y132500D02*
D03*
X60001Y-139999D02*
D03*
Y-119999D02*
D03*
X80001Y-59999D02*
D03*
X100001Y20001D02*
D03*
X120001Y-19999D02*
D03*
X280002Y-199999D02*
D03*
X300002D02*
D03*
X320001Y-139999D02*
D03*
Y-119999D02*
D03*
X-359999Y100001D02*
D03*
X-339999Y-139999D02*
D03*
Y-119999D02*
D03*
Y100001D02*
D03*
Y120001D02*
D03*
X-319999Y-179999D02*
D03*
Y-159999D02*
D03*
Y-139999D02*
D03*
Y-119999D02*
D03*
Y100001D02*
D03*
Y120001D02*
D03*
X-299999Y-159999D02*
D03*
Y80001D02*
D03*
Y100001D02*
D03*
Y120001D02*
D03*
X-259999Y260002D02*
D03*
X-219999Y-299999D02*
D03*
X-199999D02*
D03*
X-179999Y-319999D02*
D03*
Y-299999D02*
D03*
Y240002D02*
D03*
Y260002D02*
D03*
Y280002D02*
D03*
Y300002D02*
D03*
X-159999Y-319999D02*
D03*
Y-299999D02*
D03*
X-139999Y-339999D02*
D03*
Y-319999D02*
D03*
Y-299999D02*
D03*
X-119999Y-339999D02*
D03*
Y-319999D02*
D03*
Y-299999D02*
D03*
X-99999Y-359999D02*
D03*
Y-339999D02*
D03*
Y-319999D02*
D03*
Y-299999D02*
D03*
Y220002D02*
D03*
Y240002D02*
D03*
Y260002D02*
D03*
Y280002D02*
D03*
Y300002D02*
D03*
Y320001D02*
D03*
Y340002D02*
D03*
X-79999Y-359999D02*
D03*
Y-339999D02*
D03*
Y-319999D02*
D03*
X-59999Y80001D02*
D03*
Y100001D02*
D03*
X20001Y-259999D02*
D03*
Y-239999D02*
D03*
X100001Y-299999D02*
D03*
X180002Y-259999D02*
D03*
Y-239999D02*
D03*
D62*
X277036Y249011D02*
D03*
X290926Y249571D02*
D03*
X160000Y-325000D02*
D03*
X165000Y-320000D02*
D03*
X150000Y-325000D02*
D03*
X155000Y-320000D02*
D03*
X160000Y-315000D02*
D03*
X-266250Y-63750D02*
D03*
Y-70000D02*
D03*
Y-76250D02*
D03*
X-240000Y38750D02*
D03*
Y46250D02*
D03*
X-232500D02*
D03*
Y38750D02*
D03*
X-212500Y-110000D02*
D03*
X-222500D02*
D03*
X-217500Y-105000D02*
D03*
X-99000Y-105000D02*
D03*
X-104000Y-110000D02*
D03*
Y-100000D02*
D03*
X-94000D02*
D03*
X-71250Y-180000D02*
D03*
Y-160000D02*
D03*
X-188750D02*
D03*
Y-180000D02*
D03*
X207500Y107500D02*
D03*
X137500Y107500D02*
D03*
X62500Y107500D02*
D03*
X67500Y207500D02*
D03*
X137500Y207500D02*
D03*
X207500Y207500D02*
D03*
X-94000Y-110000D02*
D03*
X42500Y190750D02*
D03*
Y164750D02*
D03*
Y138750D02*
D03*
Y121250D02*
D03*
Y110000D02*
D03*
X-38000Y105000D02*
D03*
X-38500Y203750D02*
D03*
X-52500Y322500D02*
D03*
Y292500D02*
D03*
Y280000D02*
D03*
Y246250D02*
D03*
Y232500D02*
D03*
X-117500Y288250D02*
D03*
Y243250D02*
D03*
Y333250D02*
D03*
X150000Y347500D02*
D03*
X125000D02*
D03*
X-147500Y337465D02*
D03*
X-12500Y-390000D02*
D03*
X-6250Y-390750D02*
D03*
X0Y-391500D02*
D03*
X6250Y-390750D02*
D03*
X12500Y-390250D02*
D03*
X-212500Y-100000D02*
D03*
X-222500D02*
D03*
X-159500Y170000D02*
D03*
X-150000D02*
D03*
X-140500Y110000D02*
D03*
X-151500Y105000D02*
D03*
X-82500Y105000D02*
D03*
X-52500Y126000D02*
D03*
X-92500Y105000D02*
D03*
X-33000Y203750D02*
D03*
M02*
